%TF.GenerationSoftware,KiCad,Pcbnew,5.1.9+dfsg1-1*%
%TF.CreationDate,2022-02-15T13:48:39+01:00*%
%TF.ProjectId,sc606-baseboard,73633630-362d-4626-9173-65626f617264,rev?*%
%TF.SameCoordinates,Original*%
%TF.FileFunction,Copper,L4,Inr*%
%TF.FilePolarity,Positive*%
%FSLAX46Y46*%
G04 Gerber Fmt 4.6, Leading zero omitted, Abs format (unit mm)*
G04 Created by KiCad (PCBNEW 5.1.9+dfsg1-1) date 2022-02-15 13:48:39 commit a4fbcb5*
%MOMM*%
%LPD*%
G01*
G04 APERTURE LIST*
%TA.AperFunction,Profile*%
%ADD10C,0.120000*%
%TD*%
%TA.AperFunction,Profile*%
%ADD11C,0.254000*%
%TD*%
%TA.AperFunction,WasherPad*%
%ADD12C,1.710000*%
%TD*%
%TA.AperFunction,ComponentPad*%
%ADD13C,2.000000*%
%TD*%
%TA.AperFunction,ComponentPad*%
%ADD14O,0.900000X1.900000*%
%TD*%
%TA.AperFunction,ComponentPad*%
%ADD15O,1.000000X1.600000*%
%TD*%
%TA.AperFunction,ComponentPad*%
%ADD16O,1.150000X0.800000*%
%TD*%
%TA.AperFunction,ComponentPad*%
%ADD17C,0.650000*%
%TD*%
%TA.AperFunction,ComponentPad*%
%ADD18O,1.500000X2.550000*%
%TD*%
%TA.AperFunction,ComponentPad*%
%ADD19C,1.800000*%
%TD*%
%TA.AperFunction,ComponentPad*%
%ADD20R,1.800000X1.800000*%
%TD*%
%TA.AperFunction,ViaPad*%
%ADD21C,0.600000*%
%TD*%
%TA.AperFunction,Conductor*%
%ADD22C,0.125000*%
%TD*%
%TA.AperFunction,Conductor*%
%ADD23C,0.500000*%
%TD*%
%TA.AperFunction,Conductor*%
%ADD24C,0.250000*%
%TD*%
%TA.AperFunction,Conductor*%
%ADD25C,0.150000*%
%TD*%
%TA.AperFunction,Conductor*%
%ADD26C,0.254000*%
%TD*%
%TA.AperFunction,Conductor*%
%ADD27C,0.100000*%
%TD*%
G04 APERTURE END LIST*
D10*
X175600000Y-42400000D02*
X75600000Y-42400000D01*
D11*
X175600000Y-42400000D02*
X175600000Y-122400000D01*
D10*
X75600000Y-122400000D02*
X75600000Y-42400000D01*
D11*
X175600000Y-122400000D02*
X75600000Y-122400000D01*
D12*
%TO.N,*%
%TO.C,J1*%
X171050000Y-45920000D03*
X173550000Y-45920000D03*
D13*
%TO.N,GND*%
X173550000Y-53100000D03*
%TO.N,AUX_VDD*%
X171050000Y-53100000D03*
%TD*%
D14*
%TO.N,GND*%
%TO.C,J6*%
X76900000Y-44765000D03*
X85900000Y-44765000D03*
D15*
X77180000Y-47280000D03*
X85620000Y-47280000D03*
D16*
X77555000Y-50080000D03*
X85245000Y-50080000D03*
D17*
%TO.N,N/C*%
X79000000Y-47180000D03*
X79800000Y-47180000D03*
X80600000Y-47180000D03*
X82200000Y-47180000D03*
X83000000Y-47180000D03*
X83800000Y-47180000D03*
%TO.N,GND*%
X78600000Y-47880000D03*
%TO.N,/USB_flash_debug/USB_FLASH_5V0*%
X80200000Y-47880000D03*
%TO.N,/USB_flash_debug/USB_FLASH_P*%
X81000000Y-47880000D03*
%TO.N,/USB_flash_debug/USB_FLASH_N*%
X81800000Y-47880000D03*
%TO.N,/USB_flash_debug/USB_FLASH_5V0*%
X82600000Y-47880000D03*
%TO.N,GND*%
X84200000Y-47880000D03*
%TD*%
D14*
%TO.N,GND*%
%TO.C,J12*%
X153400000Y-44765000D03*
X162400000Y-44765000D03*
D15*
X153680000Y-47280000D03*
X162120000Y-47280000D03*
D16*
X154055000Y-50080000D03*
X161745000Y-50080000D03*
D17*
%TO.N,N/C*%
X155500000Y-47180000D03*
X156300000Y-47180000D03*
%TO.N,/USB-PD/PD_CC2*%
X157100000Y-47180000D03*
%TO.N,N/C*%
X158700000Y-47180000D03*
X159500000Y-47180000D03*
X160300000Y-47180000D03*
%TO.N,GND*%
X155100000Y-47880000D03*
%TO.N,/USB-PD/PD_VBUS*%
X156700000Y-47880000D03*
%TO.N,N/C*%
X157500000Y-47880000D03*
X158300000Y-47880000D03*
%TO.N,/USB-PD/PD_VBUS*%
X159100000Y-47880000D03*
%TO.N,GND*%
X160700000Y-47880000D03*
%TD*%
D14*
%TO.N,GND*%
%TO.C,J9*%
X139900000Y-44765000D03*
X148900000Y-44765000D03*
D15*
X140180000Y-47280000D03*
X148620000Y-47280000D03*
D16*
X140555000Y-50080000D03*
X148245000Y-50080000D03*
D17*
%TO.N,N/C*%
X142000000Y-47180000D03*
X142800000Y-47180000D03*
X143600000Y-47180000D03*
X145200000Y-47180000D03*
X146000000Y-47180000D03*
X146800000Y-47180000D03*
%TO.N,GND*%
X141600000Y-47880000D03*
%TO.N,/USB_flash_debug/DBG_VBUS*%
X143200000Y-47880000D03*
%TO.N,/USB_flash_debug/DBG_USB_D_P*%
X144000000Y-47880000D03*
%TO.N,/USB_flash_debug/DBG_USB_D_N*%
X144800000Y-47880000D03*
%TO.N,/USB_flash_debug/DBG_VBUS*%
X145600000Y-47880000D03*
%TO.N,GND*%
X147200000Y-47880000D03*
%TD*%
D14*
%TO.N,GND*%
%TO.C,J11*%
X90400000Y-44765000D03*
X99400000Y-44765000D03*
D15*
X90680000Y-47280000D03*
X99120000Y-47280000D03*
D16*
X91055000Y-50080000D03*
X98745000Y-50080000D03*
D17*
%TO.N,/USB_HUB_Connectors/USB_C2_SS_C_TX2_P*%
X92500000Y-47180000D03*
%TO.N,/USB_HUB_Connectors/USB_C2_SS_C_TX2_N*%
X93300000Y-47180000D03*
%TO.N,/USB_HUB_Connectors/USB_C2_CC2*%
X94100000Y-47180000D03*
%TO.N,Net-(J11-PadB8)*%
X95700000Y-47180000D03*
%TO.N,/USB_HUB_Connectors/USB_C2_SS_C_RX1_N*%
X96500000Y-47180000D03*
%TO.N,/USB_HUB_Connectors/USB_C2_SS_C_RX1_P*%
X97300000Y-47180000D03*
%TO.N,GND*%
X92100000Y-47880000D03*
%TO.N,/USB_HUB_Connectors/5V0_USB*%
X93700000Y-47880000D03*
%TO.N,/USB_HUB_Connectors/USB_C2_D2_P*%
X94500000Y-47880000D03*
%TO.N,/USB_HUB_Connectors/USB_C2_D2_N*%
X95300000Y-47880000D03*
%TO.N,/USB_HUB_Connectors/5V0_USB*%
X96100000Y-47880000D03*
%TO.N,GND*%
X97700000Y-47880000D03*
%TD*%
D14*
%TO.N,GND*%
%TO.C,J10*%
X103900000Y-44765000D03*
X112900000Y-44765000D03*
D15*
X104180000Y-47280000D03*
X112620000Y-47280000D03*
D16*
X104555000Y-50080000D03*
X112245000Y-50080000D03*
D17*
%TO.N,/USB_HUB_Connectors/USB_C1_SS_C_TX2_P*%
X106000000Y-47180000D03*
%TO.N,/USB_HUB_Connectors/USB_C1_SS_C_TX2_N*%
X106800000Y-47180000D03*
%TO.N,/USB_HUB_Connectors/USB_C1_CC2*%
X107600000Y-47180000D03*
%TO.N,Net-(J10-PadB8)*%
X109200000Y-47180000D03*
%TO.N,/USB_HUB_Connectors/USB_C1_SS_C_RX1_N*%
X110000000Y-47180000D03*
%TO.N,/USB_HUB_Connectors/USB_C1_SS_C_RX1_P*%
X110800000Y-47180000D03*
%TO.N,GND*%
X105600000Y-47880000D03*
%TO.N,/USB_HUB_Connectors/5V0_USB*%
X107200000Y-47880000D03*
%TO.N,/USB_HUB_Connectors/USB_C1_D2_P*%
X108000000Y-47880000D03*
%TO.N,/USB_HUB_Connectors/USB_C1_D2_N*%
X108800000Y-47880000D03*
%TO.N,/USB_HUB_Connectors/5V0_USB*%
X109600000Y-47880000D03*
%TO.N,GND*%
X111200000Y-47880000D03*
%TD*%
D18*
%TO.N,GND*%
%TO.C,J4*%
X133500000Y-43900000D03*
X127300000Y-43900000D03*
X133500000Y-47260000D03*
X127300000Y-47260000D03*
%TD*%
D19*
%TO.N,GND*%
%TO.C,SW1*%
X150330000Y-62250000D03*
%TO.N,DEBUG_UART_TX*%
X147790000Y-62250000D03*
D20*
%TO.N,DEBUG_UART_RX*%
X145250000Y-62250000D03*
%TD*%
D21*
%TO.N,GND*%
X130560000Y-61560000D03*
X131720000Y-60560000D03*
X138830000Y-54560000D03*
X88500000Y-87500000D03*
X90500000Y-87500000D03*
X88500000Y-89500000D03*
X88500000Y-93500000D03*
X88500000Y-95500000D03*
X90500000Y-93500000D03*
X92500000Y-93500000D03*
X90500000Y-90500000D03*
X94500000Y-93500000D03*
X94500000Y-90500000D03*
X94500000Y-97500000D03*
X94500000Y-101500000D03*
X94500000Y-105500000D03*
X90500000Y-121500000D03*
X88500000Y-97500000D03*
X90500000Y-97500000D03*
X92500000Y-97500000D03*
X88500000Y-99500000D03*
X88500000Y-101500000D03*
X88500000Y-103500000D03*
X88500000Y-105500000D03*
X88500000Y-107500000D03*
X90500000Y-101500000D03*
X92500000Y-101500000D03*
X90500000Y-105500000D03*
X92500000Y-105500000D03*
X88500000Y-109500000D03*
X90500000Y-109500000D03*
X88500000Y-81500000D03*
X86500000Y-69500000D03*
X84500000Y-69500000D03*
X82500000Y-69500000D03*
X80500000Y-69500000D03*
X78500000Y-69500000D03*
X76500000Y-69500000D03*
X122000000Y-53000000D03*
X120500000Y-53000000D03*
X119000000Y-53000000D03*
X123500000Y-53000000D03*
X125000000Y-53000000D03*
X125500000Y-57000000D03*
X125500000Y-55500000D03*
X125500000Y-54000000D03*
X125500000Y-58500000D03*
X125500000Y-60000000D03*
X122000000Y-61000000D03*
X120500000Y-61000000D03*
X119000000Y-61000000D03*
X118000000Y-57000000D03*
X118000000Y-58500000D03*
X118000000Y-60000000D03*
X118000000Y-55500000D03*
X118000000Y-54000000D03*
X123400000Y-61000000D03*
X125000000Y-61000000D03*
X174400000Y-104450000D03*
X174400000Y-105350000D03*
X173450000Y-105450000D03*
X152200000Y-69800000D03*
X151350000Y-69800000D03*
X151200000Y-70700000D03*
X88500000Y-113500000D03*
X88500000Y-117500000D03*
X88500000Y-119500000D03*
X88500000Y-121500000D03*
X88500000Y-85500000D03*
X90500000Y-83500000D03*
X92500000Y-83500000D03*
X88500000Y-83500000D03*
X88500000Y-79500000D03*
X90500000Y-79500000D03*
X92500000Y-79500000D03*
X88500000Y-77500000D03*
X88500000Y-75500000D03*
X90500000Y-75500000D03*
X88500000Y-73500000D03*
X88500000Y-71500000D03*
X90500000Y-71500000D03*
X92500000Y-71500000D03*
X88500000Y-69500000D03*
X88500000Y-115500000D03*
X88500000Y-111500000D03*
X90500000Y-113500000D03*
X114935000Y-61210000D03*
X110450000Y-78100000D03*
X112350000Y-78000000D03*
X120900000Y-73000000D03*
X124900000Y-107900000D03*
X138337501Y-82362499D03*
X96600000Y-64500000D03*
X82400000Y-66700000D03*
X79700000Y-64800000D03*
X89400000Y-56783628D03*
X83800000Y-55300000D03*
X84050000Y-64350000D03*
X111600000Y-55100000D03*
X107400000Y-54400000D03*
X133900000Y-121800000D03*
X127600000Y-119400010D03*
X163862501Y-113812501D03*
X157540000Y-110915000D03*
X153200000Y-118800000D03*
X125100000Y-101300000D03*
X168849996Y-100150004D03*
X160000000Y-104000000D03*
X109700000Y-69200000D03*
X128120000Y-64340000D03*
X169100000Y-75800000D03*
X169100000Y-72800000D03*
X169100000Y-78800000D03*
X169100000Y-81800000D03*
X169100000Y-84800000D03*
X169100000Y-87800000D03*
X169100000Y-90800000D03*
X134700000Y-81300000D03*
X122699998Y-116000000D03*
X119292785Y-112092785D03*
X132300000Y-98700000D03*
X126132215Y-99067785D03*
X126500000Y-96012500D03*
X129000000Y-94900000D03*
X123894715Y-93705285D03*
X121200000Y-97600000D03*
X121200000Y-100100000D03*
X115900000Y-100100000D03*
X110800000Y-100100000D03*
X116100000Y-97500000D03*
X110900000Y-97500000D03*
X116400000Y-106800000D03*
X111900000Y-107100000D03*
X109400000Y-112400000D03*
X105400000Y-112400000D03*
X103300000Y-112300000D03*
X99500000Y-113800000D03*
X104200000Y-107700000D03*
X103800000Y-98600000D03*
X104100000Y-92900000D03*
X119900000Y-93400000D03*
X123700000Y-91662501D03*
X128900000Y-92637501D03*
X129100000Y-90287500D03*
X123800000Y-89700000D03*
X118744714Y-89555286D03*
X117300000Y-93600000D03*
X113400000Y-94900000D03*
X113400000Y-92637501D03*
X109500000Y-93600000D03*
X113400000Y-89700000D03*
X109500000Y-88400000D03*
X129000000Y-87100000D03*
X123800000Y-87100000D03*
X118600000Y-87100000D03*
X116094714Y-86905286D03*
X111000000Y-87100000D03*
X110800000Y-84500000D03*
X116000000Y-84500000D03*
X121100000Y-84700000D03*
X126400000Y-84500000D03*
X129200000Y-84500000D03*
X133300000Y-84300000D03*
X140400000Y-86400000D03*
X140100000Y-89300000D03*
X144000000Y-113150000D03*
X131000000Y-119100000D03*
X128700000Y-119200000D03*
X126899330Y-119135586D03*
X99400000Y-90300000D03*
X107500000Y-81300000D03*
X98600000Y-71200000D03*
X105500000Y-72600000D03*
X102400000Y-72225000D03*
X104800000Y-63500000D03*
X103900000Y-64100000D03*
X102300000Y-62500000D03*
X102700000Y-61400000D03*
X103900000Y-62600000D03*
X104000000Y-61100000D03*
X120700000Y-78000000D03*
X130521364Y-63352162D03*
X128000000Y-58100000D03*
X130261094Y-65627897D03*
X135100000Y-65300000D03*
X131500000Y-66100000D03*
X134956906Y-60362035D03*
X138400000Y-79300000D03*
X143300000Y-75800000D03*
X141800000Y-72100000D03*
X128400000Y-72100000D03*
X138137491Y-59650000D03*
X140400000Y-52950000D03*
X146700000Y-51700000D03*
X144000000Y-58300000D03*
X146900000Y-57100000D03*
X152800000Y-56150000D03*
X154750000Y-56050000D03*
X150100000Y-45950000D03*
X161450000Y-54350000D03*
X166700000Y-55200000D03*
X159550000Y-56500000D03*
X165419715Y-58469715D03*
X161300000Y-63600000D03*
X161100000Y-70800000D03*
X161100000Y-67200000D03*
X155000000Y-68600000D03*
X132850000Y-63437491D03*
X144650000Y-55600000D03*
X157732482Y-72201785D03*
X170600000Y-59750000D03*
X139350000Y-100050000D03*
X139100000Y-104850000D03*
X133650000Y-119050000D03*
X129838747Y-45333160D03*
X134544715Y-49455285D03*
X133600000Y-51800000D03*
X127700000Y-51900000D03*
X93250000Y-54550000D03*
X97450000Y-55450000D03*
X95000000Y-52600000D03*
%TO.N,RTC_BAT*%
X95412490Y-88800002D03*
%TO.N,LDO6_1P8*%
X121500000Y-62500000D03*
X112900000Y-75900000D03*
X99400000Y-82800000D03*
X136900000Y-119025002D03*
X136900000Y-121100000D03*
X149500000Y-109800000D03*
%TO.N,V_SOM*%
X96250000Y-108750000D03*
X96250000Y-111000000D03*
X96500000Y-113500000D03*
X99500000Y-116000000D03*
X98500000Y-116500000D03*
X98500000Y-115500000D03*
X96500000Y-115500000D03*
X96500000Y-116500000D03*
X96500000Y-114500000D03*
X97500000Y-116000000D03*
X97500000Y-115000000D03*
X97500000Y-114000000D03*
X96250000Y-109750000D03*
%TO.N,VPH_PWR*%
X105400000Y-104700000D03*
%TO.N,5V0_SYS*%
X162700000Y-110000000D03*
X163500000Y-110000000D03*
X164300000Y-110000000D03*
X165100000Y-110000000D03*
X118500000Y-121750000D03*
X119250000Y-121250000D03*
X118500000Y-120750000D03*
X119250000Y-120250000D03*
X118500000Y-119750000D03*
X120000000Y-119750000D03*
X120000000Y-120750000D03*
X120000000Y-121750000D03*
X120750000Y-121250000D03*
X120750000Y-120250000D03*
X121500000Y-120750000D03*
X121500000Y-121750000D03*
X122250000Y-121250000D03*
X123000000Y-121750000D03*
X174000000Y-101950000D03*
X173600000Y-101250000D03*
X174000000Y-100400000D03*
X112900000Y-62200000D03*
X77900000Y-62900000D03*
X76900000Y-67100000D03*
X76200000Y-62800000D03*
X76200000Y-62000000D03*
X76200000Y-61200000D03*
X76200000Y-60400000D03*
X157600000Y-112750000D03*
X162700000Y-108600000D03*
X163100000Y-109300000D03*
X163500000Y-108600000D03*
X163900000Y-109300000D03*
X164300000Y-108600000D03*
X164700000Y-109300000D03*
X165100000Y-108600000D03*
X165500000Y-109300000D03*
X137712499Y-44612499D03*
X151150000Y-48200000D03*
X166200000Y-50750000D03*
X163050000Y-54500000D03*
X167200000Y-63900000D03*
X159500000Y-70800000D03*
X159499996Y-71400000D03*
%TO.N,Net-(C25-Pad2)*%
X163200000Y-66400000D03*
X168000000Y-66400000D03*
%TO.N,Net-(C25-Pad1)*%
X159600000Y-65100000D03*
%TO.N,1V2_SYS*%
X100100000Y-65400000D03*
X106800000Y-66500000D03*
X99200000Y-62900000D03*
X107887160Y-60487160D03*
X103823249Y-67560682D03*
X143612503Y-66200000D03*
X146300000Y-74550000D03*
X146300000Y-73400000D03*
X146300000Y-72200000D03*
X103700000Y-58300000D03*
X100700000Y-59600000D03*
%TO.N,3V3_CAM*%
X172100000Y-108250000D03*
X170850000Y-108350000D03*
X169850000Y-108100000D03*
X115757500Y-115957500D03*
%TO.N,3V3_SYS*%
X152000000Y-107500000D03*
X151200000Y-108400000D03*
X99200000Y-64892500D03*
X108600000Y-64500000D03*
X101102547Y-66702547D03*
X88500000Y-65900000D03*
X87600000Y-59500000D03*
X104400000Y-68000000D03*
X131037510Y-120050000D03*
X153000000Y-111250000D03*
X152000000Y-111250000D03*
X152500000Y-110500000D03*
X151500000Y-110500000D03*
X151250000Y-109250000D03*
X151250000Y-107500000D03*
X151250000Y-106500000D03*
X152000000Y-106500000D03*
X123326290Y-116498659D03*
X143750000Y-70250000D03*
X143750000Y-71500000D03*
X102550000Y-58200000D03*
%TO.N,/display module/RST_N*%
X149400000Y-104400000D03*
X146750000Y-90900000D03*
X143750000Y-72750000D03*
%TO.N,LT9611_VCC33_RX*%
X128100000Y-62732500D03*
X128074035Y-61319033D03*
X140687491Y-68300000D03*
X129322316Y-67695057D03*
%TO.N,LT9611_VCC33_TX*%
X129230000Y-56820000D03*
X132010001Y-57610001D03*
X136189998Y-56990000D03*
%TO.N,LT9611_VCC33_IO*%
X137700000Y-62150000D03*
X138680000Y-58320000D03*
X136690000Y-58900000D03*
X122000000Y-73200000D03*
X139228165Y-67271835D03*
%TO.N,Net-(C53-Pad1)*%
X128080000Y-60560000D03*
%TO.N,Net-(C57-Pad1)*%
X128080000Y-59770000D03*
%TO.N,LDO17_2P85*%
X169007220Y-91807220D03*
X99400000Y-85400000D03*
%TO.N,LT9611_VDD12*%
X136650000Y-67100000D03*
X137700000Y-60450000D03*
X126174998Y-61650000D03*
X140700000Y-65000000D03*
%TO.N,LT9611_VCC12_RX*%
X128575035Y-67664505D03*
X128120000Y-63520000D03*
X140700000Y-63400000D03*
%TO.N,LT9611_VCC12_TX*%
X140700000Y-61800000D03*
X131300000Y-58000000D03*
%TO.N,/display module/TX_D2_P*%
X129256578Y-58088512D03*
%TO.N,/display module/TX_D2_N*%
X129981578Y-58088512D03*
%TO.N,/display module/TX_D0_P*%
X133313673Y-56973673D03*
%TO.N,/display module/TX_D0_N*%
X133826327Y-57486327D03*
%TO.N,/display module/V_COMM*%
X135570000Y-53280000D03*
X131980000Y-53420000D03*
X137110004Y-53590000D03*
X132362500Y-58250000D03*
X127550000Y-54000000D03*
%TO.N,Net-(C85-Pad1)*%
X132742346Y-49042630D03*
%TO.N,SD_LDO11*%
X129160000Y-99815000D03*
X123782274Y-112000000D03*
%TO.N,USIM1_VDD*%
X112400000Y-72700000D03*
%TO.N,/USB_flash_debug/USB_FLASH_5V0*%
X87600000Y-60300000D03*
%TO.N,/USB_flash_debug/5V0_DBG*%
X142100000Y-56000000D03*
%TO.N,/USB_flash_debug/DBG_USB_D_P*%
X144762500Y-50337502D03*
%TO.N,1V8_DBG*%
X147900000Y-59200000D03*
%TO.N,/USB_flash_debug/DBG_USB_D_N*%
X144037500Y-50337502D03*
%TO.N,Net-(C117-Pad2)*%
X143074998Y-54050000D03*
%TO.N,/USB_HUB_Connectors/HUB_XTALI*%
X111200000Y-67400000D03*
%TO.N,/USB_HUB_Connectors/HUB_XTALO*%
X108800000Y-65500000D03*
%TO.N,/USB_HUB_Connectors/5V0_USB*%
X88400000Y-50700000D03*
X78600000Y-59700000D03*
X79100000Y-60200000D03*
X79700000Y-59700000D03*
X80200000Y-60200000D03*
X80700000Y-59700000D03*
X101100000Y-50600000D03*
%TO.N,/USB_flash_debug/USB_FLASH_P*%
X81762500Y-50487498D03*
X82106327Y-53493673D03*
X85081840Y-57150325D03*
%TO.N,/USB_flash_debug/USB_FLASH_N*%
X81037500Y-50487498D03*
X81593673Y-54006327D03*
X84569186Y-57662979D03*
%TO.N,DEBUG_UART_RX*%
X99400000Y-78650000D03*
%TO.N,DEBUG_UART_TX*%
X99900000Y-77950000D03*
%TO.N,Net-(IC1-Pad6)*%
X161500000Y-69300000D03*
%TO.N,/cameras module/CAM1_SCL*%
X123450000Y-121150000D03*
%TO.N,/cameras module/CAM1_SDA*%
X123450000Y-120250000D03*
%TO.N,/cameras module/CAM0_SCL*%
X118363967Y-116797198D03*
%TO.N,/cameras module/CAM0_SDA*%
X119200000Y-116800000D03*
%TO.N,VSYNC_CAM2*%
X121600001Y-109475012D03*
%TO.N,VSYNC_CAM1*%
X122200000Y-110299996D03*
%TO.N,TP0_I2C_SDA*%
X114800000Y-76200000D03*
X168200000Y-89800000D03*
%TO.N,TP0_I2C_SCL*%
X113400000Y-72700000D03*
X168200000Y-88800000D03*
%TO.N,/display module/DETECT_HDMI*%
X128000000Y-49700000D03*
%TO.N,/display module/CEC_HDMI*%
X149000000Y-66750000D03*
X133000000Y-50100000D03*
%TO.N,/display module/LTtoHDMI_SCL*%
X133600000Y-49530000D03*
%TO.N,/display module/LTtoHDMI_SDA*%
X135490000Y-52070000D03*
%TO.N,Net-(J11-PadA8)*%
X101050000Y-47850000D03*
X94152973Y-50621514D03*
%TO.N,SoM_USB_D_P*%
X81444732Y-57792078D03*
X99843673Y-104643673D03*
%TO.N,SoM_USB_D_N*%
X81957386Y-58304732D03*
X100356327Y-105156327D03*
%TO.N,CAM_RST*%
X126900000Y-106600000D03*
X167200000Y-104300000D03*
%TO.N,LT9611_RST_N*%
X124900000Y-106600000D03*
X149500000Y-108100000D03*
%TO.N,LT9611_INT0*%
X122900000Y-106600000D03*
X149500000Y-109074997D03*
%TO.N,HDMI_I2C_SCL*%
X117700000Y-75000000D03*
%TO.N,HDMI_I2C_SDA*%
X117755285Y-77744715D03*
%TO.N,SoM_USB3_TX_N*%
X121262500Y-106845636D03*
X108762500Y-68400000D03*
%TO.N,SoM_USB3_TX_P*%
X120537500Y-106845636D03*
X108037500Y-68400000D03*
%TO.N,SoM_USB3_RX_N*%
X115262500Y-106850000D03*
X107062500Y-68200000D03*
%TO.N,SoM_USB3_RX_P*%
X114537500Y-106850000D03*
X106337500Y-68200000D03*
%TO.N,VOL_DOWN*%
X106400000Y-72700000D03*
X142803640Y-115507076D03*
%TO.N,VOL_UP*%
X107349999Y-72700000D03*
X143500000Y-115000002D03*
%TO.N,Net-(M1-Pad145)*%
X108400000Y-72700000D03*
%TO.N,USIM1_RST*%
X109450000Y-72700000D03*
%TO.N,USIM1_CLK*%
X110400000Y-72700000D03*
%TO.N,USIM1_DATA*%
X111400000Y-72700000D03*
%TO.N,PWRKEY*%
X162600000Y-116400000D03*
X101330278Y-112319722D03*
%TO.N,SoM_USB_FLASH_ID*%
X99800000Y-102800000D03*
X87300000Y-68100000D03*
%TO.N,LDO5_1P8*%
X146800000Y-118900000D03*
X99400000Y-81800000D03*
%TO.N,Net-(M1-Pad8)*%
X99400000Y-80800000D03*
%TO.N,Net-(M1-Pad7)*%
X99400000Y-79800000D03*
%TO.N,/display module/CEC_LT*%
X137919715Y-63319715D03*
X143125003Y-67550000D03*
%TO.N,/display module/INT0*%
X148700000Y-109800000D03*
X137749934Y-64568431D03*
X145800000Y-90900000D03*
X142400000Y-67550000D03*
X144950000Y-75000000D03*
%TO.N,Net-(R59-Pad1)*%
X136990000Y-58220000D03*
X127550000Y-56150000D03*
%TO.N,Net-(R107-Pad1)*%
X87600000Y-58500000D03*
%TO.N,Net-(R113-Pad2)*%
X109100000Y-63900000D03*
%TO.N,Net-(R118-Pad2)*%
X103000000Y-68800000D03*
%TO.N,Net-(R119-Pad2)*%
X102500000Y-68000000D03*
%TO.N,Net-(R120-Pad2)*%
X101600000Y-68000000D03*
%TO.N,USB_HUB_P*%
X104743673Y-68743673D03*
X87606327Y-57223025D03*
%TO.N,USB_HUB_N*%
X105256327Y-69256327D03*
X87093673Y-56710371D03*
%TO.N,/USB_HUB_Connectors/USB_C1_SS_TX2_P*%
X110256327Y-59956327D03*
%TO.N,/USB_HUB_Connectors/USB_C1_SS_TX2_N*%
X109743673Y-59443673D03*
%TO.N,/USB_HUB_Connectors/USB_C1_SS_TX1_P*%
X107625431Y-57651327D03*
%TO.N,/USB_HUB_Connectors/USB_C1_SS_RX2_N*%
X110900000Y-58137500D03*
X106545684Y-55333030D03*
%TO.N,/USB_HUB_Connectors/USB_C1_SS_TX1_N*%
X107112777Y-57138673D03*
%TO.N,/USB_HUB_Connectors/USB_C1_SS_RX2_P*%
X110900000Y-58862500D03*
X106033030Y-55845684D03*
%TO.N,/USB_HUB_Connectors/USB_C2_SS_TX1_P*%
X101012500Y-58300000D03*
%TO.N,/USB_HUB_Connectors/USB_C2_SS_TX1_N*%
X100287500Y-58300000D03*
%TO.N,/USB_HUB_Connectors/USB_C2_SS_RX2_N*%
X94250000Y-62712500D03*
%TO.N,/USB_HUB_Connectors/USB_C2_SS_RX2_P*%
X94250000Y-61987500D03*
%TO.N,/USB_HUB_Connectors/USB_C1_CC1*%
X109170683Y-51079317D03*
X102800000Y-51500000D03*
%TO.N,/USB_HUB_Connectors/USB_C1_CC2*%
X102800000Y-52600000D03*
%TO.N,/USB_HUB_Connectors/USB_C2_CC1*%
X90600000Y-54300000D03*
X95697898Y-50653885D03*
%TO.N,/USB_HUB_Connectors/USB_C2_CC2*%
X89500000Y-54300000D03*
%TO.N,SD_DATA_6*%
X125769745Y-112472463D03*
%TO.N,SD_DATA_4*%
X126612499Y-102500000D03*
%TO.N,SD_DATA_5*%
X126900000Y-103500000D03*
%TO.N,SD_DATA_0*%
X123000000Y-111200000D03*
%TO.N,SD_DATA_1*%
X123000000Y-112000000D03*
%TO.N,SD_DATA_2*%
X125700000Y-111497451D03*
%TO.N,SD_DATA_3*%
X124599994Y-112000000D03*
%TO.N,CAM1_CLK_P*%
X143818673Y-99930007D03*
%TO.N,CAM1_CLK_N*%
X144331327Y-99417353D03*
%TO.N,CAM1_D0_P*%
X144075000Y-97662500D03*
%TO.N,CAM1_D0_N*%
X144075000Y-96937500D03*
%TO.N,CAM1_D1_P*%
X144075000Y-95662500D03*
%TO.N,CAM1_D1_N*%
X144075000Y-94937500D03*
%TO.N,CAM1_D2_P*%
X144075000Y-93662500D03*
%TO.N,CAM1_D2_N*%
X144075000Y-92937500D03*
%TO.N,CAM1_D3_P*%
X144075000Y-91662500D03*
%TO.N,CAM1_D3_N*%
X144075000Y-90937500D03*
%TO.N,/USB_HUB_Connectors/USB_C1_SS_C_TX1_P*%
X109970684Y-52391970D03*
%TO.N,/USB_HUB_Connectors/USB_C1_SS_C_TX1_N*%
X109458030Y-51879316D03*
%TO.N,/USB_HUB_Connectors/USB_C2_SS_C_TX1_P*%
X98992884Y-52588215D03*
%TO.N,/USB_HUB_Connectors/USB_C2_SS_C_TX2_P*%
X93812500Y-51900000D03*
%TO.N,/USB_HUB_Connectors/USB_C2_SS_C_TX1_N*%
X98992884Y-51863215D03*
%TO.N,/USB_HUB_Connectors/USB_C2_SS_C_TX2_N*%
X93087500Y-51900000D03*
%TO.N,/USB_HUB_Connectors/USB_C2_SS_C_RX2_N*%
X92762500Y-55153238D03*
%TO.N,/USB_HUB_Connectors/USB_C2_SS_C_RX1_N*%
X97042500Y-51718119D03*
%TO.N,/USB_HUB_Connectors/USB_C2_SS_C_RX2_P*%
X92037500Y-55153238D03*
%TO.N,/USB_HUB_Connectors/USB_C2_SS_C_RX1_P*%
X97767500Y-51718119D03*
%TO.N,CAM2_CLK_P*%
X139193829Y-102006327D03*
%TO.N,CAM2_CLK_N*%
X138681175Y-101493673D03*
%TO.N,CAM2_D0_P*%
X138768809Y-98662500D03*
%TO.N,CAM2_D0_N*%
X138768809Y-97937500D03*
%TO.N,CAM2_D1_P*%
X139100000Y-94662500D03*
%TO.N,CAM2_D1_N*%
X139100000Y-93937500D03*
%TO.N,CAM2_D2_P*%
X138943673Y-90906327D03*
%TO.N,CAM2_D2_N*%
X139456327Y-90393673D03*
%TO.N,CAM2_D3_P*%
X138993673Y-87306327D03*
%TO.N,CAM2_D3_N*%
X139506327Y-86793673D03*
%TO.N,/display module/TX_D2_Ferr_P*%
X126368673Y-53006327D03*
%TO.N,/display module/TX_D2_Ferr_N*%
X126881327Y-52493673D03*
%TO.N,/display module/TX_D0_Ferr_P*%
X131600000Y-52612500D03*
%TO.N,/display module/TX_D0_Ferr_N*%
X131600000Y-51887500D03*
%TO.N,/display module/TX_D1_Ferr_P*%
X129437500Y-45981860D03*
X129587500Y-52415161D03*
%TO.N,/display module/TX_D1_Ferr_N*%
X130162500Y-45981860D03*
X130312500Y-52415161D03*
%TO.N,/display module/TX_CLK_Ferr_P*%
X131526804Y-51139458D03*
X131302921Y-45467759D03*
%TO.N,/display module/TX_CLK_Ferr_N*%
X132039458Y-50626804D03*
X132027921Y-45467759D03*
%TO.N,SoMtoDisplay_D3_N*%
X144600000Y-76937500D03*
%TO.N,SoMtoDisplay_D3_P*%
X144600000Y-77662500D03*
%TO.N,SoMtoDisplay_D2_N*%
X144600000Y-78937500D03*
%TO.N,SoMtoDisplay_D2_P*%
X144600000Y-79662500D03*
%TO.N,SoMtoDisplay_D1_N*%
X144600000Y-80937500D03*
%TO.N,SoMtoDisplay_D1_P*%
X144600000Y-81662500D03*
%TO.N,SoMtoDisplay_D0_N*%
X144600000Y-82937500D03*
%TO.N,SoMtoDisplay_D0_P*%
X144600000Y-83662500D03*
%TO.N,SoMtoDisplay_CLK_N*%
X144600000Y-84937500D03*
%TO.N,SoMtoDisplay_CLK_P*%
X144600000Y-85662500D03*
%TO.N,SoMtoLT_D3_N*%
X129537500Y-72512482D03*
X130193673Y-68753916D03*
%TO.N,SoMtoLT_D3_P*%
X130262500Y-72512482D03*
X130706327Y-69266570D03*
%TO.N,SoMtoLT_D2_N*%
X131671213Y-68681861D03*
X131537500Y-72512298D03*
%TO.N,SoMtoLT_D2_P*%
X132183867Y-69194515D03*
X132262500Y-72512298D03*
%TO.N,SoMtoLT_D1_N*%
X133537500Y-72473175D03*
X133812500Y-68331134D03*
%TO.N,SoMtoLT_D1_P*%
X134262500Y-72473175D03*
X134537500Y-68331134D03*
%TO.N,SoMtoLT_D0_N*%
X135537500Y-72476044D03*
X135368515Y-68568829D03*
%TO.N,SoMtoLT_D0_P*%
X136262500Y-72476044D03*
X135881169Y-68056175D03*
%TO.N,SoMtoLT_CLK_N*%
X136875000Y-69262500D03*
X137537500Y-72477945D03*
%TO.N,SoMtoLT_CLK_P*%
X136875000Y-68537500D03*
X138262500Y-72477945D03*
%TO.N,USB_BOOT*%
X143450000Y-116500000D03*
X120400000Y-112200000D03*
%TO.N,/USB_HUB_Connectors/USB_C1_SS_C_RX1_N*%
X111487442Y-51478137D03*
%TO.N,/USB_HUB_Connectors/USB_C1_SS_C_RX1_P*%
X112000096Y-50965483D03*
%TO.N,/display module/SoMtoLT_SDA*%
X137800000Y-65450000D03*
X122500000Y-74000004D03*
%TO.N,/USB_HUB_Connectors/USB_C1_D2_N*%
X113500000Y-52137500D03*
%TO.N,/USB_HUB_Connectors/USB_C1_D1_P*%
X109712500Y-54350000D03*
X109106327Y-57756327D03*
%TO.N,/USB_HUB_Connectors/USB_C1_D1_N*%
X108987500Y-54350000D03*
X108593673Y-57243673D03*
%TO.N,/USB_HUB_Connectors/USB_C1_D2_P*%
X113500000Y-52862500D03*
%TO.N,/USB_HUB_Connectors/USB_C2_D2_P*%
X95514357Y-55673143D03*
%TO.N,/USB_HUB_Connectors/USB_C2_D2_N*%
X95514357Y-56398143D03*
%TO.N,/USB_HUB_Connectors/USB_C2_D1_P*%
X97411327Y-56240399D03*
X99400000Y-57037500D03*
%TO.N,/USB_HUB_Connectors/USB_C2_D1_N*%
X96898673Y-56753053D03*
X99400000Y-57762500D03*
%TO.N,/display module/SoMtoLT_SCL*%
X122000000Y-74750000D03*
X137850000Y-66349994D03*
%TO.N,Net-(J10-PadA8)*%
X107837797Y-50325002D03*
X115000000Y-47650000D03*
%TO.N,/USB-PD/VREG_2V7*%
X156700000Y-54250000D03*
X149550000Y-57900000D03*
%TO.N,PD_VDD*%
X157100000Y-58900000D03*
X158000000Y-57600000D03*
X158200000Y-58900000D03*
X157700000Y-58400000D03*
X158800000Y-57000000D03*
%TO.N,STUSB4500_AB_SIDE*%
X154550000Y-58200000D03*
%TO.N,Net-(R148-Pad2)*%
X155050000Y-58750000D03*
X157700000Y-54300000D03*
%TO.N,Net-(R150-Pad2)*%
X154050450Y-58725431D03*
X156037500Y-53000000D03*
%TO.N,STUSB4500_GPIO*%
X153550000Y-58200000D03*
%TO.N,STUSB4500_ATTACH*%
X149450000Y-53750000D03*
%TO.N,STUSB4500_SCL*%
X151900000Y-53550000D03*
%TO.N,STUSB4500_SDA*%
X151050000Y-53699999D03*
%TO.N,STUSB4500_ALERT*%
X155850000Y-57200000D03*
%TO.N,Net-(R157-Pad2)*%
X150326841Y-53751654D03*
%TO.N,/USB-PD/STUSB4500_PWR_OK2*%
X159902164Y-54853246D03*
%TO.N,Net-(D34-Pad1)*%
X163000000Y-51750000D03*
%TO.N,/USB-PD/STUSB4500_PWR_OK3*%
X153050000Y-58750000D03*
X159400000Y-54250000D03*
%TO.N,Net-(D34-Pad3)*%
X160800000Y-51750000D03*
%TO.N,Net-(D34-Pad2)*%
X161900000Y-51750000D03*
%TO.N,VDD*%
X168750000Y-60100000D03*
X157259354Y-63100000D03*
%TO.N,AUX_VDD*%
X166950000Y-59050000D03*
%TO.N,Net-(Q11-Pad2)*%
X169500000Y-59200000D03*
%TO.N,Net-(C156-Pad2)*%
X168776841Y-59251654D03*
%TO.N,Net-(C157-Pad2)*%
X163700000Y-58150000D03*
X172800000Y-55850000D03*
%TO.N,Net-(C159-Pad2)*%
X166232284Y-58947470D03*
X168550000Y-53600000D03*
%TO.N,Net-(D36-Pad2)*%
X166500000Y-51900000D03*
%TO.N,Net-(D37-Pad2)*%
X165712490Y-52341815D03*
%TO.N,Net-(Q10-Pad2)*%
X168650000Y-54500000D03*
%TO.N,Net-(M1-Pad168)*%
X107100000Y-108300000D03*
%TO.N,/peripherals/ANT_GNSS_*%
X118900000Y-62400000D03*
%TO.N,/SoM/USB_VBUS_DET*%
X103400000Y-115950000D03*
%TO.N,LDO10_2P8*%
X99400000Y-84250000D03*
%TD*%
D22*
%TO.N,LDO6_1P8*%
X121500000Y-67300000D02*
X112900000Y-75900000D01*
X121500000Y-62500000D02*
X121500000Y-67300000D01*
X98500000Y-81900000D02*
X99400000Y-82800000D01*
X98500000Y-77450000D02*
X98500000Y-81900000D01*
X100050000Y-75900000D02*
X98500000Y-77450000D01*
X112900000Y-75900000D02*
X100050000Y-75900000D01*
D23*
%TO.N,3V3_CAM*%
X138924999Y-115324999D02*
X141724999Y-118124999D01*
X123124003Y-115324997D02*
X123124005Y-115324999D01*
X141724999Y-118124999D02*
X164675001Y-118124999D01*
X116390003Y-115324997D02*
X123124003Y-115324997D01*
X115757500Y-115957500D02*
X116390003Y-115324997D01*
X170850000Y-111950000D02*
X170850000Y-108774264D01*
X170850000Y-108774264D02*
X170850000Y-108350000D01*
X123124005Y-115324999D02*
X138924999Y-115324999D01*
X164675001Y-118124999D02*
X170850000Y-111950000D01*
X170600000Y-108100000D02*
X170850000Y-108350000D01*
X169850000Y-108100000D02*
X170600000Y-108100000D01*
X170950000Y-108250000D02*
X170850000Y-108350000D01*
X172100000Y-108250000D02*
X170950000Y-108250000D01*
D24*
%TO.N,3V3_SYS*%
X126877631Y-120050000D02*
X123626289Y-116798658D01*
X131037510Y-120050000D02*
X126877631Y-120050000D01*
X123626289Y-116798658D02*
X123326290Y-116498659D01*
D22*
%TO.N,/display module/RST_N*%
X146750000Y-90900000D02*
X145450000Y-89600000D01*
X145450000Y-74450000D02*
X143750000Y-72750000D01*
X145450000Y-89600000D02*
X145450000Y-74450000D01*
D24*
%TO.N,LT9611_VCC33_TX*%
X131220000Y-56820000D02*
X129230000Y-56820000D01*
X132010001Y-57610001D02*
X131220000Y-56820000D01*
X132010001Y-57610001D02*
X132810001Y-57610001D01*
X132810001Y-57610001D02*
X133270000Y-58070000D01*
X133270000Y-58070000D02*
X135109998Y-58070000D01*
X135109998Y-58070000D02*
X136189998Y-56990000D01*
D22*
%TO.N,LDO17_2P85*%
X168664439Y-92150001D02*
X106150001Y-92150001D01*
X169007220Y-91807220D02*
X168664439Y-92150001D01*
X106150001Y-92150001D02*
X99400000Y-85400000D01*
D24*
%TO.N,LT9611_VDD12*%
X140700000Y-65000000D02*
X138600000Y-67100000D01*
X138600000Y-67100000D02*
X136650000Y-67100000D01*
%TO.N,LT9611_VCC12_RX*%
X128419999Y-63819999D02*
X128120000Y-63520000D01*
X128700000Y-64100000D02*
X128419999Y-63819999D01*
X137378498Y-64100000D02*
X128700000Y-64100000D01*
X137578498Y-63900000D02*
X137378498Y-64100000D01*
X140200000Y-63900000D02*
X137578498Y-63900000D01*
X140700000Y-63400000D02*
X140200000Y-63900000D01*
%TO.N,LT9611_VCC12_TX*%
X131689999Y-58469999D02*
X131390000Y-58170000D01*
X132070000Y-58850000D02*
X131689999Y-58469999D01*
X135121502Y-58850000D02*
X132070000Y-58850000D01*
X137271502Y-61000000D02*
X135121502Y-58850000D01*
X139900000Y-61000000D02*
X137271502Y-61000000D01*
X140700000Y-61800000D02*
X139900000Y-61000000D01*
D22*
%TO.N,SD_LDO11*%
X129160000Y-99815000D02*
X125685000Y-99815000D01*
X125685000Y-99815000D02*
X120000000Y-105500000D01*
X120000000Y-105500000D02*
X120000000Y-110800000D01*
X120000000Y-110800000D02*
X122100000Y-112900000D01*
X122882274Y-112900000D02*
X123782274Y-112000000D01*
X122100000Y-112900000D02*
X122882274Y-112900000D01*
%TO.N,DEBUG_UART_RX*%
X145300000Y-62300000D02*
X145250000Y-62250000D01*
X145300000Y-66161947D02*
X145300000Y-62300000D01*
X134661947Y-76800000D02*
X145300000Y-66161947D01*
X99400000Y-77728498D02*
X100328498Y-76800000D01*
X100328498Y-76800000D02*
X134661947Y-76800000D01*
X99400000Y-78650000D02*
X99400000Y-77728498D01*
%TO.N,DEBUG_UART_TX*%
X147840000Y-62300000D02*
X147790000Y-62250000D01*
X134992786Y-77257214D02*
X147840000Y-64410000D01*
X100592786Y-77257214D02*
X134992786Y-77257214D01*
X147840000Y-64410000D02*
X147840000Y-62300000D01*
X99900000Y-77950000D02*
X100592786Y-77257214D01*
%TO.N,CAM_RST*%
X127287501Y-106987501D02*
X149612499Y-106987501D01*
X126900000Y-106600000D02*
X127287501Y-106987501D01*
X149612499Y-106987501D02*
X151400000Y-105200000D01*
X166300000Y-105200000D02*
X167200000Y-104300000D01*
X151400000Y-105200000D02*
X166300000Y-105200000D01*
%TO.N,LT9611_RST_N*%
X126887496Y-108587496D02*
X148012504Y-108587496D01*
X124900000Y-106600000D02*
X126887496Y-108587496D01*
X149012504Y-108587496D02*
X149500000Y-108100000D01*
X148012504Y-108587496D02*
X149012504Y-108587496D01*
%TO.N,LT9611_INT0*%
X125374997Y-109074997D02*
X122900000Y-106600000D01*
X149500000Y-109074997D02*
X125374997Y-109074997D01*
%TO.N,PWRKEY*%
X143471494Y-117250000D02*
X141021494Y-114800000D01*
X162600000Y-116400000D02*
X161750000Y-117250000D01*
X141021494Y-114800000D02*
X103810556Y-114800000D01*
X161750000Y-117250000D02*
X143471494Y-117250000D01*
X103810556Y-114800000D02*
X101330278Y-112319722D01*
%TO.N,/display module/CEC_LT*%
X143125003Y-65103501D02*
X143125003Y-67550000D01*
X140934001Y-62912499D02*
X143125003Y-65103501D01*
X138326931Y-62912499D02*
X140934001Y-62912499D01*
X137919715Y-63319715D02*
X138326931Y-62912499D01*
%TO.N,/display module/INT0*%
X145087501Y-90187501D02*
X145087501Y-75087501D01*
X145800000Y-90900000D02*
X145087501Y-90187501D01*
X142400000Y-65978498D02*
X142400000Y-67550000D01*
X140689934Y-64268432D02*
X142400000Y-65978498D01*
X138049933Y-64268432D02*
X140689934Y-64268432D01*
X137749934Y-64568431D02*
X138049933Y-64268432D01*
D25*
%TO.N,Net-(R59-Pad1)*%
X136260000Y-56150000D02*
X127550000Y-56150000D01*
X136990000Y-56880000D02*
X136260000Y-56150000D01*
X136990000Y-58220000D02*
X136990000Y-56880000D01*
D22*
%TO.N,USB_BOOT*%
X121950000Y-113750000D02*
X120699999Y-112499999D01*
X140325062Y-113750000D02*
X121950000Y-113750000D01*
X142775063Y-116200001D02*
X140325062Y-113750000D01*
X143150001Y-116200001D02*
X142775063Y-116200001D01*
X143450000Y-116500000D02*
X143150001Y-116200001D01*
X120699999Y-112499999D02*
X120400000Y-112200000D01*
%TO.N,/display module/SoMtoLT_SDA*%
X137800000Y-65450000D02*
X137075744Y-65450000D01*
X137075744Y-65450000D02*
X135725744Y-66800000D01*
X135725744Y-66800000D02*
X130938875Y-66800000D01*
X130938875Y-66800000D02*
X123738871Y-74000004D01*
X123738871Y-74000004D02*
X122500000Y-74000004D01*
%TO.N,/display module/SoMtoLT_SCL*%
X131100000Y-67050000D02*
X135850000Y-67050000D01*
X122000000Y-74750000D02*
X123400000Y-74750000D01*
X137425736Y-66349994D02*
X137850000Y-66349994D01*
X136550006Y-66349994D02*
X137425736Y-66349994D01*
X123400000Y-74750000D02*
X131100000Y-67050000D01*
X135850000Y-67050000D02*
X136550006Y-66349994D01*
%TD*%
D26*
%TO.N,/USB_HUB_Connectors/5V0_USB*%
X114601300Y-47268054D02*
X114571234Y-47298120D01*
X114510824Y-47388530D01*
X114469213Y-47488988D01*
X114448000Y-47595633D01*
X114448000Y-47704367D01*
X114469213Y-47811012D01*
X114510824Y-47911470D01*
X114571234Y-48001880D01*
X114605767Y-48036413D01*
X114622259Y-50873000D01*
X112544514Y-50873000D01*
X112530883Y-50804471D01*
X112498950Y-50727378D01*
X112547814Y-50722565D01*
X112670717Y-50685283D01*
X112783984Y-50624741D01*
X112883264Y-50543264D01*
X112964741Y-50443984D01*
X113025283Y-50330717D01*
X113062565Y-50207814D01*
X113075154Y-50080000D01*
X113062565Y-49952186D01*
X113025283Y-49829283D01*
X112964741Y-49716016D01*
X112883264Y-49616736D01*
X112783984Y-49535259D01*
X112670717Y-49474717D01*
X112547814Y-49437435D01*
X112452022Y-49428000D01*
X112037978Y-49428000D01*
X111942186Y-49437435D01*
X111819283Y-49474717D01*
X111706016Y-49535259D01*
X111606736Y-49616736D01*
X111525259Y-49716016D01*
X111464717Y-49829283D01*
X111427435Y-49952186D01*
X111414846Y-50080000D01*
X111427435Y-50207814D01*
X111464717Y-50330717D01*
X111525259Y-50443984D01*
X111606736Y-50543264D01*
X111625923Y-50559010D01*
X111571330Y-50613603D01*
X111510920Y-50704013D01*
X111469309Y-50804471D01*
X111455678Y-50873000D01*
X109682704Y-50873000D01*
X109659859Y-50817847D01*
X109599449Y-50727437D01*
X109522563Y-50650551D01*
X109432153Y-50590141D01*
X109331695Y-50548530D01*
X109225050Y-50527317D01*
X109116316Y-50527317D01*
X109009671Y-50548530D01*
X108909213Y-50590141D01*
X108818803Y-50650551D01*
X108741917Y-50727437D01*
X108681507Y-50817847D01*
X108658662Y-50873000D01*
X107912283Y-50873000D01*
X107998809Y-50855789D01*
X108099267Y-50814178D01*
X108189677Y-50753768D01*
X108266563Y-50676882D01*
X108326973Y-50586472D01*
X108368584Y-50486014D01*
X108389797Y-50379369D01*
X108389797Y-50270635D01*
X108368584Y-50163990D01*
X108326973Y-50063532D01*
X108266563Y-49973122D01*
X108189677Y-49896236D01*
X108099267Y-49835826D01*
X107998809Y-49794215D01*
X107892164Y-49773002D01*
X107783430Y-49773002D01*
X107676785Y-49794215D01*
X107576327Y-49835826D01*
X107485917Y-49896236D01*
X107409031Y-49973122D01*
X107348621Y-50063532D01*
X107307010Y-50163990D01*
X107285797Y-50270635D01*
X107285797Y-50379369D01*
X107307010Y-50486014D01*
X107348621Y-50586472D01*
X107409031Y-50676882D01*
X107485917Y-50753768D01*
X107576327Y-50814178D01*
X107676785Y-50855789D01*
X107763311Y-50873000D01*
X96204618Y-50873000D01*
X96228685Y-50814897D01*
X96249898Y-50708252D01*
X96249898Y-50599518D01*
X96228685Y-50492873D01*
X96187074Y-50392415D01*
X96126664Y-50302005D01*
X96049778Y-50225119D01*
X95959368Y-50164709D01*
X95858910Y-50123098D01*
X95752265Y-50101885D01*
X95643531Y-50101885D01*
X95536886Y-50123098D01*
X95436428Y-50164709D01*
X95346018Y-50225119D01*
X95269132Y-50302005D01*
X95208722Y-50392415D01*
X95167111Y-50492873D01*
X95145898Y-50599518D01*
X95145898Y-50708252D01*
X95167111Y-50814897D01*
X95191178Y-50873000D01*
X94646285Y-50873000D01*
X94683760Y-50782526D01*
X94704973Y-50675881D01*
X94704973Y-50567147D01*
X94683760Y-50460502D01*
X94642149Y-50360044D01*
X94581739Y-50269634D01*
X94504853Y-50192748D01*
X94414443Y-50132338D01*
X94313985Y-50090727D01*
X94260057Y-50080000D01*
X97914846Y-50080000D01*
X97927435Y-50207814D01*
X97964717Y-50330717D01*
X98025259Y-50443984D01*
X98106736Y-50543264D01*
X98206016Y-50624741D01*
X98319283Y-50685283D01*
X98442186Y-50722565D01*
X98537978Y-50732000D01*
X98952022Y-50732000D01*
X99047814Y-50722565D01*
X99170717Y-50685283D01*
X99283984Y-50624741D01*
X99383264Y-50543264D01*
X99464741Y-50443984D01*
X99525283Y-50330717D01*
X99562565Y-50207814D01*
X99575154Y-50080000D01*
X103724846Y-50080000D01*
X103737435Y-50207814D01*
X103774717Y-50330717D01*
X103835259Y-50443984D01*
X103916736Y-50543264D01*
X104016016Y-50624741D01*
X104129283Y-50685283D01*
X104252186Y-50722565D01*
X104347978Y-50732000D01*
X104762022Y-50732000D01*
X104857814Y-50722565D01*
X104980717Y-50685283D01*
X105093984Y-50624741D01*
X105193264Y-50543264D01*
X105274741Y-50443984D01*
X105335283Y-50330717D01*
X105372565Y-50207814D01*
X105385154Y-50080000D01*
X105372565Y-49952186D01*
X105335283Y-49829283D01*
X105274741Y-49716016D01*
X105193264Y-49616736D01*
X105093984Y-49535259D01*
X104980717Y-49474717D01*
X104857814Y-49437435D01*
X104762022Y-49428000D01*
X104347978Y-49428000D01*
X104252186Y-49437435D01*
X104129283Y-49474717D01*
X104016016Y-49535259D01*
X103916736Y-49616736D01*
X103835259Y-49716016D01*
X103774717Y-49829283D01*
X103737435Y-49952186D01*
X103724846Y-50080000D01*
X99575154Y-50080000D01*
X99562565Y-49952186D01*
X99525283Y-49829283D01*
X99464741Y-49716016D01*
X99383264Y-49616736D01*
X99283984Y-49535259D01*
X99170717Y-49474717D01*
X99047814Y-49437435D01*
X98952022Y-49428000D01*
X98537978Y-49428000D01*
X98442186Y-49437435D01*
X98319283Y-49474717D01*
X98206016Y-49535259D01*
X98106736Y-49616736D01*
X98025259Y-49716016D01*
X97964717Y-49829283D01*
X97927435Y-49952186D01*
X97914846Y-50080000D01*
X94260057Y-50080000D01*
X94207340Y-50069514D01*
X94098606Y-50069514D01*
X93991961Y-50090727D01*
X93891503Y-50132338D01*
X93801093Y-50192748D01*
X93724207Y-50269634D01*
X93663797Y-50360044D01*
X93622186Y-50460502D01*
X93600973Y-50567147D01*
X93600973Y-50675881D01*
X93622186Y-50782526D01*
X93659661Y-50873000D01*
X89300000Y-50873000D01*
X89275224Y-50875440D01*
X89251399Y-50882667D01*
X89220956Y-50900596D01*
X84185411Y-54904765D01*
X84151880Y-54871234D01*
X84061470Y-54810824D01*
X83961012Y-54769213D01*
X83854367Y-54748000D01*
X83745633Y-54748000D01*
X83638988Y-54769213D01*
X83538530Y-54810824D01*
X83448120Y-54871234D01*
X83371234Y-54948120D01*
X83310824Y-55038530D01*
X83269213Y-55138988D01*
X83248000Y-55245633D01*
X83248000Y-55354367D01*
X83269213Y-55461012D01*
X83310824Y-55561470D01*
X83327732Y-55586774D01*
X81097542Y-57360178D01*
X81092852Y-57363312D01*
X81089944Y-57366220D01*
X80920956Y-57500596D01*
X80903082Y-57517927D01*
X80888933Y-57538412D01*
X80879052Y-57561263D01*
X80873819Y-57585603D01*
X80873000Y-57600000D01*
X80873000Y-62873000D01*
X78452000Y-62873000D01*
X78452000Y-62845633D01*
X78430787Y-62738988D01*
X78389176Y-62638530D01*
X78328766Y-62548120D01*
X78251880Y-62471234D01*
X78161470Y-62410824D01*
X78061012Y-62369213D01*
X77954367Y-62348000D01*
X77845633Y-62348000D01*
X77738988Y-62369213D01*
X77638530Y-62410824D01*
X77548120Y-62471234D01*
X77471234Y-62548120D01*
X77410824Y-62638530D01*
X77369213Y-62738988D01*
X77348000Y-62845633D01*
X77348000Y-62873000D01*
X76748294Y-62873000D01*
X76752000Y-62854367D01*
X76752000Y-62745633D01*
X76730787Y-62638988D01*
X76689176Y-62538530D01*
X76628766Y-62448120D01*
X76580646Y-62400000D01*
X76628766Y-62351880D01*
X76689176Y-62261470D01*
X76730787Y-62161012D01*
X76752000Y-62054367D01*
X76752000Y-61945633D01*
X76730787Y-61838988D01*
X76689176Y-61738530D01*
X76628766Y-61648120D01*
X76580646Y-61600000D01*
X76628766Y-61551880D01*
X76689176Y-61461470D01*
X76730787Y-61361012D01*
X76752000Y-61254367D01*
X76752000Y-61145633D01*
X76730787Y-61038988D01*
X76689176Y-60938530D01*
X76628766Y-60848120D01*
X76580646Y-60800000D01*
X76628766Y-60751880D01*
X76689176Y-60661470D01*
X76730787Y-60561012D01*
X76752000Y-60454367D01*
X76752000Y-60345633D01*
X76730787Y-60238988D01*
X76689176Y-60138530D01*
X76628766Y-60048120D01*
X76551880Y-59971234D01*
X76461470Y-59910824D01*
X76361012Y-59869213D01*
X76254367Y-59848000D01*
X76145633Y-59848000D01*
X76038988Y-59869213D01*
X75938530Y-59910824D01*
X75887000Y-59945255D01*
X75887000Y-55677443D01*
X76998000Y-55677443D01*
X76998000Y-56022557D01*
X77065329Y-56361039D01*
X77197398Y-56679883D01*
X77389133Y-56966835D01*
X77633165Y-57210867D01*
X77920117Y-57402602D01*
X78238961Y-57534671D01*
X78577443Y-57602000D01*
X78922557Y-57602000D01*
X79261039Y-57534671D01*
X79579883Y-57402602D01*
X79866835Y-57210867D01*
X80110867Y-56966835D01*
X80302602Y-56679883D01*
X80434671Y-56361039D01*
X80502000Y-56022557D01*
X80502000Y-55677443D01*
X80434671Y-55338961D01*
X80302602Y-55020117D01*
X80110867Y-54733165D01*
X79866835Y-54489133D01*
X79579883Y-54297398D01*
X79261039Y-54165329D01*
X78922557Y-54098000D01*
X78577443Y-54098000D01*
X78238961Y-54165329D01*
X77920117Y-54297398D01*
X77633165Y-54489133D01*
X77389133Y-54733165D01*
X77197398Y-55020117D01*
X77065329Y-55338961D01*
X76998000Y-55677443D01*
X75887000Y-55677443D01*
X75887000Y-53951960D01*
X81041673Y-53951960D01*
X81041673Y-54060694D01*
X81062886Y-54167339D01*
X81104497Y-54267797D01*
X81164907Y-54358207D01*
X81241793Y-54435093D01*
X81332203Y-54495503D01*
X81432661Y-54537114D01*
X81539306Y-54558327D01*
X81648040Y-54558327D01*
X81754685Y-54537114D01*
X81855143Y-54495503D01*
X81945553Y-54435093D01*
X82022439Y-54358207D01*
X82082849Y-54267797D01*
X82124460Y-54167339D01*
X82145673Y-54060694D01*
X82145673Y-54045673D01*
X82160694Y-54045673D01*
X82267339Y-54024460D01*
X82367797Y-53982849D01*
X82458207Y-53922439D01*
X82535093Y-53845553D01*
X82595503Y-53755143D01*
X82637114Y-53654685D01*
X82658327Y-53548040D01*
X82658327Y-53439306D01*
X82637114Y-53332661D01*
X82595503Y-53232203D01*
X82535093Y-53141793D01*
X82458207Y-53064907D01*
X82367797Y-53004497D01*
X82267339Y-52962886D01*
X82160694Y-52941673D01*
X82051960Y-52941673D01*
X81945315Y-52962886D01*
X81844857Y-53004497D01*
X81754447Y-53064907D01*
X81677561Y-53141793D01*
X81617151Y-53232203D01*
X81575540Y-53332661D01*
X81554327Y-53439306D01*
X81554327Y-53454327D01*
X81539306Y-53454327D01*
X81432661Y-53475540D01*
X81332203Y-53517151D01*
X81241793Y-53577561D01*
X81164907Y-53654447D01*
X81104497Y-53744857D01*
X81062886Y-53845315D01*
X81041673Y-53951960D01*
X75887000Y-53951960D01*
X75887000Y-50080000D01*
X76724846Y-50080000D01*
X76737435Y-50207814D01*
X76774717Y-50330717D01*
X76835259Y-50443984D01*
X76916736Y-50543264D01*
X77016016Y-50624741D01*
X77129283Y-50685283D01*
X77252186Y-50722565D01*
X77347978Y-50732000D01*
X77762022Y-50732000D01*
X77857814Y-50722565D01*
X77980717Y-50685283D01*
X78093984Y-50624741D01*
X78193264Y-50543264D01*
X78274741Y-50443984D01*
X78280542Y-50433131D01*
X80485500Y-50433131D01*
X80485500Y-50541865D01*
X80506713Y-50648510D01*
X80548324Y-50748968D01*
X80608734Y-50839378D01*
X80685620Y-50916264D01*
X80776030Y-50976674D01*
X80876488Y-51018285D01*
X80983133Y-51039498D01*
X81091867Y-51039498D01*
X81198512Y-51018285D01*
X81298970Y-50976674D01*
X81389380Y-50916264D01*
X81400000Y-50905644D01*
X81410620Y-50916264D01*
X81501030Y-50976674D01*
X81601488Y-51018285D01*
X81708133Y-51039498D01*
X81816867Y-51039498D01*
X81923512Y-51018285D01*
X82023970Y-50976674D01*
X82114380Y-50916264D01*
X82191266Y-50839378D01*
X82251676Y-50748968D01*
X82293287Y-50648510D01*
X82314500Y-50541865D01*
X82314500Y-50433131D01*
X82293287Y-50326486D01*
X82251676Y-50226028D01*
X82191266Y-50135618D01*
X82135648Y-50080000D01*
X84414846Y-50080000D01*
X84427435Y-50207814D01*
X84464717Y-50330717D01*
X84525259Y-50443984D01*
X84606736Y-50543264D01*
X84706016Y-50624741D01*
X84819283Y-50685283D01*
X84942186Y-50722565D01*
X85037978Y-50732000D01*
X85452022Y-50732000D01*
X85547814Y-50722565D01*
X85670717Y-50685283D01*
X85783984Y-50624741D01*
X85883264Y-50543264D01*
X85964741Y-50443984D01*
X86025283Y-50330717D01*
X86062565Y-50207814D01*
X86075154Y-50080000D01*
X90224846Y-50080000D01*
X90237435Y-50207814D01*
X90274717Y-50330717D01*
X90335259Y-50443984D01*
X90416736Y-50543264D01*
X90516016Y-50624741D01*
X90629283Y-50685283D01*
X90752186Y-50722565D01*
X90847978Y-50732000D01*
X91262022Y-50732000D01*
X91357814Y-50722565D01*
X91480717Y-50685283D01*
X91593984Y-50624741D01*
X91693264Y-50543264D01*
X91774741Y-50443984D01*
X91835283Y-50330717D01*
X91872565Y-50207814D01*
X91885154Y-50080000D01*
X91872565Y-49952186D01*
X91835283Y-49829283D01*
X91774741Y-49716016D01*
X91693264Y-49616736D01*
X91593984Y-49535259D01*
X91480717Y-49474717D01*
X91357814Y-49437435D01*
X91262022Y-49428000D01*
X90847978Y-49428000D01*
X90752186Y-49437435D01*
X90629283Y-49474717D01*
X90516016Y-49535259D01*
X90416736Y-49616736D01*
X90335259Y-49716016D01*
X90274717Y-49829283D01*
X90237435Y-49952186D01*
X90224846Y-50080000D01*
X86075154Y-50080000D01*
X86062565Y-49952186D01*
X86025283Y-49829283D01*
X85964741Y-49716016D01*
X85883264Y-49616736D01*
X85783984Y-49535259D01*
X85670717Y-49474717D01*
X85547814Y-49437435D01*
X85452022Y-49428000D01*
X85037978Y-49428000D01*
X84942186Y-49437435D01*
X84819283Y-49474717D01*
X84706016Y-49535259D01*
X84606736Y-49616736D01*
X84525259Y-49716016D01*
X84464717Y-49829283D01*
X84427435Y-49952186D01*
X84414846Y-50080000D01*
X82135648Y-50080000D01*
X82114380Y-50058732D01*
X82023970Y-49998322D01*
X81923512Y-49956711D01*
X81816867Y-49935498D01*
X81708133Y-49935498D01*
X81601488Y-49956711D01*
X81501030Y-49998322D01*
X81410620Y-50058732D01*
X81400000Y-50069352D01*
X81389380Y-50058732D01*
X81298970Y-49998322D01*
X81198512Y-49956711D01*
X81091867Y-49935498D01*
X80983133Y-49935498D01*
X80876488Y-49956711D01*
X80776030Y-49998322D01*
X80685620Y-50058732D01*
X80608734Y-50135618D01*
X80548324Y-50226028D01*
X80506713Y-50326486D01*
X80485500Y-50433131D01*
X78280542Y-50433131D01*
X78335283Y-50330717D01*
X78372565Y-50207814D01*
X78385154Y-50080000D01*
X78372565Y-49952186D01*
X78335283Y-49829283D01*
X78274741Y-49716016D01*
X78193264Y-49616736D01*
X78093984Y-49535259D01*
X77980717Y-49474717D01*
X77857814Y-49437435D01*
X77762022Y-49428000D01*
X77347978Y-49428000D01*
X77252186Y-49437435D01*
X77129283Y-49474717D01*
X77016016Y-49535259D01*
X76916736Y-49616736D01*
X76835259Y-49716016D01*
X76774717Y-49829283D01*
X76737435Y-49952186D01*
X76724846Y-50080000D01*
X75887000Y-50080000D01*
X75887000Y-46943062D01*
X76428000Y-46943062D01*
X76428000Y-47616937D01*
X76438881Y-47727417D01*
X76481882Y-47869169D01*
X76551710Y-47999809D01*
X76645683Y-48114317D01*
X76760190Y-48208290D01*
X76890830Y-48278118D01*
X77032582Y-48321119D01*
X77108144Y-48328561D01*
X77081350Y-48416888D01*
X77070209Y-48530000D01*
X77081350Y-48643112D01*
X77114343Y-48751876D01*
X77167921Y-48852115D01*
X77240026Y-48939974D01*
X77327885Y-49012079D01*
X77428124Y-49065657D01*
X77536888Y-49098650D01*
X77621664Y-49107000D01*
X77978336Y-49107000D01*
X78063112Y-49098650D01*
X78171876Y-49065657D01*
X78272115Y-49012079D01*
X78359974Y-48939974D01*
X78432079Y-48852115D01*
X78485657Y-48751876D01*
X78518650Y-48643112D01*
X78529791Y-48530000D01*
X78522190Y-48452827D01*
X78543170Y-48457000D01*
X78656830Y-48457000D01*
X78768305Y-48434826D01*
X78873312Y-48391331D01*
X78967816Y-48328185D01*
X79048185Y-48247816D01*
X79111331Y-48153312D01*
X79154826Y-48048305D01*
X79177000Y-47936830D01*
X79177000Y-47823170D01*
X79159765Y-47736525D01*
X79168305Y-47734826D01*
X79273312Y-47691331D01*
X79367816Y-47628185D01*
X79400000Y-47596001D01*
X79432184Y-47628185D01*
X79526688Y-47691331D01*
X79631695Y-47734826D01*
X79640235Y-47736525D01*
X79623000Y-47823170D01*
X79623000Y-47936830D01*
X79645174Y-48048305D01*
X79688669Y-48153312D01*
X79751815Y-48247816D01*
X79832184Y-48328185D01*
X79926688Y-48391331D01*
X80031695Y-48434826D01*
X80143170Y-48457000D01*
X80256830Y-48457000D01*
X80368305Y-48434826D01*
X80473312Y-48391331D01*
X80567816Y-48328185D01*
X80600000Y-48296001D01*
X80632184Y-48328185D01*
X80726688Y-48391331D01*
X80831695Y-48434826D01*
X80943170Y-48457000D01*
X81056830Y-48457000D01*
X81168305Y-48434826D01*
X81273312Y-48391331D01*
X81367816Y-48328185D01*
X81400000Y-48296001D01*
X81432184Y-48328185D01*
X81526688Y-48391331D01*
X81631695Y-48434826D01*
X81743170Y-48457000D01*
X81856830Y-48457000D01*
X81968305Y-48434826D01*
X82073312Y-48391331D01*
X82167816Y-48328185D01*
X82200000Y-48296001D01*
X82232184Y-48328185D01*
X82326688Y-48391331D01*
X82431695Y-48434826D01*
X82543170Y-48457000D01*
X82656830Y-48457000D01*
X82768305Y-48434826D01*
X82873312Y-48391331D01*
X82967816Y-48328185D01*
X83048185Y-48247816D01*
X83111331Y-48153312D01*
X83154826Y-48048305D01*
X83177000Y-47936830D01*
X83177000Y-47823170D01*
X83159765Y-47736525D01*
X83168305Y-47734826D01*
X83273312Y-47691331D01*
X83367816Y-47628185D01*
X83400000Y-47596001D01*
X83432184Y-47628185D01*
X83526688Y-47691331D01*
X83631695Y-47734826D01*
X83640235Y-47736525D01*
X83623000Y-47823170D01*
X83623000Y-47936830D01*
X83645174Y-48048305D01*
X83688669Y-48153312D01*
X83751815Y-48247816D01*
X83832184Y-48328185D01*
X83926688Y-48391331D01*
X84031695Y-48434826D01*
X84143170Y-48457000D01*
X84256830Y-48457000D01*
X84368305Y-48434826D01*
X84436223Y-48406694D01*
X84423000Y-48473170D01*
X84423000Y-48586830D01*
X84445174Y-48698305D01*
X84488669Y-48803312D01*
X84551815Y-48897816D01*
X84632184Y-48978185D01*
X84726688Y-49041331D01*
X84831695Y-49084826D01*
X84943170Y-49107000D01*
X85056830Y-49107000D01*
X85168305Y-49084826D01*
X85273312Y-49041331D01*
X85367816Y-48978185D01*
X85448185Y-48897816D01*
X85511331Y-48803312D01*
X85554826Y-48698305D01*
X85577000Y-48586830D01*
X85577000Y-48473170D01*
X85554826Y-48361695D01*
X85540802Y-48327838D01*
X85620000Y-48335638D01*
X85767417Y-48321119D01*
X85909169Y-48278118D01*
X86039809Y-48208290D01*
X86154317Y-48114317D01*
X86248290Y-47999810D01*
X86318118Y-47869170D01*
X86361119Y-47727418D01*
X86372000Y-47616938D01*
X86372000Y-46943062D01*
X89928000Y-46943062D01*
X89928000Y-47616937D01*
X89938881Y-47727417D01*
X89981882Y-47869169D01*
X90051710Y-47999809D01*
X90145683Y-48114317D01*
X90260190Y-48208290D01*
X90390830Y-48278118D01*
X90532582Y-48321119D01*
X90608144Y-48328561D01*
X90581350Y-48416888D01*
X90570209Y-48530000D01*
X90581350Y-48643112D01*
X90614343Y-48751876D01*
X90667921Y-48852115D01*
X90740026Y-48939974D01*
X90827885Y-49012079D01*
X90928124Y-49065657D01*
X91036888Y-49098650D01*
X91121664Y-49107000D01*
X91478336Y-49107000D01*
X91563112Y-49098650D01*
X91671876Y-49065657D01*
X91772115Y-49012079D01*
X91859974Y-48939974D01*
X91932079Y-48852115D01*
X91985657Y-48751876D01*
X92018650Y-48643112D01*
X92029791Y-48530000D01*
X92022190Y-48452827D01*
X92043170Y-48457000D01*
X92156830Y-48457000D01*
X92268305Y-48434826D01*
X92373312Y-48391331D01*
X92467816Y-48328185D01*
X92548185Y-48247816D01*
X92611331Y-48153312D01*
X92654826Y-48048305D01*
X92677000Y-47936830D01*
X92677000Y-47823170D01*
X92659765Y-47736525D01*
X92668305Y-47734826D01*
X92773312Y-47691331D01*
X92867816Y-47628185D01*
X92900000Y-47596001D01*
X92932184Y-47628185D01*
X93026688Y-47691331D01*
X93131695Y-47734826D01*
X93243170Y-47757000D01*
X93356830Y-47757000D01*
X93468305Y-47734826D01*
X93573312Y-47691331D01*
X93667816Y-47628185D01*
X93700000Y-47596001D01*
X93732184Y-47628185D01*
X93826688Y-47691331D01*
X93931695Y-47734826D01*
X93940235Y-47736525D01*
X93923000Y-47823170D01*
X93923000Y-47936830D01*
X93945174Y-48048305D01*
X93988669Y-48153312D01*
X94051815Y-48247816D01*
X94132184Y-48328185D01*
X94226688Y-48391331D01*
X94331695Y-48434826D01*
X94443170Y-48457000D01*
X94556830Y-48457000D01*
X94668305Y-48434826D01*
X94773312Y-48391331D01*
X94867816Y-48328185D01*
X94900000Y-48296001D01*
X94932184Y-48328185D01*
X95026688Y-48391331D01*
X95131695Y-48434826D01*
X95243170Y-48457000D01*
X95356830Y-48457000D01*
X95468305Y-48434826D01*
X95573312Y-48391331D01*
X95667816Y-48328185D01*
X95748185Y-48247816D01*
X95811331Y-48153312D01*
X95854826Y-48048305D01*
X95877000Y-47936830D01*
X95877000Y-47823170D01*
X95859765Y-47736525D01*
X95868305Y-47734826D01*
X95973312Y-47691331D01*
X96067816Y-47628185D01*
X96100000Y-47596001D01*
X96132184Y-47628185D01*
X96226688Y-47691331D01*
X96331695Y-47734826D01*
X96443170Y-47757000D01*
X96556830Y-47757000D01*
X96668305Y-47734826D01*
X96773312Y-47691331D01*
X96867816Y-47628185D01*
X96900000Y-47596001D01*
X96932184Y-47628185D01*
X97026688Y-47691331D01*
X97131695Y-47734826D01*
X97140235Y-47736525D01*
X97123000Y-47823170D01*
X97123000Y-47936830D01*
X97145174Y-48048305D01*
X97188669Y-48153312D01*
X97251815Y-48247816D01*
X97332184Y-48328185D01*
X97426688Y-48391331D01*
X97531695Y-48434826D01*
X97643170Y-48457000D01*
X97756830Y-48457000D01*
X97868305Y-48434826D01*
X97936223Y-48406694D01*
X97923000Y-48473170D01*
X97923000Y-48586830D01*
X97945174Y-48698305D01*
X97988669Y-48803312D01*
X98051815Y-48897816D01*
X98132184Y-48978185D01*
X98226688Y-49041331D01*
X98331695Y-49084826D01*
X98443170Y-49107000D01*
X98556830Y-49107000D01*
X98668305Y-49084826D01*
X98773312Y-49041331D01*
X98867816Y-48978185D01*
X98948185Y-48897816D01*
X99011331Y-48803312D01*
X99054826Y-48698305D01*
X99077000Y-48586830D01*
X99077000Y-48473170D01*
X99054826Y-48361695D01*
X99040802Y-48327838D01*
X99120000Y-48335638D01*
X99267417Y-48321119D01*
X99409169Y-48278118D01*
X99539809Y-48208290D01*
X99654317Y-48114317D01*
X99748290Y-47999810D01*
X99818118Y-47869170D01*
X99840425Y-47795633D01*
X100498000Y-47795633D01*
X100498000Y-47904367D01*
X100519213Y-48011012D01*
X100560824Y-48111470D01*
X100621234Y-48201880D01*
X100698120Y-48278766D01*
X100788530Y-48339176D01*
X100888988Y-48380787D01*
X100995633Y-48402000D01*
X101104367Y-48402000D01*
X101211012Y-48380787D01*
X101311470Y-48339176D01*
X101401880Y-48278766D01*
X101478766Y-48201880D01*
X101539176Y-48111470D01*
X101580787Y-48011012D01*
X101602000Y-47904367D01*
X101602000Y-47795633D01*
X101580787Y-47688988D01*
X101539176Y-47588530D01*
X101478766Y-47498120D01*
X101401880Y-47421234D01*
X101311470Y-47360824D01*
X101211012Y-47319213D01*
X101104367Y-47298000D01*
X100995633Y-47298000D01*
X100888988Y-47319213D01*
X100788530Y-47360824D01*
X100698120Y-47421234D01*
X100621234Y-47498120D01*
X100560824Y-47588530D01*
X100519213Y-47688988D01*
X100498000Y-47795633D01*
X99840425Y-47795633D01*
X99861119Y-47727418D01*
X99872000Y-47616938D01*
X99872000Y-46943062D01*
X103428000Y-46943062D01*
X103428000Y-47616937D01*
X103438881Y-47727417D01*
X103481882Y-47869169D01*
X103551710Y-47999809D01*
X103645683Y-48114317D01*
X103760190Y-48208290D01*
X103890830Y-48278118D01*
X104032582Y-48321119D01*
X104108144Y-48328561D01*
X104081350Y-48416888D01*
X104070209Y-48530000D01*
X104081350Y-48643112D01*
X104114343Y-48751876D01*
X104167921Y-48852115D01*
X104240026Y-48939974D01*
X104327885Y-49012079D01*
X104428124Y-49065657D01*
X104536888Y-49098650D01*
X104621664Y-49107000D01*
X104978336Y-49107000D01*
X105063112Y-49098650D01*
X105171876Y-49065657D01*
X105272115Y-49012079D01*
X105359974Y-48939974D01*
X105432079Y-48852115D01*
X105485657Y-48751876D01*
X105518650Y-48643112D01*
X105529791Y-48530000D01*
X105522190Y-48452827D01*
X105543170Y-48457000D01*
X105656830Y-48457000D01*
X105768305Y-48434826D01*
X105873312Y-48391331D01*
X105967816Y-48328185D01*
X106048185Y-48247816D01*
X106111331Y-48153312D01*
X106154826Y-48048305D01*
X106177000Y-47936830D01*
X106177000Y-47823170D01*
X106159765Y-47736525D01*
X106168305Y-47734826D01*
X106273312Y-47691331D01*
X106367816Y-47628185D01*
X106400000Y-47596001D01*
X106432184Y-47628185D01*
X106526688Y-47691331D01*
X106631695Y-47734826D01*
X106743170Y-47757000D01*
X106856830Y-47757000D01*
X106968305Y-47734826D01*
X107073312Y-47691331D01*
X107167816Y-47628185D01*
X107200000Y-47596001D01*
X107232184Y-47628185D01*
X107326688Y-47691331D01*
X107431695Y-47734826D01*
X107440235Y-47736525D01*
X107423000Y-47823170D01*
X107423000Y-47936830D01*
X107445174Y-48048305D01*
X107488669Y-48153312D01*
X107551815Y-48247816D01*
X107632184Y-48328185D01*
X107726688Y-48391331D01*
X107831695Y-48434826D01*
X107943170Y-48457000D01*
X108056830Y-48457000D01*
X108168305Y-48434826D01*
X108273312Y-48391331D01*
X108367816Y-48328185D01*
X108400000Y-48296001D01*
X108432184Y-48328185D01*
X108526688Y-48391331D01*
X108631695Y-48434826D01*
X108743170Y-48457000D01*
X108856830Y-48457000D01*
X108968305Y-48434826D01*
X109073312Y-48391331D01*
X109167816Y-48328185D01*
X109248185Y-48247816D01*
X109311331Y-48153312D01*
X109354826Y-48048305D01*
X109377000Y-47936830D01*
X109377000Y-47823170D01*
X109359765Y-47736525D01*
X109368305Y-47734826D01*
X109473312Y-47691331D01*
X109567816Y-47628185D01*
X109600000Y-47596001D01*
X109632184Y-47628185D01*
X109726688Y-47691331D01*
X109831695Y-47734826D01*
X109943170Y-47757000D01*
X110056830Y-47757000D01*
X110168305Y-47734826D01*
X110273312Y-47691331D01*
X110367816Y-47628185D01*
X110400000Y-47596001D01*
X110432184Y-47628185D01*
X110526688Y-47691331D01*
X110631695Y-47734826D01*
X110640235Y-47736525D01*
X110623000Y-47823170D01*
X110623000Y-47936830D01*
X110645174Y-48048305D01*
X110688669Y-48153312D01*
X110751815Y-48247816D01*
X110832184Y-48328185D01*
X110926688Y-48391331D01*
X111031695Y-48434826D01*
X111143170Y-48457000D01*
X111256830Y-48457000D01*
X111368305Y-48434826D01*
X111436223Y-48406694D01*
X111423000Y-48473170D01*
X111423000Y-48586830D01*
X111445174Y-48698305D01*
X111488669Y-48803312D01*
X111551815Y-48897816D01*
X111632184Y-48978185D01*
X111726688Y-49041331D01*
X111831695Y-49084826D01*
X111943170Y-49107000D01*
X112056830Y-49107000D01*
X112168305Y-49084826D01*
X112273312Y-49041331D01*
X112367816Y-48978185D01*
X112448185Y-48897816D01*
X112511331Y-48803312D01*
X112554826Y-48698305D01*
X112577000Y-48586830D01*
X112577000Y-48473170D01*
X112554826Y-48361695D01*
X112540802Y-48327838D01*
X112620000Y-48335638D01*
X112767417Y-48321119D01*
X112909169Y-48278118D01*
X113039809Y-48208290D01*
X113154317Y-48114317D01*
X113248290Y-47999810D01*
X113318118Y-47869170D01*
X113361119Y-47727418D01*
X113372000Y-47616938D01*
X113372000Y-46943062D01*
X113361119Y-46832582D01*
X113318118Y-46690830D01*
X113248290Y-46560190D01*
X113154317Y-46445683D01*
X113039810Y-46351710D01*
X112909170Y-46281882D01*
X112767418Y-46238881D01*
X112620000Y-46224362D01*
X112472583Y-46238881D01*
X112330831Y-46281882D01*
X112200191Y-46351710D01*
X112085684Y-46445683D01*
X111991711Y-46560190D01*
X111921882Y-46690830D01*
X111878881Y-46832582D01*
X111868000Y-46943062D01*
X111868000Y-47616937D01*
X111878881Y-47727417D01*
X111921882Y-47869169D01*
X111966690Y-47953000D01*
X111943170Y-47953000D01*
X111831695Y-47975174D01*
X111763777Y-48003306D01*
X111777000Y-47936830D01*
X111777000Y-47823170D01*
X111754826Y-47711695D01*
X111711331Y-47606688D01*
X111648185Y-47512184D01*
X111567816Y-47431815D01*
X111473312Y-47368669D01*
X111368305Y-47325174D01*
X111359765Y-47323475D01*
X111377000Y-47236830D01*
X111377000Y-47123170D01*
X111354826Y-47011695D01*
X111311331Y-46906688D01*
X111248185Y-46812184D01*
X111167816Y-46731815D01*
X111073312Y-46668669D01*
X110968305Y-46625174D01*
X110856830Y-46603000D01*
X110743170Y-46603000D01*
X110631695Y-46625174D01*
X110526688Y-46668669D01*
X110432184Y-46731815D01*
X110400000Y-46763999D01*
X110367816Y-46731815D01*
X110273312Y-46668669D01*
X110168305Y-46625174D01*
X110056830Y-46603000D01*
X109943170Y-46603000D01*
X109831695Y-46625174D01*
X109726688Y-46668669D01*
X109632184Y-46731815D01*
X109600000Y-46763999D01*
X109567816Y-46731815D01*
X109473312Y-46668669D01*
X109368305Y-46625174D01*
X109256830Y-46603000D01*
X109143170Y-46603000D01*
X109031695Y-46625174D01*
X108926688Y-46668669D01*
X108832184Y-46731815D01*
X108751815Y-46812184D01*
X108688669Y-46906688D01*
X108645174Y-47011695D01*
X108623000Y-47123170D01*
X108623000Y-47236830D01*
X108640235Y-47323475D01*
X108631695Y-47325174D01*
X108526688Y-47368669D01*
X108432184Y-47431815D01*
X108400000Y-47463999D01*
X108367816Y-47431815D01*
X108273312Y-47368669D01*
X108168305Y-47325174D01*
X108159765Y-47323475D01*
X108177000Y-47236830D01*
X108177000Y-47123170D01*
X108154826Y-47011695D01*
X108111331Y-46906688D01*
X108048185Y-46812184D01*
X107967816Y-46731815D01*
X107873312Y-46668669D01*
X107768305Y-46625174D01*
X107656830Y-46603000D01*
X107543170Y-46603000D01*
X107431695Y-46625174D01*
X107326688Y-46668669D01*
X107232184Y-46731815D01*
X107200000Y-46763999D01*
X107167816Y-46731815D01*
X107073312Y-46668669D01*
X106968305Y-46625174D01*
X106856830Y-46603000D01*
X106743170Y-46603000D01*
X106631695Y-46625174D01*
X106526688Y-46668669D01*
X106432184Y-46731815D01*
X106400000Y-46763999D01*
X106367816Y-46731815D01*
X106273312Y-46668669D01*
X106168305Y-46625174D01*
X106056830Y-46603000D01*
X105943170Y-46603000D01*
X105831695Y-46625174D01*
X105726688Y-46668669D01*
X105632184Y-46731815D01*
X105551815Y-46812184D01*
X105488669Y-46906688D01*
X105445174Y-47011695D01*
X105423000Y-47123170D01*
X105423000Y-47236830D01*
X105440235Y-47323475D01*
X105431695Y-47325174D01*
X105326688Y-47368669D01*
X105232184Y-47431815D01*
X105151815Y-47512184D01*
X105088669Y-47606688D01*
X105045174Y-47711695D01*
X105023000Y-47823170D01*
X105023000Y-47936830D01*
X105027173Y-47957810D01*
X104978336Y-47953000D01*
X104833310Y-47953000D01*
X104878118Y-47869170D01*
X104921119Y-47727418D01*
X104932000Y-47616938D01*
X104932000Y-46943062D01*
X104921119Y-46832582D01*
X104878118Y-46690830D01*
X104808290Y-46560190D01*
X104714317Y-46445683D01*
X104599810Y-46351710D01*
X104469170Y-46281882D01*
X104327418Y-46238881D01*
X104180000Y-46224362D01*
X104032583Y-46238881D01*
X103890831Y-46281882D01*
X103760191Y-46351710D01*
X103645684Y-46445683D01*
X103551711Y-46560190D01*
X103481882Y-46690830D01*
X103438881Y-46832582D01*
X103428000Y-46943062D01*
X99872000Y-46943062D01*
X99861119Y-46832582D01*
X99818118Y-46690830D01*
X99748290Y-46560190D01*
X99654317Y-46445683D01*
X99539810Y-46351710D01*
X99409170Y-46281882D01*
X99267418Y-46238881D01*
X99120000Y-46224362D01*
X98972583Y-46238881D01*
X98830831Y-46281882D01*
X98700191Y-46351710D01*
X98585684Y-46445683D01*
X98491711Y-46560190D01*
X98421882Y-46690830D01*
X98378881Y-46832582D01*
X98368000Y-46943062D01*
X98368000Y-47616937D01*
X98378881Y-47727417D01*
X98421882Y-47869169D01*
X98466690Y-47953000D01*
X98443170Y-47953000D01*
X98331695Y-47975174D01*
X98263777Y-48003306D01*
X98277000Y-47936830D01*
X98277000Y-47823170D01*
X98254826Y-47711695D01*
X98211331Y-47606688D01*
X98148185Y-47512184D01*
X98067816Y-47431815D01*
X97973312Y-47368669D01*
X97868305Y-47325174D01*
X97859765Y-47323475D01*
X97877000Y-47236830D01*
X97877000Y-47123170D01*
X97854826Y-47011695D01*
X97811331Y-46906688D01*
X97748185Y-46812184D01*
X97667816Y-46731815D01*
X97573312Y-46668669D01*
X97468305Y-46625174D01*
X97356830Y-46603000D01*
X97243170Y-46603000D01*
X97131695Y-46625174D01*
X97026688Y-46668669D01*
X96932184Y-46731815D01*
X96900000Y-46763999D01*
X96867816Y-46731815D01*
X96773312Y-46668669D01*
X96668305Y-46625174D01*
X96556830Y-46603000D01*
X96443170Y-46603000D01*
X96331695Y-46625174D01*
X96226688Y-46668669D01*
X96132184Y-46731815D01*
X96100000Y-46763999D01*
X96067816Y-46731815D01*
X95973312Y-46668669D01*
X95868305Y-46625174D01*
X95756830Y-46603000D01*
X95643170Y-46603000D01*
X95531695Y-46625174D01*
X95426688Y-46668669D01*
X95332184Y-46731815D01*
X95251815Y-46812184D01*
X95188669Y-46906688D01*
X95145174Y-47011695D01*
X95123000Y-47123170D01*
X95123000Y-47236830D01*
X95140235Y-47323475D01*
X95131695Y-47325174D01*
X95026688Y-47368669D01*
X94932184Y-47431815D01*
X94900000Y-47463999D01*
X94867816Y-47431815D01*
X94773312Y-47368669D01*
X94668305Y-47325174D01*
X94659765Y-47323475D01*
X94677000Y-47236830D01*
X94677000Y-47123170D01*
X94654826Y-47011695D01*
X94611331Y-46906688D01*
X94548185Y-46812184D01*
X94467816Y-46731815D01*
X94373312Y-46668669D01*
X94268305Y-46625174D01*
X94156830Y-46603000D01*
X94043170Y-46603000D01*
X93931695Y-46625174D01*
X93826688Y-46668669D01*
X93732184Y-46731815D01*
X93700000Y-46763999D01*
X93667816Y-46731815D01*
X93573312Y-46668669D01*
X93468305Y-46625174D01*
X93356830Y-46603000D01*
X93243170Y-46603000D01*
X93131695Y-46625174D01*
X93026688Y-46668669D01*
X92932184Y-46731815D01*
X92900000Y-46763999D01*
X92867816Y-46731815D01*
X92773312Y-46668669D01*
X92668305Y-46625174D01*
X92556830Y-46603000D01*
X92443170Y-46603000D01*
X92331695Y-46625174D01*
X92226688Y-46668669D01*
X92132184Y-46731815D01*
X92051815Y-46812184D01*
X91988669Y-46906688D01*
X91945174Y-47011695D01*
X91923000Y-47123170D01*
X91923000Y-47236830D01*
X91940235Y-47323475D01*
X91931695Y-47325174D01*
X91826688Y-47368669D01*
X91732184Y-47431815D01*
X91651815Y-47512184D01*
X91588669Y-47606688D01*
X91545174Y-47711695D01*
X91523000Y-47823170D01*
X91523000Y-47936830D01*
X91527173Y-47957810D01*
X91478336Y-47953000D01*
X91333310Y-47953000D01*
X91378118Y-47869170D01*
X91421119Y-47727418D01*
X91432000Y-47616938D01*
X91432000Y-46943062D01*
X91421119Y-46832582D01*
X91378118Y-46690830D01*
X91308290Y-46560190D01*
X91214317Y-46445683D01*
X91099810Y-46351710D01*
X90969170Y-46281882D01*
X90827418Y-46238881D01*
X90680000Y-46224362D01*
X90532583Y-46238881D01*
X90390831Y-46281882D01*
X90260191Y-46351710D01*
X90145684Y-46445683D01*
X90051711Y-46560190D01*
X89981882Y-46690830D01*
X89938881Y-46832582D01*
X89928000Y-46943062D01*
X86372000Y-46943062D01*
X86361119Y-46832582D01*
X86318118Y-46690830D01*
X86248290Y-46560190D01*
X86154317Y-46445683D01*
X86039810Y-46351710D01*
X85909170Y-46281882D01*
X85767418Y-46238881D01*
X85620000Y-46224362D01*
X85472583Y-46238881D01*
X85330831Y-46281882D01*
X85200191Y-46351710D01*
X85085684Y-46445683D01*
X84991711Y-46560190D01*
X84921882Y-46690830D01*
X84878881Y-46832582D01*
X84868000Y-46943062D01*
X84868000Y-47616937D01*
X84878881Y-47727417D01*
X84921882Y-47869169D01*
X84966690Y-47953000D01*
X84943170Y-47953000D01*
X84831695Y-47975174D01*
X84763777Y-48003306D01*
X84777000Y-47936830D01*
X84777000Y-47823170D01*
X84754826Y-47711695D01*
X84711331Y-47606688D01*
X84648185Y-47512184D01*
X84567816Y-47431815D01*
X84473312Y-47368669D01*
X84368305Y-47325174D01*
X84359765Y-47323475D01*
X84377000Y-47236830D01*
X84377000Y-47123170D01*
X84354826Y-47011695D01*
X84311331Y-46906688D01*
X84248185Y-46812184D01*
X84167816Y-46731815D01*
X84073312Y-46668669D01*
X83968305Y-46625174D01*
X83856830Y-46603000D01*
X83743170Y-46603000D01*
X83631695Y-46625174D01*
X83526688Y-46668669D01*
X83432184Y-46731815D01*
X83400000Y-46763999D01*
X83367816Y-46731815D01*
X83273312Y-46668669D01*
X83168305Y-46625174D01*
X83056830Y-46603000D01*
X82943170Y-46603000D01*
X82831695Y-46625174D01*
X82726688Y-46668669D01*
X82632184Y-46731815D01*
X82600000Y-46763999D01*
X82567816Y-46731815D01*
X82473312Y-46668669D01*
X82368305Y-46625174D01*
X82256830Y-46603000D01*
X82143170Y-46603000D01*
X82031695Y-46625174D01*
X81926688Y-46668669D01*
X81832184Y-46731815D01*
X81751815Y-46812184D01*
X81688669Y-46906688D01*
X81645174Y-47011695D01*
X81623000Y-47123170D01*
X81623000Y-47236830D01*
X81640235Y-47323475D01*
X81631695Y-47325174D01*
X81526688Y-47368669D01*
X81432184Y-47431815D01*
X81400000Y-47463999D01*
X81367816Y-47431815D01*
X81273312Y-47368669D01*
X81168305Y-47325174D01*
X81159765Y-47323475D01*
X81177000Y-47236830D01*
X81177000Y-47123170D01*
X81154826Y-47011695D01*
X81111331Y-46906688D01*
X81048185Y-46812184D01*
X80967816Y-46731815D01*
X80873312Y-46668669D01*
X80768305Y-46625174D01*
X80656830Y-46603000D01*
X80543170Y-46603000D01*
X80431695Y-46625174D01*
X80326688Y-46668669D01*
X80232184Y-46731815D01*
X80200000Y-46763999D01*
X80167816Y-46731815D01*
X80073312Y-46668669D01*
X79968305Y-46625174D01*
X79856830Y-46603000D01*
X79743170Y-46603000D01*
X79631695Y-46625174D01*
X79526688Y-46668669D01*
X79432184Y-46731815D01*
X79400000Y-46763999D01*
X79367816Y-46731815D01*
X79273312Y-46668669D01*
X79168305Y-46625174D01*
X79056830Y-46603000D01*
X78943170Y-46603000D01*
X78831695Y-46625174D01*
X78726688Y-46668669D01*
X78632184Y-46731815D01*
X78551815Y-46812184D01*
X78488669Y-46906688D01*
X78445174Y-47011695D01*
X78423000Y-47123170D01*
X78423000Y-47236830D01*
X78440235Y-47323475D01*
X78431695Y-47325174D01*
X78326688Y-47368669D01*
X78232184Y-47431815D01*
X78151815Y-47512184D01*
X78088669Y-47606688D01*
X78045174Y-47711695D01*
X78023000Y-47823170D01*
X78023000Y-47936830D01*
X78027173Y-47957810D01*
X77978336Y-47953000D01*
X77833310Y-47953000D01*
X77878118Y-47869170D01*
X77921119Y-47727418D01*
X77932000Y-47616938D01*
X77932000Y-46943062D01*
X77921119Y-46832582D01*
X77878118Y-46690830D01*
X77808290Y-46560190D01*
X77714317Y-46445683D01*
X77599810Y-46351710D01*
X77469170Y-46281882D01*
X77327418Y-46238881D01*
X77180000Y-46224362D01*
X77032583Y-46238881D01*
X76890831Y-46281882D01*
X76760191Y-46351710D01*
X76645684Y-46445683D01*
X76551711Y-46560190D01*
X76481882Y-46690830D01*
X76438881Y-46832582D01*
X76428000Y-46943062D01*
X75887000Y-46943062D01*
X75887000Y-45299479D01*
X76198000Y-45299479D01*
X76208158Y-45402615D01*
X76248299Y-45534942D01*
X76313485Y-45656896D01*
X76401210Y-45763789D01*
X76508103Y-45851515D01*
X76630057Y-45916701D01*
X76762384Y-45956842D01*
X76900000Y-45970396D01*
X77037615Y-45956842D01*
X77169942Y-45916701D01*
X77291896Y-45851515D01*
X77398789Y-45763790D01*
X77486515Y-45656897D01*
X77551701Y-45534943D01*
X77591842Y-45402616D01*
X77602000Y-45299480D01*
X77602000Y-45299479D01*
X85198000Y-45299479D01*
X85208158Y-45402615D01*
X85248299Y-45534942D01*
X85313485Y-45656896D01*
X85401210Y-45763789D01*
X85508103Y-45851515D01*
X85630057Y-45916701D01*
X85762384Y-45956842D01*
X85900000Y-45970396D01*
X86037615Y-45956842D01*
X86169942Y-45916701D01*
X86291896Y-45851515D01*
X86398789Y-45763790D01*
X86486515Y-45656897D01*
X86551701Y-45534943D01*
X86591842Y-45402616D01*
X86602000Y-45299480D01*
X86602000Y-45299479D01*
X89698000Y-45299479D01*
X89708158Y-45402615D01*
X89748299Y-45534942D01*
X89813485Y-45656896D01*
X89901210Y-45763789D01*
X90008103Y-45851515D01*
X90130057Y-45916701D01*
X90262384Y-45956842D01*
X90400000Y-45970396D01*
X90537615Y-45956842D01*
X90669942Y-45916701D01*
X90791896Y-45851515D01*
X90898789Y-45763790D01*
X90986515Y-45656897D01*
X91051701Y-45534943D01*
X91091842Y-45402616D01*
X91102000Y-45299480D01*
X91102000Y-45299479D01*
X98698000Y-45299479D01*
X98708158Y-45402615D01*
X98748299Y-45534942D01*
X98813485Y-45656896D01*
X98901210Y-45763789D01*
X99008103Y-45851515D01*
X99130057Y-45916701D01*
X99262384Y-45956842D01*
X99400000Y-45970396D01*
X99537615Y-45956842D01*
X99669942Y-45916701D01*
X99791896Y-45851515D01*
X99898789Y-45763790D01*
X99986515Y-45656897D01*
X100051701Y-45534943D01*
X100091842Y-45402616D01*
X100102000Y-45299480D01*
X100102000Y-45299479D01*
X103198000Y-45299479D01*
X103208158Y-45402615D01*
X103248299Y-45534942D01*
X103313485Y-45656896D01*
X103401210Y-45763789D01*
X103508103Y-45851515D01*
X103630057Y-45916701D01*
X103762384Y-45956842D01*
X103900000Y-45970396D01*
X104037615Y-45956842D01*
X104169942Y-45916701D01*
X104291896Y-45851515D01*
X104398789Y-45763790D01*
X104486515Y-45656897D01*
X104551701Y-45534943D01*
X104591842Y-45402616D01*
X104602000Y-45299480D01*
X104602000Y-45299479D01*
X112198000Y-45299479D01*
X112208158Y-45402615D01*
X112248299Y-45534942D01*
X112313485Y-45656896D01*
X112401210Y-45763789D01*
X112508103Y-45851515D01*
X112630057Y-45916701D01*
X112762384Y-45956842D01*
X112900000Y-45970396D01*
X113037615Y-45956842D01*
X113169942Y-45916701D01*
X113291896Y-45851515D01*
X113398789Y-45763790D01*
X113486515Y-45656897D01*
X113551701Y-45534943D01*
X113591842Y-45402616D01*
X113602000Y-45299480D01*
X113602000Y-44230520D01*
X113591842Y-44127384D01*
X113551701Y-43995057D01*
X113486515Y-43873103D01*
X113398790Y-43766210D01*
X113291897Y-43678485D01*
X113169943Y-43613299D01*
X113037616Y-43573158D01*
X112900000Y-43559604D01*
X112762385Y-43573158D01*
X112630058Y-43613299D01*
X112508104Y-43678485D01*
X112401211Y-43766210D01*
X112313486Y-43873103D01*
X112248300Y-43995057D01*
X112208159Y-44127384D01*
X112198001Y-44230520D01*
X112198000Y-45299479D01*
X104602000Y-45299479D01*
X104602000Y-44230520D01*
X104591842Y-44127384D01*
X104551701Y-43995057D01*
X104486515Y-43873103D01*
X104398790Y-43766210D01*
X104291897Y-43678485D01*
X104169943Y-43613299D01*
X104037616Y-43573158D01*
X103900000Y-43559604D01*
X103762385Y-43573158D01*
X103630058Y-43613299D01*
X103508104Y-43678485D01*
X103401211Y-43766210D01*
X103313486Y-43873103D01*
X103248300Y-43995057D01*
X103208159Y-44127384D01*
X103198001Y-44230520D01*
X103198000Y-45299479D01*
X100102000Y-45299479D01*
X100102000Y-44230520D01*
X100091842Y-44127384D01*
X100051701Y-43995057D01*
X99986515Y-43873103D01*
X99898790Y-43766210D01*
X99791897Y-43678485D01*
X99669943Y-43613299D01*
X99537616Y-43573158D01*
X99400000Y-43559604D01*
X99262385Y-43573158D01*
X99130058Y-43613299D01*
X99008104Y-43678485D01*
X98901211Y-43766210D01*
X98813486Y-43873103D01*
X98748300Y-43995057D01*
X98708159Y-44127384D01*
X98698001Y-44230520D01*
X98698000Y-45299479D01*
X91102000Y-45299479D01*
X91102000Y-44230520D01*
X91091842Y-44127384D01*
X91051701Y-43995057D01*
X90986515Y-43873103D01*
X90898790Y-43766210D01*
X90791897Y-43678485D01*
X90669943Y-43613299D01*
X90537616Y-43573158D01*
X90400000Y-43559604D01*
X90262385Y-43573158D01*
X90130058Y-43613299D01*
X90008104Y-43678485D01*
X89901211Y-43766210D01*
X89813486Y-43873103D01*
X89748300Y-43995057D01*
X89708159Y-44127384D01*
X89698001Y-44230520D01*
X89698000Y-45299479D01*
X86602000Y-45299479D01*
X86602000Y-44230520D01*
X86591842Y-44127384D01*
X86551701Y-43995057D01*
X86486515Y-43873103D01*
X86398790Y-43766210D01*
X86291897Y-43678485D01*
X86169943Y-43613299D01*
X86037616Y-43573158D01*
X85900000Y-43559604D01*
X85762385Y-43573158D01*
X85630058Y-43613299D01*
X85508104Y-43678485D01*
X85401211Y-43766210D01*
X85313486Y-43873103D01*
X85248300Y-43995057D01*
X85208159Y-44127384D01*
X85198001Y-44230520D01*
X85198000Y-45299479D01*
X77602000Y-45299479D01*
X77602000Y-44230520D01*
X77591842Y-44127384D01*
X77551701Y-43995057D01*
X77486515Y-43873103D01*
X77398790Y-43766210D01*
X77291897Y-43678485D01*
X77169943Y-43613299D01*
X77037616Y-43573158D01*
X76900000Y-43559604D01*
X76762385Y-43573158D01*
X76630058Y-43613299D01*
X76508104Y-43678485D01*
X76401211Y-43766210D01*
X76313486Y-43873103D01*
X76248300Y-43995057D01*
X76208159Y-44127384D01*
X76198001Y-44230520D01*
X76198000Y-45299479D01*
X75887000Y-45299479D01*
X75887000Y-42687000D01*
X114574666Y-42687000D01*
X114601300Y-47268054D01*
%TA.AperFunction,Conductor*%
D27*
G36*
X114601300Y-47268054D02*
G01*
X114571234Y-47298120D01*
X114510824Y-47388530D01*
X114469213Y-47488988D01*
X114448000Y-47595633D01*
X114448000Y-47704367D01*
X114469213Y-47811012D01*
X114510824Y-47911470D01*
X114571234Y-48001880D01*
X114605767Y-48036413D01*
X114622259Y-50873000D01*
X112544514Y-50873000D01*
X112530883Y-50804471D01*
X112498950Y-50727378D01*
X112547814Y-50722565D01*
X112670717Y-50685283D01*
X112783984Y-50624741D01*
X112883264Y-50543264D01*
X112964741Y-50443984D01*
X113025283Y-50330717D01*
X113062565Y-50207814D01*
X113075154Y-50080000D01*
X113062565Y-49952186D01*
X113025283Y-49829283D01*
X112964741Y-49716016D01*
X112883264Y-49616736D01*
X112783984Y-49535259D01*
X112670717Y-49474717D01*
X112547814Y-49437435D01*
X112452022Y-49428000D01*
X112037978Y-49428000D01*
X111942186Y-49437435D01*
X111819283Y-49474717D01*
X111706016Y-49535259D01*
X111606736Y-49616736D01*
X111525259Y-49716016D01*
X111464717Y-49829283D01*
X111427435Y-49952186D01*
X111414846Y-50080000D01*
X111427435Y-50207814D01*
X111464717Y-50330717D01*
X111525259Y-50443984D01*
X111606736Y-50543264D01*
X111625923Y-50559010D01*
X111571330Y-50613603D01*
X111510920Y-50704013D01*
X111469309Y-50804471D01*
X111455678Y-50873000D01*
X109682704Y-50873000D01*
X109659859Y-50817847D01*
X109599449Y-50727437D01*
X109522563Y-50650551D01*
X109432153Y-50590141D01*
X109331695Y-50548530D01*
X109225050Y-50527317D01*
X109116316Y-50527317D01*
X109009671Y-50548530D01*
X108909213Y-50590141D01*
X108818803Y-50650551D01*
X108741917Y-50727437D01*
X108681507Y-50817847D01*
X108658662Y-50873000D01*
X107912283Y-50873000D01*
X107998809Y-50855789D01*
X108099267Y-50814178D01*
X108189677Y-50753768D01*
X108266563Y-50676882D01*
X108326973Y-50586472D01*
X108368584Y-50486014D01*
X108389797Y-50379369D01*
X108389797Y-50270635D01*
X108368584Y-50163990D01*
X108326973Y-50063532D01*
X108266563Y-49973122D01*
X108189677Y-49896236D01*
X108099267Y-49835826D01*
X107998809Y-49794215D01*
X107892164Y-49773002D01*
X107783430Y-49773002D01*
X107676785Y-49794215D01*
X107576327Y-49835826D01*
X107485917Y-49896236D01*
X107409031Y-49973122D01*
X107348621Y-50063532D01*
X107307010Y-50163990D01*
X107285797Y-50270635D01*
X107285797Y-50379369D01*
X107307010Y-50486014D01*
X107348621Y-50586472D01*
X107409031Y-50676882D01*
X107485917Y-50753768D01*
X107576327Y-50814178D01*
X107676785Y-50855789D01*
X107763311Y-50873000D01*
X96204618Y-50873000D01*
X96228685Y-50814897D01*
X96249898Y-50708252D01*
X96249898Y-50599518D01*
X96228685Y-50492873D01*
X96187074Y-50392415D01*
X96126664Y-50302005D01*
X96049778Y-50225119D01*
X95959368Y-50164709D01*
X95858910Y-50123098D01*
X95752265Y-50101885D01*
X95643531Y-50101885D01*
X95536886Y-50123098D01*
X95436428Y-50164709D01*
X95346018Y-50225119D01*
X95269132Y-50302005D01*
X95208722Y-50392415D01*
X95167111Y-50492873D01*
X95145898Y-50599518D01*
X95145898Y-50708252D01*
X95167111Y-50814897D01*
X95191178Y-50873000D01*
X94646285Y-50873000D01*
X94683760Y-50782526D01*
X94704973Y-50675881D01*
X94704973Y-50567147D01*
X94683760Y-50460502D01*
X94642149Y-50360044D01*
X94581739Y-50269634D01*
X94504853Y-50192748D01*
X94414443Y-50132338D01*
X94313985Y-50090727D01*
X94260057Y-50080000D01*
X97914846Y-50080000D01*
X97927435Y-50207814D01*
X97964717Y-50330717D01*
X98025259Y-50443984D01*
X98106736Y-50543264D01*
X98206016Y-50624741D01*
X98319283Y-50685283D01*
X98442186Y-50722565D01*
X98537978Y-50732000D01*
X98952022Y-50732000D01*
X99047814Y-50722565D01*
X99170717Y-50685283D01*
X99283984Y-50624741D01*
X99383264Y-50543264D01*
X99464741Y-50443984D01*
X99525283Y-50330717D01*
X99562565Y-50207814D01*
X99575154Y-50080000D01*
X103724846Y-50080000D01*
X103737435Y-50207814D01*
X103774717Y-50330717D01*
X103835259Y-50443984D01*
X103916736Y-50543264D01*
X104016016Y-50624741D01*
X104129283Y-50685283D01*
X104252186Y-50722565D01*
X104347978Y-50732000D01*
X104762022Y-50732000D01*
X104857814Y-50722565D01*
X104980717Y-50685283D01*
X105093984Y-50624741D01*
X105193264Y-50543264D01*
X105274741Y-50443984D01*
X105335283Y-50330717D01*
X105372565Y-50207814D01*
X105385154Y-50080000D01*
X105372565Y-49952186D01*
X105335283Y-49829283D01*
X105274741Y-49716016D01*
X105193264Y-49616736D01*
X105093984Y-49535259D01*
X104980717Y-49474717D01*
X104857814Y-49437435D01*
X104762022Y-49428000D01*
X104347978Y-49428000D01*
X104252186Y-49437435D01*
X104129283Y-49474717D01*
X104016016Y-49535259D01*
X103916736Y-49616736D01*
X103835259Y-49716016D01*
X103774717Y-49829283D01*
X103737435Y-49952186D01*
X103724846Y-50080000D01*
X99575154Y-50080000D01*
X99562565Y-49952186D01*
X99525283Y-49829283D01*
X99464741Y-49716016D01*
X99383264Y-49616736D01*
X99283984Y-49535259D01*
X99170717Y-49474717D01*
X99047814Y-49437435D01*
X98952022Y-49428000D01*
X98537978Y-49428000D01*
X98442186Y-49437435D01*
X98319283Y-49474717D01*
X98206016Y-49535259D01*
X98106736Y-49616736D01*
X98025259Y-49716016D01*
X97964717Y-49829283D01*
X97927435Y-49952186D01*
X97914846Y-50080000D01*
X94260057Y-50080000D01*
X94207340Y-50069514D01*
X94098606Y-50069514D01*
X93991961Y-50090727D01*
X93891503Y-50132338D01*
X93801093Y-50192748D01*
X93724207Y-50269634D01*
X93663797Y-50360044D01*
X93622186Y-50460502D01*
X93600973Y-50567147D01*
X93600973Y-50675881D01*
X93622186Y-50782526D01*
X93659661Y-50873000D01*
X89300000Y-50873000D01*
X89275224Y-50875440D01*
X89251399Y-50882667D01*
X89220956Y-50900596D01*
X84185411Y-54904765D01*
X84151880Y-54871234D01*
X84061470Y-54810824D01*
X83961012Y-54769213D01*
X83854367Y-54748000D01*
X83745633Y-54748000D01*
X83638988Y-54769213D01*
X83538530Y-54810824D01*
X83448120Y-54871234D01*
X83371234Y-54948120D01*
X83310824Y-55038530D01*
X83269213Y-55138988D01*
X83248000Y-55245633D01*
X83248000Y-55354367D01*
X83269213Y-55461012D01*
X83310824Y-55561470D01*
X83327732Y-55586774D01*
X81097542Y-57360178D01*
X81092852Y-57363312D01*
X81089944Y-57366220D01*
X80920956Y-57500596D01*
X80903082Y-57517927D01*
X80888933Y-57538412D01*
X80879052Y-57561263D01*
X80873819Y-57585603D01*
X80873000Y-57600000D01*
X80873000Y-62873000D01*
X78452000Y-62873000D01*
X78452000Y-62845633D01*
X78430787Y-62738988D01*
X78389176Y-62638530D01*
X78328766Y-62548120D01*
X78251880Y-62471234D01*
X78161470Y-62410824D01*
X78061012Y-62369213D01*
X77954367Y-62348000D01*
X77845633Y-62348000D01*
X77738988Y-62369213D01*
X77638530Y-62410824D01*
X77548120Y-62471234D01*
X77471234Y-62548120D01*
X77410824Y-62638530D01*
X77369213Y-62738988D01*
X77348000Y-62845633D01*
X77348000Y-62873000D01*
X76748294Y-62873000D01*
X76752000Y-62854367D01*
X76752000Y-62745633D01*
X76730787Y-62638988D01*
X76689176Y-62538530D01*
X76628766Y-62448120D01*
X76580646Y-62400000D01*
X76628766Y-62351880D01*
X76689176Y-62261470D01*
X76730787Y-62161012D01*
X76752000Y-62054367D01*
X76752000Y-61945633D01*
X76730787Y-61838988D01*
X76689176Y-61738530D01*
X76628766Y-61648120D01*
X76580646Y-61600000D01*
X76628766Y-61551880D01*
X76689176Y-61461470D01*
X76730787Y-61361012D01*
X76752000Y-61254367D01*
X76752000Y-61145633D01*
X76730787Y-61038988D01*
X76689176Y-60938530D01*
X76628766Y-60848120D01*
X76580646Y-60800000D01*
X76628766Y-60751880D01*
X76689176Y-60661470D01*
X76730787Y-60561012D01*
X76752000Y-60454367D01*
X76752000Y-60345633D01*
X76730787Y-60238988D01*
X76689176Y-60138530D01*
X76628766Y-60048120D01*
X76551880Y-59971234D01*
X76461470Y-59910824D01*
X76361012Y-59869213D01*
X76254367Y-59848000D01*
X76145633Y-59848000D01*
X76038988Y-59869213D01*
X75938530Y-59910824D01*
X75887000Y-59945255D01*
X75887000Y-55677443D01*
X76998000Y-55677443D01*
X76998000Y-56022557D01*
X77065329Y-56361039D01*
X77197398Y-56679883D01*
X77389133Y-56966835D01*
X77633165Y-57210867D01*
X77920117Y-57402602D01*
X78238961Y-57534671D01*
X78577443Y-57602000D01*
X78922557Y-57602000D01*
X79261039Y-57534671D01*
X79579883Y-57402602D01*
X79866835Y-57210867D01*
X80110867Y-56966835D01*
X80302602Y-56679883D01*
X80434671Y-56361039D01*
X80502000Y-56022557D01*
X80502000Y-55677443D01*
X80434671Y-55338961D01*
X80302602Y-55020117D01*
X80110867Y-54733165D01*
X79866835Y-54489133D01*
X79579883Y-54297398D01*
X79261039Y-54165329D01*
X78922557Y-54098000D01*
X78577443Y-54098000D01*
X78238961Y-54165329D01*
X77920117Y-54297398D01*
X77633165Y-54489133D01*
X77389133Y-54733165D01*
X77197398Y-55020117D01*
X77065329Y-55338961D01*
X76998000Y-55677443D01*
X75887000Y-55677443D01*
X75887000Y-53951960D01*
X81041673Y-53951960D01*
X81041673Y-54060694D01*
X81062886Y-54167339D01*
X81104497Y-54267797D01*
X81164907Y-54358207D01*
X81241793Y-54435093D01*
X81332203Y-54495503D01*
X81432661Y-54537114D01*
X81539306Y-54558327D01*
X81648040Y-54558327D01*
X81754685Y-54537114D01*
X81855143Y-54495503D01*
X81945553Y-54435093D01*
X82022439Y-54358207D01*
X82082849Y-54267797D01*
X82124460Y-54167339D01*
X82145673Y-54060694D01*
X82145673Y-54045673D01*
X82160694Y-54045673D01*
X82267339Y-54024460D01*
X82367797Y-53982849D01*
X82458207Y-53922439D01*
X82535093Y-53845553D01*
X82595503Y-53755143D01*
X82637114Y-53654685D01*
X82658327Y-53548040D01*
X82658327Y-53439306D01*
X82637114Y-53332661D01*
X82595503Y-53232203D01*
X82535093Y-53141793D01*
X82458207Y-53064907D01*
X82367797Y-53004497D01*
X82267339Y-52962886D01*
X82160694Y-52941673D01*
X82051960Y-52941673D01*
X81945315Y-52962886D01*
X81844857Y-53004497D01*
X81754447Y-53064907D01*
X81677561Y-53141793D01*
X81617151Y-53232203D01*
X81575540Y-53332661D01*
X81554327Y-53439306D01*
X81554327Y-53454327D01*
X81539306Y-53454327D01*
X81432661Y-53475540D01*
X81332203Y-53517151D01*
X81241793Y-53577561D01*
X81164907Y-53654447D01*
X81104497Y-53744857D01*
X81062886Y-53845315D01*
X81041673Y-53951960D01*
X75887000Y-53951960D01*
X75887000Y-50080000D01*
X76724846Y-50080000D01*
X76737435Y-50207814D01*
X76774717Y-50330717D01*
X76835259Y-50443984D01*
X76916736Y-50543264D01*
X77016016Y-50624741D01*
X77129283Y-50685283D01*
X77252186Y-50722565D01*
X77347978Y-50732000D01*
X77762022Y-50732000D01*
X77857814Y-50722565D01*
X77980717Y-50685283D01*
X78093984Y-50624741D01*
X78193264Y-50543264D01*
X78274741Y-50443984D01*
X78280542Y-50433131D01*
X80485500Y-50433131D01*
X80485500Y-50541865D01*
X80506713Y-50648510D01*
X80548324Y-50748968D01*
X80608734Y-50839378D01*
X80685620Y-50916264D01*
X80776030Y-50976674D01*
X80876488Y-51018285D01*
X80983133Y-51039498D01*
X81091867Y-51039498D01*
X81198512Y-51018285D01*
X81298970Y-50976674D01*
X81389380Y-50916264D01*
X81400000Y-50905644D01*
X81410620Y-50916264D01*
X81501030Y-50976674D01*
X81601488Y-51018285D01*
X81708133Y-51039498D01*
X81816867Y-51039498D01*
X81923512Y-51018285D01*
X82023970Y-50976674D01*
X82114380Y-50916264D01*
X82191266Y-50839378D01*
X82251676Y-50748968D01*
X82293287Y-50648510D01*
X82314500Y-50541865D01*
X82314500Y-50433131D01*
X82293287Y-50326486D01*
X82251676Y-50226028D01*
X82191266Y-50135618D01*
X82135648Y-50080000D01*
X84414846Y-50080000D01*
X84427435Y-50207814D01*
X84464717Y-50330717D01*
X84525259Y-50443984D01*
X84606736Y-50543264D01*
X84706016Y-50624741D01*
X84819283Y-50685283D01*
X84942186Y-50722565D01*
X85037978Y-50732000D01*
X85452022Y-50732000D01*
X85547814Y-50722565D01*
X85670717Y-50685283D01*
X85783984Y-50624741D01*
X85883264Y-50543264D01*
X85964741Y-50443984D01*
X86025283Y-50330717D01*
X86062565Y-50207814D01*
X86075154Y-50080000D01*
X90224846Y-50080000D01*
X90237435Y-50207814D01*
X90274717Y-50330717D01*
X90335259Y-50443984D01*
X90416736Y-50543264D01*
X90516016Y-50624741D01*
X90629283Y-50685283D01*
X90752186Y-50722565D01*
X90847978Y-50732000D01*
X91262022Y-50732000D01*
X91357814Y-50722565D01*
X91480717Y-50685283D01*
X91593984Y-50624741D01*
X91693264Y-50543264D01*
X91774741Y-50443984D01*
X91835283Y-50330717D01*
X91872565Y-50207814D01*
X91885154Y-50080000D01*
X91872565Y-49952186D01*
X91835283Y-49829283D01*
X91774741Y-49716016D01*
X91693264Y-49616736D01*
X91593984Y-49535259D01*
X91480717Y-49474717D01*
X91357814Y-49437435D01*
X91262022Y-49428000D01*
X90847978Y-49428000D01*
X90752186Y-49437435D01*
X90629283Y-49474717D01*
X90516016Y-49535259D01*
X90416736Y-49616736D01*
X90335259Y-49716016D01*
X90274717Y-49829283D01*
X90237435Y-49952186D01*
X90224846Y-50080000D01*
X86075154Y-50080000D01*
X86062565Y-49952186D01*
X86025283Y-49829283D01*
X85964741Y-49716016D01*
X85883264Y-49616736D01*
X85783984Y-49535259D01*
X85670717Y-49474717D01*
X85547814Y-49437435D01*
X85452022Y-49428000D01*
X85037978Y-49428000D01*
X84942186Y-49437435D01*
X84819283Y-49474717D01*
X84706016Y-49535259D01*
X84606736Y-49616736D01*
X84525259Y-49716016D01*
X84464717Y-49829283D01*
X84427435Y-49952186D01*
X84414846Y-50080000D01*
X82135648Y-50080000D01*
X82114380Y-50058732D01*
X82023970Y-49998322D01*
X81923512Y-49956711D01*
X81816867Y-49935498D01*
X81708133Y-49935498D01*
X81601488Y-49956711D01*
X81501030Y-49998322D01*
X81410620Y-50058732D01*
X81400000Y-50069352D01*
X81389380Y-50058732D01*
X81298970Y-49998322D01*
X81198512Y-49956711D01*
X81091867Y-49935498D01*
X80983133Y-49935498D01*
X80876488Y-49956711D01*
X80776030Y-49998322D01*
X80685620Y-50058732D01*
X80608734Y-50135618D01*
X80548324Y-50226028D01*
X80506713Y-50326486D01*
X80485500Y-50433131D01*
X78280542Y-50433131D01*
X78335283Y-50330717D01*
X78372565Y-50207814D01*
X78385154Y-50080000D01*
X78372565Y-49952186D01*
X78335283Y-49829283D01*
X78274741Y-49716016D01*
X78193264Y-49616736D01*
X78093984Y-49535259D01*
X77980717Y-49474717D01*
X77857814Y-49437435D01*
X77762022Y-49428000D01*
X77347978Y-49428000D01*
X77252186Y-49437435D01*
X77129283Y-49474717D01*
X77016016Y-49535259D01*
X76916736Y-49616736D01*
X76835259Y-49716016D01*
X76774717Y-49829283D01*
X76737435Y-49952186D01*
X76724846Y-50080000D01*
X75887000Y-50080000D01*
X75887000Y-46943062D01*
X76428000Y-46943062D01*
X76428000Y-47616937D01*
X76438881Y-47727417D01*
X76481882Y-47869169D01*
X76551710Y-47999809D01*
X76645683Y-48114317D01*
X76760190Y-48208290D01*
X76890830Y-48278118D01*
X77032582Y-48321119D01*
X77108144Y-48328561D01*
X77081350Y-48416888D01*
X77070209Y-48530000D01*
X77081350Y-48643112D01*
X77114343Y-48751876D01*
X77167921Y-48852115D01*
X77240026Y-48939974D01*
X77327885Y-49012079D01*
X77428124Y-49065657D01*
X77536888Y-49098650D01*
X77621664Y-49107000D01*
X77978336Y-49107000D01*
X78063112Y-49098650D01*
X78171876Y-49065657D01*
X78272115Y-49012079D01*
X78359974Y-48939974D01*
X78432079Y-48852115D01*
X78485657Y-48751876D01*
X78518650Y-48643112D01*
X78529791Y-48530000D01*
X78522190Y-48452827D01*
X78543170Y-48457000D01*
X78656830Y-48457000D01*
X78768305Y-48434826D01*
X78873312Y-48391331D01*
X78967816Y-48328185D01*
X79048185Y-48247816D01*
X79111331Y-48153312D01*
X79154826Y-48048305D01*
X79177000Y-47936830D01*
X79177000Y-47823170D01*
X79159765Y-47736525D01*
X79168305Y-47734826D01*
X79273312Y-47691331D01*
X79367816Y-47628185D01*
X79400000Y-47596001D01*
X79432184Y-47628185D01*
X79526688Y-47691331D01*
X79631695Y-47734826D01*
X79640235Y-47736525D01*
X79623000Y-47823170D01*
X79623000Y-47936830D01*
X79645174Y-48048305D01*
X79688669Y-48153312D01*
X79751815Y-48247816D01*
X79832184Y-48328185D01*
X79926688Y-48391331D01*
X80031695Y-48434826D01*
X80143170Y-48457000D01*
X80256830Y-48457000D01*
X80368305Y-48434826D01*
X80473312Y-48391331D01*
X80567816Y-48328185D01*
X80600000Y-48296001D01*
X80632184Y-48328185D01*
X80726688Y-48391331D01*
X80831695Y-48434826D01*
X80943170Y-48457000D01*
X81056830Y-48457000D01*
X81168305Y-48434826D01*
X81273312Y-48391331D01*
X81367816Y-48328185D01*
X81400000Y-48296001D01*
X81432184Y-48328185D01*
X81526688Y-48391331D01*
X81631695Y-48434826D01*
X81743170Y-48457000D01*
X81856830Y-48457000D01*
X81968305Y-48434826D01*
X82073312Y-48391331D01*
X82167816Y-48328185D01*
X82200000Y-48296001D01*
X82232184Y-48328185D01*
X82326688Y-48391331D01*
X82431695Y-48434826D01*
X82543170Y-48457000D01*
X82656830Y-48457000D01*
X82768305Y-48434826D01*
X82873312Y-48391331D01*
X82967816Y-48328185D01*
X83048185Y-48247816D01*
X83111331Y-48153312D01*
X83154826Y-48048305D01*
X83177000Y-47936830D01*
X83177000Y-47823170D01*
X83159765Y-47736525D01*
X83168305Y-47734826D01*
X83273312Y-47691331D01*
X83367816Y-47628185D01*
X83400000Y-47596001D01*
X83432184Y-47628185D01*
X83526688Y-47691331D01*
X83631695Y-47734826D01*
X83640235Y-47736525D01*
X83623000Y-47823170D01*
X83623000Y-47936830D01*
X83645174Y-48048305D01*
X83688669Y-48153312D01*
X83751815Y-48247816D01*
X83832184Y-48328185D01*
X83926688Y-48391331D01*
X84031695Y-48434826D01*
X84143170Y-48457000D01*
X84256830Y-48457000D01*
X84368305Y-48434826D01*
X84436223Y-48406694D01*
X84423000Y-48473170D01*
X84423000Y-48586830D01*
X84445174Y-48698305D01*
X84488669Y-48803312D01*
X84551815Y-48897816D01*
X84632184Y-48978185D01*
X84726688Y-49041331D01*
X84831695Y-49084826D01*
X84943170Y-49107000D01*
X85056830Y-49107000D01*
X85168305Y-49084826D01*
X85273312Y-49041331D01*
X85367816Y-48978185D01*
X85448185Y-48897816D01*
X85511331Y-48803312D01*
X85554826Y-48698305D01*
X85577000Y-48586830D01*
X85577000Y-48473170D01*
X85554826Y-48361695D01*
X85540802Y-48327838D01*
X85620000Y-48335638D01*
X85767417Y-48321119D01*
X85909169Y-48278118D01*
X86039809Y-48208290D01*
X86154317Y-48114317D01*
X86248290Y-47999810D01*
X86318118Y-47869170D01*
X86361119Y-47727418D01*
X86372000Y-47616938D01*
X86372000Y-46943062D01*
X89928000Y-46943062D01*
X89928000Y-47616937D01*
X89938881Y-47727417D01*
X89981882Y-47869169D01*
X90051710Y-47999809D01*
X90145683Y-48114317D01*
X90260190Y-48208290D01*
X90390830Y-48278118D01*
X90532582Y-48321119D01*
X90608144Y-48328561D01*
X90581350Y-48416888D01*
X90570209Y-48530000D01*
X90581350Y-48643112D01*
X90614343Y-48751876D01*
X90667921Y-48852115D01*
X90740026Y-48939974D01*
X90827885Y-49012079D01*
X90928124Y-49065657D01*
X91036888Y-49098650D01*
X91121664Y-49107000D01*
X91478336Y-49107000D01*
X91563112Y-49098650D01*
X91671876Y-49065657D01*
X91772115Y-49012079D01*
X91859974Y-48939974D01*
X91932079Y-48852115D01*
X91985657Y-48751876D01*
X92018650Y-48643112D01*
X92029791Y-48530000D01*
X92022190Y-48452827D01*
X92043170Y-48457000D01*
X92156830Y-48457000D01*
X92268305Y-48434826D01*
X92373312Y-48391331D01*
X92467816Y-48328185D01*
X92548185Y-48247816D01*
X92611331Y-48153312D01*
X92654826Y-48048305D01*
X92677000Y-47936830D01*
X92677000Y-47823170D01*
X92659765Y-47736525D01*
X92668305Y-47734826D01*
X92773312Y-47691331D01*
X92867816Y-47628185D01*
X92900000Y-47596001D01*
X92932184Y-47628185D01*
X93026688Y-47691331D01*
X93131695Y-47734826D01*
X93243170Y-47757000D01*
X93356830Y-47757000D01*
X93468305Y-47734826D01*
X93573312Y-47691331D01*
X93667816Y-47628185D01*
X93700000Y-47596001D01*
X93732184Y-47628185D01*
X93826688Y-47691331D01*
X93931695Y-47734826D01*
X93940235Y-47736525D01*
X93923000Y-47823170D01*
X93923000Y-47936830D01*
X93945174Y-48048305D01*
X93988669Y-48153312D01*
X94051815Y-48247816D01*
X94132184Y-48328185D01*
X94226688Y-48391331D01*
X94331695Y-48434826D01*
X94443170Y-48457000D01*
X94556830Y-48457000D01*
X94668305Y-48434826D01*
X94773312Y-48391331D01*
X94867816Y-48328185D01*
X94900000Y-48296001D01*
X94932184Y-48328185D01*
X95026688Y-48391331D01*
X95131695Y-48434826D01*
X95243170Y-48457000D01*
X95356830Y-48457000D01*
X95468305Y-48434826D01*
X95573312Y-48391331D01*
X95667816Y-48328185D01*
X95748185Y-48247816D01*
X95811331Y-48153312D01*
X95854826Y-48048305D01*
X95877000Y-47936830D01*
X95877000Y-47823170D01*
X95859765Y-47736525D01*
X95868305Y-47734826D01*
X95973312Y-47691331D01*
X96067816Y-47628185D01*
X96100000Y-47596001D01*
X96132184Y-47628185D01*
X96226688Y-47691331D01*
X96331695Y-47734826D01*
X96443170Y-47757000D01*
X96556830Y-47757000D01*
X96668305Y-47734826D01*
X96773312Y-47691331D01*
X96867816Y-47628185D01*
X96900000Y-47596001D01*
X96932184Y-47628185D01*
X97026688Y-47691331D01*
X97131695Y-47734826D01*
X97140235Y-47736525D01*
X97123000Y-47823170D01*
X97123000Y-47936830D01*
X97145174Y-48048305D01*
X97188669Y-48153312D01*
X97251815Y-48247816D01*
X97332184Y-48328185D01*
X97426688Y-48391331D01*
X97531695Y-48434826D01*
X97643170Y-48457000D01*
X97756830Y-48457000D01*
X97868305Y-48434826D01*
X97936223Y-48406694D01*
X97923000Y-48473170D01*
X97923000Y-48586830D01*
X97945174Y-48698305D01*
X97988669Y-48803312D01*
X98051815Y-48897816D01*
X98132184Y-48978185D01*
X98226688Y-49041331D01*
X98331695Y-49084826D01*
X98443170Y-49107000D01*
X98556830Y-49107000D01*
X98668305Y-49084826D01*
X98773312Y-49041331D01*
X98867816Y-48978185D01*
X98948185Y-48897816D01*
X99011331Y-48803312D01*
X99054826Y-48698305D01*
X99077000Y-48586830D01*
X99077000Y-48473170D01*
X99054826Y-48361695D01*
X99040802Y-48327838D01*
X99120000Y-48335638D01*
X99267417Y-48321119D01*
X99409169Y-48278118D01*
X99539809Y-48208290D01*
X99654317Y-48114317D01*
X99748290Y-47999810D01*
X99818118Y-47869170D01*
X99840425Y-47795633D01*
X100498000Y-47795633D01*
X100498000Y-47904367D01*
X100519213Y-48011012D01*
X100560824Y-48111470D01*
X100621234Y-48201880D01*
X100698120Y-48278766D01*
X100788530Y-48339176D01*
X100888988Y-48380787D01*
X100995633Y-48402000D01*
X101104367Y-48402000D01*
X101211012Y-48380787D01*
X101311470Y-48339176D01*
X101401880Y-48278766D01*
X101478766Y-48201880D01*
X101539176Y-48111470D01*
X101580787Y-48011012D01*
X101602000Y-47904367D01*
X101602000Y-47795633D01*
X101580787Y-47688988D01*
X101539176Y-47588530D01*
X101478766Y-47498120D01*
X101401880Y-47421234D01*
X101311470Y-47360824D01*
X101211012Y-47319213D01*
X101104367Y-47298000D01*
X100995633Y-47298000D01*
X100888988Y-47319213D01*
X100788530Y-47360824D01*
X100698120Y-47421234D01*
X100621234Y-47498120D01*
X100560824Y-47588530D01*
X100519213Y-47688988D01*
X100498000Y-47795633D01*
X99840425Y-47795633D01*
X99861119Y-47727418D01*
X99872000Y-47616938D01*
X99872000Y-46943062D01*
X103428000Y-46943062D01*
X103428000Y-47616937D01*
X103438881Y-47727417D01*
X103481882Y-47869169D01*
X103551710Y-47999809D01*
X103645683Y-48114317D01*
X103760190Y-48208290D01*
X103890830Y-48278118D01*
X104032582Y-48321119D01*
X104108144Y-48328561D01*
X104081350Y-48416888D01*
X104070209Y-48530000D01*
X104081350Y-48643112D01*
X104114343Y-48751876D01*
X104167921Y-48852115D01*
X104240026Y-48939974D01*
X104327885Y-49012079D01*
X104428124Y-49065657D01*
X104536888Y-49098650D01*
X104621664Y-49107000D01*
X104978336Y-49107000D01*
X105063112Y-49098650D01*
X105171876Y-49065657D01*
X105272115Y-49012079D01*
X105359974Y-48939974D01*
X105432079Y-48852115D01*
X105485657Y-48751876D01*
X105518650Y-48643112D01*
X105529791Y-48530000D01*
X105522190Y-48452827D01*
X105543170Y-48457000D01*
X105656830Y-48457000D01*
X105768305Y-48434826D01*
X105873312Y-48391331D01*
X105967816Y-48328185D01*
X106048185Y-48247816D01*
X106111331Y-48153312D01*
X106154826Y-48048305D01*
X106177000Y-47936830D01*
X106177000Y-47823170D01*
X106159765Y-47736525D01*
X106168305Y-47734826D01*
X106273312Y-47691331D01*
X106367816Y-47628185D01*
X106400000Y-47596001D01*
X106432184Y-47628185D01*
X106526688Y-47691331D01*
X106631695Y-47734826D01*
X106743170Y-47757000D01*
X106856830Y-47757000D01*
X106968305Y-47734826D01*
X107073312Y-47691331D01*
X107167816Y-47628185D01*
X107200000Y-47596001D01*
X107232184Y-47628185D01*
X107326688Y-47691331D01*
X107431695Y-47734826D01*
X107440235Y-47736525D01*
X107423000Y-47823170D01*
X107423000Y-47936830D01*
X107445174Y-48048305D01*
X107488669Y-48153312D01*
X107551815Y-48247816D01*
X107632184Y-48328185D01*
X107726688Y-48391331D01*
X107831695Y-48434826D01*
X107943170Y-48457000D01*
X108056830Y-48457000D01*
X108168305Y-48434826D01*
X108273312Y-48391331D01*
X108367816Y-48328185D01*
X108400000Y-48296001D01*
X108432184Y-48328185D01*
X108526688Y-48391331D01*
X108631695Y-48434826D01*
X108743170Y-48457000D01*
X108856830Y-48457000D01*
X108968305Y-48434826D01*
X109073312Y-48391331D01*
X109167816Y-48328185D01*
X109248185Y-48247816D01*
X109311331Y-48153312D01*
X109354826Y-48048305D01*
X109377000Y-47936830D01*
X109377000Y-47823170D01*
X109359765Y-47736525D01*
X109368305Y-47734826D01*
X109473312Y-47691331D01*
X109567816Y-47628185D01*
X109600000Y-47596001D01*
X109632184Y-47628185D01*
X109726688Y-47691331D01*
X109831695Y-47734826D01*
X109943170Y-47757000D01*
X110056830Y-47757000D01*
X110168305Y-47734826D01*
X110273312Y-47691331D01*
X110367816Y-47628185D01*
X110400000Y-47596001D01*
X110432184Y-47628185D01*
X110526688Y-47691331D01*
X110631695Y-47734826D01*
X110640235Y-47736525D01*
X110623000Y-47823170D01*
X110623000Y-47936830D01*
X110645174Y-48048305D01*
X110688669Y-48153312D01*
X110751815Y-48247816D01*
X110832184Y-48328185D01*
X110926688Y-48391331D01*
X111031695Y-48434826D01*
X111143170Y-48457000D01*
X111256830Y-48457000D01*
X111368305Y-48434826D01*
X111436223Y-48406694D01*
X111423000Y-48473170D01*
X111423000Y-48586830D01*
X111445174Y-48698305D01*
X111488669Y-48803312D01*
X111551815Y-48897816D01*
X111632184Y-48978185D01*
X111726688Y-49041331D01*
X111831695Y-49084826D01*
X111943170Y-49107000D01*
X112056830Y-49107000D01*
X112168305Y-49084826D01*
X112273312Y-49041331D01*
X112367816Y-48978185D01*
X112448185Y-48897816D01*
X112511331Y-48803312D01*
X112554826Y-48698305D01*
X112577000Y-48586830D01*
X112577000Y-48473170D01*
X112554826Y-48361695D01*
X112540802Y-48327838D01*
X112620000Y-48335638D01*
X112767417Y-48321119D01*
X112909169Y-48278118D01*
X113039809Y-48208290D01*
X113154317Y-48114317D01*
X113248290Y-47999810D01*
X113318118Y-47869170D01*
X113361119Y-47727418D01*
X113372000Y-47616938D01*
X113372000Y-46943062D01*
X113361119Y-46832582D01*
X113318118Y-46690830D01*
X113248290Y-46560190D01*
X113154317Y-46445683D01*
X113039810Y-46351710D01*
X112909170Y-46281882D01*
X112767418Y-46238881D01*
X112620000Y-46224362D01*
X112472583Y-46238881D01*
X112330831Y-46281882D01*
X112200191Y-46351710D01*
X112085684Y-46445683D01*
X111991711Y-46560190D01*
X111921882Y-46690830D01*
X111878881Y-46832582D01*
X111868000Y-46943062D01*
X111868000Y-47616937D01*
X111878881Y-47727417D01*
X111921882Y-47869169D01*
X111966690Y-47953000D01*
X111943170Y-47953000D01*
X111831695Y-47975174D01*
X111763777Y-48003306D01*
X111777000Y-47936830D01*
X111777000Y-47823170D01*
X111754826Y-47711695D01*
X111711331Y-47606688D01*
X111648185Y-47512184D01*
X111567816Y-47431815D01*
X111473312Y-47368669D01*
X111368305Y-47325174D01*
X111359765Y-47323475D01*
X111377000Y-47236830D01*
X111377000Y-47123170D01*
X111354826Y-47011695D01*
X111311331Y-46906688D01*
X111248185Y-46812184D01*
X111167816Y-46731815D01*
X111073312Y-46668669D01*
X110968305Y-46625174D01*
X110856830Y-46603000D01*
X110743170Y-46603000D01*
X110631695Y-46625174D01*
X110526688Y-46668669D01*
X110432184Y-46731815D01*
X110400000Y-46763999D01*
X110367816Y-46731815D01*
X110273312Y-46668669D01*
X110168305Y-46625174D01*
X110056830Y-46603000D01*
X109943170Y-46603000D01*
X109831695Y-46625174D01*
X109726688Y-46668669D01*
X109632184Y-46731815D01*
X109600000Y-46763999D01*
X109567816Y-46731815D01*
X109473312Y-46668669D01*
X109368305Y-46625174D01*
X109256830Y-46603000D01*
X109143170Y-46603000D01*
X109031695Y-46625174D01*
X108926688Y-46668669D01*
X108832184Y-46731815D01*
X108751815Y-46812184D01*
X108688669Y-46906688D01*
X108645174Y-47011695D01*
X108623000Y-47123170D01*
X108623000Y-47236830D01*
X108640235Y-47323475D01*
X108631695Y-47325174D01*
X108526688Y-47368669D01*
X108432184Y-47431815D01*
X108400000Y-47463999D01*
X108367816Y-47431815D01*
X108273312Y-47368669D01*
X108168305Y-47325174D01*
X108159765Y-47323475D01*
X108177000Y-47236830D01*
X108177000Y-47123170D01*
X108154826Y-47011695D01*
X108111331Y-46906688D01*
X108048185Y-46812184D01*
X107967816Y-46731815D01*
X107873312Y-46668669D01*
X107768305Y-46625174D01*
X107656830Y-46603000D01*
X107543170Y-46603000D01*
X107431695Y-46625174D01*
X107326688Y-46668669D01*
X107232184Y-46731815D01*
X107200000Y-46763999D01*
X107167816Y-46731815D01*
X107073312Y-46668669D01*
X106968305Y-46625174D01*
X106856830Y-46603000D01*
X106743170Y-46603000D01*
X106631695Y-46625174D01*
X106526688Y-46668669D01*
X106432184Y-46731815D01*
X106400000Y-46763999D01*
X106367816Y-46731815D01*
X106273312Y-46668669D01*
X106168305Y-46625174D01*
X106056830Y-46603000D01*
X105943170Y-46603000D01*
X105831695Y-46625174D01*
X105726688Y-46668669D01*
X105632184Y-46731815D01*
X105551815Y-46812184D01*
X105488669Y-46906688D01*
X105445174Y-47011695D01*
X105423000Y-47123170D01*
X105423000Y-47236830D01*
X105440235Y-47323475D01*
X105431695Y-47325174D01*
X105326688Y-47368669D01*
X105232184Y-47431815D01*
X105151815Y-47512184D01*
X105088669Y-47606688D01*
X105045174Y-47711695D01*
X105023000Y-47823170D01*
X105023000Y-47936830D01*
X105027173Y-47957810D01*
X104978336Y-47953000D01*
X104833310Y-47953000D01*
X104878118Y-47869170D01*
X104921119Y-47727418D01*
X104932000Y-47616938D01*
X104932000Y-46943062D01*
X104921119Y-46832582D01*
X104878118Y-46690830D01*
X104808290Y-46560190D01*
X104714317Y-46445683D01*
X104599810Y-46351710D01*
X104469170Y-46281882D01*
X104327418Y-46238881D01*
X104180000Y-46224362D01*
X104032583Y-46238881D01*
X103890831Y-46281882D01*
X103760191Y-46351710D01*
X103645684Y-46445683D01*
X103551711Y-46560190D01*
X103481882Y-46690830D01*
X103438881Y-46832582D01*
X103428000Y-46943062D01*
X99872000Y-46943062D01*
X99861119Y-46832582D01*
X99818118Y-46690830D01*
X99748290Y-46560190D01*
X99654317Y-46445683D01*
X99539810Y-46351710D01*
X99409170Y-46281882D01*
X99267418Y-46238881D01*
X99120000Y-46224362D01*
X98972583Y-46238881D01*
X98830831Y-46281882D01*
X98700191Y-46351710D01*
X98585684Y-46445683D01*
X98491711Y-46560190D01*
X98421882Y-46690830D01*
X98378881Y-46832582D01*
X98368000Y-46943062D01*
X98368000Y-47616937D01*
X98378881Y-47727417D01*
X98421882Y-47869169D01*
X98466690Y-47953000D01*
X98443170Y-47953000D01*
X98331695Y-47975174D01*
X98263777Y-48003306D01*
X98277000Y-47936830D01*
X98277000Y-47823170D01*
X98254826Y-47711695D01*
X98211331Y-47606688D01*
X98148185Y-47512184D01*
X98067816Y-47431815D01*
X97973312Y-47368669D01*
X97868305Y-47325174D01*
X97859765Y-47323475D01*
X97877000Y-47236830D01*
X97877000Y-47123170D01*
X97854826Y-47011695D01*
X97811331Y-46906688D01*
X97748185Y-46812184D01*
X97667816Y-46731815D01*
X97573312Y-46668669D01*
X97468305Y-46625174D01*
X97356830Y-46603000D01*
X97243170Y-46603000D01*
X97131695Y-46625174D01*
X97026688Y-46668669D01*
X96932184Y-46731815D01*
X96900000Y-46763999D01*
X96867816Y-46731815D01*
X96773312Y-46668669D01*
X96668305Y-46625174D01*
X96556830Y-46603000D01*
X96443170Y-46603000D01*
X96331695Y-46625174D01*
X96226688Y-46668669D01*
X96132184Y-46731815D01*
X96100000Y-46763999D01*
X96067816Y-46731815D01*
X95973312Y-46668669D01*
X95868305Y-46625174D01*
X95756830Y-46603000D01*
X95643170Y-46603000D01*
X95531695Y-46625174D01*
X95426688Y-46668669D01*
X95332184Y-46731815D01*
X95251815Y-46812184D01*
X95188669Y-46906688D01*
X95145174Y-47011695D01*
X95123000Y-47123170D01*
X95123000Y-47236830D01*
X95140235Y-47323475D01*
X95131695Y-47325174D01*
X95026688Y-47368669D01*
X94932184Y-47431815D01*
X94900000Y-47463999D01*
X94867816Y-47431815D01*
X94773312Y-47368669D01*
X94668305Y-47325174D01*
X94659765Y-47323475D01*
X94677000Y-47236830D01*
X94677000Y-47123170D01*
X94654826Y-47011695D01*
X94611331Y-46906688D01*
X94548185Y-46812184D01*
X94467816Y-46731815D01*
X94373312Y-46668669D01*
X94268305Y-46625174D01*
X94156830Y-46603000D01*
X94043170Y-46603000D01*
X93931695Y-46625174D01*
X93826688Y-46668669D01*
X93732184Y-46731815D01*
X93700000Y-46763999D01*
X93667816Y-46731815D01*
X93573312Y-46668669D01*
X93468305Y-46625174D01*
X93356830Y-46603000D01*
X93243170Y-46603000D01*
X93131695Y-46625174D01*
X93026688Y-46668669D01*
X92932184Y-46731815D01*
X92900000Y-46763999D01*
X92867816Y-46731815D01*
X92773312Y-46668669D01*
X92668305Y-46625174D01*
X92556830Y-46603000D01*
X92443170Y-46603000D01*
X92331695Y-46625174D01*
X92226688Y-46668669D01*
X92132184Y-46731815D01*
X92051815Y-46812184D01*
X91988669Y-46906688D01*
X91945174Y-47011695D01*
X91923000Y-47123170D01*
X91923000Y-47236830D01*
X91940235Y-47323475D01*
X91931695Y-47325174D01*
X91826688Y-47368669D01*
X91732184Y-47431815D01*
X91651815Y-47512184D01*
X91588669Y-47606688D01*
X91545174Y-47711695D01*
X91523000Y-47823170D01*
X91523000Y-47936830D01*
X91527173Y-47957810D01*
X91478336Y-47953000D01*
X91333310Y-47953000D01*
X91378118Y-47869170D01*
X91421119Y-47727418D01*
X91432000Y-47616938D01*
X91432000Y-46943062D01*
X91421119Y-46832582D01*
X91378118Y-46690830D01*
X91308290Y-46560190D01*
X91214317Y-46445683D01*
X91099810Y-46351710D01*
X90969170Y-46281882D01*
X90827418Y-46238881D01*
X90680000Y-46224362D01*
X90532583Y-46238881D01*
X90390831Y-46281882D01*
X90260191Y-46351710D01*
X90145684Y-46445683D01*
X90051711Y-46560190D01*
X89981882Y-46690830D01*
X89938881Y-46832582D01*
X89928000Y-46943062D01*
X86372000Y-46943062D01*
X86361119Y-46832582D01*
X86318118Y-46690830D01*
X86248290Y-46560190D01*
X86154317Y-46445683D01*
X86039810Y-46351710D01*
X85909170Y-46281882D01*
X85767418Y-46238881D01*
X85620000Y-46224362D01*
X85472583Y-46238881D01*
X85330831Y-46281882D01*
X85200191Y-46351710D01*
X85085684Y-46445683D01*
X84991711Y-46560190D01*
X84921882Y-46690830D01*
X84878881Y-46832582D01*
X84868000Y-46943062D01*
X84868000Y-47616937D01*
X84878881Y-47727417D01*
X84921882Y-47869169D01*
X84966690Y-47953000D01*
X84943170Y-47953000D01*
X84831695Y-47975174D01*
X84763777Y-48003306D01*
X84777000Y-47936830D01*
X84777000Y-47823170D01*
X84754826Y-47711695D01*
X84711331Y-47606688D01*
X84648185Y-47512184D01*
X84567816Y-47431815D01*
X84473312Y-47368669D01*
X84368305Y-47325174D01*
X84359765Y-47323475D01*
X84377000Y-47236830D01*
X84377000Y-47123170D01*
X84354826Y-47011695D01*
X84311331Y-46906688D01*
X84248185Y-46812184D01*
X84167816Y-46731815D01*
X84073312Y-46668669D01*
X83968305Y-46625174D01*
X83856830Y-46603000D01*
X83743170Y-46603000D01*
X83631695Y-46625174D01*
X83526688Y-46668669D01*
X83432184Y-46731815D01*
X83400000Y-46763999D01*
X83367816Y-46731815D01*
X83273312Y-46668669D01*
X83168305Y-46625174D01*
X83056830Y-46603000D01*
X82943170Y-46603000D01*
X82831695Y-46625174D01*
X82726688Y-46668669D01*
X82632184Y-46731815D01*
X82600000Y-46763999D01*
X82567816Y-46731815D01*
X82473312Y-46668669D01*
X82368305Y-46625174D01*
X82256830Y-46603000D01*
X82143170Y-46603000D01*
X82031695Y-46625174D01*
X81926688Y-46668669D01*
X81832184Y-46731815D01*
X81751815Y-46812184D01*
X81688669Y-46906688D01*
X81645174Y-47011695D01*
X81623000Y-47123170D01*
X81623000Y-47236830D01*
X81640235Y-47323475D01*
X81631695Y-47325174D01*
X81526688Y-47368669D01*
X81432184Y-47431815D01*
X81400000Y-47463999D01*
X81367816Y-47431815D01*
X81273312Y-47368669D01*
X81168305Y-47325174D01*
X81159765Y-47323475D01*
X81177000Y-47236830D01*
X81177000Y-47123170D01*
X81154826Y-47011695D01*
X81111331Y-46906688D01*
X81048185Y-46812184D01*
X80967816Y-46731815D01*
X80873312Y-46668669D01*
X80768305Y-46625174D01*
X80656830Y-46603000D01*
X80543170Y-46603000D01*
X80431695Y-46625174D01*
X80326688Y-46668669D01*
X80232184Y-46731815D01*
X80200000Y-46763999D01*
X80167816Y-46731815D01*
X80073312Y-46668669D01*
X79968305Y-46625174D01*
X79856830Y-46603000D01*
X79743170Y-46603000D01*
X79631695Y-46625174D01*
X79526688Y-46668669D01*
X79432184Y-46731815D01*
X79400000Y-46763999D01*
X79367816Y-46731815D01*
X79273312Y-46668669D01*
X79168305Y-46625174D01*
X79056830Y-46603000D01*
X78943170Y-46603000D01*
X78831695Y-46625174D01*
X78726688Y-46668669D01*
X78632184Y-46731815D01*
X78551815Y-46812184D01*
X78488669Y-46906688D01*
X78445174Y-47011695D01*
X78423000Y-47123170D01*
X78423000Y-47236830D01*
X78440235Y-47323475D01*
X78431695Y-47325174D01*
X78326688Y-47368669D01*
X78232184Y-47431815D01*
X78151815Y-47512184D01*
X78088669Y-47606688D01*
X78045174Y-47711695D01*
X78023000Y-47823170D01*
X78023000Y-47936830D01*
X78027173Y-47957810D01*
X77978336Y-47953000D01*
X77833310Y-47953000D01*
X77878118Y-47869170D01*
X77921119Y-47727418D01*
X77932000Y-47616938D01*
X77932000Y-46943062D01*
X77921119Y-46832582D01*
X77878118Y-46690830D01*
X77808290Y-46560190D01*
X77714317Y-46445683D01*
X77599810Y-46351710D01*
X77469170Y-46281882D01*
X77327418Y-46238881D01*
X77180000Y-46224362D01*
X77032583Y-46238881D01*
X76890831Y-46281882D01*
X76760191Y-46351710D01*
X76645684Y-46445683D01*
X76551711Y-46560190D01*
X76481882Y-46690830D01*
X76438881Y-46832582D01*
X76428000Y-46943062D01*
X75887000Y-46943062D01*
X75887000Y-45299479D01*
X76198000Y-45299479D01*
X76208158Y-45402615D01*
X76248299Y-45534942D01*
X76313485Y-45656896D01*
X76401210Y-45763789D01*
X76508103Y-45851515D01*
X76630057Y-45916701D01*
X76762384Y-45956842D01*
X76900000Y-45970396D01*
X77037615Y-45956842D01*
X77169942Y-45916701D01*
X77291896Y-45851515D01*
X77398789Y-45763790D01*
X77486515Y-45656897D01*
X77551701Y-45534943D01*
X77591842Y-45402616D01*
X77602000Y-45299480D01*
X77602000Y-45299479D01*
X85198000Y-45299479D01*
X85208158Y-45402615D01*
X85248299Y-45534942D01*
X85313485Y-45656896D01*
X85401210Y-45763789D01*
X85508103Y-45851515D01*
X85630057Y-45916701D01*
X85762384Y-45956842D01*
X85900000Y-45970396D01*
X86037615Y-45956842D01*
X86169942Y-45916701D01*
X86291896Y-45851515D01*
X86398789Y-45763790D01*
X86486515Y-45656897D01*
X86551701Y-45534943D01*
X86591842Y-45402616D01*
X86602000Y-45299480D01*
X86602000Y-45299479D01*
X89698000Y-45299479D01*
X89708158Y-45402615D01*
X89748299Y-45534942D01*
X89813485Y-45656896D01*
X89901210Y-45763789D01*
X90008103Y-45851515D01*
X90130057Y-45916701D01*
X90262384Y-45956842D01*
X90400000Y-45970396D01*
X90537615Y-45956842D01*
X90669942Y-45916701D01*
X90791896Y-45851515D01*
X90898789Y-45763790D01*
X90986515Y-45656897D01*
X91051701Y-45534943D01*
X91091842Y-45402616D01*
X91102000Y-45299480D01*
X91102000Y-45299479D01*
X98698000Y-45299479D01*
X98708158Y-45402615D01*
X98748299Y-45534942D01*
X98813485Y-45656896D01*
X98901210Y-45763789D01*
X99008103Y-45851515D01*
X99130057Y-45916701D01*
X99262384Y-45956842D01*
X99400000Y-45970396D01*
X99537615Y-45956842D01*
X99669942Y-45916701D01*
X99791896Y-45851515D01*
X99898789Y-45763790D01*
X99986515Y-45656897D01*
X100051701Y-45534943D01*
X100091842Y-45402616D01*
X100102000Y-45299480D01*
X100102000Y-45299479D01*
X103198000Y-45299479D01*
X103208158Y-45402615D01*
X103248299Y-45534942D01*
X103313485Y-45656896D01*
X103401210Y-45763789D01*
X103508103Y-45851515D01*
X103630057Y-45916701D01*
X103762384Y-45956842D01*
X103900000Y-45970396D01*
X104037615Y-45956842D01*
X104169942Y-45916701D01*
X104291896Y-45851515D01*
X104398789Y-45763790D01*
X104486515Y-45656897D01*
X104551701Y-45534943D01*
X104591842Y-45402616D01*
X104602000Y-45299480D01*
X104602000Y-45299479D01*
X112198000Y-45299479D01*
X112208158Y-45402615D01*
X112248299Y-45534942D01*
X112313485Y-45656896D01*
X112401210Y-45763789D01*
X112508103Y-45851515D01*
X112630057Y-45916701D01*
X112762384Y-45956842D01*
X112900000Y-45970396D01*
X113037615Y-45956842D01*
X113169942Y-45916701D01*
X113291896Y-45851515D01*
X113398789Y-45763790D01*
X113486515Y-45656897D01*
X113551701Y-45534943D01*
X113591842Y-45402616D01*
X113602000Y-45299480D01*
X113602000Y-44230520D01*
X113591842Y-44127384D01*
X113551701Y-43995057D01*
X113486515Y-43873103D01*
X113398790Y-43766210D01*
X113291897Y-43678485D01*
X113169943Y-43613299D01*
X113037616Y-43573158D01*
X112900000Y-43559604D01*
X112762385Y-43573158D01*
X112630058Y-43613299D01*
X112508104Y-43678485D01*
X112401211Y-43766210D01*
X112313486Y-43873103D01*
X112248300Y-43995057D01*
X112208159Y-44127384D01*
X112198001Y-44230520D01*
X112198000Y-45299479D01*
X104602000Y-45299479D01*
X104602000Y-44230520D01*
X104591842Y-44127384D01*
X104551701Y-43995057D01*
X104486515Y-43873103D01*
X104398790Y-43766210D01*
X104291897Y-43678485D01*
X104169943Y-43613299D01*
X104037616Y-43573158D01*
X103900000Y-43559604D01*
X103762385Y-43573158D01*
X103630058Y-43613299D01*
X103508104Y-43678485D01*
X103401211Y-43766210D01*
X103313486Y-43873103D01*
X103248300Y-43995057D01*
X103208159Y-44127384D01*
X103198001Y-44230520D01*
X103198000Y-45299479D01*
X100102000Y-45299479D01*
X100102000Y-44230520D01*
X100091842Y-44127384D01*
X100051701Y-43995057D01*
X99986515Y-43873103D01*
X99898790Y-43766210D01*
X99791897Y-43678485D01*
X99669943Y-43613299D01*
X99537616Y-43573158D01*
X99400000Y-43559604D01*
X99262385Y-43573158D01*
X99130058Y-43613299D01*
X99008104Y-43678485D01*
X98901211Y-43766210D01*
X98813486Y-43873103D01*
X98748300Y-43995057D01*
X98708159Y-44127384D01*
X98698001Y-44230520D01*
X98698000Y-45299479D01*
X91102000Y-45299479D01*
X91102000Y-44230520D01*
X91091842Y-44127384D01*
X91051701Y-43995057D01*
X90986515Y-43873103D01*
X90898790Y-43766210D01*
X90791897Y-43678485D01*
X90669943Y-43613299D01*
X90537616Y-43573158D01*
X90400000Y-43559604D01*
X90262385Y-43573158D01*
X90130058Y-43613299D01*
X90008104Y-43678485D01*
X89901211Y-43766210D01*
X89813486Y-43873103D01*
X89748300Y-43995057D01*
X89708159Y-44127384D01*
X89698001Y-44230520D01*
X89698000Y-45299479D01*
X86602000Y-45299479D01*
X86602000Y-44230520D01*
X86591842Y-44127384D01*
X86551701Y-43995057D01*
X86486515Y-43873103D01*
X86398790Y-43766210D01*
X86291897Y-43678485D01*
X86169943Y-43613299D01*
X86037616Y-43573158D01*
X85900000Y-43559604D01*
X85762385Y-43573158D01*
X85630058Y-43613299D01*
X85508104Y-43678485D01*
X85401211Y-43766210D01*
X85313486Y-43873103D01*
X85248300Y-43995057D01*
X85208159Y-44127384D01*
X85198001Y-44230520D01*
X85198000Y-45299479D01*
X77602000Y-45299479D01*
X77602000Y-44230520D01*
X77591842Y-44127384D01*
X77551701Y-43995057D01*
X77486515Y-43873103D01*
X77398790Y-43766210D01*
X77291897Y-43678485D01*
X77169943Y-43613299D01*
X77037616Y-43573158D01*
X76900000Y-43559604D01*
X76762385Y-43573158D01*
X76630058Y-43613299D01*
X76508104Y-43678485D01*
X76401211Y-43766210D01*
X76313486Y-43873103D01*
X76248300Y-43995057D01*
X76208159Y-44127384D01*
X76198001Y-44230520D01*
X76198000Y-45299479D01*
X75887000Y-45299479D01*
X75887000Y-42687000D01*
X114574666Y-42687000D01*
X114601300Y-47268054D01*
G37*
%TD.AperFunction*%
%TD*%
M02*
