%TF.GenerationSoftware,KiCad,Pcbnew,5.1.9+dfsg1-1*%
%TF.CreationDate,2022-02-21T14:57:17+01:00*%
%TF.ProjectId,sc606-baseboard,73633630-362d-4626-9173-65626f617264,rev?*%
%TF.SameCoordinates,Original*%
%TF.FileFunction,Paste,Bot*%
%TF.FilePolarity,Positive*%
%FSLAX46Y46*%
G04 Gerber Fmt 4.6, Leading zero omitted, Abs format (unit mm)*
G04 Created by KiCad (PCBNEW 5.1.9+dfsg1-1) date 2022-02-21 14:57:17 commit 2b5f92f*
%MOMM*%
%LPD*%
G01*
G04 APERTURE LIST*
%TA.AperFunction,Profile*%
%ADD10C,0.120000*%
%TD*%
%TA.AperFunction,Profile*%
%ADD11C,0.254000*%
%TD*%
%ADD12C,0.100000*%
%ADD13R,2.000000X0.600000*%
%ADD14R,0.800000X0.600000*%
%ADD15R,0.475000X0.200000*%
%ADD16R,1.600200X2.108200*%
%ADD17R,1.092200X0.304800*%
%ADD18R,1.300000X1.100000*%
%ADD19R,3.000000X2.500000*%
%ADD20R,2.700000X3.000000*%
%ADD21R,0.300000X1.200000*%
%ADD22R,0.405000X0.990000*%
%ADD23R,0.950000X0.950000*%
%ADD24R,0.250000X0.700000*%
%ADD25R,0.700000X0.250000*%
%ADD26R,0.600000X0.800000*%
%ADD27R,0.550000X1.000000*%
%ADD28R,0.200000X0.475000*%
%ADD29R,1.200000X1.200000*%
%ADD30R,0.750000X1.800000*%
%ADD31R,0.400000X0.300000*%
%ADD32R,2.800000X0.300000*%
%ADD33R,0.200000X0.450000*%
%ADD34R,1.000000X0.550000*%
%ADD35R,0.310000X0.420000*%
%ADD36R,0.310000X0.430000*%
%ADD37R,0.700000X1.200000*%
%ADD38R,0.230000X0.300000*%
%ADD39R,1.060000X1.020000*%
%ADD40R,0.300000X0.230000*%
%ADD41R,1.020000X1.060000*%
%ADD42R,3.400000X0.980000*%
%ADD43R,1.350000X2.000000*%
%ADD44R,1.000000X1.200000*%
%ADD45R,1.000000X0.800000*%
%ADD46R,1.000000X2.800000*%
%ADD47R,1.300000X1.900000*%
G04 APERTURE END LIST*
D10*
X175600000Y-42400000D02*
X75600000Y-42400000D01*
D11*
X175600000Y-42400000D02*
X175600000Y-122400000D01*
D10*
X75600000Y-122400000D02*
X75600000Y-42400000D01*
D11*
X175600000Y-122400000D02*
X75600000Y-122400000D01*
D12*
%TO.C,J3*%
G36*
X172249760Y-69808280D02*
G01*
X170293960Y-69808280D01*
X170293960Y-71103680D01*
X172249760Y-71103680D01*
X172249760Y-69808280D01*
G37*
X172249760Y-69808280D02*
X170293960Y-69808280D01*
X170293960Y-71103680D01*
X172249760Y-71103680D01*
X172249760Y-69808280D01*
G36*
X172249760Y-94791720D02*
G01*
X170293960Y-94791720D01*
X170293960Y-93496320D01*
X172249760Y-93496320D01*
X172249760Y-94791720D01*
G37*
X172249760Y-94791720D02*
X170293960Y-94791720D01*
X170293960Y-93496320D01*
X172249760Y-93496320D01*
X172249760Y-94791720D01*
%TD*%
%TO.C,R160*%
G36*
G01*
X161727500Y-53240000D02*
X162072500Y-53240000D01*
G75*
G02*
X162220000Y-53387500I0J-147500D01*
G01*
X162220000Y-53682500D01*
G75*
G02*
X162072500Y-53830000I-147500J0D01*
G01*
X161727500Y-53830000D01*
G75*
G02*
X161580000Y-53682500I0J147500D01*
G01*
X161580000Y-53387500D01*
G75*
G02*
X161727500Y-53240000I147500J0D01*
G01*
G37*
G36*
G01*
X161727500Y-52270000D02*
X162072500Y-52270000D01*
G75*
G02*
X162220000Y-52417500I0J-147500D01*
G01*
X162220000Y-52712500D01*
G75*
G02*
X162072500Y-52860000I-147500J0D01*
G01*
X161727500Y-52860000D01*
G75*
G02*
X161580000Y-52712500I0J147500D01*
G01*
X161580000Y-52417500D01*
G75*
G02*
X161727500Y-52270000I147500J0D01*
G01*
G37*
%TD*%
%TO.C,R159*%
G36*
G01*
X160677500Y-53240000D02*
X161022500Y-53240000D01*
G75*
G02*
X161170000Y-53387500I0J-147500D01*
G01*
X161170000Y-53682500D01*
G75*
G02*
X161022500Y-53830000I-147500J0D01*
G01*
X160677500Y-53830000D01*
G75*
G02*
X160530000Y-53682500I0J147500D01*
G01*
X160530000Y-53387500D01*
G75*
G02*
X160677500Y-53240000I147500J0D01*
G01*
G37*
G36*
G01*
X160677500Y-52270000D02*
X161022500Y-52270000D01*
G75*
G02*
X161170000Y-52417500I0J-147500D01*
G01*
X161170000Y-52712500D01*
G75*
G02*
X161022500Y-52860000I-147500J0D01*
G01*
X160677500Y-52860000D01*
G75*
G02*
X160530000Y-52712500I0J147500D01*
G01*
X160530000Y-52417500D01*
G75*
G02*
X160677500Y-52270000I147500J0D01*
G01*
G37*
%TD*%
%TO.C,R158*%
G36*
G01*
X163122500Y-52860000D02*
X162777500Y-52860000D01*
G75*
G02*
X162630000Y-52712500I0J147500D01*
G01*
X162630000Y-52417500D01*
G75*
G02*
X162777500Y-52270000I147500J0D01*
G01*
X163122500Y-52270000D01*
G75*
G02*
X163270000Y-52417500I0J-147500D01*
G01*
X163270000Y-52712500D01*
G75*
G02*
X163122500Y-52860000I-147500J0D01*
G01*
G37*
G36*
G01*
X163122500Y-53830000D02*
X162777500Y-53830000D01*
G75*
G02*
X162630000Y-53682500I0J147500D01*
G01*
X162630000Y-53387500D01*
G75*
G02*
X162777500Y-53240000I147500J0D01*
G01*
X163122500Y-53240000D01*
G75*
G02*
X163270000Y-53387500I0J-147500D01*
G01*
X163270000Y-53682500D01*
G75*
G02*
X163122500Y-53830000I-147500J0D01*
G01*
G37*
%TD*%
%TO.C,R191*%
G36*
G01*
X164927500Y-52590000D02*
X165272500Y-52590000D01*
G75*
G02*
X165420000Y-52737500I0J-147500D01*
G01*
X165420000Y-53032500D01*
G75*
G02*
X165272500Y-53180000I-147500J0D01*
G01*
X164927500Y-53180000D01*
G75*
G02*
X164780000Y-53032500I0J147500D01*
G01*
X164780000Y-52737500D01*
G75*
G02*
X164927500Y-52590000I147500J0D01*
G01*
G37*
G36*
G01*
X164927500Y-51620000D02*
X165272500Y-51620000D01*
G75*
G02*
X165420000Y-51767500I0J-147500D01*
G01*
X165420000Y-52062500D01*
G75*
G02*
X165272500Y-52210000I-147500J0D01*
G01*
X164927500Y-52210000D01*
G75*
G02*
X164780000Y-52062500I0J147500D01*
G01*
X164780000Y-51767500D01*
G75*
G02*
X164927500Y-51620000I147500J0D01*
G01*
G37*
%TD*%
%TO.C,R190*%
G36*
G01*
X163927500Y-52590000D02*
X164272500Y-52590000D01*
G75*
G02*
X164420000Y-52737500I0J-147500D01*
G01*
X164420000Y-53032500D01*
G75*
G02*
X164272500Y-53180000I-147500J0D01*
G01*
X163927500Y-53180000D01*
G75*
G02*
X163780000Y-53032500I0J147500D01*
G01*
X163780000Y-52737500D01*
G75*
G02*
X163927500Y-52590000I147500J0D01*
G01*
G37*
G36*
G01*
X163927500Y-51620000D02*
X164272500Y-51620000D01*
G75*
G02*
X164420000Y-51767500I0J-147500D01*
G01*
X164420000Y-52062500D01*
G75*
G02*
X164272500Y-52210000I-147500J0D01*
G01*
X163927500Y-52210000D01*
G75*
G02*
X163780000Y-52062500I0J147500D01*
G01*
X163780000Y-51767500D01*
G75*
G02*
X163927500Y-51620000I147500J0D01*
G01*
G37*
%TD*%
D13*
%TO.C,U18*%
X153600000Y-90665000D03*
X158500000Y-93205000D03*
X158500000Y-91935000D03*
X158500000Y-90665000D03*
X158500000Y-89395000D03*
X153600000Y-89395000D03*
X153600000Y-91935000D03*
X153600000Y-93205000D03*
%TD*%
D14*
%TO.C,R189*%
X162500000Y-90200000D03*
X162500000Y-91600000D03*
%TD*%
D15*
%TO.C,D40*%
X161337500Y-92350000D03*
X161337500Y-91350000D03*
X161337500Y-91850000D03*
X161337500Y-90850000D03*
X161337500Y-92850000D03*
X160562500Y-90850000D03*
X160562500Y-91350000D03*
X160562500Y-91850000D03*
X160562500Y-92350000D03*
X160562500Y-92850000D03*
%TD*%
%TO.C,C174*%
G36*
G01*
X164622500Y-90710000D02*
X164277500Y-90710000D01*
G75*
G02*
X164130000Y-90562500I0J147500D01*
G01*
X164130000Y-90267500D01*
G75*
G02*
X164277500Y-90120000I147500J0D01*
G01*
X164622500Y-90120000D01*
G75*
G02*
X164770000Y-90267500I0J-147500D01*
G01*
X164770000Y-90562500D01*
G75*
G02*
X164622500Y-90710000I-147500J0D01*
G01*
G37*
G36*
G01*
X164622500Y-91680000D02*
X164277500Y-91680000D01*
G75*
G02*
X164130000Y-91532500I0J147500D01*
G01*
X164130000Y-91237500D01*
G75*
G02*
X164277500Y-91090000I147500J0D01*
G01*
X164622500Y-91090000D01*
G75*
G02*
X164770000Y-91237500I0J-147500D01*
G01*
X164770000Y-91532500D01*
G75*
G02*
X164622500Y-91680000I-147500J0D01*
G01*
G37*
%TD*%
%TO.C,R179*%
G36*
G01*
X165310000Y-93477500D02*
X165310000Y-93822500D01*
G75*
G02*
X165162500Y-93970000I-147500J0D01*
G01*
X164867500Y-93970000D01*
G75*
G02*
X164720000Y-93822500I0J147500D01*
G01*
X164720000Y-93477500D01*
G75*
G02*
X164867500Y-93330000I147500J0D01*
G01*
X165162500Y-93330000D01*
G75*
G02*
X165310000Y-93477500I0J-147500D01*
G01*
G37*
G36*
G01*
X166280000Y-93477500D02*
X166280000Y-93822500D01*
G75*
G02*
X166132500Y-93970000I-147500J0D01*
G01*
X165837500Y-93970000D01*
G75*
G02*
X165690000Y-93822500I0J147500D01*
G01*
X165690000Y-93477500D01*
G75*
G02*
X165837500Y-93330000I147500J0D01*
G01*
X166132500Y-93330000D01*
G75*
G02*
X166280000Y-93477500I0J-147500D01*
G01*
G37*
%TD*%
%TO.C,R178*%
G36*
G01*
X165310000Y-92477500D02*
X165310000Y-92822500D01*
G75*
G02*
X165162500Y-92970000I-147500J0D01*
G01*
X164867500Y-92970000D01*
G75*
G02*
X164720000Y-92822500I0J147500D01*
G01*
X164720000Y-92477500D01*
G75*
G02*
X164867500Y-92330000I147500J0D01*
G01*
X165162500Y-92330000D01*
G75*
G02*
X165310000Y-92477500I0J-147500D01*
G01*
G37*
G36*
G01*
X166280000Y-92477500D02*
X166280000Y-92822500D01*
G75*
G02*
X166132500Y-92970000I-147500J0D01*
G01*
X165837500Y-92970000D01*
G75*
G02*
X165690000Y-92822500I0J147500D01*
G01*
X165690000Y-92477500D01*
G75*
G02*
X165837500Y-92330000I147500J0D01*
G01*
X166132500Y-92330000D01*
G75*
G02*
X166280000Y-92477500I0J-147500D01*
G01*
G37*
%TD*%
D16*
%TO.C,J3*%
X171094060Y-94550420D03*
X171094060Y-70049580D03*
D17*
X170144100Y-91807220D03*
X170144100Y-90806460D03*
X170144100Y-89805700D03*
X170144100Y-88804940D03*
X170144100Y-87804180D03*
X170144100Y-86803420D03*
X170144100Y-85802660D03*
X170144100Y-84801900D03*
X170144100Y-83801140D03*
X170144100Y-82800380D03*
X170144100Y-81799620D03*
X170144100Y-80798860D03*
X170144100Y-79798100D03*
X170144100Y-78797340D03*
X170144100Y-77796580D03*
X170144100Y-76795820D03*
X170144100Y-75795060D03*
X170144100Y-74794300D03*
X170144100Y-73793540D03*
X170144100Y-72792780D03*
%TD*%
%TO.C,C163*%
G36*
G01*
X113822500Y-112460000D02*
X113477500Y-112460000D01*
G75*
G02*
X113330000Y-112312500I0J147500D01*
G01*
X113330000Y-112017500D01*
G75*
G02*
X113477500Y-111870000I147500J0D01*
G01*
X113822500Y-111870000D01*
G75*
G02*
X113970000Y-112017500I0J-147500D01*
G01*
X113970000Y-112312500D01*
G75*
G02*
X113822500Y-112460000I-147500J0D01*
G01*
G37*
G36*
G01*
X113822500Y-113430000D02*
X113477500Y-113430000D01*
G75*
G02*
X113330000Y-113282500I0J147500D01*
G01*
X113330000Y-112987500D01*
G75*
G02*
X113477500Y-112840000I147500J0D01*
G01*
X113822500Y-112840000D01*
G75*
G02*
X113970000Y-112987500I0J-147500D01*
G01*
X113970000Y-113282500D01*
G75*
G02*
X113822500Y-113430000I-147500J0D01*
G01*
G37*
%TD*%
%TO.C,C162*%
G36*
G01*
X113960000Y-110777500D02*
X113960000Y-111122500D01*
G75*
G02*
X113812500Y-111270000I-147500J0D01*
G01*
X113517500Y-111270000D01*
G75*
G02*
X113370000Y-111122500I0J147500D01*
G01*
X113370000Y-110777500D01*
G75*
G02*
X113517500Y-110630000I147500J0D01*
G01*
X113812500Y-110630000D01*
G75*
G02*
X113960000Y-110777500I0J-147500D01*
G01*
G37*
G36*
G01*
X114930000Y-110777500D02*
X114930000Y-111122500D01*
G75*
G02*
X114782500Y-111270000I-147500J0D01*
G01*
X114487500Y-111270000D01*
G75*
G02*
X114340000Y-111122500I0J147500D01*
G01*
X114340000Y-110777500D01*
G75*
G02*
X114487500Y-110630000I147500J0D01*
G01*
X114782500Y-110630000D01*
G75*
G02*
X114930000Y-110777500I0J-147500D01*
G01*
G37*
%TD*%
%TO.C,C138*%
G36*
G01*
X98672500Y-86260000D02*
X98327500Y-86260000D01*
G75*
G02*
X98180000Y-86112500I0J147500D01*
G01*
X98180000Y-85817500D01*
G75*
G02*
X98327500Y-85670000I147500J0D01*
G01*
X98672500Y-85670000D01*
G75*
G02*
X98820000Y-85817500I0J-147500D01*
G01*
X98820000Y-86112500D01*
G75*
G02*
X98672500Y-86260000I-147500J0D01*
G01*
G37*
G36*
G01*
X98672500Y-87230000D02*
X98327500Y-87230000D01*
G75*
G02*
X98180000Y-87082500I0J147500D01*
G01*
X98180000Y-86787500D01*
G75*
G02*
X98327500Y-86640000I147500J0D01*
G01*
X98672500Y-86640000D01*
G75*
G02*
X98820000Y-86787500I0J-147500D01*
G01*
X98820000Y-87082500D01*
G75*
G02*
X98672500Y-87230000I-147500J0D01*
G01*
G37*
%TD*%
%TO.C,C22*%
G36*
G01*
X160972500Y-70710000D02*
X160627500Y-70710000D01*
G75*
G02*
X160480000Y-70562500I0J147500D01*
G01*
X160480000Y-70267500D01*
G75*
G02*
X160627500Y-70120000I147500J0D01*
G01*
X160972500Y-70120000D01*
G75*
G02*
X161120000Y-70267500I0J-147500D01*
G01*
X161120000Y-70562500D01*
G75*
G02*
X160972500Y-70710000I-147500J0D01*
G01*
G37*
G36*
G01*
X160972500Y-71680000D02*
X160627500Y-71680000D01*
G75*
G02*
X160480000Y-71532500I0J147500D01*
G01*
X160480000Y-71237500D01*
G75*
G02*
X160627500Y-71090000I147500J0D01*
G01*
X160972500Y-71090000D01*
G75*
G02*
X161120000Y-71237500I0J-147500D01*
G01*
X161120000Y-71532500D01*
G75*
G02*
X160972500Y-71680000I-147500J0D01*
G01*
G37*
%TD*%
%TO.C,C12*%
G36*
G01*
X98327500Y-84690000D02*
X98672500Y-84690000D01*
G75*
G02*
X98820000Y-84837500I0J-147500D01*
G01*
X98820000Y-85132500D01*
G75*
G02*
X98672500Y-85280000I-147500J0D01*
G01*
X98327500Y-85280000D01*
G75*
G02*
X98180000Y-85132500I0J147500D01*
G01*
X98180000Y-84837500D01*
G75*
G02*
X98327500Y-84690000I147500J0D01*
G01*
G37*
G36*
G01*
X98327500Y-83720000D02*
X98672500Y-83720000D01*
G75*
G02*
X98820000Y-83867500I0J-147500D01*
G01*
X98820000Y-84162500D01*
G75*
G02*
X98672500Y-84310000I-147500J0D01*
G01*
X98327500Y-84310000D01*
G75*
G02*
X98180000Y-84162500I0J147500D01*
G01*
X98180000Y-83867500D01*
G75*
G02*
X98327500Y-83720000I147500J0D01*
G01*
G37*
%TD*%
%TO.C,C9*%
G36*
G01*
X97172500Y-80210000D02*
X96827500Y-80210000D01*
G75*
G02*
X96680000Y-80062500I0J147500D01*
G01*
X96680000Y-79767500D01*
G75*
G02*
X96827500Y-79620000I147500J0D01*
G01*
X97172500Y-79620000D01*
G75*
G02*
X97320000Y-79767500I0J-147500D01*
G01*
X97320000Y-80062500D01*
G75*
G02*
X97172500Y-80210000I-147500J0D01*
G01*
G37*
G36*
G01*
X97172500Y-81180000D02*
X96827500Y-81180000D01*
G75*
G02*
X96680000Y-81032500I0J147500D01*
G01*
X96680000Y-80737500D01*
G75*
G02*
X96827500Y-80590000I147500J0D01*
G01*
X97172500Y-80590000D01*
G75*
G02*
X97320000Y-80737500I0J-147500D01*
G01*
X97320000Y-81032500D01*
G75*
G02*
X97172500Y-81180000I-147500J0D01*
G01*
G37*
%TD*%
D18*
%TO.C,Y1*%
X129420000Y-61560000D03*
X129420000Y-59760000D03*
X131720000Y-61560000D03*
X131720000Y-59760000D03*
%TD*%
D19*
%TO.C,J2*%
X139800000Y-120100000D03*
D20*
X139800000Y-116150000D03*
X111400000Y-116150000D03*
X111400000Y-119850000D03*
D21*
X113350000Y-118000000D03*
X113850000Y-118000000D03*
X114350000Y-118000000D03*
X114850000Y-118000000D03*
X115350000Y-118000000D03*
X115850000Y-118000000D03*
X116350000Y-118000000D03*
X116850000Y-118000000D03*
X117350000Y-118000000D03*
X117850000Y-118000000D03*
X118350000Y-118000000D03*
X118850000Y-118000000D03*
X119350000Y-118000000D03*
X119850000Y-118000000D03*
X120350000Y-118000000D03*
X120850000Y-118000000D03*
X121350000Y-118000000D03*
X121850000Y-118000000D03*
X122350000Y-118000000D03*
X122850000Y-118000000D03*
X123350000Y-118000000D03*
X123850000Y-118000000D03*
X124350000Y-118000000D03*
X124850000Y-118000000D03*
X125350000Y-118000000D03*
X125850000Y-118000000D03*
X126350000Y-118000000D03*
X126850000Y-118000000D03*
X127350000Y-118000000D03*
X127850000Y-118000000D03*
X128350000Y-118000000D03*
X128850000Y-118000000D03*
X129350000Y-118000000D03*
X129850000Y-118000000D03*
X130350000Y-118000000D03*
X130850000Y-118000000D03*
X131350000Y-118000000D03*
X131850000Y-118000000D03*
X132350000Y-118000000D03*
X132850000Y-118000000D03*
X133350000Y-118000000D03*
X133850000Y-118000000D03*
X134350000Y-118000000D03*
X134850000Y-118000000D03*
X135350000Y-118000000D03*
X135850000Y-118000000D03*
X136350000Y-118000000D03*
X136850000Y-118000000D03*
X137350000Y-118000000D03*
X137850000Y-118000000D03*
%TD*%
%TO.C,R135*%
G36*
G01*
X96022500Y-60110000D02*
X95677500Y-60110000D01*
G75*
G02*
X95530000Y-59962500I0J147500D01*
G01*
X95530000Y-59667500D01*
G75*
G02*
X95677500Y-59520000I147500J0D01*
G01*
X96022500Y-59520000D01*
G75*
G02*
X96170000Y-59667500I0J-147500D01*
G01*
X96170000Y-59962500D01*
G75*
G02*
X96022500Y-60110000I-147500J0D01*
G01*
G37*
G36*
G01*
X96022500Y-61080000D02*
X95677500Y-61080000D01*
G75*
G02*
X95530000Y-60932500I0J147500D01*
G01*
X95530000Y-60637500D01*
G75*
G02*
X95677500Y-60490000I147500J0D01*
G01*
X96022500Y-60490000D01*
G75*
G02*
X96170000Y-60637500I0J-147500D01*
G01*
X96170000Y-60932500D01*
G75*
G02*
X96022500Y-61080000I-147500J0D01*
G01*
G37*
%TD*%
D12*
%TO.C,Q9*%
G36*
X154537500Y-55480000D02*
G01*
X154537500Y-54970000D01*
X154282500Y-54970000D01*
X154282500Y-55480000D01*
X153877500Y-55480000D01*
X153877500Y-54970000D01*
X153622500Y-54970000D01*
X153622500Y-55480000D01*
X153217500Y-55480000D01*
X153217500Y-54970000D01*
X152962500Y-54970000D01*
X152962500Y-55480000D01*
X152555000Y-55480000D01*
X152555000Y-54720000D01*
X152632500Y-54720000D01*
X152632500Y-53245000D01*
X154867500Y-53245000D01*
X154867500Y-54720000D01*
X154945000Y-54720000D01*
X154945000Y-55480000D01*
X154537500Y-55480000D01*
G37*
D22*
X154740000Y-52115000D03*
X154080000Y-52115000D03*
X153420000Y-52115000D03*
X152760000Y-52115000D03*
%TD*%
%TO.C,R170*%
G36*
G01*
X105210000Y-107527500D02*
X105210000Y-107872500D01*
G75*
G02*
X105062500Y-108020000I-147500J0D01*
G01*
X104767500Y-108020000D01*
G75*
G02*
X104620000Y-107872500I0J147500D01*
G01*
X104620000Y-107527500D01*
G75*
G02*
X104767500Y-107380000I147500J0D01*
G01*
X105062500Y-107380000D01*
G75*
G02*
X105210000Y-107527500I0J-147500D01*
G01*
G37*
G36*
G01*
X106180000Y-107527500D02*
X106180000Y-107872500D01*
G75*
G02*
X106032500Y-108020000I-147500J0D01*
G01*
X105737500Y-108020000D01*
G75*
G02*
X105590000Y-107872500I0J147500D01*
G01*
X105590000Y-107527500D01*
G75*
G02*
X105737500Y-107380000I147500J0D01*
G01*
X106032500Y-107380000D01*
G75*
G02*
X106180000Y-107527500I0J-147500D01*
G01*
G37*
%TD*%
D23*
%TO.C,U14*%
X166700000Y-56150000D03*
D24*
X165700000Y-58050000D03*
X166200000Y-58050000D03*
X166700000Y-58050000D03*
X167200000Y-58050000D03*
X167700000Y-58050000D03*
D25*
X168600000Y-57150000D03*
X168600000Y-56650000D03*
X168600000Y-56150000D03*
X168600000Y-55650000D03*
X168600000Y-55150000D03*
D24*
X167700000Y-54250000D03*
X167200000Y-54250000D03*
X166700000Y-54250000D03*
X166200000Y-54250000D03*
X165700000Y-54250000D03*
D25*
X164800000Y-55150000D03*
X164800000Y-55650000D03*
X164800000Y-56150000D03*
X164800000Y-56650000D03*
X164800000Y-57150000D03*
%TD*%
D26*
%TO.C,R169*%
X168250000Y-50700000D03*
X166850000Y-50700000D03*
%TD*%
%TO.C,R168*%
X164250000Y-50700000D03*
X165650000Y-50700000D03*
%TD*%
D14*
%TO.C,R167*%
X160650000Y-55850000D03*
X160650000Y-57250000D03*
%TD*%
%TO.C,R166*%
G36*
G01*
X162260000Y-55427500D02*
X162260000Y-55772500D01*
G75*
G02*
X162112500Y-55920000I-147500J0D01*
G01*
X161817500Y-55920000D01*
G75*
G02*
X161670000Y-55772500I0J147500D01*
G01*
X161670000Y-55427500D01*
G75*
G02*
X161817500Y-55280000I147500J0D01*
G01*
X162112500Y-55280000D01*
G75*
G02*
X162260000Y-55427500I0J-147500D01*
G01*
G37*
G36*
G01*
X163230000Y-55427500D02*
X163230000Y-55772500D01*
G75*
G02*
X163082500Y-55920000I-147500J0D01*
G01*
X162787500Y-55920000D01*
G75*
G02*
X162640000Y-55772500I0J147500D01*
G01*
X162640000Y-55427500D01*
G75*
G02*
X162787500Y-55280000I147500J0D01*
G01*
X163082500Y-55280000D01*
G75*
G02*
X163230000Y-55427500I0J-147500D01*
G01*
G37*
%TD*%
%TO.C,R165*%
G36*
G01*
X162640000Y-56772500D02*
X162640000Y-56427500D01*
G75*
G02*
X162787500Y-56280000I147500J0D01*
G01*
X163082500Y-56280000D01*
G75*
G02*
X163230000Y-56427500I0J-147500D01*
G01*
X163230000Y-56772500D01*
G75*
G02*
X163082500Y-56920000I-147500J0D01*
G01*
X162787500Y-56920000D01*
G75*
G02*
X162640000Y-56772500I0J147500D01*
G01*
G37*
G36*
G01*
X161670000Y-56772500D02*
X161670000Y-56427500D01*
G75*
G02*
X161817500Y-56280000I147500J0D01*
G01*
X162112500Y-56280000D01*
G75*
G02*
X162260000Y-56427500I0J-147500D01*
G01*
X162260000Y-56772500D01*
G75*
G02*
X162112500Y-56920000I-147500J0D01*
G01*
X161817500Y-56920000D01*
G75*
G02*
X161670000Y-56772500I0J147500D01*
G01*
G37*
%TD*%
%TO.C,R164*%
X160650000Y-59800000D03*
X160650000Y-58400000D03*
%TD*%
%TO.C,R163*%
G36*
G01*
X162590000Y-57922500D02*
X162590000Y-57577500D01*
G75*
G02*
X162737500Y-57430000I147500J0D01*
G01*
X163032500Y-57430000D01*
G75*
G02*
X163180000Y-57577500I0J-147500D01*
G01*
X163180000Y-57922500D01*
G75*
G02*
X163032500Y-58070000I-147500J0D01*
G01*
X162737500Y-58070000D01*
G75*
G02*
X162590000Y-57922500I0J147500D01*
G01*
G37*
G36*
G01*
X161620000Y-57922500D02*
X161620000Y-57577500D01*
G75*
G02*
X161767500Y-57430000I147500J0D01*
G01*
X162062500Y-57430000D01*
G75*
G02*
X162210000Y-57577500I0J-147500D01*
G01*
X162210000Y-57922500D01*
G75*
G02*
X162062500Y-58070000I-147500J0D01*
G01*
X161767500Y-58070000D01*
G75*
G02*
X161620000Y-57922500I0J147500D01*
G01*
G37*
%TD*%
%TO.C,R161*%
G36*
G01*
X162590000Y-58922500D02*
X162590000Y-58577500D01*
G75*
G02*
X162737500Y-58430000I147500J0D01*
G01*
X163032500Y-58430000D01*
G75*
G02*
X163180000Y-58577500I0J-147500D01*
G01*
X163180000Y-58922500D01*
G75*
G02*
X163032500Y-59070000I-147500J0D01*
G01*
X162737500Y-59070000D01*
G75*
G02*
X162590000Y-58922500I0J147500D01*
G01*
G37*
G36*
G01*
X161620000Y-58922500D02*
X161620000Y-58577500D01*
G75*
G02*
X161767500Y-58430000I147500J0D01*
G01*
X162062500Y-58430000D01*
G75*
G02*
X162210000Y-58577500I0J-147500D01*
G01*
X162210000Y-58922500D01*
G75*
G02*
X162062500Y-59070000I-147500J0D01*
G01*
X161767500Y-59070000D01*
G75*
G02*
X161620000Y-58922500I0J147500D01*
G01*
G37*
%TD*%
%TO.C,C159*%
G36*
G01*
X167740000Y-52872500D02*
X167740000Y-52527500D01*
G75*
G02*
X167887500Y-52380000I147500J0D01*
G01*
X168182500Y-52380000D01*
G75*
G02*
X168330000Y-52527500I0J-147500D01*
G01*
X168330000Y-52872500D01*
G75*
G02*
X168182500Y-53020000I-147500J0D01*
G01*
X167887500Y-53020000D01*
G75*
G02*
X167740000Y-52872500I0J147500D01*
G01*
G37*
G36*
G01*
X166770000Y-52872500D02*
X166770000Y-52527500D01*
G75*
G02*
X166917500Y-52380000I147500J0D01*
G01*
X167212500Y-52380000D01*
G75*
G02*
X167360000Y-52527500I0J-147500D01*
G01*
X167360000Y-52872500D01*
G75*
G02*
X167212500Y-53020000I-147500J0D01*
G01*
X166917500Y-53020000D01*
G75*
G02*
X166770000Y-52872500I0J147500D01*
G01*
G37*
%TD*%
%TO.C,C157*%
G36*
G01*
X170772500Y-56160000D02*
X170427500Y-56160000D01*
G75*
G02*
X170280000Y-56012500I0J147500D01*
G01*
X170280000Y-55717500D01*
G75*
G02*
X170427500Y-55570000I147500J0D01*
G01*
X170772500Y-55570000D01*
G75*
G02*
X170920000Y-55717500I0J-147500D01*
G01*
X170920000Y-56012500D01*
G75*
G02*
X170772500Y-56160000I-147500J0D01*
G01*
G37*
G36*
G01*
X170772500Y-57130000D02*
X170427500Y-57130000D01*
G75*
G02*
X170280000Y-56982500I0J147500D01*
G01*
X170280000Y-56687500D01*
G75*
G02*
X170427500Y-56540000I147500J0D01*
G01*
X170772500Y-56540000D01*
G75*
G02*
X170920000Y-56687500I0J-147500D01*
G01*
X170920000Y-56982500D01*
G75*
G02*
X170772500Y-57130000I-147500J0D01*
G01*
G37*
%TD*%
%TO.C,C156*%
G36*
G01*
X170427500Y-58440000D02*
X170772500Y-58440000D01*
G75*
G02*
X170920000Y-58587500I0J-147500D01*
G01*
X170920000Y-58882500D01*
G75*
G02*
X170772500Y-59030000I-147500J0D01*
G01*
X170427500Y-59030000D01*
G75*
G02*
X170280000Y-58882500I0J147500D01*
G01*
X170280000Y-58587500D01*
G75*
G02*
X170427500Y-58440000I147500J0D01*
G01*
G37*
G36*
G01*
X170427500Y-57470000D02*
X170772500Y-57470000D01*
G75*
G02*
X170920000Y-57617500I0J-147500D01*
G01*
X170920000Y-57912500D01*
G75*
G02*
X170772500Y-58060000I-147500J0D01*
G01*
X170427500Y-58060000D01*
G75*
G02*
X170280000Y-57912500I0J147500D01*
G01*
X170280000Y-57617500D01*
G75*
G02*
X170427500Y-57470000I147500J0D01*
G01*
G37*
%TD*%
D27*
%TO.C,IC3*%
X150150000Y-49950000D03*
X152050000Y-49950000D03*
X150150000Y-47250000D03*
X151100000Y-47250000D03*
X152050000Y-47250000D03*
%TD*%
%TO.C,C155*%
G36*
G01*
X148027500Y-52040000D02*
X148372500Y-52040000D01*
G75*
G02*
X148520000Y-52187500I0J-147500D01*
G01*
X148520000Y-52482500D01*
G75*
G02*
X148372500Y-52630000I-147500J0D01*
G01*
X148027500Y-52630000D01*
G75*
G02*
X147880000Y-52482500I0J147500D01*
G01*
X147880000Y-52187500D01*
G75*
G02*
X148027500Y-52040000I147500J0D01*
G01*
G37*
G36*
G01*
X148027500Y-51070000D02*
X148372500Y-51070000D01*
G75*
G02*
X148520000Y-51217500I0J-147500D01*
G01*
X148520000Y-51512500D01*
G75*
G02*
X148372500Y-51660000I-147500J0D01*
G01*
X148027500Y-51660000D01*
G75*
G02*
X147880000Y-51512500I0J147500D01*
G01*
X147880000Y-51217500D01*
G75*
G02*
X148027500Y-51070000I147500J0D01*
G01*
G37*
%TD*%
%TO.C,C154*%
G36*
G01*
X151360000Y-45777500D02*
X151360000Y-46122500D01*
G75*
G02*
X151212500Y-46270000I-147500J0D01*
G01*
X150917500Y-46270000D01*
G75*
G02*
X150770000Y-46122500I0J147500D01*
G01*
X150770000Y-45777500D01*
G75*
G02*
X150917500Y-45630000I147500J0D01*
G01*
X151212500Y-45630000D01*
G75*
G02*
X151360000Y-45777500I0J-147500D01*
G01*
G37*
G36*
G01*
X152330000Y-45777500D02*
X152330000Y-46122500D01*
G75*
G02*
X152182500Y-46270000I-147500J0D01*
G01*
X151887500Y-46270000D01*
G75*
G02*
X151740000Y-46122500I0J147500D01*
G01*
X151740000Y-45777500D01*
G75*
G02*
X151887500Y-45630000I147500J0D01*
G01*
X152182500Y-45630000D01*
G75*
G02*
X152330000Y-45777500I0J-147500D01*
G01*
G37*
%TD*%
%TO.C,R157*%
G36*
G01*
X150760000Y-54527500D02*
X150760000Y-54872500D01*
G75*
G02*
X150612500Y-55020000I-147500J0D01*
G01*
X150317500Y-55020000D01*
G75*
G02*
X150170000Y-54872500I0J147500D01*
G01*
X150170000Y-54527500D01*
G75*
G02*
X150317500Y-54380000I147500J0D01*
G01*
X150612500Y-54380000D01*
G75*
G02*
X150760000Y-54527500I0J-147500D01*
G01*
G37*
G36*
G01*
X151730000Y-54527500D02*
X151730000Y-54872500D01*
G75*
G02*
X151582500Y-55020000I-147500J0D01*
G01*
X151287500Y-55020000D01*
G75*
G02*
X151140000Y-54872500I0J147500D01*
G01*
X151140000Y-54527500D01*
G75*
G02*
X151287500Y-54380000I147500J0D01*
G01*
X151582500Y-54380000D01*
G75*
G02*
X151730000Y-54527500I0J-147500D01*
G01*
G37*
%TD*%
%TO.C,R156*%
G36*
G01*
X159440000Y-52572500D02*
X159440000Y-52227500D01*
G75*
G02*
X159587500Y-52080000I147500J0D01*
G01*
X159882500Y-52080000D01*
G75*
G02*
X160030000Y-52227500I0J-147500D01*
G01*
X160030000Y-52572500D01*
G75*
G02*
X159882500Y-52720000I-147500J0D01*
G01*
X159587500Y-52720000D01*
G75*
G02*
X159440000Y-52572500I0J147500D01*
G01*
G37*
G36*
G01*
X158470000Y-52572500D02*
X158470000Y-52227500D01*
G75*
G02*
X158617500Y-52080000I147500J0D01*
G01*
X158912500Y-52080000D01*
G75*
G02*
X159060000Y-52227500I0J-147500D01*
G01*
X159060000Y-52572500D01*
G75*
G02*
X158912500Y-52720000I-147500J0D01*
G01*
X158617500Y-52720000D01*
G75*
G02*
X158470000Y-52572500I0J147500D01*
G01*
G37*
%TD*%
%TO.C,R155*%
G36*
G01*
X150710000Y-56277500D02*
X150710000Y-56622500D01*
G75*
G02*
X150562500Y-56770000I-147500J0D01*
G01*
X150267500Y-56770000D01*
G75*
G02*
X150120000Y-56622500I0J147500D01*
G01*
X150120000Y-56277500D01*
G75*
G02*
X150267500Y-56130000I147500J0D01*
G01*
X150562500Y-56130000D01*
G75*
G02*
X150710000Y-56277500I0J-147500D01*
G01*
G37*
G36*
G01*
X151680000Y-56277500D02*
X151680000Y-56622500D01*
G75*
G02*
X151532500Y-56770000I-147500J0D01*
G01*
X151237500Y-56770000D01*
G75*
G02*
X151090000Y-56622500I0J147500D01*
G01*
X151090000Y-56277500D01*
G75*
G02*
X151237500Y-56130000I147500J0D01*
G01*
X151532500Y-56130000D01*
G75*
G02*
X151680000Y-56277500I0J-147500D01*
G01*
G37*
%TD*%
%TO.C,R154*%
G36*
G01*
X150572500Y-51660000D02*
X150227500Y-51660000D01*
G75*
G02*
X150080000Y-51512500I0J147500D01*
G01*
X150080000Y-51217500D01*
G75*
G02*
X150227500Y-51070000I147500J0D01*
G01*
X150572500Y-51070000D01*
G75*
G02*
X150720000Y-51217500I0J-147500D01*
G01*
X150720000Y-51512500D01*
G75*
G02*
X150572500Y-51660000I-147500J0D01*
G01*
G37*
G36*
G01*
X150572500Y-52630000D02*
X150227500Y-52630000D01*
G75*
G02*
X150080000Y-52482500I0J147500D01*
G01*
X150080000Y-52187500D01*
G75*
G02*
X150227500Y-52040000I147500J0D01*
G01*
X150572500Y-52040000D01*
G75*
G02*
X150720000Y-52187500I0J-147500D01*
G01*
X150720000Y-52482500D01*
G75*
G02*
X150572500Y-52630000I-147500J0D01*
G01*
G37*
%TD*%
%TO.C,R153*%
G36*
G01*
X151572500Y-51660000D02*
X151227500Y-51660000D01*
G75*
G02*
X151080000Y-51512500I0J147500D01*
G01*
X151080000Y-51217500D01*
G75*
G02*
X151227500Y-51070000I147500J0D01*
G01*
X151572500Y-51070000D01*
G75*
G02*
X151720000Y-51217500I0J-147500D01*
G01*
X151720000Y-51512500D01*
G75*
G02*
X151572500Y-51660000I-147500J0D01*
G01*
G37*
G36*
G01*
X151572500Y-52630000D02*
X151227500Y-52630000D01*
G75*
G02*
X151080000Y-52482500I0J147500D01*
G01*
X151080000Y-52187500D01*
G75*
G02*
X151227500Y-52040000I147500J0D01*
G01*
X151572500Y-52040000D01*
G75*
G02*
X151720000Y-52187500I0J-147500D01*
G01*
X151720000Y-52482500D01*
G75*
G02*
X151572500Y-52630000I-147500J0D01*
G01*
G37*
%TD*%
%TO.C,R152*%
G36*
G01*
X149572500Y-51660000D02*
X149227500Y-51660000D01*
G75*
G02*
X149080000Y-51512500I0J147500D01*
G01*
X149080000Y-51217500D01*
G75*
G02*
X149227500Y-51070000I147500J0D01*
G01*
X149572500Y-51070000D01*
G75*
G02*
X149720000Y-51217500I0J-147500D01*
G01*
X149720000Y-51512500D01*
G75*
G02*
X149572500Y-51660000I-147500J0D01*
G01*
G37*
G36*
G01*
X149572500Y-52630000D02*
X149227500Y-52630000D01*
G75*
G02*
X149080000Y-52482500I0J147500D01*
G01*
X149080000Y-52187500D01*
G75*
G02*
X149227500Y-52040000I147500J0D01*
G01*
X149572500Y-52040000D01*
G75*
G02*
X149720000Y-52187500I0J-147500D01*
G01*
X149720000Y-52482500D01*
G75*
G02*
X149572500Y-52630000I-147500J0D01*
G01*
G37*
%TD*%
%TO.C,R151*%
G36*
G01*
X150710000Y-58277500D02*
X150710000Y-58622500D01*
G75*
G02*
X150562500Y-58770000I-147500J0D01*
G01*
X150267500Y-58770000D01*
G75*
G02*
X150120000Y-58622500I0J147500D01*
G01*
X150120000Y-58277500D01*
G75*
G02*
X150267500Y-58130000I147500J0D01*
G01*
X150562500Y-58130000D01*
G75*
G02*
X150710000Y-58277500I0J-147500D01*
G01*
G37*
G36*
G01*
X151680000Y-58277500D02*
X151680000Y-58622500D01*
G75*
G02*
X151532500Y-58770000I-147500J0D01*
G01*
X151237500Y-58770000D01*
G75*
G02*
X151090000Y-58622500I0J147500D01*
G01*
X151090000Y-58277500D01*
G75*
G02*
X151237500Y-58130000I147500J0D01*
G01*
X151532500Y-58130000D01*
G75*
G02*
X151680000Y-58277500I0J-147500D01*
G01*
G37*
%TD*%
%TO.C,R150*%
G36*
G01*
X156627500Y-53090000D02*
X156972500Y-53090000D01*
G75*
G02*
X157120000Y-53237500I0J-147500D01*
G01*
X157120000Y-53532500D01*
G75*
G02*
X156972500Y-53680000I-147500J0D01*
G01*
X156627500Y-53680000D01*
G75*
G02*
X156480000Y-53532500I0J147500D01*
G01*
X156480000Y-53237500D01*
G75*
G02*
X156627500Y-53090000I147500J0D01*
G01*
G37*
G36*
G01*
X156627500Y-52120000D02*
X156972500Y-52120000D01*
G75*
G02*
X157120000Y-52267500I0J-147500D01*
G01*
X157120000Y-52562500D01*
G75*
G02*
X156972500Y-52710000I-147500J0D01*
G01*
X156627500Y-52710000D01*
G75*
G02*
X156480000Y-52562500I0J147500D01*
G01*
X156480000Y-52267500D01*
G75*
G02*
X156627500Y-52120000I147500J0D01*
G01*
G37*
%TD*%
%TO.C,R149*%
G36*
G01*
X155927500Y-51190000D02*
X156272500Y-51190000D01*
G75*
G02*
X156420000Y-51337500I0J-147500D01*
G01*
X156420000Y-51632500D01*
G75*
G02*
X156272500Y-51780000I-147500J0D01*
G01*
X155927500Y-51780000D01*
G75*
G02*
X155780000Y-51632500I0J147500D01*
G01*
X155780000Y-51337500D01*
G75*
G02*
X155927500Y-51190000I147500J0D01*
G01*
G37*
G36*
G01*
X155927500Y-50220000D02*
X156272500Y-50220000D01*
G75*
G02*
X156420000Y-50367500I0J-147500D01*
G01*
X156420000Y-50662500D01*
G75*
G02*
X156272500Y-50810000I-147500J0D01*
G01*
X155927500Y-50810000D01*
G75*
G02*
X155780000Y-50662500I0J147500D01*
G01*
X155780000Y-50367500D01*
G75*
G02*
X155927500Y-50220000I147500J0D01*
G01*
G37*
%TD*%
%TO.C,R148*%
G36*
G01*
X157627500Y-53090000D02*
X157972500Y-53090000D01*
G75*
G02*
X158120000Y-53237500I0J-147500D01*
G01*
X158120000Y-53532500D01*
G75*
G02*
X157972500Y-53680000I-147500J0D01*
G01*
X157627500Y-53680000D01*
G75*
G02*
X157480000Y-53532500I0J147500D01*
G01*
X157480000Y-53237500D01*
G75*
G02*
X157627500Y-53090000I147500J0D01*
G01*
G37*
G36*
G01*
X157627500Y-52120000D02*
X157972500Y-52120000D01*
G75*
G02*
X158120000Y-52267500I0J-147500D01*
G01*
X158120000Y-52562500D01*
G75*
G02*
X157972500Y-52710000I-147500J0D01*
G01*
X157627500Y-52710000D01*
G75*
G02*
X157480000Y-52562500I0J147500D01*
G01*
X157480000Y-52267500D01*
G75*
G02*
X157627500Y-52120000I147500J0D01*
G01*
G37*
%TD*%
%TO.C,R147*%
G36*
G01*
X156927500Y-51190000D02*
X157272500Y-51190000D01*
G75*
G02*
X157420000Y-51337500I0J-147500D01*
G01*
X157420000Y-51632500D01*
G75*
G02*
X157272500Y-51780000I-147500J0D01*
G01*
X156927500Y-51780000D01*
G75*
G02*
X156780000Y-51632500I0J147500D01*
G01*
X156780000Y-51337500D01*
G75*
G02*
X156927500Y-51190000I147500J0D01*
G01*
G37*
G36*
G01*
X156927500Y-50220000D02*
X157272500Y-50220000D01*
G75*
G02*
X157420000Y-50367500I0J-147500D01*
G01*
X157420000Y-50662500D01*
G75*
G02*
X157272500Y-50810000I-147500J0D01*
G01*
X156927500Y-50810000D01*
G75*
G02*
X156780000Y-50662500I0J147500D01*
G01*
X156780000Y-50367500D01*
G75*
G02*
X156927500Y-50220000I147500J0D01*
G01*
G37*
%TD*%
%TO.C,R146*%
G36*
G01*
X150710000Y-57277500D02*
X150710000Y-57622500D01*
G75*
G02*
X150562500Y-57770000I-147500J0D01*
G01*
X150267500Y-57770000D01*
G75*
G02*
X150120000Y-57622500I0J147500D01*
G01*
X150120000Y-57277500D01*
G75*
G02*
X150267500Y-57130000I147500J0D01*
G01*
X150562500Y-57130000D01*
G75*
G02*
X150710000Y-57277500I0J-147500D01*
G01*
G37*
G36*
G01*
X151680000Y-57277500D02*
X151680000Y-57622500D01*
G75*
G02*
X151532500Y-57770000I-147500J0D01*
G01*
X151237500Y-57770000D01*
G75*
G02*
X151090000Y-57622500I0J147500D01*
G01*
X151090000Y-57277500D01*
G75*
G02*
X151237500Y-57130000I147500J0D01*
G01*
X151532500Y-57130000D01*
G75*
G02*
X151680000Y-57277500I0J-147500D01*
G01*
G37*
%TD*%
D26*
%TO.C,D8*%
X158550000Y-49050000D03*
X158550000Y-51150000D03*
%TD*%
%TO.C,C152*%
G36*
G01*
X159440000Y-53572500D02*
X159440000Y-53227500D01*
G75*
G02*
X159587500Y-53080000I147500J0D01*
G01*
X159882500Y-53080000D01*
G75*
G02*
X160030000Y-53227500I0J-147500D01*
G01*
X160030000Y-53572500D01*
G75*
G02*
X159882500Y-53720000I-147500J0D01*
G01*
X159587500Y-53720000D01*
G75*
G02*
X159440000Y-53572500I0J147500D01*
G01*
G37*
G36*
G01*
X158470000Y-53572500D02*
X158470000Y-53227500D01*
G75*
G02*
X158617500Y-53080000I147500J0D01*
G01*
X158912500Y-53080000D01*
G75*
G02*
X159060000Y-53227500I0J-147500D01*
G01*
X159060000Y-53572500D01*
G75*
G02*
X158912500Y-53720000I-147500J0D01*
G01*
X158617500Y-53720000D01*
G75*
G02*
X158470000Y-53572500I0J147500D01*
G01*
G37*
%TD*%
D14*
%TO.C,C84*%
X160300000Y-50800000D03*
X160300000Y-49400000D03*
%TD*%
D26*
%TO.C,C83*%
X156900000Y-49300000D03*
X155500000Y-49300000D03*
%TD*%
%TO.C,R141*%
G36*
G01*
X89327500Y-55790000D02*
X89672500Y-55790000D01*
G75*
G02*
X89820000Y-55937500I0J-147500D01*
G01*
X89820000Y-56232500D01*
G75*
G02*
X89672500Y-56380000I-147500J0D01*
G01*
X89327500Y-56380000D01*
G75*
G02*
X89180000Y-56232500I0J147500D01*
G01*
X89180000Y-55937500D01*
G75*
G02*
X89327500Y-55790000I147500J0D01*
G01*
G37*
G36*
G01*
X89327500Y-54820000D02*
X89672500Y-54820000D01*
G75*
G02*
X89820000Y-54967500I0J-147500D01*
G01*
X89820000Y-55262500D01*
G75*
G02*
X89672500Y-55410000I-147500J0D01*
G01*
X89327500Y-55410000D01*
G75*
G02*
X89180000Y-55262500I0J147500D01*
G01*
X89180000Y-54967500D01*
G75*
G02*
X89327500Y-54820000I147500J0D01*
G01*
G37*
%TD*%
%TO.C,R140*%
G36*
G01*
X89327500Y-53190000D02*
X89672500Y-53190000D01*
G75*
G02*
X89820000Y-53337500I0J-147500D01*
G01*
X89820000Y-53632500D01*
G75*
G02*
X89672500Y-53780000I-147500J0D01*
G01*
X89327500Y-53780000D01*
G75*
G02*
X89180000Y-53632500I0J147500D01*
G01*
X89180000Y-53337500D01*
G75*
G02*
X89327500Y-53190000I147500J0D01*
G01*
G37*
G36*
G01*
X89327500Y-52220000D02*
X89672500Y-52220000D01*
G75*
G02*
X89820000Y-52367500I0J-147500D01*
G01*
X89820000Y-52662500D01*
G75*
G02*
X89672500Y-52810000I-147500J0D01*
G01*
X89327500Y-52810000D01*
G75*
G02*
X89180000Y-52662500I0J147500D01*
G01*
X89180000Y-52367500D01*
G75*
G02*
X89327500Y-52220000I147500J0D01*
G01*
G37*
%TD*%
%TO.C,R139*%
G36*
G01*
X90427500Y-55790000D02*
X90772500Y-55790000D01*
G75*
G02*
X90920000Y-55937500I0J-147500D01*
G01*
X90920000Y-56232500D01*
G75*
G02*
X90772500Y-56380000I-147500J0D01*
G01*
X90427500Y-56380000D01*
G75*
G02*
X90280000Y-56232500I0J147500D01*
G01*
X90280000Y-55937500D01*
G75*
G02*
X90427500Y-55790000I147500J0D01*
G01*
G37*
G36*
G01*
X90427500Y-54820000D02*
X90772500Y-54820000D01*
G75*
G02*
X90920000Y-54967500I0J-147500D01*
G01*
X90920000Y-55262500D01*
G75*
G02*
X90772500Y-55410000I-147500J0D01*
G01*
X90427500Y-55410000D01*
G75*
G02*
X90280000Y-55262500I0J147500D01*
G01*
X90280000Y-54967500D01*
G75*
G02*
X90427500Y-54820000I147500J0D01*
G01*
G37*
%TD*%
%TO.C,R138*%
G36*
G01*
X90427500Y-53190000D02*
X90772500Y-53190000D01*
G75*
G02*
X90920000Y-53337500I0J-147500D01*
G01*
X90920000Y-53632500D01*
G75*
G02*
X90772500Y-53780000I-147500J0D01*
G01*
X90427500Y-53780000D01*
G75*
G02*
X90280000Y-53632500I0J147500D01*
G01*
X90280000Y-53337500D01*
G75*
G02*
X90427500Y-53190000I147500J0D01*
G01*
G37*
G36*
G01*
X90427500Y-52220000D02*
X90772500Y-52220000D01*
G75*
G02*
X90920000Y-52367500I0J-147500D01*
G01*
X90920000Y-52662500D01*
G75*
G02*
X90772500Y-52810000I-147500J0D01*
G01*
X90427500Y-52810000D01*
G75*
G02*
X90280000Y-52662500I0J147500D01*
G01*
X90280000Y-52367500D01*
G75*
G02*
X90427500Y-52220000I147500J0D01*
G01*
G37*
%TD*%
%TO.C,R132*%
G36*
G01*
X104290000Y-52772500D02*
X104290000Y-52427500D01*
G75*
G02*
X104437500Y-52280000I147500J0D01*
G01*
X104732500Y-52280000D01*
G75*
G02*
X104880000Y-52427500I0J-147500D01*
G01*
X104880000Y-52772500D01*
G75*
G02*
X104732500Y-52920000I-147500J0D01*
G01*
X104437500Y-52920000D01*
G75*
G02*
X104290000Y-52772500I0J147500D01*
G01*
G37*
G36*
G01*
X103320000Y-52772500D02*
X103320000Y-52427500D01*
G75*
G02*
X103467500Y-52280000I147500J0D01*
G01*
X103762500Y-52280000D01*
G75*
G02*
X103910000Y-52427500I0J-147500D01*
G01*
X103910000Y-52772500D01*
G75*
G02*
X103762500Y-52920000I-147500J0D01*
G01*
X103467500Y-52920000D01*
G75*
G02*
X103320000Y-52772500I0J147500D01*
G01*
G37*
%TD*%
%TO.C,R131*%
G36*
G01*
X101700000Y-52772500D02*
X101700000Y-52427500D01*
G75*
G02*
X101847500Y-52280000I147500J0D01*
G01*
X102142500Y-52280000D01*
G75*
G02*
X102290000Y-52427500I0J-147500D01*
G01*
X102290000Y-52772500D01*
G75*
G02*
X102142500Y-52920000I-147500J0D01*
G01*
X101847500Y-52920000D01*
G75*
G02*
X101700000Y-52772500I0J147500D01*
G01*
G37*
G36*
G01*
X100730000Y-52772500D02*
X100730000Y-52427500D01*
G75*
G02*
X100877500Y-52280000I147500J0D01*
G01*
X101172500Y-52280000D01*
G75*
G02*
X101320000Y-52427500I0J-147500D01*
G01*
X101320000Y-52772500D01*
G75*
G02*
X101172500Y-52920000I-147500J0D01*
G01*
X100877500Y-52920000D01*
G75*
G02*
X100730000Y-52772500I0J147500D01*
G01*
G37*
%TD*%
%TO.C,R125*%
G36*
G01*
X104290000Y-51672500D02*
X104290000Y-51327500D01*
G75*
G02*
X104437500Y-51180000I147500J0D01*
G01*
X104732500Y-51180000D01*
G75*
G02*
X104880000Y-51327500I0J-147500D01*
G01*
X104880000Y-51672500D01*
G75*
G02*
X104732500Y-51820000I-147500J0D01*
G01*
X104437500Y-51820000D01*
G75*
G02*
X104290000Y-51672500I0J147500D01*
G01*
G37*
G36*
G01*
X103320000Y-51672500D02*
X103320000Y-51327500D01*
G75*
G02*
X103467500Y-51180000I147500J0D01*
G01*
X103762500Y-51180000D01*
G75*
G02*
X103910000Y-51327500I0J-147500D01*
G01*
X103910000Y-51672500D01*
G75*
G02*
X103762500Y-51820000I-147500J0D01*
G01*
X103467500Y-51820000D01*
G75*
G02*
X103320000Y-51672500I0J147500D01*
G01*
G37*
%TD*%
%TO.C,R123*%
G36*
G01*
X101690000Y-51672500D02*
X101690000Y-51327500D01*
G75*
G02*
X101837500Y-51180000I147500J0D01*
G01*
X102132500Y-51180000D01*
G75*
G02*
X102280000Y-51327500I0J-147500D01*
G01*
X102280000Y-51672500D01*
G75*
G02*
X102132500Y-51820000I-147500J0D01*
G01*
X101837500Y-51820000D01*
G75*
G02*
X101690000Y-51672500I0J147500D01*
G01*
G37*
G36*
G01*
X100720000Y-51672500D02*
X100720000Y-51327500D01*
G75*
G02*
X100867500Y-51180000I147500J0D01*
G01*
X101162500Y-51180000D01*
G75*
G02*
X101310000Y-51327500I0J-147500D01*
G01*
X101310000Y-51672500D01*
G75*
G02*
X101162500Y-51820000I-147500J0D01*
G01*
X100867500Y-51820000D01*
G75*
G02*
X100720000Y-51672500I0J147500D01*
G01*
G37*
%TD*%
D28*
%TO.C,D30*%
X131050000Y-48312500D03*
X130050000Y-48312500D03*
X130550000Y-48312500D03*
X129550000Y-48312500D03*
X131550000Y-48312500D03*
X129550000Y-49087500D03*
X130050000Y-49087500D03*
X130550000Y-49087500D03*
X131050000Y-49087500D03*
X131550000Y-49087500D03*
%TD*%
%TO.C,D23*%
X147350000Y-59162500D03*
X146350000Y-59162500D03*
X146850000Y-59162500D03*
X145850000Y-59162500D03*
X147850000Y-59162500D03*
X145850000Y-59937500D03*
X146350000Y-59937500D03*
X146850000Y-59937500D03*
X147350000Y-59937500D03*
X147850000Y-59937500D03*
%TD*%
%TO.C,C143*%
G36*
G01*
X141627500Y-50090000D02*
X141972500Y-50090000D01*
G75*
G02*
X142120000Y-50237500I0J-147500D01*
G01*
X142120000Y-50532500D01*
G75*
G02*
X141972500Y-50680000I-147500J0D01*
G01*
X141627500Y-50680000D01*
G75*
G02*
X141480000Y-50532500I0J147500D01*
G01*
X141480000Y-50237500D01*
G75*
G02*
X141627500Y-50090000I147500J0D01*
G01*
G37*
G36*
G01*
X141627500Y-49120000D02*
X141972500Y-49120000D01*
G75*
G02*
X142120000Y-49267500I0J-147500D01*
G01*
X142120000Y-49562500D01*
G75*
G02*
X141972500Y-49710000I-147500J0D01*
G01*
X141627500Y-49710000D01*
G75*
G02*
X141480000Y-49562500I0J147500D01*
G01*
X141480000Y-49267500D01*
G75*
G02*
X141627500Y-49120000I147500J0D01*
G01*
G37*
%TD*%
%TO.C,C142*%
G36*
G01*
X142627500Y-50090000D02*
X142972500Y-50090000D01*
G75*
G02*
X143120000Y-50237500I0J-147500D01*
G01*
X143120000Y-50532500D01*
G75*
G02*
X142972500Y-50680000I-147500J0D01*
G01*
X142627500Y-50680000D01*
G75*
G02*
X142480000Y-50532500I0J147500D01*
G01*
X142480000Y-50237500D01*
G75*
G02*
X142627500Y-50090000I147500J0D01*
G01*
G37*
G36*
G01*
X142627500Y-49120000D02*
X142972500Y-49120000D01*
G75*
G02*
X143120000Y-49267500I0J-147500D01*
G01*
X143120000Y-49562500D01*
G75*
G02*
X142972500Y-49710000I-147500J0D01*
G01*
X142627500Y-49710000D01*
G75*
G02*
X142480000Y-49562500I0J147500D01*
G01*
X142480000Y-49267500D01*
G75*
G02*
X142627500Y-49120000I147500J0D01*
G01*
G37*
%TD*%
%TO.C,D26*%
X97000000Y-54087500D03*
X98000000Y-54087500D03*
X97500000Y-54087500D03*
X98500000Y-54087500D03*
X96500000Y-54087500D03*
X98500000Y-53312500D03*
X98000000Y-53312500D03*
X97500000Y-53312500D03*
X97000000Y-53312500D03*
X96500000Y-53312500D03*
%TD*%
%TO.C,D25*%
X106800000Y-53687500D03*
X107800000Y-53687500D03*
X107300000Y-53687500D03*
X108300000Y-53687500D03*
X106300000Y-53687500D03*
X108300000Y-52912500D03*
X107800000Y-52912500D03*
X107300000Y-52912500D03*
X106800000Y-52912500D03*
X106300000Y-52912500D03*
%TD*%
D29*
%TO.C,C170*%
X95050000Y-51700000D03*
X95050000Y-49600000D03*
%TD*%
%TO.C,C139*%
X107400000Y-49300000D03*
X107400000Y-51400000D03*
%TD*%
%TO.C,R134*%
G36*
G01*
X95022500Y-60110000D02*
X94677500Y-60110000D01*
G75*
G02*
X94530000Y-59962500I0J147500D01*
G01*
X94530000Y-59667500D01*
G75*
G02*
X94677500Y-59520000I147500J0D01*
G01*
X95022500Y-59520000D01*
G75*
G02*
X95170000Y-59667500I0J-147500D01*
G01*
X95170000Y-59962500D01*
G75*
G02*
X95022500Y-60110000I-147500J0D01*
G01*
G37*
G36*
G01*
X95022500Y-61080000D02*
X94677500Y-61080000D01*
G75*
G02*
X94530000Y-60932500I0J147500D01*
G01*
X94530000Y-60637500D01*
G75*
G02*
X94677500Y-60490000I147500J0D01*
G01*
X95022500Y-60490000D01*
G75*
G02*
X95170000Y-60637500I0J-147500D01*
G01*
X95170000Y-60932500D01*
G75*
G02*
X95022500Y-61080000I-147500J0D01*
G01*
G37*
%TD*%
D26*
%TO.C,R13*%
X170600000Y-62500000D03*
X172000000Y-62500000D03*
%TD*%
%TO.C,C151*%
G36*
G01*
X90240000Y-51472500D02*
X90240000Y-51127500D01*
G75*
G02*
X90387500Y-50980000I147500J0D01*
G01*
X90682500Y-50980000D01*
G75*
G02*
X90830000Y-51127500I0J-147500D01*
G01*
X90830000Y-51472500D01*
G75*
G02*
X90682500Y-51620000I-147500J0D01*
G01*
X90387500Y-51620000D01*
G75*
G02*
X90240000Y-51472500I0J147500D01*
G01*
G37*
G36*
G01*
X89270000Y-51472500D02*
X89270000Y-51127500D01*
G75*
G02*
X89417500Y-50980000I147500J0D01*
G01*
X89712500Y-50980000D01*
G75*
G02*
X89860000Y-51127500I0J-147500D01*
G01*
X89860000Y-51472500D01*
G75*
G02*
X89712500Y-51620000I-147500J0D01*
G01*
X89417500Y-51620000D01*
G75*
G02*
X89270000Y-51472500I0J147500D01*
G01*
G37*
%TD*%
%TO.C,C149*%
G36*
G01*
X99890000Y-56422500D02*
X99890000Y-56077500D01*
G75*
G02*
X100037500Y-55930000I147500J0D01*
G01*
X100332500Y-55930000D01*
G75*
G02*
X100480000Y-56077500I0J-147500D01*
G01*
X100480000Y-56422500D01*
G75*
G02*
X100332500Y-56570000I-147500J0D01*
G01*
X100037500Y-56570000D01*
G75*
G02*
X99890000Y-56422500I0J147500D01*
G01*
G37*
G36*
G01*
X98920000Y-56422500D02*
X98920000Y-56077500D01*
G75*
G02*
X99067500Y-55930000I147500J0D01*
G01*
X99362500Y-55930000D01*
G75*
G02*
X99510000Y-56077500I0J-147500D01*
G01*
X99510000Y-56422500D01*
G75*
G02*
X99362500Y-56570000I-147500J0D01*
G01*
X99067500Y-56570000D01*
G75*
G02*
X98920000Y-56422500I0J147500D01*
G01*
G37*
%TD*%
D30*
%TO.C,BAT1*%
X98050000Y-89000000D03*
X96550000Y-89000000D03*
%TD*%
D18*
%TO.C,Y2*%
X110000000Y-67850000D03*
X110000000Y-66050000D03*
X112300000Y-67850000D03*
X112300000Y-66050000D03*
%TD*%
D31*
%TO.C,U11*%
X125550000Y-100850000D03*
X129050000Y-100850000D03*
D32*
X127300000Y-100850000D03*
D33*
X126700000Y-100275000D03*
X127100000Y-100275000D03*
X128300000Y-100275000D03*
X127500000Y-100275000D03*
X127900000Y-100275000D03*
X126300000Y-100275000D03*
X125900000Y-100275000D03*
X128700000Y-100275000D03*
X125900000Y-101425000D03*
X126300000Y-101425000D03*
X127100000Y-101425000D03*
X126700000Y-101425000D03*
X127900000Y-101425000D03*
X127500000Y-101425000D03*
X128300000Y-101425000D03*
X128700000Y-101425000D03*
%TD*%
D34*
%TO.C,U10*%
X115550000Y-61400000D03*
X115550000Y-59500000D03*
X112850000Y-61400000D03*
X112850000Y-60450000D03*
X112850000Y-59500000D03*
%TD*%
D35*
%TO.C,U8*%
X120850000Y-76005000D03*
X120350000Y-76005000D03*
X119850000Y-76005000D03*
X119350000Y-76005000D03*
X119350000Y-76595000D03*
X119850000Y-76595000D03*
X120350000Y-76595000D03*
D36*
X120850000Y-76590000D03*
%TD*%
D37*
%TO.C,U1*%
X152650000Y-74300000D03*
X152650000Y-71700000D03*
X153600000Y-74300000D03*
X154550000Y-74300000D03*
X153600000Y-71700000D03*
X154550000Y-71700000D03*
%TD*%
%TO.C,R121*%
G36*
G01*
X110410000Y-64527500D02*
X110410000Y-64872500D01*
G75*
G02*
X110262500Y-65020000I-147500J0D01*
G01*
X109967500Y-65020000D01*
G75*
G02*
X109820000Y-64872500I0J147500D01*
G01*
X109820000Y-64527500D01*
G75*
G02*
X109967500Y-64380000I147500J0D01*
G01*
X110262500Y-64380000D01*
G75*
G02*
X110410000Y-64527500I0J-147500D01*
G01*
G37*
G36*
G01*
X111380000Y-64527500D02*
X111380000Y-64872500D01*
G75*
G02*
X111232500Y-65020000I-147500J0D01*
G01*
X110937500Y-65020000D01*
G75*
G02*
X110790000Y-64872500I0J147500D01*
G01*
X110790000Y-64527500D01*
G75*
G02*
X110937500Y-64380000I147500J0D01*
G01*
X111232500Y-64380000D01*
G75*
G02*
X111380000Y-64527500I0J-147500D01*
G01*
G37*
%TD*%
%TO.C,R120*%
G36*
G01*
X101922500Y-70360000D02*
X101577500Y-70360000D01*
G75*
G02*
X101430000Y-70212500I0J147500D01*
G01*
X101430000Y-69917500D01*
G75*
G02*
X101577500Y-69770000I147500J0D01*
G01*
X101922500Y-69770000D01*
G75*
G02*
X102070000Y-69917500I0J-147500D01*
G01*
X102070000Y-70212500D01*
G75*
G02*
X101922500Y-70360000I-147500J0D01*
G01*
G37*
G36*
G01*
X101922500Y-71330000D02*
X101577500Y-71330000D01*
G75*
G02*
X101430000Y-71182500I0J147500D01*
G01*
X101430000Y-70887500D01*
G75*
G02*
X101577500Y-70740000I147500J0D01*
G01*
X101922500Y-70740000D01*
G75*
G02*
X102070000Y-70887500I0J-147500D01*
G01*
X102070000Y-71182500D01*
G75*
G02*
X101922500Y-71330000I-147500J0D01*
G01*
G37*
%TD*%
%TO.C,R119*%
G36*
G01*
X103022500Y-70360000D02*
X102677500Y-70360000D01*
G75*
G02*
X102530000Y-70212500I0J147500D01*
G01*
X102530000Y-69917500D01*
G75*
G02*
X102677500Y-69770000I147500J0D01*
G01*
X103022500Y-69770000D01*
G75*
G02*
X103170000Y-69917500I0J-147500D01*
G01*
X103170000Y-70212500D01*
G75*
G02*
X103022500Y-70360000I-147500J0D01*
G01*
G37*
G36*
G01*
X103022500Y-71330000D02*
X102677500Y-71330000D01*
G75*
G02*
X102530000Y-71182500I0J147500D01*
G01*
X102530000Y-70887500D01*
G75*
G02*
X102677500Y-70740000I147500J0D01*
G01*
X103022500Y-70740000D01*
G75*
G02*
X103170000Y-70887500I0J-147500D01*
G01*
X103170000Y-71182500D01*
G75*
G02*
X103022500Y-71330000I-147500J0D01*
G01*
G37*
%TD*%
%TO.C,R118*%
G36*
G01*
X103727500Y-69490000D02*
X104072500Y-69490000D01*
G75*
G02*
X104220000Y-69637500I0J-147500D01*
G01*
X104220000Y-69932500D01*
G75*
G02*
X104072500Y-70080000I-147500J0D01*
G01*
X103727500Y-70080000D01*
G75*
G02*
X103580000Y-69932500I0J147500D01*
G01*
X103580000Y-69637500D01*
G75*
G02*
X103727500Y-69490000I147500J0D01*
G01*
G37*
G36*
G01*
X103727500Y-68520000D02*
X104072500Y-68520000D01*
G75*
G02*
X104220000Y-68667500I0J-147500D01*
G01*
X104220000Y-68962500D01*
G75*
G02*
X104072500Y-69110000I-147500J0D01*
G01*
X103727500Y-69110000D01*
G75*
G02*
X103580000Y-68962500I0J147500D01*
G01*
X103580000Y-68667500D01*
G75*
G02*
X103727500Y-68520000I147500J0D01*
G01*
G37*
%TD*%
D26*
%TO.C,R113*%
X111600000Y-63400000D03*
X110200000Y-63400000D03*
%TD*%
%TO.C,R107*%
G36*
G01*
X89090000Y-58622500D02*
X89090000Y-58277500D01*
G75*
G02*
X89237500Y-58130000I147500J0D01*
G01*
X89532500Y-58130000D01*
G75*
G02*
X89680000Y-58277500I0J-147500D01*
G01*
X89680000Y-58622500D01*
G75*
G02*
X89532500Y-58770000I-147500J0D01*
G01*
X89237500Y-58770000D01*
G75*
G02*
X89090000Y-58622500I0J147500D01*
G01*
G37*
G36*
G01*
X88120000Y-58622500D02*
X88120000Y-58277500D01*
G75*
G02*
X88267500Y-58130000I147500J0D01*
G01*
X88562500Y-58130000D01*
G75*
G02*
X88710000Y-58277500I0J-147500D01*
G01*
X88710000Y-58622500D01*
G75*
G02*
X88562500Y-58770000I-147500J0D01*
G01*
X88267500Y-58770000D01*
G75*
G02*
X88120000Y-58622500I0J147500D01*
G01*
G37*
%TD*%
%TO.C,R101*%
G36*
G01*
X112277500Y-74590000D02*
X112622500Y-74590000D01*
G75*
G02*
X112770000Y-74737500I0J-147500D01*
G01*
X112770000Y-75032500D01*
G75*
G02*
X112622500Y-75180000I-147500J0D01*
G01*
X112277500Y-75180000D01*
G75*
G02*
X112130000Y-75032500I0J147500D01*
G01*
X112130000Y-74737500D01*
G75*
G02*
X112277500Y-74590000I147500J0D01*
G01*
G37*
G36*
G01*
X112277500Y-73620000D02*
X112622500Y-73620000D01*
G75*
G02*
X112770000Y-73767500I0J-147500D01*
G01*
X112770000Y-74062500D01*
G75*
G02*
X112622500Y-74210000I-147500J0D01*
G01*
X112277500Y-74210000D01*
G75*
G02*
X112130000Y-74062500I0J147500D01*
G01*
X112130000Y-73767500D01*
G75*
G02*
X112277500Y-73620000I147500J0D01*
G01*
G37*
%TD*%
%TO.C,R100*%
G36*
G01*
X111277500Y-74590000D02*
X111622500Y-74590000D01*
G75*
G02*
X111770000Y-74737500I0J-147500D01*
G01*
X111770000Y-75032500D01*
G75*
G02*
X111622500Y-75180000I-147500J0D01*
G01*
X111277500Y-75180000D01*
G75*
G02*
X111130000Y-75032500I0J147500D01*
G01*
X111130000Y-74737500D01*
G75*
G02*
X111277500Y-74590000I147500J0D01*
G01*
G37*
G36*
G01*
X111277500Y-73620000D02*
X111622500Y-73620000D01*
G75*
G02*
X111770000Y-73767500I0J-147500D01*
G01*
X111770000Y-74062500D01*
G75*
G02*
X111622500Y-74210000I-147500J0D01*
G01*
X111277500Y-74210000D01*
G75*
G02*
X111130000Y-74062500I0J147500D01*
G01*
X111130000Y-73767500D01*
G75*
G02*
X111277500Y-73620000I147500J0D01*
G01*
G37*
%TD*%
%TO.C,R99*%
G36*
G01*
X110277500Y-74590000D02*
X110622500Y-74590000D01*
G75*
G02*
X110770000Y-74737500I0J-147500D01*
G01*
X110770000Y-75032500D01*
G75*
G02*
X110622500Y-75180000I-147500J0D01*
G01*
X110277500Y-75180000D01*
G75*
G02*
X110130000Y-75032500I0J147500D01*
G01*
X110130000Y-74737500D01*
G75*
G02*
X110277500Y-74590000I147500J0D01*
G01*
G37*
G36*
G01*
X110277500Y-73620000D02*
X110622500Y-73620000D01*
G75*
G02*
X110770000Y-73767500I0J-147500D01*
G01*
X110770000Y-74062500D01*
G75*
G02*
X110622500Y-74210000I-147500J0D01*
G01*
X110277500Y-74210000D01*
G75*
G02*
X110130000Y-74062500I0J147500D01*
G01*
X110130000Y-73767500D01*
G75*
G02*
X110277500Y-73620000I147500J0D01*
G01*
G37*
%TD*%
%TO.C,R98*%
G36*
G01*
X109277500Y-74590000D02*
X109622500Y-74590000D01*
G75*
G02*
X109770000Y-74737500I0J-147500D01*
G01*
X109770000Y-75032500D01*
G75*
G02*
X109622500Y-75180000I-147500J0D01*
G01*
X109277500Y-75180000D01*
G75*
G02*
X109130000Y-75032500I0J147500D01*
G01*
X109130000Y-74737500D01*
G75*
G02*
X109277500Y-74590000I147500J0D01*
G01*
G37*
G36*
G01*
X109277500Y-73620000D02*
X109622500Y-73620000D01*
G75*
G02*
X109770000Y-73767500I0J-147500D01*
G01*
X109770000Y-74062500D01*
G75*
G02*
X109622500Y-74210000I-147500J0D01*
G01*
X109277500Y-74210000D01*
G75*
G02*
X109130000Y-74062500I0J147500D01*
G01*
X109130000Y-73767500D01*
G75*
G02*
X109277500Y-73620000I147500J0D01*
G01*
G37*
%TD*%
D14*
%TO.C,R94*%
X116900000Y-63650000D03*
X116900000Y-65050000D03*
%TD*%
%TO.C,R92*%
G36*
G01*
X111672500Y-60260000D02*
X111327500Y-60260000D01*
G75*
G02*
X111180000Y-60112500I0J147500D01*
G01*
X111180000Y-59817500D01*
G75*
G02*
X111327500Y-59670000I147500J0D01*
G01*
X111672500Y-59670000D01*
G75*
G02*
X111820000Y-59817500I0J-147500D01*
G01*
X111820000Y-60112500D01*
G75*
G02*
X111672500Y-60260000I-147500J0D01*
G01*
G37*
G36*
G01*
X111672500Y-61230000D02*
X111327500Y-61230000D01*
G75*
G02*
X111180000Y-61082500I0J147500D01*
G01*
X111180000Y-60787500D01*
G75*
G02*
X111327500Y-60640000I147500J0D01*
G01*
X111672500Y-60640000D01*
G75*
G02*
X111820000Y-60787500I0J-147500D01*
G01*
X111820000Y-61082500D01*
G75*
G02*
X111672500Y-61230000I-147500J0D01*
G01*
G37*
%TD*%
%TO.C,R89*%
G36*
G01*
X126827500Y-49990000D02*
X127172500Y-49990000D01*
G75*
G02*
X127320000Y-50137500I0J-147500D01*
G01*
X127320000Y-50432500D01*
G75*
G02*
X127172500Y-50580000I-147500J0D01*
G01*
X126827500Y-50580000D01*
G75*
G02*
X126680000Y-50432500I0J147500D01*
G01*
X126680000Y-50137500D01*
G75*
G02*
X126827500Y-49990000I147500J0D01*
G01*
G37*
G36*
G01*
X126827500Y-49020000D02*
X127172500Y-49020000D01*
G75*
G02*
X127320000Y-49167500I0J-147500D01*
G01*
X127320000Y-49462500D01*
G75*
G02*
X127172500Y-49610000I-147500J0D01*
G01*
X126827500Y-49610000D01*
G75*
G02*
X126680000Y-49462500I0J147500D01*
G01*
X126680000Y-49167500D01*
G75*
G02*
X126827500Y-49020000I147500J0D01*
G01*
G37*
%TD*%
%TO.C,R88*%
G36*
G01*
X135710000Y-43527500D02*
X135710000Y-43872500D01*
G75*
G02*
X135562500Y-44020000I-147500J0D01*
G01*
X135267500Y-44020000D01*
G75*
G02*
X135120000Y-43872500I0J147500D01*
G01*
X135120000Y-43527500D01*
G75*
G02*
X135267500Y-43380000I147500J0D01*
G01*
X135562500Y-43380000D01*
G75*
G02*
X135710000Y-43527500I0J-147500D01*
G01*
G37*
G36*
G01*
X136680000Y-43527500D02*
X136680000Y-43872500D01*
G75*
G02*
X136532500Y-44020000I-147500J0D01*
G01*
X136237500Y-44020000D01*
G75*
G02*
X136090000Y-43872500I0J147500D01*
G01*
X136090000Y-43527500D01*
G75*
G02*
X136237500Y-43380000I147500J0D01*
G01*
X136532500Y-43380000D01*
G75*
G02*
X136680000Y-43527500I0J-147500D01*
G01*
G37*
%TD*%
%TO.C,R87*%
G36*
G01*
X128227500Y-54690000D02*
X128572500Y-54690000D01*
G75*
G02*
X128720000Y-54837500I0J-147500D01*
G01*
X128720000Y-55132500D01*
G75*
G02*
X128572500Y-55280000I-147500J0D01*
G01*
X128227500Y-55280000D01*
G75*
G02*
X128080000Y-55132500I0J147500D01*
G01*
X128080000Y-54837500D01*
G75*
G02*
X128227500Y-54690000I147500J0D01*
G01*
G37*
G36*
G01*
X128227500Y-53720000D02*
X128572500Y-53720000D01*
G75*
G02*
X128720000Y-53867500I0J-147500D01*
G01*
X128720000Y-54162500D01*
G75*
G02*
X128572500Y-54310000I-147500J0D01*
G01*
X128227500Y-54310000D01*
G75*
G02*
X128080000Y-54162500I0J147500D01*
G01*
X128080000Y-53867500D01*
G75*
G02*
X128227500Y-53720000I147500J0D01*
G01*
G37*
%TD*%
%TO.C,R86*%
G36*
G01*
X131307500Y-54680000D02*
X131652500Y-54680000D01*
G75*
G02*
X131800000Y-54827500I0J-147500D01*
G01*
X131800000Y-55122500D01*
G75*
G02*
X131652500Y-55270000I-147500J0D01*
G01*
X131307500Y-55270000D01*
G75*
G02*
X131160000Y-55122500I0J147500D01*
G01*
X131160000Y-54827500D01*
G75*
G02*
X131307500Y-54680000I147500J0D01*
G01*
G37*
G36*
G01*
X131307500Y-53710000D02*
X131652500Y-53710000D01*
G75*
G02*
X131800000Y-53857500I0J-147500D01*
G01*
X131800000Y-54152500D01*
G75*
G02*
X131652500Y-54300000I-147500J0D01*
G01*
X131307500Y-54300000D01*
G75*
G02*
X131160000Y-54152500I0J147500D01*
G01*
X131160000Y-53857500D01*
G75*
G02*
X131307500Y-53710000I147500J0D01*
G01*
G37*
%TD*%
%TO.C,R82*%
G36*
G01*
X132328928Y-54680000D02*
X132673928Y-54680000D01*
G75*
G02*
X132821428Y-54827500I0J-147500D01*
G01*
X132821428Y-55122500D01*
G75*
G02*
X132673928Y-55270000I-147500J0D01*
G01*
X132328928Y-55270000D01*
G75*
G02*
X132181428Y-55122500I0J147500D01*
G01*
X132181428Y-54827500D01*
G75*
G02*
X132328928Y-54680000I147500J0D01*
G01*
G37*
G36*
G01*
X132328928Y-53710000D02*
X132673928Y-53710000D01*
G75*
G02*
X132821428Y-53857500I0J-147500D01*
G01*
X132821428Y-54152500D01*
G75*
G02*
X132673928Y-54300000I-147500J0D01*
G01*
X132328928Y-54300000D01*
G75*
G02*
X132181428Y-54152500I0J147500D01*
G01*
X132181428Y-53857500D01*
G75*
G02*
X132328928Y-53710000I147500J0D01*
G01*
G37*
%TD*%
%TO.C,R81*%
G36*
G01*
X135407500Y-54680000D02*
X135752500Y-54680000D01*
G75*
G02*
X135900000Y-54827500I0J-147500D01*
G01*
X135900000Y-55122500D01*
G75*
G02*
X135752500Y-55270000I-147500J0D01*
G01*
X135407500Y-55270000D01*
G75*
G02*
X135260000Y-55122500I0J147500D01*
G01*
X135260000Y-54827500D01*
G75*
G02*
X135407500Y-54680000I147500J0D01*
G01*
G37*
G36*
G01*
X135407500Y-53710000D02*
X135752500Y-53710000D01*
G75*
G02*
X135900000Y-53857500I0J-147500D01*
G01*
X135900000Y-54152500D01*
G75*
G02*
X135752500Y-54300000I-147500J0D01*
G01*
X135407500Y-54300000D01*
G75*
G02*
X135260000Y-54152500I0J147500D01*
G01*
X135260000Y-53857500D01*
G75*
G02*
X135407500Y-53710000I147500J0D01*
G01*
G37*
%TD*%
%TO.C,R73*%
G36*
G01*
X120072500Y-74210000D02*
X119727500Y-74210000D01*
G75*
G02*
X119580000Y-74062500I0J147500D01*
G01*
X119580000Y-73767500D01*
G75*
G02*
X119727500Y-73620000I147500J0D01*
G01*
X120072500Y-73620000D01*
G75*
G02*
X120220000Y-73767500I0J-147500D01*
G01*
X120220000Y-74062500D01*
G75*
G02*
X120072500Y-74210000I-147500J0D01*
G01*
G37*
G36*
G01*
X120072500Y-75180000D02*
X119727500Y-75180000D01*
G75*
G02*
X119580000Y-75032500I0J147500D01*
G01*
X119580000Y-74737500D01*
G75*
G02*
X119727500Y-74590000I147500J0D01*
G01*
X120072500Y-74590000D01*
G75*
G02*
X120220000Y-74737500I0J-147500D01*
G01*
X120220000Y-75032500D01*
G75*
G02*
X120072500Y-75180000I-147500J0D01*
G01*
G37*
%TD*%
%TO.C,R72*%
G36*
G01*
X118727500Y-78390000D02*
X119072500Y-78390000D01*
G75*
G02*
X119220000Y-78537500I0J-147500D01*
G01*
X119220000Y-78832500D01*
G75*
G02*
X119072500Y-78980000I-147500J0D01*
G01*
X118727500Y-78980000D01*
G75*
G02*
X118580000Y-78832500I0J147500D01*
G01*
X118580000Y-78537500D01*
G75*
G02*
X118727500Y-78390000I147500J0D01*
G01*
G37*
G36*
G01*
X118727500Y-77420000D02*
X119072500Y-77420000D01*
G75*
G02*
X119220000Y-77567500I0J-147500D01*
G01*
X119220000Y-77862500D01*
G75*
G02*
X119072500Y-78010000I-147500J0D01*
G01*
X118727500Y-78010000D01*
G75*
G02*
X118580000Y-77862500I0J147500D01*
G01*
X118580000Y-77567500D01*
G75*
G02*
X118727500Y-77420000I147500J0D01*
G01*
G37*
%TD*%
%TO.C,R71*%
G36*
G01*
X119072500Y-74210000D02*
X118727500Y-74210000D01*
G75*
G02*
X118580000Y-74062500I0J147500D01*
G01*
X118580000Y-73767500D01*
G75*
G02*
X118727500Y-73620000I147500J0D01*
G01*
X119072500Y-73620000D01*
G75*
G02*
X119220000Y-73767500I0J-147500D01*
G01*
X119220000Y-74062500D01*
G75*
G02*
X119072500Y-74210000I-147500J0D01*
G01*
G37*
G36*
G01*
X119072500Y-75180000D02*
X118727500Y-75180000D01*
G75*
G02*
X118580000Y-75032500I0J147500D01*
G01*
X118580000Y-74737500D01*
G75*
G02*
X118727500Y-74590000I147500J0D01*
G01*
X119072500Y-74590000D01*
G75*
G02*
X119220000Y-74737500I0J-147500D01*
G01*
X119220000Y-75032500D01*
G75*
G02*
X119072500Y-75180000I-147500J0D01*
G01*
G37*
%TD*%
%TO.C,R68*%
G36*
G01*
X135860000Y-55827500D02*
X135860000Y-56172500D01*
G75*
G02*
X135712500Y-56320000I-147500J0D01*
G01*
X135417500Y-56320000D01*
G75*
G02*
X135270000Y-56172500I0J147500D01*
G01*
X135270000Y-55827500D01*
G75*
G02*
X135417500Y-55680000I147500J0D01*
G01*
X135712500Y-55680000D01*
G75*
G02*
X135860000Y-55827500I0J-147500D01*
G01*
G37*
G36*
G01*
X136830000Y-55827500D02*
X136830000Y-56172500D01*
G75*
G02*
X136682500Y-56320000I-147500J0D01*
G01*
X136387500Y-56320000D01*
G75*
G02*
X136240000Y-56172500I0J147500D01*
G01*
X136240000Y-55827500D01*
G75*
G02*
X136387500Y-55680000I147500J0D01*
G01*
X136682500Y-55680000D01*
G75*
G02*
X136830000Y-55827500I0J-147500D01*
G01*
G37*
%TD*%
%TO.C,R67*%
G36*
G01*
X132672500Y-56300000D02*
X132327500Y-56300000D01*
G75*
G02*
X132180000Y-56152500I0J147500D01*
G01*
X132180000Y-55857500D01*
G75*
G02*
X132327500Y-55710000I147500J0D01*
G01*
X132672500Y-55710000D01*
G75*
G02*
X132820000Y-55857500I0J-147500D01*
G01*
X132820000Y-56152500D01*
G75*
G02*
X132672500Y-56300000I-147500J0D01*
G01*
G37*
G36*
G01*
X132672500Y-57270000D02*
X132327500Y-57270000D01*
G75*
G02*
X132180000Y-57122500I0J147500D01*
G01*
X132180000Y-56827500D01*
G75*
G02*
X132327500Y-56680000I147500J0D01*
G01*
X132672500Y-56680000D01*
G75*
G02*
X132820000Y-56827500I0J-147500D01*
G01*
X132820000Y-57122500D01*
G75*
G02*
X132672500Y-57270000I-147500J0D01*
G01*
G37*
%TD*%
%TO.C,R64*%
G36*
G01*
X131652500Y-56310000D02*
X131307500Y-56310000D01*
G75*
G02*
X131160000Y-56162500I0J147500D01*
G01*
X131160000Y-55867500D01*
G75*
G02*
X131307500Y-55720000I147500J0D01*
G01*
X131652500Y-55720000D01*
G75*
G02*
X131800000Y-55867500I0J-147500D01*
G01*
X131800000Y-56162500D01*
G75*
G02*
X131652500Y-56310000I-147500J0D01*
G01*
G37*
G36*
G01*
X131652500Y-57280000D02*
X131307500Y-57280000D01*
G75*
G02*
X131160000Y-57132500I0J147500D01*
G01*
X131160000Y-56837500D01*
G75*
G02*
X131307500Y-56690000I147500J0D01*
G01*
X131652500Y-56690000D01*
G75*
G02*
X131800000Y-56837500I0J-147500D01*
G01*
X131800000Y-57132500D01*
G75*
G02*
X131652500Y-57280000I-147500J0D01*
G01*
G37*
%TD*%
%TO.C,R63*%
G36*
G01*
X128572500Y-56310000D02*
X128227500Y-56310000D01*
G75*
G02*
X128080000Y-56162500I0J147500D01*
G01*
X128080000Y-55867500D01*
G75*
G02*
X128227500Y-55720000I147500J0D01*
G01*
X128572500Y-55720000D01*
G75*
G02*
X128720000Y-55867500I0J-147500D01*
G01*
X128720000Y-56162500D01*
G75*
G02*
X128572500Y-56310000I-147500J0D01*
G01*
G37*
G36*
G01*
X128572500Y-57280000D02*
X128227500Y-57280000D01*
G75*
G02*
X128080000Y-57132500I0J147500D01*
G01*
X128080000Y-56837500D01*
G75*
G02*
X128227500Y-56690000I147500J0D01*
G01*
X128572500Y-56690000D01*
G75*
G02*
X128720000Y-56837500I0J-147500D01*
G01*
X128720000Y-57132500D01*
G75*
G02*
X128572500Y-57280000I-147500J0D01*
G01*
G37*
%TD*%
%TO.C,R62*%
G36*
G01*
X135710000Y-50127500D02*
X135710000Y-50472500D01*
G75*
G02*
X135562500Y-50620000I-147500J0D01*
G01*
X135267500Y-50620000D01*
G75*
G02*
X135120000Y-50472500I0J147500D01*
G01*
X135120000Y-50127500D01*
G75*
G02*
X135267500Y-49980000I147500J0D01*
G01*
X135562500Y-49980000D01*
G75*
G02*
X135710000Y-50127500I0J-147500D01*
G01*
G37*
G36*
G01*
X136680000Y-50127500D02*
X136680000Y-50472500D01*
G75*
G02*
X136532500Y-50620000I-147500J0D01*
G01*
X136237500Y-50620000D01*
G75*
G02*
X136090000Y-50472500I0J147500D01*
G01*
X136090000Y-50127500D01*
G75*
G02*
X136237500Y-49980000I147500J0D01*
G01*
X136532500Y-49980000D01*
G75*
G02*
X136680000Y-50127500I0J-147500D01*
G01*
G37*
%TD*%
%TO.C,R61*%
G36*
G01*
X135710000Y-51127500D02*
X135710000Y-51472500D01*
G75*
G02*
X135562500Y-51620000I-147500J0D01*
G01*
X135267500Y-51620000D01*
G75*
G02*
X135120000Y-51472500I0J147500D01*
G01*
X135120000Y-51127500D01*
G75*
G02*
X135267500Y-50980000I147500J0D01*
G01*
X135562500Y-50980000D01*
G75*
G02*
X135710000Y-51127500I0J-147500D01*
G01*
G37*
G36*
G01*
X136680000Y-51127500D02*
X136680000Y-51472500D01*
G75*
G02*
X136532500Y-51620000I-147500J0D01*
G01*
X136237500Y-51620000D01*
G75*
G02*
X136090000Y-51472500I0J147500D01*
G01*
X136090000Y-51127500D01*
G75*
G02*
X136237500Y-50980000I147500J0D01*
G01*
X136532500Y-50980000D01*
G75*
G02*
X136680000Y-51127500I0J-147500D01*
G01*
G37*
%TD*%
%TO.C,R60*%
G36*
G01*
X126172500Y-49610000D02*
X125827500Y-49610000D01*
G75*
G02*
X125680000Y-49462500I0J147500D01*
G01*
X125680000Y-49167500D01*
G75*
G02*
X125827500Y-49020000I147500J0D01*
G01*
X126172500Y-49020000D01*
G75*
G02*
X126320000Y-49167500I0J-147500D01*
G01*
X126320000Y-49462500D01*
G75*
G02*
X126172500Y-49610000I-147500J0D01*
G01*
G37*
G36*
G01*
X126172500Y-50580000D02*
X125827500Y-50580000D01*
G75*
G02*
X125680000Y-50432500I0J147500D01*
G01*
X125680000Y-50137500D01*
G75*
G02*
X125827500Y-49990000I147500J0D01*
G01*
X126172500Y-49990000D01*
G75*
G02*
X126320000Y-50137500I0J-147500D01*
G01*
X126320000Y-50432500D01*
G75*
G02*
X126172500Y-50580000I-147500J0D01*
G01*
G37*
%TD*%
%TO.C,R59*%
G36*
G01*
X126690000Y-51472500D02*
X126690000Y-51127500D01*
G75*
G02*
X126837500Y-50980000I147500J0D01*
G01*
X127132500Y-50980000D01*
G75*
G02*
X127280000Y-51127500I0J-147500D01*
G01*
X127280000Y-51472500D01*
G75*
G02*
X127132500Y-51620000I-147500J0D01*
G01*
X126837500Y-51620000D01*
G75*
G02*
X126690000Y-51472500I0J147500D01*
G01*
G37*
G36*
G01*
X125720000Y-51472500D02*
X125720000Y-51127500D01*
G75*
G02*
X125867500Y-50980000I147500J0D01*
G01*
X126162500Y-50980000D01*
G75*
G02*
X126310000Y-51127500I0J-147500D01*
G01*
X126310000Y-51472500D01*
G75*
G02*
X126162500Y-51620000I-147500J0D01*
G01*
X125867500Y-51620000D01*
G75*
G02*
X125720000Y-51472500I0J147500D01*
G01*
G37*
%TD*%
%TO.C,R56*%
G36*
G01*
X113910000Y-73727500D02*
X113910000Y-74072500D01*
G75*
G02*
X113762500Y-74220000I-147500J0D01*
G01*
X113467500Y-74220000D01*
G75*
G02*
X113320000Y-74072500I0J147500D01*
G01*
X113320000Y-73727500D01*
G75*
G02*
X113467500Y-73580000I147500J0D01*
G01*
X113762500Y-73580000D01*
G75*
G02*
X113910000Y-73727500I0J-147500D01*
G01*
G37*
G36*
G01*
X114880000Y-73727500D02*
X114880000Y-74072500D01*
G75*
G02*
X114732500Y-74220000I-147500J0D01*
G01*
X114437500Y-74220000D01*
G75*
G02*
X114290000Y-74072500I0J147500D01*
G01*
X114290000Y-73727500D01*
G75*
G02*
X114437500Y-73580000I147500J0D01*
G01*
X114732500Y-73580000D01*
G75*
G02*
X114880000Y-73727500I0J-147500D01*
G01*
G37*
%TD*%
%TO.C,R55*%
G36*
G01*
X113910000Y-74727500D02*
X113910000Y-75072500D01*
G75*
G02*
X113762500Y-75220000I-147500J0D01*
G01*
X113467500Y-75220000D01*
G75*
G02*
X113320000Y-75072500I0J147500D01*
G01*
X113320000Y-74727500D01*
G75*
G02*
X113467500Y-74580000I147500J0D01*
G01*
X113762500Y-74580000D01*
G75*
G02*
X113910000Y-74727500I0J-147500D01*
G01*
G37*
G36*
G01*
X114880000Y-74727500D02*
X114880000Y-75072500D01*
G75*
G02*
X114732500Y-75220000I-147500J0D01*
G01*
X114437500Y-75220000D01*
G75*
G02*
X114290000Y-75072500I0J147500D01*
G01*
X114290000Y-74727500D01*
G75*
G02*
X114437500Y-74580000I147500J0D01*
G01*
X114732500Y-74580000D01*
G75*
G02*
X114880000Y-74727500I0J-147500D01*
G01*
G37*
%TD*%
%TO.C,R52*%
G36*
G01*
X127252500Y-59940000D02*
X126907500Y-59940000D01*
G75*
G02*
X126760000Y-59792500I0J147500D01*
G01*
X126760000Y-59497500D01*
G75*
G02*
X126907500Y-59350000I147500J0D01*
G01*
X127252500Y-59350000D01*
G75*
G02*
X127400000Y-59497500I0J-147500D01*
G01*
X127400000Y-59792500D01*
G75*
G02*
X127252500Y-59940000I-147500J0D01*
G01*
G37*
G36*
G01*
X127252500Y-60910000D02*
X126907500Y-60910000D01*
G75*
G02*
X126760000Y-60762500I0J147500D01*
G01*
X126760000Y-60467500D01*
G75*
G02*
X126907500Y-60320000I147500J0D01*
G01*
X127252500Y-60320000D01*
G75*
G02*
X127400000Y-60467500I0J-147500D01*
G01*
X127400000Y-60762500D01*
G75*
G02*
X127252500Y-60910000I-147500J0D01*
G01*
G37*
%TD*%
%TO.C,R48*%
G36*
G01*
X115227500Y-112690000D02*
X115572500Y-112690000D01*
G75*
G02*
X115720000Y-112837500I0J-147500D01*
G01*
X115720000Y-113132500D01*
G75*
G02*
X115572500Y-113280000I-147500J0D01*
G01*
X115227500Y-113280000D01*
G75*
G02*
X115080000Y-113132500I0J147500D01*
G01*
X115080000Y-112837500D01*
G75*
G02*
X115227500Y-112690000I147500J0D01*
G01*
G37*
G36*
G01*
X115227500Y-111720000D02*
X115572500Y-111720000D01*
G75*
G02*
X115720000Y-111867500I0J-147500D01*
G01*
X115720000Y-112162500D01*
G75*
G02*
X115572500Y-112310000I-147500J0D01*
G01*
X115227500Y-112310000D01*
G75*
G02*
X115080000Y-112162500I0J147500D01*
G01*
X115080000Y-111867500D01*
G75*
G02*
X115227500Y-111720000I147500J0D01*
G01*
G37*
%TD*%
%TO.C,R47*%
G36*
G01*
X116227500Y-112690000D02*
X116572500Y-112690000D01*
G75*
G02*
X116720000Y-112837500I0J-147500D01*
G01*
X116720000Y-113132500D01*
G75*
G02*
X116572500Y-113280000I-147500J0D01*
G01*
X116227500Y-113280000D01*
G75*
G02*
X116080000Y-113132500I0J147500D01*
G01*
X116080000Y-112837500D01*
G75*
G02*
X116227500Y-112690000I147500J0D01*
G01*
G37*
G36*
G01*
X116227500Y-111720000D02*
X116572500Y-111720000D01*
G75*
G02*
X116720000Y-111867500I0J-147500D01*
G01*
X116720000Y-112162500D01*
G75*
G02*
X116572500Y-112310000I-147500J0D01*
G01*
X116227500Y-112310000D01*
G75*
G02*
X116080000Y-112162500I0J147500D01*
G01*
X116080000Y-111867500D01*
G75*
G02*
X116227500Y-111720000I147500J0D01*
G01*
G37*
%TD*%
%TO.C,R46*%
G36*
G01*
X117227500Y-112690000D02*
X117572500Y-112690000D01*
G75*
G02*
X117720000Y-112837500I0J-147500D01*
G01*
X117720000Y-113132500D01*
G75*
G02*
X117572500Y-113280000I-147500J0D01*
G01*
X117227500Y-113280000D01*
G75*
G02*
X117080000Y-113132500I0J147500D01*
G01*
X117080000Y-112837500D01*
G75*
G02*
X117227500Y-112690000I147500J0D01*
G01*
G37*
G36*
G01*
X117227500Y-111720000D02*
X117572500Y-111720000D01*
G75*
G02*
X117720000Y-111867500I0J-147500D01*
G01*
X117720000Y-112162500D01*
G75*
G02*
X117572500Y-112310000I-147500J0D01*
G01*
X117227500Y-112310000D01*
G75*
G02*
X117080000Y-112162500I0J147500D01*
G01*
X117080000Y-111867500D01*
G75*
G02*
X117227500Y-111720000I147500J0D01*
G01*
G37*
%TD*%
%TO.C,R45*%
G36*
G01*
X118227500Y-112690000D02*
X118572500Y-112690000D01*
G75*
G02*
X118720000Y-112837500I0J-147500D01*
G01*
X118720000Y-113132500D01*
G75*
G02*
X118572500Y-113280000I-147500J0D01*
G01*
X118227500Y-113280000D01*
G75*
G02*
X118080000Y-113132500I0J147500D01*
G01*
X118080000Y-112837500D01*
G75*
G02*
X118227500Y-112690000I147500J0D01*
G01*
G37*
G36*
G01*
X118227500Y-111720000D02*
X118572500Y-111720000D01*
G75*
G02*
X118720000Y-111867500I0J-147500D01*
G01*
X118720000Y-112162500D01*
G75*
G02*
X118572500Y-112310000I-147500J0D01*
G01*
X118227500Y-112310000D01*
G75*
G02*
X118080000Y-112162500I0J147500D01*
G01*
X118080000Y-111867500D01*
G75*
G02*
X118227500Y-111720000I147500J0D01*
G01*
G37*
%TD*%
%TO.C,R14*%
G36*
G01*
X172977500Y-62940000D02*
X173322500Y-62940000D01*
G75*
G02*
X173470000Y-63087500I0J-147500D01*
G01*
X173470000Y-63382500D01*
G75*
G02*
X173322500Y-63530000I-147500J0D01*
G01*
X172977500Y-63530000D01*
G75*
G02*
X172830000Y-63382500I0J147500D01*
G01*
X172830000Y-63087500D01*
G75*
G02*
X172977500Y-62940000I147500J0D01*
G01*
G37*
G36*
G01*
X172977500Y-61970000D02*
X173322500Y-61970000D01*
G75*
G02*
X173470000Y-62117500I0J-147500D01*
G01*
X173470000Y-62412500D01*
G75*
G02*
X173322500Y-62560000I-147500J0D01*
G01*
X172977500Y-62560000D01*
G75*
G02*
X172830000Y-62412500I0J147500D01*
G01*
X172830000Y-62117500D01*
G75*
G02*
X172977500Y-61970000I147500J0D01*
G01*
G37*
%TD*%
%TO.C,R12*%
G36*
G01*
X172840000Y-61372500D02*
X172840000Y-61027500D01*
G75*
G02*
X172987500Y-60880000I147500J0D01*
G01*
X173282500Y-60880000D01*
G75*
G02*
X173430000Y-61027500I0J-147500D01*
G01*
X173430000Y-61372500D01*
G75*
G02*
X173282500Y-61520000I-147500J0D01*
G01*
X172987500Y-61520000D01*
G75*
G02*
X172840000Y-61372500I0J147500D01*
G01*
G37*
G36*
G01*
X171870000Y-61372500D02*
X171870000Y-61027500D01*
G75*
G02*
X172017500Y-60880000I147500J0D01*
G01*
X172312500Y-60880000D01*
G75*
G02*
X172460000Y-61027500I0J-147500D01*
G01*
X172460000Y-61372500D01*
G75*
G02*
X172312500Y-61520000I-147500J0D01*
G01*
X172017500Y-61520000D01*
G75*
G02*
X171870000Y-61372500I0J147500D01*
G01*
G37*
%TD*%
%TO.C,R11*%
G36*
G01*
X156490000Y-75772500D02*
X156490000Y-75427500D01*
G75*
G02*
X156637500Y-75280000I147500J0D01*
G01*
X156932500Y-75280000D01*
G75*
G02*
X157080000Y-75427500I0J-147500D01*
G01*
X157080000Y-75772500D01*
G75*
G02*
X156932500Y-75920000I-147500J0D01*
G01*
X156637500Y-75920000D01*
G75*
G02*
X156490000Y-75772500I0J147500D01*
G01*
G37*
G36*
G01*
X155520000Y-75772500D02*
X155520000Y-75427500D01*
G75*
G02*
X155667500Y-75280000I147500J0D01*
G01*
X155962500Y-75280000D01*
G75*
G02*
X156110000Y-75427500I0J-147500D01*
G01*
X156110000Y-75772500D01*
G75*
G02*
X155962500Y-75920000I-147500J0D01*
G01*
X155667500Y-75920000D01*
G75*
G02*
X155520000Y-75772500I0J147500D01*
G01*
G37*
%TD*%
%TO.C,R10*%
G36*
G01*
X154490000Y-75772500D02*
X154490000Y-75427500D01*
G75*
G02*
X154637500Y-75280000I147500J0D01*
G01*
X154932500Y-75280000D01*
G75*
G02*
X155080000Y-75427500I0J-147500D01*
G01*
X155080000Y-75772500D01*
G75*
G02*
X154932500Y-75920000I-147500J0D01*
G01*
X154637500Y-75920000D01*
G75*
G02*
X154490000Y-75772500I0J147500D01*
G01*
G37*
G36*
G01*
X153520000Y-75772500D02*
X153520000Y-75427500D01*
G75*
G02*
X153667500Y-75280000I147500J0D01*
G01*
X153962500Y-75280000D01*
G75*
G02*
X154110000Y-75427500I0J-147500D01*
G01*
X154110000Y-75772500D01*
G75*
G02*
X153962500Y-75920000I-147500J0D01*
G01*
X153667500Y-75920000D01*
G75*
G02*
X153520000Y-75772500I0J147500D01*
G01*
G37*
%TD*%
%TO.C,R9*%
G36*
G01*
X161627500Y-71090000D02*
X161972500Y-71090000D01*
G75*
G02*
X162120000Y-71237500I0J-147500D01*
G01*
X162120000Y-71532500D01*
G75*
G02*
X161972500Y-71680000I-147500J0D01*
G01*
X161627500Y-71680000D01*
G75*
G02*
X161480000Y-71532500I0J147500D01*
G01*
X161480000Y-71237500D01*
G75*
G02*
X161627500Y-71090000I147500J0D01*
G01*
G37*
G36*
G01*
X161627500Y-70120000D02*
X161972500Y-70120000D01*
G75*
G02*
X162120000Y-70267500I0J-147500D01*
G01*
X162120000Y-70562500D01*
G75*
G02*
X161972500Y-70710000I-147500J0D01*
G01*
X161627500Y-70710000D01*
G75*
G02*
X161480000Y-70562500I0J147500D01*
G01*
X161480000Y-70267500D01*
G75*
G02*
X161627500Y-70120000I147500J0D01*
G01*
G37*
%TD*%
%TO.C,R8*%
G36*
G01*
X156640000Y-74722500D02*
X156640000Y-74377500D01*
G75*
G02*
X156787500Y-74230000I147500J0D01*
G01*
X157082500Y-74230000D01*
G75*
G02*
X157230000Y-74377500I0J-147500D01*
G01*
X157230000Y-74722500D01*
G75*
G02*
X157082500Y-74870000I-147500J0D01*
G01*
X156787500Y-74870000D01*
G75*
G02*
X156640000Y-74722500I0J147500D01*
G01*
G37*
G36*
G01*
X155670000Y-74722500D02*
X155670000Y-74377500D01*
G75*
G02*
X155817500Y-74230000I147500J0D01*
G01*
X156112500Y-74230000D01*
G75*
G02*
X156260000Y-74377500I0J-147500D01*
G01*
X156260000Y-74722500D01*
G75*
G02*
X156112500Y-74870000I-147500J0D01*
G01*
X155817500Y-74870000D01*
G75*
G02*
X155670000Y-74722500I0J147500D01*
G01*
G37*
%TD*%
%TO.C,R7*%
G36*
G01*
X156260000Y-73327500D02*
X156260000Y-73672500D01*
G75*
G02*
X156112500Y-73820000I-147500J0D01*
G01*
X155817500Y-73820000D01*
G75*
G02*
X155670000Y-73672500I0J147500D01*
G01*
X155670000Y-73327500D01*
G75*
G02*
X155817500Y-73180000I147500J0D01*
G01*
X156112500Y-73180000D01*
G75*
G02*
X156260000Y-73327500I0J-147500D01*
G01*
G37*
G36*
G01*
X157230000Y-73327500D02*
X157230000Y-73672500D01*
G75*
G02*
X157082500Y-73820000I-147500J0D01*
G01*
X156787500Y-73820000D01*
G75*
G02*
X156640000Y-73672500I0J147500D01*
G01*
X156640000Y-73327500D01*
G75*
G02*
X156787500Y-73180000I147500J0D01*
G01*
X157082500Y-73180000D01*
G75*
G02*
X157230000Y-73327500I0J-147500D01*
G01*
G37*
%TD*%
%TO.C,R6*%
G36*
G01*
X158940000Y-64122500D02*
X158940000Y-63777500D01*
G75*
G02*
X159087500Y-63630000I147500J0D01*
G01*
X159382500Y-63630000D01*
G75*
G02*
X159530000Y-63777500I0J-147500D01*
G01*
X159530000Y-64122500D01*
G75*
G02*
X159382500Y-64270000I-147500J0D01*
G01*
X159087500Y-64270000D01*
G75*
G02*
X158940000Y-64122500I0J147500D01*
G01*
G37*
G36*
G01*
X157970000Y-64122500D02*
X157970000Y-63777500D01*
G75*
G02*
X158117500Y-63630000I147500J0D01*
G01*
X158412500Y-63630000D01*
G75*
G02*
X158560000Y-63777500I0J-147500D01*
G01*
X158560000Y-64122500D01*
G75*
G02*
X158412500Y-64270000I-147500J0D01*
G01*
X158117500Y-64270000D01*
G75*
G02*
X157970000Y-64122500I0J147500D01*
G01*
G37*
%TD*%
%TO.C,R5*%
G36*
G01*
X161010000Y-64677500D02*
X161010000Y-65022500D01*
G75*
G02*
X160862500Y-65170000I-147500J0D01*
G01*
X160567500Y-65170000D01*
G75*
G02*
X160420000Y-65022500I0J147500D01*
G01*
X160420000Y-64677500D01*
G75*
G02*
X160567500Y-64530000I147500J0D01*
G01*
X160862500Y-64530000D01*
G75*
G02*
X161010000Y-64677500I0J-147500D01*
G01*
G37*
G36*
G01*
X161980000Y-64677500D02*
X161980000Y-65022500D01*
G75*
G02*
X161832500Y-65170000I-147500J0D01*
G01*
X161537500Y-65170000D01*
G75*
G02*
X161390000Y-65022500I0J147500D01*
G01*
X161390000Y-64677500D01*
G75*
G02*
X161537500Y-64530000I147500J0D01*
G01*
X161832500Y-64530000D01*
G75*
G02*
X161980000Y-64677500I0J-147500D01*
G01*
G37*
%TD*%
%TO.C,R4*%
G36*
G01*
X162960000Y-64677500D02*
X162960000Y-65022500D01*
G75*
G02*
X162812500Y-65170000I-147500J0D01*
G01*
X162517500Y-65170000D01*
G75*
G02*
X162370000Y-65022500I0J147500D01*
G01*
X162370000Y-64677500D01*
G75*
G02*
X162517500Y-64530000I147500J0D01*
G01*
X162812500Y-64530000D01*
G75*
G02*
X162960000Y-64677500I0J-147500D01*
G01*
G37*
G36*
G01*
X163930000Y-64677500D02*
X163930000Y-65022500D01*
G75*
G02*
X163782500Y-65170000I-147500J0D01*
G01*
X163487500Y-65170000D01*
G75*
G02*
X163340000Y-65022500I0J147500D01*
G01*
X163340000Y-64677500D01*
G75*
G02*
X163487500Y-64530000I147500J0D01*
G01*
X163782500Y-64530000D01*
G75*
G02*
X163930000Y-64677500I0J-147500D01*
G01*
G37*
%TD*%
%TO.C,L21*%
G36*
G01*
X118422500Y-64460000D02*
X118077500Y-64460000D01*
G75*
G02*
X117930000Y-64312500I0J147500D01*
G01*
X117930000Y-64017500D01*
G75*
G02*
X118077500Y-63870000I147500J0D01*
G01*
X118422500Y-63870000D01*
G75*
G02*
X118570000Y-64017500I0J-147500D01*
G01*
X118570000Y-64312500D01*
G75*
G02*
X118422500Y-64460000I-147500J0D01*
G01*
G37*
G36*
G01*
X118422500Y-65430000D02*
X118077500Y-65430000D01*
G75*
G02*
X117930000Y-65282500I0J147500D01*
G01*
X117930000Y-64987500D01*
G75*
G02*
X118077500Y-64840000I147500J0D01*
G01*
X118422500Y-64840000D01*
G75*
G02*
X118570000Y-64987500I0J-147500D01*
G01*
X118570000Y-65282500D01*
G75*
G02*
X118422500Y-65430000I-147500J0D01*
G01*
G37*
%TD*%
D38*
%TO.C,L18*%
X134260000Y-53530000D03*
X133780000Y-53530000D03*
X134260000Y-54030000D03*
X133780000Y-54030000D03*
%TD*%
%TO.C,L16*%
X130140000Y-53600000D03*
X129660000Y-53600000D03*
X130140000Y-54100000D03*
X129660000Y-54100000D03*
%TD*%
D39*
%TO.C,L15*%
X141772000Y-61800000D03*
X143228000Y-61800000D03*
%TD*%
%TO.C,L14*%
X141772000Y-63400000D03*
X143228000Y-63400000D03*
%TD*%
%TO.C,L13*%
X141772000Y-65000000D03*
X143228000Y-65000000D03*
%TD*%
D40*
%TO.C,L12*%
X164850000Y-85540000D03*
X164850000Y-85060000D03*
X164350000Y-85540000D03*
X164350000Y-85060000D03*
%TD*%
%TO.C,L11*%
X164850000Y-83540000D03*
X164850000Y-83060000D03*
X164350000Y-83540000D03*
X164350000Y-83060000D03*
%TD*%
%TO.C,L10*%
X164850000Y-81540000D03*
X164850000Y-81060000D03*
X164350000Y-81540000D03*
X164350000Y-81060000D03*
%TD*%
%TO.C,L9*%
X164850000Y-79540000D03*
X164850000Y-79060000D03*
X164350000Y-79540000D03*
X164350000Y-79060000D03*
%TD*%
%TO.C,L8*%
X164850000Y-77540000D03*
X164850000Y-77060000D03*
X164350000Y-77540000D03*
X164350000Y-77060000D03*
%TD*%
D41*
%TO.C,L7*%
X139150000Y-69422000D03*
X139150000Y-70878000D03*
%TD*%
%TO.C,L6*%
X142350000Y-69422000D03*
X142350000Y-70878000D03*
%TD*%
%TO.C,L5*%
X140750000Y-69422000D03*
X140750000Y-70878000D03*
%TD*%
D42*
%TO.C,L1*%
X149200000Y-71715000D03*
X149200000Y-74085000D03*
%TD*%
D43*
%TO.C,J8*%
X103800000Y-91600000D03*
X118200000Y-91600000D03*
D44*
X115170000Y-80400000D03*
X113900000Y-80400000D03*
X112630000Y-80400000D03*
X106280000Y-80400000D03*
X107550000Y-80400000D03*
X108820000Y-80400000D03*
X110090000Y-80400000D03*
X111360000Y-80400000D03*
%TD*%
D37*
%TO.C,J7*%
X122125000Y-97665000D03*
X123075000Y-97665000D03*
X130775000Y-97665000D03*
X129675000Y-97665000D03*
X128575000Y-97665000D03*
X127475000Y-97665000D03*
X126375000Y-97665000D03*
X125275000Y-97665000D03*
X124175000Y-97665000D03*
D44*
X132325000Y-97665000D03*
X121175000Y-93365000D03*
D45*
X121175000Y-87165000D03*
D46*
X121175000Y-83015000D03*
D47*
X134675000Y-82565000D03*
%TD*%
D34*
%TO.C,IC2*%
X144000000Y-53800000D03*
X144000000Y-51900000D03*
X141300000Y-53800000D03*
X141300000Y-52850000D03*
X141300000Y-51900000D03*
%TD*%
D23*
%TO.C,FB1*%
X138750000Y-49525000D03*
X138750000Y-50975000D03*
%TD*%
D26*
%TO.C,D22*%
X138200000Y-46050000D03*
X138200000Y-48150000D03*
%TD*%
D28*
%TO.C,D16*%
X109950000Y-77287500D03*
X110950000Y-77287500D03*
X110450000Y-77287500D03*
X111450000Y-77287500D03*
X109450000Y-77287500D03*
X111450000Y-76512500D03*
X110950000Y-76512500D03*
X110450000Y-76512500D03*
X109950000Y-76512500D03*
X109450000Y-76512500D03*
%TD*%
D26*
%TO.C,D10*%
X135900000Y-46850000D03*
X135900000Y-48950000D03*
%TD*%
%TO.C,D1*%
G36*
G01*
X94000000Y-112025000D02*
X94000000Y-112575000D01*
G75*
G02*
X93925000Y-112650000I-75000J0D01*
G01*
X93775000Y-112650000D01*
G75*
G02*
X93700000Y-112575000I0J75000D01*
G01*
X93700000Y-112025000D01*
G75*
G02*
X93775000Y-111950000I75000J0D01*
G01*
X93925000Y-111950000D01*
G75*
G02*
X94000000Y-112025000I0J-75000D01*
G01*
G37*
G36*
G01*
X95200000Y-112024900D02*
X95200000Y-112575100D01*
G75*
G02*
X95125100Y-112650000I-74900J0D01*
G01*
X94344900Y-112650000D01*
G75*
G02*
X94270000Y-112575100I0J74900D01*
G01*
X94270000Y-112024900D01*
G75*
G02*
X94344900Y-111950000I74900J0D01*
G01*
X95125100Y-111950000D01*
G75*
G02*
X95200000Y-112024900I0J-74900D01*
G01*
G37*
%TD*%
%TO.C,C147*%
G36*
G01*
X99890000Y-55422500D02*
X99890000Y-55077500D01*
G75*
G02*
X100037500Y-54930000I147500J0D01*
G01*
X100332500Y-54930000D01*
G75*
G02*
X100480000Y-55077500I0J-147500D01*
G01*
X100480000Y-55422500D01*
G75*
G02*
X100332500Y-55570000I-147500J0D01*
G01*
X100037500Y-55570000D01*
G75*
G02*
X99890000Y-55422500I0J147500D01*
G01*
G37*
G36*
G01*
X98920000Y-55422500D02*
X98920000Y-55077500D01*
G75*
G02*
X99067500Y-54930000I147500J0D01*
G01*
X99362500Y-54930000D01*
G75*
G02*
X99510000Y-55077500I0J-147500D01*
G01*
X99510000Y-55422500D01*
G75*
G02*
X99362500Y-55570000I-147500J0D01*
G01*
X99067500Y-55570000D01*
G75*
G02*
X98920000Y-55422500I0J147500D01*
G01*
G37*
%TD*%
%TO.C,C141*%
G36*
G01*
X103877500Y-56390000D02*
X104222500Y-56390000D01*
G75*
G02*
X104370000Y-56537500I0J-147500D01*
G01*
X104370000Y-56832500D01*
G75*
G02*
X104222500Y-56980000I-147500J0D01*
G01*
X103877500Y-56980000D01*
G75*
G02*
X103730000Y-56832500I0J147500D01*
G01*
X103730000Y-56537500D01*
G75*
G02*
X103877500Y-56390000I147500J0D01*
G01*
G37*
G36*
G01*
X103877500Y-55420000D02*
X104222500Y-55420000D01*
G75*
G02*
X104370000Y-55567500I0J-147500D01*
G01*
X104370000Y-55862500D01*
G75*
G02*
X104222500Y-56010000I-147500J0D01*
G01*
X103877500Y-56010000D01*
G75*
G02*
X103730000Y-55862500I0J147500D01*
G01*
X103730000Y-55567500D01*
G75*
G02*
X103877500Y-55420000I147500J0D01*
G01*
G37*
%TD*%
%TO.C,C140*%
G36*
G01*
X104877500Y-56390000D02*
X105222500Y-56390000D01*
G75*
G02*
X105370000Y-56537500I0J-147500D01*
G01*
X105370000Y-56832500D01*
G75*
G02*
X105222500Y-56980000I-147500J0D01*
G01*
X104877500Y-56980000D01*
G75*
G02*
X104730000Y-56832500I0J147500D01*
G01*
X104730000Y-56537500D01*
G75*
G02*
X104877500Y-56390000I147500J0D01*
G01*
G37*
G36*
G01*
X104877500Y-55420000D02*
X105222500Y-55420000D01*
G75*
G02*
X105370000Y-55567500I0J-147500D01*
G01*
X105370000Y-55862500D01*
G75*
G02*
X105222500Y-56010000I-147500J0D01*
G01*
X104877500Y-56010000D01*
G75*
G02*
X104730000Y-55862500I0J147500D01*
G01*
X104730000Y-55567500D01*
G75*
G02*
X104877500Y-55420000I147500J0D01*
G01*
G37*
%TD*%
%TO.C,C137*%
G36*
G01*
X105243673Y-62512375D02*
X105487625Y-62756327D01*
G75*
G02*
X105487625Y-62964923I-104298J-104298D01*
G01*
X105279029Y-63173519D01*
G75*
G02*
X105070433Y-63173519I-104298J104298D01*
G01*
X104826481Y-62929567D01*
G75*
G02*
X104826481Y-62720971I104298J104298D01*
G01*
X105035077Y-62512375D01*
G75*
G02*
X105243673Y-62512375I104298J-104298D01*
G01*
G37*
G36*
G01*
X105929567Y-61826481D02*
X106173519Y-62070433D01*
G75*
G02*
X106173519Y-62279029I-104298J-104298D01*
G01*
X105964923Y-62487625D01*
G75*
G02*
X105756327Y-62487625I-104298J104298D01*
G01*
X105512375Y-62243673D01*
G75*
G02*
X105512375Y-62035077I104298J104298D01*
G01*
X105720971Y-61826481D01*
G75*
G02*
X105929567Y-61826481I104298J-104298D01*
G01*
G37*
%TD*%
%TO.C,C136*%
G36*
G01*
X104486620Y-61769428D02*
X104730572Y-62013380D01*
G75*
G02*
X104730572Y-62221976I-104298J-104298D01*
G01*
X104521976Y-62430572D01*
G75*
G02*
X104313380Y-62430572I-104298J104298D01*
G01*
X104069428Y-62186620D01*
G75*
G02*
X104069428Y-61978024I104298J104298D01*
G01*
X104278024Y-61769428D01*
G75*
G02*
X104486620Y-61769428I104298J-104298D01*
G01*
G37*
G36*
G01*
X105172514Y-61083534D02*
X105416466Y-61327486D01*
G75*
G02*
X105416466Y-61536082I-104298J-104298D01*
G01*
X105207870Y-61744678D01*
G75*
G02*
X104999274Y-61744678I-104298J104298D01*
G01*
X104755322Y-61500726D01*
G75*
G02*
X104755322Y-61292130I104298J104298D01*
G01*
X104963918Y-61083534D01*
G75*
G02*
X105172514Y-61083534I104298J-104298D01*
G01*
G37*
%TD*%
%TO.C,C135*%
G36*
G01*
X108672500Y-66710000D02*
X108327500Y-66710000D01*
G75*
G02*
X108180000Y-66562500I0J147500D01*
G01*
X108180000Y-66267500D01*
G75*
G02*
X108327500Y-66120000I147500J0D01*
G01*
X108672500Y-66120000D01*
G75*
G02*
X108820000Y-66267500I0J-147500D01*
G01*
X108820000Y-66562500D01*
G75*
G02*
X108672500Y-66710000I-147500J0D01*
G01*
G37*
G36*
G01*
X108672500Y-67680000D02*
X108327500Y-67680000D01*
G75*
G02*
X108180000Y-67532500I0J147500D01*
G01*
X108180000Y-67237500D01*
G75*
G02*
X108327500Y-67090000I147500J0D01*
G01*
X108672500Y-67090000D01*
G75*
G02*
X108820000Y-67237500I0J-147500D01*
G01*
X108820000Y-67532500D01*
G75*
G02*
X108672500Y-67680000I-147500J0D01*
G01*
G37*
%TD*%
%TO.C,C134*%
G36*
G01*
X103612375Y-66356327D02*
X103856327Y-66112375D01*
G75*
G02*
X104064923Y-66112375I104298J-104298D01*
G01*
X104273519Y-66320971D01*
G75*
G02*
X104273519Y-66529567I-104298J-104298D01*
G01*
X104029567Y-66773519D01*
G75*
G02*
X103820971Y-66773519I-104298J104298D01*
G01*
X103612375Y-66564923D01*
G75*
G02*
X103612375Y-66356327I104298J104298D01*
G01*
G37*
G36*
G01*
X102926481Y-65670433D02*
X103170433Y-65426481D01*
G75*
G02*
X103379029Y-65426481I104298J-104298D01*
G01*
X103587625Y-65635077D01*
G75*
G02*
X103587625Y-65843673I-104298J-104298D01*
G01*
X103343673Y-66087625D01*
G75*
G02*
X103135077Y-66087625I-104298J104298D01*
G01*
X102926481Y-65879029D01*
G75*
G02*
X102926481Y-65670433I104298J104298D01*
G01*
G37*
%TD*%
%TO.C,C132*%
G36*
G01*
X102643673Y-64612375D02*
X102887625Y-64856327D01*
G75*
G02*
X102887625Y-65064923I-104298J-104298D01*
G01*
X102679029Y-65273519D01*
G75*
G02*
X102470433Y-65273519I-104298J104298D01*
G01*
X102226481Y-65029567D01*
G75*
G02*
X102226481Y-64820971I104298J104298D01*
G01*
X102435077Y-64612375D01*
G75*
G02*
X102643673Y-64612375I104298J-104298D01*
G01*
G37*
G36*
G01*
X103329567Y-63926481D02*
X103573519Y-64170433D01*
G75*
G02*
X103573519Y-64379029I-104298J-104298D01*
G01*
X103364923Y-64587625D01*
G75*
G02*
X103156327Y-64587625I-104298J104298D01*
G01*
X102912375Y-64343673D01*
G75*
G02*
X102912375Y-64135077I104298J104298D01*
G01*
X103120971Y-63926481D01*
G75*
G02*
X103329567Y-63926481I104298J-104298D01*
G01*
G37*
%TD*%
%TO.C,C131*%
G36*
G01*
X100243673Y-62212375D02*
X100487625Y-62456327D01*
G75*
G02*
X100487625Y-62664923I-104298J-104298D01*
G01*
X100279029Y-62873519D01*
G75*
G02*
X100070433Y-62873519I-104298J104298D01*
G01*
X99826481Y-62629567D01*
G75*
G02*
X99826481Y-62420971I104298J104298D01*
G01*
X100035077Y-62212375D01*
G75*
G02*
X100243673Y-62212375I104298J-104298D01*
G01*
G37*
G36*
G01*
X100929567Y-61526481D02*
X101173519Y-61770433D01*
G75*
G02*
X101173519Y-61979029I-104298J-104298D01*
G01*
X100964923Y-62187625D01*
G75*
G02*
X100756327Y-62187625I-104298J104298D01*
G01*
X100512375Y-61943673D01*
G75*
G02*
X100512375Y-61735077I104298J104298D01*
G01*
X100720971Y-61526481D01*
G75*
G02*
X100929567Y-61526481I104298J-104298D01*
G01*
G37*
%TD*%
%TO.C,C130*%
G36*
G01*
X102787625Y-60343673D02*
X102543673Y-60587625D01*
G75*
G02*
X102335077Y-60587625I-104298J104298D01*
G01*
X102126481Y-60379029D01*
G75*
G02*
X102126481Y-60170433I104298J104298D01*
G01*
X102370433Y-59926481D01*
G75*
G02*
X102579029Y-59926481I104298J-104298D01*
G01*
X102787625Y-60135077D01*
G75*
G02*
X102787625Y-60343673I-104298J-104298D01*
G01*
G37*
G36*
G01*
X103473519Y-61029567D02*
X103229567Y-61273519D01*
G75*
G02*
X103020971Y-61273519I-104298J104298D01*
G01*
X102812375Y-61064923D01*
G75*
G02*
X102812375Y-60856327I104298J104298D01*
G01*
X103056327Y-60612375D01*
G75*
G02*
X103264923Y-60612375I104298J-104298D01*
G01*
X103473519Y-60820971D01*
G75*
G02*
X103473519Y-61029567I-104298J-104298D01*
G01*
G37*
%TD*%
%TO.C,C129*%
G36*
G01*
X106556327Y-63287625D02*
X106312375Y-63043673D01*
G75*
G02*
X106312375Y-62835077I104298J104298D01*
G01*
X106520971Y-62626481D01*
G75*
G02*
X106729567Y-62626481I104298J-104298D01*
G01*
X106973519Y-62870433D01*
G75*
G02*
X106973519Y-63079029I-104298J-104298D01*
G01*
X106764923Y-63287625D01*
G75*
G02*
X106556327Y-63287625I-104298J104298D01*
G01*
G37*
G36*
G01*
X105870433Y-63973519D02*
X105626481Y-63729567D01*
G75*
G02*
X105626481Y-63520971I104298J104298D01*
G01*
X105835077Y-63312375D01*
G75*
G02*
X106043673Y-63312375I104298J-104298D01*
G01*
X106287625Y-63556327D01*
G75*
G02*
X106287625Y-63764923I-104298J-104298D01*
G01*
X106079029Y-63973519D01*
G75*
G02*
X105870433Y-63973519I-104298J104298D01*
G01*
G37*
%TD*%
%TO.C,C128*%
G36*
G01*
X99857500Y-67210000D02*
X100202500Y-67210000D01*
G75*
G02*
X100350000Y-67357500I0J-147500D01*
G01*
X100350000Y-67652500D01*
G75*
G02*
X100202500Y-67800000I-147500J0D01*
G01*
X99857500Y-67800000D01*
G75*
G02*
X99710000Y-67652500I0J147500D01*
G01*
X99710000Y-67357500D01*
G75*
G02*
X99857500Y-67210000I147500J0D01*
G01*
G37*
G36*
G01*
X99857500Y-66240000D02*
X100202500Y-66240000D01*
G75*
G02*
X100350000Y-66387500I0J-147500D01*
G01*
X100350000Y-66682500D01*
G75*
G02*
X100202500Y-66830000I-147500J0D01*
G01*
X99857500Y-66830000D01*
G75*
G02*
X99710000Y-66682500I0J147500D01*
G01*
X99710000Y-66387500D01*
G75*
G02*
X99857500Y-66240000I147500J0D01*
G01*
G37*
%TD*%
%TO.C,C127*%
G36*
G01*
X104687625Y-59143673D02*
X104443673Y-59387625D01*
G75*
G02*
X104235077Y-59387625I-104298J104298D01*
G01*
X104026481Y-59179029D01*
G75*
G02*
X104026481Y-58970433I104298J104298D01*
G01*
X104270433Y-58726481D01*
G75*
G02*
X104479029Y-58726481I104298J-104298D01*
G01*
X104687625Y-58935077D01*
G75*
G02*
X104687625Y-59143673I-104298J-104298D01*
G01*
G37*
G36*
G01*
X105373519Y-59829567D02*
X105129567Y-60073519D01*
G75*
G02*
X104920971Y-60073519I-104298J104298D01*
G01*
X104712375Y-59864923D01*
G75*
G02*
X104712375Y-59656327I104298J104298D01*
G01*
X104956327Y-59412375D01*
G75*
G02*
X105164923Y-59412375I104298J-104298D01*
G01*
X105373519Y-59620971D01*
G75*
G02*
X105373519Y-59829567I-104298J-104298D01*
G01*
G37*
%TD*%
%TO.C,C126*%
G36*
G01*
X101556327Y-62987625D02*
X101312375Y-62743673D01*
G75*
G02*
X101312375Y-62535077I104298J104298D01*
G01*
X101520971Y-62326481D01*
G75*
G02*
X101729567Y-62326481I104298J-104298D01*
G01*
X101973519Y-62570433D01*
G75*
G02*
X101973519Y-62779029I-104298J-104298D01*
G01*
X101764923Y-62987625D01*
G75*
G02*
X101556327Y-62987625I-104298J104298D01*
G01*
G37*
G36*
G01*
X100870433Y-63673519D02*
X100626481Y-63429567D01*
G75*
G02*
X100626481Y-63220971I104298J104298D01*
G01*
X100835077Y-63012375D01*
G75*
G02*
X101043673Y-63012375I104298J-104298D01*
G01*
X101287625Y-63256327D01*
G75*
G02*
X101287625Y-63464923I-104298J-104298D01*
G01*
X101079029Y-63673519D01*
G75*
G02*
X100870433Y-63673519I-104298J104298D01*
G01*
G37*
%TD*%
%TO.C,C125*%
G36*
G01*
X105212375Y-64756327D02*
X105456327Y-64512375D01*
G75*
G02*
X105664923Y-64512375I104298J-104298D01*
G01*
X105873519Y-64720971D01*
G75*
G02*
X105873519Y-64929567I-104298J-104298D01*
G01*
X105629567Y-65173519D01*
G75*
G02*
X105420971Y-65173519I-104298J104298D01*
G01*
X105212375Y-64964923D01*
G75*
G02*
X105212375Y-64756327I104298J104298D01*
G01*
G37*
G36*
G01*
X104526481Y-64070433D02*
X104770433Y-63826481D01*
G75*
G02*
X104979029Y-63826481I104298J-104298D01*
G01*
X105187625Y-64035077D01*
G75*
G02*
X105187625Y-64243673I-104298J-104298D01*
G01*
X104943673Y-64487625D01*
G75*
G02*
X104735077Y-64487625I-104298J104298D01*
G01*
X104526481Y-64279029D01*
G75*
G02*
X104526481Y-64070433I104298J104298D01*
G01*
G37*
%TD*%
%TO.C,C124*%
G36*
G01*
X104387625Y-65043673D02*
X104143673Y-65287625D01*
G75*
G02*
X103935077Y-65287625I-104298J104298D01*
G01*
X103726481Y-65079029D01*
G75*
G02*
X103726481Y-64870433I104298J104298D01*
G01*
X103970433Y-64626481D01*
G75*
G02*
X104179029Y-64626481I104298J-104298D01*
G01*
X104387625Y-64835077D01*
G75*
G02*
X104387625Y-65043673I-104298J-104298D01*
G01*
G37*
G36*
G01*
X105073519Y-65729567D02*
X104829567Y-65973519D01*
G75*
G02*
X104620971Y-65973519I-104298J104298D01*
G01*
X104412375Y-65764923D01*
G75*
G02*
X104412375Y-65556327I104298J104298D01*
G01*
X104656327Y-65312375D01*
G75*
G02*
X104864923Y-65312375I104298J-104298D01*
G01*
X105073519Y-65520971D01*
G75*
G02*
X105073519Y-65729567I-104298J-104298D01*
G01*
G37*
%TD*%
%TO.C,C123*%
G36*
G01*
X103887625Y-59943673D02*
X103643673Y-60187625D01*
G75*
G02*
X103435077Y-60187625I-104298J104298D01*
G01*
X103226481Y-59979029D01*
G75*
G02*
X103226481Y-59770433I104298J104298D01*
G01*
X103470433Y-59526481D01*
G75*
G02*
X103679029Y-59526481I104298J-104298D01*
G01*
X103887625Y-59735077D01*
G75*
G02*
X103887625Y-59943673I-104298J-104298D01*
G01*
G37*
G36*
G01*
X104573519Y-60629567D02*
X104329567Y-60873519D01*
G75*
G02*
X104120971Y-60873519I-104298J104298D01*
G01*
X103912375Y-60664923D01*
G75*
G02*
X103912375Y-60456327I104298J104298D01*
G01*
X104156327Y-60212375D01*
G75*
G02*
X104364923Y-60212375I104298J-104298D01*
G01*
X104573519Y-60420971D01*
G75*
G02*
X104573519Y-60629567I-104298J-104298D01*
G01*
G37*
%TD*%
%TO.C,C122*%
G36*
G01*
X106843673Y-64112375D02*
X107087625Y-64356327D01*
G75*
G02*
X107087625Y-64564923I-104298J-104298D01*
G01*
X106879029Y-64773519D01*
G75*
G02*
X106670433Y-64773519I-104298J104298D01*
G01*
X106426481Y-64529567D01*
G75*
G02*
X106426481Y-64320971I104298J104298D01*
G01*
X106635077Y-64112375D01*
G75*
G02*
X106843673Y-64112375I104298J-104298D01*
G01*
G37*
G36*
G01*
X107529567Y-63426481D02*
X107773519Y-63670433D01*
G75*
G02*
X107773519Y-63879029I-104298J-104298D01*
G01*
X107564923Y-64087625D01*
G75*
G02*
X107356327Y-64087625I-104298J104298D01*
G01*
X107112375Y-63843673D01*
G75*
G02*
X107112375Y-63635077I104298J104298D01*
G01*
X107320971Y-63426481D01*
G75*
G02*
X107529567Y-63426481I104298J-104298D01*
G01*
G37*
%TD*%
%TO.C,C121*%
G36*
G01*
X101843673Y-63812375D02*
X102087625Y-64056327D01*
G75*
G02*
X102087625Y-64264923I-104298J-104298D01*
G01*
X101879029Y-64473519D01*
G75*
G02*
X101670433Y-64473519I-104298J104298D01*
G01*
X101426481Y-64229567D01*
G75*
G02*
X101426481Y-64020971I104298J104298D01*
G01*
X101635077Y-63812375D01*
G75*
G02*
X101843673Y-63812375I104298J-104298D01*
G01*
G37*
G36*
G01*
X102529567Y-63126481D02*
X102773519Y-63370433D01*
G75*
G02*
X102773519Y-63579029I-104298J-104298D01*
G01*
X102564923Y-63787625D01*
G75*
G02*
X102356327Y-63787625I-104298J104298D01*
G01*
X102112375Y-63543673D01*
G75*
G02*
X102112375Y-63335077I104298J104298D01*
G01*
X102320971Y-63126481D01*
G75*
G02*
X102529567Y-63126481I104298J-104298D01*
G01*
G37*
%TD*%
%TO.C,C120*%
G36*
G01*
X101987625Y-61143673D02*
X101743673Y-61387625D01*
G75*
G02*
X101535077Y-61387625I-104298J104298D01*
G01*
X101326481Y-61179029D01*
G75*
G02*
X101326481Y-60970433I104298J104298D01*
G01*
X101570433Y-60726481D01*
G75*
G02*
X101779029Y-60726481I104298J-104298D01*
G01*
X101987625Y-60935077D01*
G75*
G02*
X101987625Y-61143673I-104298J-104298D01*
G01*
G37*
G36*
G01*
X102673519Y-61829567D02*
X102429567Y-62073519D01*
G75*
G02*
X102220971Y-62073519I-104298J104298D01*
G01*
X102012375Y-61864923D01*
G75*
G02*
X102012375Y-61656327I104298J104298D01*
G01*
X102256327Y-61412375D01*
G75*
G02*
X102464923Y-61412375I104298J-104298D01*
G01*
X102673519Y-61620971D01*
G75*
G02*
X102673519Y-61829567I-104298J-104298D01*
G01*
G37*
%TD*%
%TO.C,C119*%
G36*
G01*
X97857500Y-67210000D02*
X98202500Y-67210000D01*
G75*
G02*
X98350000Y-67357500I0J-147500D01*
G01*
X98350000Y-67652500D01*
G75*
G02*
X98202500Y-67800000I-147500J0D01*
G01*
X97857500Y-67800000D01*
G75*
G02*
X97710000Y-67652500I0J147500D01*
G01*
X97710000Y-67357500D01*
G75*
G02*
X97857500Y-67210000I147500J0D01*
G01*
G37*
G36*
G01*
X97857500Y-66240000D02*
X98202500Y-66240000D01*
G75*
G02*
X98350000Y-66387500I0J-147500D01*
G01*
X98350000Y-66682500D01*
G75*
G02*
X98202500Y-66830000I-147500J0D01*
G01*
X97857500Y-66830000D01*
G75*
G02*
X97710000Y-66682500I0J147500D01*
G01*
X97710000Y-66387500D01*
G75*
G02*
X97857500Y-66240000I147500J0D01*
G01*
G37*
%TD*%
%TO.C,C118*%
G36*
G01*
X98857500Y-67210000D02*
X99202500Y-67210000D01*
G75*
G02*
X99350000Y-67357500I0J-147500D01*
G01*
X99350000Y-67652500D01*
G75*
G02*
X99202500Y-67800000I-147500J0D01*
G01*
X98857500Y-67800000D01*
G75*
G02*
X98710000Y-67652500I0J147500D01*
G01*
X98710000Y-67357500D01*
G75*
G02*
X98857500Y-67210000I147500J0D01*
G01*
G37*
G36*
G01*
X98857500Y-66240000D02*
X99202500Y-66240000D01*
G75*
G02*
X99350000Y-66387500I0J-147500D01*
G01*
X99350000Y-66682500D01*
G75*
G02*
X99202500Y-66830000I-147500J0D01*
G01*
X98857500Y-66830000D01*
G75*
G02*
X98710000Y-66682500I0J147500D01*
G01*
X98710000Y-66387500D01*
G75*
G02*
X98857500Y-66240000I147500J0D01*
G01*
G37*
%TD*%
%TO.C,C117*%
G36*
G01*
X143310000Y-55127500D02*
X143310000Y-55472500D01*
G75*
G02*
X143162500Y-55620000I-147500J0D01*
G01*
X142867500Y-55620000D01*
G75*
G02*
X142720000Y-55472500I0J147500D01*
G01*
X142720000Y-55127500D01*
G75*
G02*
X142867500Y-54980000I147500J0D01*
G01*
X143162500Y-54980000D01*
G75*
G02*
X143310000Y-55127500I0J-147500D01*
G01*
G37*
G36*
G01*
X144280000Y-55127500D02*
X144280000Y-55472500D01*
G75*
G02*
X144132500Y-55620000I-147500J0D01*
G01*
X143837500Y-55620000D01*
G75*
G02*
X143690000Y-55472500I0J147500D01*
G01*
X143690000Y-55127500D01*
G75*
G02*
X143837500Y-54980000I147500J0D01*
G01*
X144132500Y-54980000D01*
G75*
G02*
X144280000Y-55127500I0J-147500D01*
G01*
G37*
%TD*%
%TO.C,C116*%
G36*
G01*
X143690000Y-56472500D02*
X143690000Y-56127500D01*
G75*
G02*
X143837500Y-55980000I147500J0D01*
G01*
X144132500Y-55980000D01*
G75*
G02*
X144280000Y-56127500I0J-147500D01*
G01*
X144280000Y-56472500D01*
G75*
G02*
X144132500Y-56620000I-147500J0D01*
G01*
X143837500Y-56620000D01*
G75*
G02*
X143690000Y-56472500I0J147500D01*
G01*
G37*
G36*
G01*
X142720000Y-56472500D02*
X142720000Y-56127500D01*
G75*
G02*
X142867500Y-55980000I147500J0D01*
G01*
X143162500Y-55980000D01*
G75*
G02*
X143310000Y-56127500I0J-147500D01*
G01*
X143310000Y-56472500D01*
G75*
G02*
X143162500Y-56620000I-147500J0D01*
G01*
X142867500Y-56620000D01*
G75*
G02*
X142720000Y-56472500I0J147500D01*
G01*
G37*
%TD*%
%TO.C,C115*%
G36*
G01*
X145822500Y-52210000D02*
X145477500Y-52210000D01*
G75*
G02*
X145330000Y-52062500I0J147500D01*
G01*
X145330000Y-51767500D01*
G75*
G02*
X145477500Y-51620000I147500J0D01*
G01*
X145822500Y-51620000D01*
G75*
G02*
X145970000Y-51767500I0J-147500D01*
G01*
X145970000Y-52062500D01*
G75*
G02*
X145822500Y-52210000I-147500J0D01*
G01*
G37*
G36*
G01*
X145822500Y-53180000D02*
X145477500Y-53180000D01*
G75*
G02*
X145330000Y-53032500I0J147500D01*
G01*
X145330000Y-52737500D01*
G75*
G02*
X145477500Y-52590000I147500J0D01*
G01*
X145822500Y-52590000D01*
G75*
G02*
X145970000Y-52737500I0J-147500D01*
G01*
X145970000Y-53032500D01*
G75*
G02*
X145822500Y-53180000I-147500J0D01*
G01*
G37*
%TD*%
%TO.C,C114*%
G36*
G01*
X146290000Y-50072500D02*
X146290000Y-49727500D01*
G75*
G02*
X146437500Y-49580000I147500J0D01*
G01*
X146732500Y-49580000D01*
G75*
G02*
X146880000Y-49727500I0J-147500D01*
G01*
X146880000Y-50072500D01*
G75*
G02*
X146732500Y-50220000I-147500J0D01*
G01*
X146437500Y-50220000D01*
G75*
G02*
X146290000Y-50072500I0J147500D01*
G01*
G37*
G36*
G01*
X145320000Y-50072500D02*
X145320000Y-49727500D01*
G75*
G02*
X145467500Y-49580000I147500J0D01*
G01*
X145762500Y-49580000D01*
G75*
G02*
X145910000Y-49727500I0J-147500D01*
G01*
X145910000Y-50072500D01*
G75*
G02*
X145762500Y-50220000I-147500J0D01*
G01*
X145467500Y-50220000D01*
G75*
G02*
X145320000Y-50072500I0J147500D01*
G01*
G37*
%TD*%
%TO.C,C113*%
G36*
G01*
X147110000Y-57677500D02*
X147110000Y-58022500D01*
G75*
G02*
X146962500Y-58170000I-147500J0D01*
G01*
X146667500Y-58170000D01*
G75*
G02*
X146520000Y-58022500I0J147500D01*
G01*
X146520000Y-57677500D01*
G75*
G02*
X146667500Y-57530000I147500J0D01*
G01*
X146962500Y-57530000D01*
G75*
G02*
X147110000Y-57677500I0J-147500D01*
G01*
G37*
G36*
G01*
X148080000Y-57677500D02*
X148080000Y-58022500D01*
G75*
G02*
X147932500Y-58170000I-147500J0D01*
G01*
X147637500Y-58170000D01*
G75*
G02*
X147490000Y-58022500I0J147500D01*
G01*
X147490000Y-57677500D01*
G75*
G02*
X147637500Y-57530000I147500J0D01*
G01*
X147932500Y-57530000D01*
G75*
G02*
X148080000Y-57677500I0J-147500D01*
G01*
G37*
%TD*%
%TO.C,C112*%
G36*
G01*
X146290000Y-51072500D02*
X146290000Y-50727500D01*
G75*
G02*
X146437500Y-50580000I147500J0D01*
G01*
X146732500Y-50580000D01*
G75*
G02*
X146880000Y-50727500I0J-147500D01*
G01*
X146880000Y-51072500D01*
G75*
G02*
X146732500Y-51220000I-147500J0D01*
G01*
X146437500Y-51220000D01*
G75*
G02*
X146290000Y-51072500I0J147500D01*
G01*
G37*
G36*
G01*
X145320000Y-51072500D02*
X145320000Y-50727500D01*
G75*
G02*
X145467500Y-50580000I147500J0D01*
G01*
X145762500Y-50580000D01*
G75*
G02*
X145910000Y-50727500I0J-147500D01*
G01*
X145910000Y-51072500D01*
G75*
G02*
X145762500Y-51220000I-147500J0D01*
G01*
X145467500Y-51220000D01*
G75*
G02*
X145320000Y-51072500I0J147500D01*
G01*
G37*
%TD*%
%TO.C,C111*%
G36*
G01*
X139727500Y-52140000D02*
X140072500Y-52140000D01*
G75*
G02*
X140220000Y-52287500I0J-147500D01*
G01*
X140220000Y-52582500D01*
G75*
G02*
X140072500Y-52730000I-147500J0D01*
G01*
X139727500Y-52730000D01*
G75*
G02*
X139580000Y-52582500I0J147500D01*
G01*
X139580000Y-52287500D01*
G75*
G02*
X139727500Y-52140000I147500J0D01*
G01*
G37*
G36*
G01*
X139727500Y-51170000D02*
X140072500Y-51170000D01*
G75*
G02*
X140220000Y-51317500I0J-147500D01*
G01*
X140220000Y-51612500D01*
G75*
G02*
X140072500Y-51760000I-147500J0D01*
G01*
X139727500Y-51760000D01*
G75*
G02*
X139580000Y-51612500I0J147500D01*
G01*
X139580000Y-51317500D01*
G75*
G02*
X139727500Y-51170000I147500J0D01*
G01*
G37*
%TD*%
%TO.C,C110*%
G36*
G01*
X83690000Y-49122500D02*
X83690000Y-48777500D01*
G75*
G02*
X83837500Y-48630000I147500J0D01*
G01*
X84132500Y-48630000D01*
G75*
G02*
X84280000Y-48777500I0J-147500D01*
G01*
X84280000Y-49122500D01*
G75*
G02*
X84132500Y-49270000I-147500J0D01*
G01*
X83837500Y-49270000D01*
G75*
G02*
X83690000Y-49122500I0J147500D01*
G01*
G37*
G36*
G01*
X82720000Y-49122500D02*
X82720000Y-48777500D01*
G75*
G02*
X82867500Y-48630000I147500J0D01*
G01*
X83162500Y-48630000D01*
G75*
G02*
X83310000Y-48777500I0J-147500D01*
G01*
X83310000Y-49122500D01*
G75*
G02*
X83162500Y-49270000I-147500J0D01*
G01*
X82867500Y-49270000D01*
G75*
G02*
X82720000Y-49122500I0J147500D01*
G01*
G37*
%TD*%
%TO.C,C109*%
G36*
G01*
X79260000Y-48777500D02*
X79260000Y-49122500D01*
G75*
G02*
X79112500Y-49270000I-147500J0D01*
G01*
X78817500Y-49270000D01*
G75*
G02*
X78670000Y-49122500I0J147500D01*
G01*
X78670000Y-48777500D01*
G75*
G02*
X78817500Y-48630000I147500J0D01*
G01*
X79112500Y-48630000D01*
G75*
G02*
X79260000Y-48777500I0J-147500D01*
G01*
G37*
G36*
G01*
X80230000Y-48777500D02*
X80230000Y-49122500D01*
G75*
G02*
X80082500Y-49270000I-147500J0D01*
G01*
X79787500Y-49270000D01*
G75*
G02*
X79640000Y-49122500I0J147500D01*
G01*
X79640000Y-48777500D01*
G75*
G02*
X79787500Y-48630000I147500J0D01*
G01*
X80082500Y-48630000D01*
G75*
G02*
X80230000Y-48777500I0J-147500D01*
G01*
G37*
%TD*%
%TO.C,C108*%
G36*
G01*
X89090000Y-59622500D02*
X89090000Y-59277500D01*
G75*
G02*
X89237500Y-59130000I147500J0D01*
G01*
X89532500Y-59130000D01*
G75*
G02*
X89680000Y-59277500I0J-147500D01*
G01*
X89680000Y-59622500D01*
G75*
G02*
X89532500Y-59770000I-147500J0D01*
G01*
X89237500Y-59770000D01*
G75*
G02*
X89090000Y-59622500I0J147500D01*
G01*
G37*
G36*
G01*
X88120000Y-59622500D02*
X88120000Y-59277500D01*
G75*
G02*
X88267500Y-59130000I147500J0D01*
G01*
X88562500Y-59130000D01*
G75*
G02*
X88710000Y-59277500I0J-147500D01*
G01*
X88710000Y-59622500D01*
G75*
G02*
X88562500Y-59770000I-147500J0D01*
G01*
X88267500Y-59770000D01*
G75*
G02*
X88120000Y-59622500I0J147500D01*
G01*
G37*
%TD*%
%TO.C,C107*%
G36*
G01*
X110760000Y-78727500D02*
X110760000Y-79072500D01*
G75*
G02*
X110612500Y-79220000I-147500J0D01*
G01*
X110317500Y-79220000D01*
G75*
G02*
X110170000Y-79072500I0J147500D01*
G01*
X110170000Y-78727500D01*
G75*
G02*
X110317500Y-78580000I147500J0D01*
G01*
X110612500Y-78580000D01*
G75*
G02*
X110760000Y-78727500I0J-147500D01*
G01*
G37*
G36*
G01*
X111730000Y-78727500D02*
X111730000Y-79072500D01*
G75*
G02*
X111582500Y-79220000I-147500J0D01*
G01*
X111287500Y-79220000D01*
G75*
G02*
X111140000Y-79072500I0J147500D01*
G01*
X111140000Y-78727500D01*
G75*
G02*
X111287500Y-78580000I147500J0D01*
G01*
X111582500Y-78580000D01*
G75*
G02*
X111730000Y-78727500I0J-147500D01*
G01*
G37*
%TD*%
%TO.C,C106*%
G36*
G01*
X107140000Y-79072500D02*
X107140000Y-78727500D01*
G75*
G02*
X107287500Y-78580000I147500J0D01*
G01*
X107582500Y-78580000D01*
G75*
G02*
X107730000Y-78727500I0J-147500D01*
G01*
X107730000Y-79072500D01*
G75*
G02*
X107582500Y-79220000I-147500J0D01*
G01*
X107287500Y-79220000D01*
G75*
G02*
X107140000Y-79072500I0J147500D01*
G01*
G37*
G36*
G01*
X106170000Y-79072500D02*
X106170000Y-78727500D01*
G75*
G02*
X106317500Y-78580000I147500J0D01*
G01*
X106612500Y-78580000D01*
G75*
G02*
X106760000Y-78727500I0J-147500D01*
G01*
X106760000Y-79072500D01*
G75*
G02*
X106612500Y-79220000I-147500J0D01*
G01*
X106317500Y-79220000D01*
G75*
G02*
X106170000Y-79072500I0J147500D01*
G01*
G37*
%TD*%
%TO.C,C105*%
G36*
G01*
X108760000Y-78727500D02*
X108760000Y-79072500D01*
G75*
G02*
X108612500Y-79220000I-147500J0D01*
G01*
X108317500Y-79220000D01*
G75*
G02*
X108170000Y-79072500I0J147500D01*
G01*
X108170000Y-78727500D01*
G75*
G02*
X108317500Y-78580000I147500J0D01*
G01*
X108612500Y-78580000D01*
G75*
G02*
X108760000Y-78727500I0J-147500D01*
G01*
G37*
G36*
G01*
X109730000Y-78727500D02*
X109730000Y-79072500D01*
G75*
G02*
X109582500Y-79220000I-147500J0D01*
G01*
X109287500Y-79220000D01*
G75*
G02*
X109140000Y-79072500I0J147500D01*
G01*
X109140000Y-78727500D01*
G75*
G02*
X109287500Y-78580000I147500J0D01*
G01*
X109582500Y-78580000D01*
G75*
G02*
X109730000Y-78727500I0J-147500D01*
G01*
G37*
%TD*%
%TO.C,C104*%
G36*
G01*
X113140000Y-79072500D02*
X113140000Y-78727500D01*
G75*
G02*
X113287500Y-78580000I147500J0D01*
G01*
X113582500Y-78580000D01*
G75*
G02*
X113730000Y-78727500I0J-147500D01*
G01*
X113730000Y-79072500D01*
G75*
G02*
X113582500Y-79220000I-147500J0D01*
G01*
X113287500Y-79220000D01*
G75*
G02*
X113140000Y-79072500I0J147500D01*
G01*
G37*
G36*
G01*
X112170000Y-79072500D02*
X112170000Y-78727500D01*
G75*
G02*
X112317500Y-78580000I147500J0D01*
G01*
X112612500Y-78580000D01*
G75*
G02*
X112760000Y-78727500I0J-147500D01*
G01*
X112760000Y-79072500D01*
G75*
G02*
X112612500Y-79220000I-147500J0D01*
G01*
X112317500Y-79220000D01*
G75*
G02*
X112170000Y-79072500I0J147500D01*
G01*
G37*
%TD*%
%TO.C,C103*%
G36*
G01*
X101690000Y-53772500D02*
X101690000Y-53427500D01*
G75*
G02*
X101837500Y-53280000I147500J0D01*
G01*
X102132500Y-53280000D01*
G75*
G02*
X102280000Y-53427500I0J-147500D01*
G01*
X102280000Y-53772500D01*
G75*
G02*
X102132500Y-53920000I-147500J0D01*
G01*
X101837500Y-53920000D01*
G75*
G02*
X101690000Y-53772500I0J147500D01*
G01*
G37*
G36*
G01*
X100720000Y-53772500D02*
X100720000Y-53427500D01*
G75*
G02*
X100867500Y-53280000I147500J0D01*
G01*
X101162500Y-53280000D01*
G75*
G02*
X101310000Y-53427500I0J-147500D01*
G01*
X101310000Y-53772500D01*
G75*
G02*
X101162500Y-53920000I-147500J0D01*
G01*
X100867500Y-53920000D01*
G75*
G02*
X100720000Y-53772500I0J147500D01*
G01*
G37*
%TD*%
%TO.C,C102*%
G36*
G01*
X107377500Y-55940000D02*
X107722500Y-55940000D01*
G75*
G02*
X107870000Y-56087500I0J-147500D01*
G01*
X107870000Y-56382500D01*
G75*
G02*
X107722500Y-56530000I-147500J0D01*
G01*
X107377500Y-56530000D01*
G75*
G02*
X107230000Y-56382500I0J147500D01*
G01*
X107230000Y-56087500D01*
G75*
G02*
X107377500Y-55940000I147500J0D01*
G01*
G37*
G36*
G01*
X107377500Y-54970000D02*
X107722500Y-54970000D01*
G75*
G02*
X107870000Y-55117500I0J-147500D01*
G01*
X107870000Y-55412500D01*
G75*
G02*
X107722500Y-55560000I-147500J0D01*
G01*
X107377500Y-55560000D01*
G75*
G02*
X107230000Y-55412500I0J147500D01*
G01*
X107230000Y-55117500D01*
G75*
G02*
X107377500Y-54970000I147500J0D01*
G01*
G37*
%TD*%
%TO.C,C100*%
G36*
G01*
X129977500Y-100490000D02*
X130322500Y-100490000D01*
G75*
G02*
X130470000Y-100637500I0J-147500D01*
G01*
X130470000Y-100932500D01*
G75*
G02*
X130322500Y-101080000I-147500J0D01*
G01*
X129977500Y-101080000D01*
G75*
G02*
X129830000Y-100932500I0J147500D01*
G01*
X129830000Y-100637500D01*
G75*
G02*
X129977500Y-100490000I147500J0D01*
G01*
G37*
G36*
G01*
X129977500Y-99520000D02*
X130322500Y-99520000D01*
G75*
G02*
X130470000Y-99667500I0J-147500D01*
G01*
X130470000Y-99962500D01*
G75*
G02*
X130322500Y-100110000I-147500J0D01*
G01*
X129977500Y-100110000D01*
G75*
G02*
X129830000Y-99962500I0J147500D01*
G01*
X129830000Y-99667500D01*
G75*
G02*
X129977500Y-99520000I147500J0D01*
G01*
G37*
%TD*%
%TO.C,C99*%
G36*
G01*
X115010000Y-62677500D02*
X115010000Y-63022500D01*
G75*
G02*
X114862500Y-63170000I-147500J0D01*
G01*
X114567500Y-63170000D01*
G75*
G02*
X114420000Y-63022500I0J147500D01*
G01*
X114420000Y-62677500D01*
G75*
G02*
X114567500Y-62530000I147500J0D01*
G01*
X114862500Y-62530000D01*
G75*
G02*
X115010000Y-62677500I0J-147500D01*
G01*
G37*
G36*
G01*
X115980000Y-62677500D02*
X115980000Y-63022500D01*
G75*
G02*
X115832500Y-63170000I-147500J0D01*
G01*
X115537500Y-63170000D01*
G75*
G02*
X115390000Y-63022500I0J147500D01*
G01*
X115390000Y-62677500D01*
G75*
G02*
X115537500Y-62530000I147500J0D01*
G01*
X115832500Y-62530000D01*
G75*
G02*
X115980000Y-62677500I0J-147500D01*
G01*
G37*
%TD*%
%TO.C,C97*%
G36*
G01*
X131077500Y-100490000D02*
X131422500Y-100490000D01*
G75*
G02*
X131570000Y-100637500I0J-147500D01*
G01*
X131570000Y-100932500D01*
G75*
G02*
X131422500Y-101080000I-147500J0D01*
G01*
X131077500Y-101080000D01*
G75*
G02*
X130930000Y-100932500I0J147500D01*
G01*
X130930000Y-100637500D01*
G75*
G02*
X131077500Y-100490000I147500J0D01*
G01*
G37*
G36*
G01*
X131077500Y-99520000D02*
X131422500Y-99520000D01*
G75*
G02*
X131570000Y-99667500I0J-147500D01*
G01*
X131570000Y-99962500D01*
G75*
G02*
X131422500Y-100110000I-147500J0D01*
G01*
X131077500Y-100110000D01*
G75*
G02*
X130930000Y-99962500I0J147500D01*
G01*
X130930000Y-99667500D01*
G75*
G02*
X131077500Y-99520000I147500J0D01*
G01*
G37*
%TD*%
%TO.C,C96*%
G36*
G01*
X115010000Y-63677500D02*
X115010000Y-64022500D01*
G75*
G02*
X114862500Y-64170000I-147500J0D01*
G01*
X114567500Y-64170000D01*
G75*
G02*
X114420000Y-64022500I0J147500D01*
G01*
X114420000Y-63677500D01*
G75*
G02*
X114567500Y-63530000I147500J0D01*
G01*
X114862500Y-63530000D01*
G75*
G02*
X115010000Y-63677500I0J-147500D01*
G01*
G37*
G36*
G01*
X115980000Y-63677500D02*
X115980000Y-64022500D01*
G75*
G02*
X115832500Y-64170000I-147500J0D01*
G01*
X115537500Y-64170000D01*
G75*
G02*
X115390000Y-64022500I0J147500D01*
G01*
X115390000Y-63677500D01*
G75*
G02*
X115537500Y-63530000I147500J0D01*
G01*
X115832500Y-63530000D01*
G75*
G02*
X115980000Y-63677500I0J-147500D01*
G01*
G37*
%TD*%
%TO.C,C95*%
G36*
G01*
X115010000Y-64677500D02*
X115010000Y-65022500D01*
G75*
G02*
X114862500Y-65170000I-147500J0D01*
G01*
X114567500Y-65170000D01*
G75*
G02*
X114420000Y-65022500I0J147500D01*
G01*
X114420000Y-64677500D01*
G75*
G02*
X114567500Y-64530000I147500J0D01*
G01*
X114862500Y-64530000D01*
G75*
G02*
X115010000Y-64677500I0J-147500D01*
G01*
G37*
G36*
G01*
X115980000Y-64677500D02*
X115980000Y-65022500D01*
G75*
G02*
X115832500Y-65170000I-147500J0D01*
G01*
X115537500Y-65170000D01*
G75*
G02*
X115390000Y-65022500I0J147500D01*
G01*
X115390000Y-64677500D01*
G75*
G02*
X115537500Y-64530000I147500J0D01*
G01*
X115832500Y-64530000D01*
G75*
G02*
X115980000Y-64677500I0J-147500D01*
G01*
G37*
%TD*%
%TO.C,C94*%
G36*
G01*
X108377500Y-55940000D02*
X108722500Y-55940000D01*
G75*
G02*
X108870000Y-56087500I0J-147500D01*
G01*
X108870000Y-56382500D01*
G75*
G02*
X108722500Y-56530000I-147500J0D01*
G01*
X108377500Y-56530000D01*
G75*
G02*
X108230000Y-56382500I0J147500D01*
G01*
X108230000Y-56087500D01*
G75*
G02*
X108377500Y-55940000I147500J0D01*
G01*
G37*
G36*
G01*
X108377500Y-54970000D02*
X108722500Y-54970000D01*
G75*
G02*
X108870000Y-55117500I0J-147500D01*
G01*
X108870000Y-55412500D01*
G75*
G02*
X108722500Y-55560000I-147500J0D01*
G01*
X108377500Y-55560000D01*
G75*
G02*
X108230000Y-55412500I0J147500D01*
G01*
X108230000Y-55117500D01*
G75*
G02*
X108377500Y-54970000I147500J0D01*
G01*
G37*
%TD*%
%TO.C,C88*%
G36*
G01*
X113440000Y-63022500D02*
X113440000Y-62677500D01*
G75*
G02*
X113587500Y-62530000I147500J0D01*
G01*
X113882500Y-62530000D01*
G75*
G02*
X114030000Y-62677500I0J-147500D01*
G01*
X114030000Y-63022500D01*
G75*
G02*
X113882500Y-63170000I-147500J0D01*
G01*
X113587500Y-63170000D01*
G75*
G02*
X113440000Y-63022500I0J147500D01*
G01*
G37*
G36*
G01*
X112470000Y-63022500D02*
X112470000Y-62677500D01*
G75*
G02*
X112617500Y-62530000I147500J0D01*
G01*
X112912500Y-62530000D01*
G75*
G02*
X113060000Y-62677500I0J-147500D01*
G01*
X113060000Y-63022500D01*
G75*
G02*
X112912500Y-63170000I-147500J0D01*
G01*
X112617500Y-63170000D01*
G75*
G02*
X112470000Y-63022500I0J147500D01*
G01*
G37*
%TD*%
%TO.C,C87*%
G36*
G01*
X113440000Y-64022500D02*
X113440000Y-63677500D01*
G75*
G02*
X113587500Y-63530000I147500J0D01*
G01*
X113882500Y-63530000D01*
G75*
G02*
X114030000Y-63677500I0J-147500D01*
G01*
X114030000Y-64022500D01*
G75*
G02*
X113882500Y-64170000I-147500J0D01*
G01*
X113587500Y-64170000D01*
G75*
G02*
X113440000Y-64022500I0J147500D01*
G01*
G37*
G36*
G01*
X112470000Y-64022500D02*
X112470000Y-63677500D01*
G75*
G02*
X112617500Y-63530000I147500J0D01*
G01*
X112912500Y-63530000D01*
G75*
G02*
X113060000Y-63677500I0J-147500D01*
G01*
X113060000Y-64022500D01*
G75*
G02*
X112912500Y-64170000I-147500J0D01*
G01*
X112617500Y-64170000D01*
G75*
G02*
X112470000Y-64022500I0J147500D01*
G01*
G37*
%TD*%
%TO.C,C86*%
G36*
G01*
X135710000Y-45527500D02*
X135710000Y-45872500D01*
G75*
G02*
X135562500Y-46020000I-147500J0D01*
G01*
X135267500Y-46020000D01*
G75*
G02*
X135120000Y-45872500I0J147500D01*
G01*
X135120000Y-45527500D01*
G75*
G02*
X135267500Y-45380000I147500J0D01*
G01*
X135562500Y-45380000D01*
G75*
G02*
X135710000Y-45527500I0J-147500D01*
G01*
G37*
G36*
G01*
X136680000Y-45527500D02*
X136680000Y-45872500D01*
G75*
G02*
X136532500Y-46020000I-147500J0D01*
G01*
X136237500Y-46020000D01*
G75*
G02*
X136090000Y-45872500I0J147500D01*
G01*
X136090000Y-45527500D01*
G75*
G02*
X136237500Y-45380000I147500J0D01*
G01*
X136532500Y-45380000D01*
G75*
G02*
X136680000Y-45527500I0J-147500D01*
G01*
G37*
%TD*%
%TO.C,C85*%
G36*
G01*
X135710000Y-44527500D02*
X135710000Y-44872500D01*
G75*
G02*
X135562500Y-45020000I-147500J0D01*
G01*
X135267500Y-45020000D01*
G75*
G02*
X135120000Y-44872500I0J147500D01*
G01*
X135120000Y-44527500D01*
G75*
G02*
X135267500Y-44380000I147500J0D01*
G01*
X135562500Y-44380000D01*
G75*
G02*
X135710000Y-44527500I0J-147500D01*
G01*
G37*
G36*
G01*
X136680000Y-44527500D02*
X136680000Y-44872500D01*
G75*
G02*
X136532500Y-45020000I-147500J0D01*
G01*
X136237500Y-45020000D01*
G75*
G02*
X136090000Y-44872500I0J147500D01*
G01*
X136090000Y-44527500D01*
G75*
G02*
X136237500Y-44380000I147500J0D01*
G01*
X136532500Y-44380000D01*
G75*
G02*
X136680000Y-44527500I0J-147500D01*
G01*
G37*
%TD*%
%TO.C,C82*%
G36*
G01*
X131222500Y-44980000D02*
X130877500Y-44980000D01*
G75*
G02*
X130730000Y-44832500I0J147500D01*
G01*
X130730000Y-44537500D01*
G75*
G02*
X130877500Y-44390000I147500J0D01*
G01*
X131222500Y-44390000D01*
G75*
G02*
X131370000Y-44537500I0J-147500D01*
G01*
X131370000Y-44832500D01*
G75*
G02*
X131222500Y-44980000I-147500J0D01*
G01*
G37*
G36*
G01*
X131222500Y-44010000D02*
X130877500Y-44010000D01*
G75*
G02*
X130730000Y-43862500I0J147500D01*
G01*
X130730000Y-43567500D01*
G75*
G02*
X130877500Y-43420000I147500J0D01*
G01*
X131222500Y-43420000D01*
G75*
G02*
X131370000Y-43567500I0J-147500D01*
G01*
X131370000Y-43862500D01*
G75*
G02*
X131222500Y-44010000I-147500J0D01*
G01*
G37*
%TD*%
%TO.C,C81*%
G36*
G01*
X132222500Y-44010000D02*
X131877500Y-44010000D01*
G75*
G02*
X131730000Y-43862500I0J147500D01*
G01*
X131730000Y-43567500D01*
G75*
G02*
X131877500Y-43420000I147500J0D01*
G01*
X132222500Y-43420000D01*
G75*
G02*
X132370000Y-43567500I0J-147500D01*
G01*
X132370000Y-43862500D01*
G75*
G02*
X132222500Y-44010000I-147500J0D01*
G01*
G37*
G36*
G01*
X132222500Y-44980000D02*
X131877500Y-44980000D01*
G75*
G02*
X131730000Y-44832500I0J147500D01*
G01*
X131730000Y-44537500D01*
G75*
G02*
X131877500Y-44390000I147500J0D01*
G01*
X132222500Y-44390000D01*
G75*
G02*
X132370000Y-44537500I0J-147500D01*
G01*
X132370000Y-44832500D01*
G75*
G02*
X132222500Y-44980000I-147500J0D01*
G01*
G37*
%TD*%
%TO.C,C79*%
G36*
G01*
X121072500Y-74210000D02*
X120727500Y-74210000D01*
G75*
G02*
X120580000Y-74062500I0J147500D01*
G01*
X120580000Y-73767500D01*
G75*
G02*
X120727500Y-73620000I147500J0D01*
G01*
X121072500Y-73620000D01*
G75*
G02*
X121220000Y-73767500I0J-147500D01*
G01*
X121220000Y-74062500D01*
G75*
G02*
X121072500Y-74210000I-147500J0D01*
G01*
G37*
G36*
G01*
X121072500Y-75180000D02*
X120727500Y-75180000D01*
G75*
G02*
X120580000Y-75032500I0J147500D01*
G01*
X120580000Y-74737500D01*
G75*
G02*
X120727500Y-74590000I147500J0D01*
G01*
X121072500Y-74590000D01*
G75*
G02*
X121220000Y-74737500I0J-147500D01*
G01*
X121220000Y-75032500D01*
G75*
G02*
X121072500Y-75180000I-147500J0D01*
G01*
G37*
%TD*%
%TO.C,C76*%
G36*
G01*
X134377500Y-55700000D02*
X134722500Y-55700000D01*
G75*
G02*
X134870000Y-55847500I0J-147500D01*
G01*
X134870000Y-56142500D01*
G75*
G02*
X134722500Y-56290000I-147500J0D01*
G01*
X134377500Y-56290000D01*
G75*
G02*
X134230000Y-56142500I0J147500D01*
G01*
X134230000Y-55847500D01*
G75*
G02*
X134377500Y-55700000I147500J0D01*
G01*
G37*
G36*
G01*
X134377500Y-54730000D02*
X134722500Y-54730000D01*
G75*
G02*
X134870000Y-54877500I0J-147500D01*
G01*
X134870000Y-55172500D01*
G75*
G02*
X134722500Y-55320000I-147500J0D01*
G01*
X134377500Y-55320000D01*
G75*
G02*
X134230000Y-55172500I0J147500D01*
G01*
X134230000Y-54877500D01*
G75*
G02*
X134377500Y-54730000I147500J0D01*
G01*
G37*
%TD*%
%TO.C,C75*%
G36*
G01*
X133347500Y-55695000D02*
X133692500Y-55695000D01*
G75*
G02*
X133840000Y-55842500I0J-147500D01*
G01*
X133840000Y-56137500D01*
G75*
G02*
X133692500Y-56285000I-147500J0D01*
G01*
X133347500Y-56285000D01*
G75*
G02*
X133200000Y-56137500I0J147500D01*
G01*
X133200000Y-55842500D01*
G75*
G02*
X133347500Y-55695000I147500J0D01*
G01*
G37*
G36*
G01*
X133347500Y-54725000D02*
X133692500Y-54725000D01*
G75*
G02*
X133840000Y-54872500I0J-147500D01*
G01*
X133840000Y-55167500D01*
G75*
G02*
X133692500Y-55315000I-147500J0D01*
G01*
X133347500Y-55315000D01*
G75*
G02*
X133200000Y-55167500I0J147500D01*
G01*
X133200000Y-54872500D01*
G75*
G02*
X133347500Y-54725000I147500J0D01*
G01*
G37*
%TD*%
%TO.C,C72*%
G36*
G01*
X130287500Y-55690000D02*
X130632500Y-55690000D01*
G75*
G02*
X130780000Y-55837500I0J-147500D01*
G01*
X130780000Y-56132500D01*
G75*
G02*
X130632500Y-56280000I-147500J0D01*
G01*
X130287500Y-56280000D01*
G75*
G02*
X130140000Y-56132500I0J147500D01*
G01*
X130140000Y-55837500D01*
G75*
G02*
X130287500Y-55690000I147500J0D01*
G01*
G37*
G36*
G01*
X130287500Y-54720000D02*
X130632500Y-54720000D01*
G75*
G02*
X130780000Y-54867500I0J-147500D01*
G01*
X130780000Y-55162500D01*
G75*
G02*
X130632500Y-55310000I-147500J0D01*
G01*
X130287500Y-55310000D01*
G75*
G02*
X130140000Y-55162500I0J147500D01*
G01*
X130140000Y-54867500D01*
G75*
G02*
X130287500Y-54720000I147500J0D01*
G01*
G37*
%TD*%
%TO.C,C71*%
G36*
G01*
X129257500Y-55700000D02*
X129602500Y-55700000D01*
G75*
G02*
X129750000Y-55847500I0J-147500D01*
G01*
X129750000Y-56142500D01*
G75*
G02*
X129602500Y-56290000I-147500J0D01*
G01*
X129257500Y-56290000D01*
G75*
G02*
X129110000Y-56142500I0J147500D01*
G01*
X129110000Y-55847500D01*
G75*
G02*
X129257500Y-55700000I147500J0D01*
G01*
G37*
G36*
G01*
X129257500Y-54730000D02*
X129602500Y-54730000D01*
G75*
G02*
X129750000Y-54877500I0J-147500D01*
G01*
X129750000Y-55172500D01*
G75*
G02*
X129602500Y-55320000I-147500J0D01*
G01*
X129257500Y-55320000D01*
G75*
G02*
X129110000Y-55172500I0J147500D01*
G01*
X129110000Y-54877500D01*
G75*
G02*
X129257500Y-54730000I147500J0D01*
G01*
G37*
%TD*%
%TO.C,C70*%
G36*
G01*
X119727500Y-78375000D02*
X120072500Y-78375000D01*
G75*
G02*
X120220000Y-78522500I0J-147500D01*
G01*
X120220000Y-78817500D01*
G75*
G02*
X120072500Y-78965000I-147500J0D01*
G01*
X119727500Y-78965000D01*
G75*
G02*
X119580000Y-78817500I0J147500D01*
G01*
X119580000Y-78522500D01*
G75*
G02*
X119727500Y-78375000I147500J0D01*
G01*
G37*
G36*
G01*
X119727500Y-77405000D02*
X120072500Y-77405000D01*
G75*
G02*
X120220000Y-77552500I0J-147500D01*
G01*
X120220000Y-77847500D01*
G75*
G02*
X120072500Y-77995000I-147500J0D01*
G01*
X119727500Y-77995000D01*
G75*
G02*
X119580000Y-77847500I0J147500D01*
G01*
X119580000Y-77552500D01*
G75*
G02*
X119727500Y-77405000I147500J0D01*
G01*
G37*
%TD*%
%TO.C,C66*%
G36*
G01*
X130810000Y-67527500D02*
X130810000Y-67872500D01*
G75*
G02*
X130662500Y-68020000I-147500J0D01*
G01*
X130367500Y-68020000D01*
G75*
G02*
X130220000Y-67872500I0J147500D01*
G01*
X130220000Y-67527500D01*
G75*
G02*
X130367500Y-67380000I147500J0D01*
G01*
X130662500Y-67380000D01*
G75*
G02*
X130810000Y-67527500I0J-147500D01*
G01*
G37*
G36*
G01*
X131780000Y-67527500D02*
X131780000Y-67872500D01*
G75*
G02*
X131632500Y-68020000I-147500J0D01*
G01*
X131337500Y-68020000D01*
G75*
G02*
X131190000Y-67872500I0J147500D01*
G01*
X131190000Y-67527500D01*
G75*
G02*
X131337500Y-67380000I147500J0D01*
G01*
X131632500Y-67380000D01*
G75*
G02*
X131780000Y-67527500I0J-147500D01*
G01*
G37*
%TD*%
%TO.C,C65*%
G36*
G01*
X136527500Y-65890000D02*
X136872500Y-65890000D01*
G75*
G02*
X137020000Y-66037500I0J-147500D01*
G01*
X137020000Y-66332500D01*
G75*
G02*
X136872500Y-66480000I-147500J0D01*
G01*
X136527500Y-66480000D01*
G75*
G02*
X136380000Y-66332500I0J147500D01*
G01*
X136380000Y-66037500D01*
G75*
G02*
X136527500Y-65890000I147500J0D01*
G01*
G37*
G36*
G01*
X136527500Y-64920000D02*
X136872500Y-64920000D01*
G75*
G02*
X137020000Y-65067500I0J-147500D01*
G01*
X137020000Y-65362500D01*
G75*
G02*
X136872500Y-65510000I-147500J0D01*
G01*
X136527500Y-65510000D01*
G75*
G02*
X136380000Y-65362500I0J147500D01*
G01*
X136380000Y-65067500D01*
G75*
G02*
X136527500Y-64920000I147500J0D01*
G01*
G37*
%TD*%
%TO.C,C64*%
G36*
G01*
X133920000Y-59592500D02*
X133920000Y-59247500D01*
G75*
G02*
X134067500Y-59100000I147500J0D01*
G01*
X134362500Y-59100000D01*
G75*
G02*
X134510000Y-59247500I0J-147500D01*
G01*
X134510000Y-59592500D01*
G75*
G02*
X134362500Y-59740000I-147500J0D01*
G01*
X134067500Y-59740000D01*
G75*
G02*
X133920000Y-59592500I0J147500D01*
G01*
G37*
G36*
G01*
X132950000Y-59592500D02*
X132950000Y-59247500D01*
G75*
G02*
X133097500Y-59100000I147500J0D01*
G01*
X133392500Y-59100000D01*
G75*
G02*
X133540000Y-59247500I0J-147500D01*
G01*
X133540000Y-59592500D01*
G75*
G02*
X133392500Y-59740000I-147500J0D01*
G01*
X133097500Y-59740000D01*
G75*
G02*
X132950000Y-59592500I0J147500D01*
G01*
G37*
%TD*%
%TO.C,C63*%
G36*
G01*
X129400000Y-63717500D02*
X129400000Y-64062500D01*
G75*
G02*
X129252500Y-64210000I-147500J0D01*
G01*
X128957500Y-64210000D01*
G75*
G02*
X128810000Y-64062500I0J147500D01*
G01*
X128810000Y-63717500D01*
G75*
G02*
X128957500Y-63570000I147500J0D01*
G01*
X129252500Y-63570000D01*
G75*
G02*
X129400000Y-63717500I0J-147500D01*
G01*
G37*
G36*
G01*
X130370000Y-63717500D02*
X130370000Y-64062500D01*
G75*
G02*
X130222500Y-64210000I-147500J0D01*
G01*
X129927500Y-64210000D01*
G75*
G02*
X129780000Y-64062500I0J147500D01*
G01*
X129780000Y-63717500D01*
G75*
G02*
X129927500Y-63570000I147500J0D01*
G01*
X130222500Y-63570000D01*
G75*
G02*
X130370000Y-63717500I0J-147500D01*
G01*
G37*
%TD*%
%TO.C,C62*%
G36*
G01*
X135527500Y-65905000D02*
X135872500Y-65905000D01*
G75*
G02*
X136020000Y-66052500I0J-147500D01*
G01*
X136020000Y-66347500D01*
G75*
G02*
X135872500Y-66495000I-147500J0D01*
G01*
X135527500Y-66495000D01*
G75*
G02*
X135380000Y-66347500I0J147500D01*
G01*
X135380000Y-66052500D01*
G75*
G02*
X135527500Y-65905000I147500J0D01*
G01*
G37*
G36*
G01*
X135527500Y-64935000D02*
X135872500Y-64935000D01*
G75*
G02*
X136020000Y-65082500I0J-147500D01*
G01*
X136020000Y-65377500D01*
G75*
G02*
X135872500Y-65525000I-147500J0D01*
G01*
X135527500Y-65525000D01*
G75*
G02*
X135380000Y-65377500I0J147500D01*
G01*
X135380000Y-65082500D01*
G75*
G02*
X135527500Y-64935000I147500J0D01*
G01*
G37*
%TD*%
%TO.C,C61*%
G36*
G01*
X133920000Y-60592500D02*
X133920000Y-60247500D01*
G75*
G02*
X134067500Y-60100000I147500J0D01*
G01*
X134362500Y-60100000D01*
G75*
G02*
X134510000Y-60247500I0J-147500D01*
G01*
X134510000Y-60592500D01*
G75*
G02*
X134362500Y-60740000I-147500J0D01*
G01*
X134067500Y-60740000D01*
G75*
G02*
X133920000Y-60592500I0J147500D01*
G01*
G37*
G36*
G01*
X132950000Y-60592500D02*
X132950000Y-60247500D01*
G75*
G02*
X133097500Y-60100000I147500J0D01*
G01*
X133392500Y-60100000D01*
G75*
G02*
X133540000Y-60247500I0J-147500D01*
G01*
X133540000Y-60592500D01*
G75*
G02*
X133392500Y-60740000I-147500J0D01*
G01*
X133097500Y-60740000D01*
G75*
G02*
X132950000Y-60592500I0J147500D01*
G01*
G37*
%TD*%
%TO.C,C60*%
G36*
G01*
X130810000Y-66527500D02*
X130810000Y-66872500D01*
G75*
G02*
X130662500Y-67020000I-147500J0D01*
G01*
X130367500Y-67020000D01*
G75*
G02*
X130220000Y-66872500I0J147500D01*
G01*
X130220000Y-66527500D01*
G75*
G02*
X130367500Y-66380000I147500J0D01*
G01*
X130662500Y-66380000D01*
G75*
G02*
X130810000Y-66527500I0J-147500D01*
G01*
G37*
G36*
G01*
X131780000Y-66527500D02*
X131780000Y-66872500D01*
G75*
G02*
X131632500Y-67020000I-147500J0D01*
G01*
X131337500Y-67020000D01*
G75*
G02*
X131190000Y-66872500I0J147500D01*
G01*
X131190000Y-66527500D01*
G75*
G02*
X131337500Y-66380000I147500J0D01*
G01*
X131632500Y-66380000D01*
G75*
G02*
X131780000Y-66527500I0J-147500D01*
G01*
G37*
%TD*%
%TO.C,C59*%
G36*
G01*
X136440000Y-61122500D02*
X136440000Y-60777500D01*
G75*
G02*
X136587500Y-60630000I147500J0D01*
G01*
X136882500Y-60630000D01*
G75*
G02*
X137030000Y-60777500I0J-147500D01*
G01*
X137030000Y-61122500D01*
G75*
G02*
X136882500Y-61270000I-147500J0D01*
G01*
X136587500Y-61270000D01*
G75*
G02*
X136440000Y-61122500I0J147500D01*
G01*
G37*
G36*
G01*
X135470000Y-61122500D02*
X135470000Y-60777500D01*
G75*
G02*
X135617500Y-60630000I147500J0D01*
G01*
X135912500Y-60630000D01*
G75*
G02*
X136060000Y-60777500I0J-147500D01*
G01*
X136060000Y-61122500D01*
G75*
G02*
X135912500Y-61270000I-147500J0D01*
G01*
X135617500Y-61270000D01*
G75*
G02*
X135470000Y-61122500I0J147500D01*
G01*
G37*
%TD*%
%TO.C,C58*%
G36*
G01*
X167722500Y-91210000D02*
X167377500Y-91210000D01*
G75*
G02*
X167230000Y-91062500I0J147500D01*
G01*
X167230000Y-90767500D01*
G75*
G02*
X167377500Y-90620000I147500J0D01*
G01*
X167722500Y-90620000D01*
G75*
G02*
X167870000Y-90767500I0J-147500D01*
G01*
X167870000Y-91062500D01*
G75*
G02*
X167722500Y-91210000I-147500J0D01*
G01*
G37*
G36*
G01*
X167722500Y-92180000D02*
X167377500Y-92180000D01*
G75*
G02*
X167230000Y-92032500I0J147500D01*
G01*
X167230000Y-91737500D01*
G75*
G02*
X167377500Y-91590000I147500J0D01*
G01*
X167722500Y-91590000D01*
G75*
G02*
X167870000Y-91737500I0J-147500D01*
G01*
X167870000Y-92032500D01*
G75*
G02*
X167722500Y-92180000I-147500J0D01*
G01*
G37*
%TD*%
%TO.C,C57*%
G36*
G01*
X127740000Y-58832500D02*
X127740000Y-58487500D01*
G75*
G02*
X127887500Y-58340000I147500J0D01*
G01*
X128182500Y-58340000D01*
G75*
G02*
X128330000Y-58487500I0J-147500D01*
G01*
X128330000Y-58832500D01*
G75*
G02*
X128182500Y-58980000I-147500J0D01*
G01*
X127887500Y-58980000D01*
G75*
G02*
X127740000Y-58832500I0J147500D01*
G01*
G37*
G36*
G01*
X126770000Y-58832500D02*
X126770000Y-58487500D01*
G75*
G02*
X126917500Y-58340000I147500J0D01*
G01*
X127212500Y-58340000D01*
G75*
G02*
X127360000Y-58487500I0J-147500D01*
G01*
X127360000Y-58832500D01*
G75*
G02*
X127212500Y-58980000I-147500J0D01*
G01*
X126917500Y-58980000D01*
G75*
G02*
X126770000Y-58832500I0J147500D01*
G01*
G37*
%TD*%
%TO.C,C56*%
G36*
G01*
X128327500Y-66390000D02*
X128672500Y-66390000D01*
G75*
G02*
X128820000Y-66537500I0J-147500D01*
G01*
X128820000Y-66832500D01*
G75*
G02*
X128672500Y-66980000I-147500J0D01*
G01*
X128327500Y-66980000D01*
G75*
G02*
X128180000Y-66832500I0J147500D01*
G01*
X128180000Y-66537500D01*
G75*
G02*
X128327500Y-66390000I147500J0D01*
G01*
G37*
G36*
G01*
X128327500Y-65420000D02*
X128672500Y-65420000D01*
G75*
G02*
X128820000Y-65567500I0J-147500D01*
G01*
X128820000Y-65862500D01*
G75*
G02*
X128672500Y-66010000I-147500J0D01*
G01*
X128327500Y-66010000D01*
G75*
G02*
X128180000Y-65862500I0J147500D01*
G01*
X128180000Y-65567500D01*
G75*
G02*
X128327500Y-65420000I147500J0D01*
G01*
G37*
%TD*%
%TO.C,C55*%
G36*
G01*
X135527500Y-59640000D02*
X135872500Y-59640000D01*
G75*
G02*
X136020000Y-59787500I0J-147500D01*
G01*
X136020000Y-60082500D01*
G75*
G02*
X135872500Y-60230000I-147500J0D01*
G01*
X135527500Y-60230000D01*
G75*
G02*
X135380000Y-60082500I0J147500D01*
G01*
X135380000Y-59787500D01*
G75*
G02*
X135527500Y-59640000I147500J0D01*
G01*
G37*
G36*
G01*
X135527500Y-58670000D02*
X135872500Y-58670000D01*
G75*
G02*
X136020000Y-58817500I0J-147500D01*
G01*
X136020000Y-59112500D01*
G75*
G02*
X135872500Y-59260000I-147500J0D01*
G01*
X135527500Y-59260000D01*
G75*
G02*
X135380000Y-59112500I0J147500D01*
G01*
X135380000Y-58817500D01*
G75*
G02*
X135527500Y-58670000I147500J0D01*
G01*
G37*
%TD*%
%TO.C,C54*%
G36*
G01*
X127252500Y-63780000D02*
X126907500Y-63780000D01*
G75*
G02*
X126760000Y-63632500I0J147500D01*
G01*
X126760000Y-63337500D01*
G75*
G02*
X126907500Y-63190000I147500J0D01*
G01*
X127252500Y-63190000D01*
G75*
G02*
X127400000Y-63337500I0J-147500D01*
G01*
X127400000Y-63632500D01*
G75*
G02*
X127252500Y-63780000I-147500J0D01*
G01*
G37*
G36*
G01*
X127252500Y-64750000D02*
X126907500Y-64750000D01*
G75*
G02*
X126760000Y-64602500I0J147500D01*
G01*
X126760000Y-64307500D01*
G75*
G02*
X126907500Y-64160000I147500J0D01*
G01*
X127252500Y-64160000D01*
G75*
G02*
X127400000Y-64307500I0J-147500D01*
G01*
X127400000Y-64602500D01*
G75*
G02*
X127252500Y-64750000I-147500J0D01*
G01*
G37*
%TD*%
%TO.C,C53*%
G36*
G01*
X126907500Y-62245000D02*
X127252500Y-62245000D01*
G75*
G02*
X127400000Y-62392500I0J-147500D01*
G01*
X127400000Y-62687500D01*
G75*
G02*
X127252500Y-62835000I-147500J0D01*
G01*
X126907500Y-62835000D01*
G75*
G02*
X126760000Y-62687500I0J147500D01*
G01*
X126760000Y-62392500D01*
G75*
G02*
X126907500Y-62245000I147500J0D01*
G01*
G37*
G36*
G01*
X126907500Y-61275000D02*
X127252500Y-61275000D01*
G75*
G02*
X127400000Y-61422500I0J-147500D01*
G01*
X127400000Y-61717500D01*
G75*
G02*
X127252500Y-61865000I-147500J0D01*
G01*
X126907500Y-61865000D01*
G75*
G02*
X126760000Y-61717500I0J147500D01*
G01*
X126760000Y-61422500D01*
G75*
G02*
X126907500Y-61275000I147500J0D01*
G01*
G37*
%TD*%
%TO.C,C52*%
G36*
G01*
X133625000Y-62527500D02*
X133625000Y-62872500D01*
G75*
G02*
X133477500Y-63020000I-147500J0D01*
G01*
X133182500Y-63020000D01*
G75*
G02*
X133035000Y-62872500I0J147500D01*
G01*
X133035000Y-62527500D01*
G75*
G02*
X133182500Y-62380000I147500J0D01*
G01*
X133477500Y-62380000D01*
G75*
G02*
X133625000Y-62527500I0J-147500D01*
G01*
G37*
G36*
G01*
X134595000Y-62527500D02*
X134595000Y-62872500D01*
G75*
G02*
X134447500Y-63020000I-147500J0D01*
G01*
X134152500Y-63020000D01*
G75*
G02*
X134005000Y-62872500I0J147500D01*
G01*
X134005000Y-62527500D01*
G75*
G02*
X134152500Y-62380000I147500J0D01*
G01*
X134447500Y-62380000D01*
G75*
G02*
X134595000Y-62527500I0J-147500D01*
G01*
G37*
%TD*%
%TO.C,C51*%
G36*
G01*
X133910000Y-58562500D02*
X133910000Y-58217500D01*
G75*
G02*
X134057500Y-58070000I147500J0D01*
G01*
X134352500Y-58070000D01*
G75*
G02*
X134500000Y-58217500I0J-147500D01*
G01*
X134500000Y-58562500D01*
G75*
G02*
X134352500Y-58710000I-147500J0D01*
G01*
X134057500Y-58710000D01*
G75*
G02*
X133910000Y-58562500I0J147500D01*
G01*
G37*
G36*
G01*
X132940000Y-58562500D02*
X132940000Y-58217500D01*
G75*
G02*
X133087500Y-58070000I147500J0D01*
G01*
X133382500Y-58070000D01*
G75*
G02*
X133530000Y-58217500I0J-147500D01*
G01*
X133530000Y-58562500D01*
G75*
G02*
X133382500Y-58710000I-147500J0D01*
G01*
X133087500Y-58710000D01*
G75*
G02*
X132940000Y-58562500I0J147500D01*
G01*
G37*
%TD*%
%TO.C,C50*%
G36*
G01*
X129395000Y-62697500D02*
X129395000Y-63042500D01*
G75*
G02*
X129247500Y-63190000I-147500J0D01*
G01*
X128952500Y-63190000D01*
G75*
G02*
X128805000Y-63042500I0J147500D01*
G01*
X128805000Y-62697500D01*
G75*
G02*
X128952500Y-62550000I147500J0D01*
G01*
X129247500Y-62550000D01*
G75*
G02*
X129395000Y-62697500I0J-147500D01*
G01*
G37*
G36*
G01*
X130365000Y-62697500D02*
X130365000Y-63042500D01*
G75*
G02*
X130217500Y-63190000I-147500J0D01*
G01*
X129922500Y-63190000D01*
G75*
G02*
X129775000Y-63042500I0J147500D01*
G01*
X129775000Y-62697500D01*
G75*
G02*
X129922500Y-62550000I147500J0D01*
G01*
X130217500Y-62550000D01*
G75*
G02*
X130365000Y-62697500I0J-147500D01*
G01*
G37*
%TD*%
%TO.C,C49*%
G36*
G01*
X137390000Y-59822500D02*
X137390000Y-59477500D01*
G75*
G02*
X137537500Y-59330000I147500J0D01*
G01*
X137832500Y-59330000D01*
G75*
G02*
X137980000Y-59477500I0J-147500D01*
G01*
X137980000Y-59822500D01*
G75*
G02*
X137832500Y-59970000I-147500J0D01*
G01*
X137537500Y-59970000D01*
G75*
G02*
X137390000Y-59822500I0J147500D01*
G01*
G37*
G36*
G01*
X136420000Y-59822500D02*
X136420000Y-59477500D01*
G75*
G02*
X136567500Y-59330000I147500J0D01*
G01*
X136862500Y-59330000D01*
G75*
G02*
X137010000Y-59477500I0J-147500D01*
G01*
X137010000Y-59822500D01*
G75*
G02*
X136862500Y-59970000I-147500J0D01*
G01*
X136567500Y-59970000D01*
G75*
G02*
X136420000Y-59822500I0J147500D01*
G01*
G37*
%TD*%
%TO.C,C48*%
G36*
G01*
X135227500Y-57690000D02*
X135572500Y-57690000D01*
G75*
G02*
X135720000Y-57837500I0J-147500D01*
G01*
X135720000Y-58132500D01*
G75*
G02*
X135572500Y-58280000I-147500J0D01*
G01*
X135227500Y-58280000D01*
G75*
G02*
X135080000Y-58132500I0J147500D01*
G01*
X135080000Y-57837500D01*
G75*
G02*
X135227500Y-57690000I147500J0D01*
G01*
G37*
G36*
G01*
X135227500Y-56720000D02*
X135572500Y-56720000D01*
G75*
G02*
X135720000Y-56867500I0J-147500D01*
G01*
X135720000Y-57162500D01*
G75*
G02*
X135572500Y-57310000I-147500J0D01*
G01*
X135227500Y-57310000D01*
G75*
G02*
X135080000Y-57162500I0J147500D01*
G01*
X135080000Y-56867500D01*
G75*
G02*
X135227500Y-56720000I147500J0D01*
G01*
G37*
%TD*%
%TO.C,C47*%
G36*
G01*
X129327500Y-66390000D02*
X129672500Y-66390000D01*
G75*
G02*
X129820000Y-66537500I0J-147500D01*
G01*
X129820000Y-66832500D01*
G75*
G02*
X129672500Y-66980000I-147500J0D01*
G01*
X129327500Y-66980000D01*
G75*
G02*
X129180000Y-66832500I0J147500D01*
G01*
X129180000Y-66537500D01*
G75*
G02*
X129327500Y-66390000I147500J0D01*
G01*
G37*
G36*
G01*
X129327500Y-65420000D02*
X129672500Y-65420000D01*
G75*
G02*
X129820000Y-65567500I0J-147500D01*
G01*
X129820000Y-65862500D01*
G75*
G02*
X129672500Y-66010000I-147500J0D01*
G01*
X129327500Y-66010000D01*
G75*
G02*
X129180000Y-65862500I0J147500D01*
G01*
X129180000Y-65567500D01*
G75*
G02*
X129327500Y-65420000I147500J0D01*
G01*
G37*
%TD*%
D14*
%TO.C,C30*%
X165650000Y-66100000D03*
X165650000Y-67500000D03*
%TD*%
%TO.C,C29*%
X167150000Y-66100000D03*
X167150000Y-67500000D03*
%TD*%
%TO.C,C28*%
X168650000Y-66100000D03*
X168650000Y-67500000D03*
%TD*%
%TO.C,C27*%
X150150000Y-70050000D03*
X150150000Y-68650000D03*
%TD*%
%TO.C,C26*%
X148650000Y-70050000D03*
X148650000Y-68650000D03*
%TD*%
%TO.C,C25*%
G36*
G01*
X166272500Y-72080000D02*
X165927500Y-72080000D01*
G75*
G02*
X165780000Y-71932500I0J147500D01*
G01*
X165780000Y-71637500D01*
G75*
G02*
X165927500Y-71490000I147500J0D01*
G01*
X166272500Y-71490000D01*
G75*
G02*
X166420000Y-71637500I0J-147500D01*
G01*
X166420000Y-71932500D01*
G75*
G02*
X166272500Y-72080000I-147500J0D01*
G01*
G37*
G36*
G01*
X166272500Y-71110000D02*
X165927500Y-71110000D01*
G75*
G02*
X165780000Y-70962500I0J147500D01*
G01*
X165780000Y-70667500D01*
G75*
G02*
X165927500Y-70520000I147500J0D01*
G01*
X166272500Y-70520000D01*
G75*
G02*
X166420000Y-70667500I0J-147500D01*
G01*
X166420000Y-70962500D01*
G75*
G02*
X166272500Y-71110000I-147500J0D01*
G01*
G37*
%TD*%
%TO.C,C24*%
G36*
G01*
X151690000Y-75772500D02*
X151690000Y-75427500D01*
G75*
G02*
X151837500Y-75280000I147500J0D01*
G01*
X152132500Y-75280000D01*
G75*
G02*
X152280000Y-75427500I0J-147500D01*
G01*
X152280000Y-75772500D01*
G75*
G02*
X152132500Y-75920000I-147500J0D01*
G01*
X151837500Y-75920000D01*
G75*
G02*
X151690000Y-75772500I0J147500D01*
G01*
G37*
G36*
G01*
X150720000Y-75772500D02*
X150720000Y-75427500D01*
G75*
G02*
X150867500Y-75280000I147500J0D01*
G01*
X151162500Y-75280000D01*
G75*
G02*
X151310000Y-75427500I0J-147500D01*
G01*
X151310000Y-75772500D01*
G75*
G02*
X151162500Y-75920000I-147500J0D01*
G01*
X150867500Y-75920000D01*
G75*
G02*
X150720000Y-75772500I0J147500D01*
G01*
G37*
%TD*%
%TO.C,C21*%
G36*
G01*
X153810000Y-70227500D02*
X153810000Y-70572500D01*
G75*
G02*
X153662500Y-70720000I-147500J0D01*
G01*
X153367500Y-70720000D01*
G75*
G02*
X153220000Y-70572500I0J147500D01*
G01*
X153220000Y-70227500D01*
G75*
G02*
X153367500Y-70080000I147500J0D01*
G01*
X153662500Y-70080000D01*
G75*
G02*
X153810000Y-70227500I0J-147500D01*
G01*
G37*
G36*
G01*
X154780000Y-70227500D02*
X154780000Y-70572500D01*
G75*
G02*
X154632500Y-70720000I-147500J0D01*
G01*
X154337500Y-70720000D01*
G75*
G02*
X154190000Y-70572500I0J147500D01*
G01*
X154190000Y-70227500D01*
G75*
G02*
X154337500Y-70080000I147500J0D01*
G01*
X154632500Y-70080000D01*
G75*
G02*
X154780000Y-70227500I0J-147500D01*
G01*
G37*
%TD*%
%TO.C,C20*%
G36*
G01*
X158560000Y-62777500D02*
X158560000Y-63122500D01*
G75*
G02*
X158412500Y-63270000I-147500J0D01*
G01*
X158117500Y-63270000D01*
G75*
G02*
X157970000Y-63122500I0J147500D01*
G01*
X157970000Y-62777500D01*
G75*
G02*
X158117500Y-62630000I147500J0D01*
G01*
X158412500Y-62630000D01*
G75*
G02*
X158560000Y-62777500I0J-147500D01*
G01*
G37*
G36*
G01*
X159530000Y-62777500D02*
X159530000Y-63122500D01*
G75*
G02*
X159382500Y-63270000I-147500J0D01*
G01*
X159087500Y-63270000D01*
G75*
G02*
X158940000Y-63122500I0J147500D01*
G01*
X158940000Y-62777500D01*
G75*
G02*
X159087500Y-62630000I147500J0D01*
G01*
X159382500Y-62630000D01*
G75*
G02*
X159530000Y-62777500I0J-147500D01*
G01*
G37*
%TD*%
%TO.C,C16*%
G36*
G01*
X106227500Y-106390000D02*
X106572500Y-106390000D01*
G75*
G02*
X106720000Y-106537500I0J-147500D01*
G01*
X106720000Y-106832500D01*
G75*
G02*
X106572500Y-106980000I-147500J0D01*
G01*
X106227500Y-106980000D01*
G75*
G02*
X106080000Y-106832500I0J147500D01*
G01*
X106080000Y-106537500D01*
G75*
G02*
X106227500Y-106390000I147500J0D01*
G01*
G37*
G36*
G01*
X106227500Y-105420000D02*
X106572500Y-105420000D01*
G75*
G02*
X106720000Y-105567500I0J-147500D01*
G01*
X106720000Y-105862500D01*
G75*
G02*
X106572500Y-106010000I-147500J0D01*
G01*
X106227500Y-106010000D01*
G75*
G02*
X106080000Y-105862500I0J147500D01*
G01*
X106080000Y-105567500D01*
G75*
G02*
X106227500Y-105420000I147500J0D01*
G01*
G37*
%TD*%
%TO.C,C14*%
G36*
G01*
X105227500Y-106390000D02*
X105572500Y-106390000D01*
G75*
G02*
X105720000Y-106537500I0J-147500D01*
G01*
X105720000Y-106832500D01*
G75*
G02*
X105572500Y-106980000I-147500J0D01*
G01*
X105227500Y-106980000D01*
G75*
G02*
X105080000Y-106832500I0J147500D01*
G01*
X105080000Y-106537500D01*
G75*
G02*
X105227500Y-106390000I147500J0D01*
G01*
G37*
G36*
G01*
X105227500Y-105420000D02*
X105572500Y-105420000D01*
G75*
G02*
X105720000Y-105567500I0J-147500D01*
G01*
X105720000Y-105862500D01*
G75*
G02*
X105572500Y-106010000I-147500J0D01*
G01*
X105227500Y-106010000D01*
G75*
G02*
X105080000Y-105862500I0J147500D01*
G01*
X105080000Y-105567500D01*
G75*
G02*
X105227500Y-105420000I147500J0D01*
G01*
G37*
%TD*%
%TO.C,C11*%
G36*
G01*
X104227500Y-106390000D02*
X104572500Y-106390000D01*
G75*
G02*
X104720000Y-106537500I0J-147500D01*
G01*
X104720000Y-106832500D01*
G75*
G02*
X104572500Y-106980000I-147500J0D01*
G01*
X104227500Y-106980000D01*
G75*
G02*
X104080000Y-106832500I0J147500D01*
G01*
X104080000Y-106537500D01*
G75*
G02*
X104227500Y-106390000I147500J0D01*
G01*
G37*
G36*
G01*
X104227500Y-105420000D02*
X104572500Y-105420000D01*
G75*
G02*
X104720000Y-105567500I0J-147500D01*
G01*
X104720000Y-105862500D01*
G75*
G02*
X104572500Y-106010000I-147500J0D01*
G01*
X104227500Y-106010000D01*
G75*
G02*
X104080000Y-105862500I0J147500D01*
G01*
X104080000Y-105567500D01*
G75*
G02*
X104227500Y-105420000I147500J0D01*
G01*
G37*
%TD*%
%TO.C,C10*%
G36*
G01*
X94225000Y-108827500D02*
X94225000Y-109172500D01*
G75*
G02*
X94077500Y-109320000I-147500J0D01*
G01*
X93782500Y-109320000D01*
G75*
G02*
X93635000Y-109172500I0J147500D01*
G01*
X93635000Y-108827500D01*
G75*
G02*
X93782500Y-108680000I147500J0D01*
G01*
X94077500Y-108680000D01*
G75*
G02*
X94225000Y-108827500I0J-147500D01*
G01*
G37*
G36*
G01*
X95195000Y-108827500D02*
X95195000Y-109172500D01*
G75*
G02*
X95047500Y-109320000I-147500J0D01*
G01*
X94752500Y-109320000D01*
G75*
G02*
X94605000Y-109172500I0J147500D01*
G01*
X94605000Y-108827500D01*
G75*
G02*
X94752500Y-108680000I147500J0D01*
G01*
X95047500Y-108680000D01*
G75*
G02*
X95195000Y-108827500I0J-147500D01*
G01*
G37*
%TD*%
%TO.C,C7*%
G36*
G01*
X94225000Y-107777500D02*
X94225000Y-108122500D01*
G75*
G02*
X94077500Y-108270000I-147500J0D01*
G01*
X93782500Y-108270000D01*
G75*
G02*
X93635000Y-108122500I0J147500D01*
G01*
X93635000Y-107777500D01*
G75*
G02*
X93782500Y-107630000I147500J0D01*
G01*
X94077500Y-107630000D01*
G75*
G02*
X94225000Y-107777500I0J-147500D01*
G01*
G37*
G36*
G01*
X95195000Y-107777500D02*
X95195000Y-108122500D01*
G75*
G02*
X95047500Y-108270000I-147500J0D01*
G01*
X94752500Y-108270000D01*
G75*
G02*
X94605000Y-108122500I0J147500D01*
G01*
X94605000Y-107777500D01*
G75*
G02*
X94752500Y-107630000I147500J0D01*
G01*
X95047500Y-107630000D01*
G75*
G02*
X95195000Y-107777500I0J-147500D01*
G01*
G37*
%TD*%
%TO.C,C5*%
G36*
G01*
X94200000Y-110927500D02*
X94200000Y-111272500D01*
G75*
G02*
X94052500Y-111420000I-147500J0D01*
G01*
X93757500Y-111420000D01*
G75*
G02*
X93610000Y-111272500I0J147500D01*
G01*
X93610000Y-110927500D01*
G75*
G02*
X93757500Y-110780000I147500J0D01*
G01*
X94052500Y-110780000D01*
G75*
G02*
X94200000Y-110927500I0J-147500D01*
G01*
G37*
G36*
G01*
X95170000Y-110927500D02*
X95170000Y-111272500D01*
G75*
G02*
X95022500Y-111420000I-147500J0D01*
G01*
X94727500Y-111420000D01*
G75*
G02*
X94580000Y-111272500I0J147500D01*
G01*
X94580000Y-110927500D01*
G75*
G02*
X94727500Y-110780000I147500J0D01*
G01*
X95022500Y-110780000D01*
G75*
G02*
X95170000Y-110927500I0J-147500D01*
G01*
G37*
%TD*%
%TO.C,C3*%
G36*
G01*
X94200000Y-109877500D02*
X94200000Y-110222500D01*
G75*
G02*
X94052500Y-110370000I-147500J0D01*
G01*
X93757500Y-110370000D01*
G75*
G02*
X93610000Y-110222500I0J147500D01*
G01*
X93610000Y-109877500D01*
G75*
G02*
X93757500Y-109730000I147500J0D01*
G01*
X94052500Y-109730000D01*
G75*
G02*
X94200000Y-109877500I0J-147500D01*
G01*
G37*
G36*
G01*
X95170000Y-109877500D02*
X95170000Y-110222500D01*
G75*
G02*
X95022500Y-110370000I-147500J0D01*
G01*
X94727500Y-110370000D01*
G75*
G02*
X94580000Y-110222500I0J147500D01*
G01*
X94580000Y-109877500D01*
G75*
G02*
X94727500Y-109730000I147500J0D01*
G01*
X95022500Y-109730000D01*
G75*
G02*
X95170000Y-109877500I0J-147500D01*
G01*
G37*
%TD*%
%TO.C,C2*%
G36*
G01*
X98172500Y-82160000D02*
X97827500Y-82160000D01*
G75*
G02*
X97680000Y-82012500I0J147500D01*
G01*
X97680000Y-81717500D01*
G75*
G02*
X97827500Y-81570000I147500J0D01*
G01*
X98172500Y-81570000D01*
G75*
G02*
X98320000Y-81717500I0J-147500D01*
G01*
X98320000Y-82012500D01*
G75*
G02*
X98172500Y-82160000I-147500J0D01*
G01*
G37*
G36*
G01*
X98172500Y-83130000D02*
X97827500Y-83130000D01*
G75*
G02*
X97680000Y-82982500I0J147500D01*
G01*
X97680000Y-82687500D01*
G75*
G02*
X97827500Y-82540000I147500J0D01*
G01*
X98172500Y-82540000D01*
G75*
G02*
X98320000Y-82687500I0J-147500D01*
G01*
X98320000Y-82982500D01*
G75*
G02*
X98172500Y-83130000I-147500J0D01*
G01*
G37*
%TD*%
%TO.C,C1*%
G36*
G01*
X97172500Y-82160000D02*
X96827500Y-82160000D01*
G75*
G02*
X96680000Y-82012500I0J147500D01*
G01*
X96680000Y-81717500D01*
G75*
G02*
X96827500Y-81570000I147500J0D01*
G01*
X97172500Y-81570000D01*
G75*
G02*
X97320000Y-81717500I0J-147500D01*
G01*
X97320000Y-82012500D01*
G75*
G02*
X97172500Y-82160000I-147500J0D01*
G01*
G37*
G36*
G01*
X97172500Y-83130000D02*
X96827500Y-83130000D01*
G75*
G02*
X96680000Y-82982500I0J147500D01*
G01*
X96680000Y-82687500D01*
G75*
G02*
X96827500Y-82540000I147500J0D01*
G01*
X97172500Y-82540000D01*
G75*
G02*
X97320000Y-82687500I0J-147500D01*
G01*
X97320000Y-82982500D01*
G75*
G02*
X97172500Y-83130000I-147500J0D01*
G01*
G37*
%TD*%
M02*
