%TF.GenerationSoftware,KiCad,Pcbnew,5.1.9+dfsg1-1*%
%TF.CreationDate,2022-02-15T13:48:39+01:00*%
%TF.ProjectId,sc606-baseboard,73633630-362d-4626-9173-65626f617264,rev?*%
%TF.SameCoordinates,Original*%
%TF.FileFunction,Other,User*%
%FSLAX46Y46*%
G04 Gerber Fmt 4.6, Leading zero omitted, Abs format (unit mm)*
G04 Created by KiCad (PCBNEW 5.1.9+dfsg1-1) date 2022-02-15 13:48:39 commit a4fbcb5*
%MOMM*%
%LPD*%
G01*
G04 APERTURE LIST*
%TA.AperFunction,Profile*%
%ADD10C,0.120000*%
%TD*%
%TA.AperFunction,Profile*%
%ADD11C,0.254000*%
%TD*%
%ADD12C,0.050000*%
%ADD13C,0.150000*%
%ADD14C,0.100000*%
%ADD15C,0.127000*%
G04 APERTURE END LIST*
D10*
X175600000Y-42400000D02*
X75600000Y-42400000D01*
D11*
X175600000Y-42400000D02*
X175600000Y-122400000D01*
D10*
X75600000Y-122400000D02*
X75600000Y-42400000D01*
D11*
X175600000Y-122400000D02*
X75600000Y-122400000D01*
D12*
%TO.C,C138*%
X94730000Y-84230000D02*
X92870000Y-84230000D01*
X94730000Y-85170000D02*
X94730000Y-84230000D01*
X92870000Y-85170000D02*
X94730000Y-85170000D01*
X92870000Y-84230000D02*
X92870000Y-85170000D01*
%TO.C,C12*%
X94730000Y-83230000D02*
X92870000Y-83230000D01*
X94730000Y-84170000D02*
X94730000Y-83230000D01*
X92870000Y-84170000D02*
X94730000Y-84170000D01*
X92870000Y-83230000D02*
X92870000Y-84170000D01*
%TO.C,C9*%
X94730000Y-80230000D02*
X92870000Y-80230000D01*
X94730000Y-81170000D02*
X94730000Y-80230000D01*
X92870000Y-81170000D02*
X94730000Y-81170000D01*
X92870000Y-80230000D02*
X92870000Y-81170000D01*
%TO.C,Y1*%
X132620000Y-58960000D02*
X128520000Y-58960000D01*
X128520000Y-58960000D02*
X128520000Y-62360000D01*
X128520000Y-62360000D02*
X132620000Y-62360000D01*
X132620000Y-62360000D02*
X132620000Y-58960000D01*
D13*
%TO.C,J2*%
X109750000Y-122700000D02*
X109750000Y-113700000D01*
X109750000Y-113700000D02*
X141450000Y-113700000D01*
X141450000Y-113700000D02*
X141450000Y-122700000D01*
X141450000Y-122700000D02*
X109750000Y-122700000D01*
D12*
%TO.C,R135*%
X95380000Y-59370000D02*
X95380000Y-61230000D01*
X96320000Y-59370000D02*
X95380000Y-59370000D01*
X96320000Y-61230000D02*
X96320000Y-59370000D01*
X95380000Y-61230000D02*
X96320000Y-61230000D01*
%TO.C,Q9*%
X151970000Y-51370000D02*
X151970000Y-55730000D01*
X151970000Y-55730000D02*
X155530000Y-55730000D01*
X155530000Y-51370000D02*
X155530000Y-55730000D01*
X151970000Y-51370000D02*
X155530000Y-51370000D01*
%TO.C,D35*%
X158380000Y-57350000D02*
X158380000Y-58250000D01*
X159820000Y-57350000D02*
X158380000Y-57350000D01*
X159820000Y-58250000D02*
X159820000Y-57350000D01*
X158380000Y-58250000D02*
X159820000Y-58250000D01*
%TO.C,R170*%
X106330000Y-108170000D02*
X106330000Y-107230000D01*
X106330000Y-107230000D02*
X104470000Y-107230000D01*
X104470000Y-107230000D02*
X104470000Y-108170000D01*
X104470000Y-108170000D02*
X106330000Y-108170000D01*
%TO.C,U14*%
X164100000Y-58750000D02*
X169300000Y-58750000D01*
X169300000Y-58750000D02*
X169300000Y-53550000D01*
X169300000Y-53550000D02*
X164100000Y-53550000D01*
X164100000Y-53550000D02*
X164100000Y-58750000D01*
%TO.C,R167*%
X159940000Y-57800000D02*
X161360000Y-57800000D01*
X159940000Y-55440000D02*
X159940000Y-57660000D01*
X161360000Y-55300000D02*
X159940000Y-55300000D01*
X161360000Y-57660000D02*
X161360000Y-55440000D01*
X159940000Y-57660000D02*
X159940000Y-57800000D01*
X161360000Y-57660000D02*
X161360000Y-57800000D01*
X161360000Y-55440000D02*
X161360000Y-55300000D01*
X159940000Y-55440000D02*
X159940000Y-55300000D01*
%TO.C,R166*%
X163380000Y-56070000D02*
X163380000Y-55130000D01*
X163380000Y-55130000D02*
X161520000Y-55130000D01*
X161520000Y-55130000D02*
X161520000Y-56070000D01*
X161520000Y-56070000D02*
X163380000Y-56070000D01*
%TO.C,R165*%
X163380000Y-57070000D02*
X163380000Y-56130000D01*
X163380000Y-56130000D02*
X161520000Y-56130000D01*
X161520000Y-56130000D02*
X161520000Y-57070000D01*
X161520000Y-57070000D02*
X163380000Y-57070000D01*
%TO.C,R164*%
X161360000Y-57850000D02*
X159940000Y-57850000D01*
X161360000Y-60210000D02*
X161360000Y-57990000D01*
X159940000Y-60350000D02*
X161360000Y-60350000D01*
X159940000Y-57990000D02*
X159940000Y-60210000D01*
X161360000Y-57990000D02*
X161360000Y-57850000D01*
X159940000Y-57990000D02*
X159940000Y-57850000D01*
X159940000Y-60210000D02*
X159940000Y-60350000D01*
X161360000Y-60210000D02*
X161360000Y-60350000D01*
%TO.C,R163*%
X163330000Y-58220000D02*
X163330000Y-57280000D01*
X163330000Y-57280000D02*
X161470000Y-57280000D01*
X161470000Y-57280000D02*
X161470000Y-58220000D01*
X161470000Y-58220000D02*
X163330000Y-58220000D01*
%TO.C,R161*%
X163330000Y-59220000D02*
X163330000Y-58280000D01*
X163330000Y-58280000D02*
X161470000Y-58280000D01*
X161470000Y-58280000D02*
X161470000Y-59220000D01*
X161470000Y-59220000D02*
X163330000Y-59220000D01*
%TO.C,C159*%
X166270000Y-52480000D02*
X166270000Y-53420000D01*
X166270000Y-53420000D02*
X168130000Y-53420000D01*
X168130000Y-53420000D02*
X168130000Y-52480000D01*
X168130000Y-52480000D02*
X166270000Y-52480000D01*
%TO.C,C158*%
X164070000Y-58830000D02*
X164070000Y-59770000D01*
X164070000Y-59770000D02*
X165930000Y-59770000D01*
X165930000Y-59770000D02*
X165930000Y-58830000D01*
X165930000Y-58830000D02*
X164070000Y-58830000D01*
%TO.C,C157*%
X169680000Y-57280000D02*
X170620000Y-57280000D01*
X170620000Y-57280000D02*
X170620000Y-55420000D01*
X170620000Y-55420000D02*
X169680000Y-55420000D01*
X169680000Y-55420000D02*
X169680000Y-57280000D01*
%TO.C,C156*%
X171680000Y-58570000D02*
X171680000Y-57630000D01*
X171680000Y-57630000D02*
X169820000Y-57630000D01*
X169820000Y-57630000D02*
X169820000Y-58570000D01*
X169820000Y-58570000D02*
X171680000Y-58570000D01*
%TO.C,IC3*%
X149275000Y-50700000D02*
X152925000Y-50700000D01*
X152925000Y-50700000D02*
X152925000Y-46500000D01*
X152925000Y-46500000D02*
X149275000Y-46500000D01*
X149275000Y-46500000D02*
X149275000Y-50700000D01*
%TO.C,C155*%
X148670000Y-50920000D02*
X147730000Y-50920000D01*
X147730000Y-50920000D02*
X147730000Y-52780000D01*
X147730000Y-52780000D02*
X148670000Y-52780000D01*
X148670000Y-52780000D02*
X148670000Y-50920000D01*
%TO.C,C154*%
X152480000Y-46420000D02*
X152480000Y-45480000D01*
X152480000Y-45480000D02*
X150620000Y-45480000D01*
X150620000Y-45480000D02*
X150620000Y-46420000D01*
X150620000Y-46420000D02*
X152480000Y-46420000D01*
%TO.C,R160*%
X162370000Y-54130000D02*
X162370000Y-52270000D01*
X161430000Y-54130000D02*
X162370000Y-54130000D01*
X161430000Y-52270000D02*
X161430000Y-54130000D01*
X162370000Y-52270000D02*
X161430000Y-52270000D01*
%TO.C,R159*%
X161270000Y-54130000D02*
X161270000Y-52270000D01*
X160330000Y-54130000D02*
X161270000Y-54130000D01*
X160330000Y-52270000D02*
X160330000Y-54130000D01*
X161270000Y-52270000D02*
X160330000Y-52270000D01*
%TO.C,R158*%
X163470000Y-54130000D02*
X163470000Y-52270000D01*
X162530000Y-54130000D02*
X163470000Y-54130000D01*
X162530000Y-52270000D02*
X162530000Y-54130000D01*
X163470000Y-52270000D02*
X162530000Y-52270000D01*
%TO.C,R157*%
X150020000Y-55170000D02*
X151880000Y-55170000D01*
X150020000Y-54230000D02*
X150020000Y-55170000D01*
X151880000Y-54230000D02*
X150020000Y-54230000D01*
X151880000Y-55170000D02*
X151880000Y-54230000D01*
%TO.C,R156*%
X160180000Y-51930000D02*
X158320000Y-51930000D01*
X160180000Y-52870000D02*
X160180000Y-51930000D01*
X158320000Y-52870000D02*
X160180000Y-52870000D01*
X158320000Y-51930000D02*
X158320000Y-52870000D01*
%TO.C,R155*%
X149970000Y-56920000D02*
X151830000Y-56920000D01*
X149970000Y-55980000D02*
X149970000Y-56920000D01*
X151830000Y-55980000D02*
X149970000Y-55980000D01*
X151830000Y-56920000D02*
X151830000Y-55980000D01*
%TO.C,R154*%
X149930000Y-50920000D02*
X149930000Y-52780000D01*
X150870000Y-50920000D02*
X149930000Y-50920000D01*
X150870000Y-52780000D02*
X150870000Y-50920000D01*
X149930000Y-52780000D02*
X150870000Y-52780000D01*
%TO.C,R153*%
X150930000Y-50920000D02*
X150930000Y-52780000D01*
X151870000Y-50920000D02*
X150930000Y-50920000D01*
X151870000Y-52780000D02*
X151870000Y-50920000D01*
X150930000Y-52780000D02*
X151870000Y-52780000D01*
%TO.C,R152*%
X148930000Y-50920000D02*
X148930000Y-52780000D01*
X149870000Y-50920000D02*
X148930000Y-50920000D01*
X149870000Y-52780000D02*
X149870000Y-50920000D01*
X148930000Y-52780000D02*
X149870000Y-52780000D01*
%TO.C,R151*%
X149970000Y-58920000D02*
X151830000Y-58920000D01*
X149970000Y-57980000D02*
X149970000Y-58920000D01*
X151830000Y-57980000D02*
X149970000Y-57980000D01*
X151830000Y-58920000D02*
X151830000Y-57980000D01*
%TO.C,R150*%
X157270000Y-53830000D02*
X157270000Y-51970000D01*
X156330000Y-53830000D02*
X157270000Y-53830000D01*
X156330000Y-51970000D02*
X156330000Y-53830000D01*
X157270000Y-51970000D02*
X156330000Y-51970000D01*
%TO.C,R149*%
X156570000Y-51930000D02*
X156570000Y-50070000D01*
X155630000Y-51930000D02*
X156570000Y-51930000D01*
X155630000Y-50070000D02*
X155630000Y-51930000D01*
X156570000Y-50070000D02*
X155630000Y-50070000D01*
%TO.C,R148*%
X158270000Y-53830000D02*
X158270000Y-51970000D01*
X157330000Y-53830000D02*
X158270000Y-53830000D01*
X157330000Y-51970000D02*
X157330000Y-53830000D01*
X158270000Y-51970000D02*
X157330000Y-51970000D01*
%TO.C,R147*%
X157570000Y-51930000D02*
X157570000Y-50070000D01*
X156630000Y-51930000D02*
X157570000Y-51930000D01*
X156630000Y-50070000D02*
X156630000Y-51930000D01*
X157570000Y-50070000D02*
X156630000Y-50070000D01*
%TO.C,R146*%
X149970000Y-57920000D02*
X151830000Y-57920000D01*
X149970000Y-56980000D02*
X149970000Y-57920000D01*
X151830000Y-56980000D02*
X149970000Y-56980000D01*
X151830000Y-57920000D02*
X151830000Y-56980000D01*
%TO.C,D8*%
X157625000Y-51600000D02*
X159475000Y-51600000D01*
X157625000Y-48600000D02*
X157625000Y-51600000D01*
X159475000Y-48600000D02*
X157625000Y-48600000D01*
X159475000Y-51600000D02*
X159475000Y-48600000D01*
%TO.C,C152*%
X160180000Y-52930000D02*
X158320000Y-52930000D01*
X160180000Y-53870000D02*
X160180000Y-52930000D01*
X158320000Y-53870000D02*
X160180000Y-53870000D01*
X158320000Y-52930000D02*
X158320000Y-53870000D01*
%TO.C,C84*%
X159590000Y-48990000D02*
X159590000Y-48850000D01*
X161010000Y-48990000D02*
X161010000Y-48850000D01*
X161010000Y-51210000D02*
X161010000Y-51350000D01*
X159590000Y-51210000D02*
X159590000Y-51350000D01*
X161010000Y-51210000D02*
X161010000Y-48990000D01*
X161010000Y-48850000D02*
X159590000Y-48850000D01*
X159590000Y-48990000D02*
X159590000Y-51210000D01*
X159590000Y-51350000D02*
X161010000Y-51350000D01*
%TO.C,C83*%
X155090000Y-50010000D02*
X154950000Y-50010000D01*
X155090000Y-48590000D02*
X154950000Y-48590000D01*
X157310000Y-48590000D02*
X157450000Y-48590000D01*
X157310000Y-50010000D02*
X157450000Y-50010000D01*
X157310000Y-48590000D02*
X155090000Y-48590000D01*
X154950000Y-48590000D02*
X154950000Y-50010000D01*
X155090000Y-50010000D02*
X157310000Y-50010000D01*
X157450000Y-50010000D02*
X157450000Y-48590000D01*
%TO.C,R141*%
X89970000Y-56530000D02*
X89970000Y-54670000D01*
X89030000Y-56530000D02*
X89970000Y-56530000D01*
X89030000Y-54670000D02*
X89030000Y-56530000D01*
X89970000Y-54670000D02*
X89030000Y-54670000D01*
%TO.C,R140*%
X89970000Y-53930000D02*
X89970000Y-52070000D01*
X89030000Y-53930000D02*
X89970000Y-53930000D01*
X89030000Y-52070000D02*
X89030000Y-53930000D01*
X89970000Y-52070000D02*
X89030000Y-52070000D01*
%TO.C,R139*%
X91070000Y-56530000D02*
X91070000Y-54670000D01*
X90130000Y-56530000D02*
X91070000Y-56530000D01*
X90130000Y-54670000D02*
X90130000Y-56530000D01*
X91070000Y-54670000D02*
X90130000Y-54670000D01*
%TO.C,R138*%
X91070000Y-53930000D02*
X91070000Y-52070000D01*
X90130000Y-53930000D02*
X91070000Y-53930000D01*
X90130000Y-52070000D02*
X90130000Y-53930000D01*
X91070000Y-52070000D02*
X90130000Y-52070000D01*
%TO.C,R132*%
X105030000Y-52130000D02*
X103170000Y-52130000D01*
X105030000Y-53070000D02*
X105030000Y-52130000D01*
X103170000Y-53070000D02*
X105030000Y-53070000D01*
X103170000Y-52130000D02*
X103170000Y-53070000D01*
%TO.C,R131*%
X102440000Y-52130000D02*
X100580000Y-52130000D01*
X102440000Y-53070000D02*
X102440000Y-52130000D01*
X100580000Y-53070000D02*
X102440000Y-53070000D01*
X100580000Y-52130000D02*
X100580000Y-53070000D01*
%TO.C,R125*%
X105030000Y-51030000D02*
X103170000Y-51030000D01*
X105030000Y-51970000D02*
X105030000Y-51030000D01*
X103170000Y-51970000D02*
X105030000Y-51970000D01*
X103170000Y-51030000D02*
X103170000Y-51970000D01*
%TO.C,R123*%
X102430000Y-51030000D02*
X100570000Y-51030000D01*
X102430000Y-51970000D02*
X102430000Y-51030000D01*
X100570000Y-51970000D02*
X102430000Y-51970000D01*
X100570000Y-51030000D02*
X100570000Y-51970000D01*
D14*
%TO.C,D30*%
X131850000Y-47950000D02*
X131850000Y-49450000D01*
X129250000Y-49450000D02*
X129250000Y-47950000D01*
X129250000Y-47950000D02*
X131850000Y-47950000D01*
X131850000Y-49450000D02*
X129250000Y-49450000D01*
%TO.C,D23*%
X148200000Y-61100000D02*
X145600000Y-61100000D01*
X145600000Y-59600000D02*
X148200000Y-59600000D01*
X145600000Y-61100000D02*
X145600000Y-59600000D01*
X148200000Y-59600000D02*
X148200000Y-61100000D01*
D12*
%TO.C,C143*%
X142270000Y-48970000D02*
X141330000Y-48970000D01*
X141330000Y-48970000D02*
X141330000Y-50830000D01*
X141330000Y-50830000D02*
X142270000Y-50830000D01*
X142270000Y-50830000D02*
X142270000Y-48970000D01*
%TO.C,C142*%
X143270000Y-48970000D02*
X142330000Y-48970000D01*
X142330000Y-48970000D02*
X142330000Y-50830000D01*
X142330000Y-50830000D02*
X143270000Y-50830000D01*
X143270000Y-50830000D02*
X143270000Y-48970000D01*
D14*
%TO.C,D26*%
X96200000Y-54450000D02*
X96200000Y-52950000D01*
X98800000Y-52950000D02*
X98800000Y-54450000D01*
X98800000Y-54450000D02*
X96200000Y-54450000D01*
X96200000Y-52950000D02*
X98800000Y-52950000D01*
%TO.C,D25*%
X106000000Y-54050000D02*
X106000000Y-52550000D01*
X108600000Y-52550000D02*
X108600000Y-54050000D01*
X108600000Y-54050000D02*
X106000000Y-54050000D01*
X106000000Y-52550000D02*
X108600000Y-52550000D01*
D12*
%TO.C,C170*%
X94120000Y-52550000D02*
X95980000Y-52550000D01*
X94120000Y-48750000D02*
X95980000Y-48750000D01*
X95980000Y-52550000D02*
X95980000Y-48750000D01*
X94120000Y-52550000D02*
X94120000Y-48750000D01*
%TO.C,C139*%
X106470000Y-52250000D02*
X108330000Y-52250000D01*
X106470000Y-48450000D02*
X108330000Y-48450000D01*
X108330000Y-52250000D02*
X108330000Y-48450000D01*
X106470000Y-52250000D02*
X106470000Y-48450000D01*
%TO.C,R134*%
X94380000Y-59370000D02*
X94380000Y-61230000D01*
X95320000Y-59370000D02*
X94380000Y-59370000D01*
X95320000Y-61230000D02*
X95320000Y-59370000D01*
X94380000Y-61230000D02*
X95320000Y-61230000D01*
%TO.C,R13*%
X169410000Y-62090000D02*
X169550000Y-62090000D01*
X169410000Y-63510000D02*
X169550000Y-63510000D01*
X167190000Y-63510000D02*
X167050000Y-63510000D01*
X167190000Y-62090000D02*
X167050000Y-62090000D01*
X167190000Y-63510000D02*
X169410000Y-63510000D01*
X169550000Y-63510000D02*
X169550000Y-62090000D01*
X169410000Y-62090000D02*
X167190000Y-62090000D01*
X167050000Y-62090000D02*
X167050000Y-63510000D01*
%TO.C,C151*%
X90980000Y-50830000D02*
X89120000Y-50830000D01*
X90980000Y-51770000D02*
X90980000Y-50830000D01*
X89120000Y-51770000D02*
X90980000Y-51770000D01*
X89120000Y-50830000D02*
X89120000Y-51770000D01*
%TO.C,C149*%
X100630000Y-55780000D02*
X98770000Y-55780000D01*
X100630000Y-56720000D02*
X100630000Y-55780000D01*
X98770000Y-56720000D02*
X100630000Y-56720000D01*
X98770000Y-55780000D02*
X98770000Y-56720000D01*
%TO.C,Y2*%
X113200000Y-65250000D02*
X109100000Y-65250000D01*
X109100000Y-65250000D02*
X109100000Y-68650000D01*
X109100000Y-68650000D02*
X113200000Y-68650000D01*
X113200000Y-68650000D02*
X113200000Y-65250000D01*
%TO.C,U11*%
X129500000Y-99800000D02*
X129500000Y-101900000D01*
X129500000Y-101900000D02*
X125100000Y-101900000D01*
X125100000Y-101900000D02*
X125100000Y-99800000D01*
X125100000Y-99800000D02*
X129500000Y-99800000D01*
%TO.C,U10*%
X113300000Y-62775000D02*
X117500000Y-62775000D01*
X113300000Y-59125000D02*
X113300000Y-62775000D01*
X117500000Y-59125000D02*
X113300000Y-59125000D01*
X117500000Y-62775000D02*
X117500000Y-59125000D01*
%TO.C,U1*%
X154925000Y-74000000D02*
X154925000Y-70000000D01*
X154925000Y-74000000D02*
X151275000Y-74000000D01*
X151275000Y-74000000D02*
X151275000Y-70000000D01*
X151275000Y-70000000D02*
X154925000Y-70000000D01*
%TO.C,R121*%
X109670000Y-65170000D02*
X111530000Y-65170000D01*
X109670000Y-64230000D02*
X109670000Y-65170000D01*
X111530000Y-64230000D02*
X109670000Y-64230000D01*
X111530000Y-65170000D02*
X111530000Y-64230000D01*
%TO.C,R120*%
X100230000Y-68370000D02*
X100230000Y-70230000D01*
X101170000Y-68370000D02*
X100230000Y-68370000D01*
X101170000Y-70230000D02*
X101170000Y-68370000D01*
X100230000Y-70230000D02*
X101170000Y-70230000D01*
%TO.C,R119*%
X101330000Y-68370000D02*
X101330000Y-70230000D01*
X102270000Y-68370000D02*
X101330000Y-68370000D01*
X102270000Y-70230000D02*
X102270000Y-68370000D01*
X101330000Y-70230000D02*
X102270000Y-70230000D01*
%TO.C,R118*%
X102570000Y-70170000D02*
X104430000Y-70170000D01*
X102570000Y-69230000D02*
X102570000Y-70170000D01*
X104430000Y-69230000D02*
X102570000Y-69230000D01*
X104430000Y-70170000D02*
X104430000Y-69230000D01*
%TO.C,R113*%
X109790000Y-64110000D02*
X109650000Y-64110000D01*
X109790000Y-62690000D02*
X109650000Y-62690000D01*
X112010000Y-62690000D02*
X112150000Y-62690000D01*
X112010000Y-64110000D02*
X112150000Y-64110000D01*
X112010000Y-62690000D02*
X109790000Y-62690000D01*
X109650000Y-62690000D02*
X109650000Y-64110000D01*
X109790000Y-64110000D02*
X112010000Y-64110000D01*
X112150000Y-64110000D02*
X112150000Y-62690000D01*
%TO.C,R107*%
X89830000Y-57980000D02*
X87970000Y-57980000D01*
X89830000Y-58920000D02*
X89830000Y-57980000D01*
X87970000Y-58920000D02*
X89830000Y-58920000D01*
X87970000Y-57980000D02*
X87970000Y-58920000D01*
%TO.C,R101*%
X112920000Y-75330000D02*
X112920000Y-73470000D01*
X111980000Y-75330000D02*
X112920000Y-75330000D01*
X111980000Y-73470000D02*
X111980000Y-75330000D01*
X112920000Y-73470000D02*
X111980000Y-73470000D01*
%TO.C,R100*%
X111920000Y-75330000D02*
X111920000Y-73470000D01*
X110980000Y-75330000D02*
X111920000Y-75330000D01*
X110980000Y-73470000D02*
X110980000Y-75330000D01*
X111920000Y-73470000D02*
X110980000Y-73470000D01*
%TO.C,R99*%
X110920000Y-75330000D02*
X110920000Y-73470000D01*
X109980000Y-75330000D02*
X110920000Y-75330000D01*
X109980000Y-73470000D02*
X109980000Y-75330000D01*
X110920000Y-73470000D02*
X109980000Y-73470000D01*
%TO.C,R98*%
X109920000Y-75330000D02*
X109920000Y-73470000D01*
X108980000Y-75330000D02*
X109920000Y-75330000D01*
X108980000Y-73470000D02*
X108980000Y-75330000D01*
X109920000Y-73470000D02*
X108980000Y-73470000D01*
%TO.C,R94*%
X118860000Y-65460000D02*
X118860000Y-65600000D01*
X117440000Y-65460000D02*
X117440000Y-65600000D01*
X117440000Y-63240000D02*
X117440000Y-63100000D01*
X118860000Y-63240000D02*
X118860000Y-63100000D01*
X117440000Y-63240000D02*
X117440000Y-65460000D01*
X117440000Y-65600000D02*
X118860000Y-65600000D01*
X118860000Y-65460000D02*
X118860000Y-63240000D01*
X118860000Y-63100000D02*
X117440000Y-63100000D01*
%TO.C,R92*%
X112230000Y-60020000D02*
X112230000Y-61880000D01*
X113170000Y-60020000D02*
X112230000Y-60020000D01*
X113170000Y-61880000D02*
X113170000Y-60020000D01*
X112230000Y-61880000D02*
X113170000Y-61880000D01*
%TO.C,R89*%
X127470000Y-50730000D02*
X127470000Y-48870000D01*
X126530000Y-50730000D02*
X127470000Y-50730000D01*
X126530000Y-48870000D02*
X126530000Y-50730000D01*
X127470000Y-48870000D02*
X126530000Y-48870000D01*
%TO.C,R88*%
X134970000Y-44170000D02*
X136830000Y-44170000D01*
X134970000Y-43230000D02*
X134970000Y-44170000D01*
X136830000Y-43230000D02*
X134970000Y-43230000D01*
X136830000Y-44170000D02*
X136830000Y-43230000D01*
%TO.C,R87*%
X128870000Y-55430000D02*
X128870000Y-53570000D01*
X127930000Y-55430000D02*
X128870000Y-55430000D01*
X127930000Y-53570000D02*
X127930000Y-55430000D01*
X128870000Y-53570000D02*
X127930000Y-53570000D01*
%TO.C,R86*%
X131950000Y-55420000D02*
X131950000Y-53560000D01*
X131010000Y-55420000D02*
X131950000Y-55420000D01*
X131010000Y-53560000D02*
X131010000Y-55420000D01*
X131950000Y-53560000D02*
X131010000Y-53560000D01*
%TO.C,R82*%
X132971428Y-55420000D02*
X132971428Y-53560000D01*
X132031428Y-55420000D02*
X132971428Y-55420000D01*
X132031428Y-53560000D02*
X132031428Y-55420000D01*
X132971428Y-53560000D02*
X132031428Y-53560000D01*
%TO.C,R81*%
X136050000Y-55420000D02*
X136050000Y-53560000D01*
X135110000Y-55420000D02*
X136050000Y-55420000D01*
X135110000Y-53560000D02*
X135110000Y-55420000D01*
X136050000Y-53560000D02*
X135110000Y-53560000D01*
%TO.C,R73*%
X119430000Y-73470000D02*
X119430000Y-75330000D01*
X120370000Y-73470000D02*
X119430000Y-73470000D01*
X120370000Y-75330000D02*
X120370000Y-73470000D01*
X119430000Y-75330000D02*
X120370000Y-75330000D01*
%TO.C,R72*%
X119370000Y-79130000D02*
X119370000Y-77270000D01*
X118430000Y-79130000D02*
X119370000Y-79130000D01*
X118430000Y-77270000D02*
X118430000Y-79130000D01*
X119370000Y-77270000D02*
X118430000Y-77270000D01*
%TO.C,R71*%
X118430000Y-73470000D02*
X118430000Y-75330000D01*
X119370000Y-73470000D02*
X118430000Y-73470000D01*
X119370000Y-75330000D02*
X119370000Y-73470000D01*
X118430000Y-75330000D02*
X119370000Y-75330000D01*
%TO.C,R68*%
X135120000Y-56470000D02*
X136980000Y-56470000D01*
X135120000Y-55530000D02*
X135120000Y-56470000D01*
X136980000Y-55530000D02*
X135120000Y-55530000D01*
X136980000Y-56470000D02*
X136980000Y-55530000D01*
%TO.C,R67*%
X132030000Y-55560000D02*
X132030000Y-57420000D01*
X132970000Y-55560000D02*
X132030000Y-55560000D01*
X132970000Y-57420000D02*
X132970000Y-55560000D01*
X132030000Y-57420000D02*
X132970000Y-57420000D01*
%TO.C,R64*%
X131010000Y-55570000D02*
X131010000Y-57430000D01*
X131950000Y-55570000D02*
X131010000Y-55570000D01*
X131950000Y-57430000D02*
X131950000Y-55570000D01*
X131010000Y-57430000D02*
X131950000Y-57430000D01*
%TO.C,R63*%
X127930000Y-55570000D02*
X127930000Y-57430000D01*
X128870000Y-55570000D02*
X127930000Y-55570000D01*
X128870000Y-57430000D02*
X128870000Y-55570000D01*
X127930000Y-57430000D02*
X128870000Y-57430000D01*
%TO.C,R62*%
X134970000Y-50770000D02*
X136830000Y-50770000D01*
X134970000Y-49830000D02*
X134970000Y-50770000D01*
X136830000Y-49830000D02*
X134970000Y-49830000D01*
X136830000Y-50770000D02*
X136830000Y-49830000D01*
%TO.C,R61*%
X134970000Y-51770000D02*
X136830000Y-51770000D01*
X134970000Y-50830000D02*
X134970000Y-51770000D01*
X136830000Y-50830000D02*
X134970000Y-50830000D01*
X136830000Y-51770000D02*
X136830000Y-50830000D01*
%TO.C,R60*%
X125530000Y-48870000D02*
X125530000Y-50730000D01*
X126470000Y-48870000D02*
X125530000Y-48870000D01*
X126470000Y-50730000D02*
X126470000Y-48870000D01*
X125530000Y-50730000D02*
X126470000Y-50730000D01*
%TO.C,R59*%
X127430000Y-50830000D02*
X125570000Y-50830000D01*
X127430000Y-51770000D02*
X127430000Y-50830000D01*
X125570000Y-51770000D02*
X127430000Y-51770000D01*
X125570000Y-50830000D02*
X125570000Y-51770000D01*
%TO.C,R56*%
X113170000Y-74370000D02*
X115030000Y-74370000D01*
X113170000Y-73430000D02*
X113170000Y-74370000D01*
X115030000Y-73430000D02*
X113170000Y-73430000D01*
X115030000Y-74370000D02*
X115030000Y-73430000D01*
%TO.C,R55*%
X113170000Y-75370000D02*
X115030000Y-75370000D01*
X113170000Y-74430000D02*
X113170000Y-75370000D01*
X115030000Y-74430000D02*
X113170000Y-74430000D01*
X115030000Y-75370000D02*
X115030000Y-74430000D01*
%TO.C,R52*%
X126610000Y-59200000D02*
X126610000Y-61060000D01*
X127550000Y-59200000D02*
X126610000Y-59200000D01*
X127550000Y-61060000D02*
X127550000Y-59200000D01*
X126610000Y-61060000D02*
X127550000Y-61060000D01*
%TO.C,R48*%
X115870000Y-113430000D02*
X115870000Y-111570000D01*
X114930000Y-113430000D02*
X115870000Y-113430000D01*
X114930000Y-111570000D02*
X114930000Y-113430000D01*
X115870000Y-111570000D02*
X114930000Y-111570000D01*
%TO.C,R47*%
X116870000Y-113430000D02*
X116870000Y-111570000D01*
X115930000Y-113430000D02*
X116870000Y-113430000D01*
X115930000Y-111570000D02*
X115930000Y-113430000D01*
X116870000Y-111570000D02*
X115930000Y-111570000D01*
%TO.C,R46*%
X117870000Y-113430000D02*
X117870000Y-111570000D01*
X116930000Y-113430000D02*
X117870000Y-113430000D01*
X116930000Y-111570000D02*
X116930000Y-113430000D01*
X117870000Y-111570000D02*
X116930000Y-111570000D01*
%TO.C,R45*%
X118870000Y-113430000D02*
X118870000Y-111570000D01*
X117930000Y-113430000D02*
X118870000Y-113430000D01*
X117930000Y-111570000D02*
X117930000Y-113430000D01*
X118870000Y-111570000D02*
X117930000Y-111570000D01*
%TO.C,R15*%
X169730000Y-60870000D02*
X169730000Y-62730000D01*
X170670000Y-60870000D02*
X169730000Y-60870000D01*
X170670000Y-62730000D02*
X170670000Y-60870000D01*
X169730000Y-62730000D02*
X170670000Y-62730000D01*
%TO.C,R14*%
X169730000Y-62770000D02*
X169730000Y-64630000D01*
X170670000Y-62770000D02*
X169730000Y-62770000D01*
X170670000Y-64630000D02*
X170670000Y-62770000D01*
X169730000Y-64630000D02*
X170670000Y-64630000D01*
%TO.C,R11*%
X156730000Y-74330000D02*
X154870000Y-74330000D01*
X156730000Y-75270000D02*
X156730000Y-74330000D01*
X154870000Y-75270000D02*
X156730000Y-75270000D01*
X154870000Y-74330000D02*
X154870000Y-75270000D01*
%TO.C,R10*%
X154730000Y-74330000D02*
X152870000Y-74330000D01*
X154730000Y-75270000D02*
X154730000Y-74330000D01*
X152870000Y-75270000D02*
X154730000Y-75270000D01*
X152870000Y-74330000D02*
X152870000Y-75270000D01*
%TO.C,R8*%
X157130000Y-72730000D02*
X155270000Y-72730000D01*
X157130000Y-73670000D02*
X157130000Y-72730000D01*
X155270000Y-73670000D02*
X157130000Y-73670000D01*
X155270000Y-72730000D02*
X155270000Y-73670000D01*
%TO.C,R7*%
X156170000Y-72545000D02*
X156170000Y-70685000D01*
X155230000Y-72545000D02*
X156170000Y-72545000D01*
X155230000Y-70685000D02*
X155230000Y-72545000D01*
X156170000Y-70685000D02*
X155230000Y-70685000D01*
%TO.C,L21*%
X118980000Y-63420000D02*
X118980000Y-65280000D01*
X119920000Y-63420000D02*
X118980000Y-63420000D01*
X119920000Y-65280000D02*
X119920000Y-63420000D01*
X118980000Y-65280000D02*
X119920000Y-65280000D01*
%TO.C,L18*%
X133415000Y-54430000D02*
X134625000Y-54430000D01*
X133415000Y-53130000D02*
X133415000Y-54430000D01*
X134625000Y-53130000D02*
X133415000Y-53130000D01*
X134625000Y-54430000D02*
X134625000Y-53130000D01*
%TO.C,L16*%
X129295000Y-54500000D02*
X130505000Y-54500000D01*
X129295000Y-53200000D02*
X129295000Y-54500000D01*
X130505000Y-53200000D02*
X129295000Y-53200000D01*
X130505000Y-54500000D02*
X130505000Y-53200000D01*
%TO.C,L15*%
X140992000Y-62558000D02*
X140992000Y-61042000D01*
X144008000Y-62558000D02*
X144008000Y-61042000D01*
X144008000Y-61042000D02*
X140992000Y-61042000D01*
X144008000Y-62558000D02*
X140992000Y-62558000D01*
%TO.C,L14*%
X140992000Y-64158000D02*
X140992000Y-62642000D01*
X144008000Y-64158000D02*
X144008000Y-62642000D01*
X144008000Y-62642000D02*
X140992000Y-62642000D01*
X144008000Y-64158000D02*
X140992000Y-64158000D01*
%TO.C,L13*%
X140992000Y-65758000D02*
X140992000Y-64242000D01*
X144008000Y-65758000D02*
X144008000Y-64242000D01*
X144008000Y-64242000D02*
X140992000Y-64242000D01*
X144008000Y-65758000D02*
X140992000Y-65758000D01*
%TO.C,L12*%
X163950000Y-84695000D02*
X163950000Y-85905000D01*
X165250000Y-84695000D02*
X163950000Y-84695000D01*
X165250000Y-85905000D02*
X165250000Y-84695000D01*
X163950000Y-85905000D02*
X165250000Y-85905000D01*
%TO.C,L11*%
X163950000Y-82695000D02*
X163950000Y-83905000D01*
X165250000Y-82695000D02*
X163950000Y-82695000D01*
X165250000Y-83905000D02*
X165250000Y-82695000D01*
X163950000Y-83905000D02*
X165250000Y-83905000D01*
%TO.C,L10*%
X163950000Y-80695000D02*
X163950000Y-81905000D01*
X165250000Y-80695000D02*
X163950000Y-80695000D01*
X165250000Y-81905000D02*
X165250000Y-80695000D01*
X163950000Y-81905000D02*
X165250000Y-81905000D01*
%TO.C,L9*%
X163950000Y-78695000D02*
X163950000Y-79905000D01*
X165250000Y-78695000D02*
X163950000Y-78695000D01*
X165250000Y-79905000D02*
X165250000Y-78695000D01*
X163950000Y-79905000D02*
X165250000Y-79905000D01*
%TO.C,L8*%
X163950000Y-76695000D02*
X163950000Y-77905000D01*
X165250000Y-76695000D02*
X163950000Y-76695000D01*
X165250000Y-77905000D02*
X165250000Y-76695000D01*
X163950000Y-77905000D02*
X165250000Y-77905000D01*
%TO.C,L7*%
X138392000Y-68642000D02*
X139908000Y-68642000D01*
X138392000Y-71658000D02*
X139908000Y-71658000D01*
X139908000Y-71658000D02*
X139908000Y-68642000D01*
X138392000Y-71658000D02*
X138392000Y-68642000D01*
%TO.C,L6*%
X141592000Y-68642000D02*
X143108000Y-68642000D01*
X141592000Y-71658000D02*
X143108000Y-71658000D01*
X143108000Y-71658000D02*
X143108000Y-68642000D01*
X141592000Y-71658000D02*
X141592000Y-68642000D01*
%TO.C,L5*%
X139992000Y-68642000D02*
X141508000Y-68642000D01*
X139992000Y-71658000D02*
X141508000Y-71658000D01*
X141508000Y-71658000D02*
X141508000Y-68642000D01*
X139992000Y-71658000D02*
X139992000Y-68642000D01*
D14*
%TO.C,L1*%
X150800000Y-69800000D02*
X150800000Y-74000000D01*
X146600000Y-74000000D02*
X146600000Y-69800000D01*
X150800000Y-74000000D02*
X146600000Y-74000000D01*
X146600000Y-69800000D02*
X150800000Y-69800000D01*
D15*
%TO.C,J8*%
X102875000Y-96750000D02*
X102875000Y-79550000D01*
X102875000Y-79550000D02*
X119125000Y-79550000D01*
X119125000Y-79550000D02*
X119125000Y-96750000D01*
X119125000Y-96750000D02*
X102875000Y-96750000D01*
D12*
%TO.C,J7*%
X120180000Y-98760000D02*
X135880000Y-98760000D01*
X135880000Y-98760000D02*
X135880000Y-81060000D01*
X135880000Y-81060000D02*
X120180000Y-81060000D01*
X120180000Y-81060000D02*
X120180000Y-98760000D01*
%TO.C,J3*%
X169344000Y-96447800D02*
X169344000Y-68152200D01*
X175609900Y-96447800D02*
X169344000Y-96447800D01*
X175609900Y-68152200D02*
X175609900Y-96447800D01*
X169344000Y-68152200D02*
X175609900Y-68152200D01*
%TO.C,IC2*%
X140550000Y-54675000D02*
X144750000Y-54675000D01*
X140550000Y-51025000D02*
X140550000Y-54675000D01*
X144750000Y-51025000D02*
X140550000Y-51025000D01*
X144750000Y-54675000D02*
X144750000Y-51025000D01*
%TO.C,D22*%
X137275000Y-46200000D02*
X139125000Y-46200000D01*
X137275000Y-43200000D02*
X137275000Y-46200000D01*
X139125000Y-43200000D02*
X137275000Y-43200000D01*
X139125000Y-46200000D02*
X139125000Y-43200000D01*
D14*
%TO.C,D16*%
X109150000Y-77650000D02*
X109150000Y-76150000D01*
X111750000Y-76150000D02*
X111750000Y-77650000D01*
X111750000Y-77650000D02*
X109150000Y-77650000D01*
X109150000Y-76150000D02*
X111750000Y-76150000D01*
D12*
%TO.C,D10*%
X134975000Y-49400000D02*
X136825000Y-49400000D01*
X134975000Y-46400000D02*
X134975000Y-49400000D01*
X136825000Y-46400000D02*
X134975000Y-46400000D01*
X136825000Y-49400000D02*
X136825000Y-46400000D01*
%TO.C,D1*%
X95450000Y-112900000D02*
X95450000Y-111700000D01*
X93450000Y-111700000D02*
X93450000Y-112900000D01*
X93450000Y-112900000D02*
X95450000Y-112900000D01*
X95450000Y-111700000D02*
X93450000Y-111700000D01*
%TO.C,C147*%
X100630000Y-54780000D02*
X98770000Y-54780000D01*
X100630000Y-55720000D02*
X100630000Y-54780000D01*
X98770000Y-55720000D02*
X100630000Y-55720000D01*
X98770000Y-54780000D02*
X98770000Y-55720000D01*
%TO.C,C141*%
X104520000Y-57130000D02*
X104520000Y-55270000D01*
X103580000Y-57130000D02*
X104520000Y-57130000D01*
X103580000Y-55270000D02*
X103580000Y-57130000D01*
X104520000Y-55270000D02*
X103580000Y-55270000D01*
%TO.C,C140*%
X105520000Y-57130000D02*
X105520000Y-55270000D01*
X104580000Y-57130000D02*
X105520000Y-57130000D01*
X104580000Y-55270000D02*
X104580000Y-57130000D01*
X105520000Y-55270000D02*
X104580000Y-55270000D01*
%TO.C,C137*%
X105174731Y-63489949D02*
X106489949Y-62174731D01*
X104510051Y-62825269D02*
X105174731Y-63489949D01*
X105825269Y-61510051D02*
X104510051Y-62825269D01*
X106489949Y-62174731D02*
X105825269Y-61510051D01*
%TO.C,C136*%
X104417678Y-62747002D02*
X105732896Y-61431784D01*
X103752998Y-62082322D02*
X104417678Y-62747002D01*
X105068216Y-60767104D02*
X103752998Y-62082322D01*
X105732896Y-61431784D02*
X105068216Y-60767104D01*
%TO.C,C135*%
X108030000Y-65970000D02*
X108030000Y-67830000D01*
X108970000Y-65970000D02*
X108030000Y-65970000D01*
X108970000Y-67830000D02*
X108970000Y-65970000D01*
X108030000Y-67830000D02*
X108970000Y-67830000D01*
%TO.C,C134*%
X104589949Y-66425269D02*
X103274731Y-65110051D01*
X103925269Y-67089949D02*
X104589949Y-66425269D01*
X102610051Y-65774731D02*
X103925269Y-67089949D01*
X103274731Y-65110051D02*
X102610051Y-65774731D01*
%TO.C,C132*%
X102574731Y-65589949D02*
X103889949Y-64274731D01*
X101910051Y-64925269D02*
X102574731Y-65589949D01*
X103225269Y-63610051D02*
X101910051Y-64925269D01*
X103889949Y-64274731D02*
X103225269Y-63610051D01*
%TO.C,C131*%
X100174731Y-63189949D02*
X101489949Y-61874731D01*
X99510051Y-62525269D02*
X100174731Y-63189949D01*
X100825269Y-61210051D02*
X99510051Y-62525269D01*
X101489949Y-61874731D02*
X100825269Y-61210051D01*
%TO.C,C130*%
X101810051Y-60274731D02*
X103125269Y-61589949D01*
X102474731Y-59610051D02*
X101810051Y-60274731D01*
X103789949Y-60925269D02*
X102474731Y-59610051D01*
X103125269Y-61589949D02*
X103789949Y-60925269D01*
%TO.C,C129*%
X106625269Y-62310051D02*
X105310051Y-63625269D01*
X107289949Y-62974731D02*
X106625269Y-62310051D01*
X105974731Y-64289949D02*
X107289949Y-62974731D01*
X105310051Y-63625269D02*
X105974731Y-64289949D01*
%TO.C,C128*%
X100670000Y-68130000D02*
X100670000Y-66270000D01*
X99730000Y-68130000D02*
X100670000Y-68130000D01*
X99730000Y-66270000D02*
X99730000Y-68130000D01*
X100670000Y-66270000D02*
X99730000Y-66270000D01*
%TO.C,C127*%
X103710051Y-59074731D02*
X105025269Y-60389949D01*
X104374731Y-58410051D02*
X103710051Y-59074731D01*
X105689949Y-59725269D02*
X104374731Y-58410051D01*
X105025269Y-60389949D02*
X105689949Y-59725269D01*
%TO.C,C126*%
X101625269Y-62010051D02*
X100310051Y-63325269D01*
X102289949Y-62674731D02*
X101625269Y-62010051D01*
X100974731Y-63989949D02*
X102289949Y-62674731D01*
X100310051Y-63325269D02*
X100974731Y-63989949D01*
%TO.C,C125*%
X106189949Y-64825269D02*
X104874731Y-63510051D01*
X105525269Y-65489949D02*
X106189949Y-64825269D01*
X104210051Y-64174731D02*
X105525269Y-65489949D01*
X104874731Y-63510051D02*
X104210051Y-64174731D01*
%TO.C,C124*%
X103410051Y-64974731D02*
X104725269Y-66289949D01*
X104074731Y-64310051D02*
X103410051Y-64974731D01*
X105389949Y-65625269D02*
X104074731Y-64310051D01*
X104725269Y-66289949D02*
X105389949Y-65625269D01*
%TO.C,C123*%
X102910051Y-59874731D02*
X104225269Y-61189949D01*
X103574731Y-59210051D02*
X102910051Y-59874731D01*
X104889949Y-60525269D02*
X103574731Y-59210051D01*
X104225269Y-61189949D02*
X104889949Y-60525269D01*
%TO.C,C122*%
X106774731Y-65089949D02*
X108089949Y-63774731D01*
X106110051Y-64425269D02*
X106774731Y-65089949D01*
X107425269Y-63110051D02*
X106110051Y-64425269D01*
X108089949Y-63774731D02*
X107425269Y-63110051D01*
%TO.C,C121*%
X101774731Y-64789949D02*
X103089949Y-63474731D01*
X101110051Y-64125269D02*
X101774731Y-64789949D01*
X102425269Y-62810051D02*
X101110051Y-64125269D01*
X103089949Y-63474731D02*
X102425269Y-62810051D01*
%TO.C,C120*%
X101010051Y-61074731D02*
X102325269Y-62389949D01*
X101674731Y-60410051D02*
X101010051Y-61074731D01*
X102989949Y-61725269D02*
X101674731Y-60410051D01*
X102325269Y-62389949D02*
X102989949Y-61725269D01*
%TO.C,C119*%
X98670000Y-68130000D02*
X98670000Y-66270000D01*
X97730000Y-68130000D02*
X98670000Y-68130000D01*
X97730000Y-66270000D02*
X97730000Y-68130000D01*
X98670000Y-66270000D02*
X97730000Y-66270000D01*
%TO.C,C118*%
X99670000Y-68130000D02*
X99670000Y-66270000D01*
X98730000Y-68130000D02*
X99670000Y-68130000D01*
X98730000Y-66270000D02*
X98730000Y-68130000D01*
X99670000Y-66270000D02*
X98730000Y-66270000D01*
%TO.C,C117*%
X142570000Y-55770000D02*
X144430000Y-55770000D01*
X142570000Y-54830000D02*
X142570000Y-55770000D01*
X144430000Y-54830000D02*
X142570000Y-54830000D01*
X144430000Y-55770000D02*
X144430000Y-54830000D01*
%TO.C,C116*%
X144430000Y-55830000D02*
X142570000Y-55830000D01*
X144430000Y-56770000D02*
X144430000Y-55830000D01*
X142570000Y-56770000D02*
X144430000Y-56770000D01*
X142570000Y-55830000D02*
X142570000Y-56770000D01*
%TO.C,C115*%
X145180000Y-51470000D02*
X145180000Y-53330000D01*
X146120000Y-51470000D02*
X145180000Y-51470000D01*
X146120000Y-53330000D02*
X146120000Y-51470000D01*
X145180000Y-53330000D02*
X146120000Y-53330000D01*
%TO.C,C114*%
X147030000Y-49430000D02*
X145170000Y-49430000D01*
X147030000Y-50370000D02*
X147030000Y-49430000D01*
X145170000Y-50370000D02*
X147030000Y-50370000D01*
X145170000Y-49430000D02*
X145170000Y-50370000D01*
%TO.C,C113*%
X146420000Y-58870000D02*
X148280000Y-58870000D01*
X146420000Y-57930000D02*
X146420000Y-58870000D01*
X148280000Y-57930000D02*
X146420000Y-57930000D01*
X148280000Y-58870000D02*
X148280000Y-57930000D01*
%TO.C,C112*%
X147030000Y-50430000D02*
X145170000Y-50430000D01*
X147030000Y-51370000D02*
X147030000Y-50430000D01*
X145170000Y-51370000D02*
X147030000Y-51370000D01*
X145170000Y-50430000D02*
X145170000Y-51370000D01*
%TO.C,C111*%
X140370000Y-52880000D02*
X140370000Y-51020000D01*
X139430000Y-52880000D02*
X140370000Y-52880000D01*
X139430000Y-51020000D02*
X139430000Y-52880000D01*
X140370000Y-51020000D02*
X139430000Y-51020000D01*
%TO.C,C110*%
X84430000Y-48480000D02*
X82570000Y-48480000D01*
X84430000Y-49420000D02*
X84430000Y-48480000D01*
X82570000Y-49420000D02*
X84430000Y-49420000D01*
X82570000Y-48480000D02*
X82570000Y-49420000D01*
%TO.C,C109*%
X78520000Y-49420000D02*
X80380000Y-49420000D01*
X78520000Y-48480000D02*
X78520000Y-49420000D01*
X80380000Y-48480000D02*
X78520000Y-48480000D01*
X80380000Y-49420000D02*
X80380000Y-48480000D01*
%TO.C,C108*%
X89830000Y-58980000D02*
X87970000Y-58980000D01*
X89830000Y-59920000D02*
X89830000Y-58980000D01*
X87970000Y-59920000D02*
X89830000Y-59920000D01*
X87970000Y-58980000D02*
X87970000Y-59920000D01*
%TO.C,C107*%
X110020000Y-79370000D02*
X111880000Y-79370000D01*
X110020000Y-78430000D02*
X110020000Y-79370000D01*
X111880000Y-78430000D02*
X110020000Y-78430000D01*
X111880000Y-79370000D02*
X111880000Y-78430000D01*
%TO.C,C106*%
X107880000Y-78430000D02*
X106020000Y-78430000D01*
X107880000Y-79370000D02*
X107880000Y-78430000D01*
X106020000Y-79370000D02*
X107880000Y-79370000D01*
X106020000Y-78430000D02*
X106020000Y-79370000D01*
%TO.C,C105*%
X108020000Y-79370000D02*
X109880000Y-79370000D01*
X108020000Y-78430000D02*
X108020000Y-79370000D01*
X109880000Y-78430000D02*
X108020000Y-78430000D01*
X109880000Y-79370000D02*
X109880000Y-78430000D01*
%TO.C,C104*%
X113880000Y-78430000D02*
X112020000Y-78430000D01*
X113880000Y-79370000D02*
X113880000Y-78430000D01*
X112020000Y-79370000D02*
X113880000Y-79370000D01*
X112020000Y-78430000D02*
X112020000Y-79370000D01*
%TO.C,C103*%
X100570000Y-54070000D02*
X102430000Y-54070000D01*
X100570000Y-53130000D02*
X100570000Y-54070000D01*
X102430000Y-53130000D02*
X100570000Y-53130000D01*
X102430000Y-54070000D02*
X102430000Y-53130000D01*
%TO.C,C102*%
X108020000Y-56680000D02*
X108020000Y-54820000D01*
X107080000Y-56680000D02*
X108020000Y-56680000D01*
X107080000Y-54820000D02*
X107080000Y-56680000D01*
X108020000Y-54820000D02*
X107080000Y-54820000D01*
%TO.C,C100*%
X130620000Y-101230000D02*
X130620000Y-99370000D01*
X129680000Y-101230000D02*
X130620000Y-101230000D01*
X129680000Y-99370000D02*
X129680000Y-101230000D01*
X130620000Y-99370000D02*
X129680000Y-99370000D01*
%TO.C,C99*%
X115470000Y-63820000D02*
X117330000Y-63820000D01*
X115470000Y-62880000D02*
X115470000Y-63820000D01*
X117330000Y-62880000D02*
X115470000Y-62880000D01*
X117330000Y-63820000D02*
X117330000Y-62880000D01*
%TO.C,C97*%
X131720000Y-101230000D02*
X131720000Y-99370000D01*
X130780000Y-101230000D02*
X131720000Y-101230000D01*
X130780000Y-99370000D02*
X130780000Y-101230000D01*
X131720000Y-99370000D02*
X130780000Y-99370000D01*
%TO.C,C96*%
X115470000Y-64820000D02*
X117330000Y-64820000D01*
X115470000Y-63880000D02*
X115470000Y-64820000D01*
X117330000Y-63880000D02*
X115470000Y-63880000D01*
X117330000Y-64820000D02*
X117330000Y-63880000D01*
%TO.C,C95*%
X115470000Y-65820000D02*
X117330000Y-65820000D01*
X115470000Y-64880000D02*
X115470000Y-65820000D01*
X117330000Y-64880000D02*
X115470000Y-64880000D01*
X117330000Y-65820000D02*
X117330000Y-64880000D01*
%TO.C,C94*%
X109020000Y-56680000D02*
X109020000Y-54820000D01*
X108080000Y-56680000D02*
X109020000Y-56680000D01*
X108080000Y-54820000D02*
X108080000Y-56680000D01*
X109020000Y-54820000D02*
X108080000Y-54820000D01*
%TO.C,C88*%
X115380000Y-62880000D02*
X113520000Y-62880000D01*
X115380000Y-63820000D02*
X115380000Y-62880000D01*
X113520000Y-63820000D02*
X115380000Y-63820000D01*
X113520000Y-62880000D02*
X113520000Y-63820000D01*
%TO.C,C87*%
X115380000Y-63880000D02*
X113520000Y-63880000D01*
X115380000Y-64820000D02*
X115380000Y-63880000D01*
X113520000Y-64820000D02*
X115380000Y-64820000D01*
X113520000Y-63880000D02*
X113520000Y-64820000D01*
%TO.C,C86*%
X134970000Y-46170000D02*
X136830000Y-46170000D01*
X134970000Y-45230000D02*
X134970000Y-46170000D01*
X136830000Y-45230000D02*
X134970000Y-45230000D01*
X136830000Y-46170000D02*
X136830000Y-45230000D01*
%TO.C,C85*%
X134970000Y-45170000D02*
X136830000Y-45170000D01*
X134970000Y-44230000D02*
X134970000Y-45170000D01*
X136830000Y-44230000D02*
X134970000Y-44230000D01*
X136830000Y-45170000D02*
X136830000Y-44230000D01*
%TO.C,C82*%
X130580000Y-45130000D02*
X131520000Y-45130000D01*
X131520000Y-45130000D02*
X131520000Y-43270000D01*
X131520000Y-43270000D02*
X130580000Y-43270000D01*
X130580000Y-43270000D02*
X130580000Y-45130000D01*
%TO.C,C81*%
X131580000Y-43270000D02*
X131580000Y-45130000D01*
X132520000Y-43270000D02*
X131580000Y-43270000D01*
X132520000Y-45130000D02*
X132520000Y-43270000D01*
X131580000Y-45130000D02*
X132520000Y-45130000D01*
%TO.C,C79*%
X120430000Y-73470000D02*
X120430000Y-75330000D01*
X121370000Y-73470000D02*
X120430000Y-73470000D01*
X121370000Y-75330000D02*
X121370000Y-73470000D01*
X120430000Y-75330000D02*
X121370000Y-75330000D01*
%TO.C,C76*%
X135020000Y-56440000D02*
X135020000Y-54580000D01*
X134080000Y-56440000D02*
X135020000Y-56440000D01*
X134080000Y-54580000D02*
X134080000Y-56440000D01*
X135020000Y-54580000D02*
X134080000Y-54580000D01*
%TO.C,C75*%
X133990000Y-56435000D02*
X133990000Y-54575000D01*
X133050000Y-56435000D02*
X133990000Y-56435000D01*
X133050000Y-54575000D02*
X133050000Y-56435000D01*
X133990000Y-54575000D02*
X133050000Y-54575000D01*
%TO.C,C72*%
X130930000Y-56430000D02*
X130930000Y-54570000D01*
X129990000Y-56430000D02*
X130930000Y-56430000D01*
X129990000Y-54570000D02*
X129990000Y-56430000D01*
X130930000Y-54570000D02*
X129990000Y-54570000D01*
%TO.C,C71*%
X129900000Y-56440000D02*
X129900000Y-54580000D01*
X128960000Y-56440000D02*
X129900000Y-56440000D01*
X128960000Y-54580000D02*
X128960000Y-56440000D01*
X129900000Y-54580000D02*
X128960000Y-54580000D01*
%TO.C,C70*%
X120370000Y-79115000D02*
X120370000Y-77255000D01*
X119430000Y-79115000D02*
X120370000Y-79115000D01*
X119430000Y-77255000D02*
X119430000Y-79115000D01*
X120370000Y-77255000D02*
X119430000Y-77255000D01*
%TO.C,C66*%
X130070000Y-68170000D02*
X131930000Y-68170000D01*
X130070000Y-67230000D02*
X130070000Y-68170000D01*
X131930000Y-67230000D02*
X130070000Y-67230000D01*
X131930000Y-68170000D02*
X131930000Y-67230000D01*
%TO.C,C65*%
X137170000Y-66630000D02*
X137170000Y-64770000D01*
X136230000Y-66630000D02*
X137170000Y-66630000D01*
X136230000Y-64770000D02*
X136230000Y-66630000D01*
X137170000Y-64770000D02*
X136230000Y-64770000D01*
%TO.C,C64*%
X134660000Y-58950000D02*
X132800000Y-58950000D01*
X134660000Y-59890000D02*
X134660000Y-58950000D01*
X132800000Y-59890000D02*
X134660000Y-59890000D01*
X132800000Y-58950000D02*
X132800000Y-59890000D01*
%TO.C,C63*%
X128660000Y-64360000D02*
X130520000Y-64360000D01*
X128660000Y-63420000D02*
X128660000Y-64360000D01*
X130520000Y-63420000D02*
X128660000Y-63420000D01*
X130520000Y-64360000D02*
X130520000Y-63420000D01*
%TO.C,C62*%
X136170000Y-66645000D02*
X136170000Y-64785000D01*
X135230000Y-66645000D02*
X136170000Y-66645000D01*
X135230000Y-64785000D02*
X135230000Y-66645000D01*
X136170000Y-64785000D02*
X135230000Y-64785000D01*
%TO.C,C61*%
X134660000Y-59950000D02*
X132800000Y-59950000D01*
X134660000Y-60890000D02*
X134660000Y-59950000D01*
X132800000Y-60890000D02*
X134660000Y-60890000D01*
X132800000Y-59950000D02*
X132800000Y-60890000D01*
%TO.C,C60*%
X130070000Y-67170000D02*
X131930000Y-67170000D01*
X130070000Y-66230000D02*
X130070000Y-67170000D01*
X131930000Y-66230000D02*
X130070000Y-66230000D01*
X131930000Y-67170000D02*
X131930000Y-66230000D01*
%TO.C,C59*%
X137180000Y-60480000D02*
X135320000Y-60480000D01*
X137180000Y-61420000D02*
X137180000Y-60480000D01*
X135320000Y-61420000D02*
X137180000Y-61420000D01*
X135320000Y-60480000D02*
X135320000Y-61420000D01*
%TO.C,C58*%
X167730000Y-90470000D02*
X167730000Y-92330000D01*
X168670000Y-90470000D02*
X167730000Y-90470000D01*
X168670000Y-92330000D02*
X168670000Y-90470000D01*
X167730000Y-92330000D02*
X168670000Y-92330000D01*
%TO.C,C57*%
X128480000Y-58190000D02*
X126620000Y-58190000D01*
X128480000Y-59130000D02*
X128480000Y-58190000D01*
X126620000Y-59130000D02*
X128480000Y-59130000D01*
X126620000Y-58190000D02*
X126620000Y-59130000D01*
%TO.C,C56*%
X128970000Y-67130000D02*
X128970000Y-65270000D01*
X128030000Y-67130000D02*
X128970000Y-67130000D01*
X128030000Y-65270000D02*
X128030000Y-67130000D01*
X128970000Y-65270000D02*
X128030000Y-65270000D01*
%TO.C,C55*%
X136170000Y-60380000D02*
X136170000Y-58520000D01*
X135230000Y-60380000D02*
X136170000Y-60380000D01*
X135230000Y-58520000D02*
X135230000Y-60380000D01*
X136170000Y-58520000D02*
X135230000Y-58520000D01*
%TO.C,C54*%
X126610000Y-63040000D02*
X126610000Y-64900000D01*
X127550000Y-63040000D02*
X126610000Y-63040000D01*
X127550000Y-64900000D02*
X127550000Y-63040000D01*
X126610000Y-64900000D02*
X127550000Y-64900000D01*
%TO.C,C53*%
X127550000Y-62985000D02*
X127550000Y-61125000D01*
X126610000Y-62985000D02*
X127550000Y-62985000D01*
X126610000Y-61125000D02*
X126610000Y-62985000D01*
X127550000Y-61125000D02*
X126610000Y-61125000D01*
%TO.C,C52*%
X132885000Y-63170000D02*
X134745000Y-63170000D01*
X132885000Y-62230000D02*
X132885000Y-63170000D01*
X134745000Y-62230000D02*
X132885000Y-62230000D01*
X134745000Y-63170000D02*
X134745000Y-62230000D01*
%TO.C,C51*%
X134650000Y-57920000D02*
X132790000Y-57920000D01*
X134650000Y-58860000D02*
X134650000Y-57920000D01*
X132790000Y-58860000D02*
X134650000Y-58860000D01*
X132790000Y-57920000D02*
X132790000Y-58860000D01*
%TO.C,C50*%
X128655000Y-63340000D02*
X130515000Y-63340000D01*
X128655000Y-62400000D02*
X128655000Y-63340000D01*
X130515000Y-62400000D02*
X128655000Y-62400000D01*
X130515000Y-63340000D02*
X130515000Y-62400000D01*
%TO.C,C49*%
X138130000Y-59180000D02*
X136270000Y-59180000D01*
X138130000Y-60120000D02*
X138130000Y-59180000D01*
X136270000Y-60120000D02*
X138130000Y-60120000D01*
X136270000Y-59180000D02*
X136270000Y-60120000D01*
%TO.C,C48*%
X135870000Y-58430000D02*
X135870000Y-56570000D01*
X134930000Y-58430000D02*
X135870000Y-58430000D01*
X134930000Y-56570000D02*
X134930000Y-58430000D01*
X135870000Y-56570000D02*
X134930000Y-56570000D01*
%TO.C,C47*%
X129970000Y-67130000D02*
X129970000Y-65270000D01*
X129030000Y-67130000D02*
X129970000Y-67130000D01*
X129030000Y-65270000D02*
X129030000Y-67130000D01*
X129970000Y-65270000D02*
X129030000Y-65270000D01*
%TO.C,C27*%
X148040000Y-67240000D02*
X148040000Y-67100000D01*
X149460000Y-67240000D02*
X149460000Y-67100000D01*
X149460000Y-69460000D02*
X149460000Y-69600000D01*
X148040000Y-69460000D02*
X148040000Y-69600000D01*
X149460000Y-69460000D02*
X149460000Y-67240000D01*
X149460000Y-67100000D02*
X148040000Y-67100000D01*
X148040000Y-67240000D02*
X148040000Y-69460000D01*
X148040000Y-69600000D02*
X149460000Y-69600000D01*
%TO.C,C26*%
X146540000Y-67240000D02*
X146540000Y-67100000D01*
X147960000Y-67240000D02*
X147960000Y-67100000D01*
X147960000Y-69460000D02*
X147960000Y-69600000D01*
X146540000Y-69460000D02*
X146540000Y-69600000D01*
X147960000Y-69460000D02*
X147960000Y-67240000D01*
X147960000Y-67100000D02*
X146540000Y-67100000D01*
X146540000Y-67240000D02*
X146540000Y-69460000D01*
X146540000Y-69600000D02*
X147960000Y-69600000D01*
%TO.C,C25*%
X162030000Y-64530000D02*
X160170000Y-64530000D01*
X162030000Y-65470000D02*
X162030000Y-64530000D01*
X160170000Y-65470000D02*
X162030000Y-65470000D01*
X160170000Y-64530000D02*
X160170000Y-65470000D01*
%TO.C,C24*%
X152730000Y-74330000D02*
X150870000Y-74330000D01*
X152730000Y-75270000D02*
X152730000Y-74330000D01*
X150870000Y-75270000D02*
X152730000Y-75270000D01*
X150870000Y-74330000D02*
X150870000Y-75270000D01*
%TO.C,C21*%
X157170000Y-72565000D02*
X157170000Y-70705000D01*
X156230000Y-72565000D02*
X157170000Y-72565000D01*
X156230000Y-70705000D02*
X156230000Y-72565000D01*
X157170000Y-70705000D02*
X156230000Y-70705000D01*
%TO.C,C19*%
X157320000Y-64100000D02*
X157320000Y-60300000D01*
X159180000Y-64100000D02*
X159180000Y-60300000D01*
X157320000Y-60300000D02*
X159180000Y-60300000D01*
X157320000Y-64100000D02*
X159180000Y-64100000D01*
%TO.C,C18*%
X153320000Y-64100000D02*
X153320000Y-60300000D01*
X155180000Y-64100000D02*
X155180000Y-60300000D01*
X153320000Y-60300000D02*
X155180000Y-60300000D01*
X153320000Y-64100000D02*
X155180000Y-64100000D01*
%TO.C,C17*%
X155320000Y-64100000D02*
X155320000Y-60300000D01*
X157180000Y-64100000D02*
X157180000Y-60300000D01*
X155320000Y-60300000D02*
X157180000Y-60300000D01*
X155320000Y-64100000D02*
X157180000Y-64100000D01*
%TO.C,C16*%
X106870000Y-107130000D02*
X106870000Y-105270000D01*
X105930000Y-107130000D02*
X106870000Y-107130000D01*
X105930000Y-105270000D02*
X105930000Y-107130000D01*
X106870000Y-105270000D02*
X105930000Y-105270000D01*
%TO.C,C14*%
X105870000Y-107130000D02*
X105870000Y-105270000D01*
X104930000Y-107130000D02*
X105870000Y-107130000D01*
X104930000Y-105270000D02*
X104930000Y-107130000D01*
X105870000Y-105270000D02*
X104930000Y-105270000D01*
%TO.C,C11*%
X104870000Y-107130000D02*
X104870000Y-105270000D01*
X103930000Y-107130000D02*
X104870000Y-107130000D01*
X103930000Y-105270000D02*
X103930000Y-107130000D01*
X104870000Y-105270000D02*
X103930000Y-105270000D01*
%TO.C,C10*%
X93485000Y-109470000D02*
X95345000Y-109470000D01*
X93485000Y-108530000D02*
X93485000Y-109470000D01*
X95345000Y-108530000D02*
X93485000Y-108530000D01*
X95345000Y-109470000D02*
X95345000Y-108530000D01*
%TO.C,C7*%
X93485000Y-108420000D02*
X95345000Y-108420000D01*
X93485000Y-107480000D02*
X93485000Y-108420000D01*
X95345000Y-107480000D02*
X93485000Y-107480000D01*
X95345000Y-108420000D02*
X95345000Y-107480000D01*
%TO.C,C5*%
X93460000Y-111570000D02*
X95320000Y-111570000D01*
X93460000Y-110630000D02*
X93460000Y-111570000D01*
X95320000Y-110630000D02*
X93460000Y-110630000D01*
X95320000Y-111570000D02*
X95320000Y-110630000D01*
%TO.C,C3*%
X93460000Y-110520000D02*
X95320000Y-110520000D01*
X93460000Y-109580000D02*
X93460000Y-110520000D01*
X95320000Y-109580000D02*
X93460000Y-109580000D01*
X95320000Y-110520000D02*
X95320000Y-109580000D01*
%TO.C,C2*%
X92870000Y-82170000D02*
X94730000Y-82170000D01*
X92870000Y-81230000D02*
X92870000Y-82170000D01*
X94730000Y-81230000D02*
X92870000Y-81230000D01*
X94730000Y-82170000D02*
X94730000Y-81230000D01*
%TO.C,C1*%
X92870000Y-83170000D02*
X94730000Y-83170000D01*
X92870000Y-82230000D02*
X92870000Y-83170000D01*
X94730000Y-82230000D02*
X92870000Y-82230000D01*
X94730000Y-83170000D02*
X94730000Y-82230000D01*
%TD*%
M02*
