%TF.GenerationSoftware,KiCad,Pcbnew,5.1.9+dfsg1-1*%
%TF.CreationDate,2022-02-21T14:57:17+01:00*%
%TF.ProjectId,sc606-baseboard,73633630-362d-4626-9173-65626f617264,rev?*%
%TF.SameCoordinates,Original*%
%TF.FileFunction,Paste,Top*%
%TF.FilePolarity,Positive*%
%FSLAX46Y46*%
G04 Gerber Fmt 4.6, Leading zero omitted, Abs format (unit mm)*
G04 Created by KiCad (PCBNEW 5.1.9+dfsg1-1) date 2022-02-21 14:57:17 commit 2b5f92f*
%MOMM*%
%LPD*%
G01*
G04 APERTURE LIST*
%TA.AperFunction,Profile*%
%ADD10C,0.120000*%
%TD*%
%TA.AperFunction,Profile*%
%ADD11C,0.254000*%
%TD*%
%ADD12C,0.010000*%
%ADD13C,0.100000*%
%ADD14R,2.100000X2.100000*%
%ADD15R,0.900000X0.240000*%
%ADD16R,0.240000X0.900000*%
%ADD17R,1.450000X0.450000*%
%ADD18R,0.600000X0.550000*%
%ADD19R,0.475000X0.200000*%
%ADD20R,1.400000X0.350000*%
%ADD21R,0.310000X0.420000*%
%ADD22R,0.310000X0.430000*%
%ADD23R,0.380000X0.400000*%
%ADD24R,0.200000X1.000000*%
%ADD25R,1.000000X0.200000*%
%ADD26R,1.350000X1.350000*%
%ADD27R,2.000000X0.650000*%
%ADD28R,1.300000X1.300000*%
%ADD29C,1.300000*%
%ADD30R,1.000000X1.500000*%
%ADD31R,1.500000X1.000000*%
%ADD32O,0.650000X2.000000*%
%ADD33O,2.000000X0.650000*%
%ADD34R,0.300000X1.450000*%
%ADD35R,0.400000X0.380000*%
%ADD36R,1.000000X0.550000*%
%ADD37R,0.950000X0.950000*%
%ADD38R,0.800000X0.800000*%
%ADD39R,1.200000X1.200000*%
%ADD40R,3.400000X2.400000*%
%ADD41R,0.406400X0.508000*%
%ADD42R,0.406400X0.558800*%
%ADD43R,0.508000X0.406400*%
%ADD44R,0.558800X0.406400*%
%ADD45R,0.700000X1.600000*%
%ADD46R,0.500000X0.400000*%
%ADD47R,0.300000X0.900000*%
%ADD48R,0.200000X0.475000*%
%ADD49R,0.900000X0.950000*%
%ADD50C,1.140000*%
%ADD51R,1.100000X1.100000*%
%ADD52R,1.800000X1.500000*%
%ADD53R,1.000000X0.900000*%
%ADD54R,1.200000X0.700000*%
%ADD55R,0.980000X3.400000*%
%ADD56R,0.800000X0.600000*%
%ADD57R,0.600000X0.540000*%
%ADD58R,1.500000X1.200000*%
%ADD59R,1.500000X1.650000*%
%ADD60R,6.000000X4.000000*%
%ADD61R,0.230000X0.850000*%
%ADD62R,0.230000X1.000000*%
%ADD63R,0.280000X0.850000*%
%ADD64R,0.850000X0.280000*%
%ADD65R,3.450000X3.450000*%
%ADD66R,0.700000X1.200000*%
%ADD67R,0.600000X1.300000*%
%ADD68R,0.400000X0.500000*%
%ADD69R,1.300000X0.600000*%
%ADD70R,0.300000X0.230000*%
%ADD71R,0.230000X0.300000*%
%ADD72R,1.000000X1.050000*%
%ADD73R,1.050000X2.200000*%
%ADD74R,0.356000X0.850000*%
%ADD75R,3.000000X2.600000*%
%ADD76R,1.270000X1.400000*%
%ADD77R,4.860000X3.360000*%
%ADD78R,1.400000X1.390000*%
G04 APERTURE END LIST*
D10*
X175600000Y-42400000D02*
X75600000Y-42400000D01*
D11*
X175600000Y-42400000D02*
X175600000Y-122400000D01*
D10*
X75600000Y-122400000D02*
X75600000Y-42400000D01*
D11*
X175600000Y-122400000D02*
X75600000Y-122400000D01*
D12*
%TO.C,U7*%
G36*
X131845000Y-60565000D02*
G01*
X131845000Y-62065000D01*
X130295000Y-62065000D01*
X130295000Y-60565000D01*
X131845000Y-60565000D01*
G37*
X131845000Y-60565000D02*
X131845000Y-62065000D01*
X130295000Y-62065000D01*
X130295000Y-60565000D01*
X131845000Y-60565000D01*
G36*
X131845000Y-62515000D02*
G01*
X131845000Y-64015000D01*
X130295000Y-64015000D01*
X130295000Y-62515000D01*
X131845000Y-62515000D01*
G37*
X131845000Y-62515000D02*
X131845000Y-64015000D01*
X130295000Y-64015000D01*
X130295000Y-62515000D01*
X131845000Y-62515000D01*
G36*
X131845000Y-64415000D02*
G01*
X131845000Y-65915000D01*
X130295000Y-65915000D01*
X130295000Y-64415000D01*
X131845000Y-64415000D01*
G37*
X131845000Y-64415000D02*
X131845000Y-65915000D01*
X130295000Y-65915000D01*
X130295000Y-64415000D01*
X131845000Y-64415000D01*
G36*
X134105000Y-65925000D02*
G01*
X134105000Y-64425000D01*
X135655000Y-64425000D01*
X135655000Y-65925000D01*
X134105000Y-65925000D01*
G37*
X134105000Y-65925000D02*
X134105000Y-64425000D01*
X135655000Y-64425000D01*
X135655000Y-65925000D01*
X134105000Y-65925000D01*
G36*
X134105000Y-63975000D02*
G01*
X134105000Y-62475000D01*
X135655000Y-62475000D01*
X135655000Y-63975000D01*
X134105000Y-63975000D01*
G37*
X134105000Y-63975000D02*
X134105000Y-62475000D01*
X135655000Y-62475000D01*
X135655000Y-63975000D01*
X134105000Y-63975000D01*
G36*
X134105000Y-62075000D02*
G01*
X134105000Y-60575000D01*
X135655000Y-60575000D01*
X135655000Y-62075000D01*
X134105000Y-62075000D01*
G37*
X134105000Y-62075000D02*
X134105000Y-60575000D01*
X135655000Y-60575000D01*
X135655000Y-62075000D01*
X134105000Y-62075000D01*
G36*
X133745000Y-60565000D02*
G01*
X133745000Y-62065000D01*
X132195000Y-62065000D01*
X132195000Y-60565000D01*
X133745000Y-60565000D01*
G37*
X133745000Y-60565000D02*
X133745000Y-62065000D01*
X132195000Y-62065000D01*
X132195000Y-60565000D01*
X133745000Y-60565000D01*
G36*
X133745000Y-62515000D02*
G01*
X133745000Y-64015000D01*
X132195000Y-64015000D01*
X132195000Y-62515000D01*
X133745000Y-62515000D01*
G37*
X133745000Y-62515000D02*
X133745000Y-64015000D01*
X132195000Y-64015000D01*
X132195000Y-62515000D01*
X133745000Y-62515000D01*
G36*
X133745000Y-64415000D02*
G01*
X133745000Y-65915000D01*
X132195000Y-65915000D01*
X132195000Y-64415000D01*
X133745000Y-64415000D01*
G37*
X133745000Y-64415000D02*
X133745000Y-65915000D01*
X132195000Y-65915000D01*
X132195000Y-64415000D01*
X133745000Y-64415000D01*
D13*
%TO.C,Q10*%
G36*
X161778207Y-61399800D02*
G01*
X161371807Y-61399800D01*
X161371807Y-60841000D01*
X161128221Y-60841000D01*
X161128221Y-61399800D01*
X160721821Y-61399800D01*
X160721821Y-60841000D01*
X160780500Y-60840993D01*
X160780508Y-59453798D01*
X160200499Y-59453798D01*
X160200499Y-59113793D01*
X160780500Y-59113793D01*
X161725500Y-59113793D01*
X161725500Y-60840993D01*
X161778207Y-60841000D01*
X161778207Y-61399800D01*
G37*
X161778207Y-61399800D02*
X161371807Y-61399800D01*
X161371807Y-60841000D01*
X161128221Y-60841000D01*
X161128221Y-61399800D01*
X160721821Y-61399800D01*
X160721821Y-60841000D01*
X160780500Y-60840993D01*
X160780508Y-59453798D01*
X160200499Y-59453798D01*
X160200499Y-59113793D01*
X160780500Y-59113793D01*
X161725500Y-59113793D01*
X161725500Y-60840993D01*
X161778207Y-60841000D01*
X161778207Y-61399800D01*
G36*
X163078179Y-61399800D02*
G01*
X162671779Y-61399800D01*
X162671779Y-60841000D01*
X162428193Y-60841000D01*
X162428193Y-61399800D01*
X162021793Y-61399800D01*
X162021793Y-60841000D01*
X162074500Y-60840993D01*
X162074500Y-59113793D01*
X163019500Y-59113793D01*
X163599501Y-59113793D01*
X163599501Y-59453798D01*
X163019492Y-59453798D01*
X163019500Y-60840993D01*
X163078179Y-60841000D01*
X163078179Y-61399800D01*
G37*
X163078179Y-61399800D02*
X162671779Y-61399800D01*
X162671779Y-60841000D01*
X162428193Y-60841000D01*
X162428193Y-61399800D01*
X162021793Y-61399800D01*
X162021793Y-60841000D01*
X162074500Y-60840993D01*
X162074500Y-59113793D01*
X163019500Y-59113793D01*
X163599501Y-59113793D01*
X163599501Y-59453798D01*
X163019492Y-59453798D01*
X163019500Y-60840993D01*
X163078179Y-60841000D01*
X163078179Y-61399800D01*
%TO.C,Q11*%
G36*
X170700200Y-56878207D02*
G01*
X170700200Y-56471807D01*
X171259000Y-56471807D01*
X171259000Y-56228221D01*
X170700200Y-56228221D01*
X170700200Y-55821821D01*
X171259000Y-55821821D01*
X171259007Y-55880500D01*
X172646202Y-55880508D01*
X172646202Y-55300499D01*
X172986207Y-55300499D01*
X172986207Y-55880500D01*
X172986207Y-56825500D01*
X171259007Y-56825500D01*
X171259000Y-56878207D01*
X170700200Y-56878207D01*
G37*
X170700200Y-56878207D02*
X170700200Y-56471807D01*
X171259000Y-56471807D01*
X171259000Y-56228221D01*
X170700200Y-56228221D01*
X170700200Y-55821821D01*
X171259000Y-55821821D01*
X171259007Y-55880500D01*
X172646202Y-55880508D01*
X172646202Y-55300499D01*
X172986207Y-55300499D01*
X172986207Y-55880500D01*
X172986207Y-56825500D01*
X171259007Y-56825500D01*
X171259000Y-56878207D01*
X170700200Y-56878207D01*
G36*
X170700200Y-58178179D02*
G01*
X170700200Y-57771779D01*
X171259000Y-57771779D01*
X171259000Y-57528193D01*
X170700200Y-57528193D01*
X170700200Y-57121793D01*
X171259000Y-57121793D01*
X171259007Y-57174500D01*
X172986207Y-57174500D01*
X172986207Y-58119500D01*
X172986207Y-58699501D01*
X172646202Y-58699501D01*
X172646202Y-58119492D01*
X171259007Y-58119500D01*
X171259000Y-58178179D01*
X170700200Y-58178179D01*
G37*
X170700200Y-58178179D02*
X170700200Y-57771779D01*
X171259000Y-57771779D01*
X171259000Y-57528193D01*
X170700200Y-57528193D01*
X170700200Y-57121793D01*
X171259000Y-57121793D01*
X171259007Y-57174500D01*
X172986207Y-57174500D01*
X172986207Y-58119500D01*
X172986207Y-58699501D01*
X172646202Y-58699501D01*
X172646202Y-58119492D01*
X171259007Y-58119500D01*
X171259000Y-58178179D01*
X170700200Y-58178179D01*
D12*
%TO.C,U12*%
G36*
X154890000Y-55530000D02*
G01*
X154890000Y-56490000D01*
X153930000Y-56490000D01*
X153930000Y-55530000D01*
X154890000Y-55530000D01*
G37*
X154890000Y-55530000D02*
X154890000Y-56490000D01*
X153930000Y-56490000D01*
X153930000Y-55530000D01*
X154890000Y-55530000D01*
G36*
X154890000Y-54310000D02*
G01*
X154890000Y-55270000D01*
X153930000Y-55270000D01*
X153930000Y-54310000D01*
X154890000Y-54310000D01*
G37*
X154890000Y-54310000D02*
X154890000Y-55270000D01*
X153930000Y-55270000D01*
X153930000Y-54310000D01*
X154890000Y-54310000D01*
G36*
X153670000Y-54310000D02*
G01*
X153670000Y-55270000D01*
X152710000Y-55270000D01*
X152710000Y-54310000D01*
X153670000Y-54310000D01*
G37*
X153670000Y-54310000D02*
X153670000Y-55270000D01*
X152710000Y-55270000D01*
X152710000Y-54310000D01*
X153670000Y-54310000D01*
G36*
X153670000Y-55530000D02*
G01*
X153670000Y-56490000D01*
X152710000Y-56490000D01*
X152710000Y-55530000D01*
X153670000Y-55530000D01*
G37*
X153670000Y-55530000D02*
X153670000Y-56490000D01*
X152710000Y-56490000D01*
X152710000Y-55530000D01*
X153670000Y-55530000D01*
%TO.C,U15*%
G36*
X105950709Y-62999901D02*
G01*
X103900000Y-65050610D01*
X101849291Y-62999901D01*
X103900000Y-60949192D01*
X105950709Y-62999901D01*
G37*
X105950709Y-62999901D02*
X103900000Y-65050610D01*
X101849291Y-62999901D01*
X103900000Y-60949192D01*
X105950709Y-62999901D01*
%TO.C,D5*%
G36*
X96634000Y-120460000D02*
G01*
X96634000Y-118340000D01*
X99714000Y-118340000D01*
X99714000Y-120460000D01*
X96634000Y-120460000D01*
G37*
X96634000Y-120460000D02*
X96634000Y-118340000D01*
X99714000Y-118340000D01*
X99714000Y-120460000D01*
X96634000Y-120460000D01*
%TO.C,D4*%
G36*
X104234000Y-120460000D02*
G01*
X104234000Y-118340000D01*
X107314000Y-118340000D01*
X107314000Y-120460000D01*
X104234000Y-120460000D01*
G37*
X104234000Y-120460000D02*
X104234000Y-118340000D01*
X107314000Y-118340000D01*
X107314000Y-120460000D01*
X104234000Y-120460000D01*
%TO.C,D3*%
G36*
X111834000Y-120460000D02*
G01*
X111834000Y-118340000D01*
X114914000Y-118340000D01*
X114914000Y-120460000D01*
X111834000Y-120460000D01*
G37*
X111834000Y-120460000D02*
X111834000Y-118340000D01*
X114914000Y-118340000D01*
X114914000Y-120460000D01*
X111834000Y-120460000D01*
%TD*%
D14*
%TO.C,U6*%
X127300000Y-119400010D03*
D15*
X125250000Y-119650010D03*
X125250000Y-118150010D03*
D16*
X126550000Y-117350010D03*
X127550000Y-121450010D03*
D15*
X129350000Y-120150010D03*
X125250000Y-120150010D03*
X129350000Y-118150010D03*
X129350000Y-119650010D03*
X129350000Y-120650010D03*
D16*
X127050000Y-121450010D03*
D15*
X129350000Y-119150010D03*
D16*
X128550000Y-121450010D03*
X126550000Y-121450010D03*
X127550000Y-117350010D03*
X128050000Y-121450010D03*
X128550000Y-117350010D03*
X128050000Y-117350010D03*
X126050000Y-117350010D03*
D15*
X125250000Y-119150010D03*
X129350000Y-118650010D03*
D16*
X126050000Y-121450010D03*
D15*
X125250000Y-120650010D03*
D16*
X127050000Y-117350010D03*
D15*
X125250000Y-118650010D03*
%TD*%
D17*
%TO.C,U4*%
X162350000Y-112975000D03*
X162350000Y-113625000D03*
X162350000Y-114275000D03*
X162350000Y-114925000D03*
X157950000Y-114925000D03*
X157950000Y-114275000D03*
X157950000Y-113625000D03*
X157950000Y-112975000D03*
%TD*%
D18*
%TO.C,Q14*%
X166900000Y-56625000D03*
X166250000Y-54775000D03*
X167550000Y-54775000D03*
%TD*%
%TO.C,Q12*%
X166900000Y-53525000D03*
X166250000Y-51675000D03*
X167550000Y-51675000D03*
%TD*%
%TO.C,R186*%
G36*
G01*
X149060000Y-90277500D02*
X149060000Y-90622500D01*
G75*
G02*
X148912500Y-90770000I-147500J0D01*
G01*
X148617500Y-90770000D01*
G75*
G02*
X148470000Y-90622500I0J147500D01*
G01*
X148470000Y-90277500D01*
G75*
G02*
X148617500Y-90130000I147500J0D01*
G01*
X148912500Y-90130000D01*
G75*
G02*
X149060000Y-90277500I0J-147500D01*
G01*
G37*
G36*
G01*
X150030000Y-90277500D02*
X150030000Y-90622500D01*
G75*
G02*
X149882500Y-90770000I-147500J0D01*
G01*
X149587500Y-90770000D01*
G75*
G02*
X149440000Y-90622500I0J147500D01*
G01*
X149440000Y-90277500D01*
G75*
G02*
X149587500Y-90130000I147500J0D01*
G01*
X149882500Y-90130000D01*
G75*
G02*
X150030000Y-90277500I0J-147500D01*
G01*
G37*
%TD*%
D19*
%TO.C,D39*%
X156987500Y-78800000D03*
X156987500Y-79800000D03*
X156987500Y-79300000D03*
X156987500Y-80300000D03*
X156987500Y-78300000D03*
X156212500Y-80300000D03*
X156212500Y-79800000D03*
X156212500Y-79300000D03*
X156212500Y-78800000D03*
X156212500Y-78300000D03*
%TD*%
%TO.C,C173*%
G36*
G01*
X166227500Y-83405000D02*
X166572500Y-83405000D01*
G75*
G02*
X166720000Y-83552500I0J-147500D01*
G01*
X166720000Y-83847500D01*
G75*
G02*
X166572500Y-83995000I-147500J0D01*
G01*
X166227500Y-83995000D01*
G75*
G02*
X166080000Y-83847500I0J147500D01*
G01*
X166080000Y-83552500D01*
G75*
G02*
X166227500Y-83405000I147500J0D01*
G01*
G37*
G36*
G01*
X166227500Y-82435000D02*
X166572500Y-82435000D01*
G75*
G02*
X166720000Y-82582500I0J-147500D01*
G01*
X166720000Y-82877500D01*
G75*
G02*
X166572500Y-83025000I-147500J0D01*
G01*
X166227500Y-83025000D01*
G75*
G02*
X166080000Y-82877500I0J147500D01*
G01*
X166080000Y-82582500D01*
G75*
G02*
X166227500Y-82435000I147500J0D01*
G01*
G37*
%TD*%
%TO.C,C169*%
G36*
G01*
X157160000Y-86977500D02*
X157160000Y-87322500D01*
G75*
G02*
X157012500Y-87470000I-147500J0D01*
G01*
X156717500Y-87470000D01*
G75*
G02*
X156570000Y-87322500I0J147500D01*
G01*
X156570000Y-86977500D01*
G75*
G02*
X156717500Y-86830000I147500J0D01*
G01*
X157012500Y-86830000D01*
G75*
G02*
X157160000Y-86977500I0J-147500D01*
G01*
G37*
G36*
G01*
X158130000Y-86977500D02*
X158130000Y-87322500D01*
G75*
G02*
X157982500Y-87470000I-147500J0D01*
G01*
X157687500Y-87470000D01*
G75*
G02*
X157540000Y-87322500I0J147500D01*
G01*
X157540000Y-86977500D01*
G75*
G02*
X157687500Y-86830000I147500J0D01*
G01*
X157982500Y-86830000D01*
G75*
G02*
X158130000Y-86977500I0J-147500D01*
G01*
G37*
%TD*%
%TO.C,C168*%
G36*
G01*
X150772500Y-87560000D02*
X150427500Y-87560000D01*
G75*
G02*
X150280000Y-87412500I0J147500D01*
G01*
X150280000Y-87117500D01*
G75*
G02*
X150427500Y-86970000I147500J0D01*
G01*
X150772500Y-86970000D01*
G75*
G02*
X150920000Y-87117500I0J-147500D01*
G01*
X150920000Y-87412500D01*
G75*
G02*
X150772500Y-87560000I-147500J0D01*
G01*
G37*
G36*
G01*
X150772500Y-88530000D02*
X150427500Y-88530000D01*
G75*
G02*
X150280000Y-88382500I0J147500D01*
G01*
X150280000Y-88087500D01*
G75*
G02*
X150427500Y-87940000I147500J0D01*
G01*
X150772500Y-87940000D01*
G75*
G02*
X150920000Y-88087500I0J-147500D01*
G01*
X150920000Y-88382500D01*
G75*
G02*
X150772500Y-88530000I-147500J0D01*
G01*
G37*
%TD*%
%TO.C,C167*%
G36*
G01*
X173727500Y-83090000D02*
X174072500Y-83090000D01*
G75*
G02*
X174220000Y-83237500I0J-147500D01*
G01*
X174220000Y-83532500D01*
G75*
G02*
X174072500Y-83680000I-147500J0D01*
G01*
X173727500Y-83680000D01*
G75*
G02*
X173580000Y-83532500I0J147500D01*
G01*
X173580000Y-83237500D01*
G75*
G02*
X173727500Y-83090000I147500J0D01*
G01*
G37*
G36*
G01*
X173727500Y-82120000D02*
X174072500Y-82120000D01*
G75*
G02*
X174220000Y-82267500I0J-147500D01*
G01*
X174220000Y-82562500D01*
G75*
G02*
X174072500Y-82710000I-147500J0D01*
G01*
X173727500Y-82710000D01*
G75*
G02*
X173580000Y-82562500I0J147500D01*
G01*
X173580000Y-82267500D01*
G75*
G02*
X173727500Y-82120000I147500J0D01*
G01*
G37*
%TD*%
%TO.C,C166*%
G36*
G01*
X173727500Y-95240000D02*
X174072500Y-95240000D01*
G75*
G02*
X174220000Y-95387500I0J-147500D01*
G01*
X174220000Y-95682500D01*
G75*
G02*
X174072500Y-95830000I-147500J0D01*
G01*
X173727500Y-95830000D01*
G75*
G02*
X173580000Y-95682500I0J147500D01*
G01*
X173580000Y-95387500D01*
G75*
G02*
X173727500Y-95240000I147500J0D01*
G01*
G37*
G36*
G01*
X173727500Y-94270000D02*
X174072500Y-94270000D01*
G75*
G02*
X174220000Y-94417500I0J-147500D01*
G01*
X174220000Y-94712500D01*
G75*
G02*
X174072500Y-94860000I-147500J0D01*
G01*
X173727500Y-94860000D01*
G75*
G02*
X173580000Y-94712500I0J147500D01*
G01*
X173580000Y-94417500D01*
G75*
G02*
X173727500Y-94270000I147500J0D01*
G01*
G37*
%TD*%
%TO.C,J17*%
G36*
G01*
X163950000Y-90525000D02*
X164850000Y-90525000D01*
G75*
G02*
X165050000Y-90725000I0J-200000D01*
G01*
X165050000Y-91125000D01*
G75*
G02*
X164850000Y-91325000I-200000J0D01*
G01*
X163950000Y-91325000D01*
G75*
G02*
X163750000Y-91125000I0J200000D01*
G01*
X163750000Y-90725000D01*
G75*
G02*
X163950000Y-90525000I200000J0D01*
G01*
G37*
G36*
G01*
X163950000Y-91775000D02*
X164850000Y-91775000D01*
G75*
G02*
X165050000Y-91975000I0J-200000D01*
G01*
X165050000Y-92375000D01*
G75*
G02*
X164850000Y-92575000I-200000J0D01*
G01*
X163950000Y-92575000D01*
G75*
G02*
X163750000Y-92375000I0J200000D01*
G01*
X163750000Y-91975000D01*
G75*
G02*
X163950000Y-91775000I200000J0D01*
G01*
G37*
G36*
G01*
X163950000Y-93025000D02*
X164850000Y-93025000D01*
G75*
G02*
X165050000Y-93225000I0J-200000D01*
G01*
X165050000Y-93625000D01*
G75*
G02*
X164850000Y-93825000I-200000J0D01*
G01*
X163950000Y-93825000D01*
G75*
G02*
X163750000Y-93625000I0J200000D01*
G01*
X163750000Y-93225000D01*
G75*
G02*
X163950000Y-93025000I200000J0D01*
G01*
G37*
G36*
G01*
X163950000Y-94275000D02*
X164850000Y-94275000D01*
G75*
G02*
X165050000Y-94475000I0J-200000D01*
G01*
X165050000Y-94875000D01*
G75*
G02*
X164850000Y-95075000I-200000J0D01*
G01*
X163950000Y-95075000D01*
G75*
G02*
X163750000Y-94875000I0J200000D01*
G01*
X163750000Y-94475000D01*
G75*
G02*
X163950000Y-94275000I200000J0D01*
G01*
G37*
G36*
G01*
X160400000Y-87325000D02*
X162900000Y-87325000D01*
G75*
G02*
X163150000Y-87575000I0J-250000D01*
G01*
X163150000Y-89175000D01*
G75*
G02*
X162900000Y-89425000I-250000J0D01*
G01*
X160400000Y-89425000D01*
G75*
G02*
X160150000Y-89175000I0J250000D01*
G01*
X160150000Y-87575000D01*
G75*
G02*
X160400000Y-87325000I250000J0D01*
G01*
G37*
G36*
G01*
X160400000Y-96175000D02*
X162900000Y-96175000D01*
G75*
G02*
X163150000Y-96425000I0J-250000D01*
G01*
X163150000Y-98025000D01*
G75*
G02*
X162900000Y-98275000I-250000J0D01*
G01*
X160400000Y-98275000D01*
G75*
G02*
X160150000Y-98025000I0J250000D01*
G01*
X160150000Y-96425000D01*
G75*
G02*
X160400000Y-96175000I250000J0D01*
G01*
G37*
%TD*%
%TO.C,J16*%
G36*
G01*
X171800000Y-90525000D02*
X172700000Y-90525000D01*
G75*
G02*
X172900000Y-90725000I0J-200000D01*
G01*
X172900000Y-91125000D01*
G75*
G02*
X172700000Y-91325000I-200000J0D01*
G01*
X171800000Y-91325000D01*
G75*
G02*
X171600000Y-91125000I0J200000D01*
G01*
X171600000Y-90725000D01*
G75*
G02*
X171800000Y-90525000I200000J0D01*
G01*
G37*
G36*
G01*
X171800000Y-91775000D02*
X172700000Y-91775000D01*
G75*
G02*
X172900000Y-91975000I0J-200000D01*
G01*
X172900000Y-92375000D01*
G75*
G02*
X172700000Y-92575000I-200000J0D01*
G01*
X171800000Y-92575000D01*
G75*
G02*
X171600000Y-92375000I0J200000D01*
G01*
X171600000Y-91975000D01*
G75*
G02*
X171800000Y-91775000I200000J0D01*
G01*
G37*
G36*
G01*
X171800000Y-93025000D02*
X172700000Y-93025000D01*
G75*
G02*
X172900000Y-93225000I0J-200000D01*
G01*
X172900000Y-93625000D01*
G75*
G02*
X172700000Y-93825000I-200000J0D01*
G01*
X171800000Y-93825000D01*
G75*
G02*
X171600000Y-93625000I0J200000D01*
G01*
X171600000Y-93225000D01*
G75*
G02*
X171800000Y-93025000I200000J0D01*
G01*
G37*
G36*
G01*
X171800000Y-94275000D02*
X172700000Y-94275000D01*
G75*
G02*
X172900000Y-94475000I0J-200000D01*
G01*
X172900000Y-94875000D01*
G75*
G02*
X172700000Y-95075000I-200000J0D01*
G01*
X171800000Y-95075000D01*
G75*
G02*
X171600000Y-94875000I0J200000D01*
G01*
X171600000Y-94475000D01*
G75*
G02*
X171800000Y-94275000I200000J0D01*
G01*
G37*
G36*
G01*
X168250000Y-87325000D02*
X170750000Y-87325000D01*
G75*
G02*
X171000000Y-87575000I0J-250000D01*
G01*
X171000000Y-89175000D01*
G75*
G02*
X170750000Y-89425000I-250000J0D01*
G01*
X168250000Y-89425000D01*
G75*
G02*
X168000000Y-89175000I0J250000D01*
G01*
X168000000Y-87575000D01*
G75*
G02*
X168250000Y-87325000I250000J0D01*
G01*
G37*
G36*
G01*
X168250000Y-96175000D02*
X170750000Y-96175000D01*
G75*
G02*
X171000000Y-96425000I0J-250000D01*
G01*
X171000000Y-98025000D01*
G75*
G02*
X170750000Y-98275000I-250000J0D01*
G01*
X168250000Y-98275000D01*
G75*
G02*
X168000000Y-98025000I0J250000D01*
G01*
X168000000Y-96425000D01*
G75*
G02*
X168250000Y-96175000I250000J0D01*
G01*
G37*
%TD*%
%TO.C,J15*%
G36*
G01*
X163950000Y-78175000D02*
X164850000Y-78175000D01*
G75*
G02*
X165050000Y-78375000I0J-200000D01*
G01*
X165050000Y-78775000D01*
G75*
G02*
X164850000Y-78975000I-200000J0D01*
G01*
X163950000Y-78975000D01*
G75*
G02*
X163750000Y-78775000I0J200000D01*
G01*
X163750000Y-78375000D01*
G75*
G02*
X163950000Y-78175000I200000J0D01*
G01*
G37*
G36*
G01*
X163950000Y-79425000D02*
X164850000Y-79425000D01*
G75*
G02*
X165050000Y-79625000I0J-200000D01*
G01*
X165050000Y-80025000D01*
G75*
G02*
X164850000Y-80225000I-200000J0D01*
G01*
X163950000Y-80225000D01*
G75*
G02*
X163750000Y-80025000I0J200000D01*
G01*
X163750000Y-79625000D01*
G75*
G02*
X163950000Y-79425000I200000J0D01*
G01*
G37*
G36*
G01*
X163950000Y-80675000D02*
X164850000Y-80675000D01*
G75*
G02*
X165050000Y-80875000I0J-200000D01*
G01*
X165050000Y-81275000D01*
G75*
G02*
X164850000Y-81475000I-200000J0D01*
G01*
X163950000Y-81475000D01*
G75*
G02*
X163750000Y-81275000I0J200000D01*
G01*
X163750000Y-80875000D01*
G75*
G02*
X163950000Y-80675000I200000J0D01*
G01*
G37*
G36*
G01*
X163950000Y-81925000D02*
X164850000Y-81925000D01*
G75*
G02*
X165050000Y-82125000I0J-200000D01*
G01*
X165050000Y-82525000D01*
G75*
G02*
X164850000Y-82725000I-200000J0D01*
G01*
X163950000Y-82725000D01*
G75*
G02*
X163750000Y-82525000I0J200000D01*
G01*
X163750000Y-82125000D01*
G75*
G02*
X163950000Y-81925000I200000J0D01*
G01*
G37*
G36*
G01*
X160400000Y-74975000D02*
X162900000Y-74975000D01*
G75*
G02*
X163150000Y-75225000I0J-250000D01*
G01*
X163150000Y-76825000D01*
G75*
G02*
X162900000Y-77075000I-250000J0D01*
G01*
X160400000Y-77075000D01*
G75*
G02*
X160150000Y-76825000I0J250000D01*
G01*
X160150000Y-75225000D01*
G75*
G02*
X160400000Y-74975000I250000J0D01*
G01*
G37*
G36*
G01*
X160400000Y-83825000D02*
X162900000Y-83825000D01*
G75*
G02*
X163150000Y-84075000I0J-250000D01*
G01*
X163150000Y-85675000D01*
G75*
G02*
X162900000Y-85925000I-250000J0D01*
G01*
X160400000Y-85925000D01*
G75*
G02*
X160150000Y-85675000I0J250000D01*
G01*
X160150000Y-84075000D01*
G75*
G02*
X160400000Y-83825000I250000J0D01*
G01*
G37*
%TD*%
%TO.C,J13*%
G36*
G01*
X171800000Y-78225000D02*
X172700000Y-78225000D01*
G75*
G02*
X172900000Y-78425000I0J-200000D01*
G01*
X172900000Y-78825000D01*
G75*
G02*
X172700000Y-79025000I-200000J0D01*
G01*
X171800000Y-79025000D01*
G75*
G02*
X171600000Y-78825000I0J200000D01*
G01*
X171600000Y-78425000D01*
G75*
G02*
X171800000Y-78225000I200000J0D01*
G01*
G37*
G36*
G01*
X171800000Y-79475000D02*
X172700000Y-79475000D01*
G75*
G02*
X172900000Y-79675000I0J-200000D01*
G01*
X172900000Y-80075000D01*
G75*
G02*
X172700000Y-80275000I-200000J0D01*
G01*
X171800000Y-80275000D01*
G75*
G02*
X171600000Y-80075000I0J200000D01*
G01*
X171600000Y-79675000D01*
G75*
G02*
X171800000Y-79475000I200000J0D01*
G01*
G37*
G36*
G01*
X171800000Y-80725000D02*
X172700000Y-80725000D01*
G75*
G02*
X172900000Y-80925000I0J-200000D01*
G01*
X172900000Y-81325000D01*
G75*
G02*
X172700000Y-81525000I-200000J0D01*
G01*
X171800000Y-81525000D01*
G75*
G02*
X171600000Y-81325000I0J200000D01*
G01*
X171600000Y-80925000D01*
G75*
G02*
X171800000Y-80725000I200000J0D01*
G01*
G37*
G36*
G01*
X171800000Y-81975000D02*
X172700000Y-81975000D01*
G75*
G02*
X172900000Y-82175000I0J-200000D01*
G01*
X172900000Y-82575000D01*
G75*
G02*
X172700000Y-82775000I-200000J0D01*
G01*
X171800000Y-82775000D01*
G75*
G02*
X171600000Y-82575000I0J200000D01*
G01*
X171600000Y-82175000D01*
G75*
G02*
X171800000Y-81975000I200000J0D01*
G01*
G37*
G36*
G01*
X168250000Y-75025000D02*
X170750000Y-75025000D01*
G75*
G02*
X171000000Y-75275000I0J-250000D01*
G01*
X171000000Y-76875000D01*
G75*
G02*
X170750000Y-77125000I-250000J0D01*
G01*
X168250000Y-77125000D01*
G75*
G02*
X168000000Y-76875000I0J250000D01*
G01*
X168000000Y-75275000D01*
G75*
G02*
X168250000Y-75025000I250000J0D01*
G01*
G37*
G36*
G01*
X168250000Y-83875000D02*
X170750000Y-83875000D01*
G75*
G02*
X171000000Y-84125000I0J-250000D01*
G01*
X171000000Y-85725000D01*
G75*
G02*
X170750000Y-85975000I-250000J0D01*
G01*
X168250000Y-85975000D01*
G75*
G02*
X168000000Y-85725000I0J250000D01*
G01*
X168000000Y-84125000D01*
G75*
G02*
X168250000Y-83875000I250000J0D01*
G01*
G37*
%TD*%
%TO.C,R188*%
G36*
G01*
X149060000Y-91277500D02*
X149060000Y-91622500D01*
G75*
G02*
X148912500Y-91770000I-147500J0D01*
G01*
X148617500Y-91770000D01*
G75*
G02*
X148470000Y-91622500I0J147500D01*
G01*
X148470000Y-91277500D01*
G75*
G02*
X148617500Y-91130000I147500J0D01*
G01*
X148912500Y-91130000D01*
G75*
G02*
X149060000Y-91277500I0J-147500D01*
G01*
G37*
G36*
G01*
X150030000Y-91277500D02*
X150030000Y-91622500D01*
G75*
G02*
X149882500Y-91770000I-147500J0D01*
G01*
X149587500Y-91770000D01*
G75*
G02*
X149440000Y-91622500I0J147500D01*
G01*
X149440000Y-91277500D01*
G75*
G02*
X149587500Y-91130000I147500J0D01*
G01*
X149882500Y-91130000D01*
G75*
G02*
X150030000Y-91277500I0J-147500D01*
G01*
G37*
%TD*%
%TO.C,R187*%
G36*
G01*
X149060000Y-89277500D02*
X149060000Y-89622500D01*
G75*
G02*
X148912500Y-89770000I-147500J0D01*
G01*
X148617500Y-89770000D01*
G75*
G02*
X148470000Y-89622500I0J147500D01*
G01*
X148470000Y-89277500D01*
G75*
G02*
X148617500Y-89130000I147500J0D01*
G01*
X148912500Y-89130000D01*
G75*
G02*
X149060000Y-89277500I0J-147500D01*
G01*
G37*
G36*
G01*
X150030000Y-89277500D02*
X150030000Y-89622500D01*
G75*
G02*
X149882500Y-89770000I-147500J0D01*
G01*
X149587500Y-89770000D01*
G75*
G02*
X149440000Y-89622500I0J147500D01*
G01*
X149440000Y-89277500D01*
G75*
G02*
X149587500Y-89130000I147500J0D01*
G01*
X149882500Y-89130000D01*
G75*
G02*
X150030000Y-89277500I0J-147500D01*
G01*
G37*
%TD*%
D20*
%TO.C,U17*%
X157875000Y-92400000D03*
X157875000Y-91750000D03*
X157875000Y-91100000D03*
X157875000Y-90450000D03*
X157875000Y-89800000D03*
X157875000Y-89150000D03*
X157875000Y-88500000D03*
X152125000Y-92400000D03*
X152125000Y-91750000D03*
X152125000Y-91100000D03*
X152125000Y-90450000D03*
X152125000Y-89800000D03*
X152125000Y-89150000D03*
X152125000Y-88500000D03*
%TD*%
D21*
%TO.C,U16*%
X157750000Y-95345000D03*
X157250000Y-95345000D03*
X156750000Y-95345000D03*
X156250000Y-95345000D03*
X156250000Y-94755000D03*
X156750000Y-94755000D03*
X157250000Y-94755000D03*
D22*
X157750000Y-94760000D03*
%TD*%
%TO.C,R185*%
G36*
G01*
X155110000Y-93577500D02*
X155110000Y-93922500D01*
G75*
G02*
X154962500Y-94070000I-147500J0D01*
G01*
X154667500Y-94070000D01*
G75*
G02*
X154520000Y-93922500I0J147500D01*
G01*
X154520000Y-93577500D01*
G75*
G02*
X154667500Y-93430000I147500J0D01*
G01*
X154962500Y-93430000D01*
G75*
G02*
X155110000Y-93577500I0J-147500D01*
G01*
G37*
G36*
G01*
X156080000Y-93577500D02*
X156080000Y-93922500D01*
G75*
G02*
X155932500Y-94070000I-147500J0D01*
G01*
X155637500Y-94070000D01*
G75*
G02*
X155490000Y-93922500I0J147500D01*
G01*
X155490000Y-93577500D01*
G75*
G02*
X155637500Y-93430000I147500J0D01*
G01*
X155932500Y-93430000D01*
G75*
G02*
X156080000Y-93577500I0J-147500D01*
G01*
G37*
%TD*%
%TO.C,R184*%
G36*
G01*
X158790000Y-78972500D02*
X158790000Y-78627500D01*
G75*
G02*
X158937500Y-78480000I147500J0D01*
G01*
X159232500Y-78480000D01*
G75*
G02*
X159380000Y-78627500I0J-147500D01*
G01*
X159380000Y-78972500D01*
G75*
G02*
X159232500Y-79120000I-147500J0D01*
G01*
X158937500Y-79120000D01*
G75*
G02*
X158790000Y-78972500I0J147500D01*
G01*
G37*
G36*
G01*
X157820000Y-78972500D02*
X157820000Y-78627500D01*
G75*
G02*
X157967500Y-78480000I147500J0D01*
G01*
X158262500Y-78480000D01*
G75*
G02*
X158410000Y-78627500I0J-147500D01*
G01*
X158410000Y-78972500D01*
G75*
G02*
X158262500Y-79120000I-147500J0D01*
G01*
X157967500Y-79120000D01*
G75*
G02*
X157820000Y-78972500I0J147500D01*
G01*
G37*
%TD*%
%TO.C,R183*%
G36*
G01*
X158790000Y-79972500D02*
X158790000Y-79627500D01*
G75*
G02*
X158937500Y-79480000I147500J0D01*
G01*
X159232500Y-79480000D01*
G75*
G02*
X159380000Y-79627500I0J-147500D01*
G01*
X159380000Y-79972500D01*
G75*
G02*
X159232500Y-80120000I-147500J0D01*
G01*
X158937500Y-80120000D01*
G75*
G02*
X158790000Y-79972500I0J147500D01*
G01*
G37*
G36*
G01*
X157820000Y-79972500D02*
X157820000Y-79627500D01*
G75*
G02*
X157967500Y-79480000I147500J0D01*
G01*
X158262500Y-79480000D01*
G75*
G02*
X158410000Y-79627500I0J-147500D01*
G01*
X158410000Y-79972500D01*
G75*
G02*
X158262500Y-80120000I-147500J0D01*
G01*
X157967500Y-80120000D01*
G75*
G02*
X157820000Y-79972500I0J147500D01*
G01*
G37*
%TD*%
%TO.C,R182*%
G36*
G01*
X158790000Y-75822500D02*
X158790000Y-75477500D01*
G75*
G02*
X158937500Y-75330000I147500J0D01*
G01*
X159232500Y-75330000D01*
G75*
G02*
X159380000Y-75477500I0J-147500D01*
G01*
X159380000Y-75822500D01*
G75*
G02*
X159232500Y-75970000I-147500J0D01*
G01*
X158937500Y-75970000D01*
G75*
G02*
X158790000Y-75822500I0J147500D01*
G01*
G37*
G36*
G01*
X157820000Y-75822500D02*
X157820000Y-75477500D01*
G75*
G02*
X157967500Y-75330000I147500J0D01*
G01*
X158262500Y-75330000D01*
G75*
G02*
X158410000Y-75477500I0J-147500D01*
G01*
X158410000Y-75822500D01*
G75*
G02*
X158262500Y-75970000I-147500J0D01*
G01*
X157967500Y-75970000D01*
G75*
G02*
X157820000Y-75822500I0J147500D01*
G01*
G37*
%TD*%
%TO.C,R181*%
G36*
G01*
X158790000Y-83072500D02*
X158790000Y-82727500D01*
G75*
G02*
X158937500Y-82580000I147500J0D01*
G01*
X159232500Y-82580000D01*
G75*
G02*
X159380000Y-82727500I0J-147500D01*
G01*
X159380000Y-83072500D01*
G75*
G02*
X159232500Y-83220000I-147500J0D01*
G01*
X158937500Y-83220000D01*
G75*
G02*
X158790000Y-83072500I0J147500D01*
G01*
G37*
G36*
G01*
X157820000Y-83072500D02*
X157820000Y-82727500D01*
G75*
G02*
X157967500Y-82580000I147500J0D01*
G01*
X158262500Y-82580000D01*
G75*
G02*
X158410000Y-82727500I0J-147500D01*
G01*
X158410000Y-83072500D01*
G75*
G02*
X158262500Y-83220000I-147500J0D01*
G01*
X157967500Y-83220000D01*
G75*
G02*
X157820000Y-83072500I0J147500D01*
G01*
G37*
%TD*%
%TO.C,R180*%
G36*
G01*
X155460000Y-96227500D02*
X155460000Y-96572500D01*
G75*
G02*
X155312500Y-96720000I-147500J0D01*
G01*
X155017500Y-96720000D01*
G75*
G02*
X154870000Y-96572500I0J147500D01*
G01*
X154870000Y-96227500D01*
G75*
G02*
X155017500Y-96080000I147500J0D01*
G01*
X155312500Y-96080000D01*
G75*
G02*
X155460000Y-96227500I0J-147500D01*
G01*
G37*
G36*
G01*
X156430000Y-96227500D02*
X156430000Y-96572500D01*
G75*
G02*
X156282500Y-96720000I-147500J0D01*
G01*
X155987500Y-96720000D01*
G75*
G02*
X155840000Y-96572500I0J147500D01*
G01*
X155840000Y-96227500D01*
G75*
G02*
X155987500Y-96080000I147500J0D01*
G01*
X156282500Y-96080000D01*
G75*
G02*
X156430000Y-96227500I0J-147500D01*
G01*
G37*
%TD*%
%TO.C,R177*%
G36*
G01*
X158410000Y-77627500D02*
X158410000Y-77972500D01*
G75*
G02*
X158262500Y-78120000I-147500J0D01*
G01*
X157967500Y-78120000D01*
G75*
G02*
X157820000Y-77972500I0J147500D01*
G01*
X157820000Y-77627500D01*
G75*
G02*
X157967500Y-77480000I147500J0D01*
G01*
X158262500Y-77480000D01*
G75*
G02*
X158410000Y-77627500I0J-147500D01*
G01*
G37*
G36*
G01*
X159380000Y-77627500D02*
X159380000Y-77972500D01*
G75*
G02*
X159232500Y-78120000I-147500J0D01*
G01*
X158937500Y-78120000D01*
G75*
G02*
X158790000Y-77972500I0J147500D01*
G01*
X158790000Y-77627500D01*
G75*
G02*
X158937500Y-77480000I147500J0D01*
G01*
X159232500Y-77480000D01*
G75*
G02*
X159380000Y-77627500I0J-147500D01*
G01*
G37*
%TD*%
%TO.C,R176*%
G36*
G01*
X158410000Y-76477500D02*
X158410000Y-76822500D01*
G75*
G02*
X158262500Y-76970000I-147500J0D01*
G01*
X157967500Y-76970000D01*
G75*
G02*
X157820000Y-76822500I0J147500D01*
G01*
X157820000Y-76477500D01*
G75*
G02*
X157967500Y-76330000I147500J0D01*
G01*
X158262500Y-76330000D01*
G75*
G02*
X158410000Y-76477500I0J-147500D01*
G01*
G37*
G36*
G01*
X159380000Y-76477500D02*
X159380000Y-76822500D01*
G75*
G02*
X159232500Y-76970000I-147500J0D01*
G01*
X158937500Y-76970000D01*
G75*
G02*
X158790000Y-76822500I0J147500D01*
G01*
X158790000Y-76477500D01*
G75*
G02*
X158937500Y-76330000I147500J0D01*
G01*
X159232500Y-76330000D01*
G75*
G02*
X159380000Y-76477500I0J-147500D01*
G01*
G37*
%TD*%
%TO.C,R175*%
G36*
G01*
X158410000Y-80627500D02*
X158410000Y-80972500D01*
G75*
G02*
X158262500Y-81120000I-147500J0D01*
G01*
X157967500Y-81120000D01*
G75*
G02*
X157820000Y-80972500I0J147500D01*
G01*
X157820000Y-80627500D01*
G75*
G02*
X157967500Y-80480000I147500J0D01*
G01*
X158262500Y-80480000D01*
G75*
G02*
X158410000Y-80627500I0J-147500D01*
G01*
G37*
G36*
G01*
X159380000Y-80627500D02*
X159380000Y-80972500D01*
G75*
G02*
X159232500Y-81120000I-147500J0D01*
G01*
X158937500Y-81120000D01*
G75*
G02*
X158790000Y-80972500I0J147500D01*
G01*
X158790000Y-80627500D01*
G75*
G02*
X158937500Y-80480000I147500J0D01*
G01*
X159232500Y-80480000D01*
G75*
G02*
X159380000Y-80627500I0J-147500D01*
G01*
G37*
%TD*%
%TO.C,R1*%
G36*
G01*
X158410000Y-81727500D02*
X158410000Y-82072500D01*
G75*
G02*
X158262500Y-82220000I-147500J0D01*
G01*
X157967500Y-82220000D01*
G75*
G02*
X157820000Y-82072500I0J147500D01*
G01*
X157820000Y-81727500D01*
G75*
G02*
X157967500Y-81580000I147500J0D01*
G01*
X158262500Y-81580000D01*
G75*
G02*
X158410000Y-81727500I0J-147500D01*
G01*
G37*
G36*
G01*
X159380000Y-81727500D02*
X159380000Y-82072500D01*
G75*
G02*
X159232500Y-82220000I-147500J0D01*
G01*
X158937500Y-82220000D01*
G75*
G02*
X158790000Y-82072500I0J147500D01*
G01*
X158790000Y-81727500D01*
G75*
G02*
X158937500Y-81580000I147500J0D01*
G01*
X159232500Y-81580000D01*
G75*
G02*
X159380000Y-81727500I0J-147500D01*
G01*
G37*
%TD*%
%TO.C,D38*%
G36*
G01*
X155270000Y-51169000D02*
X155270000Y-51531000D01*
G75*
G02*
X155251000Y-51550000I-19000J0D01*
G01*
X154909000Y-51550000D01*
G75*
G02*
X154890000Y-51531000I0J19000D01*
G01*
X154890000Y-51169000D01*
G75*
G02*
X154909000Y-51150000I19000J0D01*
G01*
X155251000Y-51150000D01*
G75*
G02*
X155270000Y-51169000I0J-19000D01*
G01*
G37*
D23*
X154520000Y-51350000D03*
%TD*%
%TO.C,D7*%
G36*
G01*
X152830000Y-51531000D02*
X152830000Y-51169000D01*
G75*
G02*
X152849000Y-51150000I19000J0D01*
G01*
X153191000Y-51150000D01*
G75*
G02*
X153210000Y-51169000I0J-19000D01*
G01*
X153210000Y-51531000D01*
G75*
G02*
X153191000Y-51550000I-19000J0D01*
G01*
X152849000Y-51550000D01*
G75*
G02*
X152830000Y-51531000I0J19000D01*
G01*
G37*
X153580000Y-51350000D03*
%TD*%
%TO.C,C165*%
G36*
G01*
X156927500Y-97040000D02*
X157272500Y-97040000D01*
G75*
G02*
X157420000Y-97187500I0J-147500D01*
G01*
X157420000Y-97482500D01*
G75*
G02*
X157272500Y-97630000I-147500J0D01*
G01*
X156927500Y-97630000D01*
G75*
G02*
X156780000Y-97482500I0J147500D01*
G01*
X156780000Y-97187500D01*
G75*
G02*
X156927500Y-97040000I147500J0D01*
G01*
G37*
G36*
G01*
X156927500Y-96070000D02*
X157272500Y-96070000D01*
G75*
G02*
X157420000Y-96217500I0J-147500D01*
G01*
X157420000Y-96512500D01*
G75*
G02*
X157272500Y-96660000I-147500J0D01*
G01*
X156927500Y-96660000D01*
G75*
G02*
X156780000Y-96512500I0J147500D01*
G01*
X156780000Y-96217500D01*
G75*
G02*
X156927500Y-96070000I147500J0D01*
G01*
G37*
%TD*%
%TO.C,C164*%
G36*
G01*
X157390000Y-93922500D02*
X157390000Y-93577500D01*
G75*
G02*
X157537500Y-93430000I147500J0D01*
G01*
X157832500Y-93430000D01*
G75*
G02*
X157980000Y-93577500I0J-147500D01*
G01*
X157980000Y-93922500D01*
G75*
G02*
X157832500Y-94070000I-147500J0D01*
G01*
X157537500Y-94070000D01*
G75*
G02*
X157390000Y-93922500I0J147500D01*
G01*
G37*
G36*
G01*
X156420000Y-93922500D02*
X156420000Y-93577500D01*
G75*
G02*
X156567500Y-93430000I147500J0D01*
G01*
X156862500Y-93430000D01*
G75*
G02*
X157010000Y-93577500I0J-147500D01*
G01*
X157010000Y-93922500D01*
G75*
G02*
X156862500Y-94070000I-147500J0D01*
G01*
X156567500Y-94070000D01*
G75*
G02*
X156420000Y-93922500I0J147500D01*
G01*
G37*
%TD*%
D24*
%TO.C,U7*%
X131975000Y-67045000D03*
X132775000Y-67045000D03*
X129975000Y-67045000D03*
X133575000Y-67045000D03*
X130775000Y-67045000D03*
X133175000Y-67045000D03*
X131575000Y-67045000D03*
X130375000Y-67045000D03*
X131175000Y-67045000D03*
D25*
X136775000Y-66245000D03*
X136775000Y-65845000D03*
X136775000Y-65445000D03*
D24*
X135575000Y-67045000D03*
X135975000Y-67045000D03*
D25*
X136775000Y-61045000D03*
X136775000Y-60645000D03*
X136775000Y-60245000D03*
D24*
X135975000Y-59445000D03*
X135575000Y-59445000D03*
X135175000Y-59445000D03*
X134775000Y-59445000D03*
X134375000Y-59445000D03*
X133975000Y-59445000D03*
X133575000Y-59445000D03*
X133175000Y-59445000D03*
X132775000Y-59445000D03*
X132375000Y-59445000D03*
X131975000Y-59445000D03*
X131575000Y-59445000D03*
X131175000Y-59445000D03*
X130775000Y-59445000D03*
X130375000Y-59445000D03*
X129975000Y-59445000D03*
D25*
X129175000Y-60245000D03*
X129175000Y-60645000D03*
X129175000Y-61045000D03*
X129175000Y-61445000D03*
X129175000Y-61845000D03*
X129175000Y-62245000D03*
X129175000Y-62645000D03*
X129175000Y-63045000D03*
X129175000Y-63445000D03*
X129175000Y-63845000D03*
X129175000Y-64245000D03*
X129175000Y-64645000D03*
X129175000Y-65045000D03*
X129175000Y-65445000D03*
X129175000Y-65845000D03*
X129175000Y-66245000D03*
D24*
X132375000Y-67045000D03*
X133975000Y-67045000D03*
X134375000Y-67045000D03*
X134775000Y-67045000D03*
X135175000Y-67045000D03*
D25*
X136775000Y-65045000D03*
X136775000Y-64645000D03*
X136775000Y-64245000D03*
X136775000Y-63845000D03*
X136775000Y-63445000D03*
X136775000Y-63045000D03*
X136775000Y-62645000D03*
X136775000Y-62245000D03*
X136775000Y-61845000D03*
X136775000Y-61445000D03*
%TD*%
D26*
%TO.C,ANT1*%
X122825000Y-58075000D03*
X120675000Y-58075000D03*
X122825000Y-55925000D03*
X120675000Y-55925000D03*
%TD*%
D27*
%TO.C,M1*%
X97900000Y-73800000D03*
D28*
X99000000Y-71900000D03*
X140800000Y-71900000D03*
X140800000Y-112700000D03*
X99000000Y-112700000D03*
D29*
X130300000Y-100100000D03*
X130300000Y-97500000D03*
X130300000Y-94900000D03*
X130300000Y-92300000D03*
X130300000Y-89700000D03*
X130300000Y-87100000D03*
X130300000Y-84500000D03*
X127700000Y-100100000D03*
X127700000Y-97500000D03*
X127700000Y-94900000D03*
X127700000Y-92300000D03*
X127700000Y-89700000D03*
X127700000Y-87100000D03*
X127700000Y-84500000D03*
X125100000Y-100100000D03*
X125100000Y-97500000D03*
X125100000Y-94900000D03*
X125100000Y-92300000D03*
X125100000Y-89700000D03*
X125100000Y-87100000D03*
X125100000Y-84500000D03*
X122500000Y-100100000D03*
X122500000Y-97500000D03*
X122500000Y-94900000D03*
X122500000Y-92300000D03*
X122500000Y-89700000D03*
X122500000Y-87100000D03*
X122500000Y-84500000D03*
X119900000Y-100100000D03*
X119900000Y-97500000D03*
X119900000Y-94900000D03*
X119900000Y-92300000D03*
X119900000Y-89700000D03*
X119900000Y-87100000D03*
X119900000Y-84500000D03*
X117300000Y-100100000D03*
X117300000Y-97500000D03*
X117300000Y-94900000D03*
X117300000Y-92300000D03*
X117300000Y-89700000D03*
X117300000Y-87100000D03*
X117300000Y-84500000D03*
X114700000Y-100100000D03*
X114700000Y-97500000D03*
X114700000Y-94900000D03*
X114700000Y-92300000D03*
X114700000Y-89700000D03*
X114700000Y-87100000D03*
X114700000Y-84500000D03*
X112100000Y-100100000D03*
X112100000Y-97500000D03*
X112100000Y-94900000D03*
X112100000Y-92300000D03*
X112100000Y-89700000D03*
X112100000Y-87100000D03*
X112100000Y-84500000D03*
X109500000Y-100100000D03*
X109500000Y-97500000D03*
X109500000Y-94900000D03*
X109500000Y-92300000D03*
X109500000Y-89700000D03*
X109500000Y-87100000D03*
X109500000Y-84500000D03*
D30*
X108900000Y-79300000D03*
X110900000Y-79300000D03*
X112900000Y-79300000D03*
X114900000Y-79300000D03*
X116900000Y-79300000D03*
X118900000Y-79300000D03*
X120900000Y-79300000D03*
X122900000Y-79300000D03*
X124900000Y-79300000D03*
X126900000Y-79300000D03*
X128900000Y-79300000D03*
X130900000Y-79300000D03*
D31*
X134400000Y-82300000D03*
X134400000Y-84300000D03*
X134400000Y-86300000D03*
X134400000Y-88300000D03*
X134400000Y-90300000D03*
X134400000Y-92300000D03*
X134400000Y-94300000D03*
X134400000Y-96300000D03*
X134400000Y-98300000D03*
X134400000Y-100300000D03*
X134400000Y-102300000D03*
D30*
X130900000Y-105300000D03*
X128900000Y-105300000D03*
X126900000Y-105300000D03*
X124900000Y-105300000D03*
X122900000Y-105300000D03*
X120900000Y-105300000D03*
X118900000Y-105300000D03*
X116900000Y-105300000D03*
X114900000Y-105300000D03*
X112900000Y-105300000D03*
X110900000Y-105300000D03*
X108900000Y-105300000D03*
D31*
X105400000Y-102300000D03*
X105400000Y-100300000D03*
X105400000Y-98300000D03*
X105400000Y-96300000D03*
X105400000Y-94300000D03*
X105400000Y-92300000D03*
X105400000Y-90300000D03*
X105400000Y-88300000D03*
X105400000Y-86300000D03*
X105400000Y-84300000D03*
X105400000Y-82300000D03*
D30*
X105900000Y-76300000D03*
X107900000Y-76300000D03*
X109900000Y-76300000D03*
X111900000Y-76300000D03*
X113900000Y-76300000D03*
X115900000Y-76300000D03*
X117900000Y-76300000D03*
X119900000Y-76300000D03*
X121900000Y-76300000D03*
X123900000Y-76300000D03*
X125900000Y-76300000D03*
X127900000Y-76300000D03*
X129900000Y-76300000D03*
X131900000Y-76300000D03*
X133900000Y-76300000D03*
D31*
X137400000Y-79300000D03*
X137400000Y-81300000D03*
X137400000Y-83300000D03*
X137400000Y-85300000D03*
X137400000Y-87300000D03*
X137400000Y-89300000D03*
X137400000Y-91300000D03*
X137400000Y-93300000D03*
X137400000Y-95300000D03*
X137400000Y-97300000D03*
X137400000Y-99300000D03*
X137400000Y-101300000D03*
X137400000Y-103300000D03*
X137400000Y-105300000D03*
D30*
X133900000Y-108300000D03*
X131900000Y-108300000D03*
X129900000Y-108300000D03*
X127900000Y-108300000D03*
X125900000Y-108300000D03*
X123900000Y-108300000D03*
X121900000Y-108300000D03*
X119900000Y-108300000D03*
X117900000Y-108300000D03*
X115900000Y-108300000D03*
X113900000Y-108300000D03*
X111900000Y-108300000D03*
X109900000Y-108300000D03*
X107900000Y-108300000D03*
X105900000Y-108300000D03*
D31*
X102400000Y-105300000D03*
X102400000Y-103300000D03*
X102400000Y-101300000D03*
X102400000Y-99300000D03*
X102400000Y-97300000D03*
X102400000Y-95300000D03*
X102400000Y-93300000D03*
X102400000Y-91300000D03*
X102400000Y-89300000D03*
X102400000Y-87300000D03*
X102400000Y-85300000D03*
X102400000Y-83300000D03*
X102400000Y-81300000D03*
X102400000Y-79300000D03*
D32*
X101400000Y-70800000D03*
X102400000Y-70800000D03*
X103400000Y-70800000D03*
X104400000Y-70800000D03*
X105400000Y-70800000D03*
X106400000Y-70800000D03*
X107400000Y-70800000D03*
X108400000Y-70800000D03*
X109400000Y-70800000D03*
X110400000Y-70800000D03*
X111400000Y-70800000D03*
X112400000Y-70800000D03*
X113400000Y-70800000D03*
X114400000Y-70800000D03*
X115400000Y-70800000D03*
X116400000Y-70800000D03*
X117400000Y-70800000D03*
X118400000Y-70800000D03*
X119400000Y-70800000D03*
X120400000Y-70800000D03*
X121400000Y-70800000D03*
X122400000Y-70800000D03*
X123400000Y-70800000D03*
X124400000Y-70800000D03*
X125400000Y-70800000D03*
X126400000Y-70800000D03*
X127400000Y-70800000D03*
X128400000Y-70800000D03*
X129400000Y-70800000D03*
X130400000Y-70800000D03*
X131400000Y-70800000D03*
X132400000Y-70800000D03*
X133400000Y-70800000D03*
X134400000Y-70800000D03*
X135400000Y-70800000D03*
X136400000Y-70800000D03*
X137400000Y-70800000D03*
X138400000Y-70800000D03*
D33*
X141900000Y-73800000D03*
X141900000Y-74800000D03*
X141900000Y-75800000D03*
X141900000Y-76800000D03*
X141900000Y-77800000D03*
X141900000Y-78800000D03*
X141900000Y-79800000D03*
X141900000Y-80800000D03*
X141900000Y-81800000D03*
X141900000Y-82800000D03*
X141900000Y-83800000D03*
X141900000Y-84800000D03*
X141900000Y-85800000D03*
X141900000Y-86800000D03*
X141900000Y-87800000D03*
X141900000Y-88800000D03*
X141900000Y-89800000D03*
X141900000Y-90800000D03*
X141900000Y-91800000D03*
X141900000Y-92800000D03*
X141900000Y-93800000D03*
X141900000Y-94800000D03*
X141900000Y-95800000D03*
X141900000Y-96800000D03*
X141900000Y-97800000D03*
X141900000Y-98800000D03*
X141900000Y-99800000D03*
X141900000Y-100800000D03*
X141900000Y-101800000D03*
X141900000Y-102800000D03*
X141900000Y-103800000D03*
X141900000Y-104800000D03*
X141900000Y-105800000D03*
X141900000Y-106800000D03*
X141900000Y-107800000D03*
X141900000Y-108800000D03*
X141900000Y-109800000D03*
X141900000Y-110800000D03*
D32*
X138400000Y-113800000D03*
X137400000Y-113800000D03*
X136400000Y-113800000D03*
X135400000Y-113800000D03*
X134400000Y-113800000D03*
X133400000Y-113800000D03*
X132400000Y-113800000D03*
X131400000Y-113800000D03*
X130400000Y-113800000D03*
X129400000Y-113800000D03*
X128400000Y-113800000D03*
X127400000Y-113800000D03*
X126400000Y-113800000D03*
X125400000Y-113800000D03*
X124400000Y-113800000D03*
X123400000Y-113800000D03*
X122400000Y-113800000D03*
X121400000Y-113800000D03*
X120400000Y-113800000D03*
X119400000Y-113800000D03*
X118400000Y-113800000D03*
X117400000Y-113800000D03*
X116400000Y-113800000D03*
X115400000Y-113800000D03*
X114400000Y-113800000D03*
X113400000Y-113800000D03*
X112400000Y-113800000D03*
X111400000Y-113800000D03*
X110400000Y-113800000D03*
X109400000Y-113800000D03*
X108400000Y-113800000D03*
X107400000Y-113800000D03*
X106400000Y-113800000D03*
X105400000Y-113800000D03*
X104400000Y-113800000D03*
X103400000Y-113800000D03*
X102400000Y-113800000D03*
X101400000Y-113800000D03*
D33*
X97900000Y-110800000D03*
X97900000Y-109800000D03*
X97900000Y-108800000D03*
X97900000Y-107800000D03*
X97900000Y-106800000D03*
X97900000Y-105800000D03*
X97900000Y-104800000D03*
X97900000Y-103800000D03*
X97900000Y-102800000D03*
X97900000Y-101800000D03*
X97900000Y-100800000D03*
X97900000Y-99800000D03*
X97900000Y-98800000D03*
X97900000Y-97800000D03*
X97900000Y-96800000D03*
X97900000Y-95800000D03*
X97900000Y-94800000D03*
X97900000Y-93800000D03*
X97900000Y-92800000D03*
X97900000Y-91800000D03*
X97900000Y-90800000D03*
X97900000Y-89800000D03*
X97900000Y-88800000D03*
X97900000Y-87800000D03*
X97900000Y-86800000D03*
X97900000Y-85800000D03*
X97900000Y-84800000D03*
X97900000Y-83800000D03*
X97900000Y-82800000D03*
X97900000Y-81800000D03*
X97900000Y-80800000D03*
X97900000Y-79800000D03*
X97900000Y-78800000D03*
X97900000Y-77800000D03*
X97900000Y-76800000D03*
X97900000Y-75800000D03*
X97900000Y-74800000D03*
%TD*%
D34*
%TO.C,U9*%
X86400000Y-59700000D03*
X85900000Y-59700000D03*
X85400000Y-59700000D03*
X84900000Y-59700000D03*
X84400000Y-55300000D03*
X84900000Y-55300000D03*
X85400000Y-55300000D03*
X85900000Y-55300000D03*
X84400000Y-59700000D03*
X86400000Y-55300000D03*
%TD*%
%TO.C,D35*%
G36*
G01*
X159581000Y-58170000D02*
X159219000Y-58170000D01*
G75*
G02*
X159200000Y-58151000I0J19000D01*
G01*
X159200000Y-57809000D01*
G75*
G02*
X159219000Y-57790000I19000J0D01*
G01*
X159581000Y-57790000D01*
G75*
G02*
X159600000Y-57809000I0J-19000D01*
G01*
X159600000Y-58151000D01*
G75*
G02*
X159581000Y-58170000I-19000J0D01*
G01*
G37*
D35*
X159400000Y-57420000D03*
%TD*%
%TO.C,R174*%
G36*
G01*
X77490000Y-60072500D02*
X77490000Y-59727500D01*
G75*
G02*
X77637500Y-59580000I147500J0D01*
G01*
X77932500Y-59580000D01*
G75*
G02*
X78080000Y-59727500I0J-147500D01*
G01*
X78080000Y-60072500D01*
G75*
G02*
X77932500Y-60220000I-147500J0D01*
G01*
X77637500Y-60220000D01*
G75*
G02*
X77490000Y-60072500I0J147500D01*
G01*
G37*
G36*
G01*
X76520000Y-60072500D02*
X76520000Y-59727500D01*
G75*
G02*
X76667500Y-59580000I147500J0D01*
G01*
X76962500Y-59580000D01*
G75*
G02*
X77110000Y-59727500I0J-147500D01*
G01*
X77110000Y-60072500D01*
G75*
G02*
X76962500Y-60220000I-147500J0D01*
G01*
X76667500Y-60220000D01*
G75*
G02*
X76520000Y-60072500I0J147500D01*
G01*
G37*
%TD*%
%TO.C,R173*%
G36*
G01*
X82227500Y-65490000D02*
X82572500Y-65490000D01*
G75*
G02*
X82720000Y-65637500I0J-147500D01*
G01*
X82720000Y-65932500D01*
G75*
G02*
X82572500Y-66080000I-147500J0D01*
G01*
X82227500Y-66080000D01*
G75*
G02*
X82080000Y-65932500I0J147500D01*
G01*
X82080000Y-65637500D01*
G75*
G02*
X82227500Y-65490000I147500J0D01*
G01*
G37*
G36*
G01*
X82227500Y-64520000D02*
X82572500Y-64520000D01*
G75*
G02*
X82720000Y-64667500I0J-147500D01*
G01*
X82720000Y-64962500D01*
G75*
G02*
X82572500Y-65110000I-147500J0D01*
G01*
X82227500Y-65110000D01*
G75*
G02*
X82080000Y-64962500I0J147500D01*
G01*
X82080000Y-64667500D01*
G75*
G02*
X82227500Y-64520000I147500J0D01*
G01*
G37*
%TD*%
%TO.C,R172*%
G36*
G01*
X77690000Y-68072500D02*
X77690000Y-67727500D01*
G75*
G02*
X77837500Y-67580000I147500J0D01*
G01*
X78132500Y-67580000D01*
G75*
G02*
X78280000Y-67727500I0J-147500D01*
G01*
X78280000Y-68072500D01*
G75*
G02*
X78132500Y-68220000I-147500J0D01*
G01*
X77837500Y-68220000D01*
G75*
G02*
X77690000Y-68072500I0J147500D01*
G01*
G37*
G36*
G01*
X76720000Y-68072500D02*
X76720000Y-67727500D01*
G75*
G02*
X76867500Y-67580000I147500J0D01*
G01*
X77162500Y-67580000D01*
G75*
G02*
X77310000Y-67727500I0J-147500D01*
G01*
X77310000Y-68072500D01*
G75*
G02*
X77162500Y-68220000I-147500J0D01*
G01*
X76867500Y-68220000D01*
G75*
G02*
X76720000Y-68072500I0J147500D01*
G01*
G37*
%TD*%
%TO.C,R171*%
G36*
G01*
X77072500Y-65610000D02*
X76727500Y-65610000D01*
G75*
G02*
X76580000Y-65462500I0J147500D01*
G01*
X76580000Y-65167500D01*
G75*
G02*
X76727500Y-65020000I147500J0D01*
G01*
X77072500Y-65020000D01*
G75*
G02*
X77220000Y-65167500I0J-147500D01*
G01*
X77220000Y-65462500D01*
G75*
G02*
X77072500Y-65610000I-147500J0D01*
G01*
G37*
G36*
G01*
X77072500Y-66580000D02*
X76727500Y-66580000D01*
G75*
G02*
X76580000Y-66432500I0J147500D01*
G01*
X76580000Y-66137500D01*
G75*
G02*
X76727500Y-65990000I147500J0D01*
G01*
X77072500Y-65990000D01*
G75*
G02*
X77220000Y-66137500I0J-147500D01*
G01*
X77220000Y-66432500D01*
G75*
G02*
X77072500Y-66580000I-147500J0D01*
G01*
G37*
%TD*%
D36*
%TO.C,IC4*%
X81050000Y-63850000D03*
X81050000Y-64800000D03*
X81050000Y-65750000D03*
X78350000Y-63850000D03*
X78350000Y-64800000D03*
X78350000Y-65750000D03*
%TD*%
D37*
%TO.C,FB2*%
X81500000Y-60475000D03*
X81500000Y-61925000D03*
%TD*%
D38*
%TO.C,D24*%
X79350000Y-67900000D03*
X80850000Y-67900000D03*
%TD*%
D39*
%TO.C,C161*%
X79850000Y-61600000D03*
X77750000Y-61600000D03*
%TD*%
%TO.C,C160*%
G36*
G01*
X76727500Y-64090000D02*
X77072500Y-64090000D01*
G75*
G02*
X77220000Y-64237500I0J-147500D01*
G01*
X77220000Y-64532500D01*
G75*
G02*
X77072500Y-64680000I-147500J0D01*
G01*
X76727500Y-64680000D01*
G75*
G02*
X76580000Y-64532500I0J147500D01*
G01*
X76580000Y-64237500D01*
G75*
G02*
X76727500Y-64090000I147500J0D01*
G01*
G37*
G36*
G01*
X76727500Y-63120000D02*
X77072500Y-63120000D01*
G75*
G02*
X77220000Y-63267500I0J-147500D01*
G01*
X77220000Y-63562500D01*
G75*
G02*
X77072500Y-63710000I-147500J0D01*
G01*
X76727500Y-63710000D01*
G75*
G02*
X76580000Y-63562500I0J147500D01*
G01*
X76580000Y-63267500D01*
G75*
G02*
X76727500Y-63120000I147500J0D01*
G01*
G37*
%TD*%
D40*
%TO.C,L2*%
X170100000Y-64300000D03*
X170100000Y-72500000D03*
%TD*%
D13*
%TO.C,Q10*%
G36*
X161972754Y-60831245D02*
G01*
X161975599Y-60821866D01*
X161980220Y-60813221D01*
X161986438Y-60805645D01*
X161994014Y-60799427D01*
X162002659Y-60794806D01*
X162012038Y-60791961D01*
X162021786Y-60791000D01*
X162024500Y-60791000D01*
X162024500Y-59113793D01*
X162025461Y-59104038D01*
X162028306Y-59094659D01*
X162032927Y-59086014D01*
X162039145Y-59078438D01*
X162046721Y-59072220D01*
X162055366Y-59067599D01*
X162064745Y-59064754D01*
X162074500Y-59063793D01*
X163599501Y-59063793D01*
X163609256Y-59064754D01*
X163618635Y-59067599D01*
X163627280Y-59072220D01*
X163634856Y-59078438D01*
X163641074Y-59086014D01*
X163645695Y-59094659D01*
X163648540Y-59104038D01*
X163649501Y-59113793D01*
X163649501Y-59453798D01*
X163648540Y-59463553D01*
X163645695Y-59472932D01*
X163641074Y-59481577D01*
X163634856Y-59489153D01*
X163627280Y-59495371D01*
X163618635Y-59499992D01*
X163609256Y-59502837D01*
X163599501Y-59503798D01*
X163069492Y-59503798D01*
X163069500Y-60790999D01*
X163078185Y-60791000D01*
X163087939Y-60791962D01*
X163097319Y-60794808D01*
X163105962Y-60799430D01*
X163113539Y-60805649D01*
X163119756Y-60813226D01*
X163124375Y-60821871D01*
X163127219Y-60831251D01*
X163128179Y-60841000D01*
X163128179Y-61399800D01*
X163127218Y-61409555D01*
X163124373Y-61418934D01*
X163119752Y-61427579D01*
X163113534Y-61435155D01*
X163105958Y-61441373D01*
X163097313Y-61445994D01*
X163087934Y-61448839D01*
X163078179Y-61449800D01*
X162671779Y-61449800D01*
X162662024Y-61448839D01*
X162652645Y-61445994D01*
X162644000Y-61441373D01*
X162636424Y-61435155D01*
X162630206Y-61427579D01*
X162625585Y-61418934D01*
X162622740Y-61409555D01*
X162621779Y-61399800D01*
X162621779Y-60891000D01*
X162478193Y-60891000D01*
X162478193Y-61399800D01*
X162477232Y-61409555D01*
X162474387Y-61418934D01*
X162469766Y-61427579D01*
X162463548Y-61435155D01*
X162455972Y-61441373D01*
X162447327Y-61445994D01*
X162437948Y-61448839D01*
X162428193Y-61449800D01*
X162021793Y-61449800D01*
X162012038Y-61448839D01*
X162002659Y-61445994D01*
X161994014Y-61441373D01*
X161986438Y-61435155D01*
X161980220Y-61427579D01*
X161975599Y-61418934D01*
X161972754Y-61409555D01*
X161971793Y-61399800D01*
X161971793Y-60841000D01*
X161972754Y-60831245D01*
G37*
G36*
X160151460Y-59104038D02*
G01*
X160154305Y-59094659D01*
X160158926Y-59086014D01*
X160165144Y-59078438D01*
X160172720Y-59072220D01*
X160181365Y-59067599D01*
X160190744Y-59064754D01*
X160200499Y-59063793D01*
X161725500Y-59063793D01*
X161735255Y-59064754D01*
X161744634Y-59067599D01*
X161753279Y-59072220D01*
X161760855Y-59078438D01*
X161767073Y-59086014D01*
X161771694Y-59094659D01*
X161774539Y-59104038D01*
X161775500Y-59113793D01*
X161775500Y-60791000D01*
X161778214Y-60791000D01*
X161787968Y-60791962D01*
X161797347Y-60794809D01*
X161805991Y-60799430D01*
X161813567Y-60805649D01*
X161819784Y-60813227D01*
X161824404Y-60821872D01*
X161827248Y-60831252D01*
X161828207Y-60841000D01*
X161828207Y-61399800D01*
X161827246Y-61409555D01*
X161824401Y-61418934D01*
X161819780Y-61427579D01*
X161813562Y-61435155D01*
X161805986Y-61441373D01*
X161797341Y-61445994D01*
X161787962Y-61448839D01*
X161778207Y-61449800D01*
X161371807Y-61449800D01*
X161362052Y-61448839D01*
X161352673Y-61445994D01*
X161344028Y-61441373D01*
X161336452Y-61435155D01*
X161330234Y-61427579D01*
X161325613Y-61418934D01*
X161322768Y-61409555D01*
X161321807Y-61399800D01*
X161321807Y-60891000D01*
X161178221Y-60891000D01*
X161178221Y-61399800D01*
X161177260Y-61409555D01*
X161174415Y-61418934D01*
X161169794Y-61427579D01*
X161163576Y-61435155D01*
X161156000Y-61441373D01*
X161147355Y-61445994D01*
X161137976Y-61448839D01*
X161128221Y-61449800D01*
X160721821Y-61449800D01*
X160712066Y-61448839D01*
X160702687Y-61445994D01*
X160694042Y-61441373D01*
X160686466Y-61435155D01*
X160680248Y-61427579D01*
X160675627Y-61418934D01*
X160672782Y-61409555D01*
X160671821Y-61399800D01*
X160671821Y-60841000D01*
X160672782Y-60831245D01*
X160675627Y-60821866D01*
X160680248Y-60813221D01*
X160686466Y-60805645D01*
X160694042Y-60799427D01*
X160702687Y-60794806D01*
X160712066Y-60791961D01*
X160721815Y-60791000D01*
X160730500Y-60790999D01*
X160730508Y-59503798D01*
X160200499Y-59503798D01*
X160190744Y-59502837D01*
X160181365Y-59499992D01*
X160172720Y-59495371D01*
X160165144Y-59489153D01*
X160158926Y-59481577D01*
X160154305Y-59472932D01*
X160151460Y-59463553D01*
X160150499Y-59453798D01*
X160150499Y-59113793D01*
X160151460Y-59104038D01*
G37*
D41*
X160925021Y-58254200D03*
X161575007Y-58254200D03*
X162224993Y-58254200D03*
X162874979Y-58254200D03*
D42*
X162874979Y-61120400D03*
X160925021Y-61120400D03*
%TD*%
D13*
%TO.C,Q11*%
G36*
X171268755Y-57072754D02*
G01*
X171278134Y-57075599D01*
X171286779Y-57080220D01*
X171294355Y-57086438D01*
X171300573Y-57094014D01*
X171305194Y-57102659D01*
X171308039Y-57112038D01*
X171309000Y-57121786D01*
X171309000Y-57124500D01*
X172986207Y-57124500D01*
X172995962Y-57125461D01*
X173005341Y-57128306D01*
X173013986Y-57132927D01*
X173021562Y-57139145D01*
X173027780Y-57146721D01*
X173032401Y-57155366D01*
X173035246Y-57164745D01*
X173036207Y-57174500D01*
X173036207Y-58699501D01*
X173035246Y-58709256D01*
X173032401Y-58718635D01*
X173027780Y-58727280D01*
X173021562Y-58734856D01*
X173013986Y-58741074D01*
X173005341Y-58745695D01*
X172995962Y-58748540D01*
X172986207Y-58749501D01*
X172646202Y-58749501D01*
X172636447Y-58748540D01*
X172627068Y-58745695D01*
X172618423Y-58741074D01*
X172610847Y-58734856D01*
X172604629Y-58727280D01*
X172600008Y-58718635D01*
X172597163Y-58709256D01*
X172596202Y-58699501D01*
X172596202Y-58169492D01*
X171309001Y-58169500D01*
X171309000Y-58178185D01*
X171308038Y-58187939D01*
X171305192Y-58197319D01*
X171300570Y-58205962D01*
X171294351Y-58213539D01*
X171286774Y-58219756D01*
X171278129Y-58224375D01*
X171268749Y-58227219D01*
X171259000Y-58228179D01*
X170700200Y-58228179D01*
X170690445Y-58227218D01*
X170681066Y-58224373D01*
X170672421Y-58219752D01*
X170664845Y-58213534D01*
X170658627Y-58205958D01*
X170654006Y-58197313D01*
X170651161Y-58187934D01*
X170650200Y-58178179D01*
X170650200Y-57771779D01*
X170651161Y-57762024D01*
X170654006Y-57752645D01*
X170658627Y-57744000D01*
X170664845Y-57736424D01*
X170672421Y-57730206D01*
X170681066Y-57725585D01*
X170690445Y-57722740D01*
X170700200Y-57721779D01*
X171209000Y-57721779D01*
X171209000Y-57578193D01*
X170700200Y-57578193D01*
X170690445Y-57577232D01*
X170681066Y-57574387D01*
X170672421Y-57569766D01*
X170664845Y-57563548D01*
X170658627Y-57555972D01*
X170654006Y-57547327D01*
X170651161Y-57537948D01*
X170650200Y-57528193D01*
X170650200Y-57121793D01*
X170651161Y-57112038D01*
X170654006Y-57102659D01*
X170658627Y-57094014D01*
X170664845Y-57086438D01*
X170672421Y-57080220D01*
X170681066Y-57075599D01*
X170690445Y-57072754D01*
X170700200Y-57071793D01*
X171259000Y-57071793D01*
X171268755Y-57072754D01*
G37*
G36*
X172995962Y-55251460D02*
G01*
X173005341Y-55254305D01*
X173013986Y-55258926D01*
X173021562Y-55265144D01*
X173027780Y-55272720D01*
X173032401Y-55281365D01*
X173035246Y-55290744D01*
X173036207Y-55300499D01*
X173036207Y-56825500D01*
X173035246Y-56835255D01*
X173032401Y-56844634D01*
X173027780Y-56853279D01*
X173021562Y-56860855D01*
X173013986Y-56867073D01*
X173005341Y-56871694D01*
X172995962Y-56874539D01*
X172986207Y-56875500D01*
X171309000Y-56875500D01*
X171309000Y-56878214D01*
X171308038Y-56887968D01*
X171305191Y-56897347D01*
X171300570Y-56905991D01*
X171294351Y-56913567D01*
X171286773Y-56919784D01*
X171278128Y-56924404D01*
X171268748Y-56927248D01*
X171259000Y-56928207D01*
X170700200Y-56928207D01*
X170690445Y-56927246D01*
X170681066Y-56924401D01*
X170672421Y-56919780D01*
X170664845Y-56913562D01*
X170658627Y-56905986D01*
X170654006Y-56897341D01*
X170651161Y-56887962D01*
X170650200Y-56878207D01*
X170650200Y-56471807D01*
X170651161Y-56462052D01*
X170654006Y-56452673D01*
X170658627Y-56444028D01*
X170664845Y-56436452D01*
X170672421Y-56430234D01*
X170681066Y-56425613D01*
X170690445Y-56422768D01*
X170700200Y-56421807D01*
X171209000Y-56421807D01*
X171209000Y-56278221D01*
X170700200Y-56278221D01*
X170690445Y-56277260D01*
X170681066Y-56274415D01*
X170672421Y-56269794D01*
X170664845Y-56263576D01*
X170658627Y-56256000D01*
X170654006Y-56247355D01*
X170651161Y-56237976D01*
X170650200Y-56228221D01*
X170650200Y-55821821D01*
X170651161Y-55812066D01*
X170654006Y-55802687D01*
X170658627Y-55794042D01*
X170664845Y-55786466D01*
X170672421Y-55780248D01*
X170681066Y-55775627D01*
X170690445Y-55772782D01*
X170700200Y-55771821D01*
X171259000Y-55771821D01*
X171268755Y-55772782D01*
X171278134Y-55775627D01*
X171286779Y-55780248D01*
X171294355Y-55786466D01*
X171300573Y-55794042D01*
X171305194Y-55802687D01*
X171308039Y-55812066D01*
X171309000Y-55821815D01*
X171309001Y-55830500D01*
X172596202Y-55830508D01*
X172596202Y-55300499D01*
X172597163Y-55290744D01*
X172600008Y-55281365D01*
X172604629Y-55272720D01*
X172610847Y-55265144D01*
X172618423Y-55258926D01*
X172627068Y-55254305D01*
X172636447Y-55251460D01*
X172646202Y-55250499D01*
X172986207Y-55250499D01*
X172995962Y-55251460D01*
G37*
D43*
X173845800Y-56025021D03*
X173845800Y-56675007D03*
X173845800Y-57324993D03*
X173845800Y-57974979D03*
D44*
X170979600Y-57974979D03*
X170979600Y-56025021D03*
%TD*%
D38*
%TO.C,D37*%
X164650000Y-51500000D03*
X164650000Y-53000000D03*
%TD*%
%TO.C,D36*%
X164650000Y-54400000D03*
X164650000Y-55900000D03*
%TD*%
%TO.C,C158*%
G36*
G01*
X165790000Y-57872500D02*
X165790000Y-57527500D01*
G75*
G02*
X165937500Y-57380000I147500J0D01*
G01*
X166232500Y-57380000D01*
G75*
G02*
X166380000Y-57527500I0J-147500D01*
G01*
X166380000Y-57872500D01*
G75*
G02*
X166232500Y-58020000I-147500J0D01*
G01*
X165937500Y-58020000D01*
G75*
G02*
X165790000Y-57872500I0J147500D01*
G01*
G37*
G36*
G01*
X164820000Y-57872500D02*
X164820000Y-57527500D01*
G75*
G02*
X164967500Y-57380000I147500J0D01*
G01*
X165262500Y-57380000D01*
G75*
G02*
X165410000Y-57527500I0J-147500D01*
G01*
X165410000Y-57872500D01*
G75*
G02*
X165262500Y-58020000I-147500J0D01*
G01*
X164967500Y-58020000D01*
G75*
G02*
X164820000Y-57872500I0J147500D01*
G01*
G37*
%TD*%
D39*
%TO.C,C153*%
X164800000Y-60600000D03*
X166900000Y-60600000D03*
%TD*%
%TO.C,U12*%
G36*
G01*
X154938200Y-56910000D02*
X155161800Y-56910000D01*
G75*
G02*
X155180000Y-56928200I0J-18200D01*
G01*
X155180000Y-57731800D01*
G75*
G02*
X155161800Y-57750000I-18200J0D01*
G01*
X154938200Y-57750000D01*
G75*
G02*
X154920000Y-57731800I0J18200D01*
G01*
X154920000Y-56928200D01*
G75*
G02*
X154938200Y-56910000I18200J0D01*
G01*
G37*
G36*
G01*
X154438200Y-56910000D02*
X154661800Y-56910000D01*
G75*
G02*
X154680000Y-56928200I0J-18200D01*
G01*
X154680000Y-57731800D01*
G75*
G02*
X154661800Y-57750000I-18200J0D01*
G01*
X154438200Y-57750000D01*
G75*
G02*
X154420000Y-57731800I0J18200D01*
G01*
X154420000Y-56928200D01*
G75*
G02*
X154438200Y-56910000I18200J0D01*
G01*
G37*
G36*
G01*
X153938200Y-56910000D02*
X154161800Y-56910000D01*
G75*
G02*
X154180000Y-56928200I0J-18200D01*
G01*
X154180000Y-57731800D01*
G75*
G02*
X154161800Y-57750000I-18200J0D01*
G01*
X153938200Y-57750000D01*
G75*
G02*
X153920000Y-57731800I0J18200D01*
G01*
X153920000Y-56928200D01*
G75*
G02*
X153938200Y-56910000I18200J0D01*
G01*
G37*
G36*
G01*
X153438200Y-56910000D02*
X153661800Y-56910000D01*
G75*
G02*
X153680000Y-56928200I0J-18200D01*
G01*
X153680000Y-57731800D01*
G75*
G02*
X153661800Y-57750000I-18200J0D01*
G01*
X153438200Y-57750000D01*
G75*
G02*
X153420000Y-57731800I0J18200D01*
G01*
X153420000Y-56928200D01*
G75*
G02*
X153438200Y-56910000I18200J0D01*
G01*
G37*
G36*
G01*
X152938200Y-56910000D02*
X153161800Y-56910000D01*
G75*
G02*
X153180000Y-56928200I0J-18200D01*
G01*
X153180000Y-57731800D01*
G75*
G02*
X153161800Y-57750000I-18200J0D01*
G01*
X152938200Y-57750000D01*
G75*
G02*
X152920000Y-57731800I0J18200D01*
G01*
X152920000Y-56928200D01*
G75*
G02*
X152938200Y-56910000I18200J0D01*
G01*
G37*
G36*
G01*
X152438200Y-56910000D02*
X152661800Y-56910000D01*
G75*
G02*
X152680000Y-56928200I0J-18200D01*
G01*
X152680000Y-57731800D01*
G75*
G02*
X152661800Y-57750000I-18200J0D01*
G01*
X152438200Y-57750000D01*
G75*
G02*
X152420000Y-57731800I0J18200D01*
G01*
X152420000Y-56928200D01*
G75*
G02*
X152438200Y-56910000I18200J0D01*
G01*
G37*
G36*
G01*
X152438200Y-53050000D02*
X152661800Y-53050000D01*
G75*
G02*
X152680000Y-53068200I0J-18200D01*
G01*
X152680000Y-53871800D01*
G75*
G02*
X152661800Y-53890000I-18200J0D01*
G01*
X152438200Y-53890000D01*
G75*
G02*
X152420000Y-53871800I0J18200D01*
G01*
X152420000Y-53068200D01*
G75*
G02*
X152438200Y-53050000I18200J0D01*
G01*
G37*
G36*
G01*
X152938200Y-53050000D02*
X153161800Y-53050000D01*
G75*
G02*
X153180000Y-53068200I0J-18200D01*
G01*
X153180000Y-53871800D01*
G75*
G02*
X153161800Y-53890000I-18200J0D01*
G01*
X152938200Y-53890000D01*
G75*
G02*
X152920000Y-53871800I0J18200D01*
G01*
X152920000Y-53068200D01*
G75*
G02*
X152938200Y-53050000I18200J0D01*
G01*
G37*
G36*
G01*
X153438200Y-53050000D02*
X153661800Y-53050000D01*
G75*
G02*
X153680000Y-53068200I0J-18200D01*
G01*
X153680000Y-53871800D01*
G75*
G02*
X153661800Y-53890000I-18200J0D01*
G01*
X153438200Y-53890000D01*
G75*
G02*
X153420000Y-53871800I0J18200D01*
G01*
X153420000Y-53068200D01*
G75*
G02*
X153438200Y-53050000I18200J0D01*
G01*
G37*
G36*
G01*
X153938200Y-53050000D02*
X154161800Y-53050000D01*
G75*
G02*
X154180000Y-53068200I0J-18200D01*
G01*
X154180000Y-53871800D01*
G75*
G02*
X154161800Y-53890000I-18200J0D01*
G01*
X153938200Y-53890000D01*
G75*
G02*
X153920000Y-53871800I0J18200D01*
G01*
X153920000Y-53068200D01*
G75*
G02*
X153938200Y-53050000I18200J0D01*
G01*
G37*
G36*
G01*
X154438200Y-53050000D02*
X154661800Y-53050000D01*
G75*
G02*
X154680000Y-53068200I0J-18200D01*
G01*
X154680000Y-53871800D01*
G75*
G02*
X154661800Y-53890000I-18200J0D01*
G01*
X154438200Y-53890000D01*
G75*
G02*
X154420000Y-53871800I0J18200D01*
G01*
X154420000Y-53068200D01*
G75*
G02*
X154438200Y-53050000I18200J0D01*
G01*
G37*
G36*
G01*
X154938200Y-53050000D02*
X155161800Y-53050000D01*
G75*
G02*
X155180000Y-53068200I0J-18200D01*
G01*
X155180000Y-53871800D01*
G75*
G02*
X155161800Y-53890000I-18200J0D01*
G01*
X154938200Y-53890000D01*
G75*
G02*
X154920000Y-53871800I0J18200D01*
G01*
X154920000Y-53068200D01*
G75*
G02*
X154938200Y-53050000I18200J0D01*
G01*
G37*
G36*
G01*
X155328200Y-54020000D02*
X156131800Y-54020000D01*
G75*
G02*
X156150000Y-54038200I0J-18200D01*
G01*
X156150000Y-54261800D01*
G75*
G02*
X156131800Y-54280000I-18200J0D01*
G01*
X155328200Y-54280000D01*
G75*
G02*
X155310000Y-54261800I0J18200D01*
G01*
X155310000Y-54038200D01*
G75*
G02*
X155328200Y-54020000I18200J0D01*
G01*
G37*
G36*
G01*
X155328200Y-54520000D02*
X156131800Y-54520000D01*
G75*
G02*
X156150000Y-54538200I0J-18200D01*
G01*
X156150000Y-54761800D01*
G75*
G02*
X156131800Y-54780000I-18200J0D01*
G01*
X155328200Y-54780000D01*
G75*
G02*
X155310000Y-54761800I0J18200D01*
G01*
X155310000Y-54538200D01*
G75*
G02*
X155328200Y-54520000I18200J0D01*
G01*
G37*
G36*
G01*
X155328200Y-55020000D02*
X156131800Y-55020000D01*
G75*
G02*
X156150000Y-55038200I0J-18200D01*
G01*
X156150000Y-55261800D01*
G75*
G02*
X156131800Y-55280000I-18200J0D01*
G01*
X155328200Y-55280000D01*
G75*
G02*
X155310000Y-55261800I0J18200D01*
G01*
X155310000Y-55038200D01*
G75*
G02*
X155328200Y-55020000I18200J0D01*
G01*
G37*
G36*
G01*
X155328200Y-55520000D02*
X156131800Y-55520000D01*
G75*
G02*
X156150000Y-55538200I0J-18200D01*
G01*
X156150000Y-55761800D01*
G75*
G02*
X156131800Y-55780000I-18200J0D01*
G01*
X155328200Y-55780000D01*
G75*
G02*
X155310000Y-55761800I0J18200D01*
G01*
X155310000Y-55538200D01*
G75*
G02*
X155328200Y-55520000I18200J0D01*
G01*
G37*
G36*
G01*
X155328200Y-56020000D02*
X156131800Y-56020000D01*
G75*
G02*
X156150000Y-56038200I0J-18200D01*
G01*
X156150000Y-56261800D01*
G75*
G02*
X156131800Y-56280000I-18200J0D01*
G01*
X155328200Y-56280000D01*
G75*
G02*
X155310000Y-56261800I0J18200D01*
G01*
X155310000Y-56038200D01*
G75*
G02*
X155328200Y-56020000I18200J0D01*
G01*
G37*
G36*
G01*
X155328200Y-56520000D02*
X156131800Y-56520000D01*
G75*
G02*
X156150000Y-56538200I0J-18200D01*
G01*
X156150000Y-56761800D01*
G75*
G02*
X156131800Y-56780000I-18200J0D01*
G01*
X155328200Y-56780000D01*
G75*
G02*
X155310000Y-56761800I0J18200D01*
G01*
X155310000Y-56538200D01*
G75*
G02*
X155328200Y-56520000I18200J0D01*
G01*
G37*
G36*
G01*
X151468200Y-56520000D02*
X152271800Y-56520000D01*
G75*
G02*
X152290000Y-56538200I0J-18200D01*
G01*
X152290000Y-56761800D01*
G75*
G02*
X152271800Y-56780000I-18200J0D01*
G01*
X151468200Y-56780000D01*
G75*
G02*
X151450000Y-56761800I0J18200D01*
G01*
X151450000Y-56538200D01*
G75*
G02*
X151468200Y-56520000I18200J0D01*
G01*
G37*
G36*
G01*
X151468200Y-56020000D02*
X152271800Y-56020000D01*
G75*
G02*
X152290000Y-56038200I0J-18200D01*
G01*
X152290000Y-56261800D01*
G75*
G02*
X152271800Y-56280000I-18200J0D01*
G01*
X151468200Y-56280000D01*
G75*
G02*
X151450000Y-56261800I0J18200D01*
G01*
X151450000Y-56038200D01*
G75*
G02*
X151468200Y-56020000I18200J0D01*
G01*
G37*
G36*
G01*
X151468200Y-55520000D02*
X152271800Y-55520000D01*
G75*
G02*
X152290000Y-55538200I0J-18200D01*
G01*
X152290000Y-55761800D01*
G75*
G02*
X152271800Y-55780000I-18200J0D01*
G01*
X151468200Y-55780000D01*
G75*
G02*
X151450000Y-55761800I0J18200D01*
G01*
X151450000Y-55538200D01*
G75*
G02*
X151468200Y-55520000I18200J0D01*
G01*
G37*
G36*
G01*
X151468200Y-55020000D02*
X152271800Y-55020000D01*
G75*
G02*
X152290000Y-55038200I0J-18200D01*
G01*
X152290000Y-55261800D01*
G75*
G02*
X152271800Y-55280000I-18200J0D01*
G01*
X151468200Y-55280000D01*
G75*
G02*
X151450000Y-55261800I0J18200D01*
G01*
X151450000Y-55038200D01*
G75*
G02*
X151468200Y-55020000I18200J0D01*
G01*
G37*
G36*
G01*
X151468200Y-54520000D02*
X152271800Y-54520000D01*
G75*
G02*
X152290000Y-54538200I0J-18200D01*
G01*
X152290000Y-54761800D01*
G75*
G02*
X152271800Y-54780000I-18200J0D01*
G01*
X151468200Y-54780000D01*
G75*
G02*
X151450000Y-54761800I0J18200D01*
G01*
X151450000Y-54538200D01*
G75*
G02*
X151468200Y-54520000I18200J0D01*
G01*
G37*
G36*
G01*
X151468200Y-54020000D02*
X152271800Y-54020000D01*
G75*
G02*
X152290000Y-54038200I0J-18200D01*
G01*
X152290000Y-54261800D01*
G75*
G02*
X152271800Y-54280000I-18200J0D01*
G01*
X151468200Y-54280000D01*
G75*
G02*
X151450000Y-54261800I0J18200D01*
G01*
X151450000Y-54038200D01*
G75*
G02*
X151468200Y-54020000I18200J0D01*
G01*
G37*
%TD*%
D45*
%TO.C,D34*%
X162950000Y-56000000D03*
X160850000Y-53000000D03*
X161900000Y-56000000D03*
X161900000Y-53000000D03*
X160850000Y-56000000D03*
X162950000Y-53000000D03*
%TD*%
%TO.C,R145*%
G36*
G01*
X151510000Y-59377500D02*
X151510000Y-59722500D01*
G75*
G02*
X151362500Y-59870000I-147500J0D01*
G01*
X151067500Y-59870000D01*
G75*
G02*
X150920000Y-59722500I0J147500D01*
G01*
X150920000Y-59377500D01*
G75*
G02*
X151067500Y-59230000I147500J0D01*
G01*
X151362500Y-59230000D01*
G75*
G02*
X151510000Y-59377500I0J-147500D01*
G01*
G37*
G36*
G01*
X152480000Y-59377500D02*
X152480000Y-59722500D01*
G75*
G02*
X152332500Y-59870000I-147500J0D01*
G01*
X152037500Y-59870000D01*
G75*
G02*
X151890000Y-59722500I0J147500D01*
G01*
X151890000Y-59377500D01*
G75*
G02*
X152037500Y-59230000I147500J0D01*
G01*
X152332500Y-59230000D01*
G75*
G02*
X152480000Y-59377500I0J-147500D01*
G01*
G37*
%TD*%
%TO.C,R144*%
G36*
G01*
X149910000Y-55927500D02*
X149910000Y-56272500D01*
G75*
G02*
X149762500Y-56420000I-147500J0D01*
G01*
X149467500Y-56420000D01*
G75*
G02*
X149320000Y-56272500I0J147500D01*
G01*
X149320000Y-55927500D01*
G75*
G02*
X149467500Y-55780000I147500J0D01*
G01*
X149762500Y-55780000D01*
G75*
G02*
X149910000Y-55927500I0J-147500D01*
G01*
G37*
G36*
G01*
X150880000Y-55927500D02*
X150880000Y-56272500D01*
G75*
G02*
X150732500Y-56420000I-147500J0D01*
G01*
X150437500Y-56420000D01*
G75*
G02*
X150290000Y-56272500I0J147500D01*
G01*
X150290000Y-55927500D01*
G75*
G02*
X150437500Y-55780000I147500J0D01*
G01*
X150732500Y-55780000D01*
G75*
G02*
X150880000Y-55927500I0J-147500D01*
G01*
G37*
%TD*%
%TO.C,R143*%
G36*
G01*
X151890000Y-58722500D02*
X151890000Y-58377500D01*
G75*
G02*
X152037500Y-58230000I147500J0D01*
G01*
X152332500Y-58230000D01*
G75*
G02*
X152480000Y-58377500I0J-147500D01*
G01*
X152480000Y-58722500D01*
G75*
G02*
X152332500Y-58870000I-147500J0D01*
G01*
X152037500Y-58870000D01*
G75*
G02*
X151890000Y-58722500I0J147500D01*
G01*
G37*
G36*
G01*
X150920000Y-58722500D02*
X150920000Y-58377500D01*
G75*
G02*
X151067500Y-58230000I147500J0D01*
G01*
X151362500Y-58230000D01*
G75*
G02*
X151510000Y-58377500I0J-147500D01*
G01*
X151510000Y-58722500D01*
G75*
G02*
X151362500Y-58870000I-147500J0D01*
G01*
X151067500Y-58870000D01*
G75*
G02*
X150920000Y-58722500I0J147500D01*
G01*
G37*
%TD*%
%TO.C,R142*%
G36*
G01*
X150290000Y-57272500D02*
X150290000Y-56927500D01*
G75*
G02*
X150437500Y-56780000I147500J0D01*
G01*
X150732500Y-56780000D01*
G75*
G02*
X150880000Y-56927500I0J-147500D01*
G01*
X150880000Y-57272500D01*
G75*
G02*
X150732500Y-57420000I-147500J0D01*
G01*
X150437500Y-57420000D01*
G75*
G02*
X150290000Y-57272500I0J147500D01*
G01*
G37*
G36*
G01*
X149320000Y-57272500D02*
X149320000Y-56927500D01*
G75*
G02*
X149467500Y-56780000I147500J0D01*
G01*
X149762500Y-56780000D01*
G75*
G02*
X149910000Y-56927500I0J-147500D01*
G01*
X149910000Y-57272500D01*
G75*
G02*
X149762500Y-57420000I-147500J0D01*
G01*
X149467500Y-57420000D01*
G75*
G02*
X149320000Y-57272500I0J147500D01*
G01*
G37*
%TD*%
%TO.C,C146*%
G36*
G01*
X157690000Y-51672500D02*
X157690000Y-51327500D01*
G75*
G02*
X157837500Y-51180000I147500J0D01*
G01*
X158132500Y-51180000D01*
G75*
G02*
X158280000Y-51327500I0J-147500D01*
G01*
X158280000Y-51672500D01*
G75*
G02*
X158132500Y-51820000I-147500J0D01*
G01*
X157837500Y-51820000D01*
G75*
G02*
X157690000Y-51672500I0J147500D01*
G01*
G37*
G36*
G01*
X156720000Y-51672500D02*
X156720000Y-51327500D01*
G75*
G02*
X156867500Y-51180000I147500J0D01*
G01*
X157162500Y-51180000D01*
G75*
G02*
X157310000Y-51327500I0J-147500D01*
G01*
X157310000Y-51672500D01*
G75*
G02*
X157162500Y-51820000I-147500J0D01*
G01*
X156867500Y-51820000D01*
G75*
G02*
X156720000Y-51672500I0J147500D01*
G01*
G37*
%TD*%
%TO.C,C145*%
G36*
G01*
X157927500Y-53190000D02*
X158272500Y-53190000D01*
G75*
G02*
X158420000Y-53337500I0J-147500D01*
G01*
X158420000Y-53632500D01*
G75*
G02*
X158272500Y-53780000I-147500J0D01*
G01*
X157927500Y-53780000D01*
G75*
G02*
X157780000Y-53632500I0J147500D01*
G01*
X157780000Y-53337500D01*
G75*
G02*
X157927500Y-53190000I147500J0D01*
G01*
G37*
G36*
G01*
X157927500Y-52220000D02*
X158272500Y-52220000D01*
G75*
G02*
X158420000Y-52367500I0J-147500D01*
G01*
X158420000Y-52662500D01*
G75*
G02*
X158272500Y-52810000I-147500J0D01*
G01*
X157927500Y-52810000D01*
G75*
G02*
X157780000Y-52662500I0J147500D01*
G01*
X157780000Y-52367500D01*
G75*
G02*
X157927500Y-52220000I147500J0D01*
G01*
G37*
%TD*%
%TO.C,C144*%
G36*
G01*
X157172500Y-52810000D02*
X156827500Y-52810000D01*
G75*
G02*
X156680000Y-52662500I0J147500D01*
G01*
X156680000Y-52367500D01*
G75*
G02*
X156827500Y-52220000I147500J0D01*
G01*
X157172500Y-52220000D01*
G75*
G02*
X157320000Y-52367500I0J-147500D01*
G01*
X157320000Y-52662500D01*
G75*
G02*
X157172500Y-52810000I-147500J0D01*
G01*
G37*
G36*
G01*
X157172500Y-53780000D02*
X156827500Y-53780000D01*
G75*
G02*
X156680000Y-53632500I0J147500D01*
G01*
X156680000Y-53337500D01*
G75*
G02*
X156827500Y-53190000I147500J0D01*
G01*
X157172500Y-53190000D01*
G75*
G02*
X157320000Y-53337500I0J-147500D01*
G01*
X157320000Y-53632500D01*
G75*
G02*
X157172500Y-53780000I-147500J0D01*
G01*
G37*
%TD*%
D46*
%TO.C,J6*%
X80150000Y-50080000D03*
X82650000Y-50080000D03*
D47*
X78650000Y-49100000D03*
X79150000Y-49100000D03*
X79650000Y-49100000D03*
X80150000Y-49100000D03*
X80650000Y-49100000D03*
X81150000Y-49100000D03*
X81650000Y-49100000D03*
X82150000Y-49100000D03*
X82650000Y-49100000D03*
X83150000Y-49100000D03*
X83650000Y-49100000D03*
X84150000Y-49100000D03*
%TD*%
D46*
%TO.C,J12*%
X156650000Y-50080000D03*
X159150000Y-50080000D03*
D47*
X155150000Y-49100000D03*
X155650000Y-49100000D03*
X156150000Y-49100000D03*
X156650000Y-49100000D03*
X157150000Y-49100000D03*
X157650000Y-49100000D03*
X158150000Y-49100000D03*
X158650000Y-49100000D03*
X159150000Y-49100000D03*
X159650000Y-49100000D03*
X160150000Y-49100000D03*
X160650000Y-49100000D03*
%TD*%
D46*
%TO.C,J9*%
X143150000Y-50080000D03*
X145650000Y-50080000D03*
D47*
X141650000Y-49100000D03*
X142150000Y-49100000D03*
X142650000Y-49100000D03*
X143150000Y-49100000D03*
X143650000Y-49100000D03*
X144150000Y-49100000D03*
X144650000Y-49100000D03*
X145150000Y-49100000D03*
X145650000Y-49100000D03*
X146150000Y-49100000D03*
X146650000Y-49100000D03*
X147150000Y-49100000D03*
%TD*%
D46*
%TO.C,J11*%
X93650000Y-50080000D03*
X96150000Y-50080000D03*
D47*
X92150000Y-49100000D03*
X92650000Y-49100000D03*
X93150000Y-49100000D03*
X93650000Y-49100000D03*
X94150000Y-49100000D03*
X94650000Y-49100000D03*
X95150000Y-49100000D03*
X95650000Y-49100000D03*
X96150000Y-49100000D03*
X96650000Y-49100000D03*
X97150000Y-49100000D03*
X97650000Y-49100000D03*
%TD*%
D46*
%TO.C,J10*%
X107150000Y-50080000D03*
X109650000Y-50080000D03*
D47*
X105650000Y-49100000D03*
X106150000Y-49100000D03*
X106650000Y-49100000D03*
X107150000Y-49100000D03*
X107650000Y-49100000D03*
X108150000Y-49100000D03*
X108650000Y-49100000D03*
X109150000Y-49100000D03*
X109650000Y-49100000D03*
X110150000Y-49100000D03*
X110650000Y-49100000D03*
X111150000Y-49100000D03*
%TD*%
D48*
%TO.C,D6*%
X135180000Y-50987500D03*
X134180000Y-50987500D03*
X134680000Y-50987500D03*
X133680000Y-50987500D03*
X135680000Y-50987500D03*
X133680000Y-50212500D03*
X134180000Y-50212500D03*
X134680000Y-50212500D03*
X135180000Y-50212500D03*
X135680000Y-50212500D03*
%TD*%
%TO.C,D29*%
X130450000Y-50887500D03*
X129450000Y-50887500D03*
X129950000Y-50887500D03*
X128950000Y-50887500D03*
X130950000Y-50887500D03*
X128950000Y-50112500D03*
X129450000Y-50112500D03*
X129950000Y-50112500D03*
X130450000Y-50112500D03*
X130950000Y-50112500D03*
%TD*%
%TO.C,D21*%
X144650000Y-52062500D03*
X145650000Y-52062500D03*
X145150000Y-52062500D03*
X146150000Y-52062500D03*
X144150000Y-52062500D03*
X146150000Y-52837500D03*
X145650000Y-52837500D03*
X145150000Y-52837500D03*
X144650000Y-52837500D03*
X144150000Y-52837500D03*
%TD*%
D49*
%TO.C,D9*%
X144825000Y-66250000D03*
X147975000Y-66250000D03*
%TD*%
D48*
%TO.C,D32*%
X92650000Y-52962500D03*
X93650000Y-52962500D03*
X93150000Y-52962500D03*
X94150000Y-52962500D03*
X92150000Y-52962500D03*
X94150000Y-53737500D03*
X93650000Y-53737500D03*
X93150000Y-53737500D03*
X92650000Y-53737500D03*
X92150000Y-53737500D03*
%TD*%
%TO.C,D31*%
X96200000Y-53162500D03*
X97200000Y-53162500D03*
X96700000Y-53162500D03*
X97700000Y-53162500D03*
X95700000Y-53162500D03*
X97700000Y-53937500D03*
X97200000Y-53937500D03*
X96700000Y-53937500D03*
X96200000Y-53937500D03*
X95700000Y-53937500D03*
%TD*%
%TO.C,D28*%
X111150000Y-53612500D03*
X112150000Y-53612500D03*
X111650000Y-53612500D03*
X112650000Y-53612500D03*
X110650000Y-53612500D03*
X112650000Y-54387500D03*
X112150000Y-54387500D03*
X111650000Y-54387500D03*
X111150000Y-54387500D03*
X110650000Y-54387500D03*
%TD*%
%TO.C,D27*%
X106950000Y-51362500D03*
X107950000Y-51362500D03*
X107450000Y-51362500D03*
X108450000Y-51362500D03*
X106450000Y-51362500D03*
X108450000Y-52137500D03*
X107950000Y-52137500D03*
X107450000Y-52137500D03*
X106950000Y-52137500D03*
X106450000Y-52137500D03*
%TD*%
D50*
%TO.C,J14*%
X119400000Y-46800000D03*
D51*
X120800000Y-48200000D03*
X118000000Y-48200000D03*
X118000000Y-45400000D03*
X120800000Y-45400000D03*
%TD*%
D52*
%TO.C,C172*%
X92000000Y-104300000D03*
X92000000Y-107900000D03*
%TD*%
%TO.C,C171*%
X94400000Y-104300000D03*
X94400000Y-107900000D03*
%TD*%
D53*
%TO.C,S4*%
X146800000Y-120950000D03*
X146800000Y-116850000D03*
X145200000Y-116850000D03*
X145200000Y-120950000D03*
%TD*%
%TO.C,R162*%
G36*
G01*
X143227500Y-118090000D02*
X143572500Y-118090000D01*
G75*
G02*
X143720000Y-118237500I0J-147500D01*
G01*
X143720000Y-118532500D01*
G75*
G02*
X143572500Y-118680000I-147500J0D01*
G01*
X143227500Y-118680000D01*
G75*
G02*
X143080000Y-118532500I0J147500D01*
G01*
X143080000Y-118237500D01*
G75*
G02*
X143227500Y-118090000I147500J0D01*
G01*
G37*
G36*
G01*
X143227500Y-117120000D02*
X143572500Y-117120000D01*
G75*
G02*
X143720000Y-117267500I0J-147500D01*
G01*
X143720000Y-117562500D01*
G75*
G02*
X143572500Y-117710000I-147500J0D01*
G01*
X143227500Y-117710000D01*
G75*
G02*
X143080000Y-117562500I0J147500D01*
G01*
X143080000Y-117267500D01*
G75*
G02*
X143227500Y-117120000I147500J0D01*
G01*
G37*
%TD*%
%TO.C,D33*%
G36*
G01*
X143125000Y-120450000D02*
X143675000Y-120450000D01*
G75*
G02*
X143750000Y-120525000I0J-75000D01*
G01*
X143750000Y-120675000D01*
G75*
G02*
X143675000Y-120750000I-75000J0D01*
G01*
X143125000Y-120750000D01*
G75*
G02*
X143050000Y-120675000I0J75000D01*
G01*
X143050000Y-120525000D01*
G75*
G02*
X143125000Y-120450000I75000J0D01*
G01*
G37*
G36*
G01*
X143124900Y-119250000D02*
X143675100Y-119250000D01*
G75*
G02*
X143750000Y-119324900I0J-74900D01*
G01*
X143750000Y-120105100D01*
G75*
G02*
X143675100Y-120180000I-74900J0D01*
G01*
X143124900Y-120180000D01*
G75*
G02*
X143050000Y-120105100I0J74900D01*
G01*
X143050000Y-119324900D01*
G75*
G02*
X143124900Y-119250000I74900J0D01*
G01*
G37*
%TD*%
D54*
%TO.C,U2*%
X168850000Y-104850000D03*
X171450000Y-104850000D03*
X168850000Y-103900000D03*
X168850000Y-102950000D03*
X171450000Y-103900000D03*
X171450000Y-102950000D03*
%TD*%
%TO.C,R137*%
G36*
G01*
X97222500Y-57960000D02*
X96877500Y-57960000D01*
G75*
G02*
X96730000Y-57812500I0J147500D01*
G01*
X96730000Y-57517500D01*
G75*
G02*
X96877500Y-57370000I147500J0D01*
G01*
X97222500Y-57370000D01*
G75*
G02*
X97370000Y-57517500I0J-147500D01*
G01*
X97370000Y-57812500D01*
G75*
G02*
X97222500Y-57960000I-147500J0D01*
G01*
G37*
G36*
G01*
X97222500Y-58930000D02*
X96877500Y-58930000D01*
G75*
G02*
X96730000Y-58782500I0J147500D01*
G01*
X96730000Y-58487500D01*
G75*
G02*
X96877500Y-58340000I147500J0D01*
G01*
X97222500Y-58340000D01*
G75*
G02*
X97370000Y-58487500I0J-147500D01*
G01*
X97370000Y-58782500D01*
G75*
G02*
X97222500Y-58930000I-147500J0D01*
G01*
G37*
%TD*%
%TO.C,R136*%
G36*
G01*
X98222500Y-57960000D02*
X97877500Y-57960000D01*
G75*
G02*
X97730000Y-57812500I0J147500D01*
G01*
X97730000Y-57517500D01*
G75*
G02*
X97877500Y-57370000I147500J0D01*
G01*
X98222500Y-57370000D01*
G75*
G02*
X98370000Y-57517500I0J-147500D01*
G01*
X98370000Y-57812500D01*
G75*
G02*
X98222500Y-57960000I-147500J0D01*
G01*
G37*
G36*
G01*
X98222500Y-58930000D02*
X97877500Y-58930000D01*
G75*
G02*
X97730000Y-58782500I0J147500D01*
G01*
X97730000Y-58487500D01*
G75*
G02*
X97877500Y-58340000I147500J0D01*
G01*
X98222500Y-58340000D01*
G75*
G02*
X98370000Y-58487500I0J-147500D01*
G01*
X98370000Y-58782500D01*
G75*
G02*
X98222500Y-58930000I-147500J0D01*
G01*
G37*
%TD*%
%TO.C,R133*%
G36*
G01*
X109290000Y-55422500D02*
X109290000Y-55077500D01*
G75*
G02*
X109437500Y-54930000I147500J0D01*
G01*
X109732500Y-54930000D01*
G75*
G02*
X109880000Y-55077500I0J-147500D01*
G01*
X109880000Y-55422500D01*
G75*
G02*
X109732500Y-55570000I-147500J0D01*
G01*
X109437500Y-55570000D01*
G75*
G02*
X109290000Y-55422500I0J147500D01*
G01*
G37*
G36*
G01*
X108320000Y-55422500D02*
X108320000Y-55077500D01*
G75*
G02*
X108467500Y-54930000I147500J0D01*
G01*
X108762500Y-54930000D01*
G75*
G02*
X108910000Y-55077500I0J-147500D01*
G01*
X108910000Y-55422500D01*
G75*
G02*
X108762500Y-55570000I-147500J0D01*
G01*
X108467500Y-55570000D01*
G75*
G02*
X108320000Y-55422500I0J147500D01*
G01*
G37*
%TD*%
%TO.C,R130*%
G36*
G01*
X109290000Y-56422500D02*
X109290000Y-56077500D01*
G75*
G02*
X109437500Y-55930000I147500J0D01*
G01*
X109732500Y-55930000D01*
G75*
G02*
X109880000Y-56077500I0J-147500D01*
G01*
X109880000Y-56422500D01*
G75*
G02*
X109732500Y-56570000I-147500J0D01*
G01*
X109437500Y-56570000D01*
G75*
G02*
X109290000Y-56422500I0J147500D01*
G01*
G37*
G36*
G01*
X108320000Y-56422500D02*
X108320000Y-56077500D01*
G75*
G02*
X108467500Y-55930000I147500J0D01*
G01*
X108762500Y-55930000D01*
G75*
G02*
X108910000Y-56077500I0J-147500D01*
G01*
X108910000Y-56422500D01*
G75*
G02*
X108762500Y-56570000I-147500J0D01*
G01*
X108467500Y-56570000D01*
G75*
G02*
X108320000Y-56422500I0J147500D01*
G01*
G37*
%TD*%
%TO.C,R29*%
G36*
G01*
X166810000Y-103627500D02*
X166810000Y-103972500D01*
G75*
G02*
X166662500Y-104120000I-147500J0D01*
G01*
X166367500Y-104120000D01*
G75*
G02*
X166220000Y-103972500I0J147500D01*
G01*
X166220000Y-103627500D01*
G75*
G02*
X166367500Y-103480000I147500J0D01*
G01*
X166662500Y-103480000D01*
G75*
G02*
X166810000Y-103627500I0J-147500D01*
G01*
G37*
G36*
G01*
X167780000Y-103627500D02*
X167780000Y-103972500D01*
G75*
G02*
X167632500Y-104120000I-147500J0D01*
G01*
X167337500Y-104120000D01*
G75*
G02*
X167190000Y-103972500I0J147500D01*
G01*
X167190000Y-103627500D01*
G75*
G02*
X167337500Y-103480000I147500J0D01*
G01*
X167632500Y-103480000D01*
G75*
G02*
X167780000Y-103627500I0J-147500D01*
G01*
G37*
%TD*%
%TO.C,R28*%
G36*
G01*
X167190000Y-102972500D02*
X167190000Y-102627500D01*
G75*
G02*
X167337500Y-102480000I147500J0D01*
G01*
X167632500Y-102480000D01*
G75*
G02*
X167780000Y-102627500I0J-147500D01*
G01*
X167780000Y-102972500D01*
G75*
G02*
X167632500Y-103120000I-147500J0D01*
G01*
X167337500Y-103120000D01*
G75*
G02*
X167190000Y-102972500I0J147500D01*
G01*
G37*
G36*
G01*
X166220000Y-102972500D02*
X166220000Y-102627500D01*
G75*
G02*
X166367500Y-102480000I147500J0D01*
G01*
X166662500Y-102480000D01*
G75*
G02*
X166810000Y-102627500I0J-147500D01*
G01*
X166810000Y-102972500D01*
G75*
G02*
X166662500Y-103120000I-147500J0D01*
G01*
X166367500Y-103120000D01*
G75*
G02*
X166220000Y-102972500I0J147500D01*
G01*
G37*
%TD*%
%TO.C,R18*%
G36*
G01*
X171510000Y-100027500D02*
X171510000Y-100372500D01*
G75*
G02*
X171362500Y-100520000I-147500J0D01*
G01*
X171067500Y-100520000D01*
G75*
G02*
X170920000Y-100372500I0J147500D01*
G01*
X170920000Y-100027500D01*
G75*
G02*
X171067500Y-99880000I147500J0D01*
G01*
X171362500Y-99880000D01*
G75*
G02*
X171510000Y-100027500I0J-147500D01*
G01*
G37*
G36*
G01*
X172480000Y-100027500D02*
X172480000Y-100372500D01*
G75*
G02*
X172332500Y-100520000I-147500J0D01*
G01*
X172037500Y-100520000D01*
G75*
G02*
X171890000Y-100372500I0J147500D01*
G01*
X171890000Y-100027500D01*
G75*
G02*
X172037500Y-99880000I147500J0D01*
G01*
X172332500Y-99880000D01*
G75*
G02*
X172480000Y-100027500I0J-147500D01*
G01*
G37*
%TD*%
%TO.C,R17*%
G36*
G01*
X171510000Y-101027500D02*
X171510000Y-101372500D01*
G75*
G02*
X171362500Y-101520000I-147500J0D01*
G01*
X171067500Y-101520000D01*
G75*
G02*
X170920000Y-101372500I0J147500D01*
G01*
X170920000Y-101027500D01*
G75*
G02*
X171067500Y-100880000I147500J0D01*
G01*
X171362500Y-100880000D01*
G75*
G02*
X171510000Y-101027500I0J-147500D01*
G01*
G37*
G36*
G01*
X172480000Y-101027500D02*
X172480000Y-101372500D01*
G75*
G02*
X172332500Y-101520000I-147500J0D01*
G01*
X172037500Y-101520000D01*
G75*
G02*
X171890000Y-101372500I0J147500D01*
G01*
X171890000Y-101027500D01*
G75*
G02*
X172037500Y-100880000I147500J0D01*
G01*
X172332500Y-100880000D01*
G75*
G02*
X172480000Y-101027500I0J-147500D01*
G01*
G37*
%TD*%
D55*
%TO.C,L3*%
X171385000Y-108100000D03*
X169015000Y-108100000D03*
%TD*%
D56*
%TO.C,C41*%
X173200000Y-106850000D03*
X173200000Y-105450000D03*
%TD*%
%TO.C,C39*%
X174700000Y-106850000D03*
X174700000Y-105450000D03*
%TD*%
%TO.C,C34*%
G36*
G01*
X167672500Y-105310000D02*
X167327500Y-105310000D01*
G75*
G02*
X167180000Y-105162500I0J147500D01*
G01*
X167180000Y-104867500D01*
G75*
G02*
X167327500Y-104720000I147500J0D01*
G01*
X167672500Y-104720000D01*
G75*
G02*
X167820000Y-104867500I0J-147500D01*
G01*
X167820000Y-105162500D01*
G75*
G02*
X167672500Y-105310000I-147500J0D01*
G01*
G37*
G36*
G01*
X167672500Y-106280000D02*
X167327500Y-106280000D01*
G75*
G02*
X167180000Y-106132500I0J147500D01*
G01*
X167180000Y-105837500D01*
G75*
G02*
X167327500Y-105690000I147500J0D01*
G01*
X167672500Y-105690000D01*
G75*
G02*
X167820000Y-105837500I0J-147500D01*
G01*
X167820000Y-106132500D01*
G75*
G02*
X167672500Y-106280000I-147500J0D01*
G01*
G37*
%TD*%
%TO.C,C32*%
G36*
G01*
X172627500Y-103490000D02*
X172972500Y-103490000D01*
G75*
G02*
X173120000Y-103637500I0J-147500D01*
G01*
X173120000Y-103932500D01*
G75*
G02*
X172972500Y-104080000I-147500J0D01*
G01*
X172627500Y-104080000D01*
G75*
G02*
X172480000Y-103932500I0J147500D01*
G01*
X172480000Y-103637500D01*
G75*
G02*
X172627500Y-103490000I147500J0D01*
G01*
G37*
G36*
G01*
X172627500Y-102520000D02*
X172972500Y-102520000D01*
G75*
G02*
X173120000Y-102667500I0J-147500D01*
G01*
X173120000Y-102962500D01*
G75*
G02*
X172972500Y-103110000I-147500J0D01*
G01*
X172627500Y-103110000D01*
G75*
G02*
X172480000Y-102962500I0J147500D01*
G01*
X172480000Y-102667500D01*
G75*
G02*
X172627500Y-102520000I147500J0D01*
G01*
G37*
%TD*%
D57*
%TO.C,L20*%
X83800000Y-91768000D03*
X83800000Y-92632000D03*
%TD*%
%TO.C,C150*%
G36*
G01*
X93227500Y-56890000D02*
X93572500Y-56890000D01*
G75*
G02*
X93720000Y-57037500I0J-147500D01*
G01*
X93720000Y-57332500D01*
G75*
G02*
X93572500Y-57480000I-147500J0D01*
G01*
X93227500Y-57480000D01*
G75*
G02*
X93080000Y-57332500I0J147500D01*
G01*
X93080000Y-57037500D01*
G75*
G02*
X93227500Y-56890000I147500J0D01*
G01*
G37*
G36*
G01*
X93227500Y-55920000D02*
X93572500Y-55920000D01*
G75*
G02*
X93720000Y-56067500I0J-147500D01*
G01*
X93720000Y-56362500D01*
G75*
G02*
X93572500Y-56510000I-147500J0D01*
G01*
X93227500Y-56510000D01*
G75*
G02*
X93080000Y-56362500I0J147500D01*
G01*
X93080000Y-56067500D01*
G75*
G02*
X93227500Y-55920000I147500J0D01*
G01*
G37*
%TD*%
%TO.C,C148*%
G36*
G01*
X94227500Y-56890000D02*
X94572500Y-56890000D01*
G75*
G02*
X94720000Y-57037500I0J-147500D01*
G01*
X94720000Y-57332500D01*
G75*
G02*
X94572500Y-57480000I-147500J0D01*
G01*
X94227500Y-57480000D01*
G75*
G02*
X94080000Y-57332500I0J147500D01*
G01*
X94080000Y-57037500D01*
G75*
G02*
X94227500Y-56890000I147500J0D01*
G01*
G37*
G36*
G01*
X94227500Y-55920000D02*
X94572500Y-55920000D01*
G75*
G02*
X94720000Y-56067500I0J-147500D01*
G01*
X94720000Y-56362500D01*
G75*
G02*
X94572500Y-56510000I-147500J0D01*
G01*
X94227500Y-56510000D01*
G75*
G02*
X94080000Y-56362500I0J147500D01*
G01*
X94080000Y-56067500D01*
G75*
G02*
X94227500Y-55920000I147500J0D01*
G01*
G37*
%TD*%
%TO.C,R129*%
G36*
G01*
X89527500Y-92375000D02*
X89872500Y-92375000D01*
G75*
G02*
X90020000Y-92522500I0J-147500D01*
G01*
X90020000Y-92817500D01*
G75*
G02*
X89872500Y-92965000I-147500J0D01*
G01*
X89527500Y-92965000D01*
G75*
G02*
X89380000Y-92817500I0J147500D01*
G01*
X89380000Y-92522500D01*
G75*
G02*
X89527500Y-92375000I147500J0D01*
G01*
G37*
G36*
G01*
X89527500Y-91405000D02*
X89872500Y-91405000D01*
G75*
G02*
X90020000Y-91552500I0J-147500D01*
G01*
X90020000Y-91847500D01*
G75*
G02*
X89872500Y-91995000I-147500J0D01*
G01*
X89527500Y-91995000D01*
G75*
G02*
X89380000Y-91847500I0J147500D01*
G01*
X89380000Y-91552500D01*
G75*
G02*
X89527500Y-91405000I147500J0D01*
G01*
G37*
%TD*%
%TO.C,R128*%
G36*
G01*
X91010000Y-91527500D02*
X91010000Y-91872500D01*
G75*
G02*
X90862500Y-92020000I-147500J0D01*
G01*
X90567500Y-92020000D01*
G75*
G02*
X90420000Y-91872500I0J147500D01*
G01*
X90420000Y-91527500D01*
G75*
G02*
X90567500Y-91380000I147500J0D01*
G01*
X90862500Y-91380000D01*
G75*
G02*
X91010000Y-91527500I0J-147500D01*
G01*
G37*
G36*
G01*
X91980000Y-91527500D02*
X91980000Y-91872500D01*
G75*
G02*
X91832500Y-92020000I-147500J0D01*
G01*
X91537500Y-92020000D01*
G75*
G02*
X91390000Y-91872500I0J147500D01*
G01*
X91390000Y-91527500D01*
G75*
G02*
X91537500Y-91380000I147500J0D01*
G01*
X91832500Y-91380000D01*
G75*
G02*
X91980000Y-91527500I0J-147500D01*
G01*
G37*
%TD*%
%TO.C,R127*%
G36*
G01*
X92527500Y-92390000D02*
X92872500Y-92390000D01*
G75*
G02*
X93020000Y-92537500I0J-147500D01*
G01*
X93020000Y-92832500D01*
G75*
G02*
X92872500Y-92980000I-147500J0D01*
G01*
X92527500Y-92980000D01*
G75*
G02*
X92380000Y-92832500I0J147500D01*
G01*
X92380000Y-92537500D01*
G75*
G02*
X92527500Y-92390000I147500J0D01*
G01*
G37*
G36*
G01*
X92527500Y-91420000D02*
X92872500Y-91420000D01*
G75*
G02*
X93020000Y-91567500I0J-147500D01*
G01*
X93020000Y-91862500D01*
G75*
G02*
X92872500Y-92010000I-147500J0D01*
G01*
X92527500Y-92010000D01*
G75*
G02*
X92380000Y-91862500I0J147500D01*
G01*
X92380000Y-91567500D01*
G75*
G02*
X92527500Y-91420000I147500J0D01*
G01*
G37*
%TD*%
%TO.C,R126*%
G36*
G01*
X124172500Y-66710000D02*
X123827500Y-66710000D01*
G75*
G02*
X123680000Y-66562500I0J147500D01*
G01*
X123680000Y-66267500D01*
G75*
G02*
X123827500Y-66120000I147500J0D01*
G01*
X124172500Y-66120000D01*
G75*
G02*
X124320000Y-66267500I0J-147500D01*
G01*
X124320000Y-66562500D01*
G75*
G02*
X124172500Y-66710000I-147500J0D01*
G01*
G37*
G36*
G01*
X124172500Y-67680000D02*
X123827500Y-67680000D01*
G75*
G02*
X123680000Y-67532500I0J147500D01*
G01*
X123680000Y-67237500D01*
G75*
G02*
X123827500Y-67090000I147500J0D01*
G01*
X124172500Y-67090000D01*
G75*
G02*
X124320000Y-67237500I0J-147500D01*
G01*
X124320000Y-67532500D01*
G75*
G02*
X124172500Y-67680000I-147500J0D01*
G01*
G37*
%TD*%
D58*
%TO.C,E1*%
X81250000Y-91650000D03*
D59*
X81250000Y-89720000D03*
X81250000Y-93580000D03*
D60*
X79000000Y-78540000D03*
X79000000Y-114540000D03*
%TD*%
D61*
%TO.C,J4*%
X128600000Y-48675000D03*
X129000000Y-48675000D03*
X129400000Y-48675000D03*
X129800000Y-48675000D03*
X130200000Y-48675000D03*
X130600000Y-48675000D03*
X131000000Y-48675000D03*
X131400000Y-48675000D03*
X131800000Y-48675000D03*
X132200000Y-48675000D03*
D62*
X128800000Y-47450000D03*
X129200000Y-47450000D03*
X129600000Y-47450000D03*
X130000000Y-47450000D03*
X130400000Y-47450000D03*
X130800000Y-47450000D03*
X131200000Y-47450000D03*
X131600000Y-47450000D03*
X132000000Y-47450000D03*
%TD*%
%TO.C,U15*%
G36*
G01*
X103533436Y-66897289D02*
X103679666Y-67043519D01*
G75*
G02*
X103679666Y-67052853I-4667J-4667D01*
G01*
X103095030Y-67637489D01*
G75*
G02*
X103085696Y-67637489I-4667J4667D01*
G01*
X102939466Y-67491259D01*
G75*
G02*
X102939466Y-67481925I4667J4667D01*
G01*
X103524102Y-66897289D01*
G75*
G02*
X103533436Y-66897289I4667J-4667D01*
G01*
G37*
G36*
G01*
X103250593Y-66614447D02*
X103396823Y-66760677D01*
G75*
G02*
X103396823Y-66770011I-4667J-4667D01*
G01*
X102812187Y-67354647D01*
G75*
G02*
X102802853Y-67354647I-4667J4667D01*
G01*
X102656623Y-67208417D01*
G75*
G02*
X102656623Y-67199083I4667J4667D01*
G01*
X103241259Y-66614447D01*
G75*
G02*
X103250593Y-66614447I4667J-4667D01*
G01*
G37*
G36*
G01*
X102967750Y-66331604D02*
X103113980Y-66477834D01*
G75*
G02*
X103113980Y-66487168I-4667J-4667D01*
G01*
X102529344Y-67071804D01*
G75*
G02*
X102520010Y-67071804I-4667J4667D01*
G01*
X102373780Y-66925574D01*
G75*
G02*
X102373780Y-66916240I4667J4667D01*
G01*
X102958416Y-66331604D01*
G75*
G02*
X102967750Y-66331604I4667J-4667D01*
G01*
G37*
G36*
G01*
X102684908Y-66048761D02*
X102831138Y-66194991D01*
G75*
G02*
X102831138Y-66204325I-4667J-4667D01*
G01*
X102246502Y-66788961D01*
G75*
G02*
X102237168Y-66788961I-4667J4667D01*
G01*
X102090938Y-66642731D01*
G75*
G02*
X102090938Y-66633397I4667J4667D01*
G01*
X102675574Y-66048761D01*
G75*
G02*
X102684908Y-66048761I4667J-4667D01*
G01*
G37*
G36*
G01*
X102402065Y-65765919D02*
X102548295Y-65912149D01*
G75*
G02*
X102548295Y-65921483I-4667J-4667D01*
G01*
X101963659Y-66506119D01*
G75*
G02*
X101954325Y-66506119I-4667J4667D01*
G01*
X101808095Y-66359889D01*
G75*
G02*
X101808095Y-66350555I4667J4667D01*
G01*
X102392731Y-65765919D01*
G75*
G02*
X102402065Y-65765919I4667J-4667D01*
G01*
G37*
G36*
G01*
X102119222Y-65483076D02*
X102265452Y-65629306D01*
G75*
G02*
X102265452Y-65638640I-4667J-4667D01*
G01*
X101680816Y-66223276D01*
G75*
G02*
X101671482Y-66223276I-4667J4667D01*
G01*
X101525252Y-66077046D01*
G75*
G02*
X101525252Y-66067712I4667J4667D01*
G01*
X102109888Y-65483076D01*
G75*
G02*
X102119222Y-65483076I4667J-4667D01*
G01*
G37*
G36*
G01*
X101836380Y-65200233D02*
X101982610Y-65346463D01*
G75*
G02*
X101982610Y-65355797I-4667J-4667D01*
G01*
X101397974Y-65940433D01*
G75*
G02*
X101388640Y-65940433I-4667J4667D01*
G01*
X101242410Y-65794203D01*
G75*
G02*
X101242410Y-65784869I4667J4667D01*
G01*
X101827046Y-65200233D01*
G75*
G02*
X101836380Y-65200233I4667J-4667D01*
G01*
G37*
G36*
G01*
X101553537Y-64917390D02*
X101699767Y-65063620D01*
G75*
G02*
X101699767Y-65072954I-4667J-4667D01*
G01*
X101115131Y-65657590D01*
G75*
G02*
X101105797Y-65657590I-4667J4667D01*
G01*
X100959567Y-65511360D01*
G75*
G02*
X100959567Y-65502026I4667J4667D01*
G01*
X101544203Y-64917390D01*
G75*
G02*
X101553537Y-64917390I4667J-4667D01*
G01*
G37*
G36*
G01*
X101270694Y-64634548D02*
X101416924Y-64780778D01*
G75*
G02*
X101416924Y-64790112I-4667J-4667D01*
G01*
X100832288Y-65374748D01*
G75*
G02*
X100822954Y-65374748I-4667J4667D01*
G01*
X100676724Y-65228518D01*
G75*
G02*
X100676724Y-65219184I4667J4667D01*
G01*
X101261360Y-64634548D01*
G75*
G02*
X101270694Y-64634548I4667J-4667D01*
G01*
G37*
G36*
G01*
X100987851Y-64351705D02*
X101134081Y-64497935D01*
G75*
G02*
X101134081Y-64507269I-4667J-4667D01*
G01*
X100549445Y-65091905D01*
G75*
G02*
X100540111Y-65091905I-4667J4667D01*
G01*
X100393881Y-64945675D01*
G75*
G02*
X100393881Y-64936341I4667J4667D01*
G01*
X100978517Y-64351705D01*
G75*
G02*
X100987851Y-64351705I4667J-4667D01*
G01*
G37*
G36*
G01*
X100705009Y-64068862D02*
X100851239Y-64215092D01*
G75*
G02*
X100851239Y-64224426I-4667J-4667D01*
G01*
X100266603Y-64809062D01*
G75*
G02*
X100257269Y-64809062I-4667J4667D01*
G01*
X100111039Y-64662832D01*
G75*
G02*
X100111039Y-64653498I4667J4667D01*
G01*
X100695675Y-64068862D01*
G75*
G02*
X100705009Y-64068862I4667J-4667D01*
G01*
G37*
G36*
G01*
X100422166Y-63786020D02*
X100568396Y-63932250D01*
G75*
G02*
X100568396Y-63941584I-4667J-4667D01*
G01*
X99983760Y-64526220D01*
G75*
G02*
X99974426Y-64526220I-4667J4667D01*
G01*
X99828196Y-64379990D01*
G75*
G02*
X99828196Y-64370656I4667J4667D01*
G01*
X100412832Y-63786020D01*
G75*
G02*
X100422166Y-63786020I4667J-4667D01*
G01*
G37*
G36*
G01*
X100139323Y-63503177D02*
X100285553Y-63649407D01*
G75*
G02*
X100285553Y-63658741I-4667J-4667D01*
G01*
X99700917Y-64243377D01*
G75*
G02*
X99691583Y-64243377I-4667J4667D01*
G01*
X99545353Y-64097147D01*
G75*
G02*
X99545353Y-64087813I4667J4667D01*
G01*
X100129989Y-63503177D01*
G75*
G02*
X100139323Y-63503177I4667J-4667D01*
G01*
G37*
G36*
G01*
X99856481Y-63220334D02*
X100002711Y-63366564D01*
G75*
G02*
X100002711Y-63375898I-4667J-4667D01*
G01*
X99418075Y-63960534D01*
G75*
G02*
X99408741Y-63960534I-4667J4667D01*
G01*
X99262511Y-63814304D01*
G75*
G02*
X99262511Y-63804970I4667J4667D01*
G01*
X99847147Y-63220334D01*
G75*
G02*
X99856481Y-63220334I4667J-4667D01*
G01*
G37*
G36*
G01*
X104714304Y-58362511D02*
X104860534Y-58508741D01*
G75*
G02*
X104860534Y-58518075I-4667J-4667D01*
G01*
X104275898Y-59102711D01*
G75*
G02*
X104266564Y-59102711I-4667J4667D01*
G01*
X104120334Y-58956481D01*
G75*
G02*
X104120334Y-58947147I4667J4667D01*
G01*
X104704970Y-58362511D01*
G75*
G02*
X104714304Y-58362511I4667J-4667D01*
G01*
G37*
G36*
G01*
X104997147Y-58645353D02*
X105143377Y-58791583D01*
G75*
G02*
X105143377Y-58800917I-4667J-4667D01*
G01*
X104558741Y-59385553D01*
G75*
G02*
X104549407Y-59385553I-4667J4667D01*
G01*
X104403177Y-59239323D01*
G75*
G02*
X104403177Y-59229989I4667J4667D01*
G01*
X104987813Y-58645353D01*
G75*
G02*
X104997147Y-58645353I4667J-4667D01*
G01*
G37*
G36*
G01*
X105279990Y-58928196D02*
X105426220Y-59074426D01*
G75*
G02*
X105426220Y-59083760I-4667J-4667D01*
G01*
X104841584Y-59668396D01*
G75*
G02*
X104832250Y-59668396I-4667J4667D01*
G01*
X104686020Y-59522166D01*
G75*
G02*
X104686020Y-59512832I4667J4667D01*
G01*
X105270656Y-58928196D01*
G75*
G02*
X105279990Y-58928196I4667J-4667D01*
G01*
G37*
G36*
G01*
X105562832Y-59211039D02*
X105709062Y-59357269D01*
G75*
G02*
X105709062Y-59366603I-4667J-4667D01*
G01*
X105124426Y-59951239D01*
G75*
G02*
X105115092Y-59951239I-4667J4667D01*
G01*
X104968862Y-59805009D01*
G75*
G02*
X104968862Y-59795675I4667J4667D01*
G01*
X105553498Y-59211039D01*
G75*
G02*
X105562832Y-59211039I4667J-4667D01*
G01*
G37*
G36*
G01*
X105845675Y-59493881D02*
X105991905Y-59640111D01*
G75*
G02*
X105991905Y-59649445I-4667J-4667D01*
G01*
X105407269Y-60234081D01*
G75*
G02*
X105397935Y-60234081I-4667J4667D01*
G01*
X105251705Y-60087851D01*
G75*
G02*
X105251705Y-60078517I4667J4667D01*
G01*
X105836341Y-59493881D01*
G75*
G02*
X105845675Y-59493881I4667J-4667D01*
G01*
G37*
G36*
G01*
X106128518Y-59776724D02*
X106274748Y-59922954D01*
G75*
G02*
X106274748Y-59932288I-4667J-4667D01*
G01*
X105690112Y-60516924D01*
G75*
G02*
X105680778Y-60516924I-4667J4667D01*
G01*
X105534548Y-60370694D01*
G75*
G02*
X105534548Y-60361360I4667J4667D01*
G01*
X106119184Y-59776724D01*
G75*
G02*
X106128518Y-59776724I4667J-4667D01*
G01*
G37*
G36*
G01*
X106411360Y-60059567D02*
X106557590Y-60205797D01*
G75*
G02*
X106557590Y-60215131I-4667J-4667D01*
G01*
X105972954Y-60799767D01*
G75*
G02*
X105963620Y-60799767I-4667J4667D01*
G01*
X105817390Y-60653537D01*
G75*
G02*
X105817390Y-60644203I4667J4667D01*
G01*
X106402026Y-60059567D01*
G75*
G02*
X106411360Y-60059567I4667J-4667D01*
G01*
G37*
G36*
G01*
X106694203Y-60342410D02*
X106840433Y-60488640D01*
G75*
G02*
X106840433Y-60497974I-4667J-4667D01*
G01*
X106255797Y-61082610D01*
G75*
G02*
X106246463Y-61082610I-4667J4667D01*
G01*
X106100233Y-60936380D01*
G75*
G02*
X106100233Y-60927046I4667J4667D01*
G01*
X106684869Y-60342410D01*
G75*
G02*
X106694203Y-60342410I4667J-4667D01*
G01*
G37*
G36*
G01*
X106977046Y-60625252D02*
X107123276Y-60771482D01*
G75*
G02*
X107123276Y-60780816I-4667J-4667D01*
G01*
X106538640Y-61365452D01*
G75*
G02*
X106529306Y-61365452I-4667J4667D01*
G01*
X106383076Y-61219222D01*
G75*
G02*
X106383076Y-61209888I4667J4667D01*
G01*
X106967712Y-60625252D01*
G75*
G02*
X106977046Y-60625252I4667J-4667D01*
G01*
G37*
G36*
G01*
X107259889Y-60908095D02*
X107406119Y-61054325D01*
G75*
G02*
X107406119Y-61063659I-4667J-4667D01*
G01*
X106821483Y-61648295D01*
G75*
G02*
X106812149Y-61648295I-4667J4667D01*
G01*
X106665919Y-61502065D01*
G75*
G02*
X106665919Y-61492731I4667J4667D01*
G01*
X107250555Y-60908095D01*
G75*
G02*
X107259889Y-60908095I4667J-4667D01*
G01*
G37*
G36*
G01*
X107542731Y-61190938D02*
X107688961Y-61337168D01*
G75*
G02*
X107688961Y-61346502I-4667J-4667D01*
G01*
X107104325Y-61931138D01*
G75*
G02*
X107094991Y-61931138I-4667J4667D01*
G01*
X106948761Y-61784908D01*
G75*
G02*
X106948761Y-61775574I4667J4667D01*
G01*
X107533397Y-61190938D01*
G75*
G02*
X107542731Y-61190938I4667J-4667D01*
G01*
G37*
G36*
G01*
X107825574Y-61473780D02*
X107971804Y-61620010D01*
G75*
G02*
X107971804Y-61629344I-4667J-4667D01*
G01*
X107387168Y-62213980D01*
G75*
G02*
X107377834Y-62213980I-4667J4667D01*
G01*
X107231604Y-62067750D01*
G75*
G02*
X107231604Y-62058416I4667J4667D01*
G01*
X107816240Y-61473780D01*
G75*
G02*
X107825574Y-61473780I4667J-4667D01*
G01*
G37*
G36*
G01*
X108108417Y-61756623D02*
X108254647Y-61902853D01*
G75*
G02*
X108254647Y-61912187I-4667J-4667D01*
G01*
X107670011Y-62496823D01*
G75*
G02*
X107660677Y-62496823I-4667J4667D01*
G01*
X107514447Y-62350593D01*
G75*
G02*
X107514447Y-62341259I4667J4667D01*
G01*
X108099083Y-61756623D01*
G75*
G02*
X108108417Y-61756623I4667J-4667D01*
G01*
G37*
G36*
G01*
X108391259Y-62039466D02*
X108537489Y-62185696D01*
G75*
G02*
X108537489Y-62195030I-4667J-4667D01*
G01*
X107952853Y-62779666D01*
G75*
G02*
X107943519Y-62779666I-4667J4667D01*
G01*
X107797289Y-62633436D01*
G75*
G02*
X107797289Y-62624102I4667J4667D01*
G01*
X108381925Y-62039466D01*
G75*
G02*
X108391259Y-62039466I4667J-4667D01*
G01*
G37*
G36*
G01*
X107952853Y-63220334D02*
X108537489Y-63804970D01*
G75*
G02*
X108537489Y-63814304I-4667J-4667D01*
G01*
X108391259Y-63960534D01*
G75*
G02*
X108381925Y-63960534I-4667J4667D01*
G01*
X107797289Y-63375898D01*
G75*
G02*
X107797289Y-63366564I4667J4667D01*
G01*
X107943519Y-63220334D01*
G75*
G02*
X107952853Y-63220334I4667J-4667D01*
G01*
G37*
G36*
G01*
X107670011Y-63503177D02*
X108254647Y-64087813D01*
G75*
G02*
X108254647Y-64097147I-4667J-4667D01*
G01*
X108108417Y-64243377D01*
G75*
G02*
X108099083Y-64243377I-4667J4667D01*
G01*
X107514447Y-63658741D01*
G75*
G02*
X107514447Y-63649407I4667J4667D01*
G01*
X107660677Y-63503177D01*
G75*
G02*
X107670011Y-63503177I4667J-4667D01*
G01*
G37*
G36*
G01*
X107387168Y-63786020D02*
X107971804Y-64370656D01*
G75*
G02*
X107971804Y-64379990I-4667J-4667D01*
G01*
X107825574Y-64526220D01*
G75*
G02*
X107816240Y-64526220I-4667J4667D01*
G01*
X107231604Y-63941584D01*
G75*
G02*
X107231604Y-63932250I4667J4667D01*
G01*
X107377834Y-63786020D01*
G75*
G02*
X107387168Y-63786020I4667J-4667D01*
G01*
G37*
G36*
G01*
X107104325Y-64068862D02*
X107688961Y-64653498D01*
G75*
G02*
X107688961Y-64662832I-4667J-4667D01*
G01*
X107542731Y-64809062D01*
G75*
G02*
X107533397Y-64809062I-4667J4667D01*
G01*
X106948761Y-64224426D01*
G75*
G02*
X106948761Y-64215092I4667J4667D01*
G01*
X107094991Y-64068862D01*
G75*
G02*
X107104325Y-64068862I4667J-4667D01*
G01*
G37*
G36*
G01*
X106821483Y-64351705D02*
X107406119Y-64936341D01*
G75*
G02*
X107406119Y-64945675I-4667J-4667D01*
G01*
X107259889Y-65091905D01*
G75*
G02*
X107250555Y-65091905I-4667J4667D01*
G01*
X106665919Y-64507269D01*
G75*
G02*
X106665919Y-64497935I4667J4667D01*
G01*
X106812149Y-64351705D01*
G75*
G02*
X106821483Y-64351705I4667J-4667D01*
G01*
G37*
G36*
G01*
X106538640Y-64634548D02*
X107123276Y-65219184D01*
G75*
G02*
X107123276Y-65228518I-4667J-4667D01*
G01*
X106977046Y-65374748D01*
G75*
G02*
X106967712Y-65374748I-4667J4667D01*
G01*
X106383076Y-64790112D01*
G75*
G02*
X106383076Y-64780778I4667J4667D01*
G01*
X106529306Y-64634548D01*
G75*
G02*
X106538640Y-64634548I4667J-4667D01*
G01*
G37*
G36*
G01*
X106255797Y-64917390D02*
X106840433Y-65502026D01*
G75*
G02*
X106840433Y-65511360I-4667J-4667D01*
G01*
X106694203Y-65657590D01*
G75*
G02*
X106684869Y-65657590I-4667J4667D01*
G01*
X106100233Y-65072954D01*
G75*
G02*
X106100233Y-65063620I4667J4667D01*
G01*
X106246463Y-64917390D01*
G75*
G02*
X106255797Y-64917390I4667J-4667D01*
G01*
G37*
G36*
G01*
X105972954Y-65200233D02*
X106557590Y-65784869D01*
G75*
G02*
X106557590Y-65794203I-4667J-4667D01*
G01*
X106411360Y-65940433D01*
G75*
G02*
X106402026Y-65940433I-4667J4667D01*
G01*
X105817390Y-65355797D01*
G75*
G02*
X105817390Y-65346463I4667J4667D01*
G01*
X105963620Y-65200233D01*
G75*
G02*
X105972954Y-65200233I4667J-4667D01*
G01*
G37*
G36*
G01*
X105690112Y-65483076D02*
X106274748Y-66067712D01*
G75*
G02*
X106274748Y-66077046I-4667J-4667D01*
G01*
X106128518Y-66223276D01*
G75*
G02*
X106119184Y-66223276I-4667J4667D01*
G01*
X105534548Y-65638640D01*
G75*
G02*
X105534548Y-65629306I4667J4667D01*
G01*
X105680778Y-65483076D01*
G75*
G02*
X105690112Y-65483076I4667J-4667D01*
G01*
G37*
G36*
G01*
X105407269Y-65765919D02*
X105991905Y-66350555D01*
G75*
G02*
X105991905Y-66359889I-4667J-4667D01*
G01*
X105845675Y-66506119D01*
G75*
G02*
X105836341Y-66506119I-4667J4667D01*
G01*
X105251705Y-65921483D01*
G75*
G02*
X105251705Y-65912149I4667J4667D01*
G01*
X105397935Y-65765919D01*
G75*
G02*
X105407269Y-65765919I4667J-4667D01*
G01*
G37*
G36*
G01*
X105124426Y-66048761D02*
X105709062Y-66633397D01*
G75*
G02*
X105709062Y-66642731I-4667J-4667D01*
G01*
X105562832Y-66788961D01*
G75*
G02*
X105553498Y-66788961I-4667J4667D01*
G01*
X104968862Y-66204325D01*
G75*
G02*
X104968862Y-66194991I4667J4667D01*
G01*
X105115092Y-66048761D01*
G75*
G02*
X105124426Y-66048761I4667J-4667D01*
G01*
G37*
G36*
G01*
X104841584Y-66331604D02*
X105426220Y-66916240D01*
G75*
G02*
X105426220Y-66925574I-4667J-4667D01*
G01*
X105279990Y-67071804D01*
G75*
G02*
X105270656Y-67071804I-4667J4667D01*
G01*
X104686020Y-66487168D01*
G75*
G02*
X104686020Y-66477834I4667J4667D01*
G01*
X104832250Y-66331604D01*
G75*
G02*
X104841584Y-66331604I4667J-4667D01*
G01*
G37*
G36*
G01*
X104558741Y-66614447D02*
X105143377Y-67199083D01*
G75*
G02*
X105143377Y-67208417I-4667J-4667D01*
G01*
X104997147Y-67354647D01*
G75*
G02*
X104987813Y-67354647I-4667J4667D01*
G01*
X104403177Y-66770011D01*
G75*
G02*
X104403177Y-66760677I4667J4667D01*
G01*
X104549407Y-66614447D01*
G75*
G02*
X104558741Y-66614447I4667J-4667D01*
G01*
G37*
G36*
G01*
X104275898Y-66897289D02*
X104860534Y-67481925D01*
G75*
G02*
X104860534Y-67491259I-4667J-4667D01*
G01*
X104714304Y-67637489D01*
G75*
G02*
X104704970Y-67637489I-4667J4667D01*
G01*
X104120334Y-67052853D01*
G75*
G02*
X104120334Y-67043519I4667J4667D01*
G01*
X104266564Y-66897289D01*
G75*
G02*
X104275898Y-66897289I4667J-4667D01*
G01*
G37*
G36*
G01*
X99418075Y-62039466D02*
X100002711Y-62624102D01*
G75*
G02*
X100002711Y-62633436I-4667J-4667D01*
G01*
X99856481Y-62779666D01*
G75*
G02*
X99847147Y-62779666I-4667J4667D01*
G01*
X99262511Y-62195030D01*
G75*
G02*
X99262511Y-62185696I4667J4667D01*
G01*
X99408741Y-62039466D01*
G75*
G02*
X99418075Y-62039466I4667J-4667D01*
G01*
G37*
G36*
G01*
X99700917Y-61756623D02*
X100285553Y-62341259D01*
G75*
G02*
X100285553Y-62350593I-4667J-4667D01*
G01*
X100139323Y-62496823D01*
G75*
G02*
X100129989Y-62496823I-4667J4667D01*
G01*
X99545353Y-61912187D01*
G75*
G02*
X99545353Y-61902853I4667J4667D01*
G01*
X99691583Y-61756623D01*
G75*
G02*
X99700917Y-61756623I4667J-4667D01*
G01*
G37*
G36*
G01*
X99983760Y-61473780D02*
X100568396Y-62058416D01*
G75*
G02*
X100568396Y-62067750I-4667J-4667D01*
G01*
X100422166Y-62213980D01*
G75*
G02*
X100412832Y-62213980I-4667J4667D01*
G01*
X99828196Y-61629344D01*
G75*
G02*
X99828196Y-61620010I4667J4667D01*
G01*
X99974426Y-61473780D01*
G75*
G02*
X99983760Y-61473780I4667J-4667D01*
G01*
G37*
G36*
G01*
X100266603Y-61190938D02*
X100851239Y-61775574D01*
G75*
G02*
X100851239Y-61784908I-4667J-4667D01*
G01*
X100705009Y-61931138D01*
G75*
G02*
X100695675Y-61931138I-4667J4667D01*
G01*
X100111039Y-61346502D01*
G75*
G02*
X100111039Y-61337168I4667J4667D01*
G01*
X100257269Y-61190938D01*
G75*
G02*
X100266603Y-61190938I4667J-4667D01*
G01*
G37*
G36*
G01*
X100549445Y-60908095D02*
X101134081Y-61492731D01*
G75*
G02*
X101134081Y-61502065I-4667J-4667D01*
G01*
X100987851Y-61648295D01*
G75*
G02*
X100978517Y-61648295I-4667J4667D01*
G01*
X100393881Y-61063659D01*
G75*
G02*
X100393881Y-61054325I4667J4667D01*
G01*
X100540111Y-60908095D01*
G75*
G02*
X100549445Y-60908095I4667J-4667D01*
G01*
G37*
G36*
G01*
X100832288Y-60625252D02*
X101416924Y-61209888D01*
G75*
G02*
X101416924Y-61219222I-4667J-4667D01*
G01*
X101270694Y-61365452D01*
G75*
G02*
X101261360Y-61365452I-4667J4667D01*
G01*
X100676724Y-60780816D01*
G75*
G02*
X100676724Y-60771482I4667J4667D01*
G01*
X100822954Y-60625252D01*
G75*
G02*
X100832288Y-60625252I4667J-4667D01*
G01*
G37*
G36*
G01*
X101115131Y-60342410D02*
X101699767Y-60927046D01*
G75*
G02*
X101699767Y-60936380I-4667J-4667D01*
G01*
X101553537Y-61082610D01*
G75*
G02*
X101544203Y-61082610I-4667J4667D01*
G01*
X100959567Y-60497974D01*
G75*
G02*
X100959567Y-60488640I4667J4667D01*
G01*
X101105797Y-60342410D01*
G75*
G02*
X101115131Y-60342410I4667J-4667D01*
G01*
G37*
G36*
G01*
X101397974Y-60059567D02*
X101982610Y-60644203D01*
G75*
G02*
X101982610Y-60653537I-4667J-4667D01*
G01*
X101836380Y-60799767D01*
G75*
G02*
X101827046Y-60799767I-4667J4667D01*
G01*
X101242410Y-60215131D01*
G75*
G02*
X101242410Y-60205797I4667J4667D01*
G01*
X101388640Y-60059567D01*
G75*
G02*
X101397974Y-60059567I4667J-4667D01*
G01*
G37*
G36*
G01*
X101680816Y-59776724D02*
X102265452Y-60361360D01*
G75*
G02*
X102265452Y-60370694I-4667J-4667D01*
G01*
X102119222Y-60516924D01*
G75*
G02*
X102109888Y-60516924I-4667J4667D01*
G01*
X101525252Y-59932288D01*
G75*
G02*
X101525252Y-59922954I4667J4667D01*
G01*
X101671482Y-59776724D01*
G75*
G02*
X101680816Y-59776724I4667J-4667D01*
G01*
G37*
G36*
G01*
X101963659Y-59493881D02*
X102548295Y-60078517D01*
G75*
G02*
X102548295Y-60087851I-4667J-4667D01*
G01*
X102402065Y-60234081D01*
G75*
G02*
X102392731Y-60234081I-4667J4667D01*
G01*
X101808095Y-59649445D01*
G75*
G02*
X101808095Y-59640111I4667J4667D01*
G01*
X101954325Y-59493881D01*
G75*
G02*
X101963659Y-59493881I4667J-4667D01*
G01*
G37*
G36*
G01*
X102246502Y-59211039D02*
X102831138Y-59795675D01*
G75*
G02*
X102831138Y-59805009I-4667J-4667D01*
G01*
X102684908Y-59951239D01*
G75*
G02*
X102675574Y-59951239I-4667J4667D01*
G01*
X102090938Y-59366603D01*
G75*
G02*
X102090938Y-59357269I4667J4667D01*
G01*
X102237168Y-59211039D01*
G75*
G02*
X102246502Y-59211039I4667J-4667D01*
G01*
G37*
G36*
G01*
X102529344Y-58928196D02*
X103113980Y-59512832D01*
G75*
G02*
X103113980Y-59522166I-4667J-4667D01*
G01*
X102967750Y-59668396D01*
G75*
G02*
X102958416Y-59668396I-4667J4667D01*
G01*
X102373780Y-59083760D01*
G75*
G02*
X102373780Y-59074426I4667J4667D01*
G01*
X102520010Y-58928196D01*
G75*
G02*
X102529344Y-58928196I4667J-4667D01*
G01*
G37*
G36*
G01*
X102812187Y-58645353D02*
X103396823Y-59229989D01*
G75*
G02*
X103396823Y-59239323I-4667J-4667D01*
G01*
X103250593Y-59385553D01*
G75*
G02*
X103241259Y-59385553I-4667J4667D01*
G01*
X102656623Y-58800917D01*
G75*
G02*
X102656623Y-58791583I4667J4667D01*
G01*
X102802853Y-58645353D01*
G75*
G02*
X102812187Y-58645353I4667J-4667D01*
G01*
G37*
G36*
G01*
X103095030Y-58362511D02*
X103679666Y-58947147D01*
G75*
G02*
X103679666Y-58956481I-4667J-4667D01*
G01*
X103533436Y-59102711D01*
G75*
G02*
X103524102Y-59102711I-4667J4667D01*
G01*
X102939466Y-58518075D01*
G75*
G02*
X102939466Y-58508741I4667J4667D01*
G01*
X103085696Y-58362511D01*
G75*
G02*
X103095030Y-58362511I4667J-4667D01*
G01*
G37*
%TD*%
D63*
%TO.C,U13*%
X147170000Y-59325000D03*
X146670000Y-59325000D03*
X146170000Y-59325000D03*
X145670000Y-59325000D03*
X145170000Y-59325000D03*
X144670000Y-59325000D03*
X144170000Y-59325000D03*
D64*
X142945000Y-58600000D03*
X142945000Y-58100000D03*
X142945000Y-57600000D03*
X142945000Y-57100000D03*
X142945000Y-56600000D03*
X142945000Y-56100000D03*
X142945000Y-55600000D03*
D63*
X143670000Y-54375000D03*
X144170000Y-54375000D03*
X144670000Y-54375000D03*
X145170000Y-54375000D03*
X145670000Y-54375000D03*
X146170000Y-54375000D03*
X146670000Y-54375000D03*
D64*
X147895000Y-55100000D03*
X147895000Y-55600000D03*
X147895000Y-56100000D03*
X147895000Y-56600000D03*
X147895000Y-57100000D03*
X147895000Y-57600000D03*
X147895000Y-58100000D03*
X147895000Y-58600000D03*
D65*
X145420000Y-56850000D03*
D63*
X147170000Y-54375000D03*
D64*
X142945000Y-55100000D03*
D63*
X143670000Y-59325000D03*
%TD*%
D21*
%TO.C,U5*%
X134350000Y-119305000D03*
X134850000Y-119305000D03*
X135350000Y-119305000D03*
X135850000Y-119305000D03*
X135850000Y-119895000D03*
X135350000Y-119895000D03*
X134850000Y-119895000D03*
D22*
X134350000Y-119890000D03*
%TD*%
D66*
%TO.C,U3*%
X156950000Y-107000000D03*
X156950000Y-109600000D03*
X157900000Y-107000000D03*
X158850000Y-107000000D03*
X157900000Y-109600000D03*
X158850000Y-109600000D03*
%TD*%
D53*
%TO.C,S3*%
X166000000Y-120900000D03*
X166000000Y-116800000D03*
X164400000Y-116800000D03*
X164400000Y-120900000D03*
%TD*%
%TO.C,S2*%
X153200000Y-120950000D03*
X153200000Y-116850000D03*
X151600000Y-116850000D03*
X151600000Y-120950000D03*
%TD*%
%TO.C,S1*%
X159600000Y-120950000D03*
X159600000Y-116850000D03*
X158000000Y-116850000D03*
X158000000Y-120950000D03*
%TD*%
%TO.C,R124*%
G36*
G01*
X106672500Y-53760000D02*
X106327500Y-53760000D01*
G75*
G02*
X106180000Y-53612500I0J147500D01*
G01*
X106180000Y-53317500D01*
G75*
G02*
X106327500Y-53170000I147500J0D01*
G01*
X106672500Y-53170000D01*
G75*
G02*
X106820000Y-53317500I0J-147500D01*
G01*
X106820000Y-53612500D01*
G75*
G02*
X106672500Y-53760000I-147500J0D01*
G01*
G37*
G36*
G01*
X106672500Y-54730000D02*
X106327500Y-54730000D01*
G75*
G02*
X106180000Y-54582500I0J147500D01*
G01*
X106180000Y-54287500D01*
G75*
G02*
X106327500Y-54140000I147500J0D01*
G01*
X106672500Y-54140000D01*
G75*
G02*
X106820000Y-54287500I0J-147500D01*
G01*
X106820000Y-54582500D01*
G75*
G02*
X106672500Y-54730000I-147500J0D01*
G01*
G37*
%TD*%
%TO.C,R122*%
G36*
G01*
X105672500Y-53760000D02*
X105327500Y-53760000D01*
G75*
G02*
X105180000Y-53612500I0J147500D01*
G01*
X105180000Y-53317500D01*
G75*
G02*
X105327500Y-53170000I147500J0D01*
G01*
X105672500Y-53170000D01*
G75*
G02*
X105820000Y-53317500I0J-147500D01*
G01*
X105820000Y-53612500D01*
G75*
G02*
X105672500Y-53760000I-147500J0D01*
G01*
G37*
G36*
G01*
X105672500Y-54730000D02*
X105327500Y-54730000D01*
G75*
G02*
X105180000Y-54582500I0J147500D01*
G01*
X105180000Y-54287500D01*
G75*
G02*
X105327500Y-54140000I147500J0D01*
G01*
X105672500Y-54140000D01*
G75*
G02*
X105820000Y-54287500I0J-147500D01*
G01*
X105820000Y-54582500D01*
G75*
G02*
X105672500Y-54730000I-147500J0D01*
G01*
G37*
%TD*%
%TO.C,R117*%
G36*
G01*
X97190000Y-65372500D02*
X97190000Y-65027500D01*
G75*
G02*
X97337500Y-64880000I147500J0D01*
G01*
X97632500Y-64880000D01*
G75*
G02*
X97780000Y-65027500I0J-147500D01*
G01*
X97780000Y-65372500D01*
G75*
G02*
X97632500Y-65520000I-147500J0D01*
G01*
X97337500Y-65520000D01*
G75*
G02*
X97190000Y-65372500I0J147500D01*
G01*
G37*
G36*
G01*
X96220000Y-65372500D02*
X96220000Y-65027500D01*
G75*
G02*
X96367500Y-64880000I147500J0D01*
G01*
X96662500Y-64880000D01*
G75*
G02*
X96810000Y-65027500I0J-147500D01*
G01*
X96810000Y-65372500D01*
G75*
G02*
X96662500Y-65520000I-147500J0D01*
G01*
X96367500Y-65520000D01*
G75*
G02*
X96220000Y-65372500I0J147500D01*
G01*
G37*
%TD*%
%TO.C,R116*%
G36*
G01*
X97190000Y-66372500D02*
X97190000Y-66027500D01*
G75*
G02*
X97337500Y-65880000I147500J0D01*
G01*
X97632500Y-65880000D01*
G75*
G02*
X97780000Y-66027500I0J-147500D01*
G01*
X97780000Y-66372500D01*
G75*
G02*
X97632500Y-66520000I-147500J0D01*
G01*
X97337500Y-66520000D01*
G75*
G02*
X97190000Y-66372500I0J147500D01*
G01*
G37*
G36*
G01*
X96220000Y-66372500D02*
X96220000Y-66027500D01*
G75*
G02*
X96367500Y-65880000I147500J0D01*
G01*
X96662500Y-65880000D01*
G75*
G02*
X96810000Y-66027500I0J-147500D01*
G01*
X96810000Y-66372500D01*
G75*
G02*
X96662500Y-66520000I-147500J0D01*
G01*
X96367500Y-66520000D01*
G75*
G02*
X96220000Y-66372500I0J147500D01*
G01*
G37*
%TD*%
%TO.C,R115*%
G36*
G01*
X97190000Y-67372500D02*
X97190000Y-67027500D01*
G75*
G02*
X97337500Y-66880000I147500J0D01*
G01*
X97632500Y-66880000D01*
G75*
G02*
X97780000Y-67027500I0J-147500D01*
G01*
X97780000Y-67372500D01*
G75*
G02*
X97632500Y-67520000I-147500J0D01*
G01*
X97337500Y-67520000D01*
G75*
G02*
X97190000Y-67372500I0J147500D01*
G01*
G37*
G36*
G01*
X96220000Y-67372500D02*
X96220000Y-67027500D01*
G75*
G02*
X96367500Y-66880000I147500J0D01*
G01*
X96662500Y-66880000D01*
G75*
G02*
X96810000Y-67027500I0J-147500D01*
G01*
X96810000Y-67372500D01*
G75*
G02*
X96662500Y-67520000I-147500J0D01*
G01*
X96367500Y-67520000D01*
G75*
G02*
X96220000Y-67372500I0J147500D01*
G01*
G37*
%TD*%
%TO.C,R114*%
G36*
G01*
X97190000Y-68372500D02*
X97190000Y-68027500D01*
G75*
G02*
X97337500Y-67880000I147500J0D01*
G01*
X97632500Y-67880000D01*
G75*
G02*
X97780000Y-68027500I0J-147500D01*
G01*
X97780000Y-68372500D01*
G75*
G02*
X97632500Y-68520000I-147500J0D01*
G01*
X97337500Y-68520000D01*
G75*
G02*
X97190000Y-68372500I0J147500D01*
G01*
G37*
G36*
G01*
X96220000Y-68372500D02*
X96220000Y-68027500D01*
G75*
G02*
X96367500Y-67880000I147500J0D01*
G01*
X96662500Y-67880000D01*
G75*
G02*
X96810000Y-68027500I0J-147500D01*
G01*
X96810000Y-68372500D01*
G75*
G02*
X96662500Y-68520000I-147500J0D01*
G01*
X96367500Y-68520000D01*
G75*
G02*
X96220000Y-68372500I0J147500D01*
G01*
G37*
%TD*%
%TO.C,R112*%
G36*
G01*
X110027500Y-67990000D02*
X110372500Y-67990000D01*
G75*
G02*
X110520000Y-68137500I0J-147500D01*
G01*
X110520000Y-68432500D01*
G75*
G02*
X110372500Y-68580000I-147500J0D01*
G01*
X110027500Y-68580000D01*
G75*
G02*
X109880000Y-68432500I0J147500D01*
G01*
X109880000Y-68137500D01*
G75*
G02*
X110027500Y-67990000I147500J0D01*
G01*
G37*
G36*
G01*
X110027500Y-67020000D02*
X110372500Y-67020000D01*
G75*
G02*
X110520000Y-67167500I0J-147500D01*
G01*
X110520000Y-67462500D01*
G75*
G02*
X110372500Y-67610000I-147500J0D01*
G01*
X110027500Y-67610000D01*
G75*
G02*
X109880000Y-67462500I0J147500D01*
G01*
X109880000Y-67167500D01*
G75*
G02*
X110027500Y-67020000I147500J0D01*
G01*
G37*
%TD*%
%TO.C,R111*%
G36*
G01*
X87810000Y-64977500D02*
X87810000Y-65322500D01*
G75*
G02*
X87662500Y-65470000I-147500J0D01*
G01*
X87367500Y-65470000D01*
G75*
G02*
X87220000Y-65322500I0J147500D01*
G01*
X87220000Y-64977500D01*
G75*
G02*
X87367500Y-64830000I147500J0D01*
G01*
X87662500Y-64830000D01*
G75*
G02*
X87810000Y-64977500I0J-147500D01*
G01*
G37*
G36*
G01*
X88780000Y-64977500D02*
X88780000Y-65322500D01*
G75*
G02*
X88632500Y-65470000I-147500J0D01*
G01*
X88337500Y-65470000D01*
G75*
G02*
X88190000Y-65322500I0J147500D01*
G01*
X88190000Y-64977500D01*
G75*
G02*
X88337500Y-64830000I147500J0D01*
G01*
X88632500Y-64830000D01*
G75*
G02*
X88780000Y-64977500I0J-147500D01*
G01*
G37*
%TD*%
%TO.C,R110*%
G36*
G01*
X87810000Y-62977500D02*
X87810000Y-63322500D01*
G75*
G02*
X87662500Y-63470000I-147500J0D01*
G01*
X87367500Y-63470000D01*
G75*
G02*
X87220000Y-63322500I0J147500D01*
G01*
X87220000Y-62977500D01*
G75*
G02*
X87367500Y-62830000I147500J0D01*
G01*
X87662500Y-62830000D01*
G75*
G02*
X87810000Y-62977500I0J-147500D01*
G01*
G37*
G36*
G01*
X88780000Y-62977500D02*
X88780000Y-63322500D01*
G75*
G02*
X88632500Y-63470000I-147500J0D01*
G01*
X88337500Y-63470000D01*
G75*
G02*
X88190000Y-63322500I0J147500D01*
G01*
X88190000Y-62977500D01*
G75*
G02*
X88337500Y-62830000I147500J0D01*
G01*
X88632500Y-62830000D01*
G75*
G02*
X88780000Y-62977500I0J-147500D01*
G01*
G37*
%TD*%
%TO.C,R109*%
G36*
G01*
X87810000Y-63977500D02*
X87810000Y-64322500D01*
G75*
G02*
X87662500Y-64470000I-147500J0D01*
G01*
X87367500Y-64470000D01*
G75*
G02*
X87220000Y-64322500I0J147500D01*
G01*
X87220000Y-63977500D01*
G75*
G02*
X87367500Y-63830000I147500J0D01*
G01*
X87662500Y-63830000D01*
G75*
G02*
X87810000Y-63977500I0J-147500D01*
G01*
G37*
G36*
G01*
X88780000Y-63977500D02*
X88780000Y-64322500D01*
G75*
G02*
X88632500Y-64470000I-147500J0D01*
G01*
X88337500Y-64470000D01*
G75*
G02*
X88190000Y-64322500I0J147500D01*
G01*
X88190000Y-63977500D01*
G75*
G02*
X88337500Y-63830000I147500J0D01*
G01*
X88632500Y-63830000D01*
G75*
G02*
X88780000Y-63977500I0J-147500D01*
G01*
G37*
%TD*%
%TO.C,R108*%
G36*
G01*
X88190000Y-62322500D02*
X88190000Y-61977500D01*
G75*
G02*
X88337500Y-61830000I147500J0D01*
G01*
X88632500Y-61830000D01*
G75*
G02*
X88780000Y-61977500I0J-147500D01*
G01*
X88780000Y-62322500D01*
G75*
G02*
X88632500Y-62470000I-147500J0D01*
G01*
X88337500Y-62470000D01*
G75*
G02*
X88190000Y-62322500I0J147500D01*
G01*
G37*
G36*
G01*
X87220000Y-62322500D02*
X87220000Y-61977500D01*
G75*
G02*
X87367500Y-61830000I147500J0D01*
G01*
X87662500Y-61830000D01*
G75*
G02*
X87810000Y-61977500I0J-147500D01*
G01*
X87810000Y-62322500D01*
G75*
G02*
X87662500Y-62470000I-147500J0D01*
G01*
X87367500Y-62470000D01*
G75*
G02*
X87220000Y-62322500I0J147500D01*
G01*
G37*
%TD*%
%TO.C,R106*%
G36*
G01*
X173677500Y-111640000D02*
X174022500Y-111640000D01*
G75*
G02*
X174170000Y-111787500I0J-147500D01*
G01*
X174170000Y-112082500D01*
G75*
G02*
X174022500Y-112230000I-147500J0D01*
G01*
X173677500Y-112230000D01*
G75*
G02*
X173530000Y-112082500I0J147500D01*
G01*
X173530000Y-111787500D01*
G75*
G02*
X173677500Y-111640000I147500J0D01*
G01*
G37*
G36*
G01*
X173677500Y-110670000D02*
X174022500Y-110670000D01*
G75*
G02*
X174170000Y-110817500I0J-147500D01*
G01*
X174170000Y-111112500D01*
G75*
G02*
X174022500Y-111260000I-147500J0D01*
G01*
X173677500Y-111260000D01*
G75*
G02*
X173530000Y-111112500I0J147500D01*
G01*
X173530000Y-110817500D01*
G75*
G02*
X173677500Y-110670000I147500J0D01*
G01*
G37*
%TD*%
%TO.C,R105*%
G36*
G01*
X149210000Y-113777500D02*
X149210000Y-114122500D01*
G75*
G02*
X149062500Y-114270000I-147500J0D01*
G01*
X148767500Y-114270000D01*
G75*
G02*
X148620000Y-114122500I0J147500D01*
G01*
X148620000Y-113777500D01*
G75*
G02*
X148767500Y-113630000I147500J0D01*
G01*
X149062500Y-113630000D01*
G75*
G02*
X149210000Y-113777500I0J-147500D01*
G01*
G37*
G36*
G01*
X150180000Y-113777500D02*
X150180000Y-114122500D01*
G75*
G02*
X150032500Y-114270000I-147500J0D01*
G01*
X149737500Y-114270000D01*
G75*
G02*
X149590000Y-114122500I0J147500D01*
G01*
X149590000Y-113777500D01*
G75*
G02*
X149737500Y-113630000I147500J0D01*
G01*
X150032500Y-113630000D01*
G75*
G02*
X150180000Y-113777500I0J-147500D01*
G01*
G37*
%TD*%
%TO.C,R104*%
G36*
G01*
X150572500Y-108410000D02*
X150227500Y-108410000D01*
G75*
G02*
X150080000Y-108262500I0J147500D01*
G01*
X150080000Y-107967500D01*
G75*
G02*
X150227500Y-107820000I147500J0D01*
G01*
X150572500Y-107820000D01*
G75*
G02*
X150720000Y-107967500I0J-147500D01*
G01*
X150720000Y-108262500D01*
G75*
G02*
X150572500Y-108410000I-147500J0D01*
G01*
G37*
G36*
G01*
X150572500Y-109380000D02*
X150227500Y-109380000D01*
G75*
G02*
X150080000Y-109232500I0J147500D01*
G01*
X150080000Y-108937500D01*
G75*
G02*
X150227500Y-108790000I147500J0D01*
G01*
X150572500Y-108790000D01*
G75*
G02*
X150720000Y-108937500I0J-147500D01*
G01*
X150720000Y-109232500D01*
G75*
G02*
X150572500Y-109380000I-147500J0D01*
G01*
G37*
%TD*%
%TO.C,R103*%
G36*
G01*
X149210000Y-112277500D02*
X149210000Y-112622500D01*
G75*
G02*
X149062500Y-112770000I-147500J0D01*
G01*
X148767500Y-112770000D01*
G75*
G02*
X148620000Y-112622500I0J147500D01*
G01*
X148620000Y-112277500D01*
G75*
G02*
X148767500Y-112130000I147500J0D01*
G01*
X149062500Y-112130000D01*
G75*
G02*
X149210000Y-112277500I0J-147500D01*
G01*
G37*
G36*
G01*
X150180000Y-112277500D02*
X150180000Y-112622500D01*
G75*
G02*
X150032500Y-112770000I-147500J0D01*
G01*
X149737500Y-112770000D01*
G75*
G02*
X149590000Y-112622500I0J147500D01*
G01*
X149590000Y-112277500D01*
G75*
G02*
X149737500Y-112130000I147500J0D01*
G01*
X150032500Y-112130000D01*
G75*
G02*
X150180000Y-112277500I0J-147500D01*
G01*
G37*
%TD*%
%TO.C,R102*%
G36*
G01*
X170272500Y-61910000D02*
X169927500Y-61910000D01*
G75*
G02*
X169780000Y-61762500I0J147500D01*
G01*
X169780000Y-61467500D01*
G75*
G02*
X169927500Y-61320000I147500J0D01*
G01*
X170272500Y-61320000D01*
G75*
G02*
X170420000Y-61467500I0J-147500D01*
G01*
X170420000Y-61762500D01*
G75*
G02*
X170272500Y-61910000I-147500J0D01*
G01*
G37*
G36*
G01*
X170272500Y-62880000D02*
X169927500Y-62880000D01*
G75*
G02*
X169780000Y-62732500I0J147500D01*
G01*
X169780000Y-62437500D01*
G75*
G02*
X169927500Y-62290000I147500J0D01*
G01*
X170272500Y-62290000D01*
G75*
G02*
X170420000Y-62437500I0J-147500D01*
G01*
X170420000Y-62732500D01*
G75*
G02*
X170272500Y-62880000I-147500J0D01*
G01*
G37*
%TD*%
%TO.C,R97*%
G36*
G01*
X162427500Y-117990000D02*
X162772500Y-117990000D01*
G75*
G02*
X162920000Y-118137500I0J-147500D01*
G01*
X162920000Y-118432500D01*
G75*
G02*
X162772500Y-118580000I-147500J0D01*
G01*
X162427500Y-118580000D01*
G75*
G02*
X162280000Y-118432500I0J147500D01*
G01*
X162280000Y-118137500D01*
G75*
G02*
X162427500Y-117990000I147500J0D01*
G01*
G37*
G36*
G01*
X162427500Y-117020000D02*
X162772500Y-117020000D01*
G75*
G02*
X162920000Y-117167500I0J-147500D01*
G01*
X162920000Y-117462500D01*
G75*
G02*
X162772500Y-117610000I-147500J0D01*
G01*
X162427500Y-117610000D01*
G75*
G02*
X162280000Y-117462500I0J147500D01*
G01*
X162280000Y-117167500D01*
G75*
G02*
X162427500Y-117020000I147500J0D01*
G01*
G37*
%TD*%
%TO.C,R96*%
G36*
G01*
X149627500Y-117890000D02*
X149972500Y-117890000D01*
G75*
G02*
X150120000Y-118037500I0J-147500D01*
G01*
X150120000Y-118332500D01*
G75*
G02*
X149972500Y-118480000I-147500J0D01*
G01*
X149627500Y-118480000D01*
G75*
G02*
X149480000Y-118332500I0J147500D01*
G01*
X149480000Y-118037500D01*
G75*
G02*
X149627500Y-117890000I147500J0D01*
G01*
G37*
G36*
G01*
X149627500Y-116920000D02*
X149972500Y-116920000D01*
G75*
G02*
X150120000Y-117067500I0J-147500D01*
G01*
X150120000Y-117362500D01*
G75*
G02*
X149972500Y-117510000I-147500J0D01*
G01*
X149627500Y-117510000D01*
G75*
G02*
X149480000Y-117362500I0J147500D01*
G01*
X149480000Y-117067500D01*
G75*
G02*
X149627500Y-116920000I147500J0D01*
G01*
G37*
%TD*%
%TO.C,R95*%
G36*
G01*
X156027500Y-117890000D02*
X156372500Y-117890000D01*
G75*
G02*
X156520000Y-118037500I0J-147500D01*
G01*
X156520000Y-118332500D01*
G75*
G02*
X156372500Y-118480000I-147500J0D01*
G01*
X156027500Y-118480000D01*
G75*
G02*
X155880000Y-118332500I0J147500D01*
G01*
X155880000Y-118037500D01*
G75*
G02*
X156027500Y-117890000I147500J0D01*
G01*
G37*
G36*
G01*
X156027500Y-116920000D02*
X156372500Y-116920000D01*
G75*
G02*
X156520000Y-117067500I0J-147500D01*
G01*
X156520000Y-117362500D01*
G75*
G02*
X156372500Y-117510000I-147500J0D01*
G01*
X156027500Y-117510000D01*
G75*
G02*
X155880000Y-117362500I0J147500D01*
G01*
X155880000Y-117067500D01*
G75*
G02*
X156027500Y-116920000I147500J0D01*
G01*
G37*
%TD*%
%TO.C,R93*%
G36*
G01*
X119572500Y-66510000D02*
X119227500Y-66510000D01*
G75*
G02*
X119080000Y-66362500I0J147500D01*
G01*
X119080000Y-66067500D01*
G75*
G02*
X119227500Y-65920000I147500J0D01*
G01*
X119572500Y-65920000D01*
G75*
G02*
X119720000Y-66067500I0J-147500D01*
G01*
X119720000Y-66362500D01*
G75*
G02*
X119572500Y-66510000I-147500J0D01*
G01*
G37*
G36*
G01*
X119572500Y-67480000D02*
X119227500Y-67480000D01*
G75*
G02*
X119080000Y-67332500I0J147500D01*
G01*
X119080000Y-67037500D01*
G75*
G02*
X119227500Y-66890000I147500J0D01*
G01*
X119572500Y-66890000D01*
G75*
G02*
X119720000Y-67037500I0J-147500D01*
G01*
X119720000Y-67332500D01*
G75*
G02*
X119572500Y-67480000I-147500J0D01*
G01*
G37*
%TD*%
%TO.C,R91*%
G36*
G01*
X92872500Y-90010000D02*
X92527500Y-90010000D01*
G75*
G02*
X92380000Y-89862500I0J147500D01*
G01*
X92380000Y-89567500D01*
G75*
G02*
X92527500Y-89420000I147500J0D01*
G01*
X92872500Y-89420000D01*
G75*
G02*
X93020000Y-89567500I0J-147500D01*
G01*
X93020000Y-89862500D01*
G75*
G02*
X92872500Y-90010000I-147500J0D01*
G01*
G37*
G36*
G01*
X92872500Y-90980000D02*
X92527500Y-90980000D01*
G75*
G02*
X92380000Y-90832500I0J147500D01*
G01*
X92380000Y-90537500D01*
G75*
G02*
X92527500Y-90390000I147500J0D01*
G01*
X92872500Y-90390000D01*
G75*
G02*
X93020000Y-90537500I0J-147500D01*
G01*
X93020000Y-90832500D01*
G75*
G02*
X92872500Y-90980000I-147500J0D01*
G01*
G37*
%TD*%
%TO.C,R90*%
G36*
G01*
X126360000Y-49977500D02*
X126360000Y-50322500D01*
G75*
G02*
X126212500Y-50470000I-147500J0D01*
G01*
X125917500Y-50470000D01*
G75*
G02*
X125770000Y-50322500I0J147500D01*
G01*
X125770000Y-49977500D01*
G75*
G02*
X125917500Y-49830000I147500J0D01*
G01*
X126212500Y-49830000D01*
G75*
G02*
X126360000Y-49977500I0J-147500D01*
G01*
G37*
G36*
G01*
X127330000Y-49977500D02*
X127330000Y-50322500D01*
G75*
G02*
X127182500Y-50470000I-147500J0D01*
G01*
X126887500Y-50470000D01*
G75*
G02*
X126740000Y-50322500I0J147500D01*
G01*
X126740000Y-49977500D01*
G75*
G02*
X126887500Y-49830000I147500J0D01*
G01*
X127182500Y-49830000D01*
G75*
G02*
X127330000Y-49977500I0J-147500D01*
G01*
G37*
%TD*%
%TO.C,R85*%
G36*
G01*
X128237500Y-54680000D02*
X128582500Y-54680000D01*
G75*
G02*
X128730000Y-54827500I0J-147500D01*
G01*
X128730000Y-55122500D01*
G75*
G02*
X128582500Y-55270000I-147500J0D01*
G01*
X128237500Y-55270000D01*
G75*
G02*
X128090000Y-55122500I0J147500D01*
G01*
X128090000Y-54827500D01*
G75*
G02*
X128237500Y-54680000I147500J0D01*
G01*
G37*
G36*
G01*
X128237500Y-53710000D02*
X128582500Y-53710000D01*
G75*
G02*
X128730000Y-53857500I0J-147500D01*
G01*
X128730000Y-54152500D01*
G75*
G02*
X128582500Y-54300000I-147500J0D01*
G01*
X128237500Y-54300000D01*
G75*
G02*
X128090000Y-54152500I0J147500D01*
G01*
X128090000Y-53857500D01*
G75*
G02*
X128237500Y-53710000I147500J0D01*
G01*
G37*
%TD*%
%TO.C,R84*%
G36*
G01*
X131306071Y-54480000D02*
X131651071Y-54480000D01*
G75*
G02*
X131798571Y-54627500I0J-147500D01*
G01*
X131798571Y-54922500D01*
G75*
G02*
X131651071Y-55070000I-147500J0D01*
G01*
X131306071Y-55070000D01*
G75*
G02*
X131158571Y-54922500I0J147500D01*
G01*
X131158571Y-54627500D01*
G75*
G02*
X131306071Y-54480000I147500J0D01*
G01*
G37*
G36*
G01*
X131306071Y-53510000D02*
X131651071Y-53510000D01*
G75*
G02*
X131798571Y-53657500I0J-147500D01*
G01*
X131798571Y-53952500D01*
G75*
G02*
X131651071Y-54100000I-147500J0D01*
G01*
X131306071Y-54100000D01*
G75*
G02*
X131158571Y-53952500I0J147500D01*
G01*
X131158571Y-53657500D01*
G75*
G02*
X131306071Y-53510000I147500J0D01*
G01*
G37*
%TD*%
%TO.C,R83*%
G36*
G01*
X148227500Y-68740000D02*
X148572500Y-68740000D01*
G75*
G02*
X148720000Y-68887500I0J-147500D01*
G01*
X148720000Y-69182500D01*
G75*
G02*
X148572500Y-69330000I-147500J0D01*
G01*
X148227500Y-69330000D01*
G75*
G02*
X148080000Y-69182500I0J147500D01*
G01*
X148080000Y-68887500D01*
G75*
G02*
X148227500Y-68740000I147500J0D01*
G01*
G37*
G36*
G01*
X148227500Y-67770000D02*
X148572500Y-67770000D01*
G75*
G02*
X148720000Y-67917500I0J-147500D01*
G01*
X148720000Y-68212500D01*
G75*
G02*
X148572500Y-68360000I-147500J0D01*
G01*
X148227500Y-68360000D01*
G75*
G02*
X148080000Y-68212500I0J147500D01*
G01*
X148080000Y-67917500D01*
G75*
G02*
X148227500Y-67770000I147500J0D01*
G01*
G37*
%TD*%
%TO.C,R80*%
G36*
G01*
X146590000Y-70922500D02*
X146590000Y-70577500D01*
G75*
G02*
X146737500Y-70430000I147500J0D01*
G01*
X147032500Y-70430000D01*
G75*
G02*
X147180000Y-70577500I0J-147500D01*
G01*
X147180000Y-70922500D01*
G75*
G02*
X147032500Y-71070000I-147500J0D01*
G01*
X146737500Y-71070000D01*
G75*
G02*
X146590000Y-70922500I0J147500D01*
G01*
G37*
G36*
G01*
X145620000Y-70922500D02*
X145620000Y-70577500D01*
G75*
G02*
X145767500Y-70430000I147500J0D01*
G01*
X146062500Y-70430000D01*
G75*
G02*
X146210000Y-70577500I0J-147500D01*
G01*
X146210000Y-70922500D01*
G75*
G02*
X146062500Y-71070000I-147500J0D01*
G01*
X145767500Y-71070000D01*
G75*
G02*
X145620000Y-70922500I0J147500D01*
G01*
G37*
%TD*%
%TO.C,R79*%
G36*
G01*
X144227500Y-68740000D02*
X144572500Y-68740000D01*
G75*
G02*
X144720000Y-68887500I0J-147500D01*
G01*
X144720000Y-69182500D01*
G75*
G02*
X144572500Y-69330000I-147500J0D01*
G01*
X144227500Y-69330000D01*
G75*
G02*
X144080000Y-69182500I0J147500D01*
G01*
X144080000Y-68887500D01*
G75*
G02*
X144227500Y-68740000I147500J0D01*
G01*
G37*
G36*
G01*
X144227500Y-67770000D02*
X144572500Y-67770000D01*
G75*
G02*
X144720000Y-67917500I0J-147500D01*
G01*
X144720000Y-68212500D01*
G75*
G02*
X144572500Y-68360000I-147500J0D01*
G01*
X144227500Y-68360000D01*
G75*
G02*
X144080000Y-68212500I0J147500D01*
G01*
X144080000Y-67917500D01*
G75*
G02*
X144227500Y-67770000I147500J0D01*
G01*
G37*
%TD*%
%TO.C,R78*%
G36*
G01*
X148872500Y-105610000D02*
X148527500Y-105610000D01*
G75*
G02*
X148380000Y-105462500I0J147500D01*
G01*
X148380000Y-105167500D01*
G75*
G02*
X148527500Y-105020000I147500J0D01*
G01*
X148872500Y-105020000D01*
G75*
G02*
X149020000Y-105167500I0J-147500D01*
G01*
X149020000Y-105462500D01*
G75*
G02*
X148872500Y-105610000I-147500J0D01*
G01*
G37*
G36*
G01*
X148872500Y-106580000D02*
X148527500Y-106580000D01*
G75*
G02*
X148380000Y-106432500I0J147500D01*
G01*
X148380000Y-106137500D01*
G75*
G02*
X148527500Y-105990000I147500J0D01*
G01*
X148872500Y-105990000D01*
G75*
G02*
X149020000Y-106137500I0J-147500D01*
G01*
X149020000Y-106432500D01*
G75*
G02*
X148872500Y-106580000I-147500J0D01*
G01*
G37*
%TD*%
%TO.C,R77*%
G36*
G01*
X148872500Y-108310000D02*
X148527500Y-108310000D01*
G75*
G02*
X148380000Y-108162500I0J147500D01*
G01*
X148380000Y-107867500D01*
G75*
G02*
X148527500Y-107720000I147500J0D01*
G01*
X148872500Y-107720000D01*
G75*
G02*
X149020000Y-107867500I0J-147500D01*
G01*
X149020000Y-108162500D01*
G75*
G02*
X148872500Y-108310000I-147500J0D01*
G01*
G37*
G36*
G01*
X148872500Y-109280000D02*
X148527500Y-109280000D01*
G75*
G02*
X148380000Y-109132500I0J147500D01*
G01*
X148380000Y-108837500D01*
G75*
G02*
X148527500Y-108690000I147500J0D01*
G01*
X148872500Y-108690000D01*
G75*
G02*
X149020000Y-108837500I0J-147500D01*
G01*
X149020000Y-109132500D01*
G75*
G02*
X148872500Y-109280000I-147500J0D01*
G01*
G37*
%TD*%
%TO.C,R76*%
G36*
G01*
X132328928Y-54480000D02*
X132673928Y-54480000D01*
G75*
G02*
X132821428Y-54627500I0J-147500D01*
G01*
X132821428Y-54922500D01*
G75*
G02*
X132673928Y-55070000I-147500J0D01*
G01*
X132328928Y-55070000D01*
G75*
G02*
X132181428Y-54922500I0J147500D01*
G01*
X132181428Y-54627500D01*
G75*
G02*
X132328928Y-54480000I147500J0D01*
G01*
G37*
G36*
G01*
X132328928Y-53510000D02*
X132673928Y-53510000D01*
G75*
G02*
X132821428Y-53657500I0J-147500D01*
G01*
X132821428Y-53952500D01*
G75*
G02*
X132673928Y-54100000I-147500J0D01*
G01*
X132328928Y-54100000D01*
G75*
G02*
X132181428Y-53952500I0J147500D01*
G01*
X132181428Y-53657500D01*
G75*
G02*
X132328928Y-53510000I147500J0D01*
G01*
G37*
%TD*%
%TO.C,R75*%
G36*
G01*
X135397500Y-54680000D02*
X135742500Y-54680000D01*
G75*
G02*
X135890000Y-54827500I0J-147500D01*
G01*
X135890000Y-55122500D01*
G75*
G02*
X135742500Y-55270000I-147500J0D01*
G01*
X135397500Y-55270000D01*
G75*
G02*
X135250000Y-55122500I0J147500D01*
G01*
X135250000Y-54827500D01*
G75*
G02*
X135397500Y-54680000I147500J0D01*
G01*
G37*
G36*
G01*
X135397500Y-53710000D02*
X135742500Y-53710000D01*
G75*
G02*
X135890000Y-53857500I0J-147500D01*
G01*
X135890000Y-54152500D01*
G75*
G02*
X135742500Y-54300000I-147500J0D01*
G01*
X135397500Y-54300000D01*
G75*
G02*
X135250000Y-54152500I0J147500D01*
G01*
X135250000Y-53857500D01*
G75*
G02*
X135397500Y-53710000I147500J0D01*
G01*
G37*
%TD*%
%TO.C,R74*%
G36*
G01*
X138050000Y-57297500D02*
X138050000Y-57642500D01*
G75*
G02*
X137902500Y-57790000I-147500J0D01*
G01*
X137607500Y-57790000D01*
G75*
G02*
X137460000Y-57642500I0J147500D01*
G01*
X137460000Y-57297500D01*
G75*
G02*
X137607500Y-57150000I147500J0D01*
G01*
X137902500Y-57150000D01*
G75*
G02*
X138050000Y-57297500I0J-147500D01*
G01*
G37*
G36*
G01*
X139020000Y-57297500D02*
X139020000Y-57642500D01*
G75*
G02*
X138872500Y-57790000I-147500J0D01*
G01*
X138577500Y-57790000D01*
G75*
G02*
X138430000Y-57642500I0J147500D01*
G01*
X138430000Y-57297500D01*
G75*
G02*
X138577500Y-57150000I147500J0D01*
G01*
X138872500Y-57150000D01*
G75*
G02*
X139020000Y-57297500I0J-147500D01*
G01*
G37*
%TD*%
%TO.C,R70*%
G36*
G01*
X135742500Y-56310000D02*
X135397500Y-56310000D01*
G75*
G02*
X135250000Y-56162500I0J147500D01*
G01*
X135250000Y-55867500D01*
G75*
G02*
X135397500Y-55720000I147500J0D01*
G01*
X135742500Y-55720000D01*
G75*
G02*
X135890000Y-55867500I0J-147500D01*
G01*
X135890000Y-56162500D01*
G75*
G02*
X135742500Y-56310000I-147500J0D01*
G01*
G37*
G36*
G01*
X135742500Y-57280000D02*
X135397500Y-57280000D01*
G75*
G02*
X135250000Y-57132500I0J147500D01*
G01*
X135250000Y-56837500D01*
G75*
G02*
X135397500Y-56690000I147500J0D01*
G01*
X135742500Y-56690000D01*
G75*
G02*
X135890000Y-56837500I0J-147500D01*
G01*
X135890000Y-57132500D01*
G75*
G02*
X135742500Y-57280000I-147500J0D01*
G01*
G37*
%TD*%
%TO.C,R69*%
G36*
G01*
X132673928Y-56010000D02*
X132328928Y-56010000D01*
G75*
G02*
X132181428Y-55862500I0J147500D01*
G01*
X132181428Y-55567500D01*
G75*
G02*
X132328928Y-55420000I147500J0D01*
G01*
X132673928Y-55420000D01*
G75*
G02*
X132821428Y-55567500I0J-147500D01*
G01*
X132821428Y-55862500D01*
G75*
G02*
X132673928Y-56010000I-147500J0D01*
G01*
G37*
G36*
G01*
X132673928Y-56980000D02*
X132328928Y-56980000D01*
G75*
G02*
X132181428Y-56832500I0J147500D01*
G01*
X132181428Y-56537500D01*
G75*
G02*
X132328928Y-56390000I147500J0D01*
G01*
X132673928Y-56390000D01*
G75*
G02*
X132821428Y-56537500I0J-147500D01*
G01*
X132821428Y-56832500D01*
G75*
G02*
X132673928Y-56980000I-147500J0D01*
G01*
G37*
%TD*%
%TO.C,R66*%
G36*
G01*
X131651071Y-56010000D02*
X131306071Y-56010000D01*
G75*
G02*
X131158571Y-55862500I0J147500D01*
G01*
X131158571Y-55567500D01*
G75*
G02*
X131306071Y-55420000I147500J0D01*
G01*
X131651071Y-55420000D01*
G75*
G02*
X131798571Y-55567500I0J-147500D01*
G01*
X131798571Y-55862500D01*
G75*
G02*
X131651071Y-56010000I-147500J0D01*
G01*
G37*
G36*
G01*
X131651071Y-56980000D02*
X131306071Y-56980000D01*
G75*
G02*
X131158571Y-56832500I0J147500D01*
G01*
X131158571Y-56537500D01*
G75*
G02*
X131306071Y-56390000I147500J0D01*
G01*
X131651071Y-56390000D01*
G75*
G02*
X131798571Y-56537500I0J-147500D01*
G01*
X131798571Y-56832500D01*
G75*
G02*
X131651071Y-56980000I-147500J0D01*
G01*
G37*
%TD*%
%TO.C,R65*%
G36*
G01*
X128582500Y-56310000D02*
X128237500Y-56310000D01*
G75*
G02*
X128090000Y-56162500I0J147500D01*
G01*
X128090000Y-55867500D01*
G75*
G02*
X128237500Y-55720000I147500J0D01*
G01*
X128582500Y-55720000D01*
G75*
G02*
X128730000Y-55867500I0J-147500D01*
G01*
X128730000Y-56162500D01*
G75*
G02*
X128582500Y-56310000I-147500J0D01*
G01*
G37*
G36*
G01*
X128582500Y-57280000D02*
X128237500Y-57280000D01*
G75*
G02*
X128090000Y-57132500I0J147500D01*
G01*
X128090000Y-56837500D01*
G75*
G02*
X128237500Y-56690000I147500J0D01*
G01*
X128582500Y-56690000D01*
G75*
G02*
X128730000Y-56837500I0J-147500D01*
G01*
X128730000Y-57132500D01*
G75*
G02*
X128582500Y-57280000I-147500J0D01*
G01*
G37*
%TD*%
D56*
%TO.C,R58*%
X127000000Y-61350000D03*
X127000000Y-59950000D03*
%TD*%
%TO.C,R57*%
G36*
G01*
X139390000Y-61722500D02*
X139390000Y-61377500D01*
G75*
G02*
X139537500Y-61230000I147500J0D01*
G01*
X139832500Y-61230000D01*
G75*
G02*
X139980000Y-61377500I0J-147500D01*
G01*
X139980000Y-61722500D01*
G75*
G02*
X139832500Y-61870000I-147500J0D01*
G01*
X139537500Y-61870000D01*
G75*
G02*
X139390000Y-61722500I0J147500D01*
G01*
G37*
G36*
G01*
X138420000Y-61722500D02*
X138420000Y-61377500D01*
G75*
G02*
X138567500Y-61230000I147500J0D01*
G01*
X138862500Y-61230000D01*
G75*
G02*
X139010000Y-61377500I0J-147500D01*
G01*
X139010000Y-61722500D01*
G75*
G02*
X138862500Y-61870000I-147500J0D01*
G01*
X138567500Y-61870000D01*
G75*
G02*
X138420000Y-61722500I0J147500D01*
G01*
G37*
%TD*%
%TO.C,R54*%
G36*
G01*
X139010000Y-63427500D02*
X139010000Y-63772500D01*
G75*
G02*
X138862500Y-63920000I-147500J0D01*
G01*
X138567500Y-63920000D01*
G75*
G02*
X138420000Y-63772500I0J147500D01*
G01*
X138420000Y-63427500D01*
G75*
G02*
X138567500Y-63280000I147500J0D01*
G01*
X138862500Y-63280000D01*
G75*
G02*
X139010000Y-63427500I0J-147500D01*
G01*
G37*
G36*
G01*
X139980000Y-63427500D02*
X139980000Y-63772500D01*
G75*
G02*
X139832500Y-63920000I-147500J0D01*
G01*
X139537500Y-63920000D01*
G75*
G02*
X139390000Y-63772500I0J147500D01*
G01*
X139390000Y-63427500D01*
G75*
G02*
X139537500Y-63280000I147500J0D01*
G01*
X139832500Y-63280000D01*
G75*
G02*
X139980000Y-63427500I0J-147500D01*
G01*
G37*
%TD*%
%TO.C,R53*%
G36*
G01*
X139405000Y-62722500D02*
X139405000Y-62377500D01*
G75*
G02*
X139552500Y-62230000I147500J0D01*
G01*
X139847500Y-62230000D01*
G75*
G02*
X139995000Y-62377500I0J-147500D01*
G01*
X139995000Y-62722500D01*
G75*
G02*
X139847500Y-62870000I-147500J0D01*
G01*
X139552500Y-62870000D01*
G75*
G02*
X139405000Y-62722500I0J147500D01*
G01*
G37*
G36*
G01*
X138435000Y-62722500D02*
X138435000Y-62377500D01*
G75*
G02*
X138582500Y-62230000I147500J0D01*
G01*
X138877500Y-62230000D01*
G75*
G02*
X139025000Y-62377500I0J-147500D01*
G01*
X139025000Y-62722500D01*
G75*
G02*
X138877500Y-62870000I-147500J0D01*
G01*
X138582500Y-62870000D01*
G75*
G02*
X138435000Y-62722500I0J147500D01*
G01*
G37*
%TD*%
%TO.C,R51*%
G36*
G01*
X139010000Y-64427500D02*
X139010000Y-64772500D01*
G75*
G02*
X138862500Y-64920000I-147500J0D01*
G01*
X138567500Y-64920000D01*
G75*
G02*
X138420000Y-64772500I0J147500D01*
G01*
X138420000Y-64427500D01*
G75*
G02*
X138567500Y-64280000I147500J0D01*
G01*
X138862500Y-64280000D01*
G75*
G02*
X139010000Y-64427500I0J-147500D01*
G01*
G37*
G36*
G01*
X139980000Y-64427500D02*
X139980000Y-64772500D01*
G75*
G02*
X139832500Y-64920000I-147500J0D01*
G01*
X139537500Y-64920000D01*
G75*
G02*
X139390000Y-64772500I0J147500D01*
G01*
X139390000Y-64427500D01*
G75*
G02*
X139537500Y-64280000I147500J0D01*
G01*
X139832500Y-64280000D01*
G75*
G02*
X139980000Y-64427500I0J-147500D01*
G01*
G37*
%TD*%
%TO.C,R50*%
G36*
G01*
X139010000Y-65427500D02*
X139010000Y-65772500D01*
G75*
G02*
X138862500Y-65920000I-147500J0D01*
G01*
X138567500Y-65920000D01*
G75*
G02*
X138420000Y-65772500I0J147500D01*
G01*
X138420000Y-65427500D01*
G75*
G02*
X138567500Y-65280000I147500J0D01*
G01*
X138862500Y-65280000D01*
G75*
G02*
X139010000Y-65427500I0J-147500D01*
G01*
G37*
G36*
G01*
X139980000Y-65427500D02*
X139980000Y-65772500D01*
G75*
G02*
X139832500Y-65920000I-147500J0D01*
G01*
X139537500Y-65920000D01*
G75*
G02*
X139390000Y-65772500I0J147500D01*
G01*
X139390000Y-65427500D01*
G75*
G02*
X139537500Y-65280000I147500J0D01*
G01*
X139832500Y-65280000D01*
G75*
G02*
X139980000Y-65427500I0J-147500D01*
G01*
G37*
%TD*%
%TO.C,R49*%
G36*
G01*
X139010000Y-66427500D02*
X139010000Y-66772500D01*
G75*
G02*
X138862500Y-66920000I-147500J0D01*
G01*
X138567500Y-66920000D01*
G75*
G02*
X138420000Y-66772500I0J147500D01*
G01*
X138420000Y-66427500D01*
G75*
G02*
X138567500Y-66280000I147500J0D01*
G01*
X138862500Y-66280000D01*
G75*
G02*
X139010000Y-66427500I0J-147500D01*
G01*
G37*
G36*
G01*
X139980000Y-66427500D02*
X139980000Y-66772500D01*
G75*
G02*
X139832500Y-66920000I-147500J0D01*
G01*
X139537500Y-66920000D01*
G75*
G02*
X139390000Y-66772500I0J147500D01*
G01*
X139390000Y-66427500D01*
G75*
G02*
X139537500Y-66280000I147500J0D01*
G01*
X139832500Y-66280000D01*
G75*
G02*
X139980000Y-66427500I0J-147500D01*
G01*
G37*
%TD*%
%TO.C,R44*%
G36*
G01*
X123360000Y-120127500D02*
X123360000Y-120472500D01*
G75*
G02*
X123212500Y-120620000I-147500J0D01*
G01*
X122917500Y-120620000D01*
G75*
G02*
X122770000Y-120472500I0J147500D01*
G01*
X122770000Y-120127500D01*
G75*
G02*
X122917500Y-119980000I147500J0D01*
G01*
X123212500Y-119980000D01*
G75*
G02*
X123360000Y-120127500I0J-147500D01*
G01*
G37*
G36*
G01*
X124330000Y-120127500D02*
X124330000Y-120472500D01*
G75*
G02*
X124182500Y-120620000I-147500J0D01*
G01*
X123887500Y-120620000D01*
G75*
G02*
X123740000Y-120472500I0J147500D01*
G01*
X123740000Y-120127500D01*
G75*
G02*
X123887500Y-119980000I147500J0D01*
G01*
X124182500Y-119980000D01*
G75*
G02*
X124330000Y-120127500I0J-147500D01*
G01*
G37*
%TD*%
%TO.C,R43*%
G36*
G01*
X123360000Y-119127500D02*
X123360000Y-119472500D01*
G75*
G02*
X123212500Y-119620000I-147500J0D01*
G01*
X122917500Y-119620000D01*
G75*
G02*
X122770000Y-119472500I0J147500D01*
G01*
X122770000Y-119127500D01*
G75*
G02*
X122917500Y-118980000I147500J0D01*
G01*
X123212500Y-118980000D01*
G75*
G02*
X123360000Y-119127500I0J-147500D01*
G01*
G37*
G36*
G01*
X124330000Y-119127500D02*
X124330000Y-119472500D01*
G75*
G02*
X124182500Y-119620000I-147500J0D01*
G01*
X123887500Y-119620000D01*
G75*
G02*
X123740000Y-119472500I0J147500D01*
G01*
X123740000Y-119127500D01*
G75*
G02*
X123887500Y-118980000I147500J0D01*
G01*
X124182500Y-118980000D01*
G75*
G02*
X124330000Y-119127500I0J-147500D01*
G01*
G37*
%TD*%
%TO.C,R42*%
G36*
G01*
X121410000Y-118427500D02*
X121410000Y-118772500D01*
G75*
G02*
X121262500Y-118920000I-147500J0D01*
G01*
X120967500Y-118920000D01*
G75*
G02*
X120820000Y-118772500I0J147500D01*
G01*
X120820000Y-118427500D01*
G75*
G02*
X120967500Y-118280000I147500J0D01*
G01*
X121262500Y-118280000D01*
G75*
G02*
X121410000Y-118427500I0J-147500D01*
G01*
G37*
G36*
G01*
X122380000Y-118427500D02*
X122380000Y-118772500D01*
G75*
G02*
X122232500Y-118920000I-147500J0D01*
G01*
X121937500Y-118920000D01*
G75*
G02*
X121790000Y-118772500I0J147500D01*
G01*
X121790000Y-118427500D01*
G75*
G02*
X121937500Y-118280000I147500J0D01*
G01*
X122232500Y-118280000D01*
G75*
G02*
X122380000Y-118427500I0J-147500D01*
G01*
G37*
%TD*%
%TO.C,R41*%
G36*
G01*
X121410000Y-117427500D02*
X121410000Y-117772500D01*
G75*
G02*
X121262500Y-117920000I-147500J0D01*
G01*
X120967500Y-117920000D01*
G75*
G02*
X120820000Y-117772500I0J147500D01*
G01*
X120820000Y-117427500D01*
G75*
G02*
X120967500Y-117280000I147500J0D01*
G01*
X121262500Y-117280000D01*
G75*
G02*
X121410000Y-117427500I0J-147500D01*
G01*
G37*
G36*
G01*
X122380000Y-117427500D02*
X122380000Y-117772500D01*
G75*
G02*
X122232500Y-117920000I-147500J0D01*
G01*
X121937500Y-117920000D01*
G75*
G02*
X121790000Y-117772500I0J147500D01*
G01*
X121790000Y-117427500D01*
G75*
G02*
X121937500Y-117280000I147500J0D01*
G01*
X122232500Y-117280000D01*
G75*
G02*
X122380000Y-117427500I0J-147500D01*
G01*
G37*
%TD*%
%TO.C,R40*%
G36*
G01*
X123927500Y-117140000D02*
X124272500Y-117140000D01*
G75*
G02*
X124420000Y-117287500I0J-147500D01*
G01*
X124420000Y-117582500D01*
G75*
G02*
X124272500Y-117730000I-147500J0D01*
G01*
X123927500Y-117730000D01*
G75*
G02*
X123780000Y-117582500I0J147500D01*
G01*
X123780000Y-117287500D01*
G75*
G02*
X123927500Y-117140000I147500J0D01*
G01*
G37*
G36*
G01*
X123927500Y-116170000D02*
X124272500Y-116170000D01*
G75*
G02*
X124420000Y-116317500I0J-147500D01*
G01*
X124420000Y-116612500D01*
G75*
G02*
X124272500Y-116760000I-147500J0D01*
G01*
X123927500Y-116760000D01*
G75*
G02*
X123780000Y-116612500I0J147500D01*
G01*
X123780000Y-116317500D01*
G75*
G02*
X123927500Y-116170000I147500J0D01*
G01*
G37*
%TD*%
%TO.C,R39*%
G36*
G01*
X132210000Y-120927500D02*
X132210000Y-121272500D01*
G75*
G02*
X132062500Y-121420000I-147500J0D01*
G01*
X131767500Y-121420000D01*
G75*
G02*
X131620000Y-121272500I0J147500D01*
G01*
X131620000Y-120927500D01*
G75*
G02*
X131767500Y-120780000I147500J0D01*
G01*
X132062500Y-120780000D01*
G75*
G02*
X132210000Y-120927500I0J-147500D01*
G01*
G37*
G36*
G01*
X133180000Y-120927500D02*
X133180000Y-121272500D01*
G75*
G02*
X133032500Y-121420000I-147500J0D01*
G01*
X132737500Y-121420000D01*
G75*
G02*
X132590000Y-121272500I0J147500D01*
G01*
X132590000Y-120927500D01*
G75*
G02*
X132737500Y-120780000I147500J0D01*
G01*
X133032500Y-120780000D01*
G75*
G02*
X133180000Y-120927500I0J-147500D01*
G01*
G37*
%TD*%
%TO.C,R38*%
G36*
G01*
X133072500Y-117460000D02*
X132727500Y-117460000D01*
G75*
G02*
X132580000Y-117312500I0J147500D01*
G01*
X132580000Y-117017500D01*
G75*
G02*
X132727500Y-116870000I147500J0D01*
G01*
X133072500Y-116870000D01*
G75*
G02*
X133220000Y-117017500I0J-147500D01*
G01*
X133220000Y-117312500D01*
G75*
G02*
X133072500Y-117460000I-147500J0D01*
G01*
G37*
G36*
G01*
X133072500Y-118430000D02*
X132727500Y-118430000D01*
G75*
G02*
X132580000Y-118282500I0J147500D01*
G01*
X132580000Y-117987500D01*
G75*
G02*
X132727500Y-117840000I147500J0D01*
G01*
X133072500Y-117840000D01*
G75*
G02*
X133220000Y-117987500I0J-147500D01*
G01*
X133220000Y-118282500D01*
G75*
G02*
X133072500Y-118430000I-147500J0D01*
G01*
G37*
%TD*%
%TO.C,R37*%
G36*
G01*
X132590000Y-120272500D02*
X132590000Y-119927500D01*
G75*
G02*
X132737500Y-119780000I147500J0D01*
G01*
X133032500Y-119780000D01*
G75*
G02*
X133180000Y-119927500I0J-147500D01*
G01*
X133180000Y-120272500D01*
G75*
G02*
X133032500Y-120420000I-147500J0D01*
G01*
X132737500Y-120420000D01*
G75*
G02*
X132590000Y-120272500I0J147500D01*
G01*
G37*
G36*
G01*
X131620000Y-120272500D02*
X131620000Y-119927500D01*
G75*
G02*
X131767500Y-119780000I147500J0D01*
G01*
X132062500Y-119780000D01*
G75*
G02*
X132210000Y-119927500I0J-147500D01*
G01*
X132210000Y-120272500D01*
G75*
G02*
X132062500Y-120420000I-147500J0D01*
G01*
X131767500Y-120420000D01*
G75*
G02*
X131620000Y-120272500I0J147500D01*
G01*
G37*
%TD*%
%TO.C,R36*%
G36*
G01*
X132590000Y-119272500D02*
X132590000Y-118927500D01*
G75*
G02*
X132737500Y-118780000I147500J0D01*
G01*
X133032500Y-118780000D01*
G75*
G02*
X133180000Y-118927500I0J-147500D01*
G01*
X133180000Y-119272500D01*
G75*
G02*
X133032500Y-119420000I-147500J0D01*
G01*
X132737500Y-119420000D01*
G75*
G02*
X132590000Y-119272500I0J147500D01*
G01*
G37*
G36*
G01*
X131620000Y-119272500D02*
X131620000Y-118927500D01*
G75*
G02*
X131767500Y-118780000I147500J0D01*
G01*
X132062500Y-118780000D01*
G75*
G02*
X132210000Y-118927500I0J-147500D01*
G01*
X132210000Y-119272500D01*
G75*
G02*
X132062500Y-119420000I-147500J0D01*
G01*
X131767500Y-119420000D01*
G75*
G02*
X131620000Y-119272500I0J147500D01*
G01*
G37*
%TD*%
%TO.C,R35*%
G36*
G01*
X136590000Y-118272500D02*
X136590000Y-117927500D01*
G75*
G02*
X136737500Y-117780000I147500J0D01*
G01*
X137032500Y-117780000D01*
G75*
G02*
X137180000Y-117927500I0J-147500D01*
G01*
X137180000Y-118272500D01*
G75*
G02*
X137032500Y-118420000I-147500J0D01*
G01*
X136737500Y-118420000D01*
G75*
G02*
X136590000Y-118272500I0J147500D01*
G01*
G37*
G36*
G01*
X135620000Y-118272500D02*
X135620000Y-117927500D01*
G75*
G02*
X135767500Y-117780000I147500J0D01*
G01*
X136062500Y-117780000D01*
G75*
G02*
X136210000Y-117927500I0J-147500D01*
G01*
X136210000Y-118272500D01*
G75*
G02*
X136062500Y-118420000I-147500J0D01*
G01*
X135767500Y-118420000D01*
G75*
G02*
X135620000Y-118272500I0J147500D01*
G01*
G37*
%TD*%
%TO.C,R34*%
G36*
G01*
X137727500Y-120790000D02*
X138072500Y-120790000D01*
G75*
G02*
X138220000Y-120937500I0J-147500D01*
G01*
X138220000Y-121232500D01*
G75*
G02*
X138072500Y-121380000I-147500J0D01*
G01*
X137727500Y-121380000D01*
G75*
G02*
X137580000Y-121232500I0J147500D01*
G01*
X137580000Y-120937500D01*
G75*
G02*
X137727500Y-120790000I147500J0D01*
G01*
G37*
G36*
G01*
X137727500Y-119820000D02*
X138072500Y-119820000D01*
G75*
G02*
X138220000Y-119967500I0J-147500D01*
G01*
X138220000Y-120262500D01*
G75*
G02*
X138072500Y-120410000I-147500J0D01*
G01*
X137727500Y-120410000D01*
G75*
G02*
X137580000Y-120262500I0J147500D01*
G01*
X137580000Y-119967500D01*
G75*
G02*
X137727500Y-119820000I147500J0D01*
G01*
G37*
%TD*%
%TO.C,R33*%
G36*
G01*
X138072500Y-118410000D02*
X137727500Y-118410000D01*
G75*
G02*
X137580000Y-118262500I0J147500D01*
G01*
X137580000Y-117967500D01*
G75*
G02*
X137727500Y-117820000I147500J0D01*
G01*
X138072500Y-117820000D01*
G75*
G02*
X138220000Y-117967500I0J-147500D01*
G01*
X138220000Y-118262500D01*
G75*
G02*
X138072500Y-118410000I-147500J0D01*
G01*
G37*
G36*
G01*
X138072500Y-119380000D02*
X137727500Y-119380000D01*
G75*
G02*
X137580000Y-119232500I0J147500D01*
G01*
X137580000Y-118937500D01*
G75*
G02*
X137727500Y-118790000I147500J0D01*
G01*
X138072500Y-118790000D01*
G75*
G02*
X138220000Y-118937500I0J-147500D01*
G01*
X138220000Y-119232500D01*
G75*
G02*
X138072500Y-119380000I-147500J0D01*
G01*
G37*
%TD*%
%TO.C,R32*%
G36*
G01*
X167210000Y-114627500D02*
X167210000Y-114972500D01*
G75*
G02*
X167062500Y-115120000I-147500J0D01*
G01*
X166767500Y-115120000D01*
G75*
G02*
X166620000Y-114972500I0J147500D01*
G01*
X166620000Y-114627500D01*
G75*
G02*
X166767500Y-114480000I147500J0D01*
G01*
X167062500Y-114480000D01*
G75*
G02*
X167210000Y-114627500I0J-147500D01*
G01*
G37*
G36*
G01*
X168180000Y-114627500D02*
X168180000Y-114972500D01*
G75*
G02*
X168032500Y-115120000I-147500J0D01*
G01*
X167737500Y-115120000D01*
G75*
G02*
X167590000Y-114972500I0J147500D01*
G01*
X167590000Y-114627500D01*
G75*
G02*
X167737500Y-114480000I147500J0D01*
G01*
X168032500Y-114480000D01*
G75*
G02*
X168180000Y-114627500I0J-147500D01*
G01*
G37*
%TD*%
%TO.C,R31*%
G36*
G01*
X160790000Y-105672500D02*
X160790000Y-105327500D01*
G75*
G02*
X160937500Y-105180000I147500J0D01*
G01*
X161232500Y-105180000D01*
G75*
G02*
X161380000Y-105327500I0J-147500D01*
G01*
X161380000Y-105672500D01*
G75*
G02*
X161232500Y-105820000I-147500J0D01*
G01*
X160937500Y-105820000D01*
G75*
G02*
X160790000Y-105672500I0J147500D01*
G01*
G37*
G36*
G01*
X159820000Y-105672500D02*
X159820000Y-105327500D01*
G75*
G02*
X159967500Y-105180000I147500J0D01*
G01*
X160262500Y-105180000D01*
G75*
G02*
X160410000Y-105327500I0J-147500D01*
G01*
X160410000Y-105672500D01*
G75*
G02*
X160262500Y-105820000I-147500J0D01*
G01*
X159967500Y-105820000D01*
G75*
G02*
X159820000Y-105672500I0J147500D01*
G01*
G37*
%TD*%
%TO.C,R30*%
G36*
G01*
X158790000Y-105672500D02*
X158790000Y-105327500D01*
G75*
G02*
X158937500Y-105180000I147500J0D01*
G01*
X159232500Y-105180000D01*
G75*
G02*
X159380000Y-105327500I0J-147500D01*
G01*
X159380000Y-105672500D01*
G75*
G02*
X159232500Y-105820000I-147500J0D01*
G01*
X158937500Y-105820000D01*
G75*
G02*
X158790000Y-105672500I0J147500D01*
G01*
G37*
G36*
G01*
X157820000Y-105672500D02*
X157820000Y-105327500D01*
G75*
G02*
X157967500Y-105180000I147500J0D01*
G01*
X158262500Y-105180000D01*
G75*
G02*
X158410000Y-105327500I0J-147500D01*
G01*
X158410000Y-105672500D01*
G75*
G02*
X158262500Y-105820000I-147500J0D01*
G01*
X157967500Y-105820000D01*
G75*
G02*
X157820000Y-105672500I0J147500D01*
G01*
G37*
%TD*%
%TO.C,R27*%
G36*
G01*
X165272500Y-113110000D02*
X164927500Y-113110000D01*
G75*
G02*
X164780000Y-112962500I0J147500D01*
G01*
X164780000Y-112667500D01*
G75*
G02*
X164927500Y-112520000I147500J0D01*
G01*
X165272500Y-112520000D01*
G75*
G02*
X165420000Y-112667500I0J-147500D01*
G01*
X165420000Y-112962500D01*
G75*
G02*
X165272500Y-113110000I-147500J0D01*
G01*
G37*
G36*
G01*
X165272500Y-114080000D02*
X164927500Y-114080000D01*
G75*
G02*
X164780000Y-113932500I0J147500D01*
G01*
X164780000Y-113637500D01*
G75*
G02*
X164927500Y-113490000I147500J0D01*
G01*
X165272500Y-113490000D01*
G75*
G02*
X165420000Y-113637500I0J-147500D01*
G01*
X165420000Y-113932500D01*
G75*
G02*
X165272500Y-114080000I-147500J0D01*
G01*
G37*
%TD*%
%TO.C,R26*%
G36*
G01*
X162790000Y-111822500D02*
X162790000Y-111477500D01*
G75*
G02*
X162937500Y-111330000I147500J0D01*
G01*
X163232500Y-111330000D01*
G75*
G02*
X163380000Y-111477500I0J-147500D01*
G01*
X163380000Y-111822500D01*
G75*
G02*
X163232500Y-111970000I-147500J0D01*
G01*
X162937500Y-111970000D01*
G75*
G02*
X162790000Y-111822500I0J147500D01*
G01*
G37*
G36*
G01*
X161820000Y-111822500D02*
X161820000Y-111477500D01*
G75*
G02*
X161967500Y-111330000I147500J0D01*
G01*
X162262500Y-111330000D01*
G75*
G02*
X162410000Y-111477500I0J-147500D01*
G01*
X162410000Y-111822500D01*
G75*
G02*
X162262500Y-111970000I-147500J0D01*
G01*
X161967500Y-111970000D01*
G75*
G02*
X161820000Y-111822500I0J147500D01*
G01*
G37*
%TD*%
%TO.C,R25*%
G36*
G01*
X164272500Y-113110000D02*
X163927500Y-113110000D01*
G75*
G02*
X163780000Y-112962500I0J147500D01*
G01*
X163780000Y-112667500D01*
G75*
G02*
X163927500Y-112520000I147500J0D01*
G01*
X164272500Y-112520000D01*
G75*
G02*
X164420000Y-112667500I0J-147500D01*
G01*
X164420000Y-112962500D01*
G75*
G02*
X164272500Y-113110000I-147500J0D01*
G01*
G37*
G36*
G01*
X164272500Y-114080000D02*
X163927500Y-114080000D01*
G75*
G02*
X163780000Y-113932500I0J147500D01*
G01*
X163780000Y-113637500D01*
G75*
G02*
X163927500Y-113490000I147500J0D01*
G01*
X164272500Y-113490000D01*
G75*
G02*
X164420000Y-113637500I0J-147500D01*
G01*
X164420000Y-113932500D01*
G75*
G02*
X164272500Y-114080000I-147500J0D01*
G01*
G37*
%TD*%
%TO.C,R24*%
G36*
G01*
X155760000Y-115027500D02*
X155760000Y-115372500D01*
G75*
G02*
X155612500Y-115520000I-147500J0D01*
G01*
X155317500Y-115520000D01*
G75*
G02*
X155170000Y-115372500I0J147500D01*
G01*
X155170000Y-115027500D01*
G75*
G02*
X155317500Y-114880000I147500J0D01*
G01*
X155612500Y-114880000D01*
G75*
G02*
X155760000Y-115027500I0J-147500D01*
G01*
G37*
G36*
G01*
X156730000Y-115027500D02*
X156730000Y-115372500D01*
G75*
G02*
X156582500Y-115520000I-147500J0D01*
G01*
X156287500Y-115520000D01*
G75*
G02*
X156140000Y-115372500I0J147500D01*
G01*
X156140000Y-115027500D01*
G75*
G02*
X156287500Y-114880000I147500J0D01*
G01*
X156582500Y-114880000D01*
G75*
G02*
X156730000Y-115027500I0J-147500D01*
G01*
G37*
%TD*%
%TO.C,R23*%
G36*
G01*
X158010000Y-111477500D02*
X158010000Y-111822500D01*
G75*
G02*
X157862500Y-111970000I-147500J0D01*
G01*
X157567500Y-111970000D01*
G75*
G02*
X157420000Y-111822500I0J147500D01*
G01*
X157420000Y-111477500D01*
G75*
G02*
X157567500Y-111330000I147500J0D01*
G01*
X157862500Y-111330000D01*
G75*
G02*
X158010000Y-111477500I0J-147500D01*
G01*
G37*
G36*
G01*
X158980000Y-111477500D02*
X158980000Y-111822500D01*
G75*
G02*
X158832500Y-111970000I-147500J0D01*
G01*
X158537500Y-111970000D01*
G75*
G02*
X158390000Y-111822500I0J147500D01*
G01*
X158390000Y-111477500D01*
G75*
G02*
X158537500Y-111330000I147500J0D01*
G01*
X158832500Y-111330000D01*
G75*
G02*
X158980000Y-111477500I0J-147500D01*
G01*
G37*
%TD*%
%TO.C,R22*%
G36*
G01*
X155572500Y-113560000D02*
X155227500Y-113560000D01*
G75*
G02*
X155080000Y-113412500I0J147500D01*
G01*
X155080000Y-113117500D01*
G75*
G02*
X155227500Y-112970000I147500J0D01*
G01*
X155572500Y-112970000D01*
G75*
G02*
X155720000Y-113117500I0J-147500D01*
G01*
X155720000Y-113412500D01*
G75*
G02*
X155572500Y-113560000I-147500J0D01*
G01*
G37*
G36*
G01*
X155572500Y-114530000D02*
X155227500Y-114530000D01*
G75*
G02*
X155080000Y-114382500I0J147500D01*
G01*
X155080000Y-114087500D01*
G75*
G02*
X155227500Y-113940000I147500J0D01*
G01*
X155572500Y-113940000D01*
G75*
G02*
X155720000Y-114087500I0J-147500D01*
G01*
X155720000Y-114382500D01*
G75*
G02*
X155572500Y-114530000I-147500J0D01*
G01*
G37*
%TD*%
%TO.C,R21*%
G36*
G01*
X154572500Y-113560000D02*
X154227500Y-113560000D01*
G75*
G02*
X154080000Y-113412500I0J147500D01*
G01*
X154080000Y-113117500D01*
G75*
G02*
X154227500Y-112970000I147500J0D01*
G01*
X154572500Y-112970000D01*
G75*
G02*
X154720000Y-113117500I0J-147500D01*
G01*
X154720000Y-113412500D01*
G75*
G02*
X154572500Y-113560000I-147500J0D01*
G01*
G37*
G36*
G01*
X154572500Y-114530000D02*
X154227500Y-114530000D01*
G75*
G02*
X154080000Y-114382500I0J147500D01*
G01*
X154080000Y-114087500D01*
G75*
G02*
X154227500Y-113940000I147500J0D01*
G01*
X154572500Y-113940000D01*
G75*
G02*
X154720000Y-114087500I0J-147500D01*
G01*
X154720000Y-114382500D01*
G75*
G02*
X154572500Y-114530000I-147500J0D01*
G01*
G37*
%TD*%
%TO.C,R20*%
G36*
G01*
X161140000Y-106972500D02*
X161140000Y-106627500D01*
G75*
G02*
X161287500Y-106480000I147500J0D01*
G01*
X161582500Y-106480000D01*
G75*
G02*
X161730000Y-106627500I0J-147500D01*
G01*
X161730000Y-106972500D01*
G75*
G02*
X161582500Y-107120000I-147500J0D01*
G01*
X161287500Y-107120000D01*
G75*
G02*
X161140000Y-106972500I0J147500D01*
G01*
G37*
G36*
G01*
X160170000Y-106972500D02*
X160170000Y-106627500D01*
G75*
G02*
X160317500Y-106480000I147500J0D01*
G01*
X160612500Y-106480000D01*
G75*
G02*
X160760000Y-106627500I0J-147500D01*
G01*
X160760000Y-106972500D01*
G75*
G02*
X160612500Y-107120000I-147500J0D01*
G01*
X160317500Y-107120000D01*
G75*
G02*
X160170000Y-106972500I0J147500D01*
G01*
G37*
%TD*%
%TO.C,R19*%
G36*
G01*
X160622500Y-108195000D02*
X160277500Y-108195000D01*
G75*
G02*
X160130000Y-108047500I0J147500D01*
G01*
X160130000Y-107752500D01*
G75*
G02*
X160277500Y-107605000I147500J0D01*
G01*
X160622500Y-107605000D01*
G75*
G02*
X160770000Y-107752500I0J-147500D01*
G01*
X160770000Y-108047500D01*
G75*
G02*
X160622500Y-108195000I-147500J0D01*
G01*
G37*
G36*
G01*
X160622500Y-109165000D02*
X160277500Y-109165000D01*
G75*
G02*
X160130000Y-109017500I0J147500D01*
G01*
X160130000Y-108722500D01*
G75*
G02*
X160277500Y-108575000I147500J0D01*
G01*
X160622500Y-108575000D01*
G75*
G02*
X160770000Y-108722500I0J-147500D01*
G01*
X160770000Y-109017500D01*
G75*
G02*
X160622500Y-109165000I-147500J0D01*
G01*
G37*
%TD*%
%TO.C,R16*%
G36*
G01*
X167190000Y-101972500D02*
X167190000Y-101627500D01*
G75*
G02*
X167337500Y-101480000I147500J0D01*
G01*
X167632500Y-101480000D01*
G75*
G02*
X167780000Y-101627500I0J-147500D01*
G01*
X167780000Y-101972500D01*
G75*
G02*
X167632500Y-102120000I-147500J0D01*
G01*
X167337500Y-102120000D01*
G75*
G02*
X167190000Y-101972500I0J147500D01*
G01*
G37*
G36*
G01*
X166220000Y-101972500D02*
X166220000Y-101627500D01*
G75*
G02*
X166367500Y-101480000I147500J0D01*
G01*
X166662500Y-101480000D01*
G75*
G02*
X166810000Y-101627500I0J-147500D01*
G01*
X166810000Y-101972500D01*
G75*
G02*
X166662500Y-102120000I-147500J0D01*
G01*
X166367500Y-102120000D01*
G75*
G02*
X166220000Y-101972500I0J147500D01*
G01*
G37*
%TD*%
%TO.C,R15*%
G36*
G01*
X159110000Y-68027500D02*
X159110000Y-68372500D01*
G75*
G02*
X158962500Y-68520000I-147500J0D01*
G01*
X158667500Y-68520000D01*
G75*
G02*
X158520000Y-68372500I0J147500D01*
G01*
X158520000Y-68027500D01*
G75*
G02*
X158667500Y-67880000I147500J0D01*
G01*
X158962500Y-67880000D01*
G75*
G02*
X159110000Y-68027500I0J-147500D01*
G01*
G37*
G36*
G01*
X160080000Y-68027500D02*
X160080000Y-68372500D01*
G75*
G02*
X159932500Y-68520000I-147500J0D01*
G01*
X159637500Y-68520000D01*
G75*
G02*
X159490000Y-68372500I0J147500D01*
G01*
X159490000Y-68027500D01*
G75*
G02*
X159637500Y-67880000I147500J0D01*
G01*
X159932500Y-67880000D01*
G75*
G02*
X160080000Y-68027500I0J-147500D01*
G01*
G37*
%TD*%
%TO.C,R3*%
G36*
G01*
X121827500Y-63890000D02*
X122172500Y-63890000D01*
G75*
G02*
X122320000Y-64037500I0J-147500D01*
G01*
X122320000Y-64332500D01*
G75*
G02*
X122172500Y-64480000I-147500J0D01*
G01*
X121827500Y-64480000D01*
G75*
G02*
X121680000Y-64332500I0J147500D01*
G01*
X121680000Y-64037500D01*
G75*
G02*
X121827500Y-63890000I147500J0D01*
G01*
G37*
G36*
G01*
X121827500Y-62920000D02*
X122172500Y-62920000D01*
G75*
G02*
X122320000Y-63067500I0J-147500D01*
G01*
X122320000Y-63362500D01*
G75*
G02*
X122172500Y-63510000I-147500J0D01*
G01*
X121827500Y-63510000D01*
G75*
G02*
X121680000Y-63362500I0J147500D01*
G01*
X121680000Y-63067500D01*
G75*
G02*
X121827500Y-62920000I147500J0D01*
G01*
G37*
%TD*%
%TO.C,R2*%
G36*
G01*
X120827500Y-63890000D02*
X121172500Y-63890000D01*
G75*
G02*
X121320000Y-64037500I0J-147500D01*
G01*
X121320000Y-64332500D01*
G75*
G02*
X121172500Y-64480000I-147500J0D01*
G01*
X120827500Y-64480000D01*
G75*
G02*
X120680000Y-64332500I0J147500D01*
G01*
X120680000Y-64037500D01*
G75*
G02*
X120827500Y-63890000I147500J0D01*
G01*
G37*
G36*
G01*
X120827500Y-62920000D02*
X121172500Y-62920000D01*
G75*
G02*
X121320000Y-63067500I0J-147500D01*
G01*
X121320000Y-63362500D01*
G75*
G02*
X121172500Y-63510000I-147500J0D01*
G01*
X120827500Y-63510000D01*
G75*
G02*
X120680000Y-63362500I0J147500D01*
G01*
X120680000Y-63067500D01*
G75*
G02*
X120827500Y-62920000I147500J0D01*
G01*
G37*
%TD*%
D67*
%TO.C,Q8*%
X85950000Y-65900000D03*
X84050000Y-65900000D03*
X85000000Y-68000000D03*
%TD*%
%TO.C,Q7*%
X85950000Y-62000000D03*
X84050000Y-62000000D03*
X85000000Y-64100000D03*
%TD*%
D46*
%TO.C,Q6*%
X147650000Y-106450000D03*
X147650000Y-105150000D03*
X145750000Y-105800000D03*
%TD*%
%TO.C,Q5*%
X147650000Y-109150000D03*
X147650000Y-107850000D03*
X145750000Y-108500000D03*
%TD*%
%TO.C,Q4*%
X145450000Y-68200000D03*
X145450000Y-69500000D03*
X147350000Y-68850000D03*
%TD*%
D68*
%TO.C,Q3*%
X137490000Y-56490000D03*
X138790000Y-56490000D03*
X138140000Y-54590000D03*
%TD*%
D69*
%TO.C,Q2*%
X166400000Y-111350000D03*
X166400000Y-113250000D03*
X168500000Y-112300000D03*
%TD*%
D68*
%TO.C,Q1*%
X170050000Y-99650000D03*
X168750000Y-99650000D03*
X169400000Y-101550000D03*
%TD*%
D70*
%TO.C,L22*%
X82600000Y-57690000D03*
X82600000Y-57210000D03*
X83100000Y-57690000D03*
X83100000Y-57210000D03*
%TD*%
D71*
%TO.C,L19*%
X133770000Y-53530000D03*
X134250000Y-53530000D03*
X133770000Y-54030000D03*
X134250000Y-54030000D03*
%TD*%
%TO.C,L17*%
X129710000Y-53600000D03*
X130190000Y-53600000D03*
X129710000Y-54100000D03*
X130190000Y-54100000D03*
%TD*%
D55*
%TO.C,L4*%
X152315000Y-108400000D03*
X154685000Y-108400000D03*
%TD*%
D72*
%TO.C,J5*%
X92700000Y-87300000D03*
D73*
X91225000Y-85800000D03*
X94175000Y-85800000D03*
%TD*%
D74*
%TO.C,IC1*%
X162700000Y-68800000D03*
X163500000Y-68800000D03*
X164300000Y-68800000D03*
X161900000Y-68800000D03*
X161100000Y-68800000D03*
X161100000Y-64800000D03*
X161900000Y-64800000D03*
X164300000Y-64800000D03*
X163500000Y-64800000D03*
X162700000Y-64800000D03*
D75*
X162700000Y-66800000D03*
%TD*%
D48*
%TO.C,D20*%
X80150000Y-51512500D03*
X81150000Y-51512500D03*
X80650000Y-51512500D03*
X81650000Y-51512500D03*
X79650000Y-51512500D03*
X81650000Y-52287500D03*
X81150000Y-52287500D03*
X80650000Y-52287500D03*
X80150000Y-52287500D03*
X79650000Y-52287500D03*
%TD*%
D38*
%TO.C,D19*%
X172500000Y-111450000D03*
X171000000Y-111450000D03*
%TD*%
%TO.C,D18*%
X147450000Y-113950000D03*
X145950000Y-113950000D03*
%TD*%
%TO.C,D17*%
X150400000Y-106850000D03*
X150400000Y-105350000D03*
%TD*%
%TO.C,D15*%
X147450000Y-112450000D03*
X145950000Y-112450000D03*
%TD*%
%TO.C,D14*%
X171350000Y-62100000D03*
X172850000Y-62100000D03*
%TD*%
%TO.C,D13*%
G36*
G01*
X162325000Y-120335000D02*
X162875000Y-120335000D01*
G75*
G02*
X162950000Y-120410000I0J-75000D01*
G01*
X162950000Y-120560000D01*
G75*
G02*
X162875000Y-120635000I-75000J0D01*
G01*
X162325000Y-120635000D01*
G75*
G02*
X162250000Y-120560000I0J75000D01*
G01*
X162250000Y-120410000D01*
G75*
G02*
X162325000Y-120335000I75000J0D01*
G01*
G37*
G36*
G01*
X162324900Y-119135000D02*
X162875100Y-119135000D01*
G75*
G02*
X162950000Y-119209900I0J-74900D01*
G01*
X162950000Y-119990100D01*
G75*
G02*
X162875100Y-120065000I-74900J0D01*
G01*
X162324900Y-120065000D01*
G75*
G02*
X162250000Y-119990100I0J74900D01*
G01*
X162250000Y-119209900D01*
G75*
G02*
X162324900Y-119135000I74900J0D01*
G01*
G37*
%TD*%
%TO.C,D12*%
G36*
G01*
X149525000Y-120250000D02*
X150075000Y-120250000D01*
G75*
G02*
X150150000Y-120325000I0J-75000D01*
G01*
X150150000Y-120475000D01*
G75*
G02*
X150075000Y-120550000I-75000J0D01*
G01*
X149525000Y-120550000D01*
G75*
G02*
X149450000Y-120475000I0J75000D01*
G01*
X149450000Y-120325000D01*
G75*
G02*
X149525000Y-120250000I75000J0D01*
G01*
G37*
G36*
G01*
X149524900Y-119050000D02*
X150075100Y-119050000D01*
G75*
G02*
X150150000Y-119124900I0J-74900D01*
G01*
X150150000Y-119905100D01*
G75*
G02*
X150075100Y-119980000I-74900J0D01*
G01*
X149524900Y-119980000D01*
G75*
G02*
X149450000Y-119905100I0J74900D01*
G01*
X149450000Y-119124900D01*
G75*
G02*
X149524900Y-119050000I74900J0D01*
G01*
G37*
%TD*%
%TO.C,D11*%
G36*
G01*
X155925000Y-120235000D02*
X156475000Y-120235000D01*
G75*
G02*
X156550000Y-120310000I0J-75000D01*
G01*
X156550000Y-120460000D01*
G75*
G02*
X156475000Y-120535000I-75000J0D01*
G01*
X155925000Y-120535000D01*
G75*
G02*
X155850000Y-120460000I0J75000D01*
G01*
X155850000Y-120310000D01*
G75*
G02*
X155925000Y-120235000I75000J0D01*
G01*
G37*
G36*
G01*
X155924900Y-119035000D02*
X156475100Y-119035000D01*
G75*
G02*
X156550000Y-119109900I0J-74900D01*
G01*
X156550000Y-119890100D01*
G75*
G02*
X156475100Y-119965000I-74900J0D01*
G01*
X155924900Y-119965000D01*
G75*
G02*
X155850000Y-119890100I0J74900D01*
G01*
X155850000Y-119109900D01*
G75*
G02*
X155924900Y-119035000I74900J0D01*
G01*
G37*
%TD*%
D76*
%TO.C,D5*%
X102156000Y-118340000D03*
X102156000Y-120460000D03*
%TD*%
%TO.C,D4*%
X109756000Y-118340000D03*
X109756000Y-120460000D03*
%TD*%
%TO.C,D3*%
X117356000Y-118340000D03*
X117356000Y-120460000D03*
%TD*%
D77*
%TO.C,D2*%
X162300000Y-71700000D03*
D78*
X158337600Y-72639800D03*
X158337600Y-70760200D03*
%TD*%
%TO.C,C133*%
G36*
G01*
X110390000Y-66472500D02*
X110390000Y-66127500D01*
G75*
G02*
X110537500Y-65980000I147500J0D01*
G01*
X110832500Y-65980000D01*
G75*
G02*
X110980000Y-66127500I0J-147500D01*
G01*
X110980000Y-66472500D01*
G75*
G02*
X110832500Y-66620000I-147500J0D01*
G01*
X110537500Y-66620000D01*
G75*
G02*
X110390000Y-66472500I0J147500D01*
G01*
G37*
G36*
G01*
X109420000Y-66472500D02*
X109420000Y-66127500D01*
G75*
G02*
X109567500Y-65980000I147500J0D01*
G01*
X109862500Y-65980000D01*
G75*
G02*
X110010000Y-66127500I0J-147500D01*
G01*
X110010000Y-66472500D01*
G75*
G02*
X109862500Y-66620000I-147500J0D01*
G01*
X109567500Y-66620000D01*
G75*
G02*
X109420000Y-66472500I0J147500D01*
G01*
G37*
%TD*%
%TO.C,C101*%
G36*
G01*
X119227500Y-63890000D02*
X119572500Y-63890000D01*
G75*
G02*
X119720000Y-64037500I0J-147500D01*
G01*
X119720000Y-64332500D01*
G75*
G02*
X119572500Y-64480000I-147500J0D01*
G01*
X119227500Y-64480000D01*
G75*
G02*
X119080000Y-64332500I0J147500D01*
G01*
X119080000Y-64037500D01*
G75*
G02*
X119227500Y-63890000I147500J0D01*
G01*
G37*
G36*
G01*
X119227500Y-62920000D02*
X119572500Y-62920000D01*
G75*
G02*
X119720000Y-63067500I0J-147500D01*
G01*
X119720000Y-63362500D01*
G75*
G02*
X119572500Y-63510000I-147500J0D01*
G01*
X119227500Y-63510000D01*
G75*
G02*
X119080000Y-63362500I0J147500D01*
G01*
X119080000Y-63067500D01*
G75*
G02*
X119227500Y-62920000I147500J0D01*
G01*
G37*
%TD*%
%TO.C,C98*%
G36*
G01*
X118710000Y-65027500D02*
X118710000Y-65372500D01*
G75*
G02*
X118562500Y-65520000I-147500J0D01*
G01*
X118267500Y-65520000D01*
G75*
G02*
X118120000Y-65372500I0J147500D01*
G01*
X118120000Y-65027500D01*
G75*
G02*
X118267500Y-64880000I147500J0D01*
G01*
X118562500Y-64880000D01*
G75*
G02*
X118710000Y-65027500I0J-147500D01*
G01*
G37*
G36*
G01*
X119680000Y-65027500D02*
X119680000Y-65372500D01*
G75*
G02*
X119532500Y-65520000I-147500J0D01*
G01*
X119237500Y-65520000D01*
G75*
G02*
X119090000Y-65372500I0J147500D01*
G01*
X119090000Y-65027500D01*
G75*
G02*
X119237500Y-64880000I147500J0D01*
G01*
X119532500Y-64880000D01*
G75*
G02*
X119680000Y-65027500I0J-147500D01*
G01*
G37*
%TD*%
%TO.C,C93*%
G36*
G01*
X118710000Y-68027500D02*
X118710000Y-68372500D01*
G75*
G02*
X118562500Y-68520000I-147500J0D01*
G01*
X118267500Y-68520000D01*
G75*
G02*
X118120000Y-68372500I0J147500D01*
G01*
X118120000Y-68027500D01*
G75*
G02*
X118267500Y-67880000I147500J0D01*
G01*
X118562500Y-67880000D01*
G75*
G02*
X118710000Y-68027500I0J-147500D01*
G01*
G37*
G36*
G01*
X119680000Y-68027500D02*
X119680000Y-68372500D01*
G75*
G02*
X119532500Y-68520000I-147500J0D01*
G01*
X119237500Y-68520000D01*
G75*
G02*
X119090000Y-68372500I0J147500D01*
G01*
X119090000Y-68027500D01*
G75*
G02*
X119237500Y-67880000I147500J0D01*
G01*
X119532500Y-67880000D01*
G75*
G02*
X119680000Y-68027500I0J-147500D01*
G01*
G37*
%TD*%
%TO.C,C92*%
G36*
G01*
X88140000Y-91872500D02*
X88140000Y-91527500D01*
G75*
G02*
X88287500Y-91380000I147500J0D01*
G01*
X88582500Y-91380000D01*
G75*
G02*
X88730000Y-91527500I0J-147500D01*
G01*
X88730000Y-91872500D01*
G75*
G02*
X88582500Y-92020000I-147500J0D01*
G01*
X88287500Y-92020000D01*
G75*
G02*
X88140000Y-91872500I0J147500D01*
G01*
G37*
G36*
G01*
X87170000Y-91872500D02*
X87170000Y-91527500D01*
G75*
G02*
X87317500Y-91380000I147500J0D01*
G01*
X87612500Y-91380000D01*
G75*
G02*
X87760000Y-91527500I0J-147500D01*
G01*
X87760000Y-91872500D01*
G75*
G02*
X87612500Y-92020000I-147500J0D01*
G01*
X87317500Y-92020000D01*
G75*
G02*
X87170000Y-91872500I0J147500D01*
G01*
G37*
%TD*%
%TO.C,C91*%
G36*
G01*
X123260000Y-65227500D02*
X123260000Y-65572500D01*
G75*
G02*
X123112500Y-65720000I-147500J0D01*
G01*
X122817500Y-65720000D01*
G75*
G02*
X122670000Y-65572500I0J147500D01*
G01*
X122670000Y-65227500D01*
G75*
G02*
X122817500Y-65080000I147500J0D01*
G01*
X123112500Y-65080000D01*
G75*
G02*
X123260000Y-65227500I0J-147500D01*
G01*
G37*
G36*
G01*
X124230000Y-65227500D02*
X124230000Y-65572500D01*
G75*
G02*
X124082500Y-65720000I-147500J0D01*
G01*
X123787500Y-65720000D01*
G75*
G02*
X123640000Y-65572500I0J147500D01*
G01*
X123640000Y-65227500D01*
G75*
G02*
X123787500Y-65080000I147500J0D01*
G01*
X124082500Y-65080000D01*
G75*
G02*
X124230000Y-65227500I0J-147500D01*
G01*
G37*
%TD*%
%TO.C,C90*%
G36*
G01*
X92010000Y-88527500D02*
X92010000Y-88872500D01*
G75*
G02*
X91862500Y-89020000I-147500J0D01*
G01*
X91567500Y-89020000D01*
G75*
G02*
X91420000Y-88872500I0J147500D01*
G01*
X91420000Y-88527500D01*
G75*
G02*
X91567500Y-88380000I147500J0D01*
G01*
X91862500Y-88380000D01*
G75*
G02*
X92010000Y-88527500I0J-147500D01*
G01*
G37*
G36*
G01*
X92980000Y-88527500D02*
X92980000Y-88872500D01*
G75*
G02*
X92832500Y-89020000I-147500J0D01*
G01*
X92537500Y-89020000D01*
G75*
G02*
X92390000Y-88872500I0J147500D01*
G01*
X92390000Y-88527500D01*
G75*
G02*
X92537500Y-88380000I147500J0D01*
G01*
X92832500Y-88380000D01*
G75*
G02*
X92980000Y-88527500I0J-147500D01*
G01*
G37*
%TD*%
%TO.C,C89*%
G36*
G01*
X123460000Y-68227500D02*
X123460000Y-68572500D01*
G75*
G02*
X123312500Y-68720000I-147500J0D01*
G01*
X123017500Y-68720000D01*
G75*
G02*
X122870000Y-68572500I0J147500D01*
G01*
X122870000Y-68227500D01*
G75*
G02*
X123017500Y-68080000I147500J0D01*
G01*
X123312500Y-68080000D01*
G75*
G02*
X123460000Y-68227500I0J-147500D01*
G01*
G37*
G36*
G01*
X124430000Y-68227500D02*
X124430000Y-68572500D01*
G75*
G02*
X124282500Y-68720000I-147500J0D01*
G01*
X123987500Y-68720000D01*
G75*
G02*
X123840000Y-68572500I0J147500D01*
G01*
X123840000Y-68227500D01*
G75*
G02*
X123987500Y-68080000I147500J0D01*
G01*
X124282500Y-68080000D01*
G75*
G02*
X124430000Y-68227500I0J-147500D01*
G01*
G37*
%TD*%
%TO.C,C80*%
G36*
G01*
X138430000Y-53762500D02*
X138430000Y-53417500D01*
G75*
G02*
X138577500Y-53270000I147500J0D01*
G01*
X138872500Y-53270000D01*
G75*
G02*
X139020000Y-53417500I0J-147500D01*
G01*
X139020000Y-53762500D01*
G75*
G02*
X138872500Y-53910000I-147500J0D01*
G01*
X138577500Y-53910000D01*
G75*
G02*
X138430000Y-53762500I0J147500D01*
G01*
G37*
G36*
G01*
X137460000Y-53762500D02*
X137460000Y-53417500D01*
G75*
G02*
X137607500Y-53270000I147500J0D01*
G01*
X137902500Y-53270000D01*
G75*
G02*
X138050000Y-53417500I0J-147500D01*
G01*
X138050000Y-53762500D01*
G75*
G02*
X137902500Y-53910000I-147500J0D01*
G01*
X137607500Y-53910000D01*
G75*
G02*
X137460000Y-53762500I0J147500D01*
G01*
G37*
%TD*%
%TO.C,C78*%
G36*
G01*
X134374642Y-55700000D02*
X134719642Y-55700000D01*
G75*
G02*
X134867142Y-55847500I0J-147500D01*
G01*
X134867142Y-56142500D01*
G75*
G02*
X134719642Y-56290000I-147500J0D01*
G01*
X134374642Y-56290000D01*
G75*
G02*
X134227142Y-56142500I0J147500D01*
G01*
X134227142Y-55847500D01*
G75*
G02*
X134374642Y-55700000I147500J0D01*
G01*
G37*
G36*
G01*
X134374642Y-54730000D02*
X134719642Y-54730000D01*
G75*
G02*
X134867142Y-54877500I0J-147500D01*
G01*
X134867142Y-55172500D01*
G75*
G02*
X134719642Y-55320000I-147500J0D01*
G01*
X134374642Y-55320000D01*
G75*
G02*
X134227142Y-55172500I0J147500D01*
G01*
X134227142Y-54877500D01*
G75*
G02*
X134374642Y-54730000I147500J0D01*
G01*
G37*
%TD*%
%TO.C,C77*%
G36*
G01*
X133351785Y-55700000D02*
X133696785Y-55700000D01*
G75*
G02*
X133844285Y-55847500I0J-147500D01*
G01*
X133844285Y-56142500D01*
G75*
G02*
X133696785Y-56290000I-147500J0D01*
G01*
X133351785Y-56290000D01*
G75*
G02*
X133204285Y-56142500I0J147500D01*
G01*
X133204285Y-55847500D01*
G75*
G02*
X133351785Y-55700000I147500J0D01*
G01*
G37*
G36*
G01*
X133351785Y-54730000D02*
X133696785Y-54730000D01*
G75*
G02*
X133844285Y-54877500I0J-147500D01*
G01*
X133844285Y-55172500D01*
G75*
G02*
X133696785Y-55320000I-147500J0D01*
G01*
X133351785Y-55320000D01*
G75*
G02*
X133204285Y-55172500I0J147500D01*
G01*
X133204285Y-54877500D01*
G75*
G02*
X133351785Y-54730000I147500J0D01*
G01*
G37*
%TD*%
%TO.C,C74*%
G36*
G01*
X130327500Y-55800000D02*
X130672500Y-55800000D01*
G75*
G02*
X130820000Y-55947500I0J-147500D01*
G01*
X130820000Y-56242500D01*
G75*
G02*
X130672500Y-56390000I-147500J0D01*
G01*
X130327500Y-56390000D01*
G75*
G02*
X130180000Y-56242500I0J147500D01*
G01*
X130180000Y-55947500D01*
G75*
G02*
X130327500Y-55800000I147500J0D01*
G01*
G37*
G36*
G01*
X130327500Y-54830000D02*
X130672500Y-54830000D01*
G75*
G02*
X130820000Y-54977500I0J-147500D01*
G01*
X130820000Y-55272500D01*
G75*
G02*
X130672500Y-55420000I-147500J0D01*
G01*
X130327500Y-55420000D01*
G75*
G02*
X130180000Y-55272500I0J147500D01*
G01*
X130180000Y-54977500D01*
G75*
G02*
X130327500Y-54830000I147500J0D01*
G01*
G37*
%TD*%
%TO.C,C73*%
G36*
G01*
X129227500Y-55800000D02*
X129572500Y-55800000D01*
G75*
G02*
X129720000Y-55947500I0J-147500D01*
G01*
X129720000Y-56242500D01*
G75*
G02*
X129572500Y-56390000I-147500J0D01*
G01*
X129227500Y-56390000D01*
G75*
G02*
X129080000Y-56242500I0J147500D01*
G01*
X129080000Y-55947500D01*
G75*
G02*
X129227500Y-55800000I147500J0D01*
G01*
G37*
G36*
G01*
X129227500Y-54830000D02*
X129572500Y-54830000D01*
G75*
G02*
X129720000Y-54977500I0J-147500D01*
G01*
X129720000Y-55272500D01*
G75*
G02*
X129572500Y-55420000I-147500J0D01*
G01*
X129227500Y-55420000D01*
G75*
G02*
X129080000Y-55272500I0J147500D01*
G01*
X129080000Y-54977500D01*
G75*
G02*
X129227500Y-54830000I147500J0D01*
G01*
G37*
%TD*%
%TO.C,C69*%
G36*
G01*
X126510000Y-62277500D02*
X126510000Y-62622500D01*
G75*
G02*
X126362500Y-62770000I-147500J0D01*
G01*
X126067500Y-62770000D01*
G75*
G02*
X125920000Y-62622500I0J147500D01*
G01*
X125920000Y-62277500D01*
G75*
G02*
X126067500Y-62130000I147500J0D01*
G01*
X126362500Y-62130000D01*
G75*
G02*
X126510000Y-62277500I0J-147500D01*
G01*
G37*
G36*
G01*
X127480000Y-62277500D02*
X127480000Y-62622500D01*
G75*
G02*
X127332500Y-62770000I-147500J0D01*
G01*
X127037500Y-62770000D01*
G75*
G02*
X126890000Y-62622500I0J147500D01*
G01*
X126890000Y-62277500D01*
G75*
G02*
X127037500Y-62130000I147500J0D01*
G01*
X127332500Y-62130000D01*
G75*
G02*
X127480000Y-62277500I0J-147500D01*
G01*
G37*
%TD*%
%TO.C,C68*%
G36*
G01*
X126510000Y-63277500D02*
X126510000Y-63622500D01*
G75*
G02*
X126362500Y-63770000I-147500J0D01*
G01*
X126067500Y-63770000D01*
G75*
G02*
X125920000Y-63622500I0J147500D01*
G01*
X125920000Y-63277500D01*
G75*
G02*
X126067500Y-63130000I147500J0D01*
G01*
X126362500Y-63130000D01*
G75*
G02*
X126510000Y-63277500I0J-147500D01*
G01*
G37*
G36*
G01*
X127480000Y-63277500D02*
X127480000Y-63622500D01*
G75*
G02*
X127332500Y-63770000I-147500J0D01*
G01*
X127037500Y-63770000D01*
G75*
G02*
X126890000Y-63622500I0J147500D01*
G01*
X126890000Y-63277500D01*
G75*
G02*
X127037500Y-63130000I147500J0D01*
G01*
X127332500Y-63130000D01*
G75*
G02*
X127480000Y-63277500I0J-147500D01*
G01*
G37*
%TD*%
%TO.C,C67*%
G36*
G01*
X126890000Y-64622500D02*
X126890000Y-64277500D01*
G75*
G02*
X127037500Y-64130000I147500J0D01*
G01*
X127332500Y-64130000D01*
G75*
G02*
X127480000Y-64277500I0J-147500D01*
G01*
X127480000Y-64622500D01*
G75*
G02*
X127332500Y-64770000I-147500J0D01*
G01*
X127037500Y-64770000D01*
G75*
G02*
X126890000Y-64622500I0J147500D01*
G01*
G37*
G36*
G01*
X125920000Y-64622500D02*
X125920000Y-64277500D01*
G75*
G02*
X126067500Y-64130000I147500J0D01*
G01*
X126362500Y-64130000D01*
G75*
G02*
X126510000Y-64277500I0J-147500D01*
G01*
X126510000Y-64622500D01*
G75*
G02*
X126362500Y-64770000I-147500J0D01*
G01*
X126067500Y-64770000D01*
G75*
G02*
X125920000Y-64622500I0J147500D01*
G01*
G37*
%TD*%
%TO.C,C46*%
G36*
G01*
X144527500Y-105990000D02*
X144872500Y-105990000D01*
G75*
G02*
X145020000Y-106137500I0J-147500D01*
G01*
X145020000Y-106432500D01*
G75*
G02*
X144872500Y-106580000I-147500J0D01*
G01*
X144527500Y-106580000D01*
G75*
G02*
X144380000Y-106432500I0J147500D01*
G01*
X144380000Y-106137500D01*
G75*
G02*
X144527500Y-105990000I147500J0D01*
G01*
G37*
G36*
G01*
X144527500Y-105020000D02*
X144872500Y-105020000D01*
G75*
G02*
X145020000Y-105167500I0J-147500D01*
G01*
X145020000Y-105462500D01*
G75*
G02*
X144872500Y-105610000I-147500J0D01*
G01*
X144527500Y-105610000D01*
G75*
G02*
X144380000Y-105462500I0J147500D01*
G01*
X144380000Y-105167500D01*
G75*
G02*
X144527500Y-105020000I147500J0D01*
G01*
G37*
%TD*%
%TO.C,C45*%
G36*
G01*
X134210000Y-117927500D02*
X134210000Y-118272500D01*
G75*
G02*
X134062500Y-118420000I-147500J0D01*
G01*
X133767500Y-118420000D01*
G75*
G02*
X133620000Y-118272500I0J147500D01*
G01*
X133620000Y-117927500D01*
G75*
G02*
X133767500Y-117780000I147500J0D01*
G01*
X134062500Y-117780000D01*
G75*
G02*
X134210000Y-117927500I0J-147500D01*
G01*
G37*
G36*
G01*
X135180000Y-117927500D02*
X135180000Y-118272500D01*
G75*
G02*
X135032500Y-118420000I-147500J0D01*
G01*
X134737500Y-118420000D01*
G75*
G02*
X134590000Y-118272500I0J147500D01*
G01*
X134590000Y-117927500D01*
G75*
G02*
X134737500Y-117780000I147500J0D01*
G01*
X135032500Y-117780000D01*
G75*
G02*
X135180000Y-117927500I0J-147500D01*
G01*
G37*
%TD*%
%TO.C,C44*%
G36*
G01*
X127160000Y-116027500D02*
X127160000Y-116372500D01*
G75*
G02*
X127012500Y-116520000I-147500J0D01*
G01*
X126717500Y-116520000D01*
G75*
G02*
X126570000Y-116372500I0J147500D01*
G01*
X126570000Y-116027500D01*
G75*
G02*
X126717500Y-115880000I147500J0D01*
G01*
X127012500Y-115880000D01*
G75*
G02*
X127160000Y-116027500I0J-147500D01*
G01*
G37*
G36*
G01*
X128130000Y-116027500D02*
X128130000Y-116372500D01*
G75*
G02*
X127982500Y-116520000I-147500J0D01*
G01*
X127687500Y-116520000D01*
G75*
G02*
X127540000Y-116372500I0J147500D01*
G01*
X127540000Y-116027500D01*
G75*
G02*
X127687500Y-115880000I147500J0D01*
G01*
X127982500Y-115880000D01*
G75*
G02*
X128130000Y-116027500I0J-147500D01*
G01*
G37*
%TD*%
%TO.C,C43*%
G36*
G01*
X134810000Y-120727500D02*
X134810000Y-121072500D01*
G75*
G02*
X134662500Y-121220000I-147500J0D01*
G01*
X134367500Y-121220000D01*
G75*
G02*
X134220000Y-121072500I0J147500D01*
G01*
X134220000Y-120727500D01*
G75*
G02*
X134367500Y-120580000I147500J0D01*
G01*
X134662500Y-120580000D01*
G75*
G02*
X134810000Y-120727500I0J-147500D01*
G01*
G37*
G36*
G01*
X135780000Y-120727500D02*
X135780000Y-121072500D01*
G75*
G02*
X135632500Y-121220000I-147500J0D01*
G01*
X135337500Y-121220000D01*
G75*
G02*
X135190000Y-121072500I0J147500D01*
G01*
X135190000Y-120727500D01*
G75*
G02*
X135337500Y-120580000I147500J0D01*
G01*
X135632500Y-120580000D01*
G75*
G02*
X135780000Y-120727500I0J-147500D01*
G01*
G37*
%TD*%
D56*
%TO.C,C42*%
X152700000Y-105400000D03*
X152700000Y-104000000D03*
%TD*%
%TO.C,C40*%
X154200000Y-105400000D03*
X154200000Y-104000000D03*
%TD*%
%TO.C,C38*%
G36*
G01*
X165272500Y-111160000D02*
X164927500Y-111160000D01*
G75*
G02*
X164780000Y-111012500I0J147500D01*
G01*
X164780000Y-110717500D01*
G75*
G02*
X164927500Y-110570000I147500J0D01*
G01*
X165272500Y-110570000D01*
G75*
G02*
X165420000Y-110717500I0J-147500D01*
G01*
X165420000Y-111012500D01*
G75*
G02*
X165272500Y-111160000I-147500J0D01*
G01*
G37*
G36*
G01*
X165272500Y-112130000D02*
X164927500Y-112130000D01*
G75*
G02*
X164780000Y-111982500I0J147500D01*
G01*
X164780000Y-111687500D01*
G75*
G02*
X164927500Y-111540000I147500J0D01*
G01*
X165272500Y-111540000D01*
G75*
G02*
X165420000Y-111687500I0J-147500D01*
G01*
X165420000Y-111982500D01*
G75*
G02*
X165272500Y-112130000I-147500J0D01*
G01*
G37*
%TD*%
%TO.C,C37*%
G36*
G01*
X164272500Y-111160000D02*
X163927500Y-111160000D01*
G75*
G02*
X163780000Y-111012500I0J147500D01*
G01*
X163780000Y-110717500D01*
G75*
G02*
X163927500Y-110570000I147500J0D01*
G01*
X164272500Y-110570000D01*
G75*
G02*
X164420000Y-110717500I0J-147500D01*
G01*
X164420000Y-111012500D01*
G75*
G02*
X164272500Y-111160000I-147500J0D01*
G01*
G37*
G36*
G01*
X164272500Y-112130000D02*
X163927500Y-112130000D01*
G75*
G02*
X163780000Y-111982500I0J147500D01*
G01*
X163780000Y-111687500D01*
G75*
G02*
X163927500Y-111540000I147500J0D01*
G01*
X164272500Y-111540000D01*
G75*
G02*
X164420000Y-111687500I0J-147500D01*
G01*
X164420000Y-111982500D01*
G75*
G02*
X164272500Y-112130000I-147500J0D01*
G01*
G37*
%TD*%
%TO.C,C36*%
G36*
G01*
X160890000Y-111822500D02*
X160890000Y-111477500D01*
G75*
G02*
X161037500Y-111330000I147500J0D01*
G01*
X161332500Y-111330000D01*
G75*
G02*
X161480000Y-111477500I0J-147500D01*
G01*
X161480000Y-111822500D01*
G75*
G02*
X161332500Y-111970000I-147500J0D01*
G01*
X161037500Y-111970000D01*
G75*
G02*
X160890000Y-111822500I0J147500D01*
G01*
G37*
G36*
G01*
X159920000Y-111822500D02*
X159920000Y-111477500D01*
G75*
G02*
X160067500Y-111330000I147500J0D01*
G01*
X160362500Y-111330000D01*
G75*
G02*
X160510000Y-111477500I0J-147500D01*
G01*
X160510000Y-111822500D01*
G75*
G02*
X160362500Y-111970000I-147500J0D01*
G01*
X160067500Y-111970000D01*
G75*
G02*
X159920000Y-111822500I0J147500D01*
G01*
G37*
%TD*%
%TO.C,C35*%
G36*
G01*
X156790000Y-105672500D02*
X156790000Y-105327500D01*
G75*
G02*
X156937500Y-105180000I147500J0D01*
G01*
X157232500Y-105180000D01*
G75*
G02*
X157380000Y-105327500I0J-147500D01*
G01*
X157380000Y-105672500D01*
G75*
G02*
X157232500Y-105820000I-147500J0D01*
G01*
X156937500Y-105820000D01*
G75*
G02*
X156790000Y-105672500I0J147500D01*
G01*
G37*
G36*
G01*
X155820000Y-105672500D02*
X155820000Y-105327500D01*
G75*
G02*
X155967500Y-105180000I147500J0D01*
G01*
X156262500Y-105180000D01*
G75*
G02*
X156410000Y-105327500I0J-147500D01*
G01*
X156410000Y-105672500D01*
G75*
G02*
X156262500Y-105820000I-147500J0D01*
G01*
X155967500Y-105820000D01*
G75*
G02*
X155820000Y-105672500I0J147500D01*
G01*
G37*
%TD*%
%TO.C,C33*%
G36*
G01*
X161722500Y-108210000D02*
X161377500Y-108210000D01*
G75*
G02*
X161230000Y-108062500I0J147500D01*
G01*
X161230000Y-107767500D01*
G75*
G02*
X161377500Y-107620000I147500J0D01*
G01*
X161722500Y-107620000D01*
G75*
G02*
X161870000Y-107767500I0J-147500D01*
G01*
X161870000Y-108062500D01*
G75*
G02*
X161722500Y-108210000I-147500J0D01*
G01*
G37*
G36*
G01*
X161722500Y-109180000D02*
X161377500Y-109180000D01*
G75*
G02*
X161230000Y-109032500I0J147500D01*
G01*
X161230000Y-108737500D01*
G75*
G02*
X161377500Y-108590000I147500J0D01*
G01*
X161722500Y-108590000D01*
G75*
G02*
X161870000Y-108737500I0J-147500D01*
G01*
X161870000Y-109032500D01*
G75*
G02*
X161722500Y-109180000I-147500J0D01*
G01*
G37*
%TD*%
%TO.C,C31*%
G36*
G01*
X156572500Y-113560000D02*
X156227500Y-113560000D01*
G75*
G02*
X156080000Y-113412500I0J147500D01*
G01*
X156080000Y-113117500D01*
G75*
G02*
X156227500Y-112970000I147500J0D01*
G01*
X156572500Y-112970000D01*
G75*
G02*
X156720000Y-113117500I0J-147500D01*
G01*
X156720000Y-113412500D01*
G75*
G02*
X156572500Y-113560000I-147500J0D01*
G01*
G37*
G36*
G01*
X156572500Y-114530000D02*
X156227500Y-114530000D01*
G75*
G02*
X156080000Y-114382500I0J147500D01*
G01*
X156080000Y-114087500D01*
G75*
G02*
X156227500Y-113940000I147500J0D01*
G01*
X156572500Y-113940000D01*
G75*
G02*
X156720000Y-114087500I0J-147500D01*
G01*
X156720000Y-114382500D01*
G75*
G02*
X156572500Y-114530000I-147500J0D01*
G01*
G37*
%TD*%
%TO.C,C23*%
G36*
G01*
X159110000Y-69027500D02*
X159110000Y-69372500D01*
G75*
G02*
X158962500Y-69520000I-147500J0D01*
G01*
X158667500Y-69520000D01*
G75*
G02*
X158520000Y-69372500I0J147500D01*
G01*
X158520000Y-69027500D01*
G75*
G02*
X158667500Y-68880000I147500J0D01*
G01*
X158962500Y-68880000D01*
G75*
G02*
X159110000Y-69027500I0J-147500D01*
G01*
G37*
G36*
G01*
X160080000Y-69027500D02*
X160080000Y-69372500D01*
G75*
G02*
X159932500Y-69520000I-147500J0D01*
G01*
X159637500Y-69520000D01*
G75*
G02*
X159490000Y-69372500I0J147500D01*
G01*
X159490000Y-69027500D01*
G75*
G02*
X159637500Y-68880000I147500J0D01*
G01*
X159932500Y-68880000D01*
G75*
G02*
X160080000Y-69027500I0J-147500D01*
G01*
G37*
%TD*%
D39*
%TO.C,C19*%
X170550000Y-60100000D03*
X172650000Y-60100000D03*
%TD*%
%TO.C,C18*%
X159500000Y-62700000D03*
X157400000Y-62700000D03*
%TD*%
%TO.C,C17*%
X159500000Y-64700000D03*
X157400000Y-64700000D03*
%TD*%
D52*
%TO.C,C15*%
X94400000Y-113700000D03*
X94400000Y-110100000D03*
%TD*%
%TO.C,C13*%
X92000000Y-113700000D03*
X92000000Y-110100000D03*
%TD*%
%TO.C,C8*%
G36*
G01*
X94227500Y-75490000D02*
X94572500Y-75490000D01*
G75*
G02*
X94720000Y-75637500I0J-147500D01*
G01*
X94720000Y-75932500D01*
G75*
G02*
X94572500Y-76080000I-147500J0D01*
G01*
X94227500Y-76080000D01*
G75*
G02*
X94080000Y-75932500I0J147500D01*
G01*
X94080000Y-75637500D01*
G75*
G02*
X94227500Y-75490000I147500J0D01*
G01*
G37*
G36*
G01*
X94227500Y-74520000D02*
X94572500Y-74520000D01*
G75*
G02*
X94720000Y-74667500I0J-147500D01*
G01*
X94720000Y-74962500D01*
G75*
G02*
X94572500Y-75110000I-147500J0D01*
G01*
X94227500Y-75110000D01*
G75*
G02*
X94080000Y-74962500I0J147500D01*
G01*
X94080000Y-74667500D01*
G75*
G02*
X94227500Y-74520000I147500J0D01*
G01*
G37*
%TD*%
%TO.C,C6*%
G36*
G01*
X93227500Y-75490000D02*
X93572500Y-75490000D01*
G75*
G02*
X93720000Y-75637500I0J-147500D01*
G01*
X93720000Y-75932500D01*
G75*
G02*
X93572500Y-76080000I-147500J0D01*
G01*
X93227500Y-76080000D01*
G75*
G02*
X93080000Y-75932500I0J147500D01*
G01*
X93080000Y-75637500D01*
G75*
G02*
X93227500Y-75490000I147500J0D01*
G01*
G37*
G36*
G01*
X93227500Y-74520000D02*
X93572500Y-74520000D01*
G75*
G02*
X93720000Y-74667500I0J-147500D01*
G01*
X93720000Y-74962500D01*
G75*
G02*
X93572500Y-75110000I-147500J0D01*
G01*
X93227500Y-75110000D01*
G75*
G02*
X93080000Y-74962500I0J147500D01*
G01*
X93080000Y-74667500D01*
G75*
G02*
X93227500Y-74520000I147500J0D01*
G01*
G37*
%TD*%
%TO.C,C4*%
G36*
G01*
X95227500Y-75490000D02*
X95572500Y-75490000D01*
G75*
G02*
X95720000Y-75637500I0J-147500D01*
G01*
X95720000Y-75932500D01*
G75*
G02*
X95572500Y-76080000I-147500J0D01*
G01*
X95227500Y-76080000D01*
G75*
G02*
X95080000Y-75932500I0J147500D01*
G01*
X95080000Y-75637500D01*
G75*
G02*
X95227500Y-75490000I147500J0D01*
G01*
G37*
G36*
G01*
X95227500Y-74520000D02*
X95572500Y-74520000D01*
G75*
G02*
X95720000Y-74667500I0J-147500D01*
G01*
X95720000Y-74962500D01*
G75*
G02*
X95572500Y-75110000I-147500J0D01*
G01*
X95227500Y-75110000D01*
G75*
G02*
X95080000Y-74962500I0J147500D01*
G01*
X95080000Y-74667500D01*
G75*
G02*
X95227500Y-74520000I147500J0D01*
G01*
G37*
%TD*%
M02*
