%TF.GenerationSoftware,KiCad,Pcbnew,5.1.9+dfsg1-1*%
%TF.CreationDate,2022-02-21T14:57:18+01:00*%
%TF.ProjectId,sc606-baseboard,73633630-362d-4626-9173-65626f617264,rev?*%
%TF.SameCoordinates,Original*%
%TF.FileFunction,Other,Comment*%
%FSLAX46Y46*%
G04 Gerber Fmt 4.6, Leading zero omitted, Abs format (unit mm)*
G04 Created by KiCad (PCBNEW 5.1.9+dfsg1-1) date 2022-02-21 14:57:18 commit 2b5f92f*
%MOMM*%
%LPD*%
G01*
G04 APERTURE LIST*
%TA.AperFunction,Profile*%
%ADD10C,0.120000*%
%TD*%
%TA.AperFunction,Profile*%
%ADD11C,0.254000*%
%TD*%
%ADD12C,0.002000*%
%ADD13C,0.100000*%
%ADD14C,0.060000*%
%ADD15C,0.090000*%
G04 APERTURE END LIST*
D10*
X175600000Y-42400000D02*
X75600000Y-42400000D01*
D11*
X175600000Y-42400000D02*
X175600000Y-122400000D01*
D10*
X75600000Y-122400000D02*
X75600000Y-42400000D01*
D11*
X175600000Y-122400000D02*
X75600000Y-122400000D01*
%TO.C,J3*%
D12*
X172645357Y-84945833D02*
X172651404Y-84951880D01*
X172657452Y-84970023D01*
X172657452Y-84982119D01*
X172651404Y-85000261D01*
X172639309Y-85012357D01*
X172627214Y-85018404D01*
X172603023Y-85024452D01*
X172584880Y-85024452D01*
X172560690Y-85018404D01*
X172548595Y-85012357D01*
X172536500Y-85000261D01*
X172530452Y-84982119D01*
X172530452Y-84970023D01*
X172536500Y-84951880D01*
X172542547Y-84945833D01*
X172657452Y-84873261D02*
X172651404Y-84885357D01*
X172645357Y-84891404D01*
X172633261Y-84897452D01*
X172596976Y-84897452D01*
X172584880Y-84891404D01*
X172578833Y-84885357D01*
X172572785Y-84873261D01*
X172572785Y-84855119D01*
X172578833Y-84843023D01*
X172584880Y-84836976D01*
X172596976Y-84830928D01*
X172633261Y-84830928D01*
X172645357Y-84836976D01*
X172651404Y-84843023D01*
X172657452Y-84855119D01*
X172657452Y-84873261D01*
X172572785Y-84776500D02*
X172699785Y-84776500D01*
X172578833Y-84776500D02*
X172572785Y-84764404D01*
X172572785Y-84740214D01*
X172578833Y-84728119D01*
X172584880Y-84722071D01*
X172596976Y-84716023D01*
X172633261Y-84716023D01*
X172645357Y-84722071D01*
X172651404Y-84728119D01*
X172657452Y-84740214D01*
X172657452Y-84764404D01*
X172651404Y-84776500D01*
X172572785Y-84673690D02*
X172657452Y-84643452D01*
X172572785Y-84613214D02*
X172657452Y-84643452D01*
X172687690Y-84655547D01*
X172693738Y-84661595D01*
X172699785Y-84673690D01*
X172657452Y-84564833D02*
X172572785Y-84564833D01*
X172596976Y-84564833D02*
X172584880Y-84558785D01*
X172578833Y-84552738D01*
X172572785Y-84540642D01*
X172572785Y-84528547D01*
X172657452Y-84486214D02*
X172572785Y-84486214D01*
X172530452Y-84486214D02*
X172536500Y-84492261D01*
X172542547Y-84486214D01*
X172536500Y-84480166D01*
X172530452Y-84486214D01*
X172542547Y-84486214D01*
X172572785Y-84371309D02*
X172675595Y-84371309D01*
X172687690Y-84377357D01*
X172693738Y-84383404D01*
X172699785Y-84395500D01*
X172699785Y-84413642D01*
X172693738Y-84425738D01*
X172651404Y-84371309D02*
X172657452Y-84383404D01*
X172657452Y-84407595D01*
X172651404Y-84419690D01*
X172645357Y-84425738D01*
X172633261Y-84431785D01*
X172596976Y-84431785D01*
X172584880Y-84425738D01*
X172578833Y-84419690D01*
X172572785Y-84407595D01*
X172572785Y-84383404D01*
X172578833Y-84371309D01*
X172657452Y-84310833D02*
X172530452Y-84310833D01*
X172657452Y-84256404D02*
X172590928Y-84256404D01*
X172578833Y-84262452D01*
X172572785Y-84274547D01*
X172572785Y-84292690D01*
X172578833Y-84304785D01*
X172584880Y-84310833D01*
X172572785Y-84214071D02*
X172572785Y-84165690D01*
X172530452Y-84195928D02*
X172639309Y-84195928D01*
X172651404Y-84189880D01*
X172657452Y-84177785D01*
X172657452Y-84165690D01*
X172542547Y-84032642D02*
X172536500Y-84026595D01*
X172530452Y-84014500D01*
X172530452Y-83984261D01*
X172536500Y-83972166D01*
X172542547Y-83966119D01*
X172554642Y-83960071D01*
X172566738Y-83960071D01*
X172584880Y-83966119D01*
X172657452Y-84038690D01*
X172657452Y-83960071D01*
X172530452Y-83881452D02*
X172530452Y-83869357D01*
X172536500Y-83857261D01*
X172542547Y-83851214D01*
X172554642Y-83845166D01*
X172578833Y-83839119D01*
X172609071Y-83839119D01*
X172633261Y-83845166D01*
X172645357Y-83851214D01*
X172651404Y-83857261D01*
X172657452Y-83869357D01*
X172657452Y-83881452D01*
X172651404Y-83893547D01*
X172645357Y-83899595D01*
X172633261Y-83905642D01*
X172609071Y-83911690D01*
X172578833Y-83911690D01*
X172554642Y-83905642D01*
X172542547Y-83899595D01*
X172536500Y-83893547D01*
X172530452Y-83881452D01*
X172542547Y-83790738D02*
X172536500Y-83784690D01*
X172530452Y-83772595D01*
X172530452Y-83742357D01*
X172536500Y-83730261D01*
X172542547Y-83724214D01*
X172554642Y-83718166D01*
X172566738Y-83718166D01*
X172584880Y-83724214D01*
X172657452Y-83796785D01*
X172657452Y-83718166D01*
X172657452Y-83597214D02*
X172657452Y-83669785D01*
X172657452Y-83633500D02*
X172530452Y-83633500D01*
X172548595Y-83645595D01*
X172560690Y-83657690D01*
X172566738Y-83669785D01*
X172621166Y-83452071D02*
X172621166Y-83391595D01*
X172657452Y-83464166D02*
X172530452Y-83421833D01*
X172657452Y-83379500D01*
X172651404Y-83282738D02*
X172657452Y-83294833D01*
X172657452Y-83319023D01*
X172651404Y-83331119D01*
X172645357Y-83337166D01*
X172633261Y-83343214D01*
X172596976Y-83343214D01*
X172584880Y-83337166D01*
X172578833Y-83331119D01*
X172572785Y-83319023D01*
X172572785Y-83294833D01*
X172578833Y-83282738D01*
X172651404Y-83173880D02*
X172657452Y-83185976D01*
X172657452Y-83210166D01*
X172651404Y-83222261D01*
X172645357Y-83228309D01*
X172633261Y-83234357D01*
X172596976Y-83234357D01*
X172584880Y-83228309D01*
X172578833Y-83222261D01*
X172572785Y-83210166D01*
X172572785Y-83185976D01*
X172578833Y-83173880D01*
X172651404Y-83071071D02*
X172657452Y-83083166D01*
X172657452Y-83107357D01*
X172651404Y-83119452D01*
X172639309Y-83125500D01*
X172590928Y-83125500D01*
X172578833Y-83119452D01*
X172572785Y-83107357D01*
X172572785Y-83083166D01*
X172578833Y-83071071D01*
X172590928Y-83065023D01*
X172603023Y-83065023D01*
X172615119Y-83125500D01*
X172657452Y-82992452D02*
X172651404Y-83004547D01*
X172639309Y-83010595D01*
X172530452Y-83010595D01*
X172651404Y-82895690D02*
X172657452Y-82907785D01*
X172657452Y-82931976D01*
X172651404Y-82944071D01*
X172639309Y-82950119D01*
X172590928Y-82950119D01*
X172578833Y-82944071D01*
X172572785Y-82931976D01*
X172572785Y-82907785D01*
X172578833Y-82895690D01*
X172590928Y-82889642D01*
X172603023Y-82889642D01*
X172615119Y-82950119D01*
X172657452Y-82835214D02*
X172572785Y-82835214D01*
X172596976Y-82835214D02*
X172584880Y-82829166D01*
X172578833Y-82823119D01*
X172572785Y-82811023D01*
X172572785Y-82798928D01*
X172657452Y-82702166D02*
X172590928Y-82702166D01*
X172578833Y-82708214D01*
X172572785Y-82720309D01*
X172572785Y-82744500D01*
X172578833Y-82756595D01*
X172651404Y-82702166D02*
X172657452Y-82714261D01*
X172657452Y-82744500D01*
X172651404Y-82756595D01*
X172639309Y-82762642D01*
X172627214Y-82762642D01*
X172615119Y-82756595D01*
X172609071Y-82744500D01*
X172609071Y-82714261D01*
X172603023Y-82702166D01*
X172572785Y-82659833D02*
X172572785Y-82611452D01*
X172530452Y-82641690D02*
X172639309Y-82641690D01*
X172651404Y-82635642D01*
X172657452Y-82623547D01*
X172657452Y-82611452D01*
X172651404Y-82520738D02*
X172657452Y-82532833D01*
X172657452Y-82557023D01*
X172651404Y-82569119D01*
X172639309Y-82575166D01*
X172590928Y-82575166D01*
X172578833Y-82569119D01*
X172572785Y-82557023D01*
X172572785Y-82532833D01*
X172578833Y-82520738D01*
X172590928Y-82514690D01*
X172603023Y-82514690D01*
X172615119Y-82575166D01*
X172657452Y-82405833D02*
X172530452Y-82405833D01*
X172651404Y-82405833D02*
X172657452Y-82417928D01*
X172657452Y-82442119D01*
X172651404Y-82454214D01*
X172645357Y-82460261D01*
X172633261Y-82466309D01*
X172596976Y-82466309D01*
X172584880Y-82460261D01*
X172578833Y-82454214D01*
X172572785Y-82442119D01*
X172572785Y-82417928D01*
X172578833Y-82405833D01*
X172657452Y-82248595D02*
X172530452Y-82248595D01*
X172530452Y-82218357D01*
X172536500Y-82200214D01*
X172548595Y-82188119D01*
X172560690Y-82182071D01*
X172584880Y-82176023D01*
X172603023Y-82176023D01*
X172627214Y-82182071D01*
X172639309Y-82188119D01*
X172651404Y-82200214D01*
X172657452Y-82218357D01*
X172657452Y-82248595D01*
X172651404Y-82073214D02*
X172657452Y-82085309D01*
X172657452Y-82109500D01*
X172651404Y-82121595D01*
X172639309Y-82127642D01*
X172590928Y-82127642D01*
X172578833Y-82121595D01*
X172572785Y-82109500D01*
X172572785Y-82085309D01*
X172578833Y-82073214D01*
X172590928Y-82067166D01*
X172603023Y-82067166D01*
X172615119Y-82127642D01*
X172651404Y-82018785D02*
X172657452Y-82006690D01*
X172657452Y-81982500D01*
X172651404Y-81970404D01*
X172639309Y-81964357D01*
X172633261Y-81964357D01*
X172621166Y-81970404D01*
X172615119Y-81982500D01*
X172615119Y-82000642D01*
X172609071Y-82012738D01*
X172596976Y-82018785D01*
X172590928Y-82018785D01*
X172578833Y-82012738D01*
X172572785Y-82000642D01*
X172572785Y-81982500D01*
X172578833Y-81970404D01*
X172657452Y-81909928D02*
X172572785Y-81909928D01*
X172530452Y-81909928D02*
X172536500Y-81915976D01*
X172542547Y-81909928D01*
X172536500Y-81903880D01*
X172530452Y-81909928D01*
X172542547Y-81909928D01*
X172572785Y-81795023D02*
X172675595Y-81795023D01*
X172687690Y-81801071D01*
X172693738Y-81807119D01*
X172699785Y-81819214D01*
X172699785Y-81837357D01*
X172693738Y-81849452D01*
X172651404Y-81795023D02*
X172657452Y-81807119D01*
X172657452Y-81831309D01*
X172651404Y-81843404D01*
X172645357Y-81849452D01*
X172633261Y-81855500D01*
X172596976Y-81855500D01*
X172584880Y-81849452D01*
X172578833Y-81843404D01*
X172572785Y-81831309D01*
X172572785Y-81807119D01*
X172578833Y-81795023D01*
X172572785Y-81734547D02*
X172657452Y-81734547D01*
X172584880Y-81734547D02*
X172578833Y-81728500D01*
X172572785Y-81716404D01*
X172572785Y-81698261D01*
X172578833Y-81686166D01*
X172590928Y-81680119D01*
X172657452Y-81680119D01*
X172651404Y-81625690D02*
X172657452Y-81613595D01*
X172657452Y-81589404D01*
X172651404Y-81577309D01*
X172639309Y-81571261D01*
X172633261Y-81571261D01*
X172621166Y-81577309D01*
X172615119Y-81589404D01*
X172615119Y-81607547D01*
X172609071Y-81619642D01*
X172596976Y-81625690D01*
X172590928Y-81625690D01*
X172578833Y-81619642D01*
X172572785Y-81607547D01*
X172572785Y-81589404D01*
X172578833Y-81577309D01*
X172645357Y-81516833D02*
X172651404Y-81510785D01*
X172657452Y-81516833D01*
X172651404Y-81522880D01*
X172645357Y-81516833D01*
X172657452Y-81516833D01*
X172621166Y-81365642D02*
X172621166Y-81305166D01*
X172657452Y-81377738D02*
X172530452Y-81335404D01*
X172657452Y-81293071D01*
X172657452Y-81232595D02*
X172651404Y-81244690D01*
X172639309Y-81250738D01*
X172530452Y-81250738D01*
X172657452Y-81166071D02*
X172651404Y-81178166D01*
X172639309Y-81184214D01*
X172530452Y-81184214D01*
X172657452Y-81020928D02*
X172572785Y-81020928D01*
X172596976Y-81020928D02*
X172584880Y-81014880D01*
X172578833Y-81008833D01*
X172572785Y-80996738D01*
X172572785Y-80984642D01*
X172657452Y-80942309D02*
X172572785Y-80942309D01*
X172530452Y-80942309D02*
X172536500Y-80948357D01*
X172542547Y-80942309D01*
X172536500Y-80936261D01*
X172530452Y-80942309D01*
X172542547Y-80942309D01*
X172572785Y-80827404D02*
X172675595Y-80827404D01*
X172687690Y-80833452D01*
X172693738Y-80839500D01*
X172699785Y-80851595D01*
X172699785Y-80869738D01*
X172693738Y-80881833D01*
X172651404Y-80827404D02*
X172657452Y-80839500D01*
X172657452Y-80863690D01*
X172651404Y-80875785D01*
X172645357Y-80881833D01*
X172633261Y-80887880D01*
X172596976Y-80887880D01*
X172584880Y-80881833D01*
X172578833Y-80875785D01*
X172572785Y-80863690D01*
X172572785Y-80839500D01*
X172578833Y-80827404D01*
X172657452Y-80766928D02*
X172530452Y-80766928D01*
X172657452Y-80712500D02*
X172590928Y-80712500D01*
X172578833Y-80718547D01*
X172572785Y-80730642D01*
X172572785Y-80748785D01*
X172578833Y-80760880D01*
X172584880Y-80766928D01*
X172572785Y-80670166D02*
X172572785Y-80621785D01*
X172530452Y-80652023D02*
X172639309Y-80652023D01*
X172651404Y-80645976D01*
X172657452Y-80633880D01*
X172657452Y-80621785D01*
X172651404Y-80585500D02*
X172657452Y-80573404D01*
X172657452Y-80549214D01*
X172651404Y-80537119D01*
X172639309Y-80531071D01*
X172633261Y-80531071D01*
X172621166Y-80537119D01*
X172615119Y-80549214D01*
X172615119Y-80567357D01*
X172609071Y-80579452D01*
X172596976Y-80585500D01*
X172590928Y-80585500D01*
X172578833Y-80579452D01*
X172572785Y-80567357D01*
X172572785Y-80549214D01*
X172578833Y-80537119D01*
X172657452Y-80379880D02*
X172572785Y-80379880D01*
X172596976Y-80379880D02*
X172584880Y-80373833D01*
X172578833Y-80367785D01*
X172572785Y-80355690D01*
X172572785Y-80343595D01*
X172651404Y-80252880D02*
X172657452Y-80264976D01*
X172657452Y-80289166D01*
X172651404Y-80301261D01*
X172639309Y-80307309D01*
X172590928Y-80307309D01*
X172578833Y-80301261D01*
X172572785Y-80289166D01*
X172572785Y-80264976D01*
X172578833Y-80252880D01*
X172590928Y-80246833D01*
X172603023Y-80246833D01*
X172615119Y-80307309D01*
X172651404Y-80198452D02*
X172657452Y-80186357D01*
X172657452Y-80162166D01*
X172651404Y-80150071D01*
X172639309Y-80144023D01*
X172633261Y-80144023D01*
X172621166Y-80150071D01*
X172615119Y-80162166D01*
X172615119Y-80180309D01*
X172609071Y-80192404D01*
X172596976Y-80198452D01*
X172590928Y-80198452D01*
X172578833Y-80192404D01*
X172572785Y-80180309D01*
X172572785Y-80162166D01*
X172578833Y-80150071D01*
X172651404Y-80041214D02*
X172657452Y-80053309D01*
X172657452Y-80077500D01*
X172651404Y-80089595D01*
X172639309Y-80095642D01*
X172590928Y-80095642D01*
X172578833Y-80089595D01*
X172572785Y-80077500D01*
X172572785Y-80053309D01*
X172578833Y-80041214D01*
X172590928Y-80035166D01*
X172603023Y-80035166D01*
X172615119Y-80095642D01*
X172657452Y-79980738D02*
X172572785Y-79980738D01*
X172596976Y-79980738D02*
X172584880Y-79974690D01*
X172578833Y-79968642D01*
X172572785Y-79956547D01*
X172572785Y-79944452D01*
X172572785Y-79914214D02*
X172657452Y-79883976D01*
X172572785Y-79853738D01*
X172651404Y-79756976D02*
X172657452Y-79769071D01*
X172657452Y-79793261D01*
X172651404Y-79805357D01*
X172639309Y-79811404D01*
X172590928Y-79811404D01*
X172578833Y-79805357D01*
X172572785Y-79793261D01*
X172572785Y-79769071D01*
X172578833Y-79756976D01*
X172590928Y-79750928D01*
X172603023Y-79750928D01*
X172615119Y-79811404D01*
X172657452Y-79642071D02*
X172530452Y-79642071D01*
X172651404Y-79642071D02*
X172657452Y-79654166D01*
X172657452Y-79678357D01*
X172651404Y-79690452D01*
X172645357Y-79696500D01*
X172633261Y-79702547D01*
X172596976Y-79702547D01*
X172584880Y-79696500D01*
X172578833Y-79690452D01*
X172572785Y-79678357D01*
X172572785Y-79654166D01*
X172578833Y-79642071D01*
X172645357Y-79581595D02*
X172651404Y-79575547D01*
X172657452Y-79581595D01*
X172651404Y-79587642D01*
X172645357Y-79581595D01*
X172657452Y-79581595D01*
%TO.C,J4*%
D13*
X128233333Y-44686666D02*
X128233333Y-43986666D01*
X128633333Y-44686666D02*
X128333333Y-44286666D01*
X128633333Y-43986666D02*
X128233333Y-44386666D01*
X128933333Y-44320000D02*
X129166666Y-44320000D01*
X129266666Y-44686666D02*
X128933333Y-44686666D01*
X128933333Y-43986666D01*
X129266666Y-43986666D01*
X129566666Y-44320000D02*
X129800000Y-44320000D01*
X129900000Y-44686666D02*
X129566666Y-44686666D01*
X129566666Y-43986666D01*
X129900000Y-43986666D01*
X130200000Y-44686666D02*
X130200000Y-43986666D01*
X130466666Y-43986666D01*
X130533333Y-44020000D01*
X130566666Y-44053333D01*
X130600000Y-44120000D01*
X130600000Y-44220000D01*
X130566666Y-44286666D01*
X130533333Y-44320000D01*
X130466666Y-44353333D01*
X130200000Y-44353333D01*
X131033333Y-43986666D02*
X131166666Y-43986666D01*
X131233333Y-44020000D01*
X131300000Y-44086666D01*
X131333333Y-44220000D01*
X131333333Y-44453333D01*
X131300000Y-44586666D01*
X131233333Y-44653333D01*
X131166666Y-44686666D01*
X131033333Y-44686666D01*
X130966666Y-44653333D01*
X130900000Y-44586666D01*
X130866666Y-44453333D01*
X130866666Y-44220000D01*
X130900000Y-44086666D01*
X130966666Y-44020000D01*
X131033333Y-43986666D01*
X131633333Y-43986666D02*
X131633333Y-44553333D01*
X131666666Y-44620000D01*
X131700000Y-44653333D01*
X131766666Y-44686666D01*
X131900000Y-44686666D01*
X131966666Y-44653333D01*
X132000000Y-44620000D01*
X132033333Y-44553333D01*
X132033333Y-43986666D01*
X132266666Y-43986666D02*
X132666666Y-43986666D01*
X132466666Y-44686666D02*
X132466666Y-43986666D01*
%TO.C,J7*%
X123829761Y-92317380D02*
X123829761Y-91317380D01*
X124401190Y-92317380D02*
X123972619Y-91745952D01*
X124401190Y-91317380D02*
X123829761Y-91888809D01*
X124829761Y-91793571D02*
X125163095Y-91793571D01*
X125305952Y-92317380D02*
X124829761Y-92317380D01*
X124829761Y-91317380D01*
X125305952Y-91317380D01*
X125734523Y-91793571D02*
X126067857Y-91793571D01*
X126210714Y-92317380D02*
X125734523Y-92317380D01*
X125734523Y-91317380D01*
X126210714Y-91317380D01*
X126639285Y-92317380D02*
X126639285Y-91317380D01*
X127020238Y-91317380D01*
X127115476Y-91365000D01*
X127163095Y-91412619D01*
X127210714Y-91507857D01*
X127210714Y-91650714D01*
X127163095Y-91745952D01*
X127115476Y-91793571D01*
X127020238Y-91841190D01*
X126639285Y-91841190D01*
X127829761Y-91317380D02*
X128020238Y-91317380D01*
X128115476Y-91365000D01*
X128210714Y-91460238D01*
X128258333Y-91650714D01*
X128258333Y-91984047D01*
X128210714Y-92174523D01*
X128115476Y-92269761D01*
X128020238Y-92317380D01*
X127829761Y-92317380D01*
X127734523Y-92269761D01*
X127639285Y-92174523D01*
X127591666Y-91984047D01*
X127591666Y-91650714D01*
X127639285Y-91460238D01*
X127734523Y-91365000D01*
X127829761Y-91317380D01*
X128686904Y-91317380D02*
X128686904Y-92126904D01*
X128734523Y-92222142D01*
X128782142Y-92269761D01*
X128877380Y-92317380D01*
X129067857Y-92317380D01*
X129163095Y-92269761D01*
X129210714Y-92222142D01*
X129258333Y-92126904D01*
X129258333Y-91317380D01*
X129591666Y-91317380D02*
X130163095Y-91317380D01*
X129877380Y-92317380D02*
X129877380Y-91317380D01*
D14*
X130961904Y-82470952D02*
X130961904Y-82070952D01*
X131190476Y-82470952D02*
X131019047Y-82242380D01*
X131190476Y-82070952D02*
X130961904Y-82299523D01*
X131361904Y-82261428D02*
X131495238Y-82261428D01*
X131552380Y-82470952D02*
X131361904Y-82470952D01*
X131361904Y-82070952D01*
X131552380Y-82070952D01*
X131723809Y-82261428D02*
X131857142Y-82261428D01*
X131914285Y-82470952D02*
X131723809Y-82470952D01*
X131723809Y-82070952D01*
X131914285Y-82070952D01*
X132085714Y-82470952D02*
X132085714Y-82070952D01*
X132238095Y-82070952D01*
X132276190Y-82090000D01*
X132295238Y-82109047D01*
X132314285Y-82147142D01*
X132314285Y-82204285D01*
X132295238Y-82242380D01*
X132276190Y-82261428D01*
X132238095Y-82280476D01*
X132085714Y-82280476D01*
X132561904Y-82070952D02*
X132638095Y-82070952D01*
X132676190Y-82090000D01*
X132714285Y-82128095D01*
X132733333Y-82204285D01*
X132733333Y-82337619D01*
X132714285Y-82413809D01*
X132676190Y-82451904D01*
X132638095Y-82470952D01*
X132561904Y-82470952D01*
X132523809Y-82451904D01*
X132485714Y-82413809D01*
X132466666Y-82337619D01*
X132466666Y-82204285D01*
X132485714Y-82128095D01*
X132523809Y-82090000D01*
X132561904Y-82070952D01*
X132904761Y-82070952D02*
X132904761Y-82394761D01*
X132923809Y-82432857D01*
X132942857Y-82451904D01*
X132980952Y-82470952D01*
X133057142Y-82470952D01*
X133095238Y-82451904D01*
X133114285Y-82432857D01*
X133133333Y-82394761D01*
X133133333Y-82070952D01*
X133266666Y-82070952D02*
X133495238Y-82070952D01*
X133380952Y-82470952D02*
X133380952Y-82070952D01*
D15*
X121421428Y-95047142D02*
X120821428Y-95047142D01*
X121421428Y-94704285D02*
X121078571Y-94961428D01*
X120821428Y-94704285D02*
X121164285Y-95047142D01*
X121107142Y-94447142D02*
X121107142Y-94247142D01*
X121421428Y-94161428D02*
X121421428Y-94447142D01*
X120821428Y-94447142D01*
X120821428Y-94161428D01*
X121107142Y-93904285D02*
X121107142Y-93704285D01*
X121421428Y-93618571D02*
X121421428Y-93904285D01*
X120821428Y-93904285D01*
X120821428Y-93618571D01*
X121421428Y-93361428D02*
X120821428Y-93361428D01*
X120821428Y-93132857D01*
X120850000Y-93075714D01*
X120878571Y-93047142D01*
X120935714Y-93018571D01*
X121021428Y-93018571D01*
X121078571Y-93047142D01*
X121107142Y-93075714D01*
X121135714Y-93132857D01*
X121135714Y-93361428D01*
X120821428Y-92647142D02*
X120821428Y-92532857D01*
X120850000Y-92475714D01*
X120907142Y-92418571D01*
X121021428Y-92390000D01*
X121221428Y-92390000D01*
X121335714Y-92418571D01*
X121392857Y-92475714D01*
X121421428Y-92532857D01*
X121421428Y-92647142D01*
X121392857Y-92704285D01*
X121335714Y-92761428D01*
X121221428Y-92790000D01*
X121021428Y-92790000D01*
X120907142Y-92761428D01*
X120850000Y-92704285D01*
X120821428Y-92647142D01*
X120821428Y-92132857D02*
X121307142Y-92132857D01*
X121364285Y-92104285D01*
X121392857Y-92075714D01*
X121421428Y-92018571D01*
X121421428Y-91904285D01*
X121392857Y-91847142D01*
X121364285Y-91818571D01*
X121307142Y-91790000D01*
X120821428Y-91790000D01*
X120821428Y-91590000D02*
X120821428Y-91247142D01*
X121421428Y-91418571D02*
X120821428Y-91418571D01*
X122496428Y-89422142D02*
X121896428Y-89422142D01*
X122496428Y-89079285D02*
X122153571Y-89336428D01*
X121896428Y-89079285D02*
X122239285Y-89422142D01*
X122182142Y-88822142D02*
X122182142Y-88622142D01*
X122496428Y-88536428D02*
X122496428Y-88822142D01*
X121896428Y-88822142D01*
X121896428Y-88536428D01*
X122182142Y-88279285D02*
X122182142Y-88079285D01*
X122496428Y-87993571D02*
X122496428Y-88279285D01*
X121896428Y-88279285D01*
X121896428Y-87993571D01*
X122496428Y-87736428D02*
X121896428Y-87736428D01*
X121896428Y-87507857D01*
X121925000Y-87450714D01*
X121953571Y-87422142D01*
X122010714Y-87393571D01*
X122096428Y-87393571D01*
X122153571Y-87422142D01*
X122182142Y-87450714D01*
X122210714Y-87507857D01*
X122210714Y-87736428D01*
X121896428Y-87022142D02*
X121896428Y-86907857D01*
X121925000Y-86850714D01*
X121982142Y-86793571D01*
X122096428Y-86765000D01*
X122296428Y-86765000D01*
X122410714Y-86793571D01*
X122467857Y-86850714D01*
X122496428Y-86907857D01*
X122496428Y-87022142D01*
X122467857Y-87079285D01*
X122410714Y-87136428D01*
X122296428Y-87165000D01*
X122096428Y-87165000D01*
X121982142Y-87136428D01*
X121925000Y-87079285D01*
X121896428Y-87022142D01*
X121896428Y-86507857D02*
X122382142Y-86507857D01*
X122439285Y-86479285D01*
X122467857Y-86450714D01*
X122496428Y-86393571D01*
X122496428Y-86279285D01*
X122467857Y-86222142D01*
X122439285Y-86193571D01*
X122382142Y-86165000D01*
X121896428Y-86165000D01*
X121896428Y-85965000D02*
X121896428Y-85622142D01*
X122496428Y-85793571D02*
X121896428Y-85793571D01*
%TD*%
M02*
