%TF.GenerationSoftware,KiCad,Pcbnew,5.1.9+dfsg1-1*%
%TF.CreationDate,2022-02-21T14:57:17+01:00*%
%TF.ProjectId,sc606-baseboard,73633630-362d-4626-9173-65626f617264,rev?*%
%TF.SameCoordinates,Original*%
%TF.FileFunction,Copper,L4,Inr*%
%TF.FilePolarity,Positive*%
%FSLAX46Y46*%
G04 Gerber Fmt 4.6, Leading zero omitted, Abs format (unit mm)*
G04 Created by KiCad (PCBNEW 5.1.9+dfsg1-1) date 2022-02-21 14:57:17 commit 2b5f92f*
%MOMM*%
%LPD*%
G01*
G04 APERTURE LIST*
%TA.AperFunction,Profile*%
%ADD10C,0.120000*%
%TD*%
%TA.AperFunction,Profile*%
%ADD11C,0.254000*%
%TD*%
%TA.AperFunction,WasherPad*%
%ADD12C,1.710000*%
%TD*%
%TA.AperFunction,ComponentPad*%
%ADD13C,2.000000*%
%TD*%
%TA.AperFunction,ComponentPad*%
%ADD14O,0.900000X1.900000*%
%TD*%
%TA.AperFunction,ComponentPad*%
%ADD15O,1.000000X1.600000*%
%TD*%
%TA.AperFunction,ComponentPad*%
%ADD16O,1.150000X0.800000*%
%TD*%
%TA.AperFunction,ComponentPad*%
%ADD17C,0.650000*%
%TD*%
%TA.AperFunction,ComponentPad*%
%ADD18O,1.500000X2.550000*%
%TD*%
%TA.AperFunction,ComponentPad*%
%ADD19C,1.800000*%
%TD*%
%TA.AperFunction,ComponentPad*%
%ADD20R,1.800000X1.800000*%
%TD*%
%TA.AperFunction,ViaPad*%
%ADD21C,0.600000*%
%TD*%
%TA.AperFunction,Conductor*%
%ADD22C,0.125000*%
%TD*%
%TA.AperFunction,Conductor*%
%ADD23C,0.500000*%
%TD*%
%TA.AperFunction,Conductor*%
%ADD24C,1.000000*%
%TD*%
%TA.AperFunction,Conductor*%
%ADD25C,0.300000*%
%TD*%
%TA.AperFunction,Conductor*%
%ADD26C,0.250000*%
%TD*%
%TA.AperFunction,Conductor*%
%ADD27C,0.150000*%
%TD*%
%TA.AperFunction,Conductor*%
%ADD28C,0.254000*%
%TD*%
%TA.AperFunction,Conductor*%
%ADD29C,0.100000*%
%TD*%
G04 APERTURE END LIST*
D10*
X175600000Y-42400000D02*
X75600000Y-42400000D01*
D11*
X175600000Y-42400000D02*
X175600000Y-122400000D01*
D10*
X75600000Y-122400000D02*
X75600000Y-42400000D01*
D11*
X175600000Y-122400000D02*
X75600000Y-122400000D01*
D12*
%TO.N,*%
%TO.C,J1*%
X171050000Y-45920000D03*
X173550000Y-45920000D03*
D13*
%TO.N,GND*%
X173550000Y-53100000D03*
%TO.N,AUX_VDD*%
X171050000Y-53100000D03*
%TD*%
D14*
%TO.N,GND*%
%TO.C,J6*%
X76900000Y-44765000D03*
X85900000Y-44765000D03*
D15*
X77180000Y-47280000D03*
X85620000Y-47280000D03*
D16*
X77555000Y-50080000D03*
X85245000Y-50080000D03*
D17*
%TO.N,N/C*%
X79000000Y-47180000D03*
X79800000Y-47180000D03*
X80600000Y-47180000D03*
X82200000Y-47180000D03*
X83000000Y-47180000D03*
X83800000Y-47180000D03*
%TO.N,GND*%
X78600000Y-47880000D03*
%TO.N,/USB_flash_debug/USB_FLASH_5V0*%
X80200000Y-47880000D03*
%TO.N,/USB_flash_debug/USB_FLASH_P*%
X81000000Y-47880000D03*
%TO.N,/USB_flash_debug/USB_FLASH_N*%
X81800000Y-47880000D03*
%TO.N,/USB_flash_debug/USB_FLASH_5V0*%
X82600000Y-47880000D03*
%TO.N,GND*%
X84200000Y-47880000D03*
%TD*%
D14*
%TO.N,GND*%
%TO.C,J12*%
X153400000Y-44765000D03*
X162400000Y-44765000D03*
D15*
X153680000Y-47280000D03*
X162120000Y-47280000D03*
D16*
X154055000Y-50080000D03*
X161745000Y-50080000D03*
D17*
%TO.N,N/C*%
X155500000Y-47180000D03*
X156300000Y-47180000D03*
%TO.N,/USB-PD/PD_CC2*%
X157100000Y-47180000D03*
%TO.N,N/C*%
X158700000Y-47180000D03*
X159500000Y-47180000D03*
X160300000Y-47180000D03*
%TO.N,GND*%
X155100000Y-47880000D03*
%TO.N,/USB-PD/PD_VBUS*%
X156700000Y-47880000D03*
%TO.N,N/C*%
X157500000Y-47880000D03*
X158300000Y-47880000D03*
%TO.N,/USB-PD/PD_VBUS*%
X159100000Y-47880000D03*
%TO.N,GND*%
X160700000Y-47880000D03*
%TD*%
D14*
%TO.N,GND*%
%TO.C,J9*%
X139900000Y-44765000D03*
X148900000Y-44765000D03*
D15*
X140180000Y-47280000D03*
X148620000Y-47280000D03*
D16*
X140555000Y-50080000D03*
X148245000Y-50080000D03*
D17*
%TO.N,N/C*%
X142000000Y-47180000D03*
X142800000Y-47180000D03*
X143600000Y-47180000D03*
X145200000Y-47180000D03*
X146000000Y-47180000D03*
X146800000Y-47180000D03*
%TO.N,GND*%
X141600000Y-47880000D03*
%TO.N,/USB_flash_debug/DBG_VBUS*%
X143200000Y-47880000D03*
%TO.N,/USB_flash_debug/DBG_USB_D_P*%
X144000000Y-47880000D03*
%TO.N,/USB_flash_debug/DBG_USB_D_N*%
X144800000Y-47880000D03*
%TO.N,/USB_flash_debug/DBG_VBUS*%
X145600000Y-47880000D03*
%TO.N,GND*%
X147200000Y-47880000D03*
%TD*%
D14*
%TO.N,GND*%
%TO.C,J11*%
X90400000Y-44765000D03*
X99400000Y-44765000D03*
D15*
X90680000Y-47280000D03*
X99120000Y-47280000D03*
D16*
X91055000Y-50080000D03*
X98745000Y-50080000D03*
D17*
%TO.N,/USB_HUB_Connectors/USB_C2_SS_C_TX2_P*%
X92500000Y-47180000D03*
%TO.N,/USB_HUB_Connectors/USB_C2_SS_C_TX2_N*%
X93300000Y-47180000D03*
%TO.N,/USB_HUB_Connectors/USB_C2_CC2*%
X94100000Y-47180000D03*
%TO.N,Net-(J11-PadB8)*%
X95700000Y-47180000D03*
%TO.N,/USB_HUB_Connectors/USB_C2_SS_C_RX1_N*%
X96500000Y-47180000D03*
%TO.N,/USB_HUB_Connectors/USB_C2_SS_C_RX1_P*%
X97300000Y-47180000D03*
%TO.N,GND*%
X92100000Y-47880000D03*
%TO.N,/USB_HUB_Connectors/5V0_USB*%
X93700000Y-47880000D03*
%TO.N,/USB_HUB_Connectors/USB_C2_D2_P*%
X94500000Y-47880000D03*
%TO.N,/USB_HUB_Connectors/USB_C2_D2_N*%
X95300000Y-47880000D03*
%TO.N,/USB_HUB_Connectors/5V0_USB*%
X96100000Y-47880000D03*
%TO.N,GND*%
X97700000Y-47880000D03*
%TD*%
D14*
%TO.N,GND*%
%TO.C,J10*%
X103900000Y-44765000D03*
X112900000Y-44765000D03*
D15*
X104180000Y-47280000D03*
X112620000Y-47280000D03*
D16*
X104555000Y-50080000D03*
X112245000Y-50080000D03*
D17*
%TO.N,/USB_HUB_Connectors/USB_C1_SS_C_TX2_P*%
X106000000Y-47180000D03*
%TO.N,/USB_HUB_Connectors/USB_C1_SS_C_TX2_N*%
X106800000Y-47180000D03*
%TO.N,/USB_HUB_Connectors/USB_C1_CC2*%
X107600000Y-47180000D03*
%TO.N,Net-(J10-PadB8)*%
X109200000Y-47180000D03*
%TO.N,/USB_HUB_Connectors/USB_C1_SS_C_RX1_N*%
X110000000Y-47180000D03*
%TO.N,/USB_HUB_Connectors/USB_C1_SS_C_RX1_P*%
X110800000Y-47180000D03*
%TO.N,GND*%
X105600000Y-47880000D03*
%TO.N,/USB_HUB_Connectors/5V0_USB*%
X107200000Y-47880000D03*
%TO.N,/USB_HUB_Connectors/USB_C1_D2_P*%
X108000000Y-47880000D03*
%TO.N,/USB_HUB_Connectors/USB_C1_D2_N*%
X108800000Y-47880000D03*
%TO.N,/USB_HUB_Connectors/5V0_USB*%
X109600000Y-47880000D03*
%TO.N,GND*%
X111200000Y-47880000D03*
%TD*%
D18*
%TO.N,GND*%
%TO.C,J4*%
X133500000Y-47260000D03*
X127300000Y-47260000D03*
%TD*%
D19*
%TO.N,GND*%
%TO.C,SW1*%
X150780000Y-63100000D03*
%TO.N,DEBUG_UART_TX*%
X148240000Y-63100000D03*
D20*
%TO.N,DEBUG_UART_RX*%
X145700000Y-63100000D03*
%TD*%
D21*
%TO.N,GND*%
X117250000Y-62000000D03*
X116500000Y-61250000D03*
X126550000Y-119150000D03*
X163900000Y-67800000D03*
X163900000Y-65800000D03*
X161500000Y-65800000D03*
X161500000Y-67800000D03*
X162200000Y-105600000D03*
X163000000Y-105600000D03*
X163800000Y-105600000D03*
X164600000Y-105600000D03*
X162600000Y-106200000D03*
X163400000Y-106200000D03*
X164200000Y-105000000D03*
X163400000Y-105000000D03*
X162600000Y-105000000D03*
X130560000Y-61560000D03*
X131720000Y-60560000D03*
X138830000Y-54560000D03*
X88500000Y-87500000D03*
X90500000Y-87500000D03*
X88500000Y-89500000D03*
X88500000Y-93500000D03*
X88500000Y-95500000D03*
X90500000Y-93500000D03*
X92500000Y-93500000D03*
X90500000Y-90500000D03*
X94500000Y-93500000D03*
X94500000Y-90500000D03*
X94500000Y-97500000D03*
X94500000Y-101500000D03*
X94500000Y-105500000D03*
X90500000Y-121500000D03*
X88500000Y-97500000D03*
X90500000Y-97500000D03*
X92500000Y-97500000D03*
X88500000Y-99500000D03*
X88500000Y-101500000D03*
X88500000Y-103500000D03*
X88500000Y-105500000D03*
X88500000Y-107500000D03*
X90500000Y-101500000D03*
X92500000Y-101500000D03*
X90500000Y-105500000D03*
X92500000Y-105500000D03*
X88500000Y-109500000D03*
X90500000Y-109500000D03*
X88500000Y-81500000D03*
X86500000Y-69500000D03*
X84500000Y-69500000D03*
X82500000Y-69500000D03*
X80500000Y-69500000D03*
X78500000Y-69500000D03*
X76500000Y-69500000D03*
X122000000Y-53000000D03*
X120500000Y-53000000D03*
X119000000Y-53000000D03*
X123500000Y-53000000D03*
X125000000Y-53000000D03*
X125500000Y-57000000D03*
X125500000Y-55500000D03*
X125500000Y-54000000D03*
X125500000Y-58500000D03*
X125500000Y-60000000D03*
X122000000Y-61000000D03*
X120500000Y-61000000D03*
X119000000Y-61000000D03*
X118000000Y-57000000D03*
X118000000Y-58500000D03*
X118000000Y-60000000D03*
X118000000Y-55500000D03*
X118000000Y-54000000D03*
X123400000Y-61000000D03*
X125000000Y-61000000D03*
X88500000Y-113500000D03*
X88500000Y-117500000D03*
X88500000Y-119500000D03*
X88500000Y-121500000D03*
X88500000Y-85500000D03*
X90500000Y-83500000D03*
X92500000Y-83500000D03*
X88500000Y-83500000D03*
X88500000Y-79500000D03*
X90500000Y-79500000D03*
X92500000Y-79500000D03*
X88500000Y-77500000D03*
X88500000Y-75500000D03*
X90500000Y-75500000D03*
X88500000Y-73500000D03*
X88500000Y-71500000D03*
X90500000Y-71500000D03*
X92500000Y-71500000D03*
X88500000Y-69500000D03*
X88500000Y-115500000D03*
X88500000Y-111500000D03*
X90500000Y-113500000D03*
X113735000Y-60710000D03*
X110450000Y-78100000D03*
X112350000Y-78000000D03*
X120900000Y-73000000D03*
X124900000Y-107900000D03*
X138337501Y-82362499D03*
X82400000Y-66700000D03*
X89400000Y-56783628D03*
X83800000Y-55300000D03*
X84050000Y-64350000D03*
X111600000Y-55100000D03*
X107400000Y-54400000D03*
X128100000Y-120150000D03*
X125100000Y-101300000D03*
X128120000Y-64340000D03*
X134700000Y-81300000D03*
X132300000Y-98700000D03*
X126132215Y-99067785D03*
X126500000Y-96012500D03*
X129000000Y-94900000D03*
X123894715Y-93705285D03*
X121200000Y-97600000D03*
X121200000Y-100100000D03*
X115900000Y-100100000D03*
X110800000Y-100100000D03*
X116100000Y-97500000D03*
X110900000Y-97500000D03*
X116400000Y-106800000D03*
X111400000Y-107000000D03*
X109400000Y-112400000D03*
X105400000Y-112400000D03*
X103300000Y-112300000D03*
X99500000Y-113800000D03*
X104200000Y-107700000D03*
X103800000Y-98600000D03*
X104100000Y-92900000D03*
X119900000Y-93400000D03*
X123700000Y-91662501D03*
X128900000Y-92637501D03*
X129100000Y-90287500D03*
X123800000Y-89700000D03*
X117300000Y-93600000D03*
X113400000Y-94900000D03*
X113400000Y-92637501D03*
X109500000Y-93600000D03*
X113400000Y-89700000D03*
X109500000Y-88400000D03*
X129000000Y-87100000D03*
X123800000Y-87100000D03*
X118600000Y-87100000D03*
X116094714Y-86905286D03*
X111000000Y-87100000D03*
X110800000Y-84500000D03*
X116000000Y-84500000D03*
X121100000Y-84700000D03*
X126400000Y-84500000D03*
X129200000Y-84500000D03*
X133300000Y-84300000D03*
X140400000Y-86400000D03*
X144000000Y-113150000D03*
X128100000Y-119200000D03*
X126550000Y-120150000D03*
X107500000Y-81300000D03*
X98600000Y-71200000D03*
X105500000Y-72600000D03*
X102400000Y-72225000D03*
X104800000Y-63500000D03*
X103900000Y-64100000D03*
X102300000Y-62500000D03*
X103200000Y-61800000D03*
X103900000Y-62600000D03*
X104000000Y-61100000D03*
X120700000Y-78000000D03*
X130521364Y-63352162D03*
X128000000Y-58100000D03*
X130261094Y-65627897D03*
X135100000Y-65300000D03*
X131500000Y-66100000D03*
X134956906Y-60362035D03*
X138400000Y-79300000D03*
X143300000Y-75800000D03*
X141800000Y-72100000D03*
X128400000Y-72100000D03*
X140400000Y-52950000D03*
X146700000Y-51700000D03*
X144000000Y-58300000D03*
X146900000Y-57100000D03*
X152800000Y-56150000D03*
X154750000Y-56050000D03*
X150100000Y-45950000D03*
X161450000Y-54350000D03*
X159550000Y-56500000D03*
X132850000Y-63437491D03*
X144650000Y-55600000D03*
X139350000Y-100050000D03*
X139100000Y-104850000D03*
X133650000Y-119050000D03*
X129838747Y-45333160D03*
X133600000Y-51800000D03*
X127700000Y-51900000D03*
X93250000Y-54550000D03*
X97450000Y-55450000D03*
X95000000Y-52600000D03*
X160000000Y-104000000D03*
X168755285Y-100255285D03*
X174800000Y-103800000D03*
X174200000Y-103800000D03*
X173600000Y-103800000D03*
X174800000Y-104400000D03*
X174200000Y-104400000D03*
X173600000Y-104400000D03*
X170800000Y-105600000D03*
X171400000Y-105600000D03*
X172000000Y-105600000D03*
X170100000Y-111300000D03*
X157400000Y-75100000D03*
X152000000Y-69050000D03*
X152050000Y-71250000D03*
X151700000Y-70700000D03*
X152400000Y-70700000D03*
X152050000Y-70150000D03*
X151350000Y-70150000D03*
X151700000Y-69600000D03*
X152700000Y-70150000D03*
X152350000Y-69600000D03*
X162550000Y-102650000D03*
X111425003Y-69200000D03*
X117300000Y-111200000D03*
X166000000Y-119000000D03*
X152150000Y-93000000D03*
X122699998Y-116250009D03*
X140100000Y-89587532D03*
X118744714Y-89587532D03*
X168700000Y-90900000D03*
X157100000Y-98000000D03*
X154400000Y-78687500D03*
X158525001Y-94050000D03*
X151600000Y-87024997D03*
X173200000Y-78600000D03*
X164200000Y-106200000D03*
X171500000Y-87800000D03*
X164000000Y-89700000D03*
X167400000Y-84200000D03*
X171097470Y-81682284D03*
X171724997Y-75801282D03*
X171550000Y-74150000D03*
X162700000Y-66800010D03*
X169200000Y-68550000D03*
X168600000Y-68550000D03*
X168000000Y-68550000D03*
X167400000Y-68550000D03*
X166800000Y-68550000D03*
X166200000Y-68550000D03*
X165600000Y-68550000D03*
X160550000Y-66750000D03*
X159950000Y-66750000D03*
X159350000Y-66750000D03*
X158750000Y-66750000D03*
X158150000Y-66750000D03*
X165800000Y-57050000D03*
X174800000Y-60450000D03*
X174800000Y-59700000D03*
X174050000Y-60450000D03*
X174050000Y-59700000D03*
X165500000Y-59012500D03*
X131050000Y-119049994D03*
X133817036Y-120500000D03*
X155300000Y-119800000D03*
X164873169Y-59001654D03*
X171300004Y-91550000D03*
X173100000Y-83400000D03*
X173100000Y-95550000D03*
X163150000Y-78500000D03*
X129900000Y-43750000D03*
X113750000Y-64550000D03*
X114700000Y-65500000D03*
X112150000Y-64700000D03*
X118500000Y-66000000D03*
X118500000Y-67250000D03*
X118500000Y-69000000D03*
X120500000Y-69000000D03*
X120500000Y-67500000D03*
X120250000Y-65000000D03*
X120250000Y-63250000D03*
X119750000Y-62000000D03*
X116250000Y-60250000D03*
X116250000Y-58500000D03*
X116250000Y-57000000D03*
X116250000Y-55500000D03*
X116250000Y-54000000D03*
X116250000Y-52500000D03*
X117250000Y-51500000D03*
X120250000Y-51500000D03*
X120250000Y-49750000D03*
X118500000Y-49750000D03*
X117000000Y-49000000D03*
X121750000Y-49000000D03*
X117000000Y-47000000D03*
X117000000Y-45000000D03*
X121750000Y-45000000D03*
X121750000Y-47000000D03*
X119500000Y-44750000D03*
X125388299Y-68611701D03*
X125388299Y-67111701D03*
X125388299Y-65611701D03*
X125250000Y-63750000D03*
X123000000Y-63750000D03*
X123000000Y-67600000D03*
X99000000Y-68275799D03*
X95800000Y-67700000D03*
X96600000Y-64500000D03*
X78800000Y-62400000D03*
X79200000Y-64800000D03*
X90100000Y-58400000D03*
X102700000Y-53600000D03*
X134700000Y-45700000D03*
X138300004Y-60100000D03*
X132000000Y-100300000D03*
X172800000Y-100200000D03*
X151044715Y-104444715D03*
X134600000Y-49475010D03*
X173400000Y-54600000D03*
X174000000Y-54550000D03*
X174600000Y-54550000D03*
X172700000Y-51700000D03*
X172700000Y-51100000D03*
X173150000Y-50700000D03*
X173750000Y-50700000D03*
X174350000Y-50700000D03*
X174850000Y-51050000D03*
X174850000Y-51650000D03*
X174850000Y-52250000D03*
X174850000Y-52850000D03*
X125450000Y-96200000D03*
X157750000Y-110700000D03*
X156450000Y-112350000D03*
X159300000Y-114450000D03*
X165850000Y-114000000D03*
X160200000Y-112500000D03*
X99317979Y-86902479D03*
%TO.N,RTC_BAT*%
X96300000Y-87674976D03*
%TO.N,LDO6_1P8*%
X121500000Y-62500000D03*
X112900000Y-75900000D03*
X99400000Y-82800000D03*
X136900000Y-119025002D03*
X149500000Y-109800000D03*
X102900000Y-109250000D03*
X139500000Y-118424998D03*
X153762490Y-96400000D03*
X155162490Y-93000000D03*
X151600000Y-87750000D03*
X136900000Y-120800000D03*
%TO.N,V_SOM*%
X96250000Y-108750000D03*
X96250000Y-111000000D03*
X96500000Y-113500000D03*
X99500000Y-116000000D03*
X98500000Y-116500000D03*
X98500000Y-115500000D03*
X96500000Y-115500000D03*
X96500000Y-116500000D03*
X96500000Y-114500000D03*
X97500000Y-116000000D03*
X97500000Y-115000000D03*
X97500000Y-114000000D03*
X96250000Y-109750000D03*
%TO.N,VPH_PWR*%
X105400000Y-104700000D03*
%TO.N,Net-(C20-Pad1)*%
X161775003Y-63900000D03*
%TO.N,5V0_SYS*%
X163000000Y-108000000D03*
X118500000Y-121300000D03*
X119250000Y-120900000D03*
X118500000Y-120500000D03*
X119250000Y-120150000D03*
X118500000Y-119750000D03*
X120000000Y-119750000D03*
X120000000Y-120500000D03*
X120000000Y-121300000D03*
X120700000Y-120900000D03*
X120700000Y-120100000D03*
X121450000Y-120500000D03*
X121450000Y-121300000D03*
X122300000Y-121300000D03*
X111700000Y-61700000D03*
X77900000Y-62900000D03*
X76900000Y-67100000D03*
X76350000Y-62550000D03*
X76350000Y-61900000D03*
X76350000Y-61250000D03*
X76350000Y-60600000D03*
X162600000Y-108600000D03*
X163000000Y-109300000D03*
X163400000Y-108600000D03*
X163800000Y-109300000D03*
X164200000Y-108600000D03*
X164600000Y-109300000D03*
X163800000Y-108000000D03*
X164600000Y-108000000D03*
X137300000Y-46900000D03*
X151150000Y-48200000D03*
X163050000Y-54500000D03*
X173800000Y-102400000D03*
X174400000Y-103000000D03*
X173800000Y-103000000D03*
X174400000Y-102400000D03*
X174400000Y-101800000D03*
X173800000Y-101800000D03*
X174400000Y-101200000D03*
X173800000Y-101200000D03*
X173200000Y-101200000D03*
X156900000Y-71300000D03*
X156200000Y-71300000D03*
X155500000Y-71300000D03*
X156900000Y-70700000D03*
X156200000Y-70700000D03*
X155500000Y-70700000D03*
X156900000Y-70100000D03*
X156200000Y-70100000D03*
X155500000Y-70100000D03*
X152550000Y-102650000D03*
X165000000Y-108600000D03*
X165650000Y-63450000D03*
X166250000Y-63450000D03*
X166850000Y-63450000D03*
X167450000Y-63450000D03*
X165950000Y-64050000D03*
X166550000Y-64050000D03*
X167150000Y-64050000D03*
X166250000Y-64650000D03*
X165650000Y-64650000D03*
X166850000Y-64650000D03*
X167450000Y-64650000D03*
X167750000Y-64050000D03*
X154650000Y-115000000D03*
X161300000Y-112400000D03*
%TO.N,Net-(C23-Pad1)*%
X161550000Y-69594998D03*
%TO.N,Net-(C25-Pad2)*%
X166900000Y-70800000D03*
%TO.N,Net-(C25-Pad1)*%
X165155016Y-71800000D03*
X164900000Y-65100000D03*
%TO.N,1V2_SYS*%
X100100000Y-65400000D03*
X106800000Y-66500000D03*
X99200000Y-62900000D03*
X107887160Y-60487160D03*
X103823249Y-67560682D03*
X143612503Y-66200000D03*
X103700000Y-58300000D03*
X100700000Y-59600000D03*
X153000000Y-75600000D03*
X150400000Y-70800000D03*
X149700000Y-70800000D03*
X149000000Y-70800000D03*
X148300000Y-70800000D03*
X146300000Y-73200000D03*
X146300000Y-72500000D03*
X146300000Y-71800000D03*
X147000000Y-72900000D03*
X147000000Y-72100000D03*
X160050000Y-102650000D03*
%TO.N,3V3_CAM*%
X115800000Y-115500000D03*
X114600000Y-116100000D03*
X174225000Y-110425000D03*
X115200000Y-115500000D03*
X116400000Y-115800000D03*
X115200000Y-116100000D03*
X115800000Y-116100000D03*
X165750000Y-103250000D03*
X174825000Y-107750000D03*
X174825000Y-108425000D03*
X174825000Y-109225000D03*
X174825000Y-110025000D03*
X174225000Y-108075000D03*
X174225000Y-108825000D03*
X174225000Y-109625000D03*
X174825000Y-110825000D03*
X157550000Y-102650000D03*
%TO.N,3V3_SYS*%
X152000000Y-107500000D03*
X151200000Y-108400000D03*
X99200000Y-64892500D03*
X108600000Y-64500000D03*
X88500000Y-65900000D03*
X87600000Y-59500000D03*
X104400000Y-68000000D03*
X153000000Y-111250000D03*
X152000000Y-111250000D03*
X152500000Y-110500000D03*
X151500000Y-110500000D03*
X151250000Y-109250000D03*
X151250000Y-107500000D03*
X151250000Y-106500000D03*
X152000000Y-106500000D03*
X143750000Y-70250000D03*
X143750000Y-71500000D03*
X102550000Y-58200000D03*
X155050000Y-102650000D03*
X100730000Y-67120000D03*
X123373845Y-116517539D03*
X163250000Y-82350000D03*
X171200000Y-82400000D03*
X158650000Y-87300000D03*
X160000000Y-78150000D03*
X158525001Y-96400000D03*
X163300000Y-93100000D03*
X130224984Y-119025012D03*
%TO.N,/display module/RST_N*%
X149400000Y-104400000D03*
X143750000Y-72750000D03*
X147074972Y-86592459D03*
%TO.N,LT9611_VCC33_RX*%
X128100000Y-62732500D03*
X128074035Y-61319033D03*
X140687491Y-68300000D03*
X129322316Y-67695057D03*
%TO.N,LT9611_VCC33_TX*%
X129230000Y-56820000D03*
X132010001Y-57610001D03*
X136189998Y-56990000D03*
%TO.N,LT9611_VCC33_IO*%
X137700000Y-62150000D03*
X138680000Y-58320000D03*
X136690000Y-58900000D03*
X122000000Y-73200000D03*
X139228165Y-67271835D03*
%TO.N,Net-(C53-Pad1)*%
X128080000Y-60560000D03*
%TO.N,Net-(C57-Pad1)*%
X128080000Y-59770000D03*
%TO.N,LDO17_2P85*%
X152750000Y-96450000D03*
X168700000Y-91900000D03*
X99325012Y-85800000D03*
%TO.N,LT9611_VDD12*%
X136650000Y-67100000D03*
X126174998Y-61650000D03*
X140700000Y-65000000D03*
X137679587Y-60475143D03*
%TO.N,LT9611_VCC12_RX*%
X128575035Y-67664505D03*
X128120000Y-63520000D03*
X140700000Y-63400000D03*
%TO.N,LT9611_VCC12_TX*%
X140700000Y-61800000D03*
X131300000Y-58000000D03*
%TO.N,/display module/TX_D2_P*%
X129256578Y-58088512D03*
%TO.N,/display module/TX_D2_N*%
X129981578Y-58088512D03*
%TO.N,/display module/TX_D0_P*%
X133313673Y-56973673D03*
%TO.N,/display module/TX_D0_N*%
X133826327Y-57486327D03*
%TO.N,/display module/V_COMM*%
X135570000Y-53280000D03*
X137110004Y-53590000D03*
X132362500Y-58250000D03*
X127550000Y-54000000D03*
X132350000Y-53050000D03*
%TO.N,Net-(C85-Pad1)*%
X132717762Y-49107206D03*
%TO.N,SD_LDO11*%
X129160000Y-99815000D03*
X124000000Y-110500000D03*
%TO.N,USIM1_VDD*%
X112400000Y-72700000D03*
%TO.N,/USB_flash_debug/USB_FLASH_5V0*%
X87600000Y-60300000D03*
%TO.N,/USB_flash_debug/5V0_DBG*%
X142100000Y-56000000D03*
%TO.N,/USB_flash_debug/DBG_USB_D_P*%
X144762500Y-50337502D03*
%TO.N,1V8_DBG*%
X148550000Y-58700000D03*
%TO.N,/USB_flash_debug/DBG_USB_D_N*%
X144037500Y-50337502D03*
%TO.N,Net-(C117-Pad2)*%
X143074998Y-54050000D03*
%TO.N,/USB_HUB_Connectors/HUB_XTALI*%
X111200000Y-67400000D03*
%TO.N,/USB_HUB_Connectors/HUB_XTALO*%
X108800000Y-65500000D03*
%TO.N,/USB_HUB_Connectors/5V0_USB*%
X88400000Y-50700000D03*
X78600000Y-59700000D03*
X79100000Y-60200000D03*
X79700000Y-59700000D03*
X80200000Y-60200000D03*
X80700000Y-59700000D03*
X101100000Y-50600000D03*
%TO.N,/USB_flash_debug/USB_FLASH_P*%
X81762500Y-50487498D03*
X82106327Y-53493673D03*
X85081840Y-57150325D03*
%TO.N,/USB_flash_debug/USB_FLASH_N*%
X81037500Y-50487498D03*
X81593673Y-54006327D03*
X84569186Y-57662979D03*
%TO.N,DEBUG_UART_RX*%
X99400000Y-78650000D03*
%TO.N,DEBUG_UART_TX*%
X99900000Y-77950000D03*
%TO.N,Net-(IC1-Pad10)*%
X164950000Y-68900000D03*
X173749992Y-61200000D03*
%TO.N,Net-(IC1-Pad6)*%
X160500000Y-68000000D03*
X172400000Y-63400000D03*
%TO.N,Net-(IC1-Pad5)*%
X161050000Y-63900000D03*
%TO.N,Net-(IC1-Pad3)*%
X162500006Y-63900000D03*
%TO.N,VSYNC_CAM2*%
X125880285Y-109730285D03*
X121419683Y-116702380D03*
%TO.N,VSYNC_CAM1*%
X126950000Y-107950000D03*
X122144567Y-116715989D03*
%TO.N,TP0_I2C_SDA*%
X114800000Y-75912490D03*
X167500000Y-89800000D03*
%TO.N,TP0_I2C_SCL*%
X113400000Y-72700000D03*
X167500000Y-88800000D03*
%TO.N,/display module/DETECT_HDMI*%
X128000000Y-49700000D03*
%TO.N,/display module/CEC_HDMI*%
X149000000Y-66750000D03*
X133000000Y-50100000D03*
%TO.N,/display module/LTtoHDMI_SCL*%
X133600000Y-49530000D03*
%TO.N,/display module/LTtoHDMI_SDA*%
X135490000Y-52070000D03*
%TO.N,Net-(J11-PadA8)*%
X94152973Y-50621514D03*
X101050000Y-48100000D03*
%TO.N,SoM_USB_D_P*%
X99843673Y-104643673D03*
X81444732Y-57792078D03*
%TO.N,SoM_USB_D_N*%
X100356327Y-105156327D03*
X81957386Y-58304732D03*
%TO.N,Net-(M1-Pad248)*%
X126100000Y-77900000D03*
%TO.N,Net-(M1-Pad247)*%
X135600000Y-78200000D03*
%TO.N,CAM_RST*%
X126900000Y-106600000D03*
X151350000Y-103400000D03*
%TO.N,LT9611_RST_N*%
X124900000Y-106600000D03*
X149500000Y-108100000D03*
%TO.N,LT9611_INT0*%
X149500000Y-109074997D03*
X123837510Y-106600000D03*
%TO.N,HDMI_I2C_SCL*%
X117700000Y-75000000D03*
%TO.N,HDMI_I2C_SDA*%
X117755285Y-77744715D03*
%TO.N,Net-(M1-Pad201)*%
X132900000Y-74700000D03*
%TO.N,Net-(M1-Pad200)*%
X126900000Y-75800000D03*
%TO.N,SoM_USB3_TX_N*%
X121262500Y-106845636D03*
X108762500Y-68400000D03*
%TO.N,SoM_USB3_TX_P*%
X120537500Y-106845636D03*
X108037500Y-68400000D03*
%TO.N,SoM_USB3_RX_N*%
X115262500Y-106850000D03*
X107062500Y-68200000D03*
%TO.N,SoM_USB3_RX_P*%
X114537500Y-106850000D03*
X106337500Y-68200000D03*
%TO.N,VOL_DOWN*%
X106400000Y-72700000D03*
X142803640Y-115467768D03*
%TO.N,VOL_UP*%
X107349999Y-72700000D03*
X143500000Y-115000002D03*
%TO.N,Net-(M1-Pad145)*%
X108400000Y-72700000D03*
%TO.N,USIM1_RST*%
X109450000Y-72700000D03*
%TO.N,USIM1_CLK*%
X110400000Y-72700000D03*
%TO.N,USIM1_DATA*%
X111400000Y-72700000D03*
%TO.N,Net-(M1-Pad132)*%
X121000000Y-65450000D03*
%TO.N,Net-(M1-Pad131)*%
X123000000Y-66400000D03*
X122000000Y-65450000D03*
%TO.N,PWRKEY*%
X162600000Y-116400000D03*
X101330278Y-112319722D03*
%TO.N,SoM_USB_FLASH_ID*%
X99800000Y-102800000D03*
X87300000Y-68100000D03*
%TO.N,LDO5_1P8*%
X99400000Y-81800000D03*
X146800000Y-119500000D03*
X102400000Y-109900000D03*
%TO.N,/display module/CEC_LT*%
X137919715Y-63319715D03*
X143125003Y-67550000D03*
%TO.N,/display module/INT0*%
X148700000Y-109800000D03*
X137749934Y-64568431D03*
X142400000Y-67550000D03*
X144500000Y-74600000D03*
X146350000Y-86600000D03*
%TO.N,Net-(R59-Pad1)*%
X136990000Y-58220000D03*
X127550000Y-56150000D03*
%TO.N,Net-(R107-Pad1)*%
X87929317Y-57520683D03*
%TO.N,Net-(R112-Pad2)*%
X110200000Y-69100000D03*
%TO.N,Net-(R113-Pad2)*%
X109100000Y-63900000D03*
%TO.N,Net-(R118-Pad2)*%
X103100000Y-69150000D03*
%TO.N,Net-(R119-Pad2)*%
X102749996Y-68450000D03*
%TO.N,Net-(R120-Pad2)*%
X102100000Y-69150000D03*
%TO.N,Net-(TP16-Pad1)*%
X100800000Y-68000000D03*
%TO.N,Net-(TP17-Pad1)*%
X101612500Y-68000000D03*
%TO.N,USB_HUB_P*%
X104743673Y-68743673D03*
X86250000Y-57137500D03*
%TO.N,USB_HUB_N*%
X105256327Y-69256327D03*
X86250000Y-57862500D03*
%TO.N,/USB_HUB_Connectors/USB_C1_SS_TX2_P*%
X110256327Y-59956327D03*
%TO.N,/USB_HUB_Connectors/USB_C1_SS_TX2_N*%
X109743673Y-59443673D03*
%TO.N,/USB_HUB_Connectors/USB_C1_SS_TX1_P*%
X107625431Y-57651327D03*
%TO.N,/USB_HUB_Connectors/USB_C1_SS_RX2_N*%
X110900000Y-58137500D03*
X106545684Y-55333030D03*
%TO.N,/USB_HUB_Connectors/USB_C1_SS_TX1_N*%
X107112777Y-57138673D03*
%TO.N,/USB_HUB_Connectors/USB_C1_SS_RX2_P*%
X110900000Y-58862500D03*
X106033030Y-55845684D03*
%TO.N,/USB_HUB_Connectors/USB_C2_SS_TX1_P*%
X101012500Y-58300000D03*
%TO.N,/USB_HUB_Connectors/USB_C2_SS_TX1_N*%
X100287500Y-58300000D03*
%TO.N,/USB_HUB_Connectors/USB_C2_SS_RX2_N*%
X94250000Y-62712500D03*
%TO.N,/USB_HUB_Connectors/USB_C2_SS_RX2_P*%
X94250000Y-61987500D03*
%TO.N,/USB_HUB_Connectors/USB_C1_CC1*%
X109170683Y-51079317D03*
X102800000Y-51500000D03*
%TO.N,/USB_HUB_Connectors/USB_C1_CC2*%
X102800000Y-52600000D03*
%TO.N,/USB_HUB_Connectors/USB_C2_CC1*%
X90600000Y-54300000D03*
X95697898Y-50653885D03*
%TO.N,/USB_HUB_Connectors/USB_C2_CC2*%
X89500000Y-54300000D03*
%TO.N,SD_DATA_6*%
X125769745Y-112472463D03*
%TO.N,SD_DATA_4*%
X126612499Y-102500000D03*
%TO.N,SD_DATA_5*%
X126900000Y-103500000D03*
%TO.N,SD_DATA_0*%
X125150000Y-109750000D03*
%TO.N,SD_DATA_1*%
X124400000Y-109750000D03*
%TO.N,SD_DATA_2*%
X125800000Y-111000000D03*
%TO.N,SD_DATA_3*%
X124800000Y-111050000D03*
%TO.N,CAM1_CLK_P*%
X143818673Y-99930007D03*
%TO.N,CAM1_CLK_N*%
X144331327Y-99417353D03*
%TO.N,CAM1_D0_P*%
X144075000Y-97662500D03*
%TO.N,CAM1_D0_N*%
X144075000Y-96937500D03*
%TO.N,CAM1_D1_P*%
X144075000Y-95662500D03*
%TO.N,CAM1_D1_N*%
X144075000Y-94937500D03*
%TO.N,CAM1_D2_P*%
X144075000Y-93662500D03*
%TO.N,CAM1_D2_N*%
X144075000Y-92937500D03*
%TO.N,CAM1_D3_P*%
X144075000Y-91662500D03*
%TO.N,CAM1_D3_N*%
X144075000Y-90937500D03*
%TO.N,/USB_HUB_Connectors/USB_C1_SS_C_TX1_P*%
X109970684Y-52391970D03*
%TO.N,/USB_HUB_Connectors/USB_C1_SS_C_TX1_N*%
X109458030Y-51879316D03*
%TO.N,/USB_HUB_Connectors/USB_C2_SS_C_TX1_P*%
X98992884Y-52588215D03*
%TO.N,/USB_HUB_Connectors/USB_C2_SS_C_TX2_P*%
X93812500Y-51900000D03*
%TO.N,/USB_HUB_Connectors/USB_C2_SS_C_TX1_N*%
X98992884Y-51863215D03*
%TO.N,/USB_HUB_Connectors/USB_C2_SS_C_TX2_N*%
X93087500Y-51900000D03*
%TO.N,/USB_HUB_Connectors/USB_C2_SS_C_RX2_N*%
X92762500Y-55153238D03*
%TO.N,/USB_HUB_Connectors/USB_C2_SS_C_RX1_N*%
X97042500Y-51718119D03*
%TO.N,/USB_HUB_Connectors/USB_C2_SS_C_RX2_P*%
X92037500Y-55153238D03*
%TO.N,/USB_HUB_Connectors/USB_C2_SS_C_RX1_P*%
X97767500Y-51718119D03*
%TO.N,CAM2_CLK_P*%
X139193829Y-102006327D03*
%TO.N,CAM2_CLK_N*%
X138681175Y-101493673D03*
%TO.N,CAM2_D0_P*%
X138768809Y-98662500D03*
%TO.N,CAM2_D0_N*%
X138768809Y-97937500D03*
%TO.N,CAM2_D1_P*%
X139100000Y-94662500D03*
%TO.N,CAM2_D1_N*%
X139100000Y-93937500D03*
%TO.N,CAM2_D2_P*%
X138943673Y-90906327D03*
%TO.N,CAM2_D2_N*%
X139456327Y-90393673D03*
%TO.N,CAM2_D3_P*%
X138993673Y-87306327D03*
%TO.N,CAM2_D3_N*%
X139506327Y-86793673D03*
%TO.N,/display module/TX_D2_Ferr_P*%
X126368673Y-53006327D03*
%TO.N,/display module/TX_D2_Ferr_N*%
X126881327Y-52493673D03*
%TO.N,/display module/TX_D0_Ferr_P*%
X131600000Y-52612500D03*
%TO.N,/display module/TX_D0_Ferr_N*%
X131600000Y-51887500D03*
%TO.N,/display module/TX_D1_Ferr_P*%
X129437500Y-45981860D03*
X129587500Y-52415161D03*
%TO.N,/display module/TX_D1_Ferr_N*%
X130162500Y-45981860D03*
X130312500Y-52415161D03*
%TO.N,/display module/TX_CLK_Ferr_P*%
X131526804Y-51139458D03*
X131302921Y-45467759D03*
%TO.N,/display module/TX_CLK_Ferr_N*%
X132039458Y-50626804D03*
X132027921Y-45467759D03*
%TO.N,SoMtoDisplay_D3_N*%
X144600000Y-76937500D03*
%TO.N,SoMtoDisplay_D3_P*%
X144600000Y-77662500D03*
%TO.N,SoMtoDisplay_D2_N*%
X144600000Y-78937500D03*
%TO.N,SoMtoDisplay_D2_P*%
X144600000Y-79662500D03*
%TO.N,SoMtoDisplay_D1_N*%
X144600000Y-80937500D03*
%TO.N,SoMtoDisplay_D1_P*%
X144600000Y-81662500D03*
%TO.N,SoMtoDisplay_D0_N*%
X144600000Y-82937500D03*
%TO.N,SoMtoDisplay_D0_P*%
X144600000Y-83662500D03*
%TO.N,SoMtoDisplay_CLK_N*%
X144600000Y-84937500D03*
%TO.N,SoMtoDisplay_CLK_P*%
X144600000Y-85662500D03*
%TO.N,SoMtoLT_D3_N*%
X129537500Y-72512482D03*
X130193673Y-68753916D03*
%TO.N,SoMtoLT_D3_P*%
X130262500Y-72512482D03*
X130706327Y-69266570D03*
%TO.N,SoMtoLT_D2_N*%
X131671213Y-68681861D03*
X131537500Y-72512298D03*
%TO.N,SoMtoLT_D2_P*%
X132183867Y-69194515D03*
X132262500Y-72512298D03*
%TO.N,SoMtoLT_D1_N*%
X133537500Y-72473175D03*
X133812500Y-68331134D03*
%TO.N,SoMtoLT_D1_P*%
X134262500Y-72473175D03*
X134537500Y-68331134D03*
%TO.N,SoMtoLT_D0_N*%
X135537500Y-72476044D03*
X135368515Y-68568829D03*
%TO.N,SoMtoLT_D0_P*%
X136262500Y-72476044D03*
X135881169Y-68056175D03*
%TO.N,SoMtoLT_CLK_N*%
X136875000Y-69262500D03*
X137537500Y-72477945D03*
%TO.N,SoMtoLT_CLK_P*%
X136875000Y-68537500D03*
X138262500Y-72477945D03*
%TO.N,USB_BOOT*%
X143944722Y-115994586D03*
X119299996Y-112200000D03*
%TO.N,/USB_HUB_Connectors/USB_C1_SS_C_RX1_N*%
X111487442Y-51478137D03*
%TO.N,/USB_HUB_Connectors/USB_C1_SS_C_RX1_P*%
X112000096Y-50965483D03*
%TO.N,/display module/SoMtoLT_SDA*%
X137800000Y-65450000D03*
X122500000Y-74000004D03*
%TO.N,/USB_HUB_Connectors/USB_C1_D2_N*%
X113500000Y-52137500D03*
%TO.N,/USB_HUB_Connectors/USB_C1_D1_P*%
X109712500Y-54350000D03*
X109106327Y-57756327D03*
%TO.N,/USB_HUB_Connectors/USB_C1_D1_N*%
X108987500Y-54350000D03*
X108593673Y-57243673D03*
%TO.N,/USB_HUB_Connectors/USB_C1_D2_P*%
X113500000Y-52862500D03*
%TO.N,/USB_HUB_Connectors/USB_C2_D2_P*%
X95514357Y-55673143D03*
%TO.N,/USB_HUB_Connectors/USB_C2_D2_N*%
X95514357Y-56398143D03*
%TO.N,/USB_HUB_Connectors/USB_C2_D1_P*%
X97411327Y-56240399D03*
X99400000Y-57037500D03*
%TO.N,/USB_HUB_Connectors/USB_C2_D1_N*%
X96898673Y-56753053D03*
X99400000Y-57762500D03*
%TO.N,/display module/SoMtoLT_SCL*%
X122000000Y-74750000D03*
X137850000Y-66349994D03*
%TO.N,Net-(J10-PadA8)*%
X107837797Y-50325002D03*
X115000000Y-48400000D03*
%TO.N,/USB-PD/VREG_2V7*%
X156700000Y-54250000D03*
X149550000Y-57900000D03*
%TO.N,PD_VDD*%
X158100000Y-58800000D03*
X158900000Y-58800000D03*
X158500000Y-58200000D03*
X157300000Y-58800000D03*
X157700000Y-58200000D03*
X158100000Y-57600000D03*
X157300000Y-57600000D03*
X157700000Y-57100000D03*
X156900000Y-57100000D03*
X156900000Y-58200000D03*
X158600000Y-57100000D03*
X167700000Y-59300000D03*
%TO.N,STUSB4500_AB_SIDE*%
X154550000Y-58200000D03*
%TO.N,Net-(R148-Pad2)*%
X155050000Y-58750000D03*
X157700000Y-54300000D03*
%TO.N,Net-(R150-Pad2)*%
X154050450Y-58725431D03*
X156037500Y-53000000D03*
%TO.N,STUSB4500_GPIO*%
X153550000Y-58200000D03*
%TO.N,STUSB4500_ATTACH*%
X149450000Y-53750000D03*
%TO.N,STUSB4500_SCL*%
X151900000Y-53550000D03*
%TO.N,STUSB4500_SDA*%
X151050000Y-53699999D03*
%TO.N,STUSB4500_ALERT*%
X156100000Y-57600000D03*
%TO.N,Net-(R157-Pad2)*%
X150326841Y-53751654D03*
%TO.N,/USB-PD/STUSB4500_PWR_OK2*%
X159902164Y-54853246D03*
%TO.N,Net-(D34-Pad1)*%
X163000000Y-51750000D03*
%TO.N,/USB-PD/STUSB4500_PWR_OK3*%
X153050000Y-58750000D03*
X159400000Y-54250000D03*
%TO.N,Net-(D34-Pad3)*%
X160800000Y-51750000D03*
%TO.N,Net-(D34-Pad2)*%
X161900000Y-51750000D03*
%TO.N,VDD*%
X169200000Y-57750000D03*
X164900000Y-64076841D03*
%TO.N,AUX_VDD*%
X166950000Y-59050000D03*
%TO.N,Net-(C158-Pad1)*%
X164500000Y-57650000D03*
%TO.N,Net-(C159-Pad2)*%
X166232284Y-58947470D03*
X168550000Y-53600000D03*
%TO.N,Net-(D36-Pad1)*%
X163250000Y-50700000D03*
%TO.N,Net-(D37-Pad1)*%
X168950000Y-50700000D03*
%TO.N,Net-(M1-Pad168)*%
X107100000Y-108300000D03*
%TO.N,/peripherals/ANT_GNSS_*%
X118300000Y-63300000D03*
%TO.N,/SoM/USB_VBUS_DET*%
X103500000Y-116000000D03*
%TO.N,LDO10_2P8*%
X99400000Y-84250000D03*
%TO.N,Net-(M1-Pad244)*%
X135900000Y-81100000D03*
%TO.N,Net-(M1-Pad228)*%
X119400000Y-106600000D03*
%TO.N,Net-(M1-Pad227)*%
X117500000Y-106700000D03*
%TO.N,Net-(M1-Pad226)*%
X117700000Y-105600000D03*
%TO.N,Net-(M1-Pad224)*%
X111900000Y-104000000D03*
%TO.N,Net-(M1-Pad223)*%
X110000000Y-103800000D03*
%TO.N,Net-(M1-Pad202)*%
X126500000Y-72600000D03*
%TO.N,Net-(M1-Pad149)*%
X101100000Y-72800000D03*
%TO.N,Net-(M1-Pad139)*%
X114400000Y-72200000D03*
%TO.N,Net-(M1-Pad138)*%
X115400000Y-72200000D03*
%TO.N,Net-(M1-Pad127)*%
X126600000Y-68500000D03*
%TO.N,Net-(M1-Pad126)*%
X127400000Y-72100000D03*
%TO.N,Net-(M1-Pad74)*%
X142200000Y-117000000D03*
%TO.N,Net-(M1-Pad73)*%
X141650000Y-116250000D03*
%TO.N,Net-(M1-Pad61)*%
X122800000Y-112100000D03*
%TO.N,Net-(M1-Pad60)*%
X122000000Y-112100000D03*
%TO.N,Net-(M1-Pad59)*%
X121200000Y-112100000D03*
%TO.N,Net-(M1-Pad58)*%
X120400000Y-112100000D03*
%TO.N,Net-(M1-Pad55)*%
X108500000Y-110800000D03*
%TO.N,Net-(M1-Pad54)*%
X108500000Y-111700000D03*
%TO.N,Net-(M1-Pad53)*%
X109524899Y-116787208D03*
%TO.N,Net-(M1-Pad52)*%
X108723875Y-116790318D03*
%TO.N,Net-(M1-Pad51)*%
X109300000Y-115800000D03*
%TO.N,Net-(M1-Pad50)*%
X112400000Y-112400000D03*
%TO.N,Net-(M1-Pad49)*%
X107900187Y-116205456D03*
%TO.N,Net-(M1-Pad48)*%
X107875240Y-115480884D03*
%TO.N,Net-(M1-Pad46)*%
X107122439Y-115488117D03*
%TO.N,Net-(M1-Pad45)*%
X106398464Y-115449341D03*
%TO.N,Net-(M1-Pad44)*%
X101600000Y-116500000D03*
%TO.N,Net-(TP64-Pad1)*%
X152500000Y-119399998D03*
X130250000Y-121162479D03*
%TO.N,Net-(TP65-Pad1)*%
X152481775Y-120124783D03*
X131050000Y-121100000D03*
%TO.N,/USB-PD/AUX_MOS_S*%
X173800000Y-55300000D03*
%TO.N,/USB-PD/PD_MOS_S*%
X169648346Y-55426831D03*
X164100000Y-58800000D03*
%TO.N,/serial_and_cameras_interfaces/CAM1_SCL*%
X121024987Y-119400000D03*
%TO.N,/serial_and_cameras_interfaces/CAM1_SDA*%
X121750000Y-119399998D03*
%TO.N,/serial_and_cameras_interfaces/CAM0_SCL*%
X118363967Y-116797198D03*
%TO.N,/serial_and_cameras_interfaces/CAM0_SDA*%
X119200000Y-116800000D03*
%TO.N,Net-(J16-Pad3)*%
X167800000Y-92775000D03*
%TO.N,Net-(J16-Pad2)*%
X170449608Y-92980853D03*
%TO.N,/serial_and_cameras_interfaces/RS485_B*%
X163300000Y-90900000D03*
%TO.N,/serial_and_cameras_interfaces/RS485_A*%
X163200000Y-92000000D03*
%TO.N,RS485_RTS*%
X131250000Y-80700000D03*
X147250000Y-89949980D03*
%TO.N,SoM_TX__RS485_RX*%
X128350000Y-77800000D03*
X150600000Y-89200000D03*
%TO.N,SoM_RX__RS485_TX*%
X130150000Y-77800000D03*
X150650000Y-91750000D03*
%TO.N,UART_Connector_RX*%
X99400000Y-80800000D03*
X153600000Y-95350000D03*
%TO.N,UART_Connector_TX*%
X99400000Y-79800000D03*
X153601658Y-94624990D03*
%TO.N,/USB-PD/PD_MOS_G*%
X168650000Y-54500000D03*
X163850000Y-58000000D03*
%TO.N,/USB-PD/AUX_MOS_G*%
X174600000Y-56800000D03*
X169700000Y-56150000D03*
%TO.N,/serial_and_cameras_interfaces/UART_Connector_RX_3V3*%
X158574993Y-95247510D03*
%TO.N,/serial_and_cameras_interfaces/UART_Connector_TX_3V3*%
X159299998Y-95250002D03*
%TO.N,/serial_and_cameras_interfaces/I2C_Connector1_SDA*%
X124200000Y-121400000D03*
X155637500Y-80687500D03*
X148550000Y-119675013D03*
%TO.N,/serial_and_cameras_interfaces/I2C_Connector1_SCL*%
X155500000Y-77950000D03*
X148550000Y-118950000D03*
X125057229Y-121200002D03*
%TO.N,/serial_and_cameras_interfaces/I2C_Connector2_SDA*%
X155150000Y-80100000D03*
X148580278Y-117480278D03*
X130945559Y-120267840D03*
%TO.N,/serial_and_cameras_interfaces/I2C_Connector2_SCL*%
X155300000Y-78687500D03*
X148526198Y-116728754D03*
X130350000Y-119775000D03*
%TO.N,Net-(U17-Pad10)*%
X155100000Y-89950000D03*
%TO.N,Net-(U17-Pad13)*%
X156500000Y-89550000D03*
%TO.N,RS485_DIR_GPIO*%
X117150000Y-80350000D03*
X147250000Y-91400000D03*
%TO.N,RS485_CTS*%
X129400000Y-80700000D03*
X147251658Y-90674990D03*
%TO.N,/serial_and_cameras_interfaces/DIR*%
X156512490Y-90500000D03*
%TO.N,/USB-PD/VALID1*%
X165750000Y-52900000D03*
%TO.N,/USB-PD/VALID2*%
X168550000Y-51650000D03*
%TD*%
D22*
%TO.N,LDO6_1P8*%
X121500000Y-67300000D02*
X112900000Y-75900000D01*
X121500000Y-62500000D02*
X121500000Y-67300000D01*
X98500000Y-81900000D02*
X99400000Y-82800000D01*
X98500000Y-77450000D02*
X98500000Y-81900000D01*
X100050000Y-75900000D02*
X98500000Y-77450000D01*
X112900000Y-75900000D02*
X100050000Y-75900000D01*
X102900000Y-109250000D02*
X121950000Y-109250000D01*
X147762499Y-111537501D02*
X149500000Y-109800000D01*
X124237501Y-111537501D02*
X147762499Y-111537501D01*
X121950000Y-109250000D02*
X124237501Y-111537501D01*
X151600000Y-89437510D02*
X151600000Y-87750000D01*
X155162490Y-93000000D02*
X151600000Y-89437510D01*
D23*
%TO.N,3V3_CAM*%
X115975001Y-115324999D02*
X115800000Y-115500000D01*
X141952010Y-121647990D02*
X141723990Y-121647990D01*
D24*
X172000000Y-110800000D02*
X174400000Y-110800000D01*
X161400000Y-121400000D02*
X172000000Y-110800000D01*
X141547990Y-121400000D02*
X161400000Y-121400000D01*
X134924999Y-115324999D02*
X115975001Y-115324999D01*
X141000000Y-121400000D02*
X134924999Y-115324999D01*
X141500000Y-121400000D02*
X141000000Y-121400000D01*
D22*
%TO.N,3V3_SYS*%
X163250000Y-82450000D02*
X163250000Y-82350000D01*
X158650000Y-87050000D02*
X163250000Y-82450000D01*
X158650000Y-87300000D02*
X158650000Y-87050000D01*
X160000000Y-79100000D02*
X160000000Y-78150000D01*
X163250000Y-82350000D02*
X160000000Y-79100000D01*
D25*
X123373845Y-116517539D02*
X127717511Y-116517539D01*
X127717511Y-116517539D02*
X130224984Y-119025012D01*
D22*
%TO.N,/display module/RST_N*%
X143750000Y-72750000D02*
X147074972Y-76074972D01*
X147074972Y-76074972D02*
X147074972Y-86592459D01*
D26*
%TO.N,LT9611_VCC33_TX*%
X131220000Y-56820000D02*
X129230000Y-56820000D01*
X132010001Y-57610001D02*
X131220000Y-56820000D01*
X132010001Y-57610001D02*
X132810001Y-57610001D01*
X132810001Y-57610001D02*
X133270000Y-58070000D01*
X133270000Y-58070000D02*
X135109998Y-58070000D01*
X135109998Y-58070000D02*
X136189998Y-56990000D01*
D22*
%TO.N,LDO17_2P85*%
X145650001Y-92150001D02*
X105675011Y-92150001D01*
X99625011Y-86099999D02*
X99325012Y-85800000D01*
X152750000Y-96450000D02*
X149950000Y-96450000D01*
X149950000Y-96450000D02*
X145650001Y-92150001D01*
X105675011Y-92150001D02*
X99625011Y-86099999D01*
D26*
%TO.N,LT9611_VDD12*%
X140700000Y-65000000D02*
X138600000Y-67100000D01*
X138600000Y-67100000D02*
X136650000Y-67100000D01*
%TO.N,LT9611_VCC12_RX*%
X128419999Y-63819999D02*
X128120000Y-63520000D01*
X128700000Y-64100000D02*
X128419999Y-63819999D01*
X137378498Y-64100000D02*
X128700000Y-64100000D01*
X137578498Y-63900000D02*
X137378498Y-64100000D01*
X140200000Y-63900000D02*
X137578498Y-63900000D01*
X140700000Y-63400000D02*
X140200000Y-63900000D01*
%TO.N,LT9611_VCC12_TX*%
X131689999Y-58469999D02*
X131390000Y-58170000D01*
X140700000Y-61800000D02*
X140400001Y-61500001D01*
X140400001Y-61500001D02*
X134720001Y-61500001D01*
X134720001Y-61500001D02*
X131689999Y-58469999D01*
D22*
%TO.N,SD_LDO11*%
X123350000Y-109850000D02*
X124000000Y-110500000D01*
X123350000Y-102150000D02*
X123350000Y-109850000D01*
X125685000Y-99815000D02*
X123350000Y-102150000D01*
X129160000Y-99815000D02*
X125685000Y-99815000D01*
%TO.N,DEBUG_UART_RX*%
X135061947Y-76400000D02*
X145300000Y-66161947D01*
X100728498Y-76400000D02*
X135061947Y-76400000D01*
X145300000Y-66161947D02*
X145300000Y-62300000D01*
X99400000Y-78650000D02*
X99400000Y-77728498D01*
X145300000Y-62300000D02*
X145250000Y-62250000D01*
X99400000Y-77728498D02*
X100728498Y-76400000D01*
%TO.N,DEBUG_UART_TX*%
X147840000Y-62300000D02*
X147790000Y-62250000D01*
X147840000Y-64410000D02*
X147840000Y-62300000D01*
X135550000Y-76700000D02*
X147840000Y-64410000D01*
X101150000Y-76700000D02*
X135550000Y-76700000D01*
X99900000Y-77950000D02*
X101150000Y-76700000D01*
%TO.N,CAM_RST*%
X128250000Y-107950000D02*
X126900000Y-106600000D01*
X151350000Y-103450000D02*
X146850000Y-107950000D01*
X146850000Y-107950000D02*
X128250000Y-107950000D01*
X151350000Y-103400000D02*
X151350000Y-103450000D01*
%TO.N,LT9611_RST_N*%
X126887496Y-108587496D02*
X148012504Y-108587496D01*
X124900000Y-106600000D02*
X126887496Y-108587496D01*
X149012504Y-108587496D02*
X149500000Y-108100000D01*
X148012504Y-108587496D02*
X149012504Y-108587496D01*
%TO.N,LT9611_INT0*%
X123837510Y-107924264D02*
X123837510Y-106600000D01*
X149500000Y-109074997D02*
X124988243Y-109074997D01*
X124988243Y-109074997D02*
X123837510Y-107924264D01*
%TO.N,PWRKEY*%
X138450010Y-114000010D02*
X103010566Y-114000010D01*
X152750000Y-116400000D02*
X148950000Y-120200000D01*
X103010566Y-114000010D02*
X101330278Y-112319722D01*
X144650000Y-120200000D02*
X138450010Y-114000010D01*
X148950000Y-120200000D02*
X144650000Y-120200000D01*
X162600000Y-116400000D02*
X152750000Y-116400000D01*
%TO.N,LDO5_1P8*%
X102400000Y-109900000D02*
X121321502Y-109900000D01*
X121321502Y-109900000D02*
X123406464Y-111984962D01*
X123406464Y-111984962D02*
X143556464Y-111984962D01*
X143556464Y-111984962D02*
X146800000Y-115228498D01*
X146800000Y-115228498D02*
X146800000Y-119500000D01*
%TO.N,/display module/CEC_LT*%
X143125003Y-65103501D02*
X143125003Y-67550000D01*
X140934001Y-62912499D02*
X143125003Y-65103501D01*
X138326931Y-62912499D02*
X140934001Y-62912499D01*
X137919715Y-63319715D02*
X138326931Y-62912499D01*
%TO.N,/display module/INT0*%
X142400000Y-65978498D02*
X142400000Y-67550000D01*
X140689934Y-64268432D02*
X142400000Y-65978498D01*
X138049933Y-64268432D02*
X140689934Y-64268432D01*
X137749934Y-64568431D02*
X138049933Y-64268432D01*
X144500000Y-74600000D02*
X146350000Y-76450000D01*
X146350000Y-76450000D02*
X146350000Y-86600000D01*
D27*
%TO.N,Net-(R59-Pad1)*%
X136260000Y-56150000D02*
X127550000Y-56150000D01*
X136990000Y-56880000D02*
X136260000Y-56150000D01*
X136990000Y-58220000D02*
X136990000Y-56880000D01*
D22*
%TO.N,USB_BOOT*%
X140325062Y-113750000D02*
X120849996Y-113750000D01*
X143944722Y-115994586D02*
X142569648Y-115994586D01*
X142569648Y-115994586D02*
X140325062Y-113750000D01*
X120849996Y-113750000D02*
X119299996Y-112200000D01*
%TO.N,/display module/SoMtoLT_SDA*%
X137800000Y-65450000D02*
X137075744Y-65450000D01*
X137075744Y-65450000D02*
X135725744Y-66800000D01*
X135725744Y-66800000D02*
X130938875Y-66800000D01*
X130938875Y-66800000D02*
X123738871Y-74000004D01*
X123738871Y-74000004D02*
X122500000Y-74000004D01*
%TO.N,/display module/SoMtoLT_SCL*%
X131100000Y-67050000D02*
X135850000Y-67050000D01*
X122000000Y-74750000D02*
X123400000Y-74750000D01*
X137425736Y-66349994D02*
X137850000Y-66349994D01*
X136550006Y-66349994D02*
X137425736Y-66349994D01*
X123400000Y-74750000D02*
X131100000Y-67050000D01*
X135850000Y-67050000D02*
X136550006Y-66349994D01*
%TO.N,RS485_RTS*%
X145549980Y-89949980D02*
X147250000Y-89949980D01*
X143662469Y-88062469D02*
X145549980Y-89949980D01*
X135512469Y-88062469D02*
X143662469Y-88062469D01*
X131250000Y-83800000D02*
X135512469Y-88062469D01*
X131250000Y-80700000D02*
X131250000Y-83800000D01*
%TO.N,SoM_TX__RS485_RX*%
X128850000Y-77300000D02*
X128350000Y-77800000D01*
X130371502Y-77300000D02*
X128850000Y-77300000D01*
X132100000Y-79028498D02*
X130371502Y-77300000D01*
X132100000Y-83821502D02*
X132100000Y-79028498D01*
X134190997Y-85912499D02*
X132100000Y-83821502D01*
X142516065Y-85912499D02*
X134190997Y-85912499D01*
X145803566Y-89200000D02*
X142516065Y-85912499D01*
X150600000Y-89200000D02*
X145803566Y-89200000D01*
%TO.N,SoM_RX__RS485_TX*%
X145700000Y-89450000D02*
X147500000Y-89450000D01*
X144062459Y-87812459D02*
X145700000Y-89450000D01*
X135712459Y-87812459D02*
X144062459Y-87812459D01*
X131737501Y-83837501D02*
X135712459Y-87812459D01*
X131737501Y-79387501D02*
X131737501Y-83837501D01*
X130150000Y-77800000D02*
X131737501Y-79387501D01*
X149800000Y-91750000D02*
X147500000Y-89450000D01*
X150650000Y-91750000D02*
X149800000Y-91750000D01*
%TO.N,UART_Connector_RX*%
X142992886Y-89100022D02*
X142992886Y-89133884D01*
X107700022Y-89100022D02*
X142992886Y-89100022D01*
X149209002Y-95350000D02*
X153600000Y-95350000D01*
X99400000Y-80800000D02*
X107700022Y-89100022D01*
X142992886Y-89133884D02*
X149209002Y-95350000D01*
%TO.N,UART_Connector_TX*%
X111150011Y-88850011D02*
X143096443Y-88850011D01*
X99400000Y-79800000D02*
X102100000Y-79800000D01*
X102100000Y-79800000D02*
X111150011Y-88850011D01*
X143096443Y-88850011D02*
X148871422Y-94624990D01*
X148871422Y-94624990D02*
X153601658Y-94624990D01*
%TO.N,/serial_and_cameras_interfaces/I2C_Connector1_SDA*%
X157587501Y-82637501D02*
X155637500Y-80687500D01*
X156400000Y-110350000D02*
X156400000Y-99550000D01*
X157587501Y-98362499D02*
X157587501Y-82637501D01*
X148550000Y-119675013D02*
X148062499Y-119187512D01*
X148062499Y-119187512D02*
X148062499Y-118687501D01*
X148062499Y-118687501D02*
X156400000Y-110350000D01*
X156400000Y-99550000D02*
X157587501Y-98362499D01*
%TO.N,/serial_and_cameras_interfaces/I2C_Connector1_SCL*%
X158037501Y-109462499D02*
X148550000Y-118950000D01*
X158037501Y-80487501D02*
X158037501Y-109462499D01*
X155500000Y-77950000D02*
X158037501Y-80487501D01*
%TO.N,/serial_and_cameras_interfaces/I2C_Connector2_SDA*%
X155974999Y-110085557D02*
X148580278Y-117480278D01*
X155150000Y-80100000D02*
X155150000Y-81250000D01*
X155974999Y-82074999D02*
X155974999Y-110085557D01*
X155150000Y-81250000D02*
X155974999Y-82074999D01*
%TO.N,/serial_and_cameras_interfaces/I2C_Connector2_SCL*%
X154662499Y-79325001D02*
X154662499Y-81216067D01*
X154662499Y-81216067D02*
X155650000Y-82203568D01*
X155300000Y-78687500D02*
X154662499Y-79325001D01*
X155650000Y-109604952D02*
X148526198Y-116728754D01*
X155650000Y-82203568D02*
X155650000Y-109604952D01*
%TO.N,RS485_DIR_GPIO*%
X146000000Y-91400000D02*
X147250000Y-91400000D01*
X143200000Y-88600000D02*
X146000000Y-91400000D01*
X118350000Y-88600000D02*
X143200000Y-88600000D01*
X117150000Y-87400000D02*
X118350000Y-88600000D01*
X117150000Y-80350000D02*
X117150000Y-87400000D01*
%TO.N,RS485_CTS*%
X145824990Y-90674990D02*
X147251658Y-90674990D01*
X143499990Y-88349990D02*
X145824990Y-90674990D01*
X135099990Y-88349990D02*
X143499990Y-88349990D01*
X129400000Y-82650000D02*
X135099990Y-88349990D01*
X129400000Y-80700000D02*
X129400000Y-82650000D01*
%TD*%
D28*
%TO.N,/USB_HUB_Connectors/5V0_USB*%
X114604794Y-48014560D02*
X114571234Y-48048120D01*
X114510824Y-48138530D01*
X114469213Y-48238988D01*
X114448000Y-48345633D01*
X114448000Y-48454367D01*
X114469213Y-48561012D01*
X114510824Y-48661470D01*
X114571234Y-48751880D01*
X114609523Y-48790169D01*
X114622223Y-50873000D01*
X112544514Y-50873000D01*
X112530883Y-50804471D01*
X112498950Y-50727378D01*
X112547814Y-50722565D01*
X112670717Y-50685283D01*
X112783984Y-50624741D01*
X112883264Y-50543264D01*
X112964741Y-50443984D01*
X113025283Y-50330717D01*
X113062565Y-50207814D01*
X113075154Y-50080000D01*
X113062565Y-49952186D01*
X113025283Y-49829283D01*
X112964741Y-49716016D01*
X112883264Y-49616736D01*
X112783984Y-49535259D01*
X112670717Y-49474717D01*
X112547814Y-49437435D01*
X112452022Y-49428000D01*
X112037978Y-49428000D01*
X111942186Y-49437435D01*
X111819283Y-49474717D01*
X111706016Y-49535259D01*
X111606736Y-49616736D01*
X111525259Y-49716016D01*
X111464717Y-49829283D01*
X111427435Y-49952186D01*
X111414846Y-50080000D01*
X111427435Y-50207814D01*
X111464717Y-50330717D01*
X111525259Y-50443984D01*
X111606736Y-50543264D01*
X111625923Y-50559010D01*
X111571330Y-50613603D01*
X111510920Y-50704013D01*
X111469309Y-50804471D01*
X111455678Y-50873000D01*
X109682704Y-50873000D01*
X109659859Y-50817847D01*
X109599449Y-50727437D01*
X109522563Y-50650551D01*
X109432153Y-50590141D01*
X109331695Y-50548530D01*
X109225050Y-50527317D01*
X109116316Y-50527317D01*
X109009671Y-50548530D01*
X108909213Y-50590141D01*
X108818803Y-50650551D01*
X108741917Y-50727437D01*
X108681507Y-50817847D01*
X108658662Y-50873000D01*
X107912283Y-50873000D01*
X107998809Y-50855789D01*
X108099267Y-50814178D01*
X108189677Y-50753768D01*
X108266563Y-50676882D01*
X108326973Y-50586472D01*
X108368584Y-50486014D01*
X108389797Y-50379369D01*
X108389797Y-50270635D01*
X108368584Y-50163990D01*
X108326973Y-50063532D01*
X108266563Y-49973122D01*
X108189677Y-49896236D01*
X108099267Y-49835826D01*
X107998809Y-49794215D01*
X107892164Y-49773002D01*
X107783430Y-49773002D01*
X107676785Y-49794215D01*
X107576327Y-49835826D01*
X107485917Y-49896236D01*
X107409031Y-49973122D01*
X107348621Y-50063532D01*
X107307010Y-50163990D01*
X107285797Y-50270635D01*
X107285797Y-50379369D01*
X107307010Y-50486014D01*
X107348621Y-50586472D01*
X107409031Y-50676882D01*
X107485917Y-50753768D01*
X107576327Y-50814178D01*
X107676785Y-50855789D01*
X107763311Y-50873000D01*
X96204618Y-50873000D01*
X96228685Y-50814897D01*
X96249898Y-50708252D01*
X96249898Y-50599518D01*
X96228685Y-50492873D01*
X96187074Y-50392415D01*
X96126664Y-50302005D01*
X96049778Y-50225119D01*
X95959368Y-50164709D01*
X95858910Y-50123098D01*
X95752265Y-50101885D01*
X95643531Y-50101885D01*
X95536886Y-50123098D01*
X95436428Y-50164709D01*
X95346018Y-50225119D01*
X95269132Y-50302005D01*
X95208722Y-50392415D01*
X95167111Y-50492873D01*
X95145898Y-50599518D01*
X95145898Y-50708252D01*
X95167111Y-50814897D01*
X95191178Y-50873000D01*
X94646285Y-50873000D01*
X94683760Y-50782526D01*
X94704973Y-50675881D01*
X94704973Y-50567147D01*
X94683760Y-50460502D01*
X94642149Y-50360044D01*
X94581739Y-50269634D01*
X94504853Y-50192748D01*
X94414443Y-50132338D01*
X94313985Y-50090727D01*
X94260057Y-50080000D01*
X97914846Y-50080000D01*
X97927435Y-50207814D01*
X97964717Y-50330717D01*
X98025259Y-50443984D01*
X98106736Y-50543264D01*
X98206016Y-50624741D01*
X98319283Y-50685283D01*
X98442186Y-50722565D01*
X98537978Y-50732000D01*
X98952022Y-50732000D01*
X99047814Y-50722565D01*
X99170717Y-50685283D01*
X99283984Y-50624741D01*
X99383264Y-50543264D01*
X99464741Y-50443984D01*
X99525283Y-50330717D01*
X99562565Y-50207814D01*
X99575154Y-50080000D01*
X103724846Y-50080000D01*
X103737435Y-50207814D01*
X103774717Y-50330717D01*
X103835259Y-50443984D01*
X103916736Y-50543264D01*
X104016016Y-50624741D01*
X104129283Y-50685283D01*
X104252186Y-50722565D01*
X104347978Y-50732000D01*
X104762022Y-50732000D01*
X104857814Y-50722565D01*
X104980717Y-50685283D01*
X105093984Y-50624741D01*
X105193264Y-50543264D01*
X105274741Y-50443984D01*
X105335283Y-50330717D01*
X105372565Y-50207814D01*
X105385154Y-50080000D01*
X105372565Y-49952186D01*
X105335283Y-49829283D01*
X105274741Y-49716016D01*
X105193264Y-49616736D01*
X105093984Y-49535259D01*
X104980717Y-49474717D01*
X104857814Y-49437435D01*
X104762022Y-49428000D01*
X104347978Y-49428000D01*
X104252186Y-49437435D01*
X104129283Y-49474717D01*
X104016016Y-49535259D01*
X103916736Y-49616736D01*
X103835259Y-49716016D01*
X103774717Y-49829283D01*
X103737435Y-49952186D01*
X103724846Y-50080000D01*
X99575154Y-50080000D01*
X99562565Y-49952186D01*
X99525283Y-49829283D01*
X99464741Y-49716016D01*
X99383264Y-49616736D01*
X99283984Y-49535259D01*
X99170717Y-49474717D01*
X99047814Y-49437435D01*
X98952022Y-49428000D01*
X98537978Y-49428000D01*
X98442186Y-49437435D01*
X98319283Y-49474717D01*
X98206016Y-49535259D01*
X98106736Y-49616736D01*
X98025259Y-49716016D01*
X97964717Y-49829283D01*
X97927435Y-49952186D01*
X97914846Y-50080000D01*
X94260057Y-50080000D01*
X94207340Y-50069514D01*
X94098606Y-50069514D01*
X93991961Y-50090727D01*
X93891503Y-50132338D01*
X93801093Y-50192748D01*
X93724207Y-50269634D01*
X93663797Y-50360044D01*
X93622186Y-50460502D01*
X93600973Y-50567147D01*
X93600973Y-50675881D01*
X93622186Y-50782526D01*
X93659661Y-50873000D01*
X89300000Y-50873000D01*
X89275224Y-50875440D01*
X89251399Y-50882667D01*
X89220956Y-50900596D01*
X84185411Y-54904765D01*
X84151880Y-54871234D01*
X84061470Y-54810824D01*
X83961012Y-54769213D01*
X83854367Y-54748000D01*
X83745633Y-54748000D01*
X83638988Y-54769213D01*
X83538530Y-54810824D01*
X83448120Y-54871234D01*
X83371234Y-54948120D01*
X83310824Y-55038530D01*
X83269213Y-55138988D01*
X83248000Y-55245633D01*
X83248000Y-55354367D01*
X83269213Y-55461012D01*
X83310824Y-55561470D01*
X83327732Y-55586774D01*
X81097542Y-57360178D01*
X81092852Y-57363312D01*
X81089944Y-57366220D01*
X80920956Y-57500596D01*
X80903082Y-57517927D01*
X80888933Y-57538412D01*
X80879052Y-57561263D01*
X80873819Y-57585603D01*
X80873000Y-57600000D01*
X80873000Y-62873000D01*
X79085679Y-62873000D01*
X79151880Y-62828766D01*
X79228766Y-62751880D01*
X79289176Y-62661470D01*
X79330787Y-62561012D01*
X79352000Y-62454367D01*
X79352000Y-62345633D01*
X79330787Y-62238988D01*
X79289176Y-62138530D01*
X79228766Y-62048120D01*
X79151880Y-61971234D01*
X79061470Y-61910824D01*
X78961012Y-61869213D01*
X78854367Y-61848000D01*
X78745633Y-61848000D01*
X78638988Y-61869213D01*
X78538530Y-61910824D01*
X78448120Y-61971234D01*
X78371234Y-62048120D01*
X78310824Y-62138530D01*
X78269213Y-62238988D01*
X78248000Y-62345633D01*
X78248000Y-62454367D01*
X78251275Y-62470829D01*
X78161470Y-62410824D01*
X78061012Y-62369213D01*
X77954367Y-62348000D01*
X77845633Y-62348000D01*
X77738988Y-62369213D01*
X77638530Y-62410824D01*
X77548120Y-62471234D01*
X77471234Y-62548120D01*
X77410824Y-62638530D01*
X77369213Y-62738988D01*
X77348000Y-62845633D01*
X77348000Y-62873000D01*
X76798063Y-62873000D01*
X76839176Y-62811470D01*
X76880787Y-62711012D01*
X76902000Y-62604367D01*
X76902000Y-62495633D01*
X76880787Y-62388988D01*
X76839176Y-62288530D01*
X76796727Y-62225000D01*
X76839176Y-62161470D01*
X76880787Y-62061012D01*
X76902000Y-61954367D01*
X76902000Y-61845633D01*
X76880787Y-61738988D01*
X76839176Y-61638530D01*
X76796727Y-61575000D01*
X76839176Y-61511470D01*
X76880787Y-61411012D01*
X76902000Y-61304367D01*
X76902000Y-61195633D01*
X76880787Y-61088988D01*
X76839176Y-60988530D01*
X76796727Y-60925000D01*
X76839176Y-60861470D01*
X76880787Y-60761012D01*
X76902000Y-60654367D01*
X76902000Y-60545633D01*
X76880787Y-60438988D01*
X76839176Y-60338530D01*
X76778766Y-60248120D01*
X76701880Y-60171234D01*
X76611470Y-60110824D01*
X76511012Y-60069213D01*
X76404367Y-60048000D01*
X76295633Y-60048000D01*
X76188988Y-60069213D01*
X76127000Y-60094889D01*
X76127000Y-55677443D01*
X76998000Y-55677443D01*
X76998000Y-56022557D01*
X77065329Y-56361039D01*
X77197398Y-56679883D01*
X77389133Y-56966835D01*
X77633165Y-57210867D01*
X77920117Y-57402602D01*
X78238961Y-57534671D01*
X78577443Y-57602000D01*
X78922557Y-57602000D01*
X79261039Y-57534671D01*
X79579883Y-57402602D01*
X79866835Y-57210867D01*
X80110867Y-56966835D01*
X80302602Y-56679883D01*
X80434671Y-56361039D01*
X80502000Y-56022557D01*
X80502000Y-55677443D01*
X80434671Y-55338961D01*
X80302602Y-55020117D01*
X80110867Y-54733165D01*
X79866835Y-54489133D01*
X79579883Y-54297398D01*
X79261039Y-54165329D01*
X78922557Y-54098000D01*
X78577443Y-54098000D01*
X78238961Y-54165329D01*
X77920117Y-54297398D01*
X77633165Y-54489133D01*
X77389133Y-54733165D01*
X77197398Y-55020117D01*
X77065329Y-55338961D01*
X76998000Y-55677443D01*
X76127000Y-55677443D01*
X76127000Y-53951960D01*
X81041673Y-53951960D01*
X81041673Y-54060694D01*
X81062886Y-54167339D01*
X81104497Y-54267797D01*
X81164907Y-54358207D01*
X81241793Y-54435093D01*
X81332203Y-54495503D01*
X81432661Y-54537114D01*
X81539306Y-54558327D01*
X81648040Y-54558327D01*
X81754685Y-54537114D01*
X81855143Y-54495503D01*
X81945553Y-54435093D01*
X82022439Y-54358207D01*
X82082849Y-54267797D01*
X82124460Y-54167339D01*
X82145673Y-54060694D01*
X82145673Y-54045673D01*
X82160694Y-54045673D01*
X82267339Y-54024460D01*
X82367797Y-53982849D01*
X82458207Y-53922439D01*
X82535093Y-53845553D01*
X82595503Y-53755143D01*
X82637114Y-53654685D01*
X82658327Y-53548040D01*
X82658327Y-53439306D01*
X82637114Y-53332661D01*
X82595503Y-53232203D01*
X82535093Y-53141793D01*
X82458207Y-53064907D01*
X82367797Y-53004497D01*
X82267339Y-52962886D01*
X82160694Y-52941673D01*
X82051960Y-52941673D01*
X81945315Y-52962886D01*
X81844857Y-53004497D01*
X81754447Y-53064907D01*
X81677561Y-53141793D01*
X81617151Y-53232203D01*
X81575540Y-53332661D01*
X81554327Y-53439306D01*
X81554327Y-53454327D01*
X81539306Y-53454327D01*
X81432661Y-53475540D01*
X81332203Y-53517151D01*
X81241793Y-53577561D01*
X81164907Y-53654447D01*
X81104497Y-53744857D01*
X81062886Y-53845315D01*
X81041673Y-53951960D01*
X76127000Y-53951960D01*
X76127000Y-50080000D01*
X76724846Y-50080000D01*
X76737435Y-50207814D01*
X76774717Y-50330717D01*
X76835259Y-50443984D01*
X76916736Y-50543264D01*
X77016016Y-50624741D01*
X77129283Y-50685283D01*
X77252186Y-50722565D01*
X77347978Y-50732000D01*
X77762022Y-50732000D01*
X77857814Y-50722565D01*
X77980717Y-50685283D01*
X78093984Y-50624741D01*
X78193264Y-50543264D01*
X78274741Y-50443984D01*
X78280542Y-50433131D01*
X80485500Y-50433131D01*
X80485500Y-50541865D01*
X80506713Y-50648510D01*
X80548324Y-50748968D01*
X80608734Y-50839378D01*
X80685620Y-50916264D01*
X80776030Y-50976674D01*
X80876488Y-51018285D01*
X80983133Y-51039498D01*
X81091867Y-51039498D01*
X81198512Y-51018285D01*
X81298970Y-50976674D01*
X81389380Y-50916264D01*
X81400000Y-50905644D01*
X81410620Y-50916264D01*
X81501030Y-50976674D01*
X81601488Y-51018285D01*
X81708133Y-51039498D01*
X81816867Y-51039498D01*
X81923512Y-51018285D01*
X82023970Y-50976674D01*
X82114380Y-50916264D01*
X82191266Y-50839378D01*
X82251676Y-50748968D01*
X82293287Y-50648510D01*
X82314500Y-50541865D01*
X82314500Y-50433131D01*
X82293287Y-50326486D01*
X82251676Y-50226028D01*
X82191266Y-50135618D01*
X82135648Y-50080000D01*
X84414846Y-50080000D01*
X84427435Y-50207814D01*
X84464717Y-50330717D01*
X84525259Y-50443984D01*
X84606736Y-50543264D01*
X84706016Y-50624741D01*
X84819283Y-50685283D01*
X84942186Y-50722565D01*
X85037978Y-50732000D01*
X85452022Y-50732000D01*
X85547814Y-50722565D01*
X85670717Y-50685283D01*
X85783984Y-50624741D01*
X85883264Y-50543264D01*
X85964741Y-50443984D01*
X86025283Y-50330717D01*
X86062565Y-50207814D01*
X86075154Y-50080000D01*
X90224846Y-50080000D01*
X90237435Y-50207814D01*
X90274717Y-50330717D01*
X90335259Y-50443984D01*
X90416736Y-50543264D01*
X90516016Y-50624741D01*
X90629283Y-50685283D01*
X90752186Y-50722565D01*
X90847978Y-50732000D01*
X91262022Y-50732000D01*
X91357814Y-50722565D01*
X91480717Y-50685283D01*
X91593984Y-50624741D01*
X91693264Y-50543264D01*
X91774741Y-50443984D01*
X91835283Y-50330717D01*
X91872565Y-50207814D01*
X91885154Y-50080000D01*
X91872565Y-49952186D01*
X91835283Y-49829283D01*
X91774741Y-49716016D01*
X91693264Y-49616736D01*
X91593984Y-49535259D01*
X91480717Y-49474717D01*
X91357814Y-49437435D01*
X91262022Y-49428000D01*
X90847978Y-49428000D01*
X90752186Y-49437435D01*
X90629283Y-49474717D01*
X90516016Y-49535259D01*
X90416736Y-49616736D01*
X90335259Y-49716016D01*
X90274717Y-49829283D01*
X90237435Y-49952186D01*
X90224846Y-50080000D01*
X86075154Y-50080000D01*
X86062565Y-49952186D01*
X86025283Y-49829283D01*
X85964741Y-49716016D01*
X85883264Y-49616736D01*
X85783984Y-49535259D01*
X85670717Y-49474717D01*
X85547814Y-49437435D01*
X85452022Y-49428000D01*
X85037978Y-49428000D01*
X84942186Y-49437435D01*
X84819283Y-49474717D01*
X84706016Y-49535259D01*
X84606736Y-49616736D01*
X84525259Y-49716016D01*
X84464717Y-49829283D01*
X84427435Y-49952186D01*
X84414846Y-50080000D01*
X82135648Y-50080000D01*
X82114380Y-50058732D01*
X82023970Y-49998322D01*
X81923512Y-49956711D01*
X81816867Y-49935498D01*
X81708133Y-49935498D01*
X81601488Y-49956711D01*
X81501030Y-49998322D01*
X81410620Y-50058732D01*
X81400000Y-50069352D01*
X81389380Y-50058732D01*
X81298970Y-49998322D01*
X81198512Y-49956711D01*
X81091867Y-49935498D01*
X80983133Y-49935498D01*
X80876488Y-49956711D01*
X80776030Y-49998322D01*
X80685620Y-50058732D01*
X80608734Y-50135618D01*
X80548324Y-50226028D01*
X80506713Y-50326486D01*
X80485500Y-50433131D01*
X78280542Y-50433131D01*
X78335283Y-50330717D01*
X78372565Y-50207814D01*
X78385154Y-50080000D01*
X78372565Y-49952186D01*
X78335283Y-49829283D01*
X78274741Y-49716016D01*
X78193264Y-49616736D01*
X78093984Y-49535259D01*
X77980717Y-49474717D01*
X77857814Y-49437435D01*
X77762022Y-49428000D01*
X77347978Y-49428000D01*
X77252186Y-49437435D01*
X77129283Y-49474717D01*
X77016016Y-49535259D01*
X76916736Y-49616736D01*
X76835259Y-49716016D01*
X76774717Y-49829283D01*
X76737435Y-49952186D01*
X76724846Y-50080000D01*
X76127000Y-50080000D01*
X76127000Y-46943062D01*
X76428000Y-46943062D01*
X76428000Y-47616937D01*
X76438881Y-47727417D01*
X76481882Y-47869169D01*
X76551710Y-47999809D01*
X76645683Y-48114317D01*
X76760190Y-48208290D01*
X76890830Y-48278118D01*
X77032582Y-48321119D01*
X77108144Y-48328561D01*
X77081350Y-48416888D01*
X77070209Y-48530000D01*
X77081350Y-48643112D01*
X77114343Y-48751876D01*
X77167921Y-48852115D01*
X77240026Y-48939974D01*
X77327885Y-49012079D01*
X77428124Y-49065657D01*
X77536888Y-49098650D01*
X77621664Y-49107000D01*
X77978336Y-49107000D01*
X78063112Y-49098650D01*
X78171876Y-49065657D01*
X78272115Y-49012079D01*
X78359974Y-48939974D01*
X78432079Y-48852115D01*
X78485657Y-48751876D01*
X78518650Y-48643112D01*
X78529791Y-48530000D01*
X78522190Y-48452827D01*
X78543170Y-48457000D01*
X78656830Y-48457000D01*
X78768305Y-48434826D01*
X78873312Y-48391331D01*
X78967816Y-48328185D01*
X79048185Y-48247816D01*
X79111331Y-48153312D01*
X79154826Y-48048305D01*
X79177000Y-47936830D01*
X79177000Y-47823170D01*
X79159765Y-47736525D01*
X79168305Y-47734826D01*
X79273312Y-47691331D01*
X79367816Y-47628185D01*
X79400000Y-47596001D01*
X79432184Y-47628185D01*
X79526688Y-47691331D01*
X79631695Y-47734826D01*
X79640235Y-47736525D01*
X79623000Y-47823170D01*
X79623000Y-47936830D01*
X79645174Y-48048305D01*
X79688669Y-48153312D01*
X79751815Y-48247816D01*
X79832184Y-48328185D01*
X79926688Y-48391331D01*
X80031695Y-48434826D01*
X80143170Y-48457000D01*
X80256830Y-48457000D01*
X80368305Y-48434826D01*
X80473312Y-48391331D01*
X80567816Y-48328185D01*
X80600000Y-48296001D01*
X80632184Y-48328185D01*
X80726688Y-48391331D01*
X80831695Y-48434826D01*
X80943170Y-48457000D01*
X81056830Y-48457000D01*
X81168305Y-48434826D01*
X81273312Y-48391331D01*
X81367816Y-48328185D01*
X81400000Y-48296001D01*
X81432184Y-48328185D01*
X81526688Y-48391331D01*
X81631695Y-48434826D01*
X81743170Y-48457000D01*
X81856830Y-48457000D01*
X81968305Y-48434826D01*
X82073312Y-48391331D01*
X82167816Y-48328185D01*
X82200000Y-48296001D01*
X82232184Y-48328185D01*
X82326688Y-48391331D01*
X82431695Y-48434826D01*
X82543170Y-48457000D01*
X82656830Y-48457000D01*
X82768305Y-48434826D01*
X82873312Y-48391331D01*
X82967816Y-48328185D01*
X83048185Y-48247816D01*
X83111331Y-48153312D01*
X83154826Y-48048305D01*
X83177000Y-47936830D01*
X83177000Y-47823170D01*
X83159765Y-47736525D01*
X83168305Y-47734826D01*
X83273312Y-47691331D01*
X83367816Y-47628185D01*
X83400000Y-47596001D01*
X83432184Y-47628185D01*
X83526688Y-47691331D01*
X83631695Y-47734826D01*
X83640235Y-47736525D01*
X83623000Y-47823170D01*
X83623000Y-47936830D01*
X83645174Y-48048305D01*
X83688669Y-48153312D01*
X83751815Y-48247816D01*
X83832184Y-48328185D01*
X83926688Y-48391331D01*
X84031695Y-48434826D01*
X84143170Y-48457000D01*
X84256830Y-48457000D01*
X84368305Y-48434826D01*
X84436223Y-48406694D01*
X84423000Y-48473170D01*
X84423000Y-48586830D01*
X84445174Y-48698305D01*
X84488669Y-48803312D01*
X84551815Y-48897816D01*
X84632184Y-48978185D01*
X84726688Y-49041331D01*
X84831695Y-49084826D01*
X84943170Y-49107000D01*
X85056830Y-49107000D01*
X85168305Y-49084826D01*
X85273312Y-49041331D01*
X85367816Y-48978185D01*
X85448185Y-48897816D01*
X85511331Y-48803312D01*
X85554826Y-48698305D01*
X85577000Y-48586830D01*
X85577000Y-48473170D01*
X85554826Y-48361695D01*
X85540802Y-48327838D01*
X85620000Y-48335638D01*
X85767417Y-48321119D01*
X85909169Y-48278118D01*
X86039809Y-48208290D01*
X86154317Y-48114317D01*
X86248290Y-47999810D01*
X86318118Y-47869170D01*
X86361119Y-47727418D01*
X86372000Y-47616938D01*
X86372000Y-46943062D01*
X89928000Y-46943062D01*
X89928000Y-47616937D01*
X89938881Y-47727417D01*
X89981882Y-47869169D01*
X90051710Y-47999809D01*
X90145683Y-48114317D01*
X90260190Y-48208290D01*
X90390830Y-48278118D01*
X90532582Y-48321119D01*
X90608144Y-48328561D01*
X90581350Y-48416888D01*
X90570209Y-48530000D01*
X90581350Y-48643112D01*
X90614343Y-48751876D01*
X90667921Y-48852115D01*
X90740026Y-48939974D01*
X90827885Y-49012079D01*
X90928124Y-49065657D01*
X91036888Y-49098650D01*
X91121664Y-49107000D01*
X91478336Y-49107000D01*
X91563112Y-49098650D01*
X91671876Y-49065657D01*
X91772115Y-49012079D01*
X91859974Y-48939974D01*
X91932079Y-48852115D01*
X91985657Y-48751876D01*
X92018650Y-48643112D01*
X92029791Y-48530000D01*
X92022190Y-48452827D01*
X92043170Y-48457000D01*
X92156830Y-48457000D01*
X92268305Y-48434826D01*
X92373312Y-48391331D01*
X92467816Y-48328185D01*
X92548185Y-48247816D01*
X92611331Y-48153312D01*
X92654826Y-48048305D01*
X92677000Y-47936830D01*
X92677000Y-47823170D01*
X92659765Y-47736525D01*
X92668305Y-47734826D01*
X92773312Y-47691331D01*
X92867816Y-47628185D01*
X92900000Y-47596001D01*
X92932184Y-47628185D01*
X93026688Y-47691331D01*
X93131695Y-47734826D01*
X93243170Y-47757000D01*
X93356830Y-47757000D01*
X93468305Y-47734826D01*
X93573312Y-47691331D01*
X93667816Y-47628185D01*
X93700000Y-47596001D01*
X93732184Y-47628185D01*
X93826688Y-47691331D01*
X93931695Y-47734826D01*
X93940235Y-47736525D01*
X93923000Y-47823170D01*
X93923000Y-47936830D01*
X93945174Y-48048305D01*
X93988669Y-48153312D01*
X94051815Y-48247816D01*
X94132184Y-48328185D01*
X94226688Y-48391331D01*
X94331695Y-48434826D01*
X94443170Y-48457000D01*
X94556830Y-48457000D01*
X94668305Y-48434826D01*
X94773312Y-48391331D01*
X94867816Y-48328185D01*
X94900000Y-48296001D01*
X94932184Y-48328185D01*
X95026688Y-48391331D01*
X95131695Y-48434826D01*
X95243170Y-48457000D01*
X95356830Y-48457000D01*
X95468305Y-48434826D01*
X95573312Y-48391331D01*
X95667816Y-48328185D01*
X95748185Y-48247816D01*
X95811331Y-48153312D01*
X95854826Y-48048305D01*
X95877000Y-47936830D01*
X95877000Y-47823170D01*
X95859765Y-47736525D01*
X95868305Y-47734826D01*
X95973312Y-47691331D01*
X96067816Y-47628185D01*
X96100000Y-47596001D01*
X96132184Y-47628185D01*
X96226688Y-47691331D01*
X96331695Y-47734826D01*
X96443170Y-47757000D01*
X96556830Y-47757000D01*
X96668305Y-47734826D01*
X96773312Y-47691331D01*
X96867816Y-47628185D01*
X96900000Y-47596001D01*
X96932184Y-47628185D01*
X97026688Y-47691331D01*
X97131695Y-47734826D01*
X97140235Y-47736525D01*
X97123000Y-47823170D01*
X97123000Y-47936830D01*
X97145174Y-48048305D01*
X97188669Y-48153312D01*
X97251815Y-48247816D01*
X97332184Y-48328185D01*
X97426688Y-48391331D01*
X97531695Y-48434826D01*
X97643170Y-48457000D01*
X97756830Y-48457000D01*
X97868305Y-48434826D01*
X97936223Y-48406694D01*
X97923000Y-48473170D01*
X97923000Y-48586830D01*
X97945174Y-48698305D01*
X97988669Y-48803312D01*
X98051815Y-48897816D01*
X98132184Y-48978185D01*
X98226688Y-49041331D01*
X98331695Y-49084826D01*
X98443170Y-49107000D01*
X98556830Y-49107000D01*
X98668305Y-49084826D01*
X98773312Y-49041331D01*
X98867816Y-48978185D01*
X98948185Y-48897816D01*
X99011331Y-48803312D01*
X99054826Y-48698305D01*
X99077000Y-48586830D01*
X99077000Y-48473170D01*
X99054826Y-48361695D01*
X99040802Y-48327838D01*
X99120000Y-48335638D01*
X99267417Y-48321119D01*
X99409169Y-48278118D01*
X99539809Y-48208290D01*
X99654317Y-48114317D01*
X99710684Y-48045633D01*
X100498000Y-48045633D01*
X100498000Y-48154367D01*
X100519213Y-48261012D01*
X100560824Y-48361470D01*
X100621234Y-48451880D01*
X100698120Y-48528766D01*
X100788530Y-48589176D01*
X100888988Y-48630787D01*
X100995633Y-48652000D01*
X101104367Y-48652000D01*
X101211012Y-48630787D01*
X101311470Y-48589176D01*
X101401880Y-48528766D01*
X101478766Y-48451880D01*
X101539176Y-48361470D01*
X101580787Y-48261012D01*
X101602000Y-48154367D01*
X101602000Y-48045633D01*
X101580787Y-47938988D01*
X101539176Y-47838530D01*
X101478766Y-47748120D01*
X101401880Y-47671234D01*
X101311470Y-47610824D01*
X101211012Y-47569213D01*
X101104367Y-47548000D01*
X100995633Y-47548000D01*
X100888988Y-47569213D01*
X100788530Y-47610824D01*
X100698120Y-47671234D01*
X100621234Y-47748120D01*
X100560824Y-47838530D01*
X100519213Y-47938988D01*
X100498000Y-48045633D01*
X99710684Y-48045633D01*
X99748290Y-47999810D01*
X99818118Y-47869170D01*
X99861119Y-47727418D01*
X99872000Y-47616938D01*
X99872000Y-46943062D01*
X103428000Y-46943062D01*
X103428000Y-47616937D01*
X103438881Y-47727417D01*
X103481882Y-47869169D01*
X103551710Y-47999809D01*
X103645683Y-48114317D01*
X103760190Y-48208290D01*
X103890830Y-48278118D01*
X104032582Y-48321119D01*
X104108144Y-48328561D01*
X104081350Y-48416888D01*
X104070209Y-48530000D01*
X104081350Y-48643112D01*
X104114343Y-48751876D01*
X104167921Y-48852115D01*
X104240026Y-48939974D01*
X104327885Y-49012079D01*
X104428124Y-49065657D01*
X104536888Y-49098650D01*
X104621664Y-49107000D01*
X104978336Y-49107000D01*
X105063112Y-49098650D01*
X105171876Y-49065657D01*
X105272115Y-49012079D01*
X105359974Y-48939974D01*
X105432079Y-48852115D01*
X105485657Y-48751876D01*
X105518650Y-48643112D01*
X105529791Y-48530000D01*
X105522190Y-48452827D01*
X105543170Y-48457000D01*
X105656830Y-48457000D01*
X105768305Y-48434826D01*
X105873312Y-48391331D01*
X105967816Y-48328185D01*
X106048185Y-48247816D01*
X106111331Y-48153312D01*
X106154826Y-48048305D01*
X106177000Y-47936830D01*
X106177000Y-47823170D01*
X106159765Y-47736525D01*
X106168305Y-47734826D01*
X106273312Y-47691331D01*
X106367816Y-47628185D01*
X106400000Y-47596001D01*
X106432184Y-47628185D01*
X106526688Y-47691331D01*
X106631695Y-47734826D01*
X106743170Y-47757000D01*
X106856830Y-47757000D01*
X106968305Y-47734826D01*
X107073312Y-47691331D01*
X107167816Y-47628185D01*
X107200000Y-47596001D01*
X107232184Y-47628185D01*
X107326688Y-47691331D01*
X107431695Y-47734826D01*
X107440235Y-47736525D01*
X107423000Y-47823170D01*
X107423000Y-47936830D01*
X107445174Y-48048305D01*
X107488669Y-48153312D01*
X107551815Y-48247816D01*
X107632184Y-48328185D01*
X107726688Y-48391331D01*
X107831695Y-48434826D01*
X107943170Y-48457000D01*
X108056830Y-48457000D01*
X108168305Y-48434826D01*
X108273312Y-48391331D01*
X108367816Y-48328185D01*
X108400000Y-48296001D01*
X108432184Y-48328185D01*
X108526688Y-48391331D01*
X108631695Y-48434826D01*
X108743170Y-48457000D01*
X108856830Y-48457000D01*
X108968305Y-48434826D01*
X109073312Y-48391331D01*
X109167816Y-48328185D01*
X109248185Y-48247816D01*
X109311331Y-48153312D01*
X109354826Y-48048305D01*
X109377000Y-47936830D01*
X109377000Y-47823170D01*
X109359765Y-47736525D01*
X109368305Y-47734826D01*
X109473312Y-47691331D01*
X109567816Y-47628185D01*
X109600000Y-47596001D01*
X109632184Y-47628185D01*
X109726688Y-47691331D01*
X109831695Y-47734826D01*
X109943170Y-47757000D01*
X110056830Y-47757000D01*
X110168305Y-47734826D01*
X110273312Y-47691331D01*
X110367816Y-47628185D01*
X110400000Y-47596001D01*
X110432184Y-47628185D01*
X110526688Y-47691331D01*
X110631695Y-47734826D01*
X110640235Y-47736525D01*
X110623000Y-47823170D01*
X110623000Y-47936830D01*
X110645174Y-48048305D01*
X110688669Y-48153312D01*
X110751815Y-48247816D01*
X110832184Y-48328185D01*
X110926688Y-48391331D01*
X111031695Y-48434826D01*
X111143170Y-48457000D01*
X111256830Y-48457000D01*
X111368305Y-48434826D01*
X111436223Y-48406694D01*
X111423000Y-48473170D01*
X111423000Y-48586830D01*
X111445174Y-48698305D01*
X111488669Y-48803312D01*
X111551815Y-48897816D01*
X111632184Y-48978185D01*
X111726688Y-49041331D01*
X111831695Y-49084826D01*
X111943170Y-49107000D01*
X112056830Y-49107000D01*
X112168305Y-49084826D01*
X112273312Y-49041331D01*
X112367816Y-48978185D01*
X112448185Y-48897816D01*
X112511331Y-48803312D01*
X112554826Y-48698305D01*
X112577000Y-48586830D01*
X112577000Y-48473170D01*
X112554826Y-48361695D01*
X112540802Y-48327838D01*
X112620000Y-48335638D01*
X112767417Y-48321119D01*
X112909169Y-48278118D01*
X113039809Y-48208290D01*
X113154317Y-48114317D01*
X113248290Y-47999810D01*
X113318118Y-47869170D01*
X113361119Y-47727418D01*
X113372000Y-47616938D01*
X113372000Y-46943062D01*
X113361119Y-46832582D01*
X113318118Y-46690830D01*
X113248290Y-46560190D01*
X113154317Y-46445683D01*
X113039810Y-46351710D01*
X112909170Y-46281882D01*
X112767418Y-46238881D01*
X112620000Y-46224362D01*
X112472583Y-46238881D01*
X112330831Y-46281882D01*
X112200191Y-46351710D01*
X112085684Y-46445683D01*
X111991711Y-46560190D01*
X111921882Y-46690830D01*
X111878881Y-46832582D01*
X111868000Y-46943062D01*
X111868000Y-47616937D01*
X111878881Y-47727417D01*
X111921882Y-47869169D01*
X111966690Y-47953000D01*
X111943170Y-47953000D01*
X111831695Y-47975174D01*
X111763777Y-48003306D01*
X111777000Y-47936830D01*
X111777000Y-47823170D01*
X111754826Y-47711695D01*
X111711331Y-47606688D01*
X111648185Y-47512184D01*
X111567816Y-47431815D01*
X111473312Y-47368669D01*
X111368305Y-47325174D01*
X111359765Y-47323475D01*
X111377000Y-47236830D01*
X111377000Y-47123170D01*
X111354826Y-47011695D01*
X111311331Y-46906688D01*
X111248185Y-46812184D01*
X111167816Y-46731815D01*
X111073312Y-46668669D01*
X110968305Y-46625174D01*
X110856830Y-46603000D01*
X110743170Y-46603000D01*
X110631695Y-46625174D01*
X110526688Y-46668669D01*
X110432184Y-46731815D01*
X110400000Y-46763999D01*
X110367816Y-46731815D01*
X110273312Y-46668669D01*
X110168305Y-46625174D01*
X110056830Y-46603000D01*
X109943170Y-46603000D01*
X109831695Y-46625174D01*
X109726688Y-46668669D01*
X109632184Y-46731815D01*
X109600000Y-46763999D01*
X109567816Y-46731815D01*
X109473312Y-46668669D01*
X109368305Y-46625174D01*
X109256830Y-46603000D01*
X109143170Y-46603000D01*
X109031695Y-46625174D01*
X108926688Y-46668669D01*
X108832184Y-46731815D01*
X108751815Y-46812184D01*
X108688669Y-46906688D01*
X108645174Y-47011695D01*
X108623000Y-47123170D01*
X108623000Y-47236830D01*
X108640235Y-47323475D01*
X108631695Y-47325174D01*
X108526688Y-47368669D01*
X108432184Y-47431815D01*
X108400000Y-47463999D01*
X108367816Y-47431815D01*
X108273312Y-47368669D01*
X108168305Y-47325174D01*
X108159765Y-47323475D01*
X108177000Y-47236830D01*
X108177000Y-47123170D01*
X108154826Y-47011695D01*
X108111331Y-46906688D01*
X108048185Y-46812184D01*
X107967816Y-46731815D01*
X107873312Y-46668669D01*
X107768305Y-46625174D01*
X107656830Y-46603000D01*
X107543170Y-46603000D01*
X107431695Y-46625174D01*
X107326688Y-46668669D01*
X107232184Y-46731815D01*
X107200000Y-46763999D01*
X107167816Y-46731815D01*
X107073312Y-46668669D01*
X106968305Y-46625174D01*
X106856830Y-46603000D01*
X106743170Y-46603000D01*
X106631695Y-46625174D01*
X106526688Y-46668669D01*
X106432184Y-46731815D01*
X106400000Y-46763999D01*
X106367816Y-46731815D01*
X106273312Y-46668669D01*
X106168305Y-46625174D01*
X106056830Y-46603000D01*
X105943170Y-46603000D01*
X105831695Y-46625174D01*
X105726688Y-46668669D01*
X105632184Y-46731815D01*
X105551815Y-46812184D01*
X105488669Y-46906688D01*
X105445174Y-47011695D01*
X105423000Y-47123170D01*
X105423000Y-47236830D01*
X105440235Y-47323475D01*
X105431695Y-47325174D01*
X105326688Y-47368669D01*
X105232184Y-47431815D01*
X105151815Y-47512184D01*
X105088669Y-47606688D01*
X105045174Y-47711695D01*
X105023000Y-47823170D01*
X105023000Y-47936830D01*
X105027173Y-47957810D01*
X104978336Y-47953000D01*
X104833310Y-47953000D01*
X104878118Y-47869170D01*
X104921119Y-47727418D01*
X104932000Y-47616938D01*
X104932000Y-46943062D01*
X104921119Y-46832582D01*
X104878118Y-46690830D01*
X104808290Y-46560190D01*
X104714317Y-46445683D01*
X104599810Y-46351710D01*
X104469170Y-46281882D01*
X104327418Y-46238881D01*
X104180000Y-46224362D01*
X104032583Y-46238881D01*
X103890831Y-46281882D01*
X103760191Y-46351710D01*
X103645684Y-46445683D01*
X103551711Y-46560190D01*
X103481882Y-46690830D01*
X103438881Y-46832582D01*
X103428000Y-46943062D01*
X99872000Y-46943062D01*
X99861119Y-46832582D01*
X99818118Y-46690830D01*
X99748290Y-46560190D01*
X99654317Y-46445683D01*
X99539810Y-46351710D01*
X99409170Y-46281882D01*
X99267418Y-46238881D01*
X99120000Y-46224362D01*
X98972583Y-46238881D01*
X98830831Y-46281882D01*
X98700191Y-46351710D01*
X98585684Y-46445683D01*
X98491711Y-46560190D01*
X98421882Y-46690830D01*
X98378881Y-46832582D01*
X98368000Y-46943062D01*
X98368000Y-47616937D01*
X98378881Y-47727417D01*
X98421882Y-47869169D01*
X98466690Y-47953000D01*
X98443170Y-47953000D01*
X98331695Y-47975174D01*
X98263777Y-48003306D01*
X98277000Y-47936830D01*
X98277000Y-47823170D01*
X98254826Y-47711695D01*
X98211331Y-47606688D01*
X98148185Y-47512184D01*
X98067816Y-47431815D01*
X97973312Y-47368669D01*
X97868305Y-47325174D01*
X97859765Y-47323475D01*
X97877000Y-47236830D01*
X97877000Y-47123170D01*
X97854826Y-47011695D01*
X97811331Y-46906688D01*
X97748185Y-46812184D01*
X97667816Y-46731815D01*
X97573312Y-46668669D01*
X97468305Y-46625174D01*
X97356830Y-46603000D01*
X97243170Y-46603000D01*
X97131695Y-46625174D01*
X97026688Y-46668669D01*
X96932184Y-46731815D01*
X96900000Y-46763999D01*
X96867816Y-46731815D01*
X96773312Y-46668669D01*
X96668305Y-46625174D01*
X96556830Y-46603000D01*
X96443170Y-46603000D01*
X96331695Y-46625174D01*
X96226688Y-46668669D01*
X96132184Y-46731815D01*
X96100000Y-46763999D01*
X96067816Y-46731815D01*
X95973312Y-46668669D01*
X95868305Y-46625174D01*
X95756830Y-46603000D01*
X95643170Y-46603000D01*
X95531695Y-46625174D01*
X95426688Y-46668669D01*
X95332184Y-46731815D01*
X95251815Y-46812184D01*
X95188669Y-46906688D01*
X95145174Y-47011695D01*
X95123000Y-47123170D01*
X95123000Y-47236830D01*
X95140235Y-47323475D01*
X95131695Y-47325174D01*
X95026688Y-47368669D01*
X94932184Y-47431815D01*
X94900000Y-47463999D01*
X94867816Y-47431815D01*
X94773312Y-47368669D01*
X94668305Y-47325174D01*
X94659765Y-47323475D01*
X94677000Y-47236830D01*
X94677000Y-47123170D01*
X94654826Y-47011695D01*
X94611331Y-46906688D01*
X94548185Y-46812184D01*
X94467816Y-46731815D01*
X94373312Y-46668669D01*
X94268305Y-46625174D01*
X94156830Y-46603000D01*
X94043170Y-46603000D01*
X93931695Y-46625174D01*
X93826688Y-46668669D01*
X93732184Y-46731815D01*
X93700000Y-46763999D01*
X93667816Y-46731815D01*
X93573312Y-46668669D01*
X93468305Y-46625174D01*
X93356830Y-46603000D01*
X93243170Y-46603000D01*
X93131695Y-46625174D01*
X93026688Y-46668669D01*
X92932184Y-46731815D01*
X92900000Y-46763999D01*
X92867816Y-46731815D01*
X92773312Y-46668669D01*
X92668305Y-46625174D01*
X92556830Y-46603000D01*
X92443170Y-46603000D01*
X92331695Y-46625174D01*
X92226688Y-46668669D01*
X92132184Y-46731815D01*
X92051815Y-46812184D01*
X91988669Y-46906688D01*
X91945174Y-47011695D01*
X91923000Y-47123170D01*
X91923000Y-47236830D01*
X91940235Y-47323475D01*
X91931695Y-47325174D01*
X91826688Y-47368669D01*
X91732184Y-47431815D01*
X91651815Y-47512184D01*
X91588669Y-47606688D01*
X91545174Y-47711695D01*
X91523000Y-47823170D01*
X91523000Y-47936830D01*
X91527173Y-47957810D01*
X91478336Y-47953000D01*
X91333310Y-47953000D01*
X91378118Y-47869170D01*
X91421119Y-47727418D01*
X91432000Y-47616938D01*
X91432000Y-46943062D01*
X91421119Y-46832582D01*
X91378118Y-46690830D01*
X91308290Y-46560190D01*
X91214317Y-46445683D01*
X91099810Y-46351710D01*
X90969170Y-46281882D01*
X90827418Y-46238881D01*
X90680000Y-46224362D01*
X90532583Y-46238881D01*
X90390831Y-46281882D01*
X90260191Y-46351710D01*
X90145684Y-46445683D01*
X90051711Y-46560190D01*
X89981882Y-46690830D01*
X89938881Y-46832582D01*
X89928000Y-46943062D01*
X86372000Y-46943062D01*
X86361119Y-46832582D01*
X86318118Y-46690830D01*
X86248290Y-46560190D01*
X86154317Y-46445683D01*
X86039810Y-46351710D01*
X85909170Y-46281882D01*
X85767418Y-46238881D01*
X85620000Y-46224362D01*
X85472583Y-46238881D01*
X85330831Y-46281882D01*
X85200191Y-46351710D01*
X85085684Y-46445683D01*
X84991711Y-46560190D01*
X84921882Y-46690830D01*
X84878881Y-46832582D01*
X84868000Y-46943062D01*
X84868000Y-47616937D01*
X84878881Y-47727417D01*
X84921882Y-47869169D01*
X84966690Y-47953000D01*
X84943170Y-47953000D01*
X84831695Y-47975174D01*
X84763777Y-48003306D01*
X84777000Y-47936830D01*
X84777000Y-47823170D01*
X84754826Y-47711695D01*
X84711331Y-47606688D01*
X84648185Y-47512184D01*
X84567816Y-47431815D01*
X84473312Y-47368669D01*
X84368305Y-47325174D01*
X84359765Y-47323475D01*
X84377000Y-47236830D01*
X84377000Y-47123170D01*
X84354826Y-47011695D01*
X84311331Y-46906688D01*
X84248185Y-46812184D01*
X84167816Y-46731815D01*
X84073312Y-46668669D01*
X83968305Y-46625174D01*
X83856830Y-46603000D01*
X83743170Y-46603000D01*
X83631695Y-46625174D01*
X83526688Y-46668669D01*
X83432184Y-46731815D01*
X83400000Y-46763999D01*
X83367816Y-46731815D01*
X83273312Y-46668669D01*
X83168305Y-46625174D01*
X83056830Y-46603000D01*
X82943170Y-46603000D01*
X82831695Y-46625174D01*
X82726688Y-46668669D01*
X82632184Y-46731815D01*
X82600000Y-46763999D01*
X82567816Y-46731815D01*
X82473312Y-46668669D01*
X82368305Y-46625174D01*
X82256830Y-46603000D01*
X82143170Y-46603000D01*
X82031695Y-46625174D01*
X81926688Y-46668669D01*
X81832184Y-46731815D01*
X81751815Y-46812184D01*
X81688669Y-46906688D01*
X81645174Y-47011695D01*
X81623000Y-47123170D01*
X81623000Y-47236830D01*
X81640235Y-47323475D01*
X81631695Y-47325174D01*
X81526688Y-47368669D01*
X81432184Y-47431815D01*
X81400000Y-47463999D01*
X81367816Y-47431815D01*
X81273312Y-47368669D01*
X81168305Y-47325174D01*
X81159765Y-47323475D01*
X81177000Y-47236830D01*
X81177000Y-47123170D01*
X81154826Y-47011695D01*
X81111331Y-46906688D01*
X81048185Y-46812184D01*
X80967816Y-46731815D01*
X80873312Y-46668669D01*
X80768305Y-46625174D01*
X80656830Y-46603000D01*
X80543170Y-46603000D01*
X80431695Y-46625174D01*
X80326688Y-46668669D01*
X80232184Y-46731815D01*
X80200000Y-46763999D01*
X80167816Y-46731815D01*
X80073312Y-46668669D01*
X79968305Y-46625174D01*
X79856830Y-46603000D01*
X79743170Y-46603000D01*
X79631695Y-46625174D01*
X79526688Y-46668669D01*
X79432184Y-46731815D01*
X79400000Y-46763999D01*
X79367816Y-46731815D01*
X79273312Y-46668669D01*
X79168305Y-46625174D01*
X79056830Y-46603000D01*
X78943170Y-46603000D01*
X78831695Y-46625174D01*
X78726688Y-46668669D01*
X78632184Y-46731815D01*
X78551815Y-46812184D01*
X78488669Y-46906688D01*
X78445174Y-47011695D01*
X78423000Y-47123170D01*
X78423000Y-47236830D01*
X78440235Y-47323475D01*
X78431695Y-47325174D01*
X78326688Y-47368669D01*
X78232184Y-47431815D01*
X78151815Y-47512184D01*
X78088669Y-47606688D01*
X78045174Y-47711695D01*
X78023000Y-47823170D01*
X78023000Y-47936830D01*
X78027173Y-47957810D01*
X77978336Y-47953000D01*
X77833310Y-47953000D01*
X77878118Y-47869170D01*
X77921119Y-47727418D01*
X77932000Y-47616938D01*
X77932000Y-46943062D01*
X77921119Y-46832582D01*
X77878118Y-46690830D01*
X77808290Y-46560190D01*
X77714317Y-46445683D01*
X77599810Y-46351710D01*
X77469170Y-46281882D01*
X77327418Y-46238881D01*
X77180000Y-46224362D01*
X77032583Y-46238881D01*
X76890831Y-46281882D01*
X76760191Y-46351710D01*
X76645684Y-46445683D01*
X76551711Y-46560190D01*
X76481882Y-46690830D01*
X76438881Y-46832582D01*
X76428000Y-46943062D01*
X76127000Y-46943062D01*
X76127000Y-45299479D01*
X76198000Y-45299479D01*
X76208158Y-45402615D01*
X76248299Y-45534942D01*
X76313485Y-45656896D01*
X76401210Y-45763789D01*
X76508103Y-45851515D01*
X76630057Y-45916701D01*
X76762384Y-45956842D01*
X76900000Y-45970396D01*
X77037615Y-45956842D01*
X77169942Y-45916701D01*
X77291896Y-45851515D01*
X77398789Y-45763790D01*
X77486515Y-45656897D01*
X77551701Y-45534943D01*
X77591842Y-45402616D01*
X77602000Y-45299480D01*
X77602000Y-45299479D01*
X85198000Y-45299479D01*
X85208158Y-45402615D01*
X85248299Y-45534942D01*
X85313485Y-45656896D01*
X85401210Y-45763789D01*
X85508103Y-45851515D01*
X85630057Y-45916701D01*
X85762384Y-45956842D01*
X85900000Y-45970396D01*
X86037615Y-45956842D01*
X86169942Y-45916701D01*
X86291896Y-45851515D01*
X86398789Y-45763790D01*
X86486515Y-45656897D01*
X86551701Y-45534943D01*
X86591842Y-45402616D01*
X86602000Y-45299480D01*
X86602000Y-45299479D01*
X89698000Y-45299479D01*
X89708158Y-45402615D01*
X89748299Y-45534942D01*
X89813485Y-45656896D01*
X89901210Y-45763789D01*
X90008103Y-45851515D01*
X90130057Y-45916701D01*
X90262384Y-45956842D01*
X90400000Y-45970396D01*
X90537615Y-45956842D01*
X90669942Y-45916701D01*
X90791896Y-45851515D01*
X90898789Y-45763790D01*
X90986515Y-45656897D01*
X91051701Y-45534943D01*
X91091842Y-45402616D01*
X91102000Y-45299480D01*
X91102000Y-45299479D01*
X98698000Y-45299479D01*
X98708158Y-45402615D01*
X98748299Y-45534942D01*
X98813485Y-45656896D01*
X98901210Y-45763789D01*
X99008103Y-45851515D01*
X99130057Y-45916701D01*
X99262384Y-45956842D01*
X99400000Y-45970396D01*
X99537615Y-45956842D01*
X99669942Y-45916701D01*
X99791896Y-45851515D01*
X99898789Y-45763790D01*
X99986515Y-45656897D01*
X100051701Y-45534943D01*
X100091842Y-45402616D01*
X100102000Y-45299480D01*
X100102000Y-45299479D01*
X103198000Y-45299479D01*
X103208158Y-45402615D01*
X103248299Y-45534942D01*
X103313485Y-45656896D01*
X103401210Y-45763789D01*
X103508103Y-45851515D01*
X103630057Y-45916701D01*
X103762384Y-45956842D01*
X103900000Y-45970396D01*
X104037615Y-45956842D01*
X104169942Y-45916701D01*
X104291896Y-45851515D01*
X104398789Y-45763790D01*
X104486515Y-45656897D01*
X104551701Y-45534943D01*
X104591842Y-45402616D01*
X104602000Y-45299480D01*
X104602000Y-45299479D01*
X112198000Y-45299479D01*
X112208158Y-45402615D01*
X112248299Y-45534942D01*
X112313485Y-45656896D01*
X112401210Y-45763789D01*
X112508103Y-45851515D01*
X112630057Y-45916701D01*
X112762384Y-45956842D01*
X112900000Y-45970396D01*
X113037615Y-45956842D01*
X113169942Y-45916701D01*
X113291896Y-45851515D01*
X113398789Y-45763790D01*
X113486515Y-45656897D01*
X113551701Y-45534943D01*
X113591842Y-45402616D01*
X113602000Y-45299480D01*
X113602000Y-44230520D01*
X113591842Y-44127384D01*
X113551701Y-43995057D01*
X113486515Y-43873103D01*
X113398790Y-43766210D01*
X113291897Y-43678485D01*
X113169943Y-43613299D01*
X113037616Y-43573158D01*
X112900000Y-43559604D01*
X112762385Y-43573158D01*
X112630058Y-43613299D01*
X112508104Y-43678485D01*
X112401211Y-43766210D01*
X112313486Y-43873103D01*
X112248300Y-43995057D01*
X112208159Y-44127384D01*
X112198001Y-44230520D01*
X112198000Y-45299479D01*
X104602000Y-45299479D01*
X104602000Y-44230520D01*
X104591842Y-44127384D01*
X104551701Y-43995057D01*
X104486515Y-43873103D01*
X104398790Y-43766210D01*
X104291897Y-43678485D01*
X104169943Y-43613299D01*
X104037616Y-43573158D01*
X103900000Y-43559604D01*
X103762385Y-43573158D01*
X103630058Y-43613299D01*
X103508104Y-43678485D01*
X103401211Y-43766210D01*
X103313486Y-43873103D01*
X103248300Y-43995057D01*
X103208159Y-44127384D01*
X103198001Y-44230520D01*
X103198000Y-45299479D01*
X100102000Y-45299479D01*
X100102000Y-44230520D01*
X100091842Y-44127384D01*
X100051701Y-43995057D01*
X99986515Y-43873103D01*
X99898790Y-43766210D01*
X99791897Y-43678485D01*
X99669943Y-43613299D01*
X99537616Y-43573158D01*
X99400000Y-43559604D01*
X99262385Y-43573158D01*
X99130058Y-43613299D01*
X99008104Y-43678485D01*
X98901211Y-43766210D01*
X98813486Y-43873103D01*
X98748300Y-43995057D01*
X98708159Y-44127384D01*
X98698001Y-44230520D01*
X98698000Y-45299479D01*
X91102000Y-45299479D01*
X91102000Y-44230520D01*
X91091842Y-44127384D01*
X91051701Y-43995057D01*
X90986515Y-43873103D01*
X90898790Y-43766210D01*
X90791897Y-43678485D01*
X90669943Y-43613299D01*
X90537616Y-43573158D01*
X90400000Y-43559604D01*
X90262385Y-43573158D01*
X90130058Y-43613299D01*
X90008104Y-43678485D01*
X89901211Y-43766210D01*
X89813486Y-43873103D01*
X89748300Y-43995057D01*
X89708159Y-44127384D01*
X89698001Y-44230520D01*
X89698000Y-45299479D01*
X86602000Y-45299479D01*
X86602000Y-44230520D01*
X86591842Y-44127384D01*
X86551701Y-43995057D01*
X86486515Y-43873103D01*
X86398790Y-43766210D01*
X86291897Y-43678485D01*
X86169943Y-43613299D01*
X86037616Y-43573158D01*
X85900000Y-43559604D01*
X85762385Y-43573158D01*
X85630058Y-43613299D01*
X85508104Y-43678485D01*
X85401211Y-43766210D01*
X85313486Y-43873103D01*
X85248300Y-43995057D01*
X85208159Y-44127384D01*
X85198001Y-44230520D01*
X85198000Y-45299479D01*
X77602000Y-45299479D01*
X77602000Y-44230520D01*
X77591842Y-44127384D01*
X77551701Y-43995057D01*
X77486515Y-43873103D01*
X77398790Y-43766210D01*
X77291897Y-43678485D01*
X77169943Y-43613299D01*
X77037616Y-43573158D01*
X76900000Y-43559604D01*
X76762385Y-43573158D01*
X76630058Y-43613299D01*
X76508104Y-43678485D01*
X76401211Y-43766210D01*
X76313486Y-43873103D01*
X76248300Y-43995057D01*
X76208159Y-44127384D01*
X76198001Y-44230520D01*
X76198000Y-45299479D01*
X76127000Y-45299479D01*
X76127000Y-42927000D01*
X114573772Y-42927000D01*
X114604794Y-48014560D01*
%TA.AperFunction,Conductor*%
D29*
G36*
X114604794Y-48014560D02*
G01*
X114571234Y-48048120D01*
X114510824Y-48138530D01*
X114469213Y-48238988D01*
X114448000Y-48345633D01*
X114448000Y-48454367D01*
X114469213Y-48561012D01*
X114510824Y-48661470D01*
X114571234Y-48751880D01*
X114609523Y-48790169D01*
X114622223Y-50873000D01*
X112544514Y-50873000D01*
X112530883Y-50804471D01*
X112498950Y-50727378D01*
X112547814Y-50722565D01*
X112670717Y-50685283D01*
X112783984Y-50624741D01*
X112883264Y-50543264D01*
X112964741Y-50443984D01*
X113025283Y-50330717D01*
X113062565Y-50207814D01*
X113075154Y-50080000D01*
X113062565Y-49952186D01*
X113025283Y-49829283D01*
X112964741Y-49716016D01*
X112883264Y-49616736D01*
X112783984Y-49535259D01*
X112670717Y-49474717D01*
X112547814Y-49437435D01*
X112452022Y-49428000D01*
X112037978Y-49428000D01*
X111942186Y-49437435D01*
X111819283Y-49474717D01*
X111706016Y-49535259D01*
X111606736Y-49616736D01*
X111525259Y-49716016D01*
X111464717Y-49829283D01*
X111427435Y-49952186D01*
X111414846Y-50080000D01*
X111427435Y-50207814D01*
X111464717Y-50330717D01*
X111525259Y-50443984D01*
X111606736Y-50543264D01*
X111625923Y-50559010D01*
X111571330Y-50613603D01*
X111510920Y-50704013D01*
X111469309Y-50804471D01*
X111455678Y-50873000D01*
X109682704Y-50873000D01*
X109659859Y-50817847D01*
X109599449Y-50727437D01*
X109522563Y-50650551D01*
X109432153Y-50590141D01*
X109331695Y-50548530D01*
X109225050Y-50527317D01*
X109116316Y-50527317D01*
X109009671Y-50548530D01*
X108909213Y-50590141D01*
X108818803Y-50650551D01*
X108741917Y-50727437D01*
X108681507Y-50817847D01*
X108658662Y-50873000D01*
X107912283Y-50873000D01*
X107998809Y-50855789D01*
X108099267Y-50814178D01*
X108189677Y-50753768D01*
X108266563Y-50676882D01*
X108326973Y-50586472D01*
X108368584Y-50486014D01*
X108389797Y-50379369D01*
X108389797Y-50270635D01*
X108368584Y-50163990D01*
X108326973Y-50063532D01*
X108266563Y-49973122D01*
X108189677Y-49896236D01*
X108099267Y-49835826D01*
X107998809Y-49794215D01*
X107892164Y-49773002D01*
X107783430Y-49773002D01*
X107676785Y-49794215D01*
X107576327Y-49835826D01*
X107485917Y-49896236D01*
X107409031Y-49973122D01*
X107348621Y-50063532D01*
X107307010Y-50163990D01*
X107285797Y-50270635D01*
X107285797Y-50379369D01*
X107307010Y-50486014D01*
X107348621Y-50586472D01*
X107409031Y-50676882D01*
X107485917Y-50753768D01*
X107576327Y-50814178D01*
X107676785Y-50855789D01*
X107763311Y-50873000D01*
X96204618Y-50873000D01*
X96228685Y-50814897D01*
X96249898Y-50708252D01*
X96249898Y-50599518D01*
X96228685Y-50492873D01*
X96187074Y-50392415D01*
X96126664Y-50302005D01*
X96049778Y-50225119D01*
X95959368Y-50164709D01*
X95858910Y-50123098D01*
X95752265Y-50101885D01*
X95643531Y-50101885D01*
X95536886Y-50123098D01*
X95436428Y-50164709D01*
X95346018Y-50225119D01*
X95269132Y-50302005D01*
X95208722Y-50392415D01*
X95167111Y-50492873D01*
X95145898Y-50599518D01*
X95145898Y-50708252D01*
X95167111Y-50814897D01*
X95191178Y-50873000D01*
X94646285Y-50873000D01*
X94683760Y-50782526D01*
X94704973Y-50675881D01*
X94704973Y-50567147D01*
X94683760Y-50460502D01*
X94642149Y-50360044D01*
X94581739Y-50269634D01*
X94504853Y-50192748D01*
X94414443Y-50132338D01*
X94313985Y-50090727D01*
X94260057Y-50080000D01*
X97914846Y-50080000D01*
X97927435Y-50207814D01*
X97964717Y-50330717D01*
X98025259Y-50443984D01*
X98106736Y-50543264D01*
X98206016Y-50624741D01*
X98319283Y-50685283D01*
X98442186Y-50722565D01*
X98537978Y-50732000D01*
X98952022Y-50732000D01*
X99047814Y-50722565D01*
X99170717Y-50685283D01*
X99283984Y-50624741D01*
X99383264Y-50543264D01*
X99464741Y-50443984D01*
X99525283Y-50330717D01*
X99562565Y-50207814D01*
X99575154Y-50080000D01*
X103724846Y-50080000D01*
X103737435Y-50207814D01*
X103774717Y-50330717D01*
X103835259Y-50443984D01*
X103916736Y-50543264D01*
X104016016Y-50624741D01*
X104129283Y-50685283D01*
X104252186Y-50722565D01*
X104347978Y-50732000D01*
X104762022Y-50732000D01*
X104857814Y-50722565D01*
X104980717Y-50685283D01*
X105093984Y-50624741D01*
X105193264Y-50543264D01*
X105274741Y-50443984D01*
X105335283Y-50330717D01*
X105372565Y-50207814D01*
X105385154Y-50080000D01*
X105372565Y-49952186D01*
X105335283Y-49829283D01*
X105274741Y-49716016D01*
X105193264Y-49616736D01*
X105093984Y-49535259D01*
X104980717Y-49474717D01*
X104857814Y-49437435D01*
X104762022Y-49428000D01*
X104347978Y-49428000D01*
X104252186Y-49437435D01*
X104129283Y-49474717D01*
X104016016Y-49535259D01*
X103916736Y-49616736D01*
X103835259Y-49716016D01*
X103774717Y-49829283D01*
X103737435Y-49952186D01*
X103724846Y-50080000D01*
X99575154Y-50080000D01*
X99562565Y-49952186D01*
X99525283Y-49829283D01*
X99464741Y-49716016D01*
X99383264Y-49616736D01*
X99283984Y-49535259D01*
X99170717Y-49474717D01*
X99047814Y-49437435D01*
X98952022Y-49428000D01*
X98537978Y-49428000D01*
X98442186Y-49437435D01*
X98319283Y-49474717D01*
X98206016Y-49535259D01*
X98106736Y-49616736D01*
X98025259Y-49716016D01*
X97964717Y-49829283D01*
X97927435Y-49952186D01*
X97914846Y-50080000D01*
X94260057Y-50080000D01*
X94207340Y-50069514D01*
X94098606Y-50069514D01*
X93991961Y-50090727D01*
X93891503Y-50132338D01*
X93801093Y-50192748D01*
X93724207Y-50269634D01*
X93663797Y-50360044D01*
X93622186Y-50460502D01*
X93600973Y-50567147D01*
X93600973Y-50675881D01*
X93622186Y-50782526D01*
X93659661Y-50873000D01*
X89300000Y-50873000D01*
X89275224Y-50875440D01*
X89251399Y-50882667D01*
X89220956Y-50900596D01*
X84185411Y-54904765D01*
X84151880Y-54871234D01*
X84061470Y-54810824D01*
X83961012Y-54769213D01*
X83854367Y-54748000D01*
X83745633Y-54748000D01*
X83638988Y-54769213D01*
X83538530Y-54810824D01*
X83448120Y-54871234D01*
X83371234Y-54948120D01*
X83310824Y-55038530D01*
X83269213Y-55138988D01*
X83248000Y-55245633D01*
X83248000Y-55354367D01*
X83269213Y-55461012D01*
X83310824Y-55561470D01*
X83327732Y-55586774D01*
X81097542Y-57360178D01*
X81092852Y-57363312D01*
X81089944Y-57366220D01*
X80920956Y-57500596D01*
X80903082Y-57517927D01*
X80888933Y-57538412D01*
X80879052Y-57561263D01*
X80873819Y-57585603D01*
X80873000Y-57600000D01*
X80873000Y-62873000D01*
X79085679Y-62873000D01*
X79151880Y-62828766D01*
X79228766Y-62751880D01*
X79289176Y-62661470D01*
X79330787Y-62561012D01*
X79352000Y-62454367D01*
X79352000Y-62345633D01*
X79330787Y-62238988D01*
X79289176Y-62138530D01*
X79228766Y-62048120D01*
X79151880Y-61971234D01*
X79061470Y-61910824D01*
X78961012Y-61869213D01*
X78854367Y-61848000D01*
X78745633Y-61848000D01*
X78638988Y-61869213D01*
X78538530Y-61910824D01*
X78448120Y-61971234D01*
X78371234Y-62048120D01*
X78310824Y-62138530D01*
X78269213Y-62238988D01*
X78248000Y-62345633D01*
X78248000Y-62454367D01*
X78251275Y-62470829D01*
X78161470Y-62410824D01*
X78061012Y-62369213D01*
X77954367Y-62348000D01*
X77845633Y-62348000D01*
X77738988Y-62369213D01*
X77638530Y-62410824D01*
X77548120Y-62471234D01*
X77471234Y-62548120D01*
X77410824Y-62638530D01*
X77369213Y-62738988D01*
X77348000Y-62845633D01*
X77348000Y-62873000D01*
X76798063Y-62873000D01*
X76839176Y-62811470D01*
X76880787Y-62711012D01*
X76902000Y-62604367D01*
X76902000Y-62495633D01*
X76880787Y-62388988D01*
X76839176Y-62288530D01*
X76796727Y-62225000D01*
X76839176Y-62161470D01*
X76880787Y-62061012D01*
X76902000Y-61954367D01*
X76902000Y-61845633D01*
X76880787Y-61738988D01*
X76839176Y-61638530D01*
X76796727Y-61575000D01*
X76839176Y-61511470D01*
X76880787Y-61411012D01*
X76902000Y-61304367D01*
X76902000Y-61195633D01*
X76880787Y-61088988D01*
X76839176Y-60988530D01*
X76796727Y-60925000D01*
X76839176Y-60861470D01*
X76880787Y-60761012D01*
X76902000Y-60654367D01*
X76902000Y-60545633D01*
X76880787Y-60438988D01*
X76839176Y-60338530D01*
X76778766Y-60248120D01*
X76701880Y-60171234D01*
X76611470Y-60110824D01*
X76511012Y-60069213D01*
X76404367Y-60048000D01*
X76295633Y-60048000D01*
X76188988Y-60069213D01*
X76127000Y-60094889D01*
X76127000Y-55677443D01*
X76998000Y-55677443D01*
X76998000Y-56022557D01*
X77065329Y-56361039D01*
X77197398Y-56679883D01*
X77389133Y-56966835D01*
X77633165Y-57210867D01*
X77920117Y-57402602D01*
X78238961Y-57534671D01*
X78577443Y-57602000D01*
X78922557Y-57602000D01*
X79261039Y-57534671D01*
X79579883Y-57402602D01*
X79866835Y-57210867D01*
X80110867Y-56966835D01*
X80302602Y-56679883D01*
X80434671Y-56361039D01*
X80502000Y-56022557D01*
X80502000Y-55677443D01*
X80434671Y-55338961D01*
X80302602Y-55020117D01*
X80110867Y-54733165D01*
X79866835Y-54489133D01*
X79579883Y-54297398D01*
X79261039Y-54165329D01*
X78922557Y-54098000D01*
X78577443Y-54098000D01*
X78238961Y-54165329D01*
X77920117Y-54297398D01*
X77633165Y-54489133D01*
X77389133Y-54733165D01*
X77197398Y-55020117D01*
X77065329Y-55338961D01*
X76998000Y-55677443D01*
X76127000Y-55677443D01*
X76127000Y-53951960D01*
X81041673Y-53951960D01*
X81041673Y-54060694D01*
X81062886Y-54167339D01*
X81104497Y-54267797D01*
X81164907Y-54358207D01*
X81241793Y-54435093D01*
X81332203Y-54495503D01*
X81432661Y-54537114D01*
X81539306Y-54558327D01*
X81648040Y-54558327D01*
X81754685Y-54537114D01*
X81855143Y-54495503D01*
X81945553Y-54435093D01*
X82022439Y-54358207D01*
X82082849Y-54267797D01*
X82124460Y-54167339D01*
X82145673Y-54060694D01*
X82145673Y-54045673D01*
X82160694Y-54045673D01*
X82267339Y-54024460D01*
X82367797Y-53982849D01*
X82458207Y-53922439D01*
X82535093Y-53845553D01*
X82595503Y-53755143D01*
X82637114Y-53654685D01*
X82658327Y-53548040D01*
X82658327Y-53439306D01*
X82637114Y-53332661D01*
X82595503Y-53232203D01*
X82535093Y-53141793D01*
X82458207Y-53064907D01*
X82367797Y-53004497D01*
X82267339Y-52962886D01*
X82160694Y-52941673D01*
X82051960Y-52941673D01*
X81945315Y-52962886D01*
X81844857Y-53004497D01*
X81754447Y-53064907D01*
X81677561Y-53141793D01*
X81617151Y-53232203D01*
X81575540Y-53332661D01*
X81554327Y-53439306D01*
X81554327Y-53454327D01*
X81539306Y-53454327D01*
X81432661Y-53475540D01*
X81332203Y-53517151D01*
X81241793Y-53577561D01*
X81164907Y-53654447D01*
X81104497Y-53744857D01*
X81062886Y-53845315D01*
X81041673Y-53951960D01*
X76127000Y-53951960D01*
X76127000Y-50080000D01*
X76724846Y-50080000D01*
X76737435Y-50207814D01*
X76774717Y-50330717D01*
X76835259Y-50443984D01*
X76916736Y-50543264D01*
X77016016Y-50624741D01*
X77129283Y-50685283D01*
X77252186Y-50722565D01*
X77347978Y-50732000D01*
X77762022Y-50732000D01*
X77857814Y-50722565D01*
X77980717Y-50685283D01*
X78093984Y-50624741D01*
X78193264Y-50543264D01*
X78274741Y-50443984D01*
X78280542Y-50433131D01*
X80485500Y-50433131D01*
X80485500Y-50541865D01*
X80506713Y-50648510D01*
X80548324Y-50748968D01*
X80608734Y-50839378D01*
X80685620Y-50916264D01*
X80776030Y-50976674D01*
X80876488Y-51018285D01*
X80983133Y-51039498D01*
X81091867Y-51039498D01*
X81198512Y-51018285D01*
X81298970Y-50976674D01*
X81389380Y-50916264D01*
X81400000Y-50905644D01*
X81410620Y-50916264D01*
X81501030Y-50976674D01*
X81601488Y-51018285D01*
X81708133Y-51039498D01*
X81816867Y-51039498D01*
X81923512Y-51018285D01*
X82023970Y-50976674D01*
X82114380Y-50916264D01*
X82191266Y-50839378D01*
X82251676Y-50748968D01*
X82293287Y-50648510D01*
X82314500Y-50541865D01*
X82314500Y-50433131D01*
X82293287Y-50326486D01*
X82251676Y-50226028D01*
X82191266Y-50135618D01*
X82135648Y-50080000D01*
X84414846Y-50080000D01*
X84427435Y-50207814D01*
X84464717Y-50330717D01*
X84525259Y-50443984D01*
X84606736Y-50543264D01*
X84706016Y-50624741D01*
X84819283Y-50685283D01*
X84942186Y-50722565D01*
X85037978Y-50732000D01*
X85452022Y-50732000D01*
X85547814Y-50722565D01*
X85670717Y-50685283D01*
X85783984Y-50624741D01*
X85883264Y-50543264D01*
X85964741Y-50443984D01*
X86025283Y-50330717D01*
X86062565Y-50207814D01*
X86075154Y-50080000D01*
X90224846Y-50080000D01*
X90237435Y-50207814D01*
X90274717Y-50330717D01*
X90335259Y-50443984D01*
X90416736Y-50543264D01*
X90516016Y-50624741D01*
X90629283Y-50685283D01*
X90752186Y-50722565D01*
X90847978Y-50732000D01*
X91262022Y-50732000D01*
X91357814Y-50722565D01*
X91480717Y-50685283D01*
X91593984Y-50624741D01*
X91693264Y-50543264D01*
X91774741Y-50443984D01*
X91835283Y-50330717D01*
X91872565Y-50207814D01*
X91885154Y-50080000D01*
X91872565Y-49952186D01*
X91835283Y-49829283D01*
X91774741Y-49716016D01*
X91693264Y-49616736D01*
X91593984Y-49535259D01*
X91480717Y-49474717D01*
X91357814Y-49437435D01*
X91262022Y-49428000D01*
X90847978Y-49428000D01*
X90752186Y-49437435D01*
X90629283Y-49474717D01*
X90516016Y-49535259D01*
X90416736Y-49616736D01*
X90335259Y-49716016D01*
X90274717Y-49829283D01*
X90237435Y-49952186D01*
X90224846Y-50080000D01*
X86075154Y-50080000D01*
X86062565Y-49952186D01*
X86025283Y-49829283D01*
X85964741Y-49716016D01*
X85883264Y-49616736D01*
X85783984Y-49535259D01*
X85670717Y-49474717D01*
X85547814Y-49437435D01*
X85452022Y-49428000D01*
X85037978Y-49428000D01*
X84942186Y-49437435D01*
X84819283Y-49474717D01*
X84706016Y-49535259D01*
X84606736Y-49616736D01*
X84525259Y-49716016D01*
X84464717Y-49829283D01*
X84427435Y-49952186D01*
X84414846Y-50080000D01*
X82135648Y-50080000D01*
X82114380Y-50058732D01*
X82023970Y-49998322D01*
X81923512Y-49956711D01*
X81816867Y-49935498D01*
X81708133Y-49935498D01*
X81601488Y-49956711D01*
X81501030Y-49998322D01*
X81410620Y-50058732D01*
X81400000Y-50069352D01*
X81389380Y-50058732D01*
X81298970Y-49998322D01*
X81198512Y-49956711D01*
X81091867Y-49935498D01*
X80983133Y-49935498D01*
X80876488Y-49956711D01*
X80776030Y-49998322D01*
X80685620Y-50058732D01*
X80608734Y-50135618D01*
X80548324Y-50226028D01*
X80506713Y-50326486D01*
X80485500Y-50433131D01*
X78280542Y-50433131D01*
X78335283Y-50330717D01*
X78372565Y-50207814D01*
X78385154Y-50080000D01*
X78372565Y-49952186D01*
X78335283Y-49829283D01*
X78274741Y-49716016D01*
X78193264Y-49616736D01*
X78093984Y-49535259D01*
X77980717Y-49474717D01*
X77857814Y-49437435D01*
X77762022Y-49428000D01*
X77347978Y-49428000D01*
X77252186Y-49437435D01*
X77129283Y-49474717D01*
X77016016Y-49535259D01*
X76916736Y-49616736D01*
X76835259Y-49716016D01*
X76774717Y-49829283D01*
X76737435Y-49952186D01*
X76724846Y-50080000D01*
X76127000Y-50080000D01*
X76127000Y-46943062D01*
X76428000Y-46943062D01*
X76428000Y-47616937D01*
X76438881Y-47727417D01*
X76481882Y-47869169D01*
X76551710Y-47999809D01*
X76645683Y-48114317D01*
X76760190Y-48208290D01*
X76890830Y-48278118D01*
X77032582Y-48321119D01*
X77108144Y-48328561D01*
X77081350Y-48416888D01*
X77070209Y-48530000D01*
X77081350Y-48643112D01*
X77114343Y-48751876D01*
X77167921Y-48852115D01*
X77240026Y-48939974D01*
X77327885Y-49012079D01*
X77428124Y-49065657D01*
X77536888Y-49098650D01*
X77621664Y-49107000D01*
X77978336Y-49107000D01*
X78063112Y-49098650D01*
X78171876Y-49065657D01*
X78272115Y-49012079D01*
X78359974Y-48939974D01*
X78432079Y-48852115D01*
X78485657Y-48751876D01*
X78518650Y-48643112D01*
X78529791Y-48530000D01*
X78522190Y-48452827D01*
X78543170Y-48457000D01*
X78656830Y-48457000D01*
X78768305Y-48434826D01*
X78873312Y-48391331D01*
X78967816Y-48328185D01*
X79048185Y-48247816D01*
X79111331Y-48153312D01*
X79154826Y-48048305D01*
X79177000Y-47936830D01*
X79177000Y-47823170D01*
X79159765Y-47736525D01*
X79168305Y-47734826D01*
X79273312Y-47691331D01*
X79367816Y-47628185D01*
X79400000Y-47596001D01*
X79432184Y-47628185D01*
X79526688Y-47691331D01*
X79631695Y-47734826D01*
X79640235Y-47736525D01*
X79623000Y-47823170D01*
X79623000Y-47936830D01*
X79645174Y-48048305D01*
X79688669Y-48153312D01*
X79751815Y-48247816D01*
X79832184Y-48328185D01*
X79926688Y-48391331D01*
X80031695Y-48434826D01*
X80143170Y-48457000D01*
X80256830Y-48457000D01*
X80368305Y-48434826D01*
X80473312Y-48391331D01*
X80567816Y-48328185D01*
X80600000Y-48296001D01*
X80632184Y-48328185D01*
X80726688Y-48391331D01*
X80831695Y-48434826D01*
X80943170Y-48457000D01*
X81056830Y-48457000D01*
X81168305Y-48434826D01*
X81273312Y-48391331D01*
X81367816Y-48328185D01*
X81400000Y-48296001D01*
X81432184Y-48328185D01*
X81526688Y-48391331D01*
X81631695Y-48434826D01*
X81743170Y-48457000D01*
X81856830Y-48457000D01*
X81968305Y-48434826D01*
X82073312Y-48391331D01*
X82167816Y-48328185D01*
X82200000Y-48296001D01*
X82232184Y-48328185D01*
X82326688Y-48391331D01*
X82431695Y-48434826D01*
X82543170Y-48457000D01*
X82656830Y-48457000D01*
X82768305Y-48434826D01*
X82873312Y-48391331D01*
X82967816Y-48328185D01*
X83048185Y-48247816D01*
X83111331Y-48153312D01*
X83154826Y-48048305D01*
X83177000Y-47936830D01*
X83177000Y-47823170D01*
X83159765Y-47736525D01*
X83168305Y-47734826D01*
X83273312Y-47691331D01*
X83367816Y-47628185D01*
X83400000Y-47596001D01*
X83432184Y-47628185D01*
X83526688Y-47691331D01*
X83631695Y-47734826D01*
X83640235Y-47736525D01*
X83623000Y-47823170D01*
X83623000Y-47936830D01*
X83645174Y-48048305D01*
X83688669Y-48153312D01*
X83751815Y-48247816D01*
X83832184Y-48328185D01*
X83926688Y-48391331D01*
X84031695Y-48434826D01*
X84143170Y-48457000D01*
X84256830Y-48457000D01*
X84368305Y-48434826D01*
X84436223Y-48406694D01*
X84423000Y-48473170D01*
X84423000Y-48586830D01*
X84445174Y-48698305D01*
X84488669Y-48803312D01*
X84551815Y-48897816D01*
X84632184Y-48978185D01*
X84726688Y-49041331D01*
X84831695Y-49084826D01*
X84943170Y-49107000D01*
X85056830Y-49107000D01*
X85168305Y-49084826D01*
X85273312Y-49041331D01*
X85367816Y-48978185D01*
X85448185Y-48897816D01*
X85511331Y-48803312D01*
X85554826Y-48698305D01*
X85577000Y-48586830D01*
X85577000Y-48473170D01*
X85554826Y-48361695D01*
X85540802Y-48327838D01*
X85620000Y-48335638D01*
X85767417Y-48321119D01*
X85909169Y-48278118D01*
X86039809Y-48208290D01*
X86154317Y-48114317D01*
X86248290Y-47999810D01*
X86318118Y-47869170D01*
X86361119Y-47727418D01*
X86372000Y-47616938D01*
X86372000Y-46943062D01*
X89928000Y-46943062D01*
X89928000Y-47616937D01*
X89938881Y-47727417D01*
X89981882Y-47869169D01*
X90051710Y-47999809D01*
X90145683Y-48114317D01*
X90260190Y-48208290D01*
X90390830Y-48278118D01*
X90532582Y-48321119D01*
X90608144Y-48328561D01*
X90581350Y-48416888D01*
X90570209Y-48530000D01*
X90581350Y-48643112D01*
X90614343Y-48751876D01*
X90667921Y-48852115D01*
X90740026Y-48939974D01*
X90827885Y-49012079D01*
X90928124Y-49065657D01*
X91036888Y-49098650D01*
X91121664Y-49107000D01*
X91478336Y-49107000D01*
X91563112Y-49098650D01*
X91671876Y-49065657D01*
X91772115Y-49012079D01*
X91859974Y-48939974D01*
X91932079Y-48852115D01*
X91985657Y-48751876D01*
X92018650Y-48643112D01*
X92029791Y-48530000D01*
X92022190Y-48452827D01*
X92043170Y-48457000D01*
X92156830Y-48457000D01*
X92268305Y-48434826D01*
X92373312Y-48391331D01*
X92467816Y-48328185D01*
X92548185Y-48247816D01*
X92611331Y-48153312D01*
X92654826Y-48048305D01*
X92677000Y-47936830D01*
X92677000Y-47823170D01*
X92659765Y-47736525D01*
X92668305Y-47734826D01*
X92773312Y-47691331D01*
X92867816Y-47628185D01*
X92900000Y-47596001D01*
X92932184Y-47628185D01*
X93026688Y-47691331D01*
X93131695Y-47734826D01*
X93243170Y-47757000D01*
X93356830Y-47757000D01*
X93468305Y-47734826D01*
X93573312Y-47691331D01*
X93667816Y-47628185D01*
X93700000Y-47596001D01*
X93732184Y-47628185D01*
X93826688Y-47691331D01*
X93931695Y-47734826D01*
X93940235Y-47736525D01*
X93923000Y-47823170D01*
X93923000Y-47936830D01*
X93945174Y-48048305D01*
X93988669Y-48153312D01*
X94051815Y-48247816D01*
X94132184Y-48328185D01*
X94226688Y-48391331D01*
X94331695Y-48434826D01*
X94443170Y-48457000D01*
X94556830Y-48457000D01*
X94668305Y-48434826D01*
X94773312Y-48391331D01*
X94867816Y-48328185D01*
X94900000Y-48296001D01*
X94932184Y-48328185D01*
X95026688Y-48391331D01*
X95131695Y-48434826D01*
X95243170Y-48457000D01*
X95356830Y-48457000D01*
X95468305Y-48434826D01*
X95573312Y-48391331D01*
X95667816Y-48328185D01*
X95748185Y-48247816D01*
X95811331Y-48153312D01*
X95854826Y-48048305D01*
X95877000Y-47936830D01*
X95877000Y-47823170D01*
X95859765Y-47736525D01*
X95868305Y-47734826D01*
X95973312Y-47691331D01*
X96067816Y-47628185D01*
X96100000Y-47596001D01*
X96132184Y-47628185D01*
X96226688Y-47691331D01*
X96331695Y-47734826D01*
X96443170Y-47757000D01*
X96556830Y-47757000D01*
X96668305Y-47734826D01*
X96773312Y-47691331D01*
X96867816Y-47628185D01*
X96900000Y-47596001D01*
X96932184Y-47628185D01*
X97026688Y-47691331D01*
X97131695Y-47734826D01*
X97140235Y-47736525D01*
X97123000Y-47823170D01*
X97123000Y-47936830D01*
X97145174Y-48048305D01*
X97188669Y-48153312D01*
X97251815Y-48247816D01*
X97332184Y-48328185D01*
X97426688Y-48391331D01*
X97531695Y-48434826D01*
X97643170Y-48457000D01*
X97756830Y-48457000D01*
X97868305Y-48434826D01*
X97936223Y-48406694D01*
X97923000Y-48473170D01*
X97923000Y-48586830D01*
X97945174Y-48698305D01*
X97988669Y-48803312D01*
X98051815Y-48897816D01*
X98132184Y-48978185D01*
X98226688Y-49041331D01*
X98331695Y-49084826D01*
X98443170Y-49107000D01*
X98556830Y-49107000D01*
X98668305Y-49084826D01*
X98773312Y-49041331D01*
X98867816Y-48978185D01*
X98948185Y-48897816D01*
X99011331Y-48803312D01*
X99054826Y-48698305D01*
X99077000Y-48586830D01*
X99077000Y-48473170D01*
X99054826Y-48361695D01*
X99040802Y-48327838D01*
X99120000Y-48335638D01*
X99267417Y-48321119D01*
X99409169Y-48278118D01*
X99539809Y-48208290D01*
X99654317Y-48114317D01*
X99710684Y-48045633D01*
X100498000Y-48045633D01*
X100498000Y-48154367D01*
X100519213Y-48261012D01*
X100560824Y-48361470D01*
X100621234Y-48451880D01*
X100698120Y-48528766D01*
X100788530Y-48589176D01*
X100888988Y-48630787D01*
X100995633Y-48652000D01*
X101104367Y-48652000D01*
X101211012Y-48630787D01*
X101311470Y-48589176D01*
X101401880Y-48528766D01*
X101478766Y-48451880D01*
X101539176Y-48361470D01*
X101580787Y-48261012D01*
X101602000Y-48154367D01*
X101602000Y-48045633D01*
X101580787Y-47938988D01*
X101539176Y-47838530D01*
X101478766Y-47748120D01*
X101401880Y-47671234D01*
X101311470Y-47610824D01*
X101211012Y-47569213D01*
X101104367Y-47548000D01*
X100995633Y-47548000D01*
X100888988Y-47569213D01*
X100788530Y-47610824D01*
X100698120Y-47671234D01*
X100621234Y-47748120D01*
X100560824Y-47838530D01*
X100519213Y-47938988D01*
X100498000Y-48045633D01*
X99710684Y-48045633D01*
X99748290Y-47999810D01*
X99818118Y-47869170D01*
X99861119Y-47727418D01*
X99872000Y-47616938D01*
X99872000Y-46943062D01*
X103428000Y-46943062D01*
X103428000Y-47616937D01*
X103438881Y-47727417D01*
X103481882Y-47869169D01*
X103551710Y-47999809D01*
X103645683Y-48114317D01*
X103760190Y-48208290D01*
X103890830Y-48278118D01*
X104032582Y-48321119D01*
X104108144Y-48328561D01*
X104081350Y-48416888D01*
X104070209Y-48530000D01*
X104081350Y-48643112D01*
X104114343Y-48751876D01*
X104167921Y-48852115D01*
X104240026Y-48939974D01*
X104327885Y-49012079D01*
X104428124Y-49065657D01*
X104536888Y-49098650D01*
X104621664Y-49107000D01*
X104978336Y-49107000D01*
X105063112Y-49098650D01*
X105171876Y-49065657D01*
X105272115Y-49012079D01*
X105359974Y-48939974D01*
X105432079Y-48852115D01*
X105485657Y-48751876D01*
X105518650Y-48643112D01*
X105529791Y-48530000D01*
X105522190Y-48452827D01*
X105543170Y-48457000D01*
X105656830Y-48457000D01*
X105768305Y-48434826D01*
X105873312Y-48391331D01*
X105967816Y-48328185D01*
X106048185Y-48247816D01*
X106111331Y-48153312D01*
X106154826Y-48048305D01*
X106177000Y-47936830D01*
X106177000Y-47823170D01*
X106159765Y-47736525D01*
X106168305Y-47734826D01*
X106273312Y-47691331D01*
X106367816Y-47628185D01*
X106400000Y-47596001D01*
X106432184Y-47628185D01*
X106526688Y-47691331D01*
X106631695Y-47734826D01*
X106743170Y-47757000D01*
X106856830Y-47757000D01*
X106968305Y-47734826D01*
X107073312Y-47691331D01*
X107167816Y-47628185D01*
X107200000Y-47596001D01*
X107232184Y-47628185D01*
X107326688Y-47691331D01*
X107431695Y-47734826D01*
X107440235Y-47736525D01*
X107423000Y-47823170D01*
X107423000Y-47936830D01*
X107445174Y-48048305D01*
X107488669Y-48153312D01*
X107551815Y-48247816D01*
X107632184Y-48328185D01*
X107726688Y-48391331D01*
X107831695Y-48434826D01*
X107943170Y-48457000D01*
X108056830Y-48457000D01*
X108168305Y-48434826D01*
X108273312Y-48391331D01*
X108367816Y-48328185D01*
X108400000Y-48296001D01*
X108432184Y-48328185D01*
X108526688Y-48391331D01*
X108631695Y-48434826D01*
X108743170Y-48457000D01*
X108856830Y-48457000D01*
X108968305Y-48434826D01*
X109073312Y-48391331D01*
X109167816Y-48328185D01*
X109248185Y-48247816D01*
X109311331Y-48153312D01*
X109354826Y-48048305D01*
X109377000Y-47936830D01*
X109377000Y-47823170D01*
X109359765Y-47736525D01*
X109368305Y-47734826D01*
X109473312Y-47691331D01*
X109567816Y-47628185D01*
X109600000Y-47596001D01*
X109632184Y-47628185D01*
X109726688Y-47691331D01*
X109831695Y-47734826D01*
X109943170Y-47757000D01*
X110056830Y-47757000D01*
X110168305Y-47734826D01*
X110273312Y-47691331D01*
X110367816Y-47628185D01*
X110400000Y-47596001D01*
X110432184Y-47628185D01*
X110526688Y-47691331D01*
X110631695Y-47734826D01*
X110640235Y-47736525D01*
X110623000Y-47823170D01*
X110623000Y-47936830D01*
X110645174Y-48048305D01*
X110688669Y-48153312D01*
X110751815Y-48247816D01*
X110832184Y-48328185D01*
X110926688Y-48391331D01*
X111031695Y-48434826D01*
X111143170Y-48457000D01*
X111256830Y-48457000D01*
X111368305Y-48434826D01*
X111436223Y-48406694D01*
X111423000Y-48473170D01*
X111423000Y-48586830D01*
X111445174Y-48698305D01*
X111488669Y-48803312D01*
X111551815Y-48897816D01*
X111632184Y-48978185D01*
X111726688Y-49041331D01*
X111831695Y-49084826D01*
X111943170Y-49107000D01*
X112056830Y-49107000D01*
X112168305Y-49084826D01*
X112273312Y-49041331D01*
X112367816Y-48978185D01*
X112448185Y-48897816D01*
X112511331Y-48803312D01*
X112554826Y-48698305D01*
X112577000Y-48586830D01*
X112577000Y-48473170D01*
X112554826Y-48361695D01*
X112540802Y-48327838D01*
X112620000Y-48335638D01*
X112767417Y-48321119D01*
X112909169Y-48278118D01*
X113039809Y-48208290D01*
X113154317Y-48114317D01*
X113248290Y-47999810D01*
X113318118Y-47869170D01*
X113361119Y-47727418D01*
X113372000Y-47616938D01*
X113372000Y-46943062D01*
X113361119Y-46832582D01*
X113318118Y-46690830D01*
X113248290Y-46560190D01*
X113154317Y-46445683D01*
X113039810Y-46351710D01*
X112909170Y-46281882D01*
X112767418Y-46238881D01*
X112620000Y-46224362D01*
X112472583Y-46238881D01*
X112330831Y-46281882D01*
X112200191Y-46351710D01*
X112085684Y-46445683D01*
X111991711Y-46560190D01*
X111921882Y-46690830D01*
X111878881Y-46832582D01*
X111868000Y-46943062D01*
X111868000Y-47616937D01*
X111878881Y-47727417D01*
X111921882Y-47869169D01*
X111966690Y-47953000D01*
X111943170Y-47953000D01*
X111831695Y-47975174D01*
X111763777Y-48003306D01*
X111777000Y-47936830D01*
X111777000Y-47823170D01*
X111754826Y-47711695D01*
X111711331Y-47606688D01*
X111648185Y-47512184D01*
X111567816Y-47431815D01*
X111473312Y-47368669D01*
X111368305Y-47325174D01*
X111359765Y-47323475D01*
X111377000Y-47236830D01*
X111377000Y-47123170D01*
X111354826Y-47011695D01*
X111311331Y-46906688D01*
X111248185Y-46812184D01*
X111167816Y-46731815D01*
X111073312Y-46668669D01*
X110968305Y-46625174D01*
X110856830Y-46603000D01*
X110743170Y-46603000D01*
X110631695Y-46625174D01*
X110526688Y-46668669D01*
X110432184Y-46731815D01*
X110400000Y-46763999D01*
X110367816Y-46731815D01*
X110273312Y-46668669D01*
X110168305Y-46625174D01*
X110056830Y-46603000D01*
X109943170Y-46603000D01*
X109831695Y-46625174D01*
X109726688Y-46668669D01*
X109632184Y-46731815D01*
X109600000Y-46763999D01*
X109567816Y-46731815D01*
X109473312Y-46668669D01*
X109368305Y-46625174D01*
X109256830Y-46603000D01*
X109143170Y-46603000D01*
X109031695Y-46625174D01*
X108926688Y-46668669D01*
X108832184Y-46731815D01*
X108751815Y-46812184D01*
X108688669Y-46906688D01*
X108645174Y-47011695D01*
X108623000Y-47123170D01*
X108623000Y-47236830D01*
X108640235Y-47323475D01*
X108631695Y-47325174D01*
X108526688Y-47368669D01*
X108432184Y-47431815D01*
X108400000Y-47463999D01*
X108367816Y-47431815D01*
X108273312Y-47368669D01*
X108168305Y-47325174D01*
X108159765Y-47323475D01*
X108177000Y-47236830D01*
X108177000Y-47123170D01*
X108154826Y-47011695D01*
X108111331Y-46906688D01*
X108048185Y-46812184D01*
X107967816Y-46731815D01*
X107873312Y-46668669D01*
X107768305Y-46625174D01*
X107656830Y-46603000D01*
X107543170Y-46603000D01*
X107431695Y-46625174D01*
X107326688Y-46668669D01*
X107232184Y-46731815D01*
X107200000Y-46763999D01*
X107167816Y-46731815D01*
X107073312Y-46668669D01*
X106968305Y-46625174D01*
X106856830Y-46603000D01*
X106743170Y-46603000D01*
X106631695Y-46625174D01*
X106526688Y-46668669D01*
X106432184Y-46731815D01*
X106400000Y-46763999D01*
X106367816Y-46731815D01*
X106273312Y-46668669D01*
X106168305Y-46625174D01*
X106056830Y-46603000D01*
X105943170Y-46603000D01*
X105831695Y-46625174D01*
X105726688Y-46668669D01*
X105632184Y-46731815D01*
X105551815Y-46812184D01*
X105488669Y-46906688D01*
X105445174Y-47011695D01*
X105423000Y-47123170D01*
X105423000Y-47236830D01*
X105440235Y-47323475D01*
X105431695Y-47325174D01*
X105326688Y-47368669D01*
X105232184Y-47431815D01*
X105151815Y-47512184D01*
X105088669Y-47606688D01*
X105045174Y-47711695D01*
X105023000Y-47823170D01*
X105023000Y-47936830D01*
X105027173Y-47957810D01*
X104978336Y-47953000D01*
X104833310Y-47953000D01*
X104878118Y-47869170D01*
X104921119Y-47727418D01*
X104932000Y-47616938D01*
X104932000Y-46943062D01*
X104921119Y-46832582D01*
X104878118Y-46690830D01*
X104808290Y-46560190D01*
X104714317Y-46445683D01*
X104599810Y-46351710D01*
X104469170Y-46281882D01*
X104327418Y-46238881D01*
X104180000Y-46224362D01*
X104032583Y-46238881D01*
X103890831Y-46281882D01*
X103760191Y-46351710D01*
X103645684Y-46445683D01*
X103551711Y-46560190D01*
X103481882Y-46690830D01*
X103438881Y-46832582D01*
X103428000Y-46943062D01*
X99872000Y-46943062D01*
X99861119Y-46832582D01*
X99818118Y-46690830D01*
X99748290Y-46560190D01*
X99654317Y-46445683D01*
X99539810Y-46351710D01*
X99409170Y-46281882D01*
X99267418Y-46238881D01*
X99120000Y-46224362D01*
X98972583Y-46238881D01*
X98830831Y-46281882D01*
X98700191Y-46351710D01*
X98585684Y-46445683D01*
X98491711Y-46560190D01*
X98421882Y-46690830D01*
X98378881Y-46832582D01*
X98368000Y-46943062D01*
X98368000Y-47616937D01*
X98378881Y-47727417D01*
X98421882Y-47869169D01*
X98466690Y-47953000D01*
X98443170Y-47953000D01*
X98331695Y-47975174D01*
X98263777Y-48003306D01*
X98277000Y-47936830D01*
X98277000Y-47823170D01*
X98254826Y-47711695D01*
X98211331Y-47606688D01*
X98148185Y-47512184D01*
X98067816Y-47431815D01*
X97973312Y-47368669D01*
X97868305Y-47325174D01*
X97859765Y-47323475D01*
X97877000Y-47236830D01*
X97877000Y-47123170D01*
X97854826Y-47011695D01*
X97811331Y-46906688D01*
X97748185Y-46812184D01*
X97667816Y-46731815D01*
X97573312Y-46668669D01*
X97468305Y-46625174D01*
X97356830Y-46603000D01*
X97243170Y-46603000D01*
X97131695Y-46625174D01*
X97026688Y-46668669D01*
X96932184Y-46731815D01*
X96900000Y-46763999D01*
X96867816Y-46731815D01*
X96773312Y-46668669D01*
X96668305Y-46625174D01*
X96556830Y-46603000D01*
X96443170Y-46603000D01*
X96331695Y-46625174D01*
X96226688Y-46668669D01*
X96132184Y-46731815D01*
X96100000Y-46763999D01*
X96067816Y-46731815D01*
X95973312Y-46668669D01*
X95868305Y-46625174D01*
X95756830Y-46603000D01*
X95643170Y-46603000D01*
X95531695Y-46625174D01*
X95426688Y-46668669D01*
X95332184Y-46731815D01*
X95251815Y-46812184D01*
X95188669Y-46906688D01*
X95145174Y-47011695D01*
X95123000Y-47123170D01*
X95123000Y-47236830D01*
X95140235Y-47323475D01*
X95131695Y-47325174D01*
X95026688Y-47368669D01*
X94932184Y-47431815D01*
X94900000Y-47463999D01*
X94867816Y-47431815D01*
X94773312Y-47368669D01*
X94668305Y-47325174D01*
X94659765Y-47323475D01*
X94677000Y-47236830D01*
X94677000Y-47123170D01*
X94654826Y-47011695D01*
X94611331Y-46906688D01*
X94548185Y-46812184D01*
X94467816Y-46731815D01*
X94373312Y-46668669D01*
X94268305Y-46625174D01*
X94156830Y-46603000D01*
X94043170Y-46603000D01*
X93931695Y-46625174D01*
X93826688Y-46668669D01*
X93732184Y-46731815D01*
X93700000Y-46763999D01*
X93667816Y-46731815D01*
X93573312Y-46668669D01*
X93468305Y-46625174D01*
X93356830Y-46603000D01*
X93243170Y-46603000D01*
X93131695Y-46625174D01*
X93026688Y-46668669D01*
X92932184Y-46731815D01*
X92900000Y-46763999D01*
X92867816Y-46731815D01*
X92773312Y-46668669D01*
X92668305Y-46625174D01*
X92556830Y-46603000D01*
X92443170Y-46603000D01*
X92331695Y-46625174D01*
X92226688Y-46668669D01*
X92132184Y-46731815D01*
X92051815Y-46812184D01*
X91988669Y-46906688D01*
X91945174Y-47011695D01*
X91923000Y-47123170D01*
X91923000Y-47236830D01*
X91940235Y-47323475D01*
X91931695Y-47325174D01*
X91826688Y-47368669D01*
X91732184Y-47431815D01*
X91651815Y-47512184D01*
X91588669Y-47606688D01*
X91545174Y-47711695D01*
X91523000Y-47823170D01*
X91523000Y-47936830D01*
X91527173Y-47957810D01*
X91478336Y-47953000D01*
X91333310Y-47953000D01*
X91378118Y-47869170D01*
X91421119Y-47727418D01*
X91432000Y-47616938D01*
X91432000Y-46943062D01*
X91421119Y-46832582D01*
X91378118Y-46690830D01*
X91308290Y-46560190D01*
X91214317Y-46445683D01*
X91099810Y-46351710D01*
X90969170Y-46281882D01*
X90827418Y-46238881D01*
X90680000Y-46224362D01*
X90532583Y-46238881D01*
X90390831Y-46281882D01*
X90260191Y-46351710D01*
X90145684Y-46445683D01*
X90051711Y-46560190D01*
X89981882Y-46690830D01*
X89938881Y-46832582D01*
X89928000Y-46943062D01*
X86372000Y-46943062D01*
X86361119Y-46832582D01*
X86318118Y-46690830D01*
X86248290Y-46560190D01*
X86154317Y-46445683D01*
X86039810Y-46351710D01*
X85909170Y-46281882D01*
X85767418Y-46238881D01*
X85620000Y-46224362D01*
X85472583Y-46238881D01*
X85330831Y-46281882D01*
X85200191Y-46351710D01*
X85085684Y-46445683D01*
X84991711Y-46560190D01*
X84921882Y-46690830D01*
X84878881Y-46832582D01*
X84868000Y-46943062D01*
X84868000Y-47616937D01*
X84878881Y-47727417D01*
X84921882Y-47869169D01*
X84966690Y-47953000D01*
X84943170Y-47953000D01*
X84831695Y-47975174D01*
X84763777Y-48003306D01*
X84777000Y-47936830D01*
X84777000Y-47823170D01*
X84754826Y-47711695D01*
X84711331Y-47606688D01*
X84648185Y-47512184D01*
X84567816Y-47431815D01*
X84473312Y-47368669D01*
X84368305Y-47325174D01*
X84359765Y-47323475D01*
X84377000Y-47236830D01*
X84377000Y-47123170D01*
X84354826Y-47011695D01*
X84311331Y-46906688D01*
X84248185Y-46812184D01*
X84167816Y-46731815D01*
X84073312Y-46668669D01*
X83968305Y-46625174D01*
X83856830Y-46603000D01*
X83743170Y-46603000D01*
X83631695Y-46625174D01*
X83526688Y-46668669D01*
X83432184Y-46731815D01*
X83400000Y-46763999D01*
X83367816Y-46731815D01*
X83273312Y-46668669D01*
X83168305Y-46625174D01*
X83056830Y-46603000D01*
X82943170Y-46603000D01*
X82831695Y-46625174D01*
X82726688Y-46668669D01*
X82632184Y-46731815D01*
X82600000Y-46763999D01*
X82567816Y-46731815D01*
X82473312Y-46668669D01*
X82368305Y-46625174D01*
X82256830Y-46603000D01*
X82143170Y-46603000D01*
X82031695Y-46625174D01*
X81926688Y-46668669D01*
X81832184Y-46731815D01*
X81751815Y-46812184D01*
X81688669Y-46906688D01*
X81645174Y-47011695D01*
X81623000Y-47123170D01*
X81623000Y-47236830D01*
X81640235Y-47323475D01*
X81631695Y-47325174D01*
X81526688Y-47368669D01*
X81432184Y-47431815D01*
X81400000Y-47463999D01*
X81367816Y-47431815D01*
X81273312Y-47368669D01*
X81168305Y-47325174D01*
X81159765Y-47323475D01*
X81177000Y-47236830D01*
X81177000Y-47123170D01*
X81154826Y-47011695D01*
X81111331Y-46906688D01*
X81048185Y-46812184D01*
X80967816Y-46731815D01*
X80873312Y-46668669D01*
X80768305Y-46625174D01*
X80656830Y-46603000D01*
X80543170Y-46603000D01*
X80431695Y-46625174D01*
X80326688Y-46668669D01*
X80232184Y-46731815D01*
X80200000Y-46763999D01*
X80167816Y-46731815D01*
X80073312Y-46668669D01*
X79968305Y-46625174D01*
X79856830Y-46603000D01*
X79743170Y-46603000D01*
X79631695Y-46625174D01*
X79526688Y-46668669D01*
X79432184Y-46731815D01*
X79400000Y-46763999D01*
X79367816Y-46731815D01*
X79273312Y-46668669D01*
X79168305Y-46625174D01*
X79056830Y-46603000D01*
X78943170Y-46603000D01*
X78831695Y-46625174D01*
X78726688Y-46668669D01*
X78632184Y-46731815D01*
X78551815Y-46812184D01*
X78488669Y-46906688D01*
X78445174Y-47011695D01*
X78423000Y-47123170D01*
X78423000Y-47236830D01*
X78440235Y-47323475D01*
X78431695Y-47325174D01*
X78326688Y-47368669D01*
X78232184Y-47431815D01*
X78151815Y-47512184D01*
X78088669Y-47606688D01*
X78045174Y-47711695D01*
X78023000Y-47823170D01*
X78023000Y-47936830D01*
X78027173Y-47957810D01*
X77978336Y-47953000D01*
X77833310Y-47953000D01*
X77878118Y-47869170D01*
X77921119Y-47727418D01*
X77932000Y-47616938D01*
X77932000Y-46943062D01*
X77921119Y-46832582D01*
X77878118Y-46690830D01*
X77808290Y-46560190D01*
X77714317Y-46445683D01*
X77599810Y-46351710D01*
X77469170Y-46281882D01*
X77327418Y-46238881D01*
X77180000Y-46224362D01*
X77032583Y-46238881D01*
X76890831Y-46281882D01*
X76760191Y-46351710D01*
X76645684Y-46445683D01*
X76551711Y-46560190D01*
X76481882Y-46690830D01*
X76438881Y-46832582D01*
X76428000Y-46943062D01*
X76127000Y-46943062D01*
X76127000Y-45299479D01*
X76198000Y-45299479D01*
X76208158Y-45402615D01*
X76248299Y-45534942D01*
X76313485Y-45656896D01*
X76401210Y-45763789D01*
X76508103Y-45851515D01*
X76630057Y-45916701D01*
X76762384Y-45956842D01*
X76900000Y-45970396D01*
X77037615Y-45956842D01*
X77169942Y-45916701D01*
X77291896Y-45851515D01*
X77398789Y-45763790D01*
X77486515Y-45656897D01*
X77551701Y-45534943D01*
X77591842Y-45402616D01*
X77602000Y-45299480D01*
X77602000Y-45299479D01*
X85198000Y-45299479D01*
X85208158Y-45402615D01*
X85248299Y-45534942D01*
X85313485Y-45656896D01*
X85401210Y-45763789D01*
X85508103Y-45851515D01*
X85630057Y-45916701D01*
X85762384Y-45956842D01*
X85900000Y-45970396D01*
X86037615Y-45956842D01*
X86169942Y-45916701D01*
X86291896Y-45851515D01*
X86398789Y-45763790D01*
X86486515Y-45656897D01*
X86551701Y-45534943D01*
X86591842Y-45402616D01*
X86602000Y-45299480D01*
X86602000Y-45299479D01*
X89698000Y-45299479D01*
X89708158Y-45402615D01*
X89748299Y-45534942D01*
X89813485Y-45656896D01*
X89901210Y-45763789D01*
X90008103Y-45851515D01*
X90130057Y-45916701D01*
X90262384Y-45956842D01*
X90400000Y-45970396D01*
X90537615Y-45956842D01*
X90669942Y-45916701D01*
X90791896Y-45851515D01*
X90898789Y-45763790D01*
X90986515Y-45656897D01*
X91051701Y-45534943D01*
X91091842Y-45402616D01*
X91102000Y-45299480D01*
X91102000Y-45299479D01*
X98698000Y-45299479D01*
X98708158Y-45402615D01*
X98748299Y-45534942D01*
X98813485Y-45656896D01*
X98901210Y-45763789D01*
X99008103Y-45851515D01*
X99130057Y-45916701D01*
X99262384Y-45956842D01*
X99400000Y-45970396D01*
X99537615Y-45956842D01*
X99669942Y-45916701D01*
X99791896Y-45851515D01*
X99898789Y-45763790D01*
X99986515Y-45656897D01*
X100051701Y-45534943D01*
X100091842Y-45402616D01*
X100102000Y-45299480D01*
X100102000Y-45299479D01*
X103198000Y-45299479D01*
X103208158Y-45402615D01*
X103248299Y-45534942D01*
X103313485Y-45656896D01*
X103401210Y-45763789D01*
X103508103Y-45851515D01*
X103630057Y-45916701D01*
X103762384Y-45956842D01*
X103900000Y-45970396D01*
X104037615Y-45956842D01*
X104169942Y-45916701D01*
X104291896Y-45851515D01*
X104398789Y-45763790D01*
X104486515Y-45656897D01*
X104551701Y-45534943D01*
X104591842Y-45402616D01*
X104602000Y-45299480D01*
X104602000Y-45299479D01*
X112198000Y-45299479D01*
X112208158Y-45402615D01*
X112248299Y-45534942D01*
X112313485Y-45656896D01*
X112401210Y-45763789D01*
X112508103Y-45851515D01*
X112630057Y-45916701D01*
X112762384Y-45956842D01*
X112900000Y-45970396D01*
X113037615Y-45956842D01*
X113169942Y-45916701D01*
X113291896Y-45851515D01*
X113398789Y-45763790D01*
X113486515Y-45656897D01*
X113551701Y-45534943D01*
X113591842Y-45402616D01*
X113602000Y-45299480D01*
X113602000Y-44230520D01*
X113591842Y-44127384D01*
X113551701Y-43995057D01*
X113486515Y-43873103D01*
X113398790Y-43766210D01*
X113291897Y-43678485D01*
X113169943Y-43613299D01*
X113037616Y-43573158D01*
X112900000Y-43559604D01*
X112762385Y-43573158D01*
X112630058Y-43613299D01*
X112508104Y-43678485D01*
X112401211Y-43766210D01*
X112313486Y-43873103D01*
X112248300Y-43995057D01*
X112208159Y-44127384D01*
X112198001Y-44230520D01*
X112198000Y-45299479D01*
X104602000Y-45299479D01*
X104602000Y-44230520D01*
X104591842Y-44127384D01*
X104551701Y-43995057D01*
X104486515Y-43873103D01*
X104398790Y-43766210D01*
X104291897Y-43678485D01*
X104169943Y-43613299D01*
X104037616Y-43573158D01*
X103900000Y-43559604D01*
X103762385Y-43573158D01*
X103630058Y-43613299D01*
X103508104Y-43678485D01*
X103401211Y-43766210D01*
X103313486Y-43873103D01*
X103248300Y-43995057D01*
X103208159Y-44127384D01*
X103198001Y-44230520D01*
X103198000Y-45299479D01*
X100102000Y-45299479D01*
X100102000Y-44230520D01*
X100091842Y-44127384D01*
X100051701Y-43995057D01*
X99986515Y-43873103D01*
X99898790Y-43766210D01*
X99791897Y-43678485D01*
X99669943Y-43613299D01*
X99537616Y-43573158D01*
X99400000Y-43559604D01*
X99262385Y-43573158D01*
X99130058Y-43613299D01*
X99008104Y-43678485D01*
X98901211Y-43766210D01*
X98813486Y-43873103D01*
X98748300Y-43995057D01*
X98708159Y-44127384D01*
X98698001Y-44230520D01*
X98698000Y-45299479D01*
X91102000Y-45299479D01*
X91102000Y-44230520D01*
X91091842Y-44127384D01*
X91051701Y-43995057D01*
X90986515Y-43873103D01*
X90898790Y-43766210D01*
X90791897Y-43678485D01*
X90669943Y-43613299D01*
X90537616Y-43573158D01*
X90400000Y-43559604D01*
X90262385Y-43573158D01*
X90130058Y-43613299D01*
X90008104Y-43678485D01*
X89901211Y-43766210D01*
X89813486Y-43873103D01*
X89748300Y-43995057D01*
X89708159Y-44127384D01*
X89698001Y-44230520D01*
X89698000Y-45299479D01*
X86602000Y-45299479D01*
X86602000Y-44230520D01*
X86591842Y-44127384D01*
X86551701Y-43995057D01*
X86486515Y-43873103D01*
X86398790Y-43766210D01*
X86291897Y-43678485D01*
X86169943Y-43613299D01*
X86037616Y-43573158D01*
X85900000Y-43559604D01*
X85762385Y-43573158D01*
X85630058Y-43613299D01*
X85508104Y-43678485D01*
X85401211Y-43766210D01*
X85313486Y-43873103D01*
X85248300Y-43995057D01*
X85208159Y-44127384D01*
X85198001Y-44230520D01*
X85198000Y-45299479D01*
X77602000Y-45299479D01*
X77602000Y-44230520D01*
X77591842Y-44127384D01*
X77551701Y-43995057D01*
X77486515Y-43873103D01*
X77398790Y-43766210D01*
X77291897Y-43678485D01*
X77169943Y-43613299D01*
X77037616Y-43573158D01*
X76900000Y-43559604D01*
X76762385Y-43573158D01*
X76630058Y-43613299D01*
X76508104Y-43678485D01*
X76401211Y-43766210D01*
X76313486Y-43873103D01*
X76248300Y-43995057D01*
X76208159Y-44127384D01*
X76198001Y-44230520D01*
X76198000Y-45299479D01*
X76127000Y-45299479D01*
X76127000Y-42927000D01*
X114573772Y-42927000D01*
X114604794Y-48014560D01*
G37*
%TD.AperFunction*%
%TD*%
D28*
%TO.N,3V3_CAM*%
X175073000Y-111473000D02*
X174852606Y-111473000D01*
X174127000Y-110747394D01*
X174127000Y-108452606D01*
X174852606Y-107727000D01*
X175073000Y-107727000D01*
X175073000Y-111473000D01*
%TA.AperFunction,Conductor*%
D29*
G36*
X175073000Y-111473000D02*
G01*
X174852606Y-111473000D01*
X174127000Y-110747394D01*
X174127000Y-108452606D01*
X174852606Y-107727000D01*
X175073000Y-107727000D01*
X175073000Y-111473000D01*
G37*
%TD.AperFunction*%
%TD*%
D28*
%TO.N,3V3_CAM*%
X116573000Y-115273701D02*
X116573000Y-116332032D01*
X116361548Y-116473000D01*
X114452606Y-116473000D01*
X114327000Y-116347394D01*
X114327000Y-115252606D01*
X114452606Y-115127000D01*
X116316273Y-115127000D01*
X116573000Y-115273701D01*
%TA.AperFunction,Conductor*%
D29*
G36*
X116573000Y-115273701D02*
G01*
X116573000Y-116332032D01*
X116361548Y-116473000D01*
X114452606Y-116473000D01*
X114327000Y-116347394D01*
X114327000Y-115252606D01*
X114452606Y-115127000D01*
X116316273Y-115127000D01*
X116573000Y-115273701D01*
G37*
%TD.AperFunction*%
%TD*%
D28*
%TO.N,GND*%
X98645077Y-64724683D02*
X98623000Y-64835670D01*
X98623000Y-64949330D01*
X98645174Y-65060805D01*
X98688669Y-65165812D01*
X98751815Y-65260316D01*
X98832184Y-65340685D01*
X98926688Y-65403831D01*
X99031695Y-65447326D01*
X99143170Y-65469500D01*
X99256830Y-65469500D01*
X99367817Y-65447423D01*
X99585107Y-65664713D01*
X99588669Y-65673312D01*
X99651815Y-65767816D01*
X99732184Y-65848185D01*
X99826688Y-65911331D01*
X99835287Y-65914893D01*
X100507865Y-66587471D01*
X100456688Y-66608669D01*
X100362184Y-66671815D01*
X100281815Y-66752184D01*
X100218669Y-66846688D01*
X100175174Y-66951695D01*
X100153000Y-67063170D01*
X100153000Y-67176830D01*
X100175174Y-67288305D01*
X100218669Y-67393312D01*
X100281815Y-67487816D01*
X100362184Y-67568185D01*
X100394333Y-67589666D01*
X100351815Y-67632184D01*
X100288669Y-67726688D01*
X100245174Y-67831695D01*
X100223000Y-67943170D01*
X100223000Y-68056830D01*
X100245174Y-68168305D01*
X100288669Y-68273312D01*
X100351815Y-68367816D01*
X100432184Y-68448185D01*
X100526688Y-68511331D01*
X100631695Y-68554826D01*
X100743170Y-68577000D01*
X100856830Y-68577000D01*
X100968305Y-68554826D01*
X101073312Y-68511331D01*
X101167816Y-68448185D01*
X101206250Y-68409751D01*
X101244684Y-68448185D01*
X101339188Y-68511331D01*
X101444195Y-68554826D01*
X101555670Y-68577000D01*
X101669330Y-68577000D01*
X101780805Y-68554826D01*
X101885812Y-68511331D01*
X101980316Y-68448185D01*
X102060685Y-68367816D01*
X102123831Y-68273312D01*
X102167326Y-68168305D01*
X102175542Y-68127000D01*
X102271866Y-68127000D01*
X102238665Y-68176688D01*
X102195170Y-68281695D01*
X102172996Y-68393170D01*
X102172996Y-68506830D01*
X102187366Y-68579074D01*
X102156830Y-68573000D01*
X102043170Y-68573000D01*
X101931695Y-68595174D01*
X101826688Y-68638669D01*
X101732184Y-68701815D01*
X101651815Y-68782184D01*
X101588669Y-68876688D01*
X101545174Y-68981695D01*
X101523000Y-69093170D01*
X101523000Y-69206830D01*
X101545174Y-69318305D01*
X101588669Y-69423312D01*
X101651815Y-69517816D01*
X101732184Y-69598185D01*
X101826688Y-69661331D01*
X101931695Y-69704826D01*
X102043170Y-69727000D01*
X102156830Y-69727000D01*
X102268305Y-69704826D01*
X102373312Y-69661331D01*
X102467816Y-69598185D01*
X102548185Y-69517816D01*
X102600000Y-69440270D01*
X102651815Y-69517816D01*
X102732184Y-69598185D01*
X102826688Y-69661331D01*
X102931695Y-69704826D01*
X103043170Y-69727000D01*
X103156830Y-69727000D01*
X103268305Y-69704826D01*
X103373312Y-69661331D01*
X103467816Y-69598185D01*
X103548185Y-69517816D01*
X103611331Y-69423312D01*
X103654826Y-69318305D01*
X103677000Y-69206830D01*
X103677000Y-69093170D01*
X103654826Y-68981695D01*
X103611331Y-68876688D01*
X103548185Y-68782184D01*
X103467816Y-68701815D01*
X103373312Y-68638669D01*
X103306293Y-68610909D01*
X103326996Y-68506830D01*
X103326996Y-68393170D01*
X103304822Y-68281695D01*
X103261327Y-68176688D01*
X103228126Y-68127000D01*
X103712718Y-68127000D01*
X103766419Y-68137682D01*
X103839083Y-68137682D01*
X103845174Y-68168305D01*
X103888669Y-68273312D01*
X103951815Y-68367816D01*
X104032184Y-68448185D01*
X104126688Y-68511331D01*
X104202385Y-68542685D01*
X104188847Y-68575368D01*
X104166673Y-68686843D01*
X104166673Y-68800503D01*
X104188847Y-68911978D01*
X104232342Y-69016985D01*
X104295488Y-69111489D01*
X104375857Y-69191858D01*
X104470361Y-69255004D01*
X104575368Y-69298499D01*
X104680574Y-69319426D01*
X104701501Y-69424632D01*
X104744996Y-69529639D01*
X104808142Y-69624143D01*
X104888511Y-69704512D01*
X104983015Y-69767658D01*
X105088022Y-69811153D01*
X105199497Y-69833327D01*
X105313157Y-69833327D01*
X105424632Y-69811153D01*
X105529639Y-69767658D01*
X105624143Y-69704512D01*
X105704512Y-69624143D01*
X105767658Y-69529639D01*
X105811153Y-69424632D01*
X105833327Y-69313157D01*
X105833327Y-69199497D01*
X105811153Y-69088022D01*
X105767658Y-68983015D01*
X105704512Y-68888511D01*
X105624143Y-68808142D01*
X105529639Y-68744996D01*
X105424632Y-68701501D01*
X105319426Y-68680574D01*
X105298499Y-68575368D01*
X105255004Y-68470361D01*
X105191858Y-68375857D01*
X105111489Y-68295488D01*
X105016985Y-68232342D01*
X104941288Y-68200988D01*
X104954826Y-68168305D01*
X104963042Y-68127000D01*
X105447394Y-68127000D01*
X106373000Y-69052606D01*
X106373000Y-69947394D01*
X100759894Y-75560500D01*
X100066668Y-75560500D01*
X100049999Y-75558858D01*
X100033330Y-75560500D01*
X100033329Y-75560500D01*
X99983446Y-75565413D01*
X99919451Y-75584826D01*
X99860472Y-75616351D01*
X99808776Y-75658776D01*
X99798146Y-75671729D01*
X98271731Y-77198145D01*
X98258776Y-77208777D01*
X98216351Y-77260473D01*
X98184826Y-77319452D01*
X98165413Y-77383447D01*
X98160500Y-77433329D01*
X98158858Y-77450000D01*
X98160500Y-77466669D01*
X98160501Y-81883321D01*
X98158858Y-81900000D01*
X98164859Y-81960921D01*
X98165414Y-81966554D01*
X98184827Y-82030549D01*
X98216352Y-82089528D01*
X98258777Y-82141224D01*
X98271730Y-82151854D01*
X98829644Y-82709769D01*
X98823000Y-82743170D01*
X98823000Y-82856830D01*
X98845174Y-82968305D01*
X98888669Y-83073312D01*
X98951815Y-83167816D01*
X99032184Y-83248185D01*
X99126688Y-83311331D01*
X99231695Y-83354826D01*
X99343170Y-83377000D01*
X99373000Y-83377000D01*
X99373000Y-83673000D01*
X99343170Y-83673000D01*
X99231695Y-83695174D01*
X99126688Y-83738669D01*
X99032184Y-83801815D01*
X98951815Y-83882184D01*
X98888669Y-83976688D01*
X98845174Y-84081695D01*
X98823000Y-84193170D01*
X98823000Y-84306830D01*
X98845174Y-84418305D01*
X98888669Y-84523312D01*
X98951815Y-84617816D01*
X99032184Y-84698185D01*
X99126688Y-84761331D01*
X99231695Y-84804826D01*
X99343170Y-84827000D01*
X99373000Y-84827000D01*
X99373000Y-85223000D01*
X99268182Y-85223000D01*
X99156707Y-85245174D01*
X99051700Y-85288669D01*
X98957196Y-85351815D01*
X98876827Y-85432184D01*
X98813681Y-85526688D01*
X98770186Y-85631695D01*
X98748012Y-85743170D01*
X98748012Y-85856830D01*
X98770186Y-85968305D01*
X98813681Y-86073312D01*
X98876827Y-86167816D01*
X98957196Y-86248185D01*
X99051700Y-86311331D01*
X99156707Y-86354826D01*
X99268182Y-86377000D01*
X99373000Y-86377000D01*
X99373000Y-99500000D01*
X99375440Y-99524776D01*
X99382667Y-99548601D01*
X99394403Y-99570557D01*
X99410197Y-99589803D01*
X101773000Y-101952606D01*
X101773000Y-105547394D01*
X100947394Y-106373000D01*
X97552606Y-106373000D01*
X95766449Y-104586843D01*
X99266673Y-104586843D01*
X99266673Y-104700503D01*
X99288847Y-104811978D01*
X99332342Y-104916985D01*
X99395488Y-105011489D01*
X99475857Y-105091858D01*
X99570361Y-105155004D01*
X99675368Y-105198499D01*
X99780574Y-105219426D01*
X99801501Y-105324632D01*
X99844996Y-105429639D01*
X99908142Y-105524143D01*
X99988511Y-105604512D01*
X100083015Y-105667658D01*
X100188022Y-105711153D01*
X100299497Y-105733327D01*
X100413157Y-105733327D01*
X100524632Y-105711153D01*
X100629639Y-105667658D01*
X100724143Y-105604512D01*
X100804512Y-105524143D01*
X100867658Y-105429639D01*
X100911153Y-105324632D01*
X100933327Y-105213157D01*
X100933327Y-105099497D01*
X100911153Y-104988022D01*
X100867658Y-104883015D01*
X100804512Y-104788511D01*
X100724143Y-104708142D01*
X100629639Y-104644996D01*
X100524632Y-104601501D01*
X100419426Y-104580574D01*
X100398499Y-104475368D01*
X100355004Y-104370361D01*
X100291858Y-104275857D01*
X100211489Y-104195488D01*
X100116985Y-104132342D01*
X100011978Y-104088847D01*
X99900503Y-104066673D01*
X99786843Y-104066673D01*
X99675368Y-104088847D01*
X99570361Y-104132342D01*
X99475857Y-104195488D01*
X99395488Y-104275857D01*
X99332342Y-104370361D01*
X99288847Y-104475368D01*
X99266673Y-104586843D01*
X95766449Y-104586843D01*
X93922776Y-102743170D01*
X99223000Y-102743170D01*
X99223000Y-102856830D01*
X99245174Y-102968305D01*
X99288669Y-103073312D01*
X99351815Y-103167816D01*
X99432184Y-103248185D01*
X99526688Y-103311331D01*
X99631695Y-103354826D01*
X99743170Y-103377000D01*
X99856830Y-103377000D01*
X99968305Y-103354826D01*
X100073312Y-103311331D01*
X100167816Y-103248185D01*
X100248185Y-103167816D01*
X100311331Y-103073312D01*
X100354826Y-102968305D01*
X100377000Y-102856830D01*
X100377000Y-102743170D01*
X100354826Y-102631695D01*
X100311331Y-102526688D01*
X100248185Y-102432184D01*
X100167816Y-102351815D01*
X100073312Y-102288669D01*
X99968305Y-102245174D01*
X99856830Y-102223000D01*
X99743170Y-102223000D01*
X99631695Y-102245174D01*
X99526688Y-102288669D01*
X99432184Y-102351815D01*
X99351815Y-102432184D01*
X99288669Y-102526688D01*
X99245174Y-102631695D01*
X99223000Y-102743170D01*
X93922776Y-102743170D01*
X92127000Y-100947394D01*
X92127000Y-87618146D01*
X95723000Y-87618146D01*
X95723000Y-87731806D01*
X95745174Y-87843281D01*
X95788669Y-87948288D01*
X95851815Y-88042792D01*
X95932184Y-88123161D01*
X96026688Y-88186307D01*
X96131695Y-88229802D01*
X96243170Y-88251976D01*
X96356830Y-88251976D01*
X96468305Y-88229802D01*
X96573312Y-88186307D01*
X96667816Y-88123161D01*
X96748185Y-88042792D01*
X96811331Y-87948288D01*
X96854826Y-87843281D01*
X96877000Y-87731806D01*
X96877000Y-87618146D01*
X96854826Y-87506671D01*
X96811331Y-87401664D01*
X96748185Y-87307160D01*
X96667816Y-87226791D01*
X96573312Y-87163645D01*
X96468305Y-87120150D01*
X96356830Y-87097976D01*
X96243170Y-87097976D01*
X96131695Y-87120150D01*
X96026688Y-87163645D01*
X95932184Y-87226791D01*
X95851815Y-87307160D01*
X95788669Y-87401664D01*
X95745174Y-87506671D01*
X95723000Y-87618146D01*
X92127000Y-87618146D01*
X92127000Y-73000000D01*
X92124560Y-72975224D01*
X92117333Y-72951399D01*
X92105597Y-72929443D01*
X92090420Y-72910819D01*
X91925068Y-72743170D01*
X100523000Y-72743170D01*
X100523000Y-72856830D01*
X100545174Y-72968305D01*
X100588669Y-73073312D01*
X100651815Y-73167816D01*
X100732184Y-73248185D01*
X100826688Y-73311331D01*
X100931695Y-73354826D01*
X101043170Y-73377000D01*
X101156830Y-73377000D01*
X101268305Y-73354826D01*
X101373312Y-73311331D01*
X101467816Y-73248185D01*
X101548185Y-73167816D01*
X101611331Y-73073312D01*
X101654826Y-72968305D01*
X101677000Y-72856830D01*
X101677000Y-72743170D01*
X101654826Y-72631695D01*
X101611331Y-72526688D01*
X101548185Y-72432184D01*
X101467816Y-72351815D01*
X101373312Y-72288669D01*
X101268305Y-72245174D01*
X101156830Y-72223000D01*
X101043170Y-72223000D01*
X100931695Y-72245174D01*
X100826688Y-72288669D01*
X100732184Y-72351815D01*
X100651815Y-72432184D01*
X100588669Y-72526688D01*
X100545174Y-72631695D01*
X100523000Y-72743170D01*
X91925068Y-72743170D01*
X87728095Y-68487906D01*
X87748185Y-68467816D01*
X87811331Y-68373312D01*
X87854826Y-68268305D01*
X87877000Y-68156830D01*
X87877000Y-68043170D01*
X87854826Y-67931695D01*
X87811331Y-67826688D01*
X87748185Y-67732184D01*
X87667816Y-67651815D01*
X87573312Y-67588669D01*
X87468305Y-67545174D01*
X87356830Y-67523000D01*
X87243170Y-67523000D01*
X87131695Y-67545174D01*
X87026688Y-67588669D01*
X86932184Y-67651815D01*
X86917722Y-67666277D01*
X85119589Y-65843170D01*
X87923000Y-65843170D01*
X87923000Y-65956830D01*
X87945174Y-66068305D01*
X87988669Y-66173312D01*
X88051815Y-66267816D01*
X88132184Y-66348185D01*
X88226688Y-66411331D01*
X88331695Y-66454826D01*
X88443170Y-66477000D01*
X88556830Y-66477000D01*
X88668305Y-66454826D01*
X88773312Y-66411331D01*
X88867816Y-66348185D01*
X88948185Y-66267816D01*
X89011331Y-66173312D01*
X89054826Y-66068305D01*
X89077000Y-65956830D01*
X89077000Y-65843170D01*
X89054826Y-65731695D01*
X89011331Y-65626688D01*
X88948185Y-65532184D01*
X88867816Y-65451815D01*
X88773312Y-65388669D01*
X88668305Y-65345174D01*
X88556830Y-65323000D01*
X88443170Y-65323000D01*
X88331695Y-65345174D01*
X88226688Y-65388669D01*
X88132184Y-65451815D01*
X88051815Y-65532184D01*
X87988669Y-65626688D01*
X87945174Y-65731695D01*
X87923000Y-65843170D01*
X85119589Y-65843170D01*
X81327000Y-61997907D01*
X81327000Y-61930670D01*
X93673000Y-61930670D01*
X93673000Y-62044330D01*
X93695174Y-62155805D01*
X93738669Y-62260812D01*
X93798263Y-62350000D01*
X93738669Y-62439188D01*
X93695174Y-62544195D01*
X93673000Y-62655670D01*
X93673000Y-62769330D01*
X93695174Y-62880805D01*
X93738669Y-62985812D01*
X93801815Y-63080316D01*
X93882184Y-63160685D01*
X93976688Y-63223831D01*
X94081695Y-63267326D01*
X94193170Y-63289500D01*
X94306830Y-63289500D01*
X94418305Y-63267326D01*
X94523312Y-63223831D01*
X94617816Y-63160685D01*
X94698185Y-63080316D01*
X94761331Y-62985812D01*
X94804826Y-62880805D01*
X94827000Y-62769330D01*
X94827000Y-62655670D01*
X94804826Y-62544195D01*
X94761331Y-62439188D01*
X94701737Y-62350000D01*
X94761331Y-62260812D01*
X94804826Y-62155805D01*
X94827000Y-62044330D01*
X94827000Y-61930670D01*
X94804826Y-61819195D01*
X94761331Y-61714188D01*
X94698185Y-61619684D01*
X94617816Y-61539315D01*
X94523312Y-61476169D01*
X94418305Y-61432674D01*
X94306830Y-61410500D01*
X94193170Y-61410500D01*
X94081695Y-61432674D01*
X93976688Y-61476169D01*
X93882184Y-61539315D01*
X93801815Y-61619684D01*
X93738669Y-61714188D01*
X93695174Y-61819195D01*
X93673000Y-61930670D01*
X81327000Y-61930670D01*
X81327000Y-59443170D01*
X87023000Y-59443170D01*
X87023000Y-59556830D01*
X87045174Y-59668305D01*
X87088669Y-59773312D01*
X87151815Y-59867816D01*
X87183999Y-59900000D01*
X87151815Y-59932184D01*
X87088669Y-60026688D01*
X87045174Y-60131695D01*
X87023000Y-60243170D01*
X87023000Y-60356830D01*
X87045174Y-60468305D01*
X87088669Y-60573312D01*
X87151815Y-60667816D01*
X87232184Y-60748185D01*
X87326688Y-60811331D01*
X87431695Y-60854826D01*
X87543170Y-60877000D01*
X87656830Y-60877000D01*
X87768305Y-60854826D01*
X87873312Y-60811331D01*
X87967816Y-60748185D01*
X88048185Y-60667816D01*
X88111331Y-60573312D01*
X88154826Y-60468305D01*
X88177000Y-60356830D01*
X88177000Y-60243170D01*
X88154826Y-60131695D01*
X88111331Y-60026688D01*
X88048185Y-59932184D01*
X88016001Y-59900000D01*
X88048185Y-59867816D01*
X88111331Y-59773312D01*
X88154826Y-59668305D01*
X88177000Y-59556830D01*
X88177000Y-59443170D01*
X88154826Y-59331695D01*
X88111331Y-59226688D01*
X88048185Y-59132184D01*
X87967816Y-59051815D01*
X87873312Y-58988669D01*
X87768305Y-58945174D01*
X87656830Y-58923000D01*
X87543170Y-58923000D01*
X87431695Y-58945174D01*
X87326688Y-58988669D01*
X87232184Y-59051815D01*
X87151815Y-59132184D01*
X87088669Y-59226688D01*
X87045174Y-59331695D01*
X87023000Y-59443170D01*
X81327000Y-59443170D01*
X81327000Y-58356964D01*
X81381633Y-58367831D01*
X81402560Y-58473037D01*
X81446055Y-58578044D01*
X81509201Y-58672548D01*
X81589570Y-58752917D01*
X81684074Y-58816063D01*
X81789081Y-58859558D01*
X81900556Y-58881732D01*
X82014216Y-58881732D01*
X82125691Y-58859558D01*
X82230698Y-58816063D01*
X82325202Y-58752917D01*
X82405571Y-58672548D01*
X82468717Y-58578044D01*
X82512212Y-58473037D01*
X82534386Y-58361562D01*
X82534386Y-58247902D01*
X82512212Y-58136427D01*
X82468717Y-58031420D01*
X82405571Y-57936916D01*
X82325202Y-57856547D01*
X82230698Y-57793401D01*
X82125691Y-57749906D01*
X82020485Y-57728979D01*
X81999558Y-57623773D01*
X81992258Y-57606149D01*
X83992186Y-57606149D01*
X83992186Y-57719809D01*
X84014360Y-57831284D01*
X84057855Y-57936291D01*
X84121001Y-58030795D01*
X84201370Y-58111164D01*
X84295874Y-58174310D01*
X84400881Y-58217805D01*
X84512356Y-58239979D01*
X84626016Y-58239979D01*
X84737491Y-58217805D01*
X84842498Y-58174310D01*
X84937002Y-58111164D01*
X85017371Y-58030795D01*
X85080517Y-57936291D01*
X85124012Y-57831284D01*
X85144939Y-57726078D01*
X85250145Y-57705151D01*
X85355152Y-57661656D01*
X85449656Y-57598510D01*
X85530025Y-57518141D01*
X85593171Y-57423637D01*
X85636666Y-57318630D01*
X85658840Y-57207155D01*
X85658840Y-57093495D01*
X85656289Y-57080670D01*
X85673000Y-57080670D01*
X85673000Y-57194330D01*
X85695174Y-57305805D01*
X85738669Y-57410812D01*
X85798263Y-57500000D01*
X85738669Y-57589188D01*
X85695174Y-57694195D01*
X85673000Y-57805670D01*
X85673000Y-57919330D01*
X85695174Y-58030805D01*
X85738669Y-58135812D01*
X85801815Y-58230316D01*
X85882184Y-58310685D01*
X85976688Y-58373831D01*
X86081695Y-58417326D01*
X86193170Y-58439500D01*
X86306830Y-58439500D01*
X86418305Y-58417326D01*
X86523312Y-58373831D01*
X86617816Y-58310685D01*
X86698185Y-58230316D01*
X86761331Y-58135812D01*
X86804826Y-58030805D01*
X86827000Y-57919330D01*
X86827000Y-57805670D01*
X86804826Y-57694195D01*
X86761331Y-57589188D01*
X86701737Y-57500000D01*
X86725889Y-57463853D01*
X87352317Y-57463853D01*
X87352317Y-57577513D01*
X87374491Y-57688988D01*
X87417986Y-57793995D01*
X87481132Y-57888499D01*
X87561501Y-57968868D01*
X87656005Y-58032014D01*
X87761012Y-58075509D01*
X87872487Y-58097683D01*
X87986147Y-58097683D01*
X88097622Y-58075509D01*
X88202629Y-58032014D01*
X88297133Y-57968868D01*
X88377502Y-57888499D01*
X88440648Y-57793995D01*
X88484143Y-57688988D01*
X88506317Y-57577513D01*
X88506317Y-57463853D01*
X88484143Y-57352378D01*
X88440648Y-57247371D01*
X88377502Y-57152867D01*
X88297133Y-57072498D01*
X88202629Y-57009352D01*
X88097622Y-56965857D01*
X87986147Y-56943683D01*
X87872487Y-56943683D01*
X87761012Y-56965857D01*
X87656005Y-57009352D01*
X87561501Y-57072498D01*
X87481132Y-57152867D01*
X87417986Y-57247371D01*
X87374491Y-57352378D01*
X87352317Y-57463853D01*
X86725889Y-57463853D01*
X86761331Y-57410812D01*
X86804826Y-57305805D01*
X86827000Y-57194330D01*
X86827000Y-57080670D01*
X86804826Y-56969195D01*
X86761331Y-56864188D01*
X86698185Y-56769684D01*
X86617816Y-56689315D01*
X86523312Y-56626169D01*
X86418305Y-56582674D01*
X86306830Y-56560500D01*
X86193170Y-56560500D01*
X86081695Y-56582674D01*
X85976688Y-56626169D01*
X85882184Y-56689315D01*
X85801815Y-56769684D01*
X85738669Y-56864188D01*
X85695174Y-56969195D01*
X85673000Y-57080670D01*
X85656289Y-57080670D01*
X85636666Y-56982020D01*
X85593171Y-56877013D01*
X85530025Y-56782509D01*
X85449656Y-56702140D01*
X85355152Y-56638994D01*
X85250145Y-56595499D01*
X85138670Y-56573325D01*
X85025010Y-56573325D01*
X84913535Y-56595499D01*
X84808528Y-56638994D01*
X84714024Y-56702140D01*
X84633655Y-56782509D01*
X84570509Y-56877013D01*
X84527014Y-56982020D01*
X84506087Y-57087226D01*
X84400881Y-57108153D01*
X84295874Y-57151648D01*
X84201370Y-57214794D01*
X84121001Y-57295163D01*
X84057855Y-57389667D01*
X84014360Y-57494674D01*
X83992186Y-57606149D01*
X81992258Y-57606149D01*
X81956063Y-57518766D01*
X81892917Y-57424262D01*
X81845803Y-57377148D01*
X83345980Y-56127000D01*
X90047394Y-56127000D01*
X98645077Y-64724683D01*
%TA.AperFunction,Conductor*%
D29*
G36*
X98645077Y-64724683D02*
G01*
X98623000Y-64835670D01*
X98623000Y-64949330D01*
X98645174Y-65060805D01*
X98688669Y-65165812D01*
X98751815Y-65260316D01*
X98832184Y-65340685D01*
X98926688Y-65403831D01*
X99031695Y-65447326D01*
X99143170Y-65469500D01*
X99256830Y-65469500D01*
X99367817Y-65447423D01*
X99585107Y-65664713D01*
X99588669Y-65673312D01*
X99651815Y-65767816D01*
X99732184Y-65848185D01*
X99826688Y-65911331D01*
X99835287Y-65914893D01*
X100507865Y-66587471D01*
X100456688Y-66608669D01*
X100362184Y-66671815D01*
X100281815Y-66752184D01*
X100218669Y-66846688D01*
X100175174Y-66951695D01*
X100153000Y-67063170D01*
X100153000Y-67176830D01*
X100175174Y-67288305D01*
X100218669Y-67393312D01*
X100281815Y-67487816D01*
X100362184Y-67568185D01*
X100394333Y-67589666D01*
X100351815Y-67632184D01*
X100288669Y-67726688D01*
X100245174Y-67831695D01*
X100223000Y-67943170D01*
X100223000Y-68056830D01*
X100245174Y-68168305D01*
X100288669Y-68273312D01*
X100351815Y-68367816D01*
X100432184Y-68448185D01*
X100526688Y-68511331D01*
X100631695Y-68554826D01*
X100743170Y-68577000D01*
X100856830Y-68577000D01*
X100968305Y-68554826D01*
X101073312Y-68511331D01*
X101167816Y-68448185D01*
X101206250Y-68409751D01*
X101244684Y-68448185D01*
X101339188Y-68511331D01*
X101444195Y-68554826D01*
X101555670Y-68577000D01*
X101669330Y-68577000D01*
X101780805Y-68554826D01*
X101885812Y-68511331D01*
X101980316Y-68448185D01*
X102060685Y-68367816D01*
X102123831Y-68273312D01*
X102167326Y-68168305D01*
X102175542Y-68127000D01*
X102271866Y-68127000D01*
X102238665Y-68176688D01*
X102195170Y-68281695D01*
X102172996Y-68393170D01*
X102172996Y-68506830D01*
X102187366Y-68579074D01*
X102156830Y-68573000D01*
X102043170Y-68573000D01*
X101931695Y-68595174D01*
X101826688Y-68638669D01*
X101732184Y-68701815D01*
X101651815Y-68782184D01*
X101588669Y-68876688D01*
X101545174Y-68981695D01*
X101523000Y-69093170D01*
X101523000Y-69206830D01*
X101545174Y-69318305D01*
X101588669Y-69423312D01*
X101651815Y-69517816D01*
X101732184Y-69598185D01*
X101826688Y-69661331D01*
X101931695Y-69704826D01*
X102043170Y-69727000D01*
X102156830Y-69727000D01*
X102268305Y-69704826D01*
X102373312Y-69661331D01*
X102467816Y-69598185D01*
X102548185Y-69517816D01*
X102600000Y-69440270D01*
X102651815Y-69517816D01*
X102732184Y-69598185D01*
X102826688Y-69661331D01*
X102931695Y-69704826D01*
X103043170Y-69727000D01*
X103156830Y-69727000D01*
X103268305Y-69704826D01*
X103373312Y-69661331D01*
X103467816Y-69598185D01*
X103548185Y-69517816D01*
X103611331Y-69423312D01*
X103654826Y-69318305D01*
X103677000Y-69206830D01*
X103677000Y-69093170D01*
X103654826Y-68981695D01*
X103611331Y-68876688D01*
X103548185Y-68782184D01*
X103467816Y-68701815D01*
X103373312Y-68638669D01*
X103306293Y-68610909D01*
X103326996Y-68506830D01*
X103326996Y-68393170D01*
X103304822Y-68281695D01*
X103261327Y-68176688D01*
X103228126Y-68127000D01*
X103712718Y-68127000D01*
X103766419Y-68137682D01*
X103839083Y-68137682D01*
X103845174Y-68168305D01*
X103888669Y-68273312D01*
X103951815Y-68367816D01*
X104032184Y-68448185D01*
X104126688Y-68511331D01*
X104202385Y-68542685D01*
X104188847Y-68575368D01*
X104166673Y-68686843D01*
X104166673Y-68800503D01*
X104188847Y-68911978D01*
X104232342Y-69016985D01*
X104295488Y-69111489D01*
X104375857Y-69191858D01*
X104470361Y-69255004D01*
X104575368Y-69298499D01*
X104680574Y-69319426D01*
X104701501Y-69424632D01*
X104744996Y-69529639D01*
X104808142Y-69624143D01*
X104888511Y-69704512D01*
X104983015Y-69767658D01*
X105088022Y-69811153D01*
X105199497Y-69833327D01*
X105313157Y-69833327D01*
X105424632Y-69811153D01*
X105529639Y-69767658D01*
X105624143Y-69704512D01*
X105704512Y-69624143D01*
X105767658Y-69529639D01*
X105811153Y-69424632D01*
X105833327Y-69313157D01*
X105833327Y-69199497D01*
X105811153Y-69088022D01*
X105767658Y-68983015D01*
X105704512Y-68888511D01*
X105624143Y-68808142D01*
X105529639Y-68744996D01*
X105424632Y-68701501D01*
X105319426Y-68680574D01*
X105298499Y-68575368D01*
X105255004Y-68470361D01*
X105191858Y-68375857D01*
X105111489Y-68295488D01*
X105016985Y-68232342D01*
X104941288Y-68200988D01*
X104954826Y-68168305D01*
X104963042Y-68127000D01*
X105447394Y-68127000D01*
X106373000Y-69052606D01*
X106373000Y-69947394D01*
X100759894Y-75560500D01*
X100066668Y-75560500D01*
X100049999Y-75558858D01*
X100033330Y-75560500D01*
X100033329Y-75560500D01*
X99983446Y-75565413D01*
X99919451Y-75584826D01*
X99860472Y-75616351D01*
X99808776Y-75658776D01*
X99798146Y-75671729D01*
X98271731Y-77198145D01*
X98258776Y-77208777D01*
X98216351Y-77260473D01*
X98184826Y-77319452D01*
X98165413Y-77383447D01*
X98160500Y-77433329D01*
X98158858Y-77450000D01*
X98160500Y-77466669D01*
X98160501Y-81883321D01*
X98158858Y-81900000D01*
X98164859Y-81960921D01*
X98165414Y-81966554D01*
X98184827Y-82030549D01*
X98216352Y-82089528D01*
X98258777Y-82141224D01*
X98271730Y-82151854D01*
X98829644Y-82709769D01*
X98823000Y-82743170D01*
X98823000Y-82856830D01*
X98845174Y-82968305D01*
X98888669Y-83073312D01*
X98951815Y-83167816D01*
X99032184Y-83248185D01*
X99126688Y-83311331D01*
X99231695Y-83354826D01*
X99343170Y-83377000D01*
X99373000Y-83377000D01*
X99373000Y-83673000D01*
X99343170Y-83673000D01*
X99231695Y-83695174D01*
X99126688Y-83738669D01*
X99032184Y-83801815D01*
X98951815Y-83882184D01*
X98888669Y-83976688D01*
X98845174Y-84081695D01*
X98823000Y-84193170D01*
X98823000Y-84306830D01*
X98845174Y-84418305D01*
X98888669Y-84523312D01*
X98951815Y-84617816D01*
X99032184Y-84698185D01*
X99126688Y-84761331D01*
X99231695Y-84804826D01*
X99343170Y-84827000D01*
X99373000Y-84827000D01*
X99373000Y-85223000D01*
X99268182Y-85223000D01*
X99156707Y-85245174D01*
X99051700Y-85288669D01*
X98957196Y-85351815D01*
X98876827Y-85432184D01*
X98813681Y-85526688D01*
X98770186Y-85631695D01*
X98748012Y-85743170D01*
X98748012Y-85856830D01*
X98770186Y-85968305D01*
X98813681Y-86073312D01*
X98876827Y-86167816D01*
X98957196Y-86248185D01*
X99051700Y-86311331D01*
X99156707Y-86354826D01*
X99268182Y-86377000D01*
X99373000Y-86377000D01*
X99373000Y-99500000D01*
X99375440Y-99524776D01*
X99382667Y-99548601D01*
X99394403Y-99570557D01*
X99410197Y-99589803D01*
X101773000Y-101952606D01*
X101773000Y-105547394D01*
X100947394Y-106373000D01*
X97552606Y-106373000D01*
X95766449Y-104586843D01*
X99266673Y-104586843D01*
X99266673Y-104700503D01*
X99288847Y-104811978D01*
X99332342Y-104916985D01*
X99395488Y-105011489D01*
X99475857Y-105091858D01*
X99570361Y-105155004D01*
X99675368Y-105198499D01*
X99780574Y-105219426D01*
X99801501Y-105324632D01*
X99844996Y-105429639D01*
X99908142Y-105524143D01*
X99988511Y-105604512D01*
X100083015Y-105667658D01*
X100188022Y-105711153D01*
X100299497Y-105733327D01*
X100413157Y-105733327D01*
X100524632Y-105711153D01*
X100629639Y-105667658D01*
X100724143Y-105604512D01*
X100804512Y-105524143D01*
X100867658Y-105429639D01*
X100911153Y-105324632D01*
X100933327Y-105213157D01*
X100933327Y-105099497D01*
X100911153Y-104988022D01*
X100867658Y-104883015D01*
X100804512Y-104788511D01*
X100724143Y-104708142D01*
X100629639Y-104644996D01*
X100524632Y-104601501D01*
X100419426Y-104580574D01*
X100398499Y-104475368D01*
X100355004Y-104370361D01*
X100291858Y-104275857D01*
X100211489Y-104195488D01*
X100116985Y-104132342D01*
X100011978Y-104088847D01*
X99900503Y-104066673D01*
X99786843Y-104066673D01*
X99675368Y-104088847D01*
X99570361Y-104132342D01*
X99475857Y-104195488D01*
X99395488Y-104275857D01*
X99332342Y-104370361D01*
X99288847Y-104475368D01*
X99266673Y-104586843D01*
X95766449Y-104586843D01*
X93922776Y-102743170D01*
X99223000Y-102743170D01*
X99223000Y-102856830D01*
X99245174Y-102968305D01*
X99288669Y-103073312D01*
X99351815Y-103167816D01*
X99432184Y-103248185D01*
X99526688Y-103311331D01*
X99631695Y-103354826D01*
X99743170Y-103377000D01*
X99856830Y-103377000D01*
X99968305Y-103354826D01*
X100073312Y-103311331D01*
X100167816Y-103248185D01*
X100248185Y-103167816D01*
X100311331Y-103073312D01*
X100354826Y-102968305D01*
X100377000Y-102856830D01*
X100377000Y-102743170D01*
X100354826Y-102631695D01*
X100311331Y-102526688D01*
X100248185Y-102432184D01*
X100167816Y-102351815D01*
X100073312Y-102288669D01*
X99968305Y-102245174D01*
X99856830Y-102223000D01*
X99743170Y-102223000D01*
X99631695Y-102245174D01*
X99526688Y-102288669D01*
X99432184Y-102351815D01*
X99351815Y-102432184D01*
X99288669Y-102526688D01*
X99245174Y-102631695D01*
X99223000Y-102743170D01*
X93922776Y-102743170D01*
X92127000Y-100947394D01*
X92127000Y-87618146D01*
X95723000Y-87618146D01*
X95723000Y-87731806D01*
X95745174Y-87843281D01*
X95788669Y-87948288D01*
X95851815Y-88042792D01*
X95932184Y-88123161D01*
X96026688Y-88186307D01*
X96131695Y-88229802D01*
X96243170Y-88251976D01*
X96356830Y-88251976D01*
X96468305Y-88229802D01*
X96573312Y-88186307D01*
X96667816Y-88123161D01*
X96748185Y-88042792D01*
X96811331Y-87948288D01*
X96854826Y-87843281D01*
X96877000Y-87731806D01*
X96877000Y-87618146D01*
X96854826Y-87506671D01*
X96811331Y-87401664D01*
X96748185Y-87307160D01*
X96667816Y-87226791D01*
X96573312Y-87163645D01*
X96468305Y-87120150D01*
X96356830Y-87097976D01*
X96243170Y-87097976D01*
X96131695Y-87120150D01*
X96026688Y-87163645D01*
X95932184Y-87226791D01*
X95851815Y-87307160D01*
X95788669Y-87401664D01*
X95745174Y-87506671D01*
X95723000Y-87618146D01*
X92127000Y-87618146D01*
X92127000Y-73000000D01*
X92124560Y-72975224D01*
X92117333Y-72951399D01*
X92105597Y-72929443D01*
X92090420Y-72910819D01*
X91925068Y-72743170D01*
X100523000Y-72743170D01*
X100523000Y-72856830D01*
X100545174Y-72968305D01*
X100588669Y-73073312D01*
X100651815Y-73167816D01*
X100732184Y-73248185D01*
X100826688Y-73311331D01*
X100931695Y-73354826D01*
X101043170Y-73377000D01*
X101156830Y-73377000D01*
X101268305Y-73354826D01*
X101373312Y-73311331D01*
X101467816Y-73248185D01*
X101548185Y-73167816D01*
X101611331Y-73073312D01*
X101654826Y-72968305D01*
X101677000Y-72856830D01*
X101677000Y-72743170D01*
X101654826Y-72631695D01*
X101611331Y-72526688D01*
X101548185Y-72432184D01*
X101467816Y-72351815D01*
X101373312Y-72288669D01*
X101268305Y-72245174D01*
X101156830Y-72223000D01*
X101043170Y-72223000D01*
X100931695Y-72245174D01*
X100826688Y-72288669D01*
X100732184Y-72351815D01*
X100651815Y-72432184D01*
X100588669Y-72526688D01*
X100545174Y-72631695D01*
X100523000Y-72743170D01*
X91925068Y-72743170D01*
X87728095Y-68487906D01*
X87748185Y-68467816D01*
X87811331Y-68373312D01*
X87854826Y-68268305D01*
X87877000Y-68156830D01*
X87877000Y-68043170D01*
X87854826Y-67931695D01*
X87811331Y-67826688D01*
X87748185Y-67732184D01*
X87667816Y-67651815D01*
X87573312Y-67588669D01*
X87468305Y-67545174D01*
X87356830Y-67523000D01*
X87243170Y-67523000D01*
X87131695Y-67545174D01*
X87026688Y-67588669D01*
X86932184Y-67651815D01*
X86917722Y-67666277D01*
X85119589Y-65843170D01*
X87923000Y-65843170D01*
X87923000Y-65956830D01*
X87945174Y-66068305D01*
X87988669Y-66173312D01*
X88051815Y-66267816D01*
X88132184Y-66348185D01*
X88226688Y-66411331D01*
X88331695Y-66454826D01*
X88443170Y-66477000D01*
X88556830Y-66477000D01*
X88668305Y-66454826D01*
X88773312Y-66411331D01*
X88867816Y-66348185D01*
X88948185Y-66267816D01*
X89011331Y-66173312D01*
X89054826Y-66068305D01*
X89077000Y-65956830D01*
X89077000Y-65843170D01*
X89054826Y-65731695D01*
X89011331Y-65626688D01*
X88948185Y-65532184D01*
X88867816Y-65451815D01*
X88773312Y-65388669D01*
X88668305Y-65345174D01*
X88556830Y-65323000D01*
X88443170Y-65323000D01*
X88331695Y-65345174D01*
X88226688Y-65388669D01*
X88132184Y-65451815D01*
X88051815Y-65532184D01*
X87988669Y-65626688D01*
X87945174Y-65731695D01*
X87923000Y-65843170D01*
X85119589Y-65843170D01*
X81327000Y-61997907D01*
X81327000Y-61930670D01*
X93673000Y-61930670D01*
X93673000Y-62044330D01*
X93695174Y-62155805D01*
X93738669Y-62260812D01*
X93798263Y-62350000D01*
X93738669Y-62439188D01*
X93695174Y-62544195D01*
X93673000Y-62655670D01*
X93673000Y-62769330D01*
X93695174Y-62880805D01*
X93738669Y-62985812D01*
X93801815Y-63080316D01*
X93882184Y-63160685D01*
X93976688Y-63223831D01*
X94081695Y-63267326D01*
X94193170Y-63289500D01*
X94306830Y-63289500D01*
X94418305Y-63267326D01*
X94523312Y-63223831D01*
X94617816Y-63160685D01*
X94698185Y-63080316D01*
X94761331Y-62985812D01*
X94804826Y-62880805D01*
X94827000Y-62769330D01*
X94827000Y-62655670D01*
X94804826Y-62544195D01*
X94761331Y-62439188D01*
X94701737Y-62350000D01*
X94761331Y-62260812D01*
X94804826Y-62155805D01*
X94827000Y-62044330D01*
X94827000Y-61930670D01*
X94804826Y-61819195D01*
X94761331Y-61714188D01*
X94698185Y-61619684D01*
X94617816Y-61539315D01*
X94523312Y-61476169D01*
X94418305Y-61432674D01*
X94306830Y-61410500D01*
X94193170Y-61410500D01*
X94081695Y-61432674D01*
X93976688Y-61476169D01*
X93882184Y-61539315D01*
X93801815Y-61619684D01*
X93738669Y-61714188D01*
X93695174Y-61819195D01*
X93673000Y-61930670D01*
X81327000Y-61930670D01*
X81327000Y-59443170D01*
X87023000Y-59443170D01*
X87023000Y-59556830D01*
X87045174Y-59668305D01*
X87088669Y-59773312D01*
X87151815Y-59867816D01*
X87183999Y-59900000D01*
X87151815Y-59932184D01*
X87088669Y-60026688D01*
X87045174Y-60131695D01*
X87023000Y-60243170D01*
X87023000Y-60356830D01*
X87045174Y-60468305D01*
X87088669Y-60573312D01*
X87151815Y-60667816D01*
X87232184Y-60748185D01*
X87326688Y-60811331D01*
X87431695Y-60854826D01*
X87543170Y-60877000D01*
X87656830Y-60877000D01*
X87768305Y-60854826D01*
X87873312Y-60811331D01*
X87967816Y-60748185D01*
X88048185Y-60667816D01*
X88111331Y-60573312D01*
X88154826Y-60468305D01*
X88177000Y-60356830D01*
X88177000Y-60243170D01*
X88154826Y-60131695D01*
X88111331Y-60026688D01*
X88048185Y-59932184D01*
X88016001Y-59900000D01*
X88048185Y-59867816D01*
X88111331Y-59773312D01*
X88154826Y-59668305D01*
X88177000Y-59556830D01*
X88177000Y-59443170D01*
X88154826Y-59331695D01*
X88111331Y-59226688D01*
X88048185Y-59132184D01*
X87967816Y-59051815D01*
X87873312Y-58988669D01*
X87768305Y-58945174D01*
X87656830Y-58923000D01*
X87543170Y-58923000D01*
X87431695Y-58945174D01*
X87326688Y-58988669D01*
X87232184Y-59051815D01*
X87151815Y-59132184D01*
X87088669Y-59226688D01*
X87045174Y-59331695D01*
X87023000Y-59443170D01*
X81327000Y-59443170D01*
X81327000Y-58356964D01*
X81381633Y-58367831D01*
X81402560Y-58473037D01*
X81446055Y-58578044D01*
X81509201Y-58672548D01*
X81589570Y-58752917D01*
X81684074Y-58816063D01*
X81789081Y-58859558D01*
X81900556Y-58881732D01*
X82014216Y-58881732D01*
X82125691Y-58859558D01*
X82230698Y-58816063D01*
X82325202Y-58752917D01*
X82405571Y-58672548D01*
X82468717Y-58578044D01*
X82512212Y-58473037D01*
X82534386Y-58361562D01*
X82534386Y-58247902D01*
X82512212Y-58136427D01*
X82468717Y-58031420D01*
X82405571Y-57936916D01*
X82325202Y-57856547D01*
X82230698Y-57793401D01*
X82125691Y-57749906D01*
X82020485Y-57728979D01*
X81999558Y-57623773D01*
X81992258Y-57606149D01*
X83992186Y-57606149D01*
X83992186Y-57719809D01*
X84014360Y-57831284D01*
X84057855Y-57936291D01*
X84121001Y-58030795D01*
X84201370Y-58111164D01*
X84295874Y-58174310D01*
X84400881Y-58217805D01*
X84512356Y-58239979D01*
X84626016Y-58239979D01*
X84737491Y-58217805D01*
X84842498Y-58174310D01*
X84937002Y-58111164D01*
X85017371Y-58030795D01*
X85080517Y-57936291D01*
X85124012Y-57831284D01*
X85144939Y-57726078D01*
X85250145Y-57705151D01*
X85355152Y-57661656D01*
X85449656Y-57598510D01*
X85530025Y-57518141D01*
X85593171Y-57423637D01*
X85636666Y-57318630D01*
X85658840Y-57207155D01*
X85658840Y-57093495D01*
X85656289Y-57080670D01*
X85673000Y-57080670D01*
X85673000Y-57194330D01*
X85695174Y-57305805D01*
X85738669Y-57410812D01*
X85798263Y-57500000D01*
X85738669Y-57589188D01*
X85695174Y-57694195D01*
X85673000Y-57805670D01*
X85673000Y-57919330D01*
X85695174Y-58030805D01*
X85738669Y-58135812D01*
X85801815Y-58230316D01*
X85882184Y-58310685D01*
X85976688Y-58373831D01*
X86081695Y-58417326D01*
X86193170Y-58439500D01*
X86306830Y-58439500D01*
X86418305Y-58417326D01*
X86523312Y-58373831D01*
X86617816Y-58310685D01*
X86698185Y-58230316D01*
X86761331Y-58135812D01*
X86804826Y-58030805D01*
X86827000Y-57919330D01*
X86827000Y-57805670D01*
X86804826Y-57694195D01*
X86761331Y-57589188D01*
X86701737Y-57500000D01*
X86725889Y-57463853D01*
X87352317Y-57463853D01*
X87352317Y-57577513D01*
X87374491Y-57688988D01*
X87417986Y-57793995D01*
X87481132Y-57888499D01*
X87561501Y-57968868D01*
X87656005Y-58032014D01*
X87761012Y-58075509D01*
X87872487Y-58097683D01*
X87986147Y-58097683D01*
X88097622Y-58075509D01*
X88202629Y-58032014D01*
X88297133Y-57968868D01*
X88377502Y-57888499D01*
X88440648Y-57793995D01*
X88484143Y-57688988D01*
X88506317Y-57577513D01*
X88506317Y-57463853D01*
X88484143Y-57352378D01*
X88440648Y-57247371D01*
X88377502Y-57152867D01*
X88297133Y-57072498D01*
X88202629Y-57009352D01*
X88097622Y-56965857D01*
X87986147Y-56943683D01*
X87872487Y-56943683D01*
X87761012Y-56965857D01*
X87656005Y-57009352D01*
X87561501Y-57072498D01*
X87481132Y-57152867D01*
X87417986Y-57247371D01*
X87374491Y-57352378D01*
X87352317Y-57463853D01*
X86725889Y-57463853D01*
X86761331Y-57410812D01*
X86804826Y-57305805D01*
X86827000Y-57194330D01*
X86827000Y-57080670D01*
X86804826Y-56969195D01*
X86761331Y-56864188D01*
X86698185Y-56769684D01*
X86617816Y-56689315D01*
X86523312Y-56626169D01*
X86418305Y-56582674D01*
X86306830Y-56560500D01*
X86193170Y-56560500D01*
X86081695Y-56582674D01*
X85976688Y-56626169D01*
X85882184Y-56689315D01*
X85801815Y-56769684D01*
X85738669Y-56864188D01*
X85695174Y-56969195D01*
X85673000Y-57080670D01*
X85656289Y-57080670D01*
X85636666Y-56982020D01*
X85593171Y-56877013D01*
X85530025Y-56782509D01*
X85449656Y-56702140D01*
X85355152Y-56638994D01*
X85250145Y-56595499D01*
X85138670Y-56573325D01*
X85025010Y-56573325D01*
X84913535Y-56595499D01*
X84808528Y-56638994D01*
X84714024Y-56702140D01*
X84633655Y-56782509D01*
X84570509Y-56877013D01*
X84527014Y-56982020D01*
X84506087Y-57087226D01*
X84400881Y-57108153D01*
X84295874Y-57151648D01*
X84201370Y-57214794D01*
X84121001Y-57295163D01*
X84057855Y-57389667D01*
X84014360Y-57494674D01*
X83992186Y-57606149D01*
X81992258Y-57606149D01*
X81956063Y-57518766D01*
X81892917Y-57424262D01*
X81845803Y-57377148D01*
X83345980Y-56127000D01*
X90047394Y-56127000D01*
X98645077Y-64724683D01*
G37*
%TD.AperFunction*%
%TD*%
M02*
