%TF.GenerationSoftware,KiCad,Pcbnew,5.1.9+dfsg1-1*%
%TF.CreationDate,2022-02-15T13:48:39+01:00*%
%TF.ProjectId,sc606-baseboard,73633630-362d-4626-9173-65626f617264,rev?*%
%TF.SameCoordinates,Original*%
%TF.FileFunction,Copper,L3,Inr*%
%TF.FilePolarity,Positive*%
%FSLAX46Y46*%
G04 Gerber Fmt 4.6, Leading zero omitted, Abs format (unit mm)*
G04 Created by KiCad (PCBNEW 5.1.9+dfsg1-1) date 2022-02-15 13:48:39 commit a4fbcb5*
%MOMM*%
%LPD*%
G01*
G04 APERTURE LIST*
%TA.AperFunction,Profile*%
%ADD10C,0.120000*%
%TD*%
%TA.AperFunction,Profile*%
%ADD11C,0.254000*%
%TD*%
%TA.AperFunction,WasherPad*%
%ADD12C,1.710000*%
%TD*%
%TA.AperFunction,ComponentPad*%
%ADD13C,2.000000*%
%TD*%
%TA.AperFunction,ComponentPad*%
%ADD14O,0.900000X1.900000*%
%TD*%
%TA.AperFunction,ComponentPad*%
%ADD15O,1.000000X1.600000*%
%TD*%
%TA.AperFunction,ComponentPad*%
%ADD16O,1.150000X0.800000*%
%TD*%
%TA.AperFunction,ComponentPad*%
%ADD17C,0.650000*%
%TD*%
%TA.AperFunction,ComponentPad*%
%ADD18O,1.500000X2.550000*%
%TD*%
%TA.AperFunction,ComponentPad*%
%ADD19C,1.800000*%
%TD*%
%TA.AperFunction,ComponentPad*%
%ADD20R,1.800000X1.800000*%
%TD*%
%TA.AperFunction,ViaPad*%
%ADD21C,0.600000*%
%TD*%
%TA.AperFunction,Conductor*%
%ADD22C,0.125000*%
%TD*%
%TA.AperFunction,Conductor*%
%ADD23C,0.500000*%
%TD*%
%TA.AperFunction,Conductor*%
%ADD24C,0.250000*%
%TD*%
%TA.AperFunction,Conductor*%
%ADD25C,0.215000*%
%TD*%
%TA.AperFunction,Conductor*%
%ADD26C,0.155000*%
%TD*%
%TA.AperFunction,Conductor*%
%ADD27C,0.254000*%
%TD*%
%TA.AperFunction,Conductor*%
%ADD28C,0.100000*%
%TD*%
G04 APERTURE END LIST*
D10*
X175600000Y-42400000D02*
X75600000Y-42400000D01*
D11*
X175600000Y-42400000D02*
X175600000Y-122400000D01*
D10*
X75600000Y-122400000D02*
X75600000Y-42400000D01*
D11*
X175600000Y-122400000D02*
X75600000Y-122400000D01*
D12*
%TO.N,*%
%TO.C,J1*%
X171050000Y-45920000D03*
X173550000Y-45920000D03*
D13*
%TO.N,GND*%
X173550000Y-53100000D03*
%TO.N,AUX_VDD*%
X171050000Y-53100000D03*
%TD*%
D14*
%TO.N,GND*%
%TO.C,J6*%
X76900000Y-44765000D03*
X85900000Y-44765000D03*
D15*
X77180000Y-47280000D03*
X85620000Y-47280000D03*
D16*
X77555000Y-50080000D03*
X85245000Y-50080000D03*
D17*
%TO.N,N/C*%
X79000000Y-47180000D03*
X79800000Y-47180000D03*
X80600000Y-47180000D03*
X82200000Y-47180000D03*
X83000000Y-47180000D03*
X83800000Y-47180000D03*
%TO.N,GND*%
X78600000Y-47880000D03*
%TO.N,/USB_flash_debug/USB_FLASH_5V0*%
X80200000Y-47880000D03*
%TO.N,/USB_flash_debug/USB_FLASH_P*%
X81000000Y-47880000D03*
%TO.N,/USB_flash_debug/USB_FLASH_N*%
X81800000Y-47880000D03*
%TO.N,/USB_flash_debug/USB_FLASH_5V0*%
X82600000Y-47880000D03*
%TO.N,GND*%
X84200000Y-47880000D03*
%TD*%
D14*
%TO.N,GND*%
%TO.C,J12*%
X153400000Y-44765000D03*
X162400000Y-44765000D03*
D15*
X153680000Y-47280000D03*
X162120000Y-47280000D03*
D16*
X154055000Y-50080000D03*
X161745000Y-50080000D03*
D17*
%TO.N,N/C*%
X155500000Y-47180000D03*
X156300000Y-47180000D03*
%TO.N,/USB-PD/PD_CC2*%
X157100000Y-47180000D03*
%TO.N,N/C*%
X158700000Y-47180000D03*
X159500000Y-47180000D03*
X160300000Y-47180000D03*
%TO.N,GND*%
X155100000Y-47880000D03*
%TO.N,/USB-PD/PD_VBUS*%
X156700000Y-47880000D03*
%TO.N,N/C*%
X157500000Y-47880000D03*
X158300000Y-47880000D03*
%TO.N,/USB-PD/PD_VBUS*%
X159100000Y-47880000D03*
%TO.N,GND*%
X160700000Y-47880000D03*
%TD*%
D14*
%TO.N,GND*%
%TO.C,J9*%
X139900000Y-44765000D03*
X148900000Y-44765000D03*
D15*
X140180000Y-47280000D03*
X148620000Y-47280000D03*
D16*
X140555000Y-50080000D03*
X148245000Y-50080000D03*
D17*
%TO.N,N/C*%
X142000000Y-47180000D03*
X142800000Y-47180000D03*
X143600000Y-47180000D03*
X145200000Y-47180000D03*
X146000000Y-47180000D03*
X146800000Y-47180000D03*
%TO.N,GND*%
X141600000Y-47880000D03*
%TO.N,/USB_flash_debug/DBG_VBUS*%
X143200000Y-47880000D03*
%TO.N,/USB_flash_debug/DBG_USB_D_P*%
X144000000Y-47880000D03*
%TO.N,/USB_flash_debug/DBG_USB_D_N*%
X144800000Y-47880000D03*
%TO.N,/USB_flash_debug/DBG_VBUS*%
X145600000Y-47880000D03*
%TO.N,GND*%
X147200000Y-47880000D03*
%TD*%
D14*
%TO.N,GND*%
%TO.C,J11*%
X90400000Y-44765000D03*
X99400000Y-44765000D03*
D15*
X90680000Y-47280000D03*
X99120000Y-47280000D03*
D16*
X91055000Y-50080000D03*
X98745000Y-50080000D03*
D17*
%TO.N,/USB_HUB_Connectors/USB_C2_SS_C_TX2_P*%
X92500000Y-47180000D03*
%TO.N,/USB_HUB_Connectors/USB_C2_SS_C_TX2_N*%
X93300000Y-47180000D03*
%TO.N,/USB_HUB_Connectors/USB_C2_CC2*%
X94100000Y-47180000D03*
%TO.N,Net-(J11-PadB8)*%
X95700000Y-47180000D03*
%TO.N,/USB_HUB_Connectors/USB_C2_SS_C_RX1_N*%
X96500000Y-47180000D03*
%TO.N,/USB_HUB_Connectors/USB_C2_SS_C_RX1_P*%
X97300000Y-47180000D03*
%TO.N,GND*%
X92100000Y-47880000D03*
%TO.N,/USB_HUB_Connectors/5V0_USB*%
X93700000Y-47880000D03*
%TO.N,/USB_HUB_Connectors/USB_C2_D2_P*%
X94500000Y-47880000D03*
%TO.N,/USB_HUB_Connectors/USB_C2_D2_N*%
X95300000Y-47880000D03*
%TO.N,/USB_HUB_Connectors/5V0_USB*%
X96100000Y-47880000D03*
%TO.N,GND*%
X97700000Y-47880000D03*
%TD*%
D14*
%TO.N,GND*%
%TO.C,J10*%
X103900000Y-44765000D03*
X112900000Y-44765000D03*
D15*
X104180000Y-47280000D03*
X112620000Y-47280000D03*
D16*
X104555000Y-50080000D03*
X112245000Y-50080000D03*
D17*
%TO.N,/USB_HUB_Connectors/USB_C1_SS_C_TX2_P*%
X106000000Y-47180000D03*
%TO.N,/USB_HUB_Connectors/USB_C1_SS_C_TX2_N*%
X106800000Y-47180000D03*
%TO.N,/USB_HUB_Connectors/USB_C1_CC2*%
X107600000Y-47180000D03*
%TO.N,Net-(J10-PadB8)*%
X109200000Y-47180000D03*
%TO.N,/USB_HUB_Connectors/USB_C1_SS_C_RX1_N*%
X110000000Y-47180000D03*
%TO.N,/USB_HUB_Connectors/USB_C1_SS_C_RX1_P*%
X110800000Y-47180000D03*
%TO.N,GND*%
X105600000Y-47880000D03*
%TO.N,/USB_HUB_Connectors/5V0_USB*%
X107200000Y-47880000D03*
%TO.N,/USB_HUB_Connectors/USB_C1_D2_P*%
X108000000Y-47880000D03*
%TO.N,/USB_HUB_Connectors/USB_C1_D2_N*%
X108800000Y-47880000D03*
%TO.N,/USB_HUB_Connectors/5V0_USB*%
X109600000Y-47880000D03*
%TO.N,GND*%
X111200000Y-47880000D03*
%TD*%
D18*
%TO.N,GND*%
%TO.C,J4*%
X133500000Y-43900000D03*
X127300000Y-43900000D03*
X133500000Y-47260000D03*
X127300000Y-47260000D03*
%TD*%
D19*
%TO.N,GND*%
%TO.C,SW1*%
X150330000Y-62250000D03*
%TO.N,DEBUG_UART_TX*%
X147790000Y-62250000D03*
D20*
%TO.N,DEBUG_UART_RX*%
X145250000Y-62250000D03*
%TD*%
D21*
%TO.N,GND*%
X130560000Y-61560000D03*
X131720000Y-60560000D03*
X138830000Y-54560000D03*
X88500000Y-87500000D03*
X90500000Y-87500000D03*
X88500000Y-89500000D03*
X88500000Y-93500000D03*
X88500000Y-95500000D03*
X90500000Y-93500000D03*
X92500000Y-93500000D03*
X90500000Y-90500000D03*
X94500000Y-93500000D03*
X94500000Y-90500000D03*
X94500000Y-97500000D03*
X94500000Y-101500000D03*
X94500000Y-105500000D03*
X90500000Y-121500000D03*
X88500000Y-97500000D03*
X90500000Y-97500000D03*
X92500000Y-97500000D03*
X88500000Y-99500000D03*
X88500000Y-101500000D03*
X88500000Y-103500000D03*
X88500000Y-105500000D03*
X88500000Y-107500000D03*
X90500000Y-101500000D03*
X92500000Y-101500000D03*
X90500000Y-105500000D03*
X92500000Y-105500000D03*
X88500000Y-109500000D03*
X90500000Y-109500000D03*
X88500000Y-81500000D03*
X86500000Y-69500000D03*
X84500000Y-69500000D03*
X82500000Y-69500000D03*
X80500000Y-69500000D03*
X78500000Y-69500000D03*
X76500000Y-69500000D03*
X122000000Y-53000000D03*
X120500000Y-53000000D03*
X119000000Y-53000000D03*
X123500000Y-53000000D03*
X125000000Y-53000000D03*
X125500000Y-57000000D03*
X125500000Y-55500000D03*
X125500000Y-54000000D03*
X125500000Y-58500000D03*
X125500000Y-60000000D03*
X122000000Y-61000000D03*
X120500000Y-61000000D03*
X119000000Y-61000000D03*
X118000000Y-57000000D03*
X118000000Y-58500000D03*
X118000000Y-60000000D03*
X118000000Y-55500000D03*
X118000000Y-54000000D03*
X123400000Y-61000000D03*
X125000000Y-61000000D03*
X174400000Y-104450000D03*
X174400000Y-105350000D03*
X173450000Y-105450000D03*
X152200000Y-69800000D03*
X151350000Y-69800000D03*
X151200000Y-70700000D03*
X88500000Y-113500000D03*
X88500000Y-117500000D03*
X88500000Y-119500000D03*
X88500000Y-121500000D03*
X88500000Y-85500000D03*
X90500000Y-83500000D03*
X92500000Y-83500000D03*
X88500000Y-83500000D03*
X88500000Y-79500000D03*
X90500000Y-79500000D03*
X92500000Y-79500000D03*
X88500000Y-77500000D03*
X88500000Y-75500000D03*
X90500000Y-75500000D03*
X88500000Y-73500000D03*
X88500000Y-71500000D03*
X90500000Y-71500000D03*
X92500000Y-71500000D03*
X88500000Y-69500000D03*
X88500000Y-115500000D03*
X88500000Y-111500000D03*
X90500000Y-113500000D03*
X114935000Y-61210000D03*
X110450000Y-78100000D03*
X112350000Y-78000000D03*
X120900000Y-73000000D03*
X124900000Y-107900000D03*
X138337501Y-82362499D03*
X96600000Y-64500000D03*
X82400000Y-66700000D03*
X79700000Y-64800000D03*
X89400000Y-56783628D03*
X83800000Y-55300000D03*
X84050000Y-64350000D03*
X111600000Y-55100000D03*
X107400000Y-54400000D03*
X133900000Y-121800000D03*
X127600000Y-119400010D03*
X163862501Y-113812501D03*
X157540000Y-110915000D03*
X153200000Y-118800000D03*
X125100000Y-101300000D03*
X168849996Y-100150004D03*
X160000000Y-104000000D03*
X109700000Y-69200000D03*
X128120000Y-64340000D03*
X169100000Y-75800000D03*
X169100000Y-72800000D03*
X169100000Y-78800000D03*
X169100000Y-81800000D03*
X169100000Y-84800000D03*
X169100000Y-87800000D03*
X169100000Y-90800000D03*
X134700000Y-81300000D03*
X122699998Y-116000000D03*
X119292785Y-112092785D03*
X132300000Y-98700000D03*
X126132215Y-99067785D03*
X126500000Y-96012500D03*
X129000000Y-94900000D03*
X123894715Y-93705285D03*
X121200000Y-97600000D03*
X121200000Y-100100000D03*
X115900000Y-100100000D03*
X110800000Y-100100000D03*
X116100000Y-97500000D03*
X110900000Y-97500000D03*
X116400000Y-106800000D03*
X111900000Y-107100000D03*
X109400000Y-112400000D03*
X105400000Y-112400000D03*
X103300000Y-112300000D03*
X99500000Y-113800000D03*
X104200000Y-107700000D03*
X103800000Y-98600000D03*
X104100000Y-92900000D03*
X119900000Y-93400000D03*
X123700000Y-91662501D03*
X128900000Y-92637501D03*
X129100000Y-90287500D03*
X123800000Y-89700000D03*
X118744714Y-89555286D03*
X117300000Y-93600000D03*
X113400000Y-94900000D03*
X113400000Y-92637501D03*
X109500000Y-93600000D03*
X113400000Y-89700000D03*
X109500000Y-88400000D03*
X129000000Y-87100000D03*
X123800000Y-87100000D03*
X118600000Y-87100000D03*
X116094714Y-86905286D03*
X111000000Y-87100000D03*
X110800000Y-84500000D03*
X116000000Y-84500000D03*
X121100000Y-84700000D03*
X126400000Y-84500000D03*
X129200000Y-84500000D03*
X133300000Y-84300000D03*
X140400000Y-86400000D03*
X140100000Y-89300000D03*
X144000000Y-113150000D03*
X131000000Y-119100000D03*
X128700000Y-119200000D03*
X126899330Y-119135586D03*
X99400000Y-90300000D03*
X107500000Y-81300000D03*
X98600000Y-71200000D03*
X105500000Y-72600000D03*
X102400000Y-72225000D03*
X104800000Y-63500000D03*
X103900000Y-64100000D03*
X102300000Y-62500000D03*
X102700000Y-61400000D03*
X103900000Y-62600000D03*
X104000000Y-61100000D03*
X120700000Y-78000000D03*
X130521364Y-63352162D03*
X128000000Y-58100000D03*
X130261094Y-65627897D03*
X135100000Y-65300000D03*
X131500000Y-66100000D03*
X134956906Y-60362035D03*
X138400000Y-79300000D03*
X143300000Y-75800000D03*
X141800000Y-72100000D03*
X128400000Y-72100000D03*
X138137491Y-59650000D03*
X140400000Y-52950000D03*
X146700000Y-51700000D03*
X144000000Y-58300000D03*
X146900000Y-57100000D03*
X152800000Y-56150000D03*
X154750000Y-56050000D03*
X150100000Y-45950000D03*
X161450000Y-54350000D03*
X166700000Y-55200000D03*
X159550000Y-56500000D03*
X165419715Y-58469715D03*
X161300000Y-63600000D03*
X161100000Y-70800000D03*
X161100000Y-67200000D03*
X155000000Y-68600000D03*
X132850000Y-63437491D03*
X144650000Y-55600000D03*
X157732482Y-72201785D03*
X170600000Y-59750000D03*
X139350000Y-100050000D03*
X139100000Y-104850000D03*
X133650000Y-119050000D03*
X129838747Y-45333160D03*
X134544715Y-49455285D03*
X133600000Y-51800000D03*
X127700000Y-51900000D03*
X93250000Y-54550000D03*
X97450000Y-55450000D03*
X95000000Y-52600000D03*
%TO.N,RTC_BAT*%
X95412490Y-88800002D03*
%TO.N,LDO6_1P8*%
X121500000Y-62500000D03*
X112900000Y-75900000D03*
X99400000Y-82800000D03*
X136900000Y-119025002D03*
X136900000Y-121100000D03*
X149500000Y-109800000D03*
%TO.N,V_SOM*%
X96250000Y-108750000D03*
X96250000Y-111000000D03*
X96500000Y-113500000D03*
X99500000Y-116000000D03*
X98500000Y-116500000D03*
X98500000Y-115500000D03*
X96500000Y-115500000D03*
X96500000Y-116500000D03*
X96500000Y-114500000D03*
X97500000Y-116000000D03*
X97500000Y-115000000D03*
X97500000Y-114000000D03*
X96250000Y-109750000D03*
%TO.N,VPH_PWR*%
X105400000Y-104700000D03*
%TO.N,5V0_SYS*%
X162700000Y-110000000D03*
X163500000Y-110000000D03*
X164300000Y-110000000D03*
X165100000Y-110000000D03*
X118500000Y-121750000D03*
X119250000Y-121250000D03*
X118500000Y-120750000D03*
X119250000Y-120250000D03*
X118500000Y-119750000D03*
X120000000Y-119750000D03*
X120000000Y-120750000D03*
X120000000Y-121750000D03*
X120750000Y-121250000D03*
X120750000Y-120250000D03*
X121500000Y-120750000D03*
X121500000Y-121750000D03*
X122250000Y-121250000D03*
X123000000Y-121750000D03*
X174000000Y-101950000D03*
X173600000Y-101250000D03*
X174000000Y-100400000D03*
X112900000Y-62200000D03*
X77900000Y-62900000D03*
X76900000Y-67100000D03*
X76200000Y-62800000D03*
X76200000Y-62000000D03*
X76200000Y-61200000D03*
X76200000Y-60400000D03*
X157600000Y-112750000D03*
X162700000Y-108600000D03*
X163100000Y-109300000D03*
X163500000Y-108600000D03*
X163900000Y-109300000D03*
X164300000Y-108600000D03*
X164700000Y-109300000D03*
X165100000Y-108600000D03*
X165500000Y-109300000D03*
X137712499Y-44612499D03*
X151150000Y-48200000D03*
X166200000Y-50750000D03*
X163050000Y-54500000D03*
X167200000Y-63900000D03*
X159500000Y-70800000D03*
X159499996Y-71400000D03*
%TO.N,Net-(C25-Pad2)*%
X163200000Y-66400000D03*
X168000000Y-66400000D03*
%TO.N,Net-(C25-Pad1)*%
X159600000Y-65100000D03*
%TO.N,1V2_SYS*%
X100100000Y-65400000D03*
X106800000Y-66500000D03*
X99200000Y-62900000D03*
X107887160Y-60487160D03*
X103823249Y-67560682D03*
X143612503Y-66200000D03*
X146300000Y-74550000D03*
X146300000Y-73400000D03*
X146300000Y-72200000D03*
X103700000Y-58300000D03*
X100700000Y-59600000D03*
%TO.N,3V3_CAM*%
X172100000Y-108250000D03*
X170850000Y-108350000D03*
X169850000Y-108100000D03*
X115757500Y-115957500D03*
%TO.N,3V3_SYS*%
X152000000Y-107500000D03*
X151200000Y-108400000D03*
X99200000Y-64892500D03*
X108600000Y-64500000D03*
X101102547Y-66702547D03*
X88500000Y-65900000D03*
X87600000Y-59500000D03*
X104400000Y-68000000D03*
X131037510Y-120050000D03*
X153000000Y-111250000D03*
X152000000Y-111250000D03*
X152500000Y-110500000D03*
X151500000Y-110500000D03*
X151250000Y-109250000D03*
X151250000Y-107500000D03*
X151250000Y-106500000D03*
X152000000Y-106500000D03*
X123326290Y-116498659D03*
X143750000Y-70250000D03*
X143750000Y-71500000D03*
X102550000Y-58200000D03*
%TO.N,/display module/RST_N*%
X149400000Y-104400000D03*
X146750000Y-90900000D03*
X143750000Y-72750000D03*
%TO.N,LT9611_VCC33_RX*%
X128100000Y-62732500D03*
X128074035Y-61319033D03*
X140687491Y-68300000D03*
X129322316Y-67695057D03*
%TO.N,LT9611_VCC33_TX*%
X129230000Y-56820000D03*
X132010001Y-57610001D03*
X136189998Y-56990000D03*
%TO.N,LT9611_VCC33_IO*%
X137700000Y-62150000D03*
X138680000Y-58320000D03*
X136690000Y-58900000D03*
X122000000Y-73200000D03*
X139228165Y-67271835D03*
%TO.N,Net-(C53-Pad1)*%
X128080000Y-60560000D03*
%TO.N,Net-(C57-Pad1)*%
X128080000Y-59770000D03*
%TO.N,LDO17_2P85*%
X169007220Y-91807220D03*
X99400000Y-85400000D03*
%TO.N,LT9611_VDD12*%
X136650000Y-67100000D03*
X137700000Y-60450000D03*
X126174998Y-61650000D03*
X140700000Y-65000000D03*
%TO.N,LT9611_VCC12_RX*%
X128575035Y-67664505D03*
X128120000Y-63520000D03*
X140700000Y-63400000D03*
%TO.N,LT9611_VCC12_TX*%
X140700000Y-61800000D03*
X131300000Y-58000000D03*
%TO.N,/display module/TX_D2_P*%
X129256578Y-58088512D03*
%TO.N,/display module/TX_D2_N*%
X129981578Y-58088512D03*
%TO.N,/display module/TX_D0_P*%
X133313673Y-56973673D03*
%TO.N,/display module/TX_D0_N*%
X133826327Y-57486327D03*
%TO.N,/display module/V_COMM*%
X135570000Y-53280000D03*
X131980000Y-53420000D03*
X137110004Y-53590000D03*
X132362500Y-58250000D03*
X127550000Y-54000000D03*
%TO.N,Net-(C85-Pad1)*%
X132742346Y-49042630D03*
%TO.N,SD_LDO11*%
X129160000Y-99815000D03*
X123782274Y-112000000D03*
%TO.N,USIM1_VDD*%
X112400000Y-72700000D03*
%TO.N,/USB_flash_debug/USB_FLASH_5V0*%
X87600000Y-60300000D03*
%TO.N,/USB_flash_debug/5V0_DBG*%
X142100000Y-56000000D03*
%TO.N,/USB_flash_debug/DBG_USB_D_P*%
X144762500Y-50337502D03*
%TO.N,1V8_DBG*%
X147900000Y-59200000D03*
%TO.N,/USB_flash_debug/DBG_USB_D_N*%
X144037500Y-50337502D03*
%TO.N,Net-(C117-Pad2)*%
X143074998Y-54050000D03*
%TO.N,/USB_HUB_Connectors/HUB_XTALI*%
X111200000Y-67400000D03*
%TO.N,/USB_HUB_Connectors/HUB_XTALO*%
X108800000Y-65500000D03*
%TO.N,/USB_HUB_Connectors/5V0_USB*%
X88400000Y-50700000D03*
X78600000Y-59700000D03*
X79100000Y-60200000D03*
X79700000Y-59700000D03*
X80200000Y-60200000D03*
X80700000Y-59700000D03*
X101100000Y-50600000D03*
%TO.N,/USB_flash_debug/USB_FLASH_P*%
X81762500Y-50487498D03*
X82106327Y-53493673D03*
X85081840Y-57150325D03*
%TO.N,/USB_flash_debug/USB_FLASH_N*%
X81037500Y-50487498D03*
X81593673Y-54006327D03*
X84569186Y-57662979D03*
%TO.N,DEBUG_UART_RX*%
X99400000Y-78650000D03*
%TO.N,DEBUG_UART_TX*%
X99900000Y-77950000D03*
%TO.N,Net-(IC1-Pad6)*%
X161500000Y-69300000D03*
%TO.N,/cameras module/CAM1_SCL*%
X123450000Y-121150000D03*
%TO.N,/cameras module/CAM1_SDA*%
X123450000Y-120250000D03*
%TO.N,/cameras module/CAM0_SCL*%
X118363967Y-116797198D03*
%TO.N,/cameras module/CAM0_SDA*%
X119200000Y-116800000D03*
%TO.N,VSYNC_CAM2*%
X121600001Y-109475012D03*
%TO.N,VSYNC_CAM1*%
X122200000Y-110299996D03*
%TO.N,TP0_I2C_SDA*%
X114800000Y-76200000D03*
X168200000Y-89800000D03*
%TO.N,TP0_I2C_SCL*%
X113400000Y-72700000D03*
X168200000Y-88800000D03*
%TO.N,/display module/DETECT_HDMI*%
X128000000Y-49700000D03*
%TO.N,/display module/CEC_HDMI*%
X149000000Y-66750000D03*
X133000000Y-50100000D03*
%TO.N,/display module/LTtoHDMI_SCL*%
X133600000Y-49530000D03*
%TO.N,/display module/LTtoHDMI_SDA*%
X135490000Y-52070000D03*
%TO.N,Net-(J11-PadA8)*%
X101050000Y-47850000D03*
X94152973Y-50621514D03*
%TO.N,SoM_USB_D_P*%
X81444732Y-57792078D03*
X99843673Y-104643673D03*
%TO.N,SoM_USB_D_N*%
X81957386Y-58304732D03*
X100356327Y-105156327D03*
%TO.N,CAM_RST*%
X126900000Y-106600000D03*
X167200000Y-104300000D03*
%TO.N,LT9611_RST_N*%
X124900000Y-106600000D03*
X149500000Y-108100000D03*
%TO.N,LT9611_INT0*%
X122900000Y-106600000D03*
X149500000Y-109074997D03*
%TO.N,HDMI_I2C_SCL*%
X117700000Y-75000000D03*
%TO.N,HDMI_I2C_SDA*%
X117755285Y-77744715D03*
%TO.N,SoM_USB3_TX_N*%
X121262500Y-106845636D03*
X108762500Y-68400000D03*
%TO.N,SoM_USB3_TX_P*%
X120537500Y-106845636D03*
X108037500Y-68400000D03*
%TO.N,SoM_USB3_RX_N*%
X115262500Y-106850000D03*
X107062500Y-68200000D03*
%TO.N,SoM_USB3_RX_P*%
X114537500Y-106850000D03*
X106337500Y-68200000D03*
%TO.N,VOL_DOWN*%
X106400000Y-72700000D03*
X142803640Y-115507076D03*
%TO.N,VOL_UP*%
X107349999Y-72700000D03*
X143500000Y-115000002D03*
%TO.N,Net-(M1-Pad145)*%
X108400000Y-72700000D03*
%TO.N,USIM1_RST*%
X109450000Y-72700000D03*
%TO.N,USIM1_CLK*%
X110400000Y-72700000D03*
%TO.N,USIM1_DATA*%
X111400000Y-72700000D03*
%TO.N,PWRKEY*%
X162600000Y-116400000D03*
X101330278Y-112319722D03*
%TO.N,SoM_USB_FLASH_ID*%
X99800000Y-102800000D03*
X87300000Y-68100000D03*
%TO.N,LDO5_1P8*%
X146800000Y-118900000D03*
X99400000Y-81800000D03*
%TO.N,Net-(M1-Pad8)*%
X99400000Y-80800000D03*
%TO.N,Net-(M1-Pad7)*%
X99400000Y-79800000D03*
%TO.N,/display module/CEC_LT*%
X137919715Y-63319715D03*
X143125003Y-67550000D03*
%TO.N,/display module/INT0*%
X148700000Y-109800000D03*
X137749934Y-64568431D03*
X145800000Y-90900000D03*
X142400000Y-67550000D03*
X144950000Y-75000000D03*
%TO.N,Net-(R59-Pad1)*%
X136990000Y-58220000D03*
X127550000Y-56150000D03*
%TO.N,Net-(R107-Pad1)*%
X87600000Y-58500000D03*
%TO.N,Net-(R113-Pad2)*%
X109100000Y-63900000D03*
%TO.N,Net-(R118-Pad2)*%
X103000000Y-68800000D03*
%TO.N,Net-(R119-Pad2)*%
X102500000Y-68000000D03*
%TO.N,Net-(R120-Pad2)*%
X101600000Y-68000000D03*
%TO.N,USB_HUB_P*%
X104743673Y-68743673D03*
X87606327Y-57223025D03*
%TO.N,USB_HUB_N*%
X105256327Y-69256327D03*
X87093673Y-56710371D03*
%TO.N,/USB_HUB_Connectors/USB_C1_SS_TX2_P*%
X110256327Y-59956327D03*
%TO.N,/USB_HUB_Connectors/USB_C1_SS_TX2_N*%
X109743673Y-59443673D03*
%TO.N,/USB_HUB_Connectors/USB_C1_SS_TX1_P*%
X107625431Y-57651327D03*
%TO.N,/USB_HUB_Connectors/USB_C1_SS_RX2_N*%
X110900000Y-58137500D03*
X106545684Y-55333030D03*
%TO.N,/USB_HUB_Connectors/USB_C1_SS_TX1_N*%
X107112777Y-57138673D03*
%TO.N,/USB_HUB_Connectors/USB_C1_SS_RX2_P*%
X110900000Y-58862500D03*
X106033030Y-55845684D03*
%TO.N,/USB_HUB_Connectors/USB_C2_SS_TX1_P*%
X101012500Y-58300000D03*
%TO.N,/USB_HUB_Connectors/USB_C2_SS_TX1_N*%
X100287500Y-58300000D03*
%TO.N,/USB_HUB_Connectors/USB_C2_SS_RX2_N*%
X94250000Y-62712500D03*
%TO.N,/USB_HUB_Connectors/USB_C2_SS_RX2_P*%
X94250000Y-61987500D03*
%TO.N,/USB_HUB_Connectors/USB_C1_CC1*%
X109170683Y-51079317D03*
X102800000Y-51500000D03*
%TO.N,/USB_HUB_Connectors/USB_C1_CC2*%
X102800000Y-52600000D03*
%TO.N,/USB_HUB_Connectors/USB_C2_CC1*%
X90600000Y-54300000D03*
X95697898Y-50653885D03*
%TO.N,/USB_HUB_Connectors/USB_C2_CC2*%
X89500000Y-54300000D03*
%TO.N,SD_DATA_6*%
X125769745Y-112472463D03*
%TO.N,SD_DATA_4*%
X126612499Y-102500000D03*
%TO.N,SD_DATA_5*%
X126900000Y-103500000D03*
%TO.N,SD_DATA_0*%
X123000000Y-111200000D03*
%TO.N,SD_DATA_1*%
X123000000Y-112000000D03*
%TO.N,SD_DATA_2*%
X125700000Y-111497451D03*
%TO.N,SD_DATA_3*%
X124599994Y-112000000D03*
%TO.N,CAM1_CLK_P*%
X143818673Y-99930007D03*
%TO.N,CAM1_CLK_N*%
X144331327Y-99417353D03*
%TO.N,CAM1_D0_P*%
X144075000Y-97662500D03*
%TO.N,CAM1_D0_N*%
X144075000Y-96937500D03*
%TO.N,CAM1_D1_P*%
X144075000Y-95662500D03*
%TO.N,CAM1_D1_N*%
X144075000Y-94937500D03*
%TO.N,CAM1_D2_P*%
X144075000Y-93662500D03*
%TO.N,CAM1_D2_N*%
X144075000Y-92937500D03*
%TO.N,CAM1_D3_P*%
X144075000Y-91662500D03*
%TO.N,CAM1_D3_N*%
X144075000Y-90937500D03*
%TO.N,/USB_HUB_Connectors/USB_C1_SS_C_TX1_P*%
X109970684Y-52391970D03*
%TO.N,/USB_HUB_Connectors/USB_C1_SS_C_TX1_N*%
X109458030Y-51879316D03*
%TO.N,/USB_HUB_Connectors/USB_C2_SS_C_TX1_P*%
X98992884Y-52588215D03*
%TO.N,/USB_HUB_Connectors/USB_C2_SS_C_TX2_P*%
X93812500Y-51900000D03*
%TO.N,/USB_HUB_Connectors/USB_C2_SS_C_TX1_N*%
X98992884Y-51863215D03*
%TO.N,/USB_HUB_Connectors/USB_C2_SS_C_TX2_N*%
X93087500Y-51900000D03*
%TO.N,/USB_HUB_Connectors/USB_C2_SS_C_RX2_N*%
X92762500Y-55153238D03*
%TO.N,/USB_HUB_Connectors/USB_C2_SS_C_RX1_N*%
X97042500Y-51718119D03*
%TO.N,/USB_HUB_Connectors/USB_C2_SS_C_RX2_P*%
X92037500Y-55153238D03*
%TO.N,/USB_HUB_Connectors/USB_C2_SS_C_RX1_P*%
X97767500Y-51718119D03*
%TO.N,CAM2_CLK_P*%
X139193829Y-102006327D03*
%TO.N,CAM2_CLK_N*%
X138681175Y-101493673D03*
%TO.N,CAM2_D0_P*%
X138768809Y-98662500D03*
%TO.N,CAM2_D0_N*%
X138768809Y-97937500D03*
%TO.N,CAM2_D1_P*%
X139100000Y-94662500D03*
%TO.N,CAM2_D1_N*%
X139100000Y-93937500D03*
%TO.N,CAM2_D2_P*%
X138943673Y-90906327D03*
%TO.N,CAM2_D2_N*%
X139456327Y-90393673D03*
%TO.N,CAM2_D3_P*%
X138993673Y-87306327D03*
%TO.N,CAM2_D3_N*%
X139506327Y-86793673D03*
%TO.N,/display module/TX_D2_Ferr_P*%
X126368673Y-53006327D03*
%TO.N,/display module/TX_D2_Ferr_N*%
X126881327Y-52493673D03*
%TO.N,/display module/TX_D0_Ferr_P*%
X131600000Y-52612500D03*
%TO.N,/display module/TX_D0_Ferr_N*%
X131600000Y-51887500D03*
%TO.N,/display module/TX_D1_Ferr_P*%
X129437500Y-45981860D03*
X129587500Y-52415161D03*
%TO.N,/display module/TX_D1_Ferr_N*%
X130162500Y-45981860D03*
X130312500Y-52415161D03*
%TO.N,/display module/TX_CLK_Ferr_P*%
X131526804Y-51139458D03*
X131302921Y-45467759D03*
%TO.N,/display module/TX_CLK_Ferr_N*%
X132039458Y-50626804D03*
X132027921Y-45467759D03*
%TO.N,SoMtoDisplay_D3_N*%
X144600000Y-76937500D03*
%TO.N,SoMtoDisplay_D3_P*%
X144600000Y-77662500D03*
%TO.N,SoMtoDisplay_D2_N*%
X144600000Y-78937500D03*
%TO.N,SoMtoDisplay_D2_P*%
X144600000Y-79662500D03*
%TO.N,SoMtoDisplay_D1_N*%
X144600000Y-80937500D03*
%TO.N,SoMtoDisplay_D1_P*%
X144600000Y-81662500D03*
%TO.N,SoMtoDisplay_D0_N*%
X144600000Y-82937500D03*
%TO.N,SoMtoDisplay_D0_P*%
X144600000Y-83662500D03*
%TO.N,SoMtoDisplay_CLK_N*%
X144600000Y-84937500D03*
%TO.N,SoMtoDisplay_CLK_P*%
X144600000Y-85662500D03*
%TO.N,SoMtoLT_D3_N*%
X129537500Y-72512482D03*
X130193673Y-68753916D03*
%TO.N,SoMtoLT_D3_P*%
X130262500Y-72512482D03*
X130706327Y-69266570D03*
%TO.N,SoMtoLT_D2_N*%
X131671213Y-68681861D03*
X131537500Y-72512298D03*
%TO.N,SoMtoLT_D2_P*%
X132183867Y-69194515D03*
X132262500Y-72512298D03*
%TO.N,SoMtoLT_D1_N*%
X133537500Y-72473175D03*
X133812500Y-68331134D03*
%TO.N,SoMtoLT_D1_P*%
X134262500Y-72473175D03*
X134537500Y-68331134D03*
%TO.N,SoMtoLT_D0_N*%
X135537500Y-72476044D03*
X135368515Y-68568829D03*
%TO.N,SoMtoLT_D0_P*%
X136262500Y-72476044D03*
X135881169Y-68056175D03*
%TO.N,SoMtoLT_CLK_N*%
X136875000Y-69262500D03*
X137537500Y-72477945D03*
%TO.N,SoMtoLT_CLK_P*%
X136875000Y-68537500D03*
X138262500Y-72477945D03*
%TO.N,USB_BOOT*%
X143450000Y-116500000D03*
X120400000Y-112200000D03*
%TO.N,/USB_HUB_Connectors/USB_C1_SS_C_RX1_N*%
X111487442Y-51478137D03*
%TO.N,/USB_HUB_Connectors/USB_C1_SS_C_RX1_P*%
X112000096Y-50965483D03*
%TO.N,/display module/SoMtoLT_SDA*%
X137800000Y-65450000D03*
X122500000Y-74000004D03*
%TO.N,/USB_HUB_Connectors/USB_C1_D2_N*%
X113500000Y-52137500D03*
%TO.N,/USB_HUB_Connectors/USB_C1_D1_P*%
X109712500Y-54350000D03*
X109106327Y-57756327D03*
%TO.N,/USB_HUB_Connectors/USB_C1_D1_N*%
X108987500Y-54350000D03*
X108593673Y-57243673D03*
%TO.N,/USB_HUB_Connectors/USB_C1_D2_P*%
X113500000Y-52862500D03*
%TO.N,/USB_HUB_Connectors/USB_C2_D2_P*%
X95514357Y-55673143D03*
%TO.N,/USB_HUB_Connectors/USB_C2_D2_N*%
X95514357Y-56398143D03*
%TO.N,/USB_HUB_Connectors/USB_C2_D1_P*%
X97411327Y-56240399D03*
X99400000Y-57037500D03*
%TO.N,/USB_HUB_Connectors/USB_C2_D1_N*%
X96898673Y-56753053D03*
X99400000Y-57762500D03*
%TO.N,/display module/SoMtoLT_SCL*%
X122000000Y-74750000D03*
X137850000Y-66349994D03*
%TO.N,Net-(J10-PadA8)*%
X107837797Y-50325002D03*
X115000000Y-47650000D03*
%TO.N,/USB-PD/VREG_2V7*%
X156700000Y-54250000D03*
X149550000Y-57900000D03*
%TO.N,PD_VDD*%
X157100000Y-58900000D03*
X158000000Y-57600000D03*
X158200000Y-58900000D03*
X157700000Y-58400000D03*
X158800000Y-57000000D03*
%TO.N,STUSB4500_AB_SIDE*%
X154550000Y-58200000D03*
%TO.N,Net-(R148-Pad2)*%
X155050000Y-58750000D03*
X157700000Y-54300000D03*
%TO.N,Net-(R150-Pad2)*%
X154050450Y-58725431D03*
X156037500Y-53000000D03*
%TO.N,STUSB4500_GPIO*%
X153550000Y-58200000D03*
%TO.N,STUSB4500_ATTACH*%
X149450000Y-53750000D03*
%TO.N,STUSB4500_SCL*%
X151900000Y-53550000D03*
%TO.N,STUSB4500_SDA*%
X151050000Y-53699999D03*
%TO.N,STUSB4500_ALERT*%
X155850000Y-57200000D03*
%TO.N,Net-(R157-Pad2)*%
X150326841Y-53751654D03*
%TO.N,/USB-PD/STUSB4500_PWR_OK2*%
X159902164Y-54853246D03*
%TO.N,Net-(D34-Pad1)*%
X163000000Y-51750000D03*
%TO.N,/USB-PD/STUSB4500_PWR_OK3*%
X153050000Y-58750000D03*
X159400000Y-54250000D03*
%TO.N,Net-(D34-Pad3)*%
X160800000Y-51750000D03*
%TO.N,Net-(D34-Pad2)*%
X161900000Y-51750000D03*
%TO.N,VDD*%
X168750000Y-60100000D03*
X157259354Y-63100000D03*
%TO.N,AUX_VDD*%
X166950000Y-59050000D03*
%TO.N,Net-(Q11-Pad2)*%
X169500000Y-59200000D03*
%TO.N,Net-(C156-Pad2)*%
X168776841Y-59251654D03*
%TO.N,Net-(C157-Pad2)*%
X163700000Y-58150000D03*
X172800000Y-55850000D03*
%TO.N,Net-(C159-Pad2)*%
X166232284Y-58947470D03*
X168550000Y-53600000D03*
%TO.N,Net-(D36-Pad2)*%
X166500000Y-51900000D03*
%TO.N,Net-(D37-Pad2)*%
X165712490Y-52341815D03*
%TO.N,Net-(Q10-Pad2)*%
X168650000Y-54500000D03*
%TO.N,Net-(M1-Pad168)*%
X107100000Y-108300000D03*
%TO.N,/peripherals/ANT_GNSS_*%
X118900000Y-62400000D03*
%TO.N,/SoM/USB_VBUS_DET*%
X103400000Y-115950000D03*
%TO.N,LDO10_2P8*%
X99400000Y-84250000D03*
%TD*%
D22*
%TO.N,LDO6_1P8*%
X149500000Y-111171502D02*
X149500000Y-109800000D01*
X141646500Y-119025002D02*
X149500000Y-111171502D01*
X136900000Y-119025002D02*
X141646500Y-119025002D01*
X102700000Y-86100000D02*
X99400000Y-82800000D01*
X102700000Y-113200000D02*
X102700000Y-86100000D01*
X107900000Y-118400000D02*
X102700000Y-113200000D01*
X136274998Y-118400000D02*
X107900000Y-118400000D01*
X136900000Y-119025002D02*
X136274998Y-118400000D01*
D23*
%TO.N,1V2_SYS*%
X146300000Y-74649002D02*
X146300000Y-73400000D01*
X145274001Y-75675001D02*
X146300000Y-74649002D01*
X144863497Y-75675001D02*
X145274001Y-75675001D01*
X144063497Y-76475001D02*
X144863497Y-75675001D01*
X122725999Y-76475001D02*
X144063497Y-76475001D01*
X109775001Y-63524003D02*
X122725999Y-76475001D01*
X109775001Y-62375001D02*
X109775001Y-63524003D01*
X107887160Y-60487160D02*
X109775001Y-62375001D01*
X143612503Y-66200000D02*
X146300000Y-68900000D01*
X146300000Y-73400000D02*
X146300000Y-72200000D01*
X146300000Y-72200000D02*
X146300000Y-68900000D01*
D22*
%TO.N,/display module/RST_N*%
X149400000Y-93550000D02*
X146750000Y-90900000D01*
X149400000Y-104400000D02*
X149400000Y-93550000D01*
D24*
%TO.N,LT9611_VCC33_IO*%
X138979999Y-58619999D02*
X138680000Y-58320000D01*
X137700000Y-62150000D02*
X138979999Y-60870001D01*
X138979999Y-60870001D02*
X138979999Y-58619999D01*
X139228165Y-66847571D02*
X139228165Y-67271835D01*
X139228165Y-63678165D02*
X139228165Y-66847571D01*
X137700000Y-62150000D02*
X139228165Y-63678165D01*
X139228165Y-67696099D02*
X139228165Y-67271835D01*
X139228165Y-72321835D02*
X139228165Y-67696099D01*
X138350000Y-73200000D02*
X139228165Y-72321835D01*
X122000000Y-73200000D02*
X138350000Y-73200000D01*
%TO.N,LT9611_VDD12*%
X137700000Y-60450000D02*
X137275736Y-60450000D01*
X137275736Y-60450000D02*
X135500000Y-62250000D01*
X126174998Y-61650000D02*
X126600000Y-61650000D01*
X135475736Y-62250000D02*
X135500000Y-62250000D01*
X126600000Y-61650000D02*
X126950000Y-62000000D01*
X126950000Y-62000000D02*
X128350000Y-62000000D01*
X128350000Y-62000000D02*
X128594999Y-62244999D01*
X135470735Y-62244999D02*
X135475736Y-62250000D01*
X128594999Y-62244999D02*
X135470735Y-62244999D01*
X136650000Y-63400000D02*
X135500000Y-62250000D01*
X136650000Y-67100000D02*
X136650000Y-63400000D01*
D22*
%TO.N,LT9611_VCC12_RX*%
X128120000Y-63520000D02*
X128184863Y-63455137D01*
D24*
X129800000Y-63455137D02*
X130044863Y-63700000D01*
X128184863Y-63455137D02*
X129800000Y-63455137D01*
X128575035Y-67664505D02*
X130039540Y-66200000D01*
X130039540Y-66200000D02*
X130300000Y-66200000D01*
%TO.N,/display module/V_COMM*%
X135430000Y-53420000D02*
X131980000Y-53420000D01*
X135570000Y-53280000D02*
X135430000Y-53420000D01*
D25*
X135880000Y-53590000D02*
X137110004Y-53590000D01*
X135570000Y-53280000D02*
X135880000Y-53590000D01*
D24*
X132362500Y-58250000D02*
X132690000Y-57922500D01*
X132690000Y-57922500D02*
X132690000Y-57290000D01*
X132690000Y-57290000D02*
X131980000Y-56580000D01*
X131980000Y-56580000D02*
X131980000Y-53420000D01*
X131400000Y-54000000D02*
X127550000Y-54000000D01*
X131980000Y-53420000D02*
X131400000Y-54000000D01*
D22*
%TO.N,/USB_flash_debug/DBG_USB_D_P*%
X144275000Y-48155000D02*
X144000000Y-47880000D01*
X144762500Y-50337502D02*
X144525000Y-50575002D01*
X143225000Y-49648222D02*
X144275000Y-48598222D01*
X144275000Y-48598222D02*
X144275000Y-48155000D01*
X144101778Y-51125000D02*
X143648222Y-51125000D01*
X144525000Y-50701778D02*
X144101778Y-51125000D01*
X144525000Y-50575002D02*
X144525000Y-50701778D01*
X143225000Y-50701778D02*
X143225000Y-49648222D01*
X143648222Y-51125000D02*
X143225000Y-50701778D01*
%TO.N,/USB_flash_debug/DBG_USB_D_N*%
X144275000Y-50575002D02*
X144037500Y-50337502D01*
X144275000Y-50598222D02*
X144275000Y-50575002D01*
X143751778Y-50875000D02*
X143998222Y-50875000D01*
X143475000Y-49751778D02*
X143475000Y-50598222D01*
X144065383Y-49161395D02*
X143475000Y-49751778D01*
X144171448Y-49055331D02*
X144065383Y-49161395D01*
X144193334Y-49037879D02*
X144171448Y-49055331D01*
X144218553Y-49025734D02*
X144193334Y-49037879D01*
X144245841Y-49019507D02*
X144218553Y-49025734D01*
X144747175Y-49118234D02*
X144753403Y-49145524D01*
X144735030Y-49093015D02*
X144747175Y-49118234D01*
X144507549Y-48856670D02*
X144525001Y-48878554D01*
X143475000Y-50598222D02*
X143751778Y-50875000D01*
X144495404Y-48831451D02*
X144507549Y-48856670D01*
X144753403Y-49145524D02*
X144753402Y-49173516D01*
X144489175Y-48776171D02*
X144489176Y-48804161D01*
X144495404Y-48748881D02*
X144489175Y-48776171D01*
X144301123Y-49025734D02*
X144273833Y-49019506D01*
X144747175Y-49200804D02*
X144735030Y-49226023D01*
X144717578Y-49071131D02*
X144735030Y-49093015D01*
X144525001Y-48878554D02*
X144717578Y-49071131D01*
X144525000Y-48701778D02*
X144507549Y-48723662D01*
X144507549Y-48723662D02*
X144495404Y-48748881D01*
X144615194Y-49283734D02*
X144587904Y-49277506D01*
X144525000Y-48155000D02*
X144525000Y-48701778D01*
X143998222Y-50875000D02*
X144275000Y-50598222D01*
X144800000Y-47880000D02*
X144525000Y-48155000D01*
X144670474Y-49277506D02*
X144643186Y-49283733D01*
X144753402Y-49173516D02*
X144747175Y-49200804D01*
X144735030Y-49226023D02*
X144717578Y-49247907D01*
X144643186Y-49283733D02*
X144615194Y-49283734D01*
X144540802Y-49247907D02*
X144348226Y-49055331D01*
X144695693Y-49265361D02*
X144670474Y-49277506D01*
X144717578Y-49247907D02*
X144695693Y-49265361D01*
X144348226Y-49055331D02*
X144326342Y-49037879D01*
X144587904Y-49277506D02*
X144562685Y-49265361D01*
X144489176Y-48804161D02*
X144495404Y-48831451D01*
X144562685Y-49265361D02*
X144540802Y-49247907D01*
X144326342Y-49037879D02*
X144301123Y-49025734D01*
X144273833Y-49019506D02*
X144245841Y-49019507D01*
%TO.N,/USB_flash_debug/USB_FLASH_P*%
X80974998Y-51275000D02*
X81762500Y-50487498D01*
X80548222Y-51275000D02*
X80974998Y-51275000D01*
X80225000Y-50951778D02*
X80548222Y-51275000D01*
X80225000Y-49598222D02*
X80225000Y-50951778D01*
X81275000Y-48548222D02*
X80225000Y-49598222D01*
X81275000Y-48155000D02*
X81275000Y-48548222D01*
X81000000Y-47880000D02*
X81275000Y-48155000D01*
%TO.N,/USB_flash_debug/USB_FLASH_N*%
X81037500Y-50858944D02*
X81037500Y-50487498D01*
X80475000Y-49701778D02*
X80475000Y-50848222D01*
X80817896Y-49358883D02*
X80475000Y-49701778D01*
X80839781Y-49341433D02*
X80817896Y-49358883D01*
X80892289Y-49323059D02*
X80865000Y-49329288D01*
X81429136Y-49086244D02*
X81348225Y-49005333D01*
X81122688Y-49469393D02*
X81097469Y-49457248D01*
X81495404Y-48781451D02*
X81507549Y-48806670D01*
X80994673Y-49358885D02*
X80972789Y-49341433D01*
X81476240Y-49115841D02*
X81451021Y-49103696D01*
X81605912Y-49086244D02*
X81584029Y-49103696D01*
X81495404Y-48698881D02*
X81489175Y-48726171D01*
X81635510Y-48956569D02*
X81641738Y-48983860D01*
X81171448Y-49005331D02*
X81153997Y-49027214D01*
X81584029Y-49103696D02*
X81558810Y-49115841D01*
X80475000Y-50848222D02*
X80651778Y-51025000D01*
X81252360Y-49439796D02*
X81230477Y-49457248D01*
X81135623Y-49079723D02*
X81135624Y-49107713D01*
X80651778Y-51025000D02*
X80871444Y-51025000D01*
X81348225Y-49005333D02*
X81326341Y-48987881D01*
X81641738Y-48983860D02*
X81641739Y-49011850D01*
X80865000Y-49329288D02*
X80839781Y-49341433D01*
X81800000Y-47880000D02*
X81525000Y-48155000D01*
X81451021Y-49103696D02*
X81429136Y-49086244D01*
X81605913Y-48909466D02*
X81623365Y-48931350D01*
X81641739Y-49011850D02*
X81635510Y-49039139D01*
X81288187Y-49365402D02*
X81281958Y-49392691D01*
X81177968Y-49475622D02*
X81149978Y-49475621D01*
X81525000Y-48155000D02*
X81525000Y-48651778D01*
X81273833Y-48969506D02*
X81245841Y-48969507D01*
X81623365Y-49064358D02*
X81605912Y-49086244D01*
X81326341Y-48987881D02*
X81301122Y-48975736D01*
X81531520Y-49122070D02*
X81503530Y-49122069D01*
X81489176Y-48754161D02*
X81495404Y-48781451D01*
X81635510Y-49039139D02*
X81623365Y-49064358D01*
X81097469Y-49457248D02*
X81075584Y-49439796D01*
X81623365Y-48931350D02*
X81635510Y-48956569D01*
X81153997Y-49027214D02*
X81141852Y-49052433D01*
X80920281Y-49323058D02*
X80892289Y-49323059D01*
X80871444Y-51025000D02*
X81037500Y-50858944D01*
X81503530Y-49122069D02*
X81476240Y-49115841D01*
X81525000Y-48651778D02*
X81507549Y-48673662D01*
X81230477Y-49457248D02*
X81205258Y-49469393D01*
X81489175Y-48726171D02*
X81489176Y-48754161D01*
X81525001Y-48828554D02*
X81605913Y-48909466D01*
X81281958Y-49392691D02*
X81269813Y-49417910D01*
X81245841Y-48969507D02*
X81218552Y-48975736D01*
X81288186Y-49337412D02*
X81288187Y-49365402D01*
X81218552Y-48975736D02*
X81193333Y-48987881D01*
X81193333Y-48987881D02*
X81171448Y-49005331D01*
X81141852Y-49135003D02*
X81153997Y-49160222D01*
X81135624Y-49107713D02*
X81141852Y-49135003D01*
X81153997Y-49160222D02*
X81171449Y-49182106D01*
X81171449Y-49182106D02*
X81252361Y-49263018D01*
X81301122Y-48975736D02*
X81273833Y-48969506D01*
X81205258Y-49469393D02*
X81177968Y-49475622D01*
X81252361Y-49263018D02*
X81269813Y-49284902D01*
X81507549Y-48806670D02*
X81525001Y-48828554D01*
X81141852Y-49052433D02*
X81135623Y-49079723D01*
X81149978Y-49475621D02*
X81122688Y-49469393D01*
X81269813Y-49284902D02*
X81281958Y-49310121D01*
X81558810Y-49115841D02*
X81531520Y-49122070D01*
X81281958Y-49310121D02*
X81288186Y-49337412D01*
X81269813Y-49417910D02*
X81252360Y-49439796D01*
X81507549Y-48673662D02*
X81495404Y-48698881D01*
X81075584Y-49439796D02*
X80994673Y-49358885D01*
X80972789Y-49341433D02*
X80947570Y-49329288D01*
X80947570Y-49329288D02*
X80920281Y-49323058D01*
%TO.N,TP0_I2C_SDA*%
X128400000Y-89800000D02*
X168200000Y-89800000D01*
X114800000Y-76200000D02*
X128400000Y-89800000D01*
%TO.N,TP0_I2C_SCL*%
X113400000Y-72700000D02*
X129100000Y-88400000D01*
X129500000Y-88800000D02*
X168200000Y-88800000D01*
X129100000Y-88400000D02*
X129500000Y-88800000D01*
%TO.N,/display module/CEC_HDMI*%
X149000000Y-58478498D02*
X141221501Y-50699999D01*
X133599999Y-50699999D02*
X133000000Y-50100000D01*
X141221501Y-50699999D02*
X133599999Y-50699999D01*
X149000000Y-66750000D02*
X149000000Y-58478498D01*
%TO.N,Net-(J11-PadA8)*%
X101050000Y-47850000D02*
X99969136Y-47850000D01*
X98326646Y-49492490D02*
X99969136Y-47850000D01*
X95281997Y-49492490D02*
X98326646Y-49492490D01*
X94152973Y-50621514D02*
X95281997Y-49492490D01*
%TO.N,SoM_USB_D_P*%
X92248222Y-70925000D02*
X81444732Y-60121510D01*
X81444732Y-59251486D02*
X81444732Y-57792078D01*
X93248222Y-70925000D02*
X92248222Y-70925000D01*
X96375000Y-98551778D02*
X96375000Y-74051778D01*
X81444732Y-60121510D02*
X81444732Y-59251486D01*
X100475000Y-102651778D02*
X96375000Y-98551778D01*
X100475000Y-104348223D02*
X100475000Y-102651778D01*
X100179550Y-104643673D02*
X100475000Y-104348223D01*
X96375000Y-74051778D02*
X93248222Y-70925000D01*
X99843673Y-104643673D02*
X100179550Y-104643673D01*
%TO.N,SoM_USB_D_N*%
X81694732Y-60017954D02*
X81694732Y-58567386D01*
X92351778Y-70675000D02*
X81694732Y-60017954D01*
X96625000Y-73948222D02*
X93351778Y-70675000D01*
X96625000Y-98448222D02*
X96625000Y-73948222D01*
X100725000Y-102875000D02*
X100725000Y-102548222D01*
X100727745Y-102899358D02*
X100725000Y-102875000D01*
X100748883Y-103275682D02*
X100766216Y-103258349D01*
X100786972Y-103245307D02*
X100810109Y-103237211D01*
X100858827Y-103231722D02*
X100881964Y-103223626D01*
X100941191Y-103149358D02*
X100943935Y-103125000D01*
X100725000Y-103343934D02*
X100727745Y-103319575D01*
X100933095Y-103172495D02*
X100941191Y-103149358D01*
X100727745Y-103319575D02*
X100735841Y-103296438D01*
X100933095Y-103046438D02*
X100920053Y-103025682D01*
X100356327Y-104820450D02*
X100725000Y-104451777D01*
X100881964Y-103223626D02*
X100902720Y-103210584D01*
X100748883Y-102943251D02*
X100735841Y-102922495D01*
X100943935Y-103125000D02*
X100943935Y-103093934D01*
X100725000Y-104451777D02*
X100725000Y-103343934D01*
X100810109Y-102981722D02*
X100786972Y-102973626D01*
X81694732Y-58567386D02*
X81957386Y-58304732D01*
X100943935Y-103093934D02*
X100941191Y-103069575D01*
X100941191Y-103069575D02*
X100933095Y-103046438D01*
X100725000Y-102548222D02*
X96625000Y-98448222D01*
X100920053Y-103025682D02*
X100902720Y-103008349D01*
X100902720Y-103008349D02*
X100881964Y-102995307D01*
X100902720Y-103210584D02*
X100920053Y-103193251D01*
X100810109Y-103237211D02*
X100858827Y-103231722D01*
X100735841Y-102922495D02*
X100727745Y-102899358D01*
X93351778Y-70675000D02*
X92351778Y-70675000D01*
X100920053Y-103193251D02*
X100933095Y-103172495D01*
X100766216Y-103258349D02*
X100786972Y-103245307D01*
X100356327Y-105156327D02*
X100356327Y-104820450D01*
X100881964Y-102995307D02*
X100858827Y-102987211D01*
X100735841Y-103296438D02*
X100748883Y-103275682D01*
X100786972Y-102973626D02*
X100766216Y-102960584D01*
X100858827Y-102987211D02*
X100810109Y-102981722D01*
X100766216Y-102960584D02*
X100748883Y-102943251D01*
%TO.N,VOL_DOWN*%
X142800000Y-115503436D02*
X142803640Y-115507076D01*
X142800000Y-115000000D02*
X142800000Y-115503436D01*
X106400000Y-78600000D02*
X142800000Y-115000000D01*
X106400000Y-72700000D02*
X106400000Y-78600000D01*
%TO.N,VOL_UP*%
X107349999Y-72700000D02*
X107349999Y-78850001D01*
X107349999Y-78850001D02*
X143500000Y-115000002D01*
%TO.N,SoM_USB_FLASH_ID*%
X88378498Y-68100000D02*
X87300000Y-68100000D01*
X93800000Y-73521502D02*
X88378498Y-68100000D01*
X93800000Y-99100000D02*
X93800000Y-73521502D01*
X97500000Y-102800000D02*
X93800000Y-99100000D01*
X99800000Y-102800000D02*
X97500000Y-102800000D01*
%TO.N,LDO5_1P8*%
X98912499Y-82287501D02*
X99400000Y-81800000D01*
X98912499Y-83034001D02*
X98912499Y-82287501D01*
X102300000Y-113153567D02*
X102300000Y-86421502D01*
X108346433Y-119200000D02*
X102300000Y-113153567D01*
X125800000Y-119200000D02*
X108346433Y-119200000D01*
X145162499Y-120537501D02*
X127137501Y-120537501D01*
X146800000Y-118900000D02*
X145162499Y-120537501D01*
X102300000Y-86421502D02*
X98912499Y-83034001D01*
X127137501Y-120537501D02*
X125800000Y-119200000D01*
%TO.N,/display module/INT0*%
X148700000Y-93800000D02*
X145800000Y-90900000D01*
X148700000Y-109800000D02*
X148700000Y-93800000D01*
X142400000Y-72450000D02*
X144950000Y-75000000D01*
X142400000Y-67550000D02*
X142400000Y-72450000D01*
D26*
%TO.N,USB_HUB_P*%
X104142010Y-69660000D02*
X104743673Y-69058337D01*
X88733610Y-58350308D02*
X100043302Y-69660000D01*
X88694514Y-58301285D02*
X88733610Y-58350308D01*
X88667311Y-58244795D02*
X88694514Y-58301285D01*
X88672672Y-57309696D02*
X88735372Y-57309695D01*
X88506033Y-57389945D02*
X88555054Y-57350852D01*
X88555054Y-57350852D02*
X88611544Y-57323648D01*
X88337629Y-57558348D02*
X88506033Y-57389945D01*
X88108290Y-57638598D02*
X88170990Y-57638598D01*
X88968308Y-57495455D02*
X88982260Y-57556583D01*
X88852992Y-57350852D02*
X88902011Y-57389944D01*
X88232118Y-57624645D02*
X88288609Y-57597441D01*
X88047162Y-57624646D02*
X88108290Y-57638598D01*
X88968309Y-57680413D02*
X88941103Y-57736902D01*
X88170990Y-57638598D02*
X88232118Y-57624645D01*
X104743673Y-69058337D02*
X104743673Y-68743673D01*
X88288609Y-57597441D02*
X88337629Y-57558348D01*
X87606327Y-57223025D02*
X87941651Y-57558349D01*
X88902012Y-57785924D02*
X88733607Y-57954326D01*
X88735372Y-57309695D02*
X88796500Y-57323647D01*
X88796500Y-57323647D02*
X88852992Y-57350852D01*
X88653358Y-58120965D02*
X88653359Y-58183667D01*
X88653359Y-58183667D02*
X88667311Y-58244795D01*
X88902011Y-57389944D02*
X88941103Y-57438964D01*
X88941103Y-57438964D02*
X88968308Y-57495455D01*
X88982260Y-57556583D02*
X88982260Y-57619283D01*
X88982260Y-57619283D02*
X88968309Y-57680413D01*
X87990671Y-57597441D02*
X88047162Y-57624646D01*
X88941103Y-57736902D02*
X88902012Y-57785924D01*
X88733607Y-57954326D02*
X88694514Y-58003347D01*
X100043302Y-69660000D02*
X104142010Y-69660000D01*
X88611544Y-57323648D02*
X88672672Y-57309696D01*
X87941651Y-57558349D02*
X87990671Y-57597441D01*
X88694514Y-58003347D02*
X88667310Y-58059837D01*
X88667310Y-58059837D02*
X88653358Y-58120965D01*
%TO.N,USB_HUB_N*%
X104941663Y-69256327D02*
X105256327Y-69256327D01*
X87712848Y-57725526D02*
X99927322Y-69940000D01*
X87103826Y-57464226D02*
X87365126Y-57725526D01*
X87103826Y-57116504D02*
X87103826Y-57464226D01*
X87093673Y-56710371D02*
X87093673Y-57106351D01*
X87093673Y-57106351D02*
X87103826Y-57116504D01*
X104257990Y-69940000D02*
X104941663Y-69256327D01*
X87365126Y-57725526D02*
X87712848Y-57725526D01*
X99927322Y-69940000D02*
X104257990Y-69940000D01*
D22*
%TO.N,/USB_HUB_Connectors/USB_C1_CC1*%
X103220683Y-51079317D02*
X102800000Y-51500000D01*
X109170683Y-51079317D02*
X103220683Y-51079317D01*
%TO.N,/USB_HUB_Connectors/USB_C1_CC2*%
X102312499Y-52112499D02*
X102800000Y-52600000D01*
X102312499Y-47587501D02*
X102312499Y-52112499D01*
X103607510Y-46292490D02*
X102312499Y-47587501D01*
X106712490Y-46292490D02*
X103607510Y-46292490D01*
X107600000Y-47180000D02*
X106712490Y-46292490D01*
%TO.N,/USB_HUB_Connectors/USB_C2_CC1*%
X90600000Y-54300000D02*
X92524264Y-54300000D01*
X92524264Y-54300000D02*
X95697898Y-51126366D01*
X95697898Y-51126366D02*
X95697898Y-50653885D01*
%TO.N,/USB_HUB_Connectors/USB_C2_CC2*%
X89500000Y-50900000D02*
X89500000Y-54300000D01*
X93212490Y-46292490D02*
X90357510Y-46292490D01*
X89500000Y-47150000D02*
X89500000Y-50900000D01*
X90357510Y-46292490D02*
X89500000Y-47150000D01*
X94100000Y-47180000D02*
X93212490Y-46292490D01*
%TO.N,Net-(J10-PadA8)*%
X113638502Y-47650000D02*
X115000000Y-47650000D01*
X110963500Y-50325002D02*
X113638502Y-47650000D01*
X107837797Y-50325002D02*
X110963500Y-50325002D01*
%TO.N,/USB-PD/VREG_2V7*%
X153200000Y-54250000D02*
X149550000Y-57900000D01*
X156700000Y-54250000D02*
X153200000Y-54250000D01*
%TO.N,Net-(R148-Pad2)*%
X157700000Y-56100000D02*
X157700000Y-54300000D01*
X155050000Y-58750000D02*
X157700000Y-56100000D01*
%TO.N,Net-(R150-Pad2)*%
X156461764Y-53000000D02*
X156037500Y-53000000D01*
X157187501Y-53725737D02*
X156461764Y-53000000D01*
X157187501Y-54862499D02*
X157187501Y-53725737D01*
X154050450Y-57999550D02*
X157187501Y-54862499D01*
X154050450Y-58725431D02*
X154050450Y-57999550D01*
%TO.N,/USB-PD/STUSB4500_PWR_OK3*%
X159400000Y-54674264D02*
X159400000Y-54250000D01*
X159400000Y-55321502D02*
X159400000Y-54674264D01*
X155484001Y-59237501D02*
X159400000Y-55321502D01*
X153537501Y-59237501D02*
X155484001Y-59237501D01*
X153050000Y-58750000D02*
X153537501Y-59237501D01*
%TO.N,Net-(C157-Pad2)*%
X166000000Y-55850000D02*
X172800000Y-55850000D01*
X163700000Y-58150000D02*
X166000000Y-55850000D01*
%TD*%
D27*
%TO.N,LT9611_VCC12_RX*%
X129990577Y-63513174D02*
X130032188Y-63613632D01*
X130092598Y-63704042D01*
X130169484Y-63780928D01*
X130259894Y-63841338D01*
X130360352Y-63882949D01*
X130466997Y-63904162D01*
X130575731Y-63904162D01*
X130682376Y-63882949D01*
X130739848Y-63859143D01*
X131023000Y-64151429D01*
X131023000Y-65820307D01*
X131010824Y-65838530D01*
X130969213Y-65938988D01*
X130948000Y-66045633D01*
X130948000Y-66154367D01*
X130961652Y-66223000D01*
X129975964Y-66223000D01*
X129974961Y-66100593D01*
X129999624Y-66117073D01*
X130100082Y-66158684D01*
X130206727Y-66179897D01*
X130315461Y-66179897D01*
X130422106Y-66158684D01*
X130522564Y-66117073D01*
X130612974Y-66056663D01*
X130689860Y-65979777D01*
X130750270Y-65889367D01*
X130791881Y-65788909D01*
X130813094Y-65682264D01*
X130813094Y-65573530D01*
X130791881Y-65466885D01*
X130750270Y-65366427D01*
X130689860Y-65276017D01*
X130612974Y-65199131D01*
X130522564Y-65138721D01*
X130422106Y-65097110D01*
X130315461Y-65075897D01*
X130206727Y-65075897D01*
X130100082Y-65097110D01*
X129999624Y-65138721D01*
X129967254Y-65160350D01*
X129953046Y-63427000D01*
X129973436Y-63427000D01*
X129990577Y-63513174D01*
%TA.AperFunction,Conductor*%
D28*
G36*
X129990577Y-63513174D02*
G01*
X130032188Y-63613632D01*
X130092598Y-63704042D01*
X130169484Y-63780928D01*
X130259894Y-63841338D01*
X130360352Y-63882949D01*
X130466997Y-63904162D01*
X130575731Y-63904162D01*
X130682376Y-63882949D01*
X130739848Y-63859143D01*
X131023000Y-64151429D01*
X131023000Y-65820307D01*
X131010824Y-65838530D01*
X130969213Y-65938988D01*
X130948000Y-66045633D01*
X130948000Y-66154367D01*
X130961652Y-66223000D01*
X129975964Y-66223000D01*
X129974961Y-66100593D01*
X129999624Y-66117073D01*
X130100082Y-66158684D01*
X130206727Y-66179897D01*
X130315461Y-66179897D01*
X130422106Y-66158684D01*
X130522564Y-66117073D01*
X130612974Y-66056663D01*
X130689860Y-65979777D01*
X130750270Y-65889367D01*
X130791881Y-65788909D01*
X130813094Y-65682264D01*
X130813094Y-65573530D01*
X130791881Y-65466885D01*
X130750270Y-65366427D01*
X130689860Y-65276017D01*
X130612974Y-65199131D01*
X130522564Y-65138721D01*
X130422106Y-65097110D01*
X130315461Y-65075897D01*
X130206727Y-65075897D01*
X130100082Y-65097110D01*
X129999624Y-65138721D01*
X129967254Y-65160350D01*
X129953046Y-63427000D01*
X129973436Y-63427000D01*
X129990577Y-63513174D01*
G37*
%TD.AperFunction*%
%TD*%
M02*
