%TF.GenerationSoftware,KiCad,Pcbnew,5.1.9+dfsg1-1*%
%TF.CreationDate,2022-02-15T13:48:39+01:00*%
%TF.ProjectId,sc606-baseboard,73633630-362d-4626-9173-65626f617264,rev?*%
%TF.SameCoordinates,Original*%
%TF.FileFunction,Plated,1,6,PTH,Mixed*%
%TF.FilePolarity,Positive*%
%FSLAX46Y46*%
G04 Gerber Fmt 4.6, Leading zero omitted, Abs format (unit mm)*
G04 Created by KiCad (PCBNEW 5.1.9+dfsg1-1) date 2022-02-15 13:48:39 commit a4fbcb5*
%MOMM*%
%LPD*%
G01*
G04 APERTURE LIST*
%TA.AperFunction,ViaDrill*%
%ADD10C,0.350000*%
%TD*%
G04 aperture for slot hole*
%TA.AperFunction,ComponentDrill*%
%ADD11C,0.400000*%
%TD*%
%TA.AperFunction,ComponentDrill*%
%ADD12C,0.400000*%
%TD*%
G04 aperture for slot hole*
%TA.AperFunction,ComponentDrill*%
%ADD13C,0.500000*%
%TD*%
G04 aperture for slot hole*
%TA.AperFunction,ComponentDrill*%
%ADD14C,0.600000*%
%TD*%
G04 aperture for slot hole*
%TA.AperFunction,ComponentDrill*%
%ADD15C,0.650000*%
%TD*%
%TA.AperFunction,ComponentDrill*%
%ADD16C,1.019990*%
%TD*%
%TA.AperFunction,ComponentDrill*%
%ADD17C,1.300000*%
%TD*%
%TA.AperFunction,ComponentDrill*%
%ADD18C,3.000000*%
%TD*%
G04 APERTURE END LIST*
D10*
X76200000Y-60400000D03*
X76200000Y-61200000D03*
X76200000Y-62000000D03*
X76200000Y-62800000D03*
X76500000Y-69500000D03*
X76900000Y-67100000D03*
X77900000Y-62900000D03*
X78500000Y-69500000D03*
X78600000Y-59700000D03*
X79100000Y-60200000D03*
X79700000Y-59700000D03*
X79700000Y-64800000D03*
X80200000Y-60200000D03*
X80500000Y-69500000D03*
X80700000Y-59700000D03*
X81037500Y-50487498D03*
X81444732Y-57792078D03*
X81593673Y-54006327D03*
X81762500Y-50487498D03*
X81957386Y-58304732D03*
X82106327Y-53493673D03*
X82400000Y-66700000D03*
X82500000Y-69500000D03*
X83800000Y-55300000D03*
X84050000Y-64350000D03*
X84500000Y-69500000D03*
X84569186Y-57662979D03*
X85081840Y-57150325D03*
X86500000Y-69500000D03*
X87093673Y-56710371D03*
X87300000Y-68100000D03*
X87600000Y-58500000D03*
X87600000Y-59500000D03*
X87600000Y-60300000D03*
X87606327Y-57223025D03*
X88400000Y-50700000D03*
X88500000Y-65900000D03*
X88500000Y-69500000D03*
X88500000Y-71500000D03*
X88500000Y-73500000D03*
X88500000Y-75500000D03*
X88500000Y-77500000D03*
X88500000Y-79500000D03*
X88500000Y-81500000D03*
X88500000Y-83500000D03*
X88500000Y-85500000D03*
X88500000Y-87500000D03*
X88500000Y-89500000D03*
X88500000Y-93500000D03*
X88500000Y-95500000D03*
X88500000Y-97500000D03*
X88500000Y-99500000D03*
X88500000Y-101500000D03*
X88500000Y-103500000D03*
X88500000Y-105500000D03*
X88500000Y-107500000D03*
X88500000Y-109500000D03*
X88500000Y-111500000D03*
X88500000Y-113500000D03*
X88500000Y-115500000D03*
X88500000Y-117500000D03*
X88500000Y-119500000D03*
X88500000Y-121500000D03*
X89400000Y-56783628D03*
X89500000Y-54300000D03*
X90500000Y-71500000D03*
X90500000Y-75500000D03*
X90500000Y-79500000D03*
X90500000Y-83500000D03*
X90500000Y-87500000D03*
X90500000Y-90500000D03*
X90500000Y-93500000D03*
X90500000Y-97500000D03*
X90500000Y-101500000D03*
X90500000Y-105500000D03*
X90500000Y-109500000D03*
X90500000Y-113500000D03*
X90500000Y-121500000D03*
X90600000Y-54300000D03*
X92037500Y-55153238D03*
X92500000Y-71500000D03*
X92500000Y-79500000D03*
X92500000Y-83500000D03*
X92500000Y-93500000D03*
X92500000Y-97500000D03*
X92500000Y-101500000D03*
X92500000Y-105500000D03*
X92762500Y-55153238D03*
X93087500Y-51900000D03*
X93250000Y-54550000D03*
X93812500Y-51900000D03*
X94152973Y-50621514D03*
X94250000Y-61987500D03*
X94250000Y-62712500D03*
X94500000Y-90500000D03*
X94500000Y-93500000D03*
X94500000Y-97500000D03*
X94500000Y-101500000D03*
X94500000Y-105500000D03*
X95000000Y-52600000D03*
X95412490Y-88800002D03*
X95514357Y-55673143D03*
X95514357Y-56398143D03*
X95697898Y-50653885D03*
X96250000Y-108750000D03*
X96250000Y-109750000D03*
X96250000Y-111000000D03*
X96500000Y-113500000D03*
X96500000Y-114500000D03*
X96500000Y-115500000D03*
X96500000Y-116500000D03*
X96600000Y-64500000D03*
X96898673Y-56753053D03*
X97042500Y-51718119D03*
X97411327Y-56240399D03*
X97450000Y-55450000D03*
X97500000Y-114000000D03*
X97500000Y-115000000D03*
X97500000Y-116000000D03*
X97767500Y-51718119D03*
X98500000Y-115500000D03*
X98500000Y-116500000D03*
X98600000Y-71200000D03*
X98992884Y-51863215D03*
X98992884Y-52588215D03*
X99200000Y-62900000D03*
X99200000Y-64892500D03*
X99400000Y-57037500D03*
X99400000Y-57762500D03*
X99400000Y-78650000D03*
X99400000Y-79800000D03*
X99400000Y-80800000D03*
X99400000Y-81800000D03*
X99400000Y-82800000D03*
X99400000Y-84250000D03*
X99400000Y-85400000D03*
X99400000Y-90300000D03*
X99500000Y-113800000D03*
X99500000Y-116000000D03*
X99800000Y-102800000D03*
X99843673Y-104643673D03*
X99900000Y-77950000D03*
X100100000Y-65400000D03*
X100287500Y-58300000D03*
X100356327Y-105156327D03*
X100700000Y-59600000D03*
X101012500Y-58300000D03*
X101050000Y-47850000D03*
X101100000Y-50600000D03*
X101102547Y-66702547D03*
X101330278Y-112319722D03*
X101600000Y-68000000D03*
X102300000Y-62500000D03*
X102400000Y-72225000D03*
X102500000Y-68000000D03*
X102550000Y-58200000D03*
X102700000Y-61400000D03*
X102800000Y-51500000D03*
X102800000Y-52600000D03*
X103000000Y-68800000D03*
X103300000Y-112300000D03*
X103400000Y-115950000D03*
X103700000Y-58300000D03*
X103800000Y-98600000D03*
X103823249Y-67560682D03*
X103900000Y-62600000D03*
X103900000Y-64100000D03*
X104000000Y-61100000D03*
X104100000Y-92900000D03*
X104200000Y-107700000D03*
X104400000Y-68000000D03*
X104743673Y-68743673D03*
X104800000Y-63500000D03*
X105256327Y-69256327D03*
X105400000Y-104700000D03*
X105400000Y-112400000D03*
X105500000Y-72600000D03*
X106033030Y-55845684D03*
X106337500Y-68200000D03*
X106400000Y-72700000D03*
X106545684Y-55333030D03*
X106800000Y-66500000D03*
X107062500Y-68200000D03*
X107100000Y-108300000D03*
X107112777Y-57138673D03*
X107349999Y-72700000D03*
X107400000Y-54400000D03*
X107500000Y-81300000D03*
X107625431Y-57651327D03*
X107837797Y-50325002D03*
X107887160Y-60487160D03*
X108037500Y-68400000D03*
X108400000Y-72700000D03*
X108593673Y-57243673D03*
X108600000Y-64500000D03*
X108762500Y-68400000D03*
X108800000Y-65500000D03*
X108987500Y-54350000D03*
X109100000Y-63900000D03*
X109106327Y-57756327D03*
X109170683Y-51079317D03*
X109400000Y-112400000D03*
X109450000Y-72700000D03*
X109458030Y-51879316D03*
X109500000Y-88400000D03*
X109500000Y-93600000D03*
X109700000Y-69200000D03*
X109712500Y-54350000D03*
X109743673Y-59443673D03*
X109970684Y-52391970D03*
X110256327Y-59956327D03*
X110400000Y-72700000D03*
X110450000Y-78100000D03*
X110800000Y-84500000D03*
X110800000Y-100100000D03*
X110900000Y-58137500D03*
X110900000Y-58862500D03*
X110900000Y-97500000D03*
X111000000Y-87100000D03*
X111200000Y-67400000D03*
X111400000Y-72700000D03*
X111487442Y-51478137D03*
X111600000Y-55100000D03*
X111900000Y-107100000D03*
X112000096Y-50965483D03*
X112350000Y-78000000D03*
X112400000Y-72700000D03*
X112900000Y-62200000D03*
X112900000Y-75900000D03*
X113400000Y-72700000D03*
X113400000Y-89700000D03*
X113400000Y-92637501D03*
X113400000Y-94900000D03*
X113500000Y-52137500D03*
X113500000Y-52862500D03*
X114537500Y-106850000D03*
X114800000Y-76200000D03*
X114935000Y-61210000D03*
X115000000Y-47650000D03*
X115262500Y-106850000D03*
X115757500Y-115957500D03*
X115900000Y-100100000D03*
X116000000Y-84500000D03*
X116094714Y-86905286D03*
X116100000Y-97500000D03*
X116400000Y-106800000D03*
X117300000Y-93600000D03*
X117700000Y-75000000D03*
X117755285Y-77744715D03*
X118000000Y-54000000D03*
X118000000Y-55500000D03*
X118000000Y-57000000D03*
X118000000Y-58500000D03*
X118000000Y-60000000D03*
X118363967Y-116797198D03*
X118500000Y-119750000D03*
X118500000Y-120750000D03*
X118500000Y-121750000D03*
X118600000Y-87100000D03*
X118744714Y-89555286D03*
X118900000Y-62400000D03*
X119000000Y-53000000D03*
X119000000Y-61000000D03*
X119200000Y-116800000D03*
X119250000Y-120250000D03*
X119250000Y-121250000D03*
X119292785Y-112092785D03*
X119900000Y-93400000D03*
X120000000Y-119750000D03*
X120000000Y-120750000D03*
X120000000Y-121750000D03*
X120400000Y-112200000D03*
X120500000Y-53000000D03*
X120500000Y-61000000D03*
X120537500Y-106845636D03*
X120700000Y-78000000D03*
X120750000Y-120250000D03*
X120750000Y-121250000D03*
X120900000Y-73000000D03*
X121100000Y-84700000D03*
X121200000Y-97600000D03*
X121200000Y-100100000D03*
X121262500Y-106845636D03*
X121500000Y-62500000D03*
X121500000Y-120750000D03*
X121500000Y-121750000D03*
X121600001Y-109475012D03*
X122000000Y-53000000D03*
X122000000Y-61000000D03*
X122000000Y-73200000D03*
X122000000Y-74750000D03*
X122200000Y-110299996D03*
X122250000Y-121250000D03*
X122500000Y-74000004D03*
X122699998Y-116000000D03*
X122900000Y-106600000D03*
X123000000Y-111200000D03*
X123000000Y-112000000D03*
X123000000Y-121750000D03*
X123326290Y-116498659D03*
X123400000Y-61000000D03*
X123450000Y-120250000D03*
X123450000Y-121150000D03*
X123500000Y-53000000D03*
X123700000Y-91662501D03*
X123782274Y-112000000D03*
X123800000Y-87100000D03*
X123800000Y-89700000D03*
X123894715Y-93705285D03*
X124599994Y-112000000D03*
X124900000Y-106600000D03*
X124900000Y-107900000D03*
X125000000Y-53000000D03*
X125000000Y-61000000D03*
X125100000Y-101300000D03*
X125500000Y-54000000D03*
X125500000Y-55500000D03*
X125500000Y-57000000D03*
X125500000Y-58500000D03*
X125500000Y-60000000D03*
X125700000Y-111497451D03*
X125769745Y-112472463D03*
X126132215Y-99067785D03*
X126174998Y-61650000D03*
X126368673Y-53006327D03*
X126400000Y-84500000D03*
X126500000Y-96012500D03*
X126612499Y-102500000D03*
X126881327Y-52493673D03*
X126899330Y-119135586D03*
X126900000Y-103500000D03*
X126900000Y-106600000D03*
X127550000Y-54000000D03*
X127550000Y-56150000D03*
X127600000Y-119400010D03*
X127700000Y-51900000D03*
X128000000Y-49700000D03*
X128000000Y-58100000D03*
X128074035Y-61319033D03*
X128080000Y-59770000D03*
X128080000Y-60560000D03*
X128100000Y-62732500D03*
X128120000Y-63520000D03*
X128120000Y-64340000D03*
X128400000Y-72100000D03*
X128575035Y-67664505D03*
X128700000Y-119200000D03*
X128900000Y-92637501D03*
X129000000Y-87100000D03*
X129000000Y-94900000D03*
X129100000Y-90287500D03*
X129160000Y-99815000D03*
X129200000Y-84500000D03*
X129230000Y-56820000D03*
X129256578Y-58088512D03*
X129322316Y-67695057D03*
X129437500Y-45981860D03*
X129537500Y-72512482D03*
X129587500Y-52415161D03*
X129838747Y-45333160D03*
X129981578Y-58088512D03*
X130162500Y-45981860D03*
X130193673Y-68753916D03*
X130261094Y-65627897D03*
X130262500Y-72512482D03*
X130312500Y-52415161D03*
X130521364Y-63352162D03*
X130560000Y-61560000D03*
X130706327Y-69266570D03*
X131000000Y-119100000D03*
X131037510Y-120050000D03*
X131300000Y-58000000D03*
X131302921Y-45467759D03*
X131500000Y-66100000D03*
X131526804Y-51139458D03*
X131537500Y-72512298D03*
X131600000Y-51887500D03*
X131600000Y-52612500D03*
X131671213Y-68681861D03*
X131720000Y-60560000D03*
X131980000Y-53420000D03*
X132010001Y-57610001D03*
X132027921Y-45467759D03*
X132039458Y-50626804D03*
X132183867Y-69194515D03*
X132262500Y-72512298D03*
X132300000Y-98700000D03*
X132362500Y-58250000D03*
X132742346Y-49042630D03*
X132850000Y-63437491D03*
X133000000Y-50100000D03*
X133300000Y-84300000D03*
X133313673Y-56973673D03*
X133537500Y-72473175D03*
X133600000Y-49530000D03*
X133600000Y-51800000D03*
X133650000Y-119050000D03*
X133812500Y-68331134D03*
X133826327Y-57486327D03*
X133900000Y-121800000D03*
X134262500Y-72473175D03*
X134537500Y-68331134D03*
X134544715Y-49455285D03*
X134700000Y-81300000D03*
X134956906Y-60362035D03*
X135100000Y-65300000D03*
X135368515Y-68568829D03*
X135490000Y-52070000D03*
X135537500Y-72476044D03*
X135570000Y-53280000D03*
X135881169Y-68056175D03*
X136189998Y-56990000D03*
X136262500Y-72476044D03*
X136650000Y-67100000D03*
X136690000Y-58900000D03*
X136875000Y-68537500D03*
X136875000Y-69262500D03*
X136900000Y-119025002D03*
X136900000Y-121100000D03*
X136990000Y-58220000D03*
X137110004Y-53590000D03*
X137537500Y-72477945D03*
X137700000Y-60450000D03*
X137700000Y-62150000D03*
X137712499Y-44612499D03*
X137749934Y-64568431D03*
X137800000Y-65450000D03*
X137850000Y-66349994D03*
X137919715Y-63319715D03*
X138137491Y-59650000D03*
X138262500Y-72477945D03*
X138337501Y-82362499D03*
X138400000Y-79300000D03*
X138680000Y-58320000D03*
X138681175Y-101493673D03*
X138768809Y-97937500D03*
X138768809Y-98662500D03*
X138830000Y-54560000D03*
X138943673Y-90906327D03*
X138993673Y-87306327D03*
X139100000Y-93937500D03*
X139100000Y-94662500D03*
X139100000Y-104850000D03*
X139193829Y-102006327D03*
X139228165Y-67271835D03*
X139350000Y-100050000D03*
X139456327Y-90393673D03*
X139506327Y-86793673D03*
X140100000Y-89300000D03*
X140400000Y-52950000D03*
X140400000Y-86400000D03*
X140687491Y-68300000D03*
X140700000Y-61800000D03*
X140700000Y-63400000D03*
X140700000Y-65000000D03*
X141800000Y-72100000D03*
X142100000Y-56000000D03*
X142400000Y-67550000D03*
X142803640Y-115507076D03*
X143074998Y-54050000D03*
X143125003Y-67550000D03*
X143300000Y-75800000D03*
X143450000Y-116500000D03*
X143500000Y-115000002D03*
X143612503Y-66200000D03*
X143750000Y-70250000D03*
X143750000Y-71500000D03*
X143750000Y-72750000D03*
X143818673Y-99930007D03*
X144000000Y-58300000D03*
X144000000Y-113150000D03*
X144037500Y-50337502D03*
X144075000Y-90937500D03*
X144075000Y-91662500D03*
X144075000Y-92937500D03*
X144075000Y-93662500D03*
X144075000Y-94937500D03*
X144075000Y-95662500D03*
X144075000Y-96937500D03*
X144075000Y-97662500D03*
X144331327Y-99417353D03*
X144600000Y-76937500D03*
X144600000Y-77662500D03*
X144600000Y-78937500D03*
X144600000Y-79662500D03*
X144600000Y-80937500D03*
X144600000Y-81662500D03*
X144600000Y-82937500D03*
X144600000Y-83662500D03*
X144600000Y-84937500D03*
X144600000Y-85662500D03*
X144650000Y-55600000D03*
X144762500Y-50337502D03*
X144950000Y-75000000D03*
X145800000Y-90900000D03*
X146300000Y-72200000D03*
X146300000Y-73400000D03*
X146300000Y-74550000D03*
X146700000Y-51700000D03*
X146750000Y-90900000D03*
X146800000Y-118900000D03*
X146900000Y-57100000D03*
X147900000Y-59200000D03*
X148700000Y-109800000D03*
X149000000Y-66750000D03*
X149400000Y-104400000D03*
X149450000Y-53750000D03*
X149500000Y-108100000D03*
X149500000Y-109074997D03*
X149500000Y-109800000D03*
X149550000Y-57900000D03*
X150100000Y-45950000D03*
X150326841Y-53751654D03*
X151050000Y-53699999D03*
X151150000Y-48200000D03*
X151200000Y-70700000D03*
X151200000Y-108400000D03*
X151250000Y-106500000D03*
X151250000Y-107500000D03*
X151250000Y-109250000D03*
X151350000Y-69800000D03*
X151500000Y-110500000D03*
X151900000Y-53550000D03*
X152000000Y-106500000D03*
X152000000Y-107500000D03*
X152000000Y-111250000D03*
X152200000Y-69800000D03*
X152500000Y-110500000D03*
X152800000Y-56150000D03*
X153000000Y-111250000D03*
X153050000Y-58750000D03*
X153200000Y-118800000D03*
X153550000Y-58200000D03*
X154050450Y-58725431D03*
X154550000Y-58200000D03*
X154750000Y-56050000D03*
X155000000Y-68600000D03*
X155050000Y-58750000D03*
X155850000Y-57200000D03*
X156037500Y-53000000D03*
X156700000Y-54250000D03*
X157100000Y-58900000D03*
X157259354Y-63100000D03*
X157540000Y-110915000D03*
X157600000Y-112750000D03*
X157700000Y-54300000D03*
X157700000Y-58400000D03*
X157732482Y-72201785D03*
X158000000Y-57600000D03*
X158200000Y-58900000D03*
X158800000Y-57000000D03*
X159400000Y-54250000D03*
X159499996Y-71400000D03*
X159500000Y-70800000D03*
X159550000Y-56500000D03*
X159600000Y-65100000D03*
X159902164Y-54853246D03*
X160000000Y-104000000D03*
X160800000Y-51750000D03*
X161100000Y-67200000D03*
X161100000Y-70800000D03*
X161300000Y-63600000D03*
X161450000Y-54350000D03*
X161500000Y-69300000D03*
X161900000Y-51750000D03*
X162600000Y-116400000D03*
X162700000Y-108600000D03*
X162700000Y-110000000D03*
X163000000Y-51750000D03*
X163050000Y-54500000D03*
X163100000Y-109300000D03*
X163200000Y-66400000D03*
X163500000Y-108600000D03*
X163500000Y-110000000D03*
X163700000Y-58150000D03*
X163862501Y-113812501D03*
X163900000Y-109300000D03*
X164300000Y-108600000D03*
X164300000Y-110000000D03*
X164700000Y-109300000D03*
X165100000Y-108600000D03*
X165100000Y-110000000D03*
X165419715Y-58469715D03*
X165500000Y-109300000D03*
X165712490Y-52341815D03*
X166200000Y-50750000D03*
X166232284Y-58947470D03*
X166500000Y-51900000D03*
X166700000Y-55200000D03*
X166950000Y-59050000D03*
X167200000Y-63900000D03*
X167200000Y-104300000D03*
X168000000Y-66400000D03*
X168200000Y-88800000D03*
X168200000Y-89800000D03*
X168550000Y-53600000D03*
X168650000Y-54500000D03*
X168750000Y-60100000D03*
X168776841Y-59251654D03*
X168849996Y-100150004D03*
X169007220Y-91807220D03*
X169100000Y-72800000D03*
X169100000Y-75800000D03*
X169100000Y-78800000D03*
X169100000Y-81800000D03*
X169100000Y-84800000D03*
X169100000Y-87800000D03*
X169100000Y-90800000D03*
X169500000Y-59200000D03*
X169850000Y-108100000D03*
X170600000Y-59750000D03*
X170850000Y-108350000D03*
X172100000Y-108250000D03*
X172800000Y-55850000D03*
X173450000Y-105450000D03*
X173600000Y-101250000D03*
X174000000Y-100400000D03*
X174000000Y-101950000D03*
X174400000Y-104450000D03*
X174400000Y-105350000D03*
D11*
%TO.C,J6*%
X77380000Y-50080000D02*
X77730000Y-50080000D01*
D12*
X78600000Y-47880000D03*
X79000000Y-47180000D03*
X79800000Y-47180000D03*
X80200000Y-47880000D03*
X80600000Y-47180000D03*
X81000000Y-47880000D03*
X81800000Y-47880000D03*
X82200000Y-47180000D03*
X82600000Y-47880000D03*
X83000000Y-47180000D03*
X83800000Y-47180000D03*
X84200000Y-47880000D03*
D11*
X85070000Y-50080000D02*
X85420000Y-50080000D01*
%TO.C,J11*%
X90880000Y-50080000D02*
X91230000Y-50080000D01*
D12*
X92100000Y-47880000D03*
X92500000Y-47180000D03*
X93300000Y-47180000D03*
X93700000Y-47880000D03*
X94100000Y-47180000D03*
X94500000Y-47880000D03*
X95300000Y-47880000D03*
X95700000Y-47180000D03*
X96100000Y-47880000D03*
X96500000Y-47180000D03*
X97300000Y-47180000D03*
X97700000Y-47880000D03*
D11*
X98570000Y-50080000D02*
X98920000Y-50080000D01*
%TO.C,J10*%
X104380000Y-50080000D02*
X104730000Y-50080000D01*
D12*
X105600000Y-47880000D03*
X106000000Y-47180000D03*
X106800000Y-47180000D03*
X107200000Y-47880000D03*
X107600000Y-47180000D03*
X108000000Y-47880000D03*
X108800000Y-47880000D03*
X109200000Y-47180000D03*
X109600000Y-47880000D03*
X110000000Y-47180000D03*
X110800000Y-47180000D03*
X111200000Y-47880000D03*
D11*
X112070000Y-50080000D02*
X112420000Y-50080000D01*
%TO.C,J9*%
X140380000Y-50080000D02*
X140730000Y-50080000D01*
D12*
X141600000Y-47880000D03*
X142000000Y-47180000D03*
X142800000Y-47180000D03*
X143200000Y-47880000D03*
X143600000Y-47180000D03*
X144000000Y-47880000D03*
X144800000Y-47880000D03*
X145200000Y-47180000D03*
X145600000Y-47880000D03*
X146000000Y-47180000D03*
X146800000Y-47180000D03*
X147200000Y-47880000D03*
D11*
X148070000Y-50080000D02*
X148420000Y-50080000D01*
%TO.C,J12*%
X153880000Y-50080000D02*
X154230000Y-50080000D01*
D12*
X155100000Y-47880000D03*
X155500000Y-47180000D03*
X156300000Y-47180000D03*
X156700000Y-47880000D03*
X157100000Y-47180000D03*
X157500000Y-47880000D03*
X158300000Y-47880000D03*
X158700000Y-47180000D03*
X159100000Y-47880000D03*
X159500000Y-47180000D03*
X160300000Y-47180000D03*
X160700000Y-47880000D03*
D11*
X161570000Y-50080000D02*
X161920000Y-50080000D01*
D13*
%TO.C,J6*%
X76900000Y-44265000D02*
X76900000Y-45265000D01*
X85900000Y-44265000D02*
X85900000Y-45265000D01*
%TO.C,J11*%
X90400000Y-44265000D02*
X90400000Y-45265000D01*
X99400000Y-44265000D02*
X99400000Y-45265000D01*
%TO.C,J10*%
X103900000Y-44265000D02*
X103900000Y-45265000D01*
X112900000Y-44265000D02*
X112900000Y-45265000D01*
%TO.C,J9*%
X139900000Y-44265000D02*
X139900000Y-45265000D01*
X148900000Y-44265000D02*
X148900000Y-45265000D01*
%TO.C,J12*%
X153400000Y-44265000D02*
X153400000Y-45265000D01*
X162400000Y-44265000D02*
X162400000Y-45265000D01*
D14*
%TO.C,J6*%
X77180000Y-46980000D02*
X77180000Y-47580000D01*
X85620000Y-46980000D02*
X85620000Y-47580000D01*
%TO.C,J11*%
X90680000Y-46980000D02*
X90680000Y-47580000D01*
X99120000Y-46980000D02*
X99120000Y-47580000D01*
%TO.C,J10*%
X104180000Y-46980000D02*
X104180000Y-47580000D01*
X112620000Y-46980000D02*
X112620000Y-47580000D01*
%TO.C,J9*%
X140180000Y-46980000D02*
X140180000Y-47580000D01*
X148620000Y-46980000D02*
X148620000Y-47580000D01*
%TO.C,J12*%
X153680000Y-46980000D02*
X153680000Y-47580000D01*
X162120000Y-46980000D02*
X162120000Y-47580000D01*
D15*
%TO.C,J4*%
X127300000Y-43375000D02*
X127300000Y-44425000D01*
X127300000Y-46735000D02*
X127300000Y-47785000D01*
X133500000Y-43375000D02*
X133500000Y-44425000D01*
X133500000Y-46735000D02*
X133500000Y-47785000D01*
D16*
%TO.C,SW1*%
X145250000Y-62250000D03*
X147790000Y-62250000D03*
X150330000Y-62250000D03*
D17*
%TO.C,J1*%
X171050000Y-53100000D03*
X173550000Y-53100000D03*
D18*
%TO.C,MP3*%
X78750000Y-55850000D03*
%TO.C,MP4*%
X92550000Y-118350000D03*
%TO.C,MP1*%
X166200000Y-46200000D03*
%TO.C,MP2*%
X171400000Y-117400000D03*
M02*
